G04 (created by PCBNEW-RS274X (2012-01-19 BZR 3256)-stable) date 20/09/2012 17:26:11*
G01*
G70*
G90*
%MOIN*%
G04 Gerber Fmt 3.4, Leading zero omitted, Abs format*
%FSLAX34Y34*%
G04 APERTURE LIST*
%ADD10C,0.006000*%
%ADD11O,0.180000X0.080000*%
%ADD12C,0.080000*%
%ADD13R,0.080000X0.080000*%
G04 APERTURE END LIST*
G54D10*
G54D11*
X85000Y-64500D03*
X85000Y-63500D03*
X85000Y-62500D03*
X85000Y-61500D03*
X85000Y-60500D03*
X85000Y-59500D03*
X85000Y-58500D03*
X85000Y-57500D03*
X85000Y-56500D03*
X85000Y-55500D03*
X94500Y-64500D03*
X94500Y-63500D03*
X94500Y-62500D03*
X94500Y-61500D03*
X94500Y-60500D03*
X94500Y-59500D03*
X94500Y-58500D03*
X94500Y-57500D03*
X94500Y-56500D03*
X94500Y-55500D03*
G54D12*
X87500Y-64500D03*
X88500Y-63500D03*
G54D13*
X88500Y-64500D03*
G54D12*
X87500Y-63500D03*
X88500Y-62500D03*
X87500Y-62500D03*
X88500Y-61500D03*
X87500Y-61500D03*
X88500Y-60500D03*
X87500Y-60500D03*
X88500Y-59500D03*
X87500Y-59500D03*
X88500Y-58500D03*
X87500Y-58500D03*
X88500Y-57500D03*
X87500Y-57500D03*
X88500Y-56500D03*
X87500Y-56500D03*
X88500Y-55500D03*
X87500Y-55500D03*
X91000Y-64500D03*
X92000Y-63500D03*
G54D13*
X92000Y-64500D03*
G54D12*
X91000Y-63500D03*
X92000Y-62500D03*
X91000Y-62500D03*
X92000Y-61500D03*
X91000Y-61500D03*
X92000Y-60500D03*
X91000Y-60500D03*
X92000Y-59500D03*
X91000Y-59500D03*
X92000Y-58500D03*
X91000Y-58500D03*
X92000Y-57500D03*
X91000Y-57500D03*
X92000Y-56500D03*
X91000Y-56500D03*
X92000Y-55500D03*
X91000Y-55500D03*
M02*
