M48
;DRILL file {Pcbnew (2012-01-19 BZR 3256)-stable} date 20/09/2012 17:26:15
;FORMAT={-:-/ absolute / inch / decimal}
FMAT,2
INCH,TZ
T1C0.035
%
G90
G05
M72
T1
X8.750Y5.550
X8.750Y5.650
X8.750Y5.750
X8.750Y5.850
X8.750Y5.950
X8.750Y6.050
X8.750Y6.150
X8.750Y6.250
X8.750Y6.350
X8.750Y6.450
X8.850Y5.550
X8.850Y5.650
X8.850Y5.750
X8.850Y5.850
X8.850Y5.950
X8.850Y6.050
X8.850Y6.150
X8.850Y6.250
X8.850Y6.350
X8.850Y6.450
X9.100Y5.550
X9.100Y5.650
X9.100Y5.750
X9.100Y5.850
X9.100Y5.950
X9.100Y6.050
X9.100Y6.150
X9.100Y6.250
X9.100Y6.350
X9.100Y6.450
X9.200Y5.550
X9.200Y5.650
X9.200Y5.750
X9.200Y5.850
X9.200Y5.950
X9.200Y6.050
X9.200Y6.150
X9.200Y6.250
X9.200Y6.350
X9.200Y6.450
T0
M30
