G04 (created by PCBNEW-RS274X (2012-01-19 BZR 3256)-stable) date 20/09/2012 17:26:11*
G01*
G70*
G90*
%MOIN*%
G04 Gerber Fmt 3.4, Leading zero omitted, Abs format*
%FSLAX34Y34*%
G04 APERTURE LIST*
%ADD10C,0.006000*%
%ADD11R,0.160000X0.060000*%
%ADD12O,0.160000X0.060000*%
%ADD13C,0.060000*%
%ADD14R,0.060000X0.060000*%
%ADD15C,0.010000*%
G04 APERTURE END LIST*
G54D10*
G54D11*
X85000Y-64500D03*
G54D12*
X85000Y-63500D03*
X85000Y-62500D03*
X85000Y-61500D03*
X85000Y-60500D03*
X85000Y-59500D03*
X85000Y-58500D03*
X85000Y-57500D03*
X85000Y-56500D03*
X85000Y-55500D03*
G54D11*
X94500Y-64500D03*
G54D12*
X94500Y-63500D03*
X94500Y-62500D03*
X94500Y-61500D03*
X94500Y-60500D03*
X94500Y-59500D03*
X94500Y-58500D03*
X94500Y-57500D03*
X94500Y-56500D03*
X94500Y-55500D03*
G54D13*
X87500Y-64500D03*
X88500Y-63500D03*
G54D14*
X88500Y-64500D03*
G54D13*
X87500Y-63500D03*
X88500Y-62500D03*
X87500Y-62500D03*
X88500Y-61500D03*
X87500Y-61500D03*
X88500Y-60500D03*
X87500Y-60500D03*
X88500Y-59500D03*
X87500Y-59500D03*
X88500Y-58500D03*
X87500Y-58500D03*
X88500Y-57500D03*
X87500Y-57500D03*
X88500Y-56500D03*
X87500Y-56500D03*
X88500Y-55500D03*
X87500Y-55500D03*
X91000Y-64500D03*
X92000Y-63500D03*
G54D14*
X92000Y-64500D03*
G54D13*
X91000Y-63500D03*
X92000Y-62500D03*
X91000Y-62500D03*
X92000Y-61500D03*
X91000Y-61500D03*
X92000Y-60500D03*
X91000Y-60500D03*
X92000Y-59500D03*
X91000Y-59500D03*
X92000Y-58500D03*
X91000Y-58500D03*
X92000Y-57500D03*
X91000Y-57500D03*
X92000Y-56500D03*
X91000Y-56500D03*
X92000Y-55500D03*
X91000Y-55500D03*
G54D15*
X92000Y-55500D02*
X94500Y-55500D01*
X85000Y-55500D02*
X86000Y-55500D01*
X88000Y-56000D02*
X88500Y-55500D01*
X86500Y-56000D02*
X88000Y-56000D01*
X86000Y-55500D02*
X86500Y-56000D01*
X89000Y-56000D02*
X91500Y-56000D01*
X91500Y-56000D02*
X92000Y-55500D01*
X88500Y-55500D02*
X89000Y-56000D01*
X86500Y-57000D02*
X88000Y-57000D01*
X86000Y-56500D02*
X86500Y-57000D01*
X85000Y-56500D02*
X86000Y-56500D01*
X88000Y-57000D02*
X88500Y-56500D01*
X89000Y-57000D02*
X91500Y-57000D01*
X91500Y-57000D02*
X92000Y-56500D01*
X88500Y-56500D02*
X89000Y-57000D01*
X92000Y-56500D02*
X94500Y-56500D01*
X92000Y-57500D02*
X94500Y-57500D01*
X86000Y-57500D02*
X86500Y-58000D01*
X88000Y-58000D02*
X88500Y-57500D01*
X85000Y-57500D02*
X86000Y-57500D01*
X89000Y-58000D02*
X91500Y-58000D01*
X91500Y-58000D02*
X92000Y-57500D01*
X88500Y-57500D02*
X89000Y-58000D01*
X86500Y-58000D02*
X88000Y-58000D01*
X88000Y-59000D02*
X88500Y-58500D01*
X85000Y-58500D02*
X86000Y-58500D01*
X86500Y-59000D02*
X88000Y-59000D01*
X86000Y-58500D02*
X86500Y-59000D01*
X91500Y-59000D02*
X92000Y-58500D01*
X88500Y-58500D02*
X89000Y-59000D01*
X92000Y-58500D02*
X94500Y-58500D01*
X89000Y-59000D02*
X91500Y-59000D01*
X92000Y-59500D02*
X94500Y-59500D01*
X88500Y-59500D02*
X89000Y-60000D01*
X91500Y-60000D02*
X92000Y-59500D01*
X89000Y-60000D02*
X91500Y-60000D01*
X86000Y-59500D02*
X86500Y-60000D01*
X86500Y-60000D02*
X88000Y-60000D01*
X88000Y-60000D02*
X88500Y-59500D01*
X85000Y-59500D02*
X86000Y-59500D01*
X92000Y-64500D02*
X94500Y-64500D01*
X85000Y-64500D02*
X86000Y-64500D01*
X86000Y-64500D02*
X86500Y-65000D01*
X86500Y-65000D02*
X88000Y-65000D01*
X89000Y-65000D02*
X91500Y-65000D01*
X91500Y-65000D02*
X92000Y-64500D01*
X88500Y-64500D02*
X89000Y-65000D01*
X88000Y-65000D02*
X88500Y-64500D01*
X85000Y-60500D02*
X86000Y-60500D01*
X88000Y-61000D02*
X88500Y-60500D01*
X86500Y-61000D02*
X88000Y-61000D01*
X86000Y-60500D02*
X86500Y-61000D01*
X89000Y-61000D02*
X91500Y-61000D01*
X92000Y-60500D02*
X94500Y-60500D01*
X88500Y-60500D02*
X89000Y-61000D01*
X91500Y-61000D02*
X92000Y-60500D01*
X88500Y-61500D02*
X89000Y-62000D01*
X85000Y-61500D02*
X86000Y-61500D01*
X88000Y-62000D02*
X88500Y-61500D01*
X86500Y-62000D02*
X88000Y-62000D01*
X86000Y-61500D02*
X86500Y-62000D01*
X89000Y-62000D02*
X91500Y-62000D01*
X91500Y-62000D02*
X92000Y-61500D01*
X92000Y-61500D02*
X94500Y-61500D01*
X92000Y-62500D02*
X94500Y-62500D01*
X88500Y-62500D02*
X89000Y-63000D01*
X91500Y-63000D02*
X92000Y-62500D01*
X89000Y-63000D02*
X91500Y-63000D01*
X86000Y-62500D02*
X86500Y-63000D01*
X86500Y-63000D02*
X88000Y-63000D01*
X88000Y-63000D02*
X88500Y-62500D01*
X85000Y-62500D02*
X86000Y-62500D01*
X86500Y-64000D02*
X88000Y-64000D01*
X86000Y-63500D02*
X86500Y-64000D01*
X88000Y-64000D02*
X88500Y-63500D01*
X85000Y-63500D02*
X86000Y-63500D01*
X89000Y-64000D02*
X91500Y-64000D01*
X91500Y-64000D02*
X92000Y-63500D01*
X88500Y-63500D02*
X89000Y-64000D01*
X92000Y-63500D02*
X94500Y-63500D01*
M02*
