M48
;DRILL file {Pcbnew (2011-12-28 BZR 3254)-stable} date 17/03/2012 11:59:54
;FORMAT={-:-/ absolute / inch / decimal}
FMAT,2
INCH,TZ
T1C0.025
T2C0.035
%
G90
G05
M72
T1
X3.870Y4.590
X3.910Y4.690
X4.023Y4.780
X4.030Y4.560
X4.190Y4.805
X4.195Y5.135
X4.300Y4.905
X4.300Y5.220
X4.335Y4.845
X4.350Y4.740
X4.355Y5.125
X4.390Y4.965
X4.405Y5.175
X4.425Y4.825
X4.435Y4.960
X4.455Y5.075
X4.465Y5.135
X4.470Y4.805
X4.495Y4.945
X4.500Y5.025
X4.505Y4.675
X4.505Y4.745
X4.515Y4.805
X4.570Y5.065
X4.620Y4.810
X4.620Y4.895
X4.620Y5.265
X4.660Y4.915
X4.660Y5.205
X4.680Y4.810
X4.680Y4.855
X4.710Y5.100
X4.748Y4.650
X4.748Y4.750
X4.748Y4.850
X4.748Y4.950
X4.748Y5.050
X4.748Y5.150
X4.748Y5.250
X4.748Y5.350
X4.748Y5.450
X4.750Y4.550
T2
X3.912Y5.370
X4.108Y5.370
X4.334Y5.375
X4.526Y5.375
T0
M30
