G04 (created by PCBNEW-RS274X (2011-12-28 BZR 3254)-stable) date 17/03/2012 11:59:51*
G01*
G70*
G90*
%MOIN*%
G04 Gerber Fmt 3.4, Leading zero omitted, Abs format*
%FSLAX34Y34*%
G04 APERTURE LIST*
%ADD10C,0.006000*%
%ADD11C,0.012000*%
%ADD12C,0.005000*%
G04 APERTURE END LIST*
G54D10*
G54D11*
X41987Y-55858D02*
X42358Y-55858D01*
X42158Y-56163D01*
X42244Y-56163D01*
X42301Y-56201D01*
X42330Y-56239D01*
X42358Y-56315D01*
X42358Y-56505D01*
X42330Y-56582D01*
X42301Y-56620D01*
X42244Y-56658D01*
X42072Y-56658D01*
X42015Y-56620D01*
X41987Y-56582D01*
X42586Y-55934D02*
X42615Y-55896D01*
X42672Y-55858D01*
X42815Y-55858D01*
X42872Y-55896D01*
X42901Y-55934D01*
X42929Y-56010D01*
X42929Y-56086D01*
X42901Y-56201D01*
X42558Y-56658D01*
X42929Y-56658D01*
X43186Y-56582D02*
X43214Y-56620D01*
X43186Y-56658D01*
X43157Y-56620D01*
X43186Y-56582D01*
X43186Y-56658D01*
X43586Y-55858D02*
X43643Y-55858D01*
X43700Y-55896D01*
X43729Y-55934D01*
X43758Y-56010D01*
X43786Y-56163D01*
X43786Y-56353D01*
X43758Y-56505D01*
X43729Y-56582D01*
X43700Y-56620D01*
X43643Y-56658D01*
X43586Y-56658D01*
X43529Y-56620D01*
X43500Y-56582D01*
X43472Y-56505D01*
X43443Y-56353D01*
X43443Y-56163D01*
X43472Y-56010D01*
X43500Y-55934D01*
X43529Y-55896D01*
X43586Y-55858D01*
X44157Y-55858D02*
X44214Y-55858D01*
X44271Y-55896D01*
X44300Y-55934D01*
X44329Y-56010D01*
X44357Y-56163D01*
X44357Y-56353D01*
X44329Y-56505D01*
X44300Y-56582D01*
X44271Y-56620D01*
X44214Y-56658D01*
X44157Y-56658D01*
X44100Y-56620D01*
X44071Y-56582D01*
X44043Y-56505D01*
X44014Y-56353D01*
X44014Y-56163D01*
X44043Y-56010D01*
X44071Y-55934D01*
X44100Y-55896D01*
X44157Y-55858D01*
X44871Y-56124D02*
X44871Y-56658D01*
X44728Y-55820D02*
X44585Y-56391D01*
X44957Y-56391D01*
X45642Y-56658D02*
X45642Y-56124D01*
X45642Y-56201D02*
X45670Y-56163D01*
X45728Y-56124D01*
X45813Y-56124D01*
X45870Y-56163D01*
X45899Y-56239D01*
X45899Y-56658D01*
X45899Y-56239D02*
X45928Y-56163D01*
X45985Y-56124D01*
X46070Y-56124D01*
X46128Y-56163D01*
X46156Y-56239D01*
X46156Y-56658D01*
X46442Y-56658D02*
X46442Y-56124D01*
X46442Y-56201D02*
X46470Y-56163D01*
X46528Y-56124D01*
X46613Y-56124D01*
X46670Y-56163D01*
X46699Y-56239D01*
X46699Y-56658D01*
X46699Y-56239D02*
X46728Y-56163D01*
X46785Y-56124D01*
X46870Y-56124D01*
X46928Y-56163D01*
X46956Y-56239D01*
X46956Y-56658D01*
G54D12*
X38200Y-55799D02*
X50800Y-55799D01*
X38200Y-55200D02*
X38200Y-56869D01*
X50800Y-55200D02*
X50800Y-56869D01*
X50800Y-55799D02*
X50357Y-56029D01*
X50800Y-55799D02*
X50357Y-55569D01*
X38200Y-55799D02*
X38643Y-56029D01*
X38200Y-55799D02*
X38643Y-55569D01*
G54D11*
X52234Y-47515D02*
X52272Y-47544D01*
X52310Y-47601D01*
X52310Y-47744D01*
X52272Y-47801D01*
X52234Y-47830D01*
X52158Y-47858D01*
X52082Y-47858D01*
X51967Y-47830D01*
X51510Y-47487D01*
X51510Y-47858D01*
X52310Y-48372D02*
X52310Y-48258D01*
X52272Y-48201D01*
X52234Y-48172D01*
X52120Y-48115D01*
X51967Y-48086D01*
X51663Y-48086D01*
X51586Y-48115D01*
X51548Y-48143D01*
X51510Y-48201D01*
X51510Y-48315D01*
X51548Y-48372D01*
X51586Y-48401D01*
X51663Y-48429D01*
X51853Y-48429D01*
X51929Y-48401D01*
X51967Y-48372D01*
X52005Y-48315D01*
X52005Y-48201D01*
X51967Y-48143D01*
X51929Y-48115D01*
X51853Y-48086D01*
X51586Y-48686D02*
X51548Y-48714D01*
X51510Y-48686D01*
X51548Y-48657D01*
X51586Y-48686D01*
X51510Y-48686D01*
X52044Y-49229D02*
X51510Y-49229D01*
X52348Y-49086D02*
X51777Y-48943D01*
X51777Y-49315D01*
X51510Y-49857D02*
X51510Y-49514D01*
X51510Y-49686D02*
X52310Y-49686D01*
X52196Y-49629D01*
X52120Y-49571D01*
X52082Y-49514D01*
X52310Y-50371D02*
X52310Y-50257D01*
X52272Y-50200D01*
X52234Y-50171D01*
X52120Y-50114D01*
X51967Y-50085D01*
X51663Y-50085D01*
X51586Y-50114D01*
X51548Y-50142D01*
X51510Y-50200D01*
X51510Y-50314D01*
X51548Y-50371D01*
X51586Y-50400D01*
X51663Y-50428D01*
X51853Y-50428D01*
X51929Y-50400D01*
X51967Y-50371D01*
X52005Y-50314D01*
X52005Y-50200D01*
X51967Y-50142D01*
X51929Y-50114D01*
X51853Y-50085D01*
X51510Y-51142D02*
X52044Y-51142D01*
X51967Y-51142D02*
X52005Y-51170D01*
X52044Y-51228D01*
X52044Y-51313D01*
X52005Y-51370D01*
X51929Y-51399D01*
X51510Y-51399D01*
X51929Y-51399D02*
X52005Y-51428D01*
X52044Y-51485D01*
X52044Y-51570D01*
X52005Y-51628D01*
X51929Y-51656D01*
X51510Y-51656D01*
X51510Y-51942D02*
X52044Y-51942D01*
X51967Y-51942D02*
X52005Y-51970D01*
X52044Y-52028D01*
X52044Y-52113D01*
X52005Y-52170D01*
X51929Y-52199D01*
X51510Y-52199D01*
X51929Y-52199D02*
X52005Y-52228D01*
X52044Y-52285D01*
X52044Y-52370D01*
X52005Y-52428D01*
X51929Y-52456D01*
X51510Y-52456D01*
G54D12*
X51299Y-44800D02*
X51299Y-55200D01*
X50800Y-44800D02*
X52369Y-44800D01*
X50800Y-55200D02*
X52369Y-55200D01*
X51299Y-55200D02*
X51069Y-54757D01*
X51299Y-55200D02*
X51529Y-54757D01*
X51299Y-44800D02*
X51069Y-45243D01*
X51299Y-44800D02*
X51529Y-45243D01*
X38200Y-44800D02*
X38200Y-48400D01*
X38200Y-51600D02*
X38200Y-55200D01*
X41400Y-48400D02*
X41400Y-49100D01*
X41400Y-50900D02*
X41400Y-51600D01*
X38200Y-51600D02*
X41400Y-51600D01*
X38200Y-48400D02*
X41400Y-48400D01*
X50800Y-44800D02*
X50800Y-55200D01*
X41400Y-49100D02*
X41000Y-49100D01*
X50800Y-44800D02*
X38200Y-44800D01*
X50800Y-55200D02*
X38200Y-55200D01*
X41000Y-49100D02*
X41000Y-50900D01*
X41000Y-50900D02*
X41400Y-50900D01*
M02*
