G04 (created by PCBNEW-RS274X (2011-12-28 BZR 3254)-stable) date 17/03/2012 11:59:50*
G01*
G70*
G90*
%MOIN*%
G04 Gerber Fmt 3.4, Leading zero omitted, Abs format*
%FSLAX34Y34*%
G04 APERTURE LIST*
%ADD10C,0.006000*%
%ADD11O,0.160000X0.060000*%
%ADD12R,0.035000X0.055000*%
%ADD13R,0.040000X0.016000*%
%ADD14R,0.045000X0.055000*%
%ADD15R,0.035000X0.045000*%
%ADD16R,0.020000X0.040000*%
%ADD17R,0.045000X0.025000*%
%ADD18R,0.063000X0.055100*%
%ADD19R,0.092500X0.019700*%
G04 APERTURE END LIST*
G54D10*
G54D11*
X49600Y-45500D03*
X49600Y-46500D03*
X49600Y-47500D03*
X49600Y-48500D03*
X49600Y-49500D03*
X49600Y-50500D03*
X49600Y-51500D03*
X49600Y-52500D03*
X49600Y-53500D03*
X49600Y-54500D03*
G54D12*
X47475Y-54500D03*
X48225Y-54500D03*
X47475Y-53500D03*
X48225Y-53500D03*
X47475Y-46500D03*
X48225Y-46500D03*
X47475Y-47500D03*
X48225Y-47500D03*
X47475Y-48500D03*
X48225Y-48500D03*
X47475Y-49500D03*
X48225Y-49500D03*
X47475Y-51500D03*
X48225Y-51500D03*
X47475Y-52500D03*
X48225Y-52500D03*
X47475Y-50500D03*
X48225Y-50500D03*
G54D13*
X43400Y-50010D03*
X43400Y-49750D03*
X43400Y-49490D03*
X42600Y-49490D03*
X42600Y-49750D03*
X42600Y-50010D03*
G54D14*
X48275Y-52000D03*
X49125Y-52000D03*
G54D15*
X43950Y-53000D03*
X43250Y-53000D03*
X45350Y-53000D03*
X44650Y-53000D03*
X43950Y-52250D03*
X43250Y-52250D03*
X48200Y-45500D03*
X47500Y-45500D03*
X44650Y-52250D03*
X45350Y-52250D03*
X43350Y-48550D03*
X42650Y-48550D03*
X44650Y-51500D03*
X45350Y-51500D03*
G54D16*
X40175Y-46750D03*
X39425Y-46750D03*
X40175Y-45650D03*
X39800Y-46750D03*
X39425Y-45650D03*
G54D15*
X45350Y-50750D03*
X44650Y-50750D03*
G54D17*
X44650Y-51250D03*
G54D18*
X38953Y-48110D03*
X41000Y-48110D03*
X38953Y-51890D03*
X41000Y-51890D03*
G54D19*
X41630Y-49370D03*
X41630Y-49685D03*
X41630Y-50000D03*
X41630Y-50315D03*
X41630Y-50630D03*
M02*
