G04 (created by PCBNEW-RS274X (2011-12-28 BZR 3254)-stable) date 17/03/2012 11:59:51*
G01*
G70*
G90*
%MOIN*%
G04 Gerber Fmt 3.4, Leading zero omitted, Abs format*
%FSLAX34Y34*%
G04 APERTURE LIST*
%ADD10C,0.006000*%
%ADD11C,0.015000*%
%ADD12C,0.005000*%
%ADD13C,0.004500*%
G04 APERTURE END LIST*
G54D10*
G54D11*
X50600Y-45000D02*
X50600Y-55000D01*
X48600Y-45000D02*
X48600Y-55000D01*
X50600Y-55000D02*
X48600Y-55000D01*
X48600Y-45000D02*
X50600Y-45000D01*
G54D12*
X47250Y-54800D02*
X47150Y-54700D01*
X47150Y-54700D02*
X47150Y-54300D01*
X47150Y-54300D02*
X47250Y-54200D01*
X47650Y-54200D02*
X47250Y-54200D01*
X47250Y-54200D02*
X47250Y-54800D01*
X47250Y-54800D02*
X47650Y-54800D01*
X48050Y-54800D02*
X48450Y-54800D01*
X48450Y-54800D02*
X48450Y-54200D01*
X48450Y-54200D02*
X48050Y-54200D01*
X47250Y-53800D02*
X47150Y-53700D01*
X47150Y-53700D02*
X47150Y-53300D01*
X47150Y-53300D02*
X47250Y-53200D01*
X47650Y-53200D02*
X47250Y-53200D01*
X47250Y-53200D02*
X47250Y-53800D01*
X47250Y-53800D02*
X47650Y-53800D01*
X48050Y-53800D02*
X48450Y-53800D01*
X48450Y-53800D02*
X48450Y-53200D01*
X48450Y-53200D02*
X48050Y-53200D01*
X47250Y-46800D02*
X47150Y-46700D01*
X47150Y-46700D02*
X47150Y-46300D01*
X47150Y-46300D02*
X47250Y-46200D01*
X47650Y-46200D02*
X47250Y-46200D01*
X47250Y-46200D02*
X47250Y-46800D01*
X47250Y-46800D02*
X47650Y-46800D01*
X48050Y-46800D02*
X48450Y-46800D01*
X48450Y-46800D02*
X48450Y-46200D01*
X48450Y-46200D02*
X48050Y-46200D01*
X47250Y-47800D02*
X47150Y-47700D01*
X47150Y-47700D02*
X47150Y-47300D01*
X47150Y-47300D02*
X47250Y-47200D01*
X47650Y-47200D02*
X47250Y-47200D01*
X47250Y-47200D02*
X47250Y-47800D01*
X47250Y-47800D02*
X47650Y-47800D01*
X48050Y-47800D02*
X48450Y-47800D01*
X48450Y-47800D02*
X48450Y-47200D01*
X48450Y-47200D02*
X48050Y-47200D01*
X47250Y-48800D02*
X47150Y-48700D01*
X47150Y-48700D02*
X47150Y-48300D01*
X47150Y-48300D02*
X47250Y-48200D01*
X47650Y-48200D02*
X47250Y-48200D01*
X47250Y-48200D02*
X47250Y-48800D01*
X47250Y-48800D02*
X47650Y-48800D01*
X48050Y-48800D02*
X48450Y-48800D01*
X48450Y-48800D02*
X48450Y-48200D01*
X48450Y-48200D02*
X48050Y-48200D01*
X47250Y-49800D02*
X47150Y-49700D01*
X47150Y-49700D02*
X47150Y-49300D01*
X47150Y-49300D02*
X47250Y-49200D01*
X47650Y-49200D02*
X47250Y-49200D01*
X47250Y-49200D02*
X47250Y-49800D01*
X47250Y-49800D02*
X47650Y-49800D01*
X48050Y-49800D02*
X48450Y-49800D01*
X48450Y-49800D02*
X48450Y-49200D01*
X48450Y-49200D02*
X48050Y-49200D01*
X47250Y-51800D02*
X47150Y-51700D01*
X47150Y-51700D02*
X47150Y-51300D01*
X47150Y-51300D02*
X47250Y-51200D01*
X47650Y-51200D02*
X47250Y-51200D01*
X47250Y-51200D02*
X47250Y-51800D01*
X47250Y-51800D02*
X47650Y-51800D01*
X48050Y-51800D02*
X48450Y-51800D01*
X48450Y-51800D02*
X48450Y-51200D01*
X48450Y-51200D02*
X48050Y-51200D01*
X47250Y-52800D02*
X47150Y-52700D01*
X47150Y-52700D02*
X47150Y-52300D01*
X47150Y-52300D02*
X47250Y-52200D01*
X47650Y-52200D02*
X47250Y-52200D01*
X47250Y-52200D02*
X47250Y-52800D01*
X47250Y-52800D02*
X47650Y-52800D01*
X48050Y-52800D02*
X48450Y-52800D01*
X48450Y-52800D02*
X48450Y-52200D01*
X48450Y-52200D02*
X48050Y-52200D01*
X47250Y-50800D02*
X47150Y-50700D01*
X47150Y-50700D02*
X47150Y-50300D01*
X47150Y-50300D02*
X47250Y-50200D01*
X47650Y-50200D02*
X47250Y-50200D01*
X47250Y-50200D02*
X47250Y-50800D01*
X47250Y-50800D02*
X47650Y-50800D01*
X48050Y-50800D02*
X48450Y-50800D01*
X48450Y-50800D02*
X48450Y-50200D01*
X48450Y-50200D02*
X48050Y-50200D01*
X43700Y-49300D02*
X42300Y-49300D01*
X43700Y-50200D02*
X42300Y-50200D01*
X42650Y-50200D02*
X42649Y-50209D01*
X42646Y-50219D01*
X42641Y-50227D01*
X42635Y-50235D01*
X42627Y-50241D01*
X42619Y-50246D01*
X42610Y-50248D01*
X42600Y-50249D01*
X42591Y-50249D01*
X42582Y-50246D01*
X42573Y-50241D01*
X42566Y-50235D01*
X42559Y-50228D01*
X42555Y-50219D01*
X42552Y-50210D01*
X42551Y-50200D01*
X42551Y-50191D01*
X42554Y-50182D01*
X42558Y-50173D01*
X42565Y-50166D01*
X42572Y-50159D01*
X42580Y-50155D01*
X42590Y-50152D01*
X42599Y-50151D01*
X42608Y-50151D01*
X42618Y-50154D01*
X42626Y-50158D01*
X42634Y-50164D01*
X42640Y-50172D01*
X42645Y-50180D01*
X42648Y-50189D01*
X42649Y-50199D01*
X42650Y-50200D01*
X42300Y-50200D02*
X42300Y-49300D01*
X43700Y-50200D02*
X43700Y-49300D01*
X48500Y-52350D02*
X48000Y-52350D01*
X48000Y-52350D02*
X48000Y-51650D01*
X48000Y-51650D02*
X48500Y-51650D01*
X48900Y-52350D02*
X49400Y-52350D01*
X49400Y-52350D02*
X49400Y-51650D01*
X49400Y-51650D02*
X48900Y-51650D01*
X44200Y-52700D02*
X43000Y-52700D01*
X43000Y-52700D02*
X43000Y-53300D01*
X43000Y-53300D02*
X44200Y-53300D01*
X44200Y-53300D02*
X44200Y-52700D01*
X45600Y-52700D02*
X44400Y-52700D01*
X44400Y-52700D02*
X44400Y-53300D01*
X44400Y-53300D02*
X45600Y-53300D01*
X45600Y-53300D02*
X45600Y-52700D01*
X44200Y-51950D02*
X43000Y-51950D01*
X43000Y-51950D02*
X43000Y-52550D01*
X43000Y-52550D02*
X44200Y-52550D01*
X44200Y-52550D02*
X44200Y-51950D01*
X48450Y-45200D02*
X47250Y-45200D01*
X47250Y-45200D02*
X47250Y-45800D01*
X47250Y-45800D02*
X48450Y-45800D01*
X48450Y-45800D02*
X48450Y-45200D01*
X44400Y-52550D02*
X45600Y-52550D01*
X45600Y-52550D02*
X45600Y-51950D01*
X45600Y-51950D02*
X44400Y-51950D01*
X44400Y-51950D02*
X44400Y-52550D01*
X43600Y-48250D02*
X42400Y-48250D01*
X42400Y-48250D02*
X42400Y-48850D01*
X42400Y-48850D02*
X43600Y-48850D01*
X43600Y-48850D02*
X43600Y-48250D01*
X44400Y-51800D02*
X45600Y-51800D01*
X45600Y-51800D02*
X45600Y-51200D01*
X45600Y-51200D02*
X44400Y-51200D01*
X44400Y-51200D02*
X44400Y-51800D01*
X39200Y-45850D02*
X39200Y-46550D01*
X39200Y-46550D02*
X40400Y-46550D01*
X40400Y-46550D02*
X40400Y-45850D01*
X40400Y-45850D02*
X39200Y-45850D01*
X45600Y-50450D02*
X44400Y-50450D01*
X44400Y-50450D02*
X44400Y-51050D01*
X44400Y-51050D02*
X45600Y-51050D01*
X45600Y-51050D02*
X45600Y-50450D01*
G54D13*
X43137Y-50283D02*
X43137Y-50510D01*
X43129Y-50537D01*
X43120Y-50550D01*
X43103Y-50563D01*
X43069Y-50563D01*
X43051Y-50550D01*
X43043Y-50537D01*
X43034Y-50510D01*
X43034Y-50283D01*
X42854Y-50563D02*
X42957Y-50563D01*
X42905Y-50563D02*
X42905Y-50283D01*
X42922Y-50323D01*
X42940Y-50350D01*
X42957Y-50363D01*
X42837Y-52885D02*
X42850Y-52876D01*
X42863Y-52850D01*
X42863Y-52833D01*
X42850Y-52808D01*
X42823Y-52790D01*
X42797Y-52782D01*
X42743Y-52773D01*
X42703Y-52773D01*
X42650Y-52782D01*
X42623Y-52790D01*
X42597Y-52808D01*
X42583Y-52833D01*
X42583Y-52850D01*
X42597Y-52876D01*
X42610Y-52885D01*
X42863Y-53056D02*
X42863Y-52953D01*
X42863Y-53005D02*
X42583Y-53005D01*
X42623Y-52988D01*
X42650Y-52970D01*
X42663Y-52953D01*
X42583Y-53210D02*
X42583Y-53176D01*
X42597Y-53159D01*
X42610Y-53150D01*
X42650Y-53133D01*
X42703Y-53124D01*
X42810Y-53124D01*
X42837Y-53133D01*
X42850Y-53141D01*
X42863Y-53159D01*
X42863Y-53193D01*
X42850Y-53210D01*
X42837Y-53219D01*
X42810Y-53227D01*
X42743Y-53227D01*
X42717Y-53219D01*
X42703Y-53210D01*
X42690Y-53193D01*
X42690Y-53159D01*
X42703Y-53141D01*
X42717Y-53133D01*
X42743Y-53124D01*
X45937Y-52885D02*
X45950Y-52876D01*
X45963Y-52850D01*
X45963Y-52833D01*
X45950Y-52808D01*
X45923Y-52790D01*
X45897Y-52782D01*
X45843Y-52773D01*
X45803Y-52773D01*
X45750Y-52782D01*
X45723Y-52790D01*
X45697Y-52808D01*
X45683Y-52833D01*
X45683Y-52850D01*
X45697Y-52876D01*
X45710Y-52885D01*
X45963Y-53056D02*
X45963Y-52953D01*
X45963Y-53005D02*
X45683Y-53005D01*
X45723Y-52988D01*
X45750Y-52970D01*
X45763Y-52953D01*
X45683Y-53219D02*
X45683Y-53133D01*
X45817Y-53124D01*
X45803Y-53133D01*
X45790Y-53150D01*
X45790Y-53193D01*
X45803Y-53210D01*
X45817Y-53219D01*
X45843Y-53227D01*
X45910Y-53227D01*
X45937Y-53219D01*
X45950Y-53210D01*
X45963Y-53193D01*
X45963Y-53150D01*
X45950Y-53133D01*
X45937Y-53124D01*
X42863Y-52135D02*
X42730Y-52075D01*
X42863Y-52032D02*
X42583Y-52032D01*
X42583Y-52100D01*
X42597Y-52118D01*
X42610Y-52126D01*
X42637Y-52135D01*
X42677Y-52135D01*
X42703Y-52126D01*
X42717Y-52118D01*
X42730Y-52100D01*
X42730Y-52032D01*
X42863Y-52306D02*
X42863Y-52203D01*
X42863Y-52255D02*
X42583Y-52255D01*
X42623Y-52238D01*
X42650Y-52220D01*
X42663Y-52203D01*
X42583Y-52417D02*
X42583Y-52434D01*
X42597Y-52451D01*
X42610Y-52460D01*
X42637Y-52469D01*
X42690Y-52477D01*
X42757Y-52477D01*
X42810Y-52469D01*
X42837Y-52460D01*
X42850Y-52451D01*
X42863Y-52434D01*
X42863Y-52417D01*
X42850Y-52400D01*
X42837Y-52391D01*
X42810Y-52383D01*
X42757Y-52374D01*
X42690Y-52374D01*
X42637Y-52383D01*
X42610Y-52391D01*
X42597Y-52400D01*
X42583Y-52417D01*
X45937Y-52135D02*
X45950Y-52126D01*
X45963Y-52100D01*
X45963Y-52083D01*
X45950Y-52058D01*
X45923Y-52040D01*
X45897Y-52032D01*
X45843Y-52023D01*
X45803Y-52023D01*
X45750Y-52032D01*
X45723Y-52040D01*
X45697Y-52058D01*
X45683Y-52083D01*
X45683Y-52100D01*
X45697Y-52126D01*
X45710Y-52135D01*
X45963Y-52306D02*
X45963Y-52203D01*
X45963Y-52255D02*
X45683Y-52255D01*
X45723Y-52238D01*
X45750Y-52220D01*
X45763Y-52203D01*
X45777Y-52460D02*
X45963Y-52460D01*
X45670Y-52417D02*
X45870Y-52374D01*
X45870Y-52486D01*
X42237Y-48435D02*
X42250Y-48426D01*
X42263Y-48400D01*
X42263Y-48383D01*
X42250Y-48358D01*
X42223Y-48340D01*
X42197Y-48332D01*
X42143Y-48323D01*
X42103Y-48323D01*
X42050Y-48332D01*
X42023Y-48340D01*
X41997Y-48358D01*
X41983Y-48383D01*
X41983Y-48400D01*
X41997Y-48426D01*
X42010Y-48435D01*
X42263Y-48606D02*
X42263Y-48503D01*
X42263Y-48555D02*
X41983Y-48555D01*
X42023Y-48538D01*
X42050Y-48520D01*
X42063Y-48503D01*
X42010Y-48674D02*
X41997Y-48683D01*
X41983Y-48700D01*
X41983Y-48743D01*
X41997Y-48760D01*
X42010Y-48769D01*
X42037Y-48777D01*
X42063Y-48777D01*
X42103Y-48769D01*
X42263Y-48666D01*
X42263Y-48777D01*
X45937Y-51385D02*
X45950Y-51376D01*
X45963Y-51350D01*
X45963Y-51333D01*
X45950Y-51308D01*
X45923Y-51290D01*
X45897Y-51282D01*
X45843Y-51273D01*
X45803Y-51273D01*
X45750Y-51282D01*
X45723Y-51290D01*
X45697Y-51308D01*
X45683Y-51333D01*
X45683Y-51350D01*
X45697Y-51376D01*
X45710Y-51385D01*
X45963Y-51556D02*
X45963Y-51453D01*
X45963Y-51505D02*
X45683Y-51505D01*
X45723Y-51488D01*
X45750Y-51470D01*
X45763Y-51453D01*
X45683Y-51667D02*
X45683Y-51684D01*
X45697Y-51701D01*
X45710Y-51710D01*
X45737Y-51719D01*
X45790Y-51727D01*
X45857Y-51727D01*
X45910Y-51719D01*
X45937Y-51710D01*
X45950Y-51701D01*
X45963Y-51684D01*
X45963Y-51667D01*
X45950Y-51650D01*
X45937Y-51641D01*
X45910Y-51633D01*
X45857Y-51624D01*
X45790Y-51624D01*
X45737Y-51633D01*
X45710Y-51641D01*
X45697Y-51650D01*
X45683Y-51667D01*
X39937Y-46033D02*
X39937Y-46260D01*
X39929Y-46287D01*
X39920Y-46300D01*
X39903Y-46313D01*
X39869Y-46313D01*
X39851Y-46300D01*
X39843Y-46287D01*
X39834Y-46260D01*
X39834Y-46033D01*
X39714Y-46033D02*
X39697Y-46033D01*
X39680Y-46047D01*
X39671Y-46060D01*
X39662Y-46087D01*
X39654Y-46140D01*
X39654Y-46207D01*
X39662Y-46260D01*
X39671Y-46287D01*
X39680Y-46300D01*
X39697Y-46313D01*
X39714Y-46313D01*
X39731Y-46300D01*
X39740Y-46287D01*
X39748Y-46260D01*
X39757Y-46207D01*
X39757Y-46140D01*
X39748Y-46087D01*
X39740Y-46060D01*
X39731Y-46047D01*
X39714Y-46033D01*
X44263Y-50635D02*
X44130Y-50575D01*
X44263Y-50532D02*
X43983Y-50532D01*
X43983Y-50600D01*
X43997Y-50618D01*
X44010Y-50626D01*
X44037Y-50635D01*
X44077Y-50635D01*
X44103Y-50626D01*
X44117Y-50618D01*
X44130Y-50600D01*
X44130Y-50532D01*
X44263Y-50806D02*
X44263Y-50703D01*
X44263Y-50755D02*
X43983Y-50755D01*
X44023Y-50738D01*
X44050Y-50720D01*
X44063Y-50703D01*
X44077Y-50960D02*
X44263Y-50960D01*
X43970Y-50917D02*
X44170Y-50874D01*
X44170Y-50986D01*
M02*
