G04 (created by PCBNEW-RS274X (2011-12-28 BZR 3254)-stable) date 17/03/2012 11:59:50*
G01*
G70*
G90*
%MOIN*%
G04 Gerber Fmt 3.4, Leading zero omitted, Abs format*
%FSLAX34Y34*%
G04 APERTURE LIST*
%ADD10C,0.006000*%
%ADD11C,0.005000*%
%ADD12C,0.060000*%
%ADD13O,0.160000X0.060000*%
%ADD14R,0.035000X0.055000*%
%ADD15R,0.040000X0.016000*%
%ADD16R,0.045000X0.055000*%
%ADD17R,0.035000X0.045000*%
%ADD18R,0.020000X0.040000*%
%ADD19R,0.045000X0.025000*%
%ADD20R,0.063000X0.055100*%
%ADD21R,0.092500X0.019700*%
%ADD22C,0.030000*%
%ADD23C,0.010000*%
G04 APERTURE END LIST*
G54D10*
G54D11*
X43708Y-46450D02*
X43694Y-46436D01*
X43665Y-46421D01*
X43594Y-46421D01*
X43565Y-46436D01*
X43551Y-46450D01*
X43536Y-46479D01*
X43536Y-46507D01*
X43551Y-46550D01*
X43722Y-46721D01*
X43536Y-46721D01*
X43350Y-46421D02*
X43322Y-46421D01*
X43293Y-46436D01*
X43279Y-46450D01*
X43265Y-46479D01*
X43250Y-46536D01*
X43250Y-46607D01*
X43265Y-46664D01*
X43279Y-46693D01*
X43293Y-46707D01*
X43322Y-46721D01*
X43350Y-46721D01*
X43379Y-46707D01*
X43393Y-46693D01*
X43408Y-46664D01*
X43422Y-46607D01*
X43422Y-46536D01*
X43408Y-46479D01*
X43393Y-46450D01*
X43379Y-46436D01*
X43350Y-46421D01*
X42964Y-46721D02*
X43136Y-46721D01*
X43050Y-46721D02*
X43050Y-46421D01*
X43079Y-46464D01*
X43107Y-46493D01*
X43136Y-46507D01*
X42778Y-46421D02*
X42750Y-46421D01*
X42721Y-46436D01*
X42707Y-46450D01*
X42693Y-46479D01*
X42678Y-46536D01*
X42678Y-46607D01*
X42693Y-46664D01*
X42707Y-46693D01*
X42721Y-46707D01*
X42750Y-46721D01*
X42778Y-46721D01*
X42807Y-46707D01*
X42821Y-46693D01*
X42836Y-46664D01*
X42850Y-46607D01*
X42850Y-46536D01*
X42836Y-46479D01*
X42821Y-46450D01*
X42807Y-46436D01*
X42778Y-46421D01*
X42550Y-46607D02*
X42321Y-46607D01*
X42121Y-46421D02*
X42093Y-46421D01*
X42064Y-46436D01*
X42050Y-46450D01*
X42036Y-46479D01*
X42021Y-46536D01*
X42021Y-46607D01*
X42036Y-46664D01*
X42050Y-46693D01*
X42064Y-46707D01*
X42093Y-46721D01*
X42121Y-46721D01*
X42150Y-46707D01*
X42164Y-46693D01*
X42179Y-46664D01*
X42193Y-46607D01*
X42193Y-46536D01*
X42179Y-46479D01*
X42164Y-46450D01*
X42150Y-46436D01*
X42121Y-46421D01*
X41735Y-46721D02*
X41907Y-46721D01*
X41821Y-46721D02*
X41821Y-46421D01*
X41850Y-46464D01*
X41878Y-46493D01*
X41907Y-46507D01*
X41607Y-46607D02*
X41378Y-46607D01*
X41078Y-46721D02*
X41250Y-46721D01*
X41164Y-46721D02*
X41164Y-46421D01*
X41193Y-46464D01*
X41221Y-46493D01*
X41250Y-46507D01*
X40821Y-46521D02*
X40821Y-46721D01*
X40892Y-46407D02*
X40964Y-46621D01*
X40778Y-46621D01*
X44470Y-45521D02*
X44370Y-45821D01*
X44270Y-45521D01*
X44056Y-45807D02*
X44085Y-45821D01*
X44142Y-45821D01*
X44171Y-45807D01*
X44185Y-45779D01*
X44185Y-45664D01*
X44171Y-45636D01*
X44142Y-45621D01*
X44085Y-45621D01*
X44056Y-45636D01*
X44042Y-45664D01*
X44042Y-45693D01*
X44185Y-45721D01*
X43914Y-45821D02*
X43914Y-45621D01*
X43914Y-45679D02*
X43899Y-45650D01*
X43885Y-45636D01*
X43856Y-45621D01*
X43828Y-45621D01*
X43742Y-45807D02*
X43713Y-45821D01*
X43656Y-45821D01*
X43628Y-45807D01*
X43613Y-45779D01*
X43613Y-45764D01*
X43628Y-45736D01*
X43656Y-45721D01*
X43699Y-45721D01*
X43728Y-45707D01*
X43742Y-45679D01*
X43742Y-45664D01*
X43728Y-45636D01*
X43699Y-45621D01*
X43656Y-45621D01*
X43628Y-45636D01*
X43356Y-45821D02*
X43356Y-45664D01*
X43370Y-45636D01*
X43399Y-45621D01*
X43456Y-45621D01*
X43485Y-45636D01*
X43356Y-45807D02*
X43385Y-45821D01*
X43456Y-45821D01*
X43485Y-45807D01*
X43499Y-45779D01*
X43499Y-45750D01*
X43485Y-45721D01*
X43456Y-45707D01*
X43385Y-45707D01*
X43356Y-45693D01*
X43171Y-45821D02*
X43199Y-45807D01*
X43214Y-45779D01*
X43214Y-45521D01*
X43014Y-45821D02*
X43042Y-45807D01*
X43057Y-45793D01*
X43071Y-45764D01*
X43071Y-45679D01*
X43057Y-45650D01*
X43042Y-45636D01*
X43014Y-45621D01*
X42971Y-45621D01*
X42942Y-45636D01*
X42928Y-45650D01*
X42914Y-45679D01*
X42914Y-45764D01*
X42928Y-45793D01*
X42942Y-45807D01*
X42971Y-45821D01*
X43014Y-45821D01*
X42743Y-45821D02*
X42771Y-45807D01*
X42786Y-45793D01*
X42800Y-45764D01*
X42800Y-45679D01*
X42786Y-45650D01*
X42771Y-45636D01*
X42743Y-45621D01*
X42700Y-45621D01*
X42671Y-45636D01*
X42657Y-45650D01*
X42643Y-45679D01*
X42643Y-45764D01*
X42657Y-45793D01*
X42671Y-45807D01*
X42700Y-45821D01*
X42743Y-45821D01*
X42515Y-45621D02*
X42515Y-45821D01*
X42515Y-45650D02*
X42500Y-45636D01*
X42472Y-45621D01*
X42429Y-45621D01*
X42400Y-45636D01*
X42386Y-45664D01*
X42386Y-45821D01*
X42244Y-45821D02*
X42244Y-45521D01*
X42144Y-45736D01*
X42044Y-45521D01*
X42044Y-45821D01*
X41901Y-45821D02*
X41901Y-45621D01*
X41901Y-45521D02*
X41915Y-45536D01*
X41901Y-45550D01*
X41886Y-45536D01*
X41901Y-45521D01*
X41901Y-45550D01*
X41758Y-45621D02*
X41758Y-45821D01*
X41758Y-45650D02*
X41743Y-45636D01*
X41715Y-45621D01*
X41672Y-45621D01*
X41643Y-45636D01*
X41629Y-45664D01*
X41629Y-45821D01*
X41487Y-45821D02*
X41487Y-45621D01*
X41487Y-45521D02*
X41501Y-45536D01*
X41487Y-45550D01*
X41472Y-45536D01*
X41487Y-45521D01*
X41487Y-45550D01*
X41186Y-45821D02*
X41358Y-45821D01*
X41272Y-45821D02*
X41272Y-45521D01*
X41301Y-45564D01*
X41329Y-45593D01*
X41358Y-45607D01*
X41058Y-45793D02*
X41043Y-45807D01*
X41058Y-45821D01*
X41072Y-45807D01*
X41058Y-45793D01*
X41058Y-45821D01*
X40857Y-45521D02*
X40829Y-45521D01*
X40800Y-45536D01*
X40786Y-45550D01*
X40772Y-45579D01*
X40757Y-45636D01*
X40757Y-45707D01*
X40772Y-45764D01*
X40786Y-45793D01*
X40800Y-45807D01*
X40829Y-45821D01*
X40857Y-45821D01*
X40886Y-45807D01*
X40900Y-45793D01*
X40915Y-45764D01*
X40929Y-45707D01*
X40929Y-45636D01*
X40915Y-45579D01*
X40900Y-45550D01*
X40886Y-45536D01*
X40857Y-45521D01*
X45170Y-46071D02*
X45113Y-46271D01*
X45056Y-46129D01*
X44999Y-46271D01*
X44942Y-46071D01*
X44856Y-46071D02*
X44799Y-46271D01*
X44742Y-46129D01*
X44685Y-46271D01*
X44628Y-46071D01*
X44542Y-46071D02*
X44485Y-46271D01*
X44428Y-46129D01*
X44371Y-46271D01*
X44314Y-46071D01*
X44200Y-46243D02*
X44185Y-46257D01*
X44200Y-46271D01*
X44214Y-46257D01*
X44200Y-46243D01*
X44200Y-46271D01*
X44071Y-46257D02*
X44028Y-46271D01*
X43957Y-46271D01*
X43928Y-46257D01*
X43914Y-46243D01*
X43899Y-46214D01*
X43899Y-46186D01*
X43914Y-46157D01*
X43928Y-46143D01*
X43957Y-46129D01*
X44014Y-46114D01*
X44042Y-46100D01*
X44057Y-46086D01*
X44071Y-46057D01*
X44071Y-46029D01*
X44057Y-46000D01*
X44042Y-45986D01*
X44014Y-45971D01*
X43942Y-45971D01*
X43899Y-45986D01*
X43771Y-46271D02*
X43771Y-46071D01*
X43771Y-45971D02*
X43785Y-45986D01*
X43771Y-46000D01*
X43756Y-45986D01*
X43771Y-45971D01*
X43771Y-46000D01*
X43628Y-46271D02*
X43628Y-46071D01*
X43628Y-46100D02*
X43613Y-46086D01*
X43585Y-46071D01*
X43542Y-46071D01*
X43513Y-46086D01*
X43499Y-46114D01*
X43499Y-46271D01*
X43499Y-46114D02*
X43485Y-46086D01*
X43456Y-46071D01*
X43413Y-46071D01*
X43385Y-46086D01*
X43370Y-46114D01*
X43370Y-46271D01*
X43185Y-46271D02*
X43213Y-46257D01*
X43228Y-46243D01*
X43242Y-46214D01*
X43242Y-46129D01*
X43228Y-46100D01*
X43213Y-46086D01*
X43185Y-46071D01*
X43142Y-46071D01*
X43113Y-46086D01*
X43099Y-46100D01*
X43085Y-46129D01*
X43085Y-46214D01*
X43099Y-46243D01*
X43113Y-46257D01*
X43142Y-46271D01*
X43185Y-46271D01*
X42957Y-46071D02*
X42957Y-46271D01*
X42957Y-46100D02*
X42942Y-46086D01*
X42914Y-46071D01*
X42871Y-46071D01*
X42842Y-46086D01*
X42828Y-46114D01*
X42828Y-46271D01*
X42486Y-46300D02*
X42514Y-46286D01*
X42543Y-46257D01*
X42586Y-46214D01*
X42614Y-46200D01*
X42643Y-46200D01*
X42628Y-46271D02*
X42657Y-46257D01*
X42686Y-46229D01*
X42700Y-46171D01*
X42700Y-46071D01*
X42686Y-46014D01*
X42657Y-45986D01*
X42628Y-45971D01*
X42571Y-45971D01*
X42543Y-45986D01*
X42514Y-46014D01*
X42500Y-46071D01*
X42500Y-46171D01*
X42514Y-46229D01*
X42543Y-46257D01*
X42571Y-46271D01*
X42628Y-46271D01*
X42372Y-46271D02*
X42372Y-46071D01*
X42372Y-45971D02*
X42386Y-45986D01*
X42372Y-46000D01*
X42357Y-45986D01*
X42372Y-45971D01*
X42372Y-46000D01*
X42100Y-46271D02*
X42100Y-46114D01*
X42114Y-46086D01*
X42143Y-46071D01*
X42200Y-46071D01*
X42229Y-46086D01*
X42100Y-46257D02*
X42129Y-46271D01*
X42200Y-46271D01*
X42229Y-46257D01*
X42243Y-46229D01*
X42243Y-46200D01*
X42229Y-46171D01*
X42200Y-46157D01*
X42129Y-46157D01*
X42100Y-46143D01*
X41958Y-46071D02*
X41958Y-46271D01*
X41958Y-46100D02*
X41943Y-46086D01*
X41915Y-46071D01*
X41872Y-46071D01*
X41843Y-46086D01*
X41829Y-46114D01*
X41829Y-46271D01*
X41687Y-46243D02*
X41672Y-46257D01*
X41687Y-46271D01*
X41701Y-46257D01*
X41687Y-46243D01*
X41687Y-46271D01*
X41415Y-46257D02*
X41444Y-46271D01*
X41501Y-46271D01*
X41529Y-46257D01*
X41544Y-46243D01*
X41558Y-46214D01*
X41558Y-46129D01*
X41544Y-46100D01*
X41529Y-46086D01*
X41501Y-46071D01*
X41444Y-46071D01*
X41415Y-46086D01*
X41244Y-46271D02*
X41272Y-46257D01*
X41287Y-46243D01*
X41301Y-46214D01*
X41301Y-46129D01*
X41287Y-46100D01*
X41272Y-46086D01*
X41244Y-46071D01*
X41201Y-46071D01*
X41172Y-46086D01*
X41158Y-46100D01*
X41144Y-46129D01*
X41144Y-46214D01*
X41158Y-46243D01*
X41172Y-46257D01*
X41201Y-46271D01*
X41244Y-46271D01*
X41016Y-46271D02*
X41016Y-46071D01*
X41016Y-46100D02*
X41001Y-46086D01*
X40973Y-46071D01*
X40930Y-46071D01*
X40901Y-46086D01*
X40887Y-46114D01*
X40887Y-46271D01*
X40887Y-46114D02*
X40873Y-46086D01*
X40844Y-46071D01*
X40801Y-46071D01*
X40773Y-46086D01*
X40758Y-46114D01*
X40758Y-46271D01*
G54D12*
X43339Y-53750D03*
X45261Y-53750D03*
X41084Y-53700D03*
X39116Y-53700D03*
G54D13*
X49600Y-45500D03*
X49600Y-46500D03*
X49600Y-47500D03*
X49600Y-48500D03*
X49600Y-49500D03*
X49600Y-50500D03*
X49600Y-51500D03*
X49600Y-52500D03*
X49600Y-53500D03*
X49600Y-54500D03*
G54D14*
X47475Y-54500D03*
X48225Y-54500D03*
X47475Y-53500D03*
X48225Y-53500D03*
X47475Y-46500D03*
X48225Y-46500D03*
X47475Y-47500D03*
X48225Y-47500D03*
X47475Y-48500D03*
X48225Y-48500D03*
X47475Y-49500D03*
X48225Y-49500D03*
X47475Y-51500D03*
X48225Y-51500D03*
X47475Y-52500D03*
X48225Y-52500D03*
X47475Y-50500D03*
X48225Y-50500D03*
G54D15*
X43400Y-50010D03*
X43400Y-49750D03*
X43400Y-49490D03*
X42600Y-49490D03*
X42600Y-49750D03*
X42600Y-50010D03*
G54D16*
X48275Y-52000D03*
X49125Y-52000D03*
G54D17*
X43950Y-53000D03*
X43250Y-53000D03*
X45350Y-53000D03*
X44650Y-53000D03*
X43950Y-52250D03*
X43250Y-52250D03*
X48200Y-45500D03*
X47500Y-45500D03*
X44650Y-52250D03*
X45350Y-52250D03*
X43350Y-48550D03*
X42650Y-48550D03*
X44650Y-51500D03*
X45350Y-51500D03*
G54D18*
X40175Y-46750D03*
X39425Y-46750D03*
X40175Y-45650D03*
X39800Y-46750D03*
X39425Y-45650D03*
G54D17*
X45350Y-50750D03*
X44650Y-50750D03*
G54D19*
X44650Y-51250D03*
G54D20*
X38953Y-48110D03*
X41000Y-48110D03*
X38953Y-51890D03*
X41000Y-51890D03*
G54D21*
X41630Y-49370D03*
X41630Y-49685D03*
X41630Y-50000D03*
X41630Y-50315D03*
X41630Y-50630D03*
G54D22*
X39100Y-46900D03*
X44550Y-50750D03*
X44350Y-49600D03*
X43900Y-49650D03*
X44050Y-51750D03*
X41900Y-48050D03*
X43500Y-47400D03*
X45150Y-48050D03*
X47475Y-50500D03*
X44250Y-48250D03*
X47475Y-54500D03*
X47475Y-52500D03*
X47475Y-49500D03*
X46200Y-48950D03*
X46800Y-48550D03*
X47475Y-47500D03*
X46600Y-52050D03*
X44950Y-49450D03*
X47475Y-51500D03*
X46600Y-49150D03*
X47475Y-48500D03*
X46800Y-48100D03*
X47475Y-46500D03*
X47475Y-53500D03*
X44700Y-48050D03*
X47100Y-51000D03*
X47500Y-45500D03*
X43000Y-49050D03*
X41950Y-51350D03*
X38700Y-45900D03*
X45700Y-50650D03*
X45000Y-50250D03*
X45050Y-47450D03*
X43550Y-51250D03*
X46200Y-52650D03*
X40225Y-47800D03*
X45050Y-46750D03*
X44650Y-51350D03*
X43350Y-48450D03*
X46200Y-48100D03*
X40300Y-45600D03*
X43000Y-52200D03*
G54D23*
X39425Y-46750D02*
X39425Y-46375D01*
X39425Y-46750D02*
X39250Y-46750D01*
X40175Y-46375D02*
X40175Y-46750D01*
X40175Y-46375D02*
X40000Y-46200D01*
X40000Y-46200D02*
X39600Y-46200D01*
X39425Y-46375D02*
X39600Y-46200D01*
X39250Y-46750D02*
X39100Y-46900D01*
X44550Y-50750D02*
X44650Y-50750D01*
X43410Y-49490D02*
X43550Y-49350D01*
X43550Y-49350D02*
X44100Y-49350D01*
X43400Y-49490D02*
X43410Y-49490D01*
X44100Y-49350D02*
X44350Y-49600D01*
X43740Y-50010D02*
X43900Y-49850D01*
X43900Y-49850D02*
X43900Y-49650D01*
X43400Y-50010D02*
X43740Y-50010D01*
X43950Y-52250D02*
X44650Y-52250D01*
X43950Y-51850D02*
X44050Y-51750D01*
X43950Y-52250D02*
X43950Y-51850D01*
X43400Y-47500D02*
X43500Y-47400D01*
X41900Y-48050D02*
X42050Y-48050D01*
X42050Y-48050D02*
X42600Y-47500D01*
X42600Y-47500D02*
X43400Y-47500D01*
X49600Y-49500D02*
X49600Y-50500D01*
X49600Y-53500D02*
X49600Y-54500D01*
X49600Y-51525D02*
X49125Y-52000D01*
X49600Y-52475D02*
X49125Y-52000D01*
X49600Y-51500D02*
X49600Y-51525D01*
X49600Y-48500D02*
X49600Y-49500D01*
X49600Y-46500D02*
X49600Y-47500D01*
X49600Y-52500D02*
X49600Y-53500D01*
X49600Y-50500D02*
X49600Y-51500D01*
X49600Y-47500D02*
X49600Y-48500D01*
X49600Y-52500D02*
X49600Y-52475D01*
X47475Y-50500D02*
X47150Y-50500D01*
X45150Y-48050D02*
X45150Y-48500D01*
X45150Y-48500D02*
X47150Y-50500D01*
X46600Y-50550D02*
X46600Y-51300D01*
X46900Y-53200D02*
X46900Y-53150D01*
X47100Y-53400D02*
X47100Y-54125D01*
X47100Y-54125D02*
X47475Y-54500D01*
X46900Y-53150D02*
X46900Y-53200D01*
X46900Y-51600D02*
X46900Y-53200D01*
X44250Y-48250D02*
X44300Y-48250D01*
X44300Y-48250D02*
X46600Y-50550D01*
X46600Y-51300D02*
X46900Y-51600D01*
X46900Y-53200D02*
X47100Y-53400D01*
X46200Y-48950D02*
X46200Y-49250D01*
X46450Y-49500D02*
X47475Y-49500D01*
X46200Y-49250D02*
X46450Y-49500D01*
X47475Y-47725D02*
X47100Y-48100D01*
X46800Y-48550D02*
X46850Y-48550D01*
X46850Y-48550D02*
X47100Y-48300D01*
X47475Y-47500D02*
X47475Y-47725D01*
X47100Y-48100D02*
X47100Y-48300D01*
X46400Y-51400D02*
X46700Y-51700D01*
X46700Y-51950D02*
X46600Y-52050D01*
X46700Y-51700D02*
X46700Y-51950D01*
X44950Y-49450D02*
X45200Y-49450D01*
X46400Y-50650D02*
X46400Y-51400D01*
X45200Y-49450D02*
X46400Y-50650D01*
X46600Y-49150D02*
X46825Y-49150D01*
X46825Y-49150D02*
X47475Y-48500D01*
X47100Y-46875D02*
X47100Y-47800D01*
X47475Y-46500D02*
X47100Y-46875D01*
X47100Y-47800D02*
X46800Y-48100D01*
X47475Y-53475D02*
X47100Y-53100D01*
X46800Y-51200D02*
X47100Y-51500D01*
X46800Y-50450D02*
X46800Y-51200D01*
X47475Y-53500D02*
X47475Y-53475D01*
X44700Y-48350D02*
X46800Y-50450D01*
X44700Y-48050D02*
X44700Y-48350D01*
X47100Y-51500D02*
X47100Y-53100D01*
X47850Y-46000D02*
X47850Y-50900D01*
X47500Y-45650D02*
X47850Y-46000D01*
X47850Y-50900D02*
X47750Y-51000D01*
X47750Y-51000D02*
X47100Y-51000D01*
X47500Y-45650D02*
X47500Y-45500D01*
X48225Y-47500D02*
X48225Y-48500D01*
X48225Y-48500D02*
X48225Y-49500D01*
X48225Y-50500D02*
X48225Y-51500D01*
X48225Y-49500D02*
X48225Y-50500D01*
X48225Y-51950D02*
X48275Y-52000D01*
X48225Y-51500D02*
X48225Y-51950D01*
X48225Y-52500D02*
X48225Y-52050D01*
X48225Y-52500D02*
X48225Y-53500D01*
X41800Y-50800D02*
X41800Y-51200D01*
X48225Y-53500D02*
X48225Y-54500D01*
X43000Y-49600D02*
X43000Y-49050D01*
X47800Y-45100D02*
X48200Y-45500D01*
X39000Y-45100D02*
X47800Y-45100D01*
X45350Y-54950D02*
X40366Y-54950D01*
X41950Y-51350D02*
X41800Y-51500D01*
X40200Y-53700D02*
X39116Y-53700D01*
X41800Y-52100D02*
X40200Y-53700D01*
X41800Y-51500D02*
X41800Y-52100D01*
X43950Y-53000D02*
X44300Y-53000D01*
X44300Y-53900D02*
X45350Y-54950D01*
X44650Y-52950D02*
X45350Y-52250D01*
X47775Y-54950D02*
X48225Y-54500D01*
X44300Y-53100D02*
X44300Y-53900D01*
X44300Y-53000D02*
X44300Y-53000D01*
X44300Y-53100D02*
X44300Y-53000D01*
X44650Y-53000D02*
X44650Y-52950D01*
X45350Y-52250D02*
X45350Y-51500D01*
X41800Y-51200D02*
X41950Y-51350D01*
X45350Y-54950D02*
X47775Y-54950D01*
X38900Y-47300D02*
X39900Y-47300D01*
X44300Y-53000D02*
X44650Y-53000D01*
X48225Y-46500D02*
X48225Y-47500D01*
X39900Y-47300D02*
X39800Y-47200D01*
X39800Y-47200D02*
X39800Y-46750D01*
X38700Y-47100D02*
X38900Y-47300D01*
X38700Y-45900D02*
X38700Y-47100D01*
X41630Y-50630D02*
X41800Y-50800D01*
X43700Y-47100D02*
X43300Y-47100D01*
X38700Y-45400D02*
X39000Y-45100D01*
X38700Y-45900D02*
X38700Y-45400D01*
X43100Y-47300D02*
X39900Y-47300D01*
X43300Y-47100D02*
X43100Y-47300D01*
X45450Y-50650D02*
X45350Y-50750D01*
X45700Y-50650D02*
X45450Y-50650D01*
X44050Y-47450D02*
X43700Y-47100D01*
X45050Y-47450D02*
X44050Y-47450D01*
X40366Y-54950D02*
X39116Y-53700D01*
X42600Y-49750D02*
X42850Y-49750D01*
X42850Y-49750D02*
X43000Y-49600D01*
X42650Y-48550D02*
X42650Y-48700D01*
X48225Y-52050D02*
X48275Y-52000D01*
X45350Y-50600D02*
X45000Y-50250D01*
X42650Y-48700D02*
X43000Y-49050D01*
X46200Y-52650D02*
X45800Y-52250D01*
X45350Y-50750D02*
X45350Y-50600D01*
X45800Y-52250D02*
X45350Y-52250D01*
X45350Y-51500D02*
X45350Y-50750D01*
X40425Y-47600D02*
X40225Y-47800D01*
X40425Y-47600D02*
X41400Y-47600D01*
X41500Y-48150D02*
X41700Y-48350D01*
X41500Y-47700D02*
X41500Y-48150D01*
X41700Y-48350D02*
X41700Y-49300D01*
X41400Y-47600D02*
X41500Y-47700D01*
X41630Y-49370D02*
X41700Y-49300D01*
X42335Y-49490D02*
X42600Y-49490D01*
X41630Y-49685D02*
X42140Y-49685D01*
X42140Y-49685D02*
X42335Y-49490D01*
X42235Y-50010D02*
X42600Y-50010D01*
X42225Y-50000D02*
X42235Y-50010D01*
X41630Y-50000D02*
X42225Y-50000D01*
X45350Y-53000D02*
X45350Y-53661D01*
X45350Y-53661D02*
X45261Y-53750D01*
X43250Y-53661D02*
X43339Y-53750D01*
X43250Y-53000D02*
X43250Y-53661D01*
X43350Y-48450D02*
X43350Y-48400D01*
X44650Y-51500D02*
X44650Y-51250D01*
X43350Y-48550D02*
X43350Y-48450D01*
X43000Y-52200D02*
X43150Y-52250D01*
X43150Y-52250D02*
X43250Y-52250D01*
X40250Y-45650D02*
X40300Y-45600D01*
X44650Y-51350D02*
X44650Y-51500D01*
X40175Y-45650D02*
X40250Y-45650D01*
X42900Y-52100D02*
X42900Y-50350D01*
X44550Y-49300D02*
X44650Y-49400D01*
X42900Y-50350D02*
X43000Y-50250D01*
X43000Y-52200D02*
X42900Y-52100D01*
X43750Y-51550D02*
X43850Y-51450D01*
X43250Y-52100D02*
X43500Y-51850D01*
X43250Y-52250D02*
X43250Y-52100D01*
X44600Y-51450D02*
X44650Y-51500D01*
X43850Y-51450D02*
X44600Y-51450D01*
X43150Y-49750D02*
X43000Y-49900D01*
X43000Y-49900D02*
X43000Y-50250D01*
X43600Y-48550D02*
X43350Y-48550D01*
X43000Y-50250D02*
X43800Y-50250D01*
X44550Y-49900D02*
X44150Y-49900D01*
X44650Y-49800D02*
X44550Y-49900D01*
X44650Y-49400D02*
X44650Y-49800D01*
X43600Y-48550D02*
X44350Y-49300D01*
X44350Y-49300D02*
X44550Y-49300D01*
X43400Y-49750D02*
X43150Y-49750D01*
X43750Y-51750D02*
X43650Y-51850D01*
X43650Y-51850D02*
X43500Y-51850D01*
X43750Y-51550D02*
X43750Y-51750D01*
X45050Y-46950D02*
X46200Y-48100D01*
X45050Y-46750D02*
X45050Y-46950D01*
X43800Y-50250D02*
X44150Y-49900D01*
X38345Y-44945D02*
X48550Y-44945D01*
X38345Y-45025D02*
X48088Y-45025D01*
X48088Y-45025D02*
X48312Y-45025D01*
X48312Y-45025D02*
X48550Y-45025D01*
X38345Y-45105D02*
X47291Y-45105D01*
X47709Y-45105D02*
X47843Y-45105D01*
X48150Y-45105D02*
X48250Y-45105D01*
X38345Y-45185D02*
X47179Y-45185D01*
X48150Y-45185D02*
X48250Y-45185D01*
X38345Y-45265D02*
X47155Y-45265D01*
X48150Y-45265D02*
X48250Y-45265D01*
X38345Y-45345D02*
X39190Y-45345D01*
X39660Y-45345D02*
X39940Y-45345D01*
X40498Y-45345D02*
X40506Y-45345D01*
X44645Y-45345D02*
X47155Y-45345D01*
X48150Y-45345D02*
X48250Y-45345D01*
X38345Y-45425D02*
X39155Y-45425D01*
X39695Y-45425D02*
X39905Y-45425D01*
X44645Y-45425D02*
X47155Y-45425D01*
X48150Y-45425D02*
X48250Y-45425D01*
X38345Y-45505D02*
X39155Y-45505D01*
X39695Y-45505D02*
X39905Y-45505D01*
X44645Y-45505D02*
X47155Y-45505D01*
X48150Y-45505D02*
X48250Y-45505D01*
X38345Y-45585D02*
X39155Y-45585D01*
X39695Y-45585D02*
X39905Y-45585D01*
X44645Y-45585D02*
X47155Y-45585D01*
X48150Y-45585D02*
X48250Y-45585D01*
X38345Y-45665D02*
X39155Y-45665D01*
X39695Y-45665D02*
X39905Y-45665D01*
X44645Y-45665D02*
X47155Y-45665D01*
X48150Y-45665D02*
X48250Y-45665D01*
X38345Y-45745D02*
X39155Y-45745D01*
X39695Y-45745D02*
X39905Y-45745D01*
X45358Y-45745D02*
X47155Y-45745D01*
X48150Y-45745D02*
X48250Y-45745D01*
X38345Y-45825D02*
X39155Y-45825D01*
X39695Y-45825D02*
X39905Y-45825D01*
X45358Y-45825D02*
X47185Y-45825D01*
X48150Y-45825D02*
X48250Y-45825D01*
X38345Y-45905D02*
X39163Y-45905D01*
X39686Y-45905D02*
X39913Y-45905D01*
X40435Y-45905D02*
X40492Y-45905D01*
X45358Y-45905D02*
X47443Y-45905D01*
X48150Y-45905D02*
X48250Y-45905D01*
X48547Y-45905D02*
X48550Y-45905D01*
X38345Y-45985D02*
X39220Y-45985D01*
X40380Y-45985D02*
X40492Y-45985D01*
X45358Y-45985D02*
X47523Y-45985D01*
X48123Y-45985D02*
X48327Y-45985D01*
X48471Y-45985D02*
X48550Y-45985D01*
X38345Y-46065D02*
X39423Y-46065D01*
X40177Y-46065D02*
X40492Y-46065D01*
X45358Y-46065D02*
X47243Y-46065D01*
X48175Y-46065D02*
X48275Y-46065D01*
X38345Y-46145D02*
X39343Y-46145D01*
X40257Y-46145D02*
X40492Y-46145D01*
X45358Y-46145D02*
X47150Y-46145D01*
X48175Y-46145D02*
X48275Y-46145D01*
X38345Y-46225D02*
X39266Y-46225D01*
X40335Y-46225D02*
X40492Y-46225D01*
X45358Y-46225D02*
X47130Y-46225D01*
X48175Y-46225D02*
X48275Y-46225D01*
X38345Y-46305D02*
X39219Y-46305D01*
X40381Y-46305D02*
X40492Y-46305D01*
X45358Y-46305D02*
X47130Y-46305D01*
X48175Y-46305D02*
X48275Y-46305D01*
X38345Y-46385D02*
X39205Y-46385D01*
X40395Y-46385D02*
X40492Y-46385D01*
X45358Y-46385D02*
X47130Y-46385D01*
X48175Y-46385D02*
X48275Y-46385D01*
X38345Y-46465D02*
X39177Y-46465D01*
X40424Y-46465D02*
X40492Y-46465D01*
X45358Y-46465D02*
X47130Y-46465D01*
X48175Y-46465D02*
X48275Y-46465D01*
X38345Y-46545D02*
X39155Y-46545D01*
X40445Y-46545D02*
X40540Y-46545D01*
X43910Y-46545D02*
X44802Y-46545D01*
X45298Y-46545D02*
X47118Y-46545D01*
X48175Y-46545D02*
X48275Y-46545D01*
X38345Y-46625D02*
X38927Y-46625D01*
X40445Y-46625D02*
X40540Y-46625D01*
X43910Y-46625D02*
X44756Y-46625D01*
X45345Y-46625D02*
X47038Y-46625D01*
X48175Y-46625D02*
X48275Y-46625D01*
X38345Y-46705D02*
X38842Y-46705D01*
X39750Y-46705D02*
X39850Y-46705D01*
X40445Y-46705D02*
X40540Y-46705D01*
X43910Y-46705D02*
X44730Y-46705D01*
X45370Y-46705D02*
X46958Y-46705D01*
X48175Y-46705D02*
X48275Y-46705D01*
X38345Y-46785D02*
X38802Y-46785D01*
X39750Y-46785D02*
X39850Y-46785D01*
X40445Y-46785D02*
X40540Y-46785D01*
X43910Y-46785D02*
X44730Y-46785D01*
X45370Y-46785D02*
X46901Y-46785D01*
X48175Y-46785D02*
X48275Y-46785D01*
X38345Y-46865D02*
X38780Y-46865D01*
X39750Y-46865D02*
X39850Y-46865D01*
X40445Y-46865D02*
X40540Y-46865D01*
X43910Y-46865D02*
X44751Y-46865D01*
X45348Y-46865D02*
X46882Y-46865D01*
X48175Y-46865D02*
X48275Y-46865D01*
X38345Y-46945D02*
X38780Y-46945D01*
X39750Y-46945D02*
X39850Y-46945D01*
X40445Y-46945D02*
X40540Y-46945D01*
X43910Y-46945D02*
X44792Y-46945D01*
X45357Y-46945D02*
X46880Y-46945D01*
X48175Y-46945D02*
X48275Y-46945D01*
X38345Y-47025D02*
X38805Y-47025D01*
X39750Y-47025D02*
X39850Y-47025D01*
X40427Y-47025D02*
X44844Y-47025D01*
X45437Y-47025D02*
X46880Y-47025D01*
X48163Y-47025D02*
X48287Y-47025D01*
X38345Y-47105D02*
X38852Y-47105D01*
X39750Y-47105D02*
X39850Y-47105D01*
X40344Y-47105D02*
X43376Y-47105D01*
X43625Y-47105D02*
X44893Y-47105D01*
X45517Y-47105D02*
X46880Y-47105D01*
X48175Y-47105D02*
X48275Y-47105D01*
X38345Y-47185D02*
X38951Y-47185D01*
X39249Y-47185D02*
X39617Y-47185D01*
X39703Y-47185D02*
X39897Y-47185D01*
X39982Y-47185D02*
X43262Y-47185D01*
X43738Y-47185D02*
X44973Y-47185D01*
X45597Y-47185D02*
X46880Y-47185D01*
X48175Y-47185D02*
X48275Y-47185D01*
X38345Y-47265D02*
X43210Y-47265D01*
X43791Y-47265D02*
X45053Y-47265D01*
X45677Y-47265D02*
X46880Y-47265D01*
X48175Y-47265D02*
X48275Y-47265D01*
X38345Y-47345D02*
X42443Y-47345D01*
X43820Y-47345D02*
X45133Y-47345D01*
X45757Y-47345D02*
X46880Y-47345D01*
X48175Y-47345D02*
X48275Y-47345D01*
X38345Y-47425D02*
X40299Y-47425D01*
X41527Y-47425D02*
X42363Y-47425D01*
X43820Y-47425D02*
X45213Y-47425D01*
X45837Y-47425D02*
X46880Y-47425D01*
X48175Y-47425D02*
X48275Y-47425D01*
X38345Y-47505D02*
X40101Y-47505D01*
X41617Y-47505D02*
X42283Y-47505D01*
X43802Y-47505D02*
X45293Y-47505D01*
X45917Y-47505D02*
X46880Y-47505D01*
X48175Y-47505D02*
X48275Y-47505D01*
X38345Y-47585D02*
X39987Y-47585D01*
X41683Y-47585D02*
X42203Y-47585D01*
X43768Y-47585D02*
X45373Y-47585D01*
X45997Y-47585D02*
X46880Y-47585D01*
X48175Y-47585D02*
X48275Y-47585D01*
X38345Y-47665D02*
X38604Y-47665D01*
X39302Y-47665D02*
X39935Y-47665D01*
X41713Y-47665D02*
X42123Y-47665D01*
X43688Y-47665D02*
X45453Y-47665D01*
X46077Y-47665D02*
X46880Y-47665D01*
X48175Y-47665D02*
X48275Y-47665D01*
X38345Y-47745D02*
X38492Y-47745D01*
X39415Y-47745D02*
X39905Y-47745D01*
X41720Y-47745D02*
X41800Y-47745D01*
X42001Y-47745D02*
X42043Y-47745D01*
X42665Y-47745D02*
X44601Y-47745D01*
X44801Y-47745D02*
X45051Y-47745D01*
X45251Y-47745D02*
X45533Y-47745D01*
X46157Y-47745D02*
X46843Y-47745D01*
X48175Y-47745D02*
X48275Y-47745D01*
X38345Y-47825D02*
X38468Y-47825D01*
X39438Y-47825D02*
X39905Y-47825D01*
X42585Y-47825D02*
X44472Y-47825D01*
X45378Y-47825D02*
X45613Y-47825D01*
X46373Y-47825D02*
X46627Y-47825D01*
X48175Y-47825D02*
X48275Y-47825D01*
X38345Y-47905D02*
X38468Y-47905D01*
X39438Y-47905D02*
X39922Y-47905D01*
X42505Y-47905D02*
X44414Y-47905D01*
X45437Y-47905D02*
X45693Y-47905D01*
X46458Y-47905D02*
X46542Y-47905D01*
X48175Y-47905D02*
X48275Y-47905D01*
X38345Y-47985D02*
X38468Y-47985D01*
X39438Y-47985D02*
X39957Y-47985D01*
X40493Y-47985D02*
X40515Y-47985D01*
X42426Y-47985D02*
X44062Y-47985D01*
X45470Y-47985D02*
X45773Y-47985D01*
X46500Y-47985D02*
X46501Y-47985D01*
X48151Y-47985D02*
X48297Y-47985D01*
X38345Y-48065D02*
X38468Y-48065D01*
X39438Y-48065D02*
X40037Y-48065D01*
X40413Y-48065D02*
X40515Y-48065D01*
X42346Y-48065D02*
X43982Y-48065D01*
X45470Y-48065D02*
X45853Y-48065D01*
X48175Y-48065D02*
X48275Y-48065D01*
X38345Y-48145D02*
X38468Y-48145D01*
X39438Y-48145D02*
X40515Y-48145D01*
X42266Y-48145D02*
X42303Y-48145D01*
X42600Y-48145D02*
X42700Y-48145D01*
X42997Y-48145D02*
X43250Y-48145D01*
X43450Y-48145D02*
X43948Y-48145D01*
X45457Y-48145D02*
X45880Y-48145D01*
X48175Y-48145D02*
X48275Y-48145D01*
X38345Y-48225D02*
X38468Y-48225D01*
X39438Y-48225D02*
X40515Y-48225D01*
X42175Y-48225D02*
X42247Y-48225D01*
X42600Y-48225D02*
X42700Y-48225D01*
X43665Y-48225D02*
X43930Y-48225D01*
X45423Y-48225D02*
X45905Y-48225D01*
X46493Y-48225D02*
X46504Y-48225D01*
X48175Y-48225D02*
X48275Y-48225D01*
X42098Y-48305D02*
X42226Y-48305D01*
X42600Y-48305D02*
X42700Y-48305D01*
X43695Y-48305D02*
X43930Y-48305D01*
X45370Y-48305D02*
X45952Y-48305D01*
X46448Y-48305D02*
X46552Y-48305D01*
X48175Y-48305D02*
X48275Y-48305D01*
X41920Y-48385D02*
X42226Y-48385D01*
X42600Y-48385D02*
X42700Y-48385D01*
X43743Y-48385D02*
X43959Y-48385D01*
X45370Y-48385D02*
X46051Y-48385D01*
X46349Y-48385D02*
X46522Y-48385D01*
X48175Y-48385D02*
X48275Y-48385D01*
X41920Y-48465D02*
X42252Y-48465D01*
X42600Y-48465D02*
X42700Y-48465D01*
X43827Y-48465D02*
X44012Y-48465D01*
X45427Y-48465D02*
X46489Y-48465D01*
X48175Y-48465D02*
X48275Y-48465D01*
X41920Y-48545D02*
X42700Y-48545D01*
X43907Y-48545D02*
X44125Y-48545D01*
X45507Y-48545D02*
X46480Y-48545D01*
X48175Y-48545D02*
X48275Y-48545D01*
X41920Y-48625D02*
X42262Y-48625D01*
X42600Y-48625D02*
X42700Y-48625D01*
X43987Y-48625D02*
X44363Y-48625D01*
X45587Y-48625D02*
X46484Y-48625D01*
X48175Y-48625D02*
X48275Y-48625D01*
X41920Y-48705D02*
X42225Y-48705D01*
X42600Y-48705D02*
X42700Y-48705D01*
X44067Y-48705D02*
X44443Y-48705D01*
X45667Y-48705D02*
X45992Y-48705D01*
X46408Y-48705D02*
X46517Y-48705D01*
X48175Y-48705D02*
X48275Y-48705D01*
X41920Y-48785D02*
X42226Y-48785D01*
X42600Y-48785D02*
X42700Y-48785D01*
X44147Y-48785D02*
X44523Y-48785D01*
X45747Y-48785D02*
X45922Y-48785D01*
X46479Y-48785D02*
X46582Y-48785D01*
X48175Y-48785D02*
X48275Y-48785D01*
X41920Y-48865D02*
X42242Y-48865D01*
X42600Y-48865D02*
X42700Y-48865D01*
X44227Y-48865D02*
X44603Y-48865D01*
X45827Y-48865D02*
X45889Y-48865D01*
X48175Y-48865D02*
X48275Y-48865D01*
X41920Y-48945D02*
X42293Y-48945D01*
X42600Y-48945D02*
X42700Y-48945D01*
X43007Y-48945D02*
X43683Y-48945D01*
X44307Y-48945D02*
X44683Y-48945D01*
X48175Y-48945D02*
X48275Y-48945D01*
X41920Y-49025D02*
X43763Y-49025D01*
X44387Y-49025D02*
X44763Y-49025D01*
X48163Y-49025D02*
X48287Y-49025D01*
X42134Y-49105D02*
X43843Y-49105D01*
X44647Y-49105D02*
X44843Y-49105D01*
X48175Y-49105D02*
X48275Y-49105D01*
X42240Y-49185D02*
X43408Y-49185D01*
X44747Y-49185D02*
X44762Y-49185D01*
X48175Y-49185D02*
X48275Y-49185D01*
X42262Y-49265D02*
X42307Y-49265D01*
X42894Y-49265D02*
X43107Y-49265D01*
X48175Y-49265D02*
X48275Y-49265D01*
X42957Y-49345D02*
X43043Y-49345D01*
X48175Y-49345D02*
X48275Y-49345D01*
X42970Y-49425D02*
X43030Y-49425D01*
X48175Y-49425D02*
X48275Y-49425D01*
X42987Y-49505D02*
X43030Y-49505D01*
X48175Y-49505D02*
X48275Y-49505D01*
X48175Y-49585D02*
X48275Y-49585D01*
X48175Y-49665D02*
X48275Y-49665D01*
X45074Y-49745D02*
X45183Y-49745D01*
X48175Y-49745D02*
X48275Y-49745D01*
X44864Y-49825D02*
X45263Y-49825D01*
X48175Y-49825D02*
X48275Y-49825D01*
X44839Y-49905D02*
X45343Y-49905D01*
X48175Y-49905D02*
X48275Y-49905D01*
X44775Y-49985D02*
X45423Y-49985D01*
X48151Y-49985D02*
X48297Y-49985D01*
X44692Y-50065D02*
X45503Y-50065D01*
X48175Y-50065D02*
X48275Y-50065D01*
X44215Y-50145D02*
X45583Y-50145D01*
X48175Y-50145D02*
X48275Y-50145D01*
X44135Y-50225D02*
X45663Y-50225D01*
X48175Y-50225D02*
X48275Y-50225D01*
X42262Y-50305D02*
X42689Y-50305D01*
X44056Y-50305D02*
X45056Y-50305D01*
X45268Y-50305D02*
X45432Y-50305D01*
X45645Y-50305D02*
X45743Y-50305D01*
X48175Y-50305D02*
X48275Y-50305D01*
X42297Y-50385D02*
X42680Y-50385D01*
X43976Y-50385D02*
X44375Y-50385D01*
X44925Y-50385D02*
X44964Y-50385D01*
X45300Y-50385D02*
X45400Y-50385D01*
X45737Y-50385D02*
X45823Y-50385D01*
X48175Y-50385D02*
X48275Y-50385D01*
X42334Y-50465D02*
X42680Y-50465D01*
X43828Y-50465D02*
X44316Y-50465D01*
X45300Y-50465D02*
X45400Y-50465D01*
X45770Y-50465D02*
X45903Y-50465D01*
X48175Y-50465D02*
X48275Y-50465D01*
X42316Y-50545D02*
X42341Y-50545D01*
X42341Y-50545D02*
X42680Y-50545D01*
X43120Y-50545D02*
X44302Y-50545D01*
X45300Y-50545D02*
X45400Y-50545D01*
X45774Y-50545D02*
X45983Y-50545D01*
X48175Y-50545D02*
X48275Y-50545D01*
X41580Y-50625D02*
X42680Y-50625D01*
X43120Y-50625D02*
X44256Y-50625D01*
X45300Y-50625D02*
X45400Y-50625D01*
X45775Y-50625D02*
X46063Y-50625D01*
X48175Y-50625D02*
X48275Y-50625D01*
X41580Y-50705D02*
X41680Y-50705D01*
X42306Y-50705D02*
X42341Y-50705D01*
X42342Y-50705D02*
X42680Y-50705D01*
X43120Y-50705D02*
X44230Y-50705D01*
X45300Y-50705D02*
X46143Y-50705D01*
X48175Y-50705D02*
X48275Y-50705D01*
X41580Y-50785D02*
X41680Y-50785D01*
X42338Y-50785D02*
X42680Y-50785D01*
X43120Y-50785D02*
X44230Y-50785D01*
X45300Y-50785D02*
X46180Y-50785D01*
X48175Y-50785D02*
X48275Y-50785D01*
X41580Y-50865D02*
X41680Y-50865D01*
X42304Y-50865D02*
X42680Y-50865D01*
X43120Y-50865D02*
X44251Y-50865D01*
X45300Y-50865D02*
X45400Y-50865D01*
X45774Y-50865D02*
X46180Y-50865D01*
X48175Y-50865D02*
X48275Y-50865D01*
X41551Y-50945D02*
X41709Y-50945D01*
X42218Y-50945D02*
X42680Y-50945D01*
X43120Y-50945D02*
X44292Y-50945D01*
X45300Y-50945D02*
X45400Y-50945D01*
X45774Y-50945D02*
X46180Y-50945D01*
X48175Y-50945D02*
X48275Y-50945D01*
X41545Y-51025D02*
X42680Y-51025D01*
X43120Y-51025D02*
X44285Y-51025D01*
X45300Y-51025D02*
X45400Y-51025D01*
X45774Y-51025D02*
X46180Y-51025D01*
X48163Y-51025D02*
X48287Y-51025D01*
X41545Y-51105D02*
X42680Y-51105D01*
X43120Y-51105D02*
X44255Y-51105D01*
X45300Y-51105D02*
X45400Y-51105D01*
X45740Y-51105D02*
X46180Y-51105D01*
X48175Y-51105D02*
X48275Y-51105D01*
X41545Y-51185D02*
X42680Y-51185D01*
X43120Y-51185D02*
X44255Y-51185D01*
X45300Y-51185D02*
X45400Y-51185D01*
X45758Y-51185D02*
X46180Y-51185D01*
X48175Y-51185D02*
X48275Y-51185D01*
X41545Y-51265D02*
X42680Y-51265D01*
X43120Y-51265D02*
X43739Y-51265D01*
X45300Y-51265D02*
X45400Y-51265D01*
X45774Y-51265D02*
X46180Y-51265D01*
X48175Y-51265D02*
X48275Y-51265D01*
X41545Y-51345D02*
X42680Y-51345D01*
X43120Y-51345D02*
X43643Y-51345D01*
X45300Y-51345D02*
X45400Y-51345D01*
X45775Y-51345D02*
X46180Y-51345D01*
X48175Y-51345D02*
X48275Y-51345D01*
X41545Y-51425D02*
X42680Y-51425D01*
X43120Y-51425D02*
X43574Y-51425D01*
X45300Y-51425D02*
X45400Y-51425D01*
X45738Y-51425D02*
X46184Y-51425D01*
X48175Y-51425D02*
X48275Y-51425D01*
X41545Y-51505D02*
X42680Y-51505D01*
X43120Y-51505D02*
X43539Y-51505D01*
X45300Y-51505D02*
X46210Y-51505D01*
X48193Y-51505D02*
X48275Y-51505D01*
X41545Y-51585D02*
X42680Y-51585D01*
X43120Y-51585D02*
X43530Y-51585D01*
X45300Y-51585D02*
X45400Y-51585D01*
X45748Y-51585D02*
X46273Y-51585D01*
X48225Y-51585D02*
X48275Y-51585D01*
X41527Y-51665D02*
X42680Y-51665D01*
X43120Y-51665D02*
X43386Y-51665D01*
X45300Y-51665D02*
X45400Y-51665D01*
X45774Y-51665D02*
X46353Y-51665D01*
X48225Y-51665D02*
X48275Y-51665D01*
X38345Y-51745D02*
X38468Y-51745D01*
X39438Y-51745D02*
X40515Y-51745D01*
X41485Y-51745D02*
X42680Y-51745D01*
X43120Y-51745D02*
X43293Y-51745D01*
X45300Y-51745D02*
X45400Y-51745D01*
X45774Y-51745D02*
X46433Y-51745D01*
X48225Y-51745D02*
X48275Y-51745D01*
X38345Y-51825D02*
X38468Y-51825D01*
X39438Y-51825D02*
X40515Y-51825D01*
X41485Y-51825D02*
X42680Y-51825D01*
X43120Y-51825D02*
X43213Y-51825D01*
X45300Y-51825D02*
X45400Y-51825D01*
X45753Y-51825D02*
X46372Y-51825D01*
X48225Y-51825D02*
X48275Y-51825D01*
X38345Y-51905D02*
X38468Y-51905D01*
X39438Y-51905D02*
X40515Y-51905D01*
X41485Y-51905D02*
X42680Y-51905D01*
X45300Y-51905D02*
X45400Y-51905D01*
X45745Y-51905D02*
X46314Y-51905D01*
X48225Y-51905D02*
X48275Y-51905D01*
X38345Y-51985D02*
X38468Y-51985D01*
X39438Y-51985D02*
X40515Y-51985D01*
X41485Y-51985D02*
X42680Y-51985D01*
X45300Y-51985D02*
X45400Y-51985D01*
X45774Y-51985D02*
X46281Y-51985D01*
X48225Y-51985D02*
X48297Y-51985D01*
X38345Y-52065D02*
X38468Y-52065D01*
X39438Y-52065D02*
X40515Y-52065D01*
X41485Y-52065D02*
X42680Y-52065D01*
X45300Y-52065D02*
X45400Y-52065D01*
X45774Y-52065D02*
X46280Y-52065D01*
X48225Y-52065D02*
X48275Y-52065D01*
X38345Y-52145D02*
X38468Y-52145D01*
X39438Y-52145D02*
X40515Y-52145D01*
X41485Y-52145D02*
X42680Y-52145D01*
X45300Y-52145D02*
X45400Y-52145D01*
X45768Y-52145D02*
X46293Y-52145D01*
X48225Y-52145D02*
X48275Y-52145D01*
X38345Y-52225D02*
X38478Y-52225D01*
X39427Y-52225D02*
X40525Y-52225D01*
X41474Y-52225D02*
X42680Y-52225D01*
X44995Y-52225D02*
X46325Y-52225D01*
X48225Y-52225D02*
X48275Y-52225D01*
X38345Y-52305D02*
X38538Y-52305D01*
X39368Y-52305D02*
X40585Y-52305D01*
X41415Y-52305D02*
X42697Y-52305D01*
X45300Y-52305D02*
X45400Y-52305D01*
X45718Y-52305D02*
X46402Y-52305D01*
X48225Y-52305D02*
X48275Y-52305D01*
X38345Y-52385D02*
X42732Y-52385D01*
X45300Y-52385D02*
X45400Y-52385D01*
X45774Y-52385D02*
X46680Y-52385D01*
X48225Y-52385D02*
X48275Y-52385D01*
X38345Y-52465D02*
X42812Y-52465D01*
X45300Y-52465D02*
X45400Y-52465D01*
X45774Y-52465D02*
X46680Y-52465D01*
X48223Y-52465D02*
X48275Y-52465D01*
X38345Y-52545D02*
X42920Y-52545D01*
X45300Y-52545D02*
X45400Y-52545D01*
X45765Y-52545D02*
X46680Y-52545D01*
X48175Y-52545D02*
X48275Y-52545D01*
X38345Y-52625D02*
X42993Y-52625D01*
X45726Y-52625D02*
X46680Y-52625D01*
X48175Y-52625D02*
X48275Y-52625D01*
X38345Y-52705D02*
X42921Y-52705D01*
X44600Y-52705D02*
X44700Y-52705D01*
X45680Y-52705D02*
X46680Y-52705D01*
X48175Y-52705D02*
X48275Y-52705D01*
X38345Y-52785D02*
X42905Y-52785D01*
X44600Y-52785D02*
X44700Y-52785D01*
X45695Y-52785D02*
X46680Y-52785D01*
X48175Y-52785D02*
X48275Y-52785D01*
X38345Y-52865D02*
X42905Y-52865D01*
X44600Y-52865D02*
X44700Y-52865D01*
X45695Y-52865D02*
X46680Y-52865D01*
X48175Y-52865D02*
X48275Y-52865D01*
X38345Y-52945D02*
X42905Y-52945D01*
X44600Y-52945D02*
X44700Y-52945D01*
X45695Y-52945D02*
X46680Y-52945D01*
X48175Y-52945D02*
X48275Y-52945D01*
X38345Y-53025D02*
X42905Y-53025D01*
X43900Y-53025D02*
X45005Y-53025D01*
X45695Y-53025D02*
X46680Y-53025D01*
X48163Y-53025D02*
X48287Y-53025D01*
X38345Y-53105D02*
X42905Y-53105D01*
X43900Y-53105D02*
X44000Y-53105D01*
X44600Y-53105D02*
X44700Y-53105D01*
X45695Y-53105D02*
X46680Y-53105D01*
X48175Y-53105D02*
X48275Y-53105D01*
X38345Y-53185D02*
X38941Y-53185D01*
X39275Y-53185D02*
X42905Y-53185D01*
X43900Y-53185D02*
X44000Y-53185D01*
X44600Y-53185D02*
X44700Y-53185D01*
X45695Y-53185D02*
X46680Y-53185D01*
X48175Y-53185D02*
X48275Y-53185D01*
X38345Y-53265D02*
X38825Y-53265D01*
X39408Y-53265D02*
X40906Y-53265D01*
X41263Y-53265D02*
X42907Y-53265D01*
X43900Y-53265D02*
X44000Y-53265D01*
X44600Y-53265D02*
X44700Y-53265D01*
X45692Y-53265D02*
X46692Y-53265D01*
X48175Y-53265D02*
X48275Y-53265D01*
X38345Y-53345D02*
X38831Y-53345D01*
X39400Y-53345D02*
X40774Y-53345D01*
X41394Y-53345D02*
X42955Y-53345D01*
X43900Y-53345D02*
X44000Y-53345D01*
X44600Y-53345D02*
X44700Y-53345D01*
X45645Y-53345D02*
X46736Y-53345D01*
X48175Y-53345D02*
X48275Y-53345D01*
X38345Y-53425D02*
X38642Y-53425D01*
X38771Y-53425D02*
X38911Y-53425D01*
X39320Y-53425D02*
X39462Y-53425D01*
X39591Y-53425D02*
X40694Y-53425D01*
X41474Y-53425D02*
X42999Y-53425D01*
X43888Y-53425D02*
X44012Y-53425D01*
X44276Y-53425D02*
X44323Y-53425D01*
X44588Y-53425D02*
X44712Y-53425D01*
X45601Y-53425D02*
X46813Y-53425D01*
X48175Y-53425D02*
X48275Y-53425D01*
X38345Y-53505D02*
X38614Y-53505D01*
X38851Y-53505D02*
X38991Y-53505D01*
X39240Y-53505D02*
X39382Y-53505D01*
X39624Y-53505D02*
X40657Y-53505D01*
X41513Y-53505D02*
X42932Y-53505D01*
X43747Y-53505D02*
X44854Y-53505D01*
X45669Y-53505D02*
X46880Y-53505D01*
X48175Y-53505D02*
X48275Y-53505D01*
X38345Y-53585D02*
X38586Y-53585D01*
X38931Y-53585D02*
X39071Y-53585D01*
X39160Y-53585D02*
X39302Y-53585D01*
X39649Y-53585D02*
X40623Y-53585D01*
X41545Y-53585D02*
X42899Y-53585D01*
X43780Y-53585D02*
X44821Y-53585D01*
X45702Y-53585D02*
X46880Y-53585D01*
X48175Y-53585D02*
X48275Y-53585D01*
X38345Y-53665D02*
X38575Y-53665D01*
X39011Y-53665D02*
X39222Y-53665D01*
X39654Y-53665D02*
X40614Y-53665D01*
X41554Y-53665D02*
X42869Y-53665D01*
X43809Y-53665D02*
X44791Y-53665D01*
X45731Y-53665D02*
X46880Y-53665D01*
X48175Y-53665D02*
X48275Y-53665D01*
X38345Y-53745D02*
X38579Y-53745D01*
X39000Y-53745D02*
X39231Y-53745D01*
X39658Y-53745D02*
X40614Y-53745D01*
X41554Y-53745D02*
X42869Y-53745D01*
X43809Y-53745D02*
X44791Y-53745D01*
X45731Y-53745D02*
X46880Y-53745D01*
X48175Y-53745D02*
X48275Y-53745D01*
X38345Y-53825D02*
X38583Y-53825D01*
X38920Y-53825D02*
X39062Y-53825D01*
X39171Y-53825D02*
X39311Y-53825D01*
X39642Y-53825D02*
X40627Y-53825D01*
X41541Y-53825D02*
X42869Y-53825D01*
X43809Y-53825D02*
X44791Y-53825D01*
X45731Y-53825D02*
X46880Y-53825D01*
X48175Y-53825D02*
X48275Y-53825D01*
X38345Y-53905D02*
X38612Y-53905D01*
X38840Y-53905D02*
X38982Y-53905D01*
X39251Y-53905D02*
X39391Y-53905D01*
X39614Y-53905D02*
X40659Y-53905D01*
X41507Y-53905D02*
X42894Y-53905D01*
X43783Y-53905D02*
X44816Y-53905D01*
X45705Y-53905D02*
X46880Y-53905D01*
X48175Y-53905D02*
X48275Y-53905D01*
X38345Y-53985D02*
X38657Y-53985D01*
X38760Y-53985D02*
X38902Y-53985D01*
X39331Y-53985D02*
X39471Y-53985D01*
X39574Y-53985D02*
X40704Y-53985D01*
X41464Y-53985D02*
X42927Y-53985D01*
X43750Y-53985D02*
X44849Y-53985D01*
X45672Y-53985D02*
X46880Y-53985D01*
X48151Y-53985D02*
X48297Y-53985D01*
X38345Y-54065D02*
X38822Y-54065D01*
X39411Y-54065D02*
X40784Y-54065D01*
X41384Y-54065D02*
X42989Y-54065D01*
X43689Y-54065D02*
X44911Y-54065D01*
X45611Y-54065D02*
X46880Y-54065D01*
X48175Y-54065D02*
X48275Y-54065D01*
X38345Y-54145D02*
X38827Y-54145D01*
X39404Y-54145D02*
X40929Y-54145D01*
X41237Y-54145D02*
X43069Y-54145D01*
X43609Y-54145D02*
X44991Y-54145D01*
X45531Y-54145D02*
X46883Y-54145D01*
X48175Y-54145D02*
X48275Y-54145D01*
X38345Y-54225D02*
X38985Y-54225D01*
X39267Y-54225D02*
X46907Y-54225D01*
X48175Y-54225D02*
X48275Y-54225D01*
X38345Y-54305D02*
X46968Y-54305D01*
X48175Y-54305D02*
X48275Y-54305D01*
X38345Y-54385D02*
X47048Y-54385D01*
X48175Y-54385D02*
X48275Y-54385D01*
X38345Y-54465D02*
X47128Y-54465D01*
X47820Y-54465D02*
X48275Y-54465D01*
X38345Y-54545D02*
X47130Y-54545D01*
X47820Y-54545D02*
X48275Y-54545D01*
X38345Y-54625D02*
X47130Y-54625D01*
X48175Y-54625D02*
X48275Y-54625D01*
X38345Y-54705D02*
X47130Y-54705D01*
X48175Y-54705D02*
X48275Y-54705D01*
X38345Y-54785D02*
X47130Y-54785D01*
X48175Y-54785D02*
X48275Y-54785D01*
X38345Y-54865D02*
X47153Y-54865D01*
X47796Y-54865D02*
X47817Y-54865D01*
X48175Y-54865D02*
X48275Y-54865D01*
X38345Y-54945D02*
X47868Y-54945D01*
X48175Y-54945D02*
X48275Y-54945D01*
X38345Y-55025D02*
X48550Y-55025D01*
X42550Y-49740D02*
X42650Y-49740D01*
X48550Y-55055D02*
X48550Y-54977D01*
X48541Y-54986D01*
X48449Y-55024D01*
X48337Y-55025D01*
X48275Y-54963D01*
X48275Y-54550D01*
X48275Y-54450D01*
X48275Y-54037D01*
X48311Y-53999D01*
X48275Y-53963D01*
X48275Y-53550D01*
X48275Y-53450D01*
X48275Y-53037D01*
X48311Y-52999D01*
X48275Y-52963D01*
X48275Y-52550D01*
X48275Y-52450D01*
X48275Y-52037D01*
X48311Y-51999D01*
X48275Y-51963D01*
X48275Y-51550D01*
X48275Y-51450D01*
X48275Y-51037D01*
X48311Y-50999D01*
X48275Y-50963D01*
X48275Y-50550D01*
X48275Y-50450D01*
X48275Y-50037D01*
X48311Y-49999D01*
X48275Y-49963D01*
X48275Y-49550D01*
X48275Y-49450D01*
X48275Y-49037D01*
X48311Y-48999D01*
X48275Y-48963D01*
X48275Y-48550D01*
X48275Y-48450D01*
X48275Y-48037D01*
X48311Y-47999D01*
X48275Y-47963D01*
X48275Y-47550D01*
X48275Y-47450D01*
X48275Y-47037D01*
X48311Y-46999D01*
X48275Y-46963D01*
X48275Y-46550D01*
X48275Y-46450D01*
X48275Y-46037D01*
X48337Y-45975D01*
X48449Y-45976D01*
X48541Y-46014D01*
X48550Y-46023D01*
X48550Y-45902D01*
X48516Y-45936D01*
X48424Y-45974D01*
X48312Y-45975D01*
X48250Y-45913D01*
X48250Y-45550D01*
X48250Y-45450D01*
X48250Y-45087D01*
X48312Y-45025D01*
X48424Y-45026D01*
X48516Y-45064D01*
X48550Y-45098D01*
X48550Y-44945D01*
X38345Y-44945D01*
X38345Y-48255D01*
X38468Y-48255D01*
X38468Y-47801D01*
X38494Y-47739D01*
X38542Y-47691D01*
X38604Y-47665D01*
X39302Y-47665D01*
X39364Y-47691D01*
X39412Y-47739D01*
X39438Y-47801D01*
X39438Y-48255D01*
X40515Y-48255D01*
X40515Y-47936D01*
X40496Y-47982D01*
X40406Y-48072D01*
X40288Y-48120D01*
X40161Y-48120D01*
X40043Y-48071D01*
X39953Y-47981D01*
X39905Y-47863D01*
X39905Y-47736D01*
X39954Y-47618D01*
X40044Y-47528D01*
X40162Y-47480D01*
X40233Y-47480D01*
X40269Y-47444D01*
X40341Y-47397D01*
X40406Y-47383D01*
X40424Y-47380D01*
X40425Y-47380D01*
X41395Y-47379D01*
X41400Y-47379D01*
X41484Y-47397D01*
X41556Y-47444D01*
X41653Y-47542D01*
X41656Y-47544D01*
X41703Y-47616D01*
X41720Y-47700D01*
X41720Y-47777D01*
X41837Y-47730D01*
X41964Y-47730D01*
X42030Y-47757D01*
X42442Y-47346D01*
X42444Y-47344D01*
X42516Y-47297D01*
X42581Y-47283D01*
X42599Y-47280D01*
X43203Y-47280D01*
X43229Y-47218D01*
X43319Y-47128D01*
X43437Y-47080D01*
X43564Y-47080D01*
X43682Y-47129D01*
X43772Y-47219D01*
X43820Y-47337D01*
X43820Y-47464D01*
X43771Y-47582D01*
X43681Y-47672D01*
X43563Y-47720D01*
X43436Y-47720D01*
X43425Y-47715D01*
X43400Y-47721D01*
X43395Y-47720D01*
X42691Y-47719D01*
X42206Y-48206D01*
X42172Y-48227D01*
X42171Y-48232D01*
X42081Y-48322D01*
X41963Y-48370D01*
X41920Y-48370D01*
X41920Y-49102D01*
X42126Y-49102D01*
X42188Y-49128D01*
X42236Y-49176D01*
X42262Y-49238D01*
X42262Y-49284D01*
X42291Y-49278D01*
X42304Y-49266D01*
X42366Y-49240D01*
X42538Y-49240D01*
X42538Y-49025D01*
X42426Y-49024D01*
X42334Y-48986D01*
X42264Y-48916D01*
X42226Y-48825D01*
X42226Y-48726D01*
X42225Y-48662D01*
X42287Y-48600D01*
X42287Y-48500D01*
X42225Y-48438D01*
X42226Y-48374D01*
X42226Y-48275D01*
X42264Y-48184D01*
X42334Y-48114D01*
X42426Y-48076D01*
X42538Y-48075D01*
X42600Y-48137D01*
X42600Y-48500D01*
X42287Y-48500D01*
X42287Y-48600D01*
X42600Y-48600D01*
X42600Y-48963D01*
X42538Y-49025D01*
X42538Y-49240D01*
X42834Y-49240D01*
X42896Y-49266D01*
X42944Y-49314D01*
X42970Y-49376D01*
X42970Y-49488D01*
X43011Y-49529D01*
X43028Y-49571D01*
X43030Y-49570D01*
X43030Y-49376D01*
X43056Y-49314D01*
X43104Y-49266D01*
X43166Y-49240D01*
X43348Y-49240D01*
X43394Y-49194D01*
X43466Y-49147D01*
X43532Y-49133D01*
X43549Y-49130D01*
X43868Y-49130D01*
X43639Y-48900D01*
X43621Y-48919D01*
X43559Y-48945D01*
X43141Y-48945D01*
X43079Y-48919D01*
X43047Y-48887D01*
X43036Y-48916D01*
X42966Y-48986D01*
X42874Y-49024D01*
X42762Y-49025D01*
X42700Y-48963D01*
X42700Y-48600D01*
X42700Y-48500D01*
X42700Y-48137D01*
X42762Y-48075D01*
X42874Y-48076D01*
X42966Y-48114D01*
X43036Y-48184D01*
X43047Y-48212D01*
X43079Y-48181D01*
X43141Y-48155D01*
X43225Y-48155D01*
X43287Y-48130D01*
X43414Y-48130D01*
X43474Y-48155D01*
X43559Y-48155D01*
X43621Y-48181D01*
X43669Y-48229D01*
X43695Y-48291D01*
X43695Y-48354D01*
X43756Y-48394D01*
X44441Y-49080D01*
X44545Y-49080D01*
X44550Y-49079D01*
X44634Y-49097D01*
X44706Y-49144D01*
X44754Y-49192D01*
X44769Y-49178D01*
X44873Y-49135D01*
X44308Y-48570D01*
X44186Y-48570D01*
X44068Y-48521D01*
X43978Y-48431D01*
X43930Y-48313D01*
X43930Y-48186D01*
X43979Y-48068D01*
X44069Y-47978D01*
X44187Y-47930D01*
X44314Y-47930D01*
X44390Y-47961D01*
X44429Y-47868D01*
X44519Y-47778D01*
X44637Y-47730D01*
X44764Y-47730D01*
X44882Y-47779D01*
X44924Y-47821D01*
X44969Y-47778D01*
X45087Y-47730D01*
X45214Y-47730D01*
X45332Y-47779D01*
X45422Y-47869D01*
X45470Y-47987D01*
X45470Y-48114D01*
X45421Y-48232D01*
X45370Y-48283D01*
X45370Y-48408D01*
X45880Y-48918D01*
X45880Y-48886D01*
X45929Y-48768D01*
X46019Y-48678D01*
X46137Y-48630D01*
X46264Y-48630D01*
X46382Y-48679D01*
X46472Y-48769D01*
X46502Y-48844D01*
X46537Y-48830D01*
X46639Y-48830D01*
X46618Y-48821D01*
X46528Y-48731D01*
X46480Y-48613D01*
X46480Y-48486D01*
X46529Y-48368D01*
X46571Y-48324D01*
X46528Y-48281D01*
X46499Y-48212D01*
X46471Y-48282D01*
X46381Y-48372D01*
X46263Y-48420D01*
X46136Y-48420D01*
X46018Y-48371D01*
X45928Y-48281D01*
X45880Y-48163D01*
X45880Y-48091D01*
X44894Y-47106D01*
X44847Y-47034D01*
X44837Y-46990D01*
X44778Y-46931D01*
X44730Y-46813D01*
X44730Y-46686D01*
X44779Y-46568D01*
X44842Y-46505D01*
X43910Y-46505D01*
X43910Y-46955D01*
X40540Y-46955D01*
X40540Y-46505D01*
X40492Y-46505D01*
X40492Y-45861D01*
X40481Y-45872D01*
X40443Y-45887D01*
X40419Y-45946D01*
X40371Y-45994D01*
X40309Y-46020D01*
X40119Y-46020D01*
X40156Y-46044D01*
X40328Y-46217D01*
X40331Y-46219D01*
X40378Y-46291D01*
X40395Y-46375D01*
X40395Y-46430D01*
X40419Y-46454D01*
X40445Y-46516D01*
X40445Y-46984D01*
X40419Y-47046D01*
X40371Y-47094D01*
X40309Y-47120D01*
X40081Y-47120D01*
X40041Y-47161D01*
X39949Y-47199D01*
X39912Y-47200D01*
X39850Y-47138D01*
X39850Y-46800D01*
X39850Y-46700D01*
X39750Y-46700D01*
X39750Y-46800D01*
X39750Y-47138D01*
X39688Y-47200D01*
X39651Y-47199D01*
X39559Y-47161D01*
X39517Y-47120D01*
X39333Y-47120D01*
X39281Y-47172D01*
X39163Y-47220D01*
X39036Y-47220D01*
X38918Y-47171D01*
X38828Y-47081D01*
X38780Y-46963D01*
X38780Y-46836D01*
X38829Y-46718D01*
X38919Y-46628D01*
X39037Y-46580D01*
X39115Y-46580D01*
X39155Y-46554D01*
X39155Y-46516D01*
X39181Y-46454D01*
X39205Y-46430D01*
X39205Y-46379D01*
X39204Y-46375D01*
X39222Y-46291D01*
X39269Y-46219D01*
X39444Y-46044D01*
X39480Y-46020D01*
X39291Y-46020D01*
X39229Y-45994D01*
X39181Y-45946D01*
X39155Y-45884D01*
X39155Y-45416D01*
X39181Y-45354D01*
X39229Y-45306D01*
X39291Y-45280D01*
X39559Y-45280D01*
X39621Y-45306D01*
X39669Y-45354D01*
X39695Y-45416D01*
X39695Y-45884D01*
X39669Y-45946D01*
X39635Y-45979D01*
X39965Y-45979D01*
X39931Y-45946D01*
X39905Y-45884D01*
X39905Y-45416D01*
X39931Y-45354D01*
X39979Y-45306D01*
X40041Y-45280D01*
X40364Y-45280D01*
X40482Y-45329D01*
X40506Y-45353D01*
X40506Y-45295D01*
X44645Y-45295D01*
X44645Y-45745D01*
X45358Y-45745D01*
X45358Y-46505D01*
X45257Y-46505D01*
X45322Y-46569D01*
X45370Y-46687D01*
X45370Y-46814D01*
X45327Y-46915D01*
X46191Y-47780D01*
X46264Y-47780D01*
X46382Y-47829D01*
X46472Y-47919D01*
X46500Y-47987D01*
X46529Y-47918D01*
X46619Y-47828D01*
X46737Y-47780D01*
X46808Y-47779D01*
X46880Y-47708D01*
X46880Y-46879D01*
X46879Y-46875D01*
X46897Y-46791D01*
X46944Y-46719D01*
X47130Y-46533D01*
X47130Y-46191D01*
X47156Y-46129D01*
X47204Y-46081D01*
X47266Y-46055D01*
X47593Y-46054D01*
X47433Y-45895D01*
X47291Y-45895D01*
X47229Y-45869D01*
X47181Y-45821D01*
X47155Y-45759D01*
X47155Y-45241D01*
X47181Y-45179D01*
X47229Y-45131D01*
X47291Y-45105D01*
X47709Y-45105D01*
X47771Y-45131D01*
X47802Y-45162D01*
X47814Y-45134D01*
X47884Y-45064D01*
X47976Y-45026D01*
X48088Y-45025D01*
X48150Y-45087D01*
X48150Y-45450D01*
X48150Y-45550D01*
X48150Y-45913D01*
X48088Y-45975D01*
X48064Y-45974D01*
X48064Y-45975D01*
X48088Y-45975D01*
X48113Y-45975D01*
X48175Y-46037D01*
X48175Y-46450D01*
X48175Y-46550D01*
X48175Y-46963D01*
X48137Y-46999D01*
X48175Y-47037D01*
X48175Y-47450D01*
X48175Y-47550D01*
X48175Y-47963D01*
X48137Y-47999D01*
X48175Y-48037D01*
X48175Y-48450D01*
X48175Y-48550D01*
X48175Y-48963D01*
X48137Y-48999D01*
X48175Y-49037D01*
X48175Y-49450D01*
X48175Y-49550D01*
X48175Y-49963D01*
X48137Y-49999D01*
X48175Y-50037D01*
X48175Y-50450D01*
X48175Y-50550D01*
X48175Y-50963D01*
X48137Y-50999D01*
X48175Y-51037D01*
X48175Y-51450D01*
X48175Y-51487D01*
X48225Y-51537D01*
X48225Y-51950D01*
X48225Y-52050D01*
X48225Y-52463D01*
X48175Y-52513D01*
X48175Y-52550D01*
X48175Y-52963D01*
X48137Y-52999D01*
X48175Y-53037D01*
X48175Y-53450D01*
X48175Y-53550D01*
X48175Y-53963D01*
X48137Y-53999D01*
X48175Y-54037D01*
X48175Y-54450D01*
X47862Y-54450D01*
X47820Y-54408D01*
X47820Y-54592D01*
X47862Y-54550D01*
X48175Y-54550D01*
X48175Y-54963D01*
X48113Y-55025D01*
X48001Y-55024D01*
X47909Y-54986D01*
X47839Y-54916D01*
X47807Y-54839D01*
X47794Y-54871D01*
X47746Y-54919D01*
X47684Y-54945D01*
X47266Y-54945D01*
X47204Y-54919D01*
X47156Y-54871D01*
X47130Y-54809D01*
X47130Y-54466D01*
X46944Y-54281D01*
X46897Y-54209D01*
X46879Y-54125D01*
X46880Y-54120D01*
X46880Y-53491D01*
X46744Y-53356D01*
X46697Y-53284D01*
X46679Y-53200D01*
X46680Y-53195D01*
X46680Y-52363D01*
X46663Y-52370D01*
X46536Y-52370D01*
X46418Y-52321D01*
X46328Y-52231D01*
X46280Y-52113D01*
X46280Y-51986D01*
X46329Y-51868D01*
X46419Y-51778D01*
X46452Y-51764D01*
X46244Y-51556D01*
X46197Y-51484D01*
X46179Y-51400D01*
X46180Y-51395D01*
X46180Y-50742D01*
X45145Y-49707D01*
X45131Y-49722D01*
X45013Y-49770D01*
X44886Y-49770D01*
X44870Y-49763D01*
X44870Y-49800D01*
X44853Y-49884D01*
X44806Y-49956D01*
X44803Y-49957D01*
X44706Y-50056D01*
X44634Y-50103D01*
X44550Y-50121D01*
X44545Y-50119D01*
X44241Y-50119D01*
X43956Y-50406D01*
X43884Y-50453D01*
X43800Y-50471D01*
X43795Y-50470D01*
X43120Y-50470D01*
X43120Y-51855D01*
X43183Y-51854D01*
X43342Y-51696D01*
X43344Y-51694D01*
X43386Y-51665D01*
X43415Y-51647D01*
X43500Y-51630D01*
X43530Y-51630D01*
X43530Y-51554D01*
X43529Y-51550D01*
X43547Y-51466D01*
X43594Y-51394D01*
X43694Y-51294D01*
X43766Y-51247D01*
X43850Y-51230D01*
X44255Y-51230D01*
X44255Y-51091D01*
X44281Y-51029D01*
X44305Y-51005D01*
X44305Y-50958D01*
X44278Y-50931D01*
X44230Y-50813D01*
X44230Y-50686D01*
X44279Y-50568D01*
X44305Y-50542D01*
X44305Y-50491D01*
X44331Y-50429D01*
X44379Y-50381D01*
X44441Y-50355D01*
X44859Y-50355D01*
X44921Y-50381D01*
X44952Y-50412D01*
X44964Y-50384D01*
X45034Y-50314D01*
X45126Y-50276D01*
X45238Y-50275D01*
X45300Y-50337D01*
X45300Y-50700D01*
X45300Y-50800D01*
X45300Y-51450D01*
X45300Y-51550D01*
X45300Y-52200D01*
X44995Y-52200D01*
X44995Y-52300D01*
X45300Y-52300D01*
X45300Y-52605D01*
X45400Y-52605D01*
X45400Y-52300D01*
X45400Y-52200D01*
X45400Y-51550D01*
X45400Y-51450D01*
X45400Y-50800D01*
X45400Y-50700D01*
X45400Y-50337D01*
X45462Y-50275D01*
X45574Y-50276D01*
X45666Y-50314D01*
X45736Y-50384D01*
X45774Y-50475D01*
X45774Y-50574D01*
X45775Y-50638D01*
X45713Y-50700D01*
X45400Y-50700D01*
X45400Y-50800D01*
X45713Y-50800D01*
X45775Y-50862D01*
X45774Y-50926D01*
X45774Y-51025D01*
X45736Y-51116D01*
X45727Y-51124D01*
X45736Y-51134D01*
X45774Y-51225D01*
X45774Y-51324D01*
X45775Y-51388D01*
X45713Y-51450D01*
X45400Y-51450D01*
X45400Y-51550D01*
X45713Y-51550D01*
X45775Y-51612D01*
X45774Y-51676D01*
X45774Y-51775D01*
X45736Y-51866D01*
X45726Y-51874D01*
X45736Y-51884D01*
X45774Y-51975D01*
X45774Y-52074D01*
X45775Y-52138D01*
X45713Y-52200D01*
X45400Y-52200D01*
X45400Y-52300D01*
X45713Y-52300D01*
X45775Y-52362D01*
X45774Y-52426D01*
X45774Y-52525D01*
X45736Y-52616D01*
X45670Y-52681D01*
X45695Y-52741D01*
X45695Y-53259D01*
X45669Y-53321D01*
X45621Y-53369D01*
X45570Y-53390D01*
X45570Y-53394D01*
X45660Y-53484D01*
X45731Y-53657D01*
X45731Y-53844D01*
X45659Y-54017D01*
X45527Y-54149D01*
X45354Y-54220D01*
X45167Y-54220D01*
X44994Y-54148D01*
X44862Y-54016D01*
X44791Y-53843D01*
X44791Y-53656D01*
X44863Y-53483D01*
X44871Y-53474D01*
X44762Y-53475D01*
X44700Y-53413D01*
X44700Y-53050D01*
X45005Y-53050D01*
X45005Y-52950D01*
X44700Y-52950D01*
X44700Y-52645D01*
X44600Y-52645D01*
X44600Y-52950D01*
X44000Y-52950D01*
X43900Y-52950D01*
X43900Y-53050D01*
X43900Y-53413D01*
X43838Y-53475D01*
X43728Y-53474D01*
X43738Y-53484D01*
X43809Y-53657D01*
X43809Y-53844D01*
X43737Y-54017D01*
X43605Y-54149D01*
X43432Y-54220D01*
X43245Y-54220D01*
X43072Y-54148D01*
X42940Y-54016D01*
X42869Y-53843D01*
X42869Y-53656D01*
X42941Y-53483D01*
X43030Y-53394D01*
X43030Y-53390D01*
X42979Y-53369D01*
X42931Y-53321D01*
X42905Y-53259D01*
X42905Y-52741D01*
X42931Y-52679D01*
X42979Y-52631D01*
X42993Y-52625D01*
X42979Y-52619D01*
X42931Y-52571D01*
X42905Y-52509D01*
X42905Y-52507D01*
X42818Y-52471D01*
X42728Y-52381D01*
X42680Y-52263D01*
X42680Y-52136D01*
X42684Y-52125D01*
X42679Y-52100D01*
X42680Y-52095D01*
X42680Y-50354D01*
X42679Y-50350D01*
X42697Y-50266D01*
X42700Y-50260D01*
X42366Y-50260D01*
X42304Y-50234D01*
X42299Y-50229D01*
X42262Y-50230D01*
X42262Y-50350D01*
X42303Y-50391D01*
X42341Y-50482D01*
X42341Y-50520D01*
X42342Y-50519D01*
X42341Y-50581D01*
X42341Y-50679D01*
X42342Y-50741D01*
X42341Y-50740D01*
X42341Y-50778D01*
X42303Y-50869D01*
X42233Y-50939D01*
X42141Y-50977D01*
X41742Y-50978D01*
X41680Y-50916D01*
X41680Y-50679D01*
X42280Y-50679D01*
X42341Y-50740D01*
X42341Y-50679D01*
X42341Y-50581D01*
X42341Y-50520D01*
X42280Y-50581D01*
X42130Y-50581D01*
X42126Y-50583D01*
X41580Y-50583D01*
X41580Y-50679D01*
X41580Y-50680D01*
X41580Y-50916D01*
X41545Y-50951D01*
X41545Y-51600D01*
X41534Y-51655D01*
X41503Y-51703D01*
X41485Y-51714D01*
X41485Y-52199D01*
X41459Y-52261D01*
X41411Y-52309D01*
X41349Y-52335D01*
X40651Y-52335D01*
X40589Y-52309D01*
X40541Y-52261D01*
X40515Y-52199D01*
X40515Y-51745D01*
X39438Y-51745D01*
X39438Y-52199D01*
X39412Y-52261D01*
X39364Y-52309D01*
X39302Y-52335D01*
X38604Y-52335D01*
X38542Y-52309D01*
X38494Y-52261D01*
X38468Y-52199D01*
X38468Y-51745D01*
X38345Y-51745D01*
X38345Y-55055D01*
X38738Y-55055D01*
X38738Y-54008D01*
X38644Y-53981D01*
X38584Y-53834D01*
X38573Y-53621D01*
X38644Y-53419D01*
X38738Y-53392D01*
X39045Y-53700D01*
X38738Y-54008D01*
X38738Y-55055D01*
X39037Y-55055D01*
X39037Y-54243D01*
X38835Y-54172D01*
X38808Y-54078D01*
X39116Y-53771D01*
X39116Y-53629D01*
X38808Y-53322D01*
X38835Y-53228D01*
X38982Y-53168D01*
X39195Y-53157D01*
X39397Y-53228D01*
X39424Y-53322D01*
X39116Y-53629D01*
X39116Y-53771D01*
X39424Y-54078D01*
X39397Y-54172D01*
X39250Y-54232D01*
X39037Y-54243D01*
X39037Y-55055D01*
X39494Y-55055D01*
X39494Y-54008D01*
X39187Y-53700D01*
X39494Y-53392D01*
X39588Y-53419D01*
X39648Y-53566D01*
X39659Y-53779D01*
X39588Y-53981D01*
X39494Y-54008D01*
X39494Y-55055D01*
X40990Y-55055D01*
X40990Y-54170D01*
X40817Y-54098D01*
X40685Y-53966D01*
X40614Y-53793D01*
X40614Y-53606D01*
X40686Y-53433D01*
X40818Y-53301D01*
X40991Y-53230D01*
X41178Y-53230D01*
X41351Y-53302D01*
X41483Y-53434D01*
X41554Y-53607D01*
X41554Y-53794D01*
X41482Y-53967D01*
X41350Y-54099D01*
X41177Y-54170D01*
X40990Y-54170D01*
X40990Y-55055D01*
X41742Y-55055D01*
X41742Y-50978D01*
X41742Y-55055D01*
X44538Y-55055D01*
X44538Y-53475D01*
X44426Y-53474D01*
X44334Y-53436D01*
X44299Y-53401D01*
X44266Y-53436D01*
X44174Y-53474D01*
X44062Y-53475D01*
X44000Y-53413D01*
X44000Y-53050D01*
X44600Y-53050D01*
X44600Y-53413D01*
X44538Y-53475D01*
X44538Y-55055D01*
X48550Y-55055D01*
X38345Y-44945D02*
X48550Y-44945D01*
X38345Y-45025D02*
X48088Y-45025D01*
X48088Y-45025D02*
X48312Y-45025D01*
X48312Y-45025D02*
X48550Y-45025D01*
X38345Y-45105D02*
X47291Y-45105D01*
X47709Y-45105D02*
X47843Y-45105D01*
X48150Y-45105D02*
X48250Y-45105D01*
X38345Y-45185D02*
X47179Y-45185D01*
X48150Y-45185D02*
X48250Y-45185D01*
X38345Y-45265D02*
X47155Y-45265D01*
X48150Y-45265D02*
X48250Y-45265D01*
X38345Y-45345D02*
X39190Y-45345D01*
X39660Y-45345D02*
X39940Y-45345D01*
X40498Y-45345D02*
X40506Y-45345D01*
X44645Y-45345D02*
X47155Y-45345D01*
X48150Y-45345D02*
X48250Y-45345D01*
X38345Y-45425D02*
X39155Y-45425D01*
X39695Y-45425D02*
X39905Y-45425D01*
X44645Y-45425D02*
X47155Y-45425D01*
X48150Y-45425D02*
X48250Y-45425D01*
X38345Y-45505D02*
X39155Y-45505D01*
X39695Y-45505D02*
X39905Y-45505D01*
X44645Y-45505D02*
X47155Y-45505D01*
X48150Y-45505D02*
X48250Y-45505D01*
X38345Y-45585D02*
X39155Y-45585D01*
X39695Y-45585D02*
X39905Y-45585D01*
X44645Y-45585D02*
X47155Y-45585D01*
X48150Y-45585D02*
X48250Y-45585D01*
X38345Y-45665D02*
X39155Y-45665D01*
X39695Y-45665D02*
X39905Y-45665D01*
X44645Y-45665D02*
X47155Y-45665D01*
X48150Y-45665D02*
X48250Y-45665D01*
X38345Y-45745D02*
X39155Y-45745D01*
X39695Y-45745D02*
X39905Y-45745D01*
X45358Y-45745D02*
X47155Y-45745D01*
X48150Y-45745D02*
X48250Y-45745D01*
X38345Y-45825D02*
X39155Y-45825D01*
X39695Y-45825D02*
X39905Y-45825D01*
X45358Y-45825D02*
X47185Y-45825D01*
X48150Y-45825D02*
X48250Y-45825D01*
X38345Y-45905D02*
X39163Y-45905D01*
X39686Y-45905D02*
X39913Y-45905D01*
X40435Y-45905D02*
X40492Y-45905D01*
X45358Y-45905D02*
X47443Y-45905D01*
X48150Y-45905D02*
X48250Y-45905D01*
X48547Y-45905D02*
X48550Y-45905D01*
X38345Y-45985D02*
X39220Y-45985D01*
X40380Y-45985D02*
X40492Y-45985D01*
X45358Y-45985D02*
X47523Y-45985D01*
X48123Y-45985D02*
X48327Y-45985D01*
X48471Y-45985D02*
X48550Y-45985D01*
X38345Y-46065D02*
X39423Y-46065D01*
X40177Y-46065D02*
X40492Y-46065D01*
X45358Y-46065D02*
X47243Y-46065D01*
X48175Y-46065D02*
X48275Y-46065D01*
X38345Y-46145D02*
X39343Y-46145D01*
X40257Y-46145D02*
X40492Y-46145D01*
X45358Y-46145D02*
X47150Y-46145D01*
X48175Y-46145D02*
X48275Y-46145D01*
X38345Y-46225D02*
X39266Y-46225D01*
X40335Y-46225D02*
X40492Y-46225D01*
X45358Y-46225D02*
X47130Y-46225D01*
X48175Y-46225D02*
X48275Y-46225D01*
X38345Y-46305D02*
X39219Y-46305D01*
X40381Y-46305D02*
X40492Y-46305D01*
X45358Y-46305D02*
X47130Y-46305D01*
X48175Y-46305D02*
X48275Y-46305D01*
X38345Y-46385D02*
X39205Y-46385D01*
X40395Y-46385D02*
X40492Y-46385D01*
X45358Y-46385D02*
X47130Y-46385D01*
X48175Y-46385D02*
X48275Y-46385D01*
X38345Y-46465D02*
X39177Y-46465D01*
X40424Y-46465D02*
X40492Y-46465D01*
X45358Y-46465D02*
X47130Y-46465D01*
X48175Y-46465D02*
X48275Y-46465D01*
X38345Y-46545D02*
X39155Y-46545D01*
X40445Y-46545D02*
X40540Y-46545D01*
X43910Y-46545D02*
X44802Y-46545D01*
X45298Y-46545D02*
X47118Y-46545D01*
X48175Y-46545D02*
X48275Y-46545D01*
X38345Y-46625D02*
X38927Y-46625D01*
X40445Y-46625D02*
X40540Y-46625D01*
X43910Y-46625D02*
X44756Y-46625D01*
X45345Y-46625D02*
X47038Y-46625D01*
X48175Y-46625D02*
X48275Y-46625D01*
X38345Y-46705D02*
X38842Y-46705D01*
X39750Y-46705D02*
X39850Y-46705D01*
X40445Y-46705D02*
X40540Y-46705D01*
X43910Y-46705D02*
X44730Y-46705D01*
X45370Y-46705D02*
X46958Y-46705D01*
X48175Y-46705D02*
X48275Y-46705D01*
X38345Y-46785D02*
X38802Y-46785D01*
X39750Y-46785D02*
X39850Y-46785D01*
X40445Y-46785D02*
X40540Y-46785D01*
X43910Y-46785D02*
X44730Y-46785D01*
X45370Y-46785D02*
X46901Y-46785D01*
X48175Y-46785D02*
X48275Y-46785D01*
X38345Y-46865D02*
X38780Y-46865D01*
X39750Y-46865D02*
X39850Y-46865D01*
X40445Y-46865D02*
X40540Y-46865D01*
X43910Y-46865D02*
X44751Y-46865D01*
X45348Y-46865D02*
X46882Y-46865D01*
X48175Y-46865D02*
X48275Y-46865D01*
X38345Y-46945D02*
X38780Y-46945D01*
X39750Y-46945D02*
X39850Y-46945D01*
X40445Y-46945D02*
X40540Y-46945D01*
X43910Y-46945D02*
X44792Y-46945D01*
X45357Y-46945D02*
X46880Y-46945D01*
X48175Y-46945D02*
X48275Y-46945D01*
X38345Y-47025D02*
X38805Y-47025D01*
X39750Y-47025D02*
X39850Y-47025D01*
X40427Y-47025D02*
X44844Y-47025D01*
X45437Y-47025D02*
X46880Y-47025D01*
X48163Y-47025D02*
X48287Y-47025D01*
X38345Y-47105D02*
X38852Y-47105D01*
X39750Y-47105D02*
X39850Y-47105D01*
X40344Y-47105D02*
X43376Y-47105D01*
X43625Y-47105D02*
X44893Y-47105D01*
X45517Y-47105D02*
X46880Y-47105D01*
X48175Y-47105D02*
X48275Y-47105D01*
X38345Y-47185D02*
X38951Y-47185D01*
X39249Y-47185D02*
X39617Y-47185D01*
X39703Y-47185D02*
X39897Y-47185D01*
X39982Y-47185D02*
X43262Y-47185D01*
X43738Y-47185D02*
X44973Y-47185D01*
X45597Y-47185D02*
X46880Y-47185D01*
X48175Y-47185D02*
X48275Y-47185D01*
X38345Y-47265D02*
X43210Y-47265D01*
X43791Y-47265D02*
X45053Y-47265D01*
X45677Y-47265D02*
X46880Y-47265D01*
X48175Y-47265D02*
X48275Y-47265D01*
X38345Y-47345D02*
X42443Y-47345D01*
X43820Y-47345D02*
X45133Y-47345D01*
X45757Y-47345D02*
X46880Y-47345D01*
X48175Y-47345D02*
X48275Y-47345D01*
X38345Y-47425D02*
X40299Y-47425D01*
X41527Y-47425D02*
X42363Y-47425D01*
X43820Y-47425D02*
X45213Y-47425D01*
X45837Y-47425D02*
X46880Y-47425D01*
X48175Y-47425D02*
X48275Y-47425D01*
X38345Y-47505D02*
X40101Y-47505D01*
X41617Y-47505D02*
X42283Y-47505D01*
X43802Y-47505D02*
X45293Y-47505D01*
X45917Y-47505D02*
X46880Y-47505D01*
X48175Y-47505D02*
X48275Y-47505D01*
X38345Y-47585D02*
X39987Y-47585D01*
X41683Y-47585D02*
X42203Y-47585D01*
X43768Y-47585D02*
X45373Y-47585D01*
X45997Y-47585D02*
X46880Y-47585D01*
X48175Y-47585D02*
X48275Y-47585D01*
X38345Y-47665D02*
X38604Y-47665D01*
X39302Y-47665D02*
X39935Y-47665D01*
X41713Y-47665D02*
X42123Y-47665D01*
X43688Y-47665D02*
X45453Y-47665D01*
X46077Y-47665D02*
X46880Y-47665D01*
X48175Y-47665D02*
X48275Y-47665D01*
X38345Y-47745D02*
X38492Y-47745D01*
X39415Y-47745D02*
X39905Y-47745D01*
X41720Y-47745D02*
X41800Y-47745D01*
X42001Y-47745D02*
X42043Y-47745D01*
X42665Y-47745D02*
X44601Y-47745D01*
X44801Y-47745D02*
X45051Y-47745D01*
X45251Y-47745D02*
X45533Y-47745D01*
X46157Y-47745D02*
X46843Y-47745D01*
X48175Y-47745D02*
X48275Y-47745D01*
X38345Y-47825D02*
X38468Y-47825D01*
X39438Y-47825D02*
X39905Y-47825D01*
X42585Y-47825D02*
X44472Y-47825D01*
X45378Y-47825D02*
X45613Y-47825D01*
X46373Y-47825D02*
X46627Y-47825D01*
X48175Y-47825D02*
X48275Y-47825D01*
X38345Y-47905D02*
X38468Y-47905D01*
X39438Y-47905D02*
X39922Y-47905D01*
X42505Y-47905D02*
X44414Y-47905D01*
X45437Y-47905D02*
X45693Y-47905D01*
X46458Y-47905D02*
X46542Y-47905D01*
X48175Y-47905D02*
X48275Y-47905D01*
X38345Y-47985D02*
X38468Y-47985D01*
X39438Y-47985D02*
X39957Y-47985D01*
X40493Y-47985D02*
X40515Y-47985D01*
X42426Y-47985D02*
X44062Y-47985D01*
X45470Y-47985D02*
X45773Y-47985D01*
X46500Y-47985D02*
X46501Y-47985D01*
X48151Y-47985D02*
X48297Y-47985D01*
X38345Y-48065D02*
X38468Y-48065D01*
X39438Y-48065D02*
X40037Y-48065D01*
X40413Y-48065D02*
X40515Y-48065D01*
X42346Y-48065D02*
X43982Y-48065D01*
X45470Y-48065D02*
X45853Y-48065D01*
X48175Y-48065D02*
X48275Y-48065D01*
X38345Y-48145D02*
X38468Y-48145D01*
X39438Y-48145D02*
X40515Y-48145D01*
X42266Y-48145D02*
X42303Y-48145D01*
X42600Y-48145D02*
X42700Y-48145D01*
X42997Y-48145D02*
X43250Y-48145D01*
X43450Y-48145D02*
X43948Y-48145D01*
X45457Y-48145D02*
X45880Y-48145D01*
X48175Y-48145D02*
X48275Y-48145D01*
X38345Y-48225D02*
X38468Y-48225D01*
X39438Y-48225D02*
X40515Y-48225D01*
X42175Y-48225D02*
X42247Y-48225D01*
X42600Y-48225D02*
X42700Y-48225D01*
X43665Y-48225D02*
X43930Y-48225D01*
X45423Y-48225D02*
X45905Y-48225D01*
X46493Y-48225D02*
X46504Y-48225D01*
X48175Y-48225D02*
X48275Y-48225D01*
X42098Y-48305D02*
X42226Y-48305D01*
X42600Y-48305D02*
X42700Y-48305D01*
X43695Y-48305D02*
X43930Y-48305D01*
X45370Y-48305D02*
X45952Y-48305D01*
X46448Y-48305D02*
X46552Y-48305D01*
X48175Y-48305D02*
X48275Y-48305D01*
X41920Y-48385D02*
X42226Y-48385D01*
X42600Y-48385D02*
X42700Y-48385D01*
X43743Y-48385D02*
X43959Y-48385D01*
X45370Y-48385D02*
X46051Y-48385D01*
X46349Y-48385D02*
X46522Y-48385D01*
X48175Y-48385D02*
X48275Y-48385D01*
X41920Y-48465D02*
X42252Y-48465D01*
X42600Y-48465D02*
X42700Y-48465D01*
X43827Y-48465D02*
X44012Y-48465D01*
X45427Y-48465D02*
X46489Y-48465D01*
X48175Y-48465D02*
X48275Y-48465D01*
X41920Y-48545D02*
X42700Y-48545D01*
X43907Y-48545D02*
X44125Y-48545D01*
X45507Y-48545D02*
X46480Y-48545D01*
X48175Y-48545D02*
X48275Y-48545D01*
X41920Y-48625D02*
X42262Y-48625D01*
X42600Y-48625D02*
X42700Y-48625D01*
X43987Y-48625D02*
X44363Y-48625D01*
X45587Y-48625D02*
X46484Y-48625D01*
X48175Y-48625D02*
X48275Y-48625D01*
X41920Y-48705D02*
X42225Y-48705D01*
X42600Y-48705D02*
X42700Y-48705D01*
X44067Y-48705D02*
X44443Y-48705D01*
X45667Y-48705D02*
X45992Y-48705D01*
X46408Y-48705D02*
X46517Y-48705D01*
X48175Y-48705D02*
X48275Y-48705D01*
X41920Y-48785D02*
X42226Y-48785D01*
X42600Y-48785D02*
X42700Y-48785D01*
X44147Y-48785D02*
X44523Y-48785D01*
X45747Y-48785D02*
X45922Y-48785D01*
X46479Y-48785D02*
X46582Y-48785D01*
X48175Y-48785D02*
X48275Y-48785D01*
X41920Y-48865D02*
X42242Y-48865D01*
X42600Y-48865D02*
X42700Y-48865D01*
X44227Y-48865D02*
X44603Y-48865D01*
X45827Y-48865D02*
X45889Y-48865D01*
X48175Y-48865D02*
X48275Y-48865D01*
X41920Y-48945D02*
X42293Y-48945D01*
X42600Y-48945D02*
X42700Y-48945D01*
X43007Y-48945D02*
X43683Y-48945D01*
X44307Y-48945D02*
X44683Y-48945D01*
X48175Y-48945D02*
X48275Y-48945D01*
X41920Y-49025D02*
X43763Y-49025D01*
X44387Y-49025D02*
X44763Y-49025D01*
X48163Y-49025D02*
X48287Y-49025D01*
X42134Y-49105D02*
X43843Y-49105D01*
X44647Y-49105D02*
X44843Y-49105D01*
X48175Y-49105D02*
X48275Y-49105D01*
X42240Y-49185D02*
X43408Y-49185D01*
X44747Y-49185D02*
X44762Y-49185D01*
X48175Y-49185D02*
X48275Y-49185D01*
X42262Y-49265D02*
X42307Y-49265D01*
X42894Y-49265D02*
X43107Y-49265D01*
X48175Y-49265D02*
X48275Y-49265D01*
X42957Y-49345D02*
X43043Y-49345D01*
X48175Y-49345D02*
X48275Y-49345D01*
X42970Y-49425D02*
X43030Y-49425D01*
X48175Y-49425D02*
X48275Y-49425D01*
X42987Y-49505D02*
X43030Y-49505D01*
X48175Y-49505D02*
X48275Y-49505D01*
X48175Y-49585D02*
X48275Y-49585D01*
X48175Y-49665D02*
X48275Y-49665D01*
X45074Y-49745D02*
X45183Y-49745D01*
X48175Y-49745D02*
X48275Y-49745D01*
X44864Y-49825D02*
X45263Y-49825D01*
X48175Y-49825D02*
X48275Y-49825D01*
X44839Y-49905D02*
X45343Y-49905D01*
X48175Y-49905D02*
X48275Y-49905D01*
X44775Y-49985D02*
X45423Y-49985D01*
X48151Y-49985D02*
X48297Y-49985D01*
X44692Y-50065D02*
X45503Y-50065D01*
X48175Y-50065D02*
X48275Y-50065D01*
X44215Y-50145D02*
X45583Y-50145D01*
X48175Y-50145D02*
X48275Y-50145D01*
X44135Y-50225D02*
X45663Y-50225D01*
X48175Y-50225D02*
X48275Y-50225D01*
X42262Y-50305D02*
X42689Y-50305D01*
X44056Y-50305D02*
X45056Y-50305D01*
X45268Y-50305D02*
X45432Y-50305D01*
X45645Y-50305D02*
X45743Y-50305D01*
X48175Y-50305D02*
X48275Y-50305D01*
X42297Y-50385D02*
X42680Y-50385D01*
X43976Y-50385D02*
X44375Y-50385D01*
X44925Y-50385D02*
X44964Y-50385D01*
X45300Y-50385D02*
X45400Y-50385D01*
X45737Y-50385D02*
X45823Y-50385D01*
X48175Y-50385D02*
X48275Y-50385D01*
X42334Y-50465D02*
X42680Y-50465D01*
X43828Y-50465D02*
X44316Y-50465D01*
X45300Y-50465D02*
X45400Y-50465D01*
X45770Y-50465D02*
X45903Y-50465D01*
X48175Y-50465D02*
X48275Y-50465D01*
X42316Y-50545D02*
X42341Y-50545D01*
X42341Y-50545D02*
X42680Y-50545D01*
X43120Y-50545D02*
X44302Y-50545D01*
X45300Y-50545D02*
X45400Y-50545D01*
X45774Y-50545D02*
X45983Y-50545D01*
X48175Y-50545D02*
X48275Y-50545D01*
X41580Y-50625D02*
X42680Y-50625D01*
X43120Y-50625D02*
X44256Y-50625D01*
X45300Y-50625D02*
X45400Y-50625D01*
X45775Y-50625D02*
X46063Y-50625D01*
X48175Y-50625D02*
X48275Y-50625D01*
X41580Y-50705D02*
X41680Y-50705D01*
X42306Y-50705D02*
X42341Y-50705D01*
X42342Y-50705D02*
X42680Y-50705D01*
X43120Y-50705D02*
X44230Y-50705D01*
X45300Y-50705D02*
X46143Y-50705D01*
X48175Y-50705D02*
X48275Y-50705D01*
X41580Y-50785D02*
X41680Y-50785D01*
X42338Y-50785D02*
X42680Y-50785D01*
X43120Y-50785D02*
X44230Y-50785D01*
X45300Y-50785D02*
X46180Y-50785D01*
X48175Y-50785D02*
X48275Y-50785D01*
X41580Y-50865D02*
X41680Y-50865D01*
X42304Y-50865D02*
X42680Y-50865D01*
X43120Y-50865D02*
X44251Y-50865D01*
X45300Y-50865D02*
X45400Y-50865D01*
X45774Y-50865D02*
X46180Y-50865D01*
X48175Y-50865D02*
X48275Y-50865D01*
X41551Y-50945D02*
X41709Y-50945D01*
X42218Y-50945D02*
X42680Y-50945D01*
X43120Y-50945D02*
X44292Y-50945D01*
X45300Y-50945D02*
X45400Y-50945D01*
X45774Y-50945D02*
X46180Y-50945D01*
X48175Y-50945D02*
X48275Y-50945D01*
X41545Y-51025D02*
X42680Y-51025D01*
X43120Y-51025D02*
X44285Y-51025D01*
X45300Y-51025D02*
X45400Y-51025D01*
X45774Y-51025D02*
X46180Y-51025D01*
X48163Y-51025D02*
X48287Y-51025D01*
X41545Y-51105D02*
X42680Y-51105D01*
X43120Y-51105D02*
X44255Y-51105D01*
X45300Y-51105D02*
X45400Y-51105D01*
X45740Y-51105D02*
X46180Y-51105D01*
X48175Y-51105D02*
X48275Y-51105D01*
X41545Y-51185D02*
X42680Y-51185D01*
X43120Y-51185D02*
X44255Y-51185D01*
X45300Y-51185D02*
X45400Y-51185D01*
X45758Y-51185D02*
X46180Y-51185D01*
X48175Y-51185D02*
X48275Y-51185D01*
X41545Y-51265D02*
X42680Y-51265D01*
X43120Y-51265D02*
X43739Y-51265D01*
X45300Y-51265D02*
X45400Y-51265D01*
X45774Y-51265D02*
X46180Y-51265D01*
X48175Y-51265D02*
X48275Y-51265D01*
X41545Y-51345D02*
X42680Y-51345D01*
X43120Y-51345D02*
X43643Y-51345D01*
X45300Y-51345D02*
X45400Y-51345D01*
X45775Y-51345D02*
X46180Y-51345D01*
X48175Y-51345D02*
X48275Y-51345D01*
X41545Y-51425D02*
X42680Y-51425D01*
X43120Y-51425D02*
X43574Y-51425D01*
X45300Y-51425D02*
X45400Y-51425D01*
X45738Y-51425D02*
X46184Y-51425D01*
X48175Y-51425D02*
X48275Y-51425D01*
X41545Y-51505D02*
X42680Y-51505D01*
X43120Y-51505D02*
X43539Y-51505D01*
X45300Y-51505D02*
X46210Y-51505D01*
X48193Y-51505D02*
X48275Y-51505D01*
X41545Y-51585D02*
X42680Y-51585D01*
X43120Y-51585D02*
X43530Y-51585D01*
X45300Y-51585D02*
X45400Y-51585D01*
X45748Y-51585D02*
X46273Y-51585D01*
X48225Y-51585D02*
X48275Y-51585D01*
X41527Y-51665D02*
X42680Y-51665D01*
X43120Y-51665D02*
X43386Y-51665D01*
X45300Y-51665D02*
X45400Y-51665D01*
X45774Y-51665D02*
X46353Y-51665D01*
X48225Y-51665D02*
X48275Y-51665D01*
X38345Y-51745D02*
X38468Y-51745D01*
X39438Y-51745D02*
X40515Y-51745D01*
X41485Y-51745D02*
X42680Y-51745D01*
X43120Y-51745D02*
X43293Y-51745D01*
X45300Y-51745D02*
X45400Y-51745D01*
X45774Y-51745D02*
X46433Y-51745D01*
X48225Y-51745D02*
X48275Y-51745D01*
X38345Y-51825D02*
X38468Y-51825D01*
X39438Y-51825D02*
X40515Y-51825D01*
X41485Y-51825D02*
X42680Y-51825D01*
X43120Y-51825D02*
X43213Y-51825D01*
X45300Y-51825D02*
X45400Y-51825D01*
X45753Y-51825D02*
X46372Y-51825D01*
X48225Y-51825D02*
X48275Y-51825D01*
X38345Y-51905D02*
X38468Y-51905D01*
X39438Y-51905D02*
X40515Y-51905D01*
X41485Y-51905D02*
X42680Y-51905D01*
X45300Y-51905D02*
X45400Y-51905D01*
X45745Y-51905D02*
X46314Y-51905D01*
X48225Y-51905D02*
X48275Y-51905D01*
X38345Y-51985D02*
X38468Y-51985D01*
X39438Y-51985D02*
X40515Y-51985D01*
X41485Y-51985D02*
X42680Y-51985D01*
X45300Y-51985D02*
X45400Y-51985D01*
X45774Y-51985D02*
X46281Y-51985D01*
X48225Y-51985D02*
X48297Y-51985D01*
X38345Y-52065D02*
X38468Y-52065D01*
X39438Y-52065D02*
X40515Y-52065D01*
X41485Y-52065D02*
X42680Y-52065D01*
X45300Y-52065D02*
X45400Y-52065D01*
X45774Y-52065D02*
X46280Y-52065D01*
X48225Y-52065D02*
X48275Y-52065D01*
X38345Y-52145D02*
X38468Y-52145D01*
X39438Y-52145D02*
X40515Y-52145D01*
X41485Y-52145D02*
X42680Y-52145D01*
X45300Y-52145D02*
X45400Y-52145D01*
X45768Y-52145D02*
X46293Y-52145D01*
X48225Y-52145D02*
X48275Y-52145D01*
X38345Y-52225D02*
X38478Y-52225D01*
X39427Y-52225D02*
X40525Y-52225D01*
X41474Y-52225D02*
X42680Y-52225D01*
X44995Y-52225D02*
X46325Y-52225D01*
X48225Y-52225D02*
X48275Y-52225D01*
X38345Y-52305D02*
X38538Y-52305D01*
X39368Y-52305D02*
X40585Y-52305D01*
X41415Y-52305D02*
X42697Y-52305D01*
X45300Y-52305D02*
X45400Y-52305D01*
X45718Y-52305D02*
X46402Y-52305D01*
X48225Y-52305D02*
X48275Y-52305D01*
X38345Y-52385D02*
X42732Y-52385D01*
X45300Y-52385D02*
X45400Y-52385D01*
X45774Y-52385D02*
X46680Y-52385D01*
X48225Y-52385D02*
X48275Y-52385D01*
X38345Y-52465D02*
X42812Y-52465D01*
X45300Y-52465D02*
X45400Y-52465D01*
X45774Y-52465D02*
X46680Y-52465D01*
X48223Y-52465D02*
X48275Y-52465D01*
X38345Y-52545D02*
X42920Y-52545D01*
X45300Y-52545D02*
X45400Y-52545D01*
X45765Y-52545D02*
X46680Y-52545D01*
X48175Y-52545D02*
X48275Y-52545D01*
X38345Y-52625D02*
X42993Y-52625D01*
X45726Y-52625D02*
X46680Y-52625D01*
X48175Y-52625D02*
X48275Y-52625D01*
X38345Y-52705D02*
X42921Y-52705D01*
X44600Y-52705D02*
X44700Y-52705D01*
X45680Y-52705D02*
X46680Y-52705D01*
X48175Y-52705D02*
X48275Y-52705D01*
X38345Y-52785D02*
X42905Y-52785D01*
X44600Y-52785D02*
X44700Y-52785D01*
X45695Y-52785D02*
X46680Y-52785D01*
X48175Y-52785D02*
X48275Y-52785D01*
X38345Y-52865D02*
X42905Y-52865D01*
X44600Y-52865D02*
X44700Y-52865D01*
X45695Y-52865D02*
X46680Y-52865D01*
X48175Y-52865D02*
X48275Y-52865D01*
X38345Y-52945D02*
X42905Y-52945D01*
X44600Y-52945D02*
X44700Y-52945D01*
X45695Y-52945D02*
X46680Y-52945D01*
X48175Y-52945D02*
X48275Y-52945D01*
X38345Y-53025D02*
X42905Y-53025D01*
X43900Y-53025D02*
X45005Y-53025D01*
X45695Y-53025D02*
X46680Y-53025D01*
X48163Y-53025D02*
X48287Y-53025D01*
X38345Y-53105D02*
X42905Y-53105D01*
X43900Y-53105D02*
X44000Y-53105D01*
X44600Y-53105D02*
X44700Y-53105D01*
X45695Y-53105D02*
X46680Y-53105D01*
X48175Y-53105D02*
X48275Y-53105D01*
X38345Y-53185D02*
X38941Y-53185D01*
X39275Y-53185D02*
X42905Y-53185D01*
X43900Y-53185D02*
X44000Y-53185D01*
X44600Y-53185D02*
X44700Y-53185D01*
X45695Y-53185D02*
X46680Y-53185D01*
X48175Y-53185D02*
X48275Y-53185D01*
X38345Y-53265D02*
X38825Y-53265D01*
X39408Y-53265D02*
X40906Y-53265D01*
X41263Y-53265D02*
X42907Y-53265D01*
X43900Y-53265D02*
X44000Y-53265D01*
X44600Y-53265D02*
X44700Y-53265D01*
X45692Y-53265D02*
X46692Y-53265D01*
X48175Y-53265D02*
X48275Y-53265D01*
X38345Y-53345D02*
X38831Y-53345D01*
X39400Y-53345D02*
X40774Y-53345D01*
X41394Y-53345D02*
X42955Y-53345D01*
X43900Y-53345D02*
X44000Y-53345D01*
X44600Y-53345D02*
X44700Y-53345D01*
X45645Y-53345D02*
X46736Y-53345D01*
X48175Y-53345D02*
X48275Y-53345D01*
X38345Y-53425D02*
X38642Y-53425D01*
X38771Y-53425D02*
X38911Y-53425D01*
X39320Y-53425D02*
X39462Y-53425D01*
X39591Y-53425D02*
X40694Y-53425D01*
X41474Y-53425D02*
X42999Y-53425D01*
X43888Y-53425D02*
X44012Y-53425D01*
X44276Y-53425D02*
X44323Y-53425D01*
X44588Y-53425D02*
X44712Y-53425D01*
X45601Y-53425D02*
X46813Y-53425D01*
X48175Y-53425D02*
X48275Y-53425D01*
X38345Y-53505D02*
X38614Y-53505D01*
X38851Y-53505D02*
X38991Y-53505D01*
X39240Y-53505D02*
X39382Y-53505D01*
X39624Y-53505D02*
X40657Y-53505D01*
X41513Y-53505D02*
X42932Y-53505D01*
X43747Y-53505D02*
X44854Y-53505D01*
X45669Y-53505D02*
X46880Y-53505D01*
X48175Y-53505D02*
X48275Y-53505D01*
X38345Y-53585D02*
X38586Y-53585D01*
X38931Y-53585D02*
X39071Y-53585D01*
X39160Y-53585D02*
X39302Y-53585D01*
X39649Y-53585D02*
X40623Y-53585D01*
X41545Y-53585D02*
X42899Y-53585D01*
X43780Y-53585D02*
X44821Y-53585D01*
X45702Y-53585D02*
X46880Y-53585D01*
X48175Y-53585D02*
X48275Y-53585D01*
X38345Y-53665D02*
X38575Y-53665D01*
X39011Y-53665D02*
X39222Y-53665D01*
X39654Y-53665D02*
X40614Y-53665D01*
X41554Y-53665D02*
X42869Y-53665D01*
X43809Y-53665D02*
X44791Y-53665D01*
X45731Y-53665D02*
X46880Y-53665D01*
X48175Y-53665D02*
X48275Y-53665D01*
X38345Y-53745D02*
X38579Y-53745D01*
X39000Y-53745D02*
X39231Y-53745D01*
X39658Y-53745D02*
X40614Y-53745D01*
X41554Y-53745D02*
X42869Y-53745D01*
X43809Y-53745D02*
X44791Y-53745D01*
X45731Y-53745D02*
X46880Y-53745D01*
X48175Y-53745D02*
X48275Y-53745D01*
X38345Y-53825D02*
X38583Y-53825D01*
X38920Y-53825D02*
X39062Y-53825D01*
X39171Y-53825D02*
X39311Y-53825D01*
X39642Y-53825D02*
X40627Y-53825D01*
X41541Y-53825D02*
X42869Y-53825D01*
X43809Y-53825D02*
X44791Y-53825D01*
X45731Y-53825D02*
X46880Y-53825D01*
X48175Y-53825D02*
X48275Y-53825D01*
X38345Y-53905D02*
X38612Y-53905D01*
X38840Y-53905D02*
X38982Y-53905D01*
X39251Y-53905D02*
X39391Y-53905D01*
X39614Y-53905D02*
X40659Y-53905D01*
X41507Y-53905D02*
X42894Y-53905D01*
X43783Y-53905D02*
X44816Y-53905D01*
X45705Y-53905D02*
X46880Y-53905D01*
X48175Y-53905D02*
X48275Y-53905D01*
X38345Y-53985D02*
X38657Y-53985D01*
X38760Y-53985D02*
X38902Y-53985D01*
X39331Y-53985D02*
X39471Y-53985D01*
X39574Y-53985D02*
X40704Y-53985D01*
X41464Y-53985D02*
X42927Y-53985D01*
X43750Y-53985D02*
X44849Y-53985D01*
X45672Y-53985D02*
X46880Y-53985D01*
X48151Y-53985D02*
X48297Y-53985D01*
X38345Y-54065D02*
X38822Y-54065D01*
X39411Y-54065D02*
X40784Y-54065D01*
X41384Y-54065D02*
X42989Y-54065D01*
X43689Y-54065D02*
X44911Y-54065D01*
X45611Y-54065D02*
X46880Y-54065D01*
X48175Y-54065D02*
X48275Y-54065D01*
X38345Y-54145D02*
X38827Y-54145D01*
X39404Y-54145D02*
X40929Y-54145D01*
X41237Y-54145D02*
X43069Y-54145D01*
X43609Y-54145D02*
X44991Y-54145D01*
X45531Y-54145D02*
X46883Y-54145D01*
X48175Y-54145D02*
X48275Y-54145D01*
X38345Y-54225D02*
X38985Y-54225D01*
X39267Y-54225D02*
X46907Y-54225D01*
X48175Y-54225D02*
X48275Y-54225D01*
X38345Y-54305D02*
X46968Y-54305D01*
X48175Y-54305D02*
X48275Y-54305D01*
X38345Y-54385D02*
X47048Y-54385D01*
X48175Y-54385D02*
X48275Y-54385D01*
X38345Y-54465D02*
X47128Y-54465D01*
X47820Y-54465D02*
X48275Y-54465D01*
X38345Y-54545D02*
X47130Y-54545D01*
X47820Y-54545D02*
X48275Y-54545D01*
X38345Y-54625D02*
X47130Y-54625D01*
X48175Y-54625D02*
X48275Y-54625D01*
X38345Y-54705D02*
X47130Y-54705D01*
X48175Y-54705D02*
X48275Y-54705D01*
X38345Y-54785D02*
X47130Y-54785D01*
X48175Y-54785D02*
X48275Y-54785D01*
X38345Y-54865D02*
X47153Y-54865D01*
X47796Y-54865D02*
X47817Y-54865D01*
X48175Y-54865D02*
X48275Y-54865D01*
X38345Y-54945D02*
X47868Y-54945D01*
X48175Y-54945D02*
X48275Y-54945D01*
X38345Y-55025D02*
X48550Y-55025D01*
X42550Y-49740D02*
X42650Y-49740D01*
X42650Y-49759D02*
X42650Y-49740D01*
X42550Y-49740D01*
X42550Y-49759D01*
X42650Y-49759D01*
M02*
