G04 (created by PCBNEW-RS274X (2011-12-28 BZR 3254)-stable) date 17/03/2012 11:59:51*
G01*
G70*
G90*
%MOIN*%
G04 Gerber Fmt 3.4, Leading zero omitted, Abs format*
%FSLAX34Y34*%
G04 APERTURE LIST*
%ADD10C,0.006000*%
%ADD11C,0.080000*%
%ADD12O,0.180000X0.080000*%
%ADD13R,0.080000X0.100000*%
%ADD14R,0.065000X0.055000*%
%ADD15R,0.056000X0.056000*%
%ADD16R,0.075000X0.055000*%
%ADD17R,0.055000X0.065000*%
%ADD18R,0.065000X0.075000*%
%ADD19R,0.130000X0.090000*%
%ADD20R,0.077200X0.031800*%
%ADD21R,0.031800X0.077200*%
%ADD22R,0.065000X0.045000*%
G04 APERTURE END LIST*
G54D10*
G54D11*
X43339Y-53750D03*
X45261Y-53750D03*
X41084Y-53700D03*
X39116Y-53700D03*
G54D12*
X49600Y-45500D03*
X49600Y-46500D03*
X49600Y-47500D03*
X49600Y-48500D03*
X49600Y-49500D03*
X49600Y-50500D03*
X49600Y-51500D03*
X49600Y-52500D03*
X49600Y-53500D03*
X49600Y-54500D03*
G54D13*
X45350Y-45500D03*
X46650Y-45500D03*
G54D14*
X44350Y-46700D03*
X44350Y-47400D03*
X42950Y-47400D03*
X42950Y-46700D03*
X43650Y-47400D03*
X43650Y-46700D03*
G54D15*
X44650Y-46100D03*
X43950Y-46100D03*
X44300Y-45300D03*
G54D16*
X43200Y-46075D03*
X43200Y-45325D03*
G54D17*
X48200Y-50500D03*
X47500Y-50500D03*
X48200Y-54500D03*
X47500Y-54500D03*
G54D14*
X41550Y-47400D03*
X41550Y-46700D03*
X42250Y-47400D03*
X42250Y-46700D03*
G54D18*
X40225Y-47800D03*
X39375Y-47800D03*
G54D17*
X48200Y-52500D03*
X47500Y-52500D03*
X48200Y-51500D03*
X47500Y-51500D03*
X48200Y-49500D03*
X47500Y-49500D03*
X48200Y-48500D03*
X47500Y-48500D03*
X48200Y-47500D03*
X47500Y-47500D03*
X48200Y-46500D03*
X47500Y-46500D03*
X48200Y-53500D03*
X47500Y-53500D03*
X48200Y-45500D03*
X47500Y-45500D03*
G54D19*
X39100Y-46900D03*
X39100Y-45500D03*
X40500Y-45500D03*
X40500Y-46900D03*
G54D14*
X45050Y-46700D03*
X45050Y-47400D03*
G54D16*
X41600Y-46075D03*
X41600Y-45325D03*
X42400Y-46075D03*
X42400Y-45325D03*
G54D14*
X42100Y-51850D03*
X42100Y-52550D03*
G54D20*
X42902Y-49911D03*
X42902Y-50108D03*
X42902Y-50305D03*
X42902Y-50502D03*
X42902Y-50698D03*
X42902Y-50895D03*
X42902Y-49714D03*
X42902Y-49517D03*
G54D21*
X43542Y-48877D03*
X43739Y-48877D03*
X43936Y-48877D03*
G54D20*
X46348Y-50895D03*
X46348Y-51092D03*
X46348Y-51289D03*
X46348Y-51486D03*
X46348Y-51683D03*
G54D21*
X45708Y-52323D03*
G54D20*
X46348Y-50698D03*
X46348Y-50502D03*
X46348Y-50305D03*
X46348Y-50108D03*
X46348Y-49911D03*
G54D21*
X44527Y-52323D03*
X45117Y-48877D03*
X44723Y-52323D03*
X45314Y-48877D03*
X45511Y-48877D03*
X44920Y-52323D03*
X45117Y-52323D03*
X45708Y-48877D03*
G54D20*
X46348Y-49517D03*
G54D21*
X45314Y-52323D03*
X45511Y-52323D03*
G54D20*
X46348Y-49714D03*
G54D21*
X44920Y-48877D03*
X44330Y-52323D03*
X44133Y-52323D03*
X44723Y-48877D03*
X44527Y-48877D03*
X43936Y-52323D03*
X43739Y-52323D03*
X44330Y-48877D03*
X44133Y-48877D03*
X43542Y-52323D03*
G54D20*
X42902Y-51092D03*
X42902Y-51289D03*
X42902Y-51486D03*
X42902Y-51683D03*
G54D14*
X46100Y-47400D03*
X46100Y-46700D03*
X46800Y-46700D03*
X46800Y-47400D03*
G54D22*
X46550Y-53750D03*
X42050Y-53750D03*
M02*
