G04 (created by PCBNEW (2013-04-19 BZR 4011)-stable) date 01/07/2013 10:58:15*
%MOIN*%
G04 Gerber Fmt 3.4, Leading zero omitted, Abs format*
%FSLAX34Y34*%
G01*
G70*
G90*
G04 APERTURE LIST*
%ADD10C,2.3622e-006*%
%ADD11C,0.06*%
%ADD12R,0.06X0.06*%
%ADD13R,0.055X0.055*%
%ADD14C,0.055*%
%ADD15C,0.025*%
%ADD16C,0.008*%
%ADD17C,0.02*%
%ADD18C,0.01*%
G04 APERTURE END LIST*
G54D10*
G54D11*
X102500Y-45450D03*
X101500Y-46450D03*
G54D12*
X101500Y-45450D03*
G54D11*
X102500Y-46450D03*
X101500Y-47450D03*
X102500Y-47450D03*
X101500Y-48450D03*
X102500Y-48450D03*
X101500Y-49450D03*
X102500Y-49450D03*
X101500Y-50450D03*
X102500Y-50450D03*
X101500Y-51450D03*
X102500Y-51450D03*
X101500Y-52450D03*
X102500Y-52450D03*
X101500Y-53450D03*
X102500Y-53450D03*
X101500Y-54450D03*
X102500Y-54450D03*
X100257Y-56100D03*
X102343Y-56100D03*
G54D13*
X74900Y-55000D03*
G54D14*
X75900Y-55000D03*
G54D13*
X74900Y-52700D03*
G54D14*
X75900Y-52700D03*
G54D13*
X78400Y-57700D03*
G54D14*
X77400Y-57700D03*
G54D12*
X77350Y-42500D03*
G54D11*
X77350Y-41500D03*
X78350Y-42500D03*
X78350Y-41500D03*
X79350Y-42500D03*
X79350Y-41500D03*
X80350Y-42500D03*
X80350Y-41500D03*
X81350Y-42500D03*
X81350Y-41500D03*
X82350Y-42500D03*
X82350Y-41500D03*
X83350Y-42500D03*
X83350Y-41500D03*
X84350Y-42500D03*
X84350Y-41500D03*
X85350Y-42500D03*
X85350Y-41500D03*
X86350Y-42500D03*
X86350Y-41500D03*
X87350Y-42500D03*
X87350Y-41500D03*
X88350Y-42500D03*
X88350Y-41500D03*
X89350Y-42500D03*
X89350Y-41500D03*
X90350Y-42500D03*
X90350Y-41500D03*
X91350Y-42500D03*
X91350Y-41500D03*
X92350Y-42500D03*
X92350Y-41500D03*
X93350Y-42500D03*
X93350Y-41500D03*
X94350Y-42500D03*
X94350Y-41500D03*
X95350Y-42500D03*
X95350Y-41500D03*
X96350Y-42500D03*
X96350Y-41500D03*
X97350Y-42500D03*
X97350Y-41500D03*
X98350Y-42500D03*
X98350Y-41500D03*
X99350Y-42500D03*
X99350Y-41500D03*
X100350Y-42500D03*
X100350Y-41500D03*
X101350Y-42500D03*
X101350Y-41500D03*
X102350Y-42500D03*
X102350Y-41500D03*
X100257Y-57800D03*
X102343Y-57800D03*
G54D12*
X77600Y-47700D03*
G54D11*
X77600Y-46700D03*
X77600Y-45700D03*
X77600Y-44700D03*
X77600Y-43700D03*
G54D15*
X75050Y-47650D03*
X85300Y-57600D03*
X80700Y-57300D03*
X81050Y-57300D03*
X98250Y-57350D03*
X99400Y-54950D03*
X95850Y-50550D03*
X88950Y-50550D03*
X99100Y-53950D03*
X96150Y-50700D03*
X88600Y-50550D03*
X97000Y-49850D03*
X78350Y-44500D03*
X79200Y-50350D03*
X79500Y-50550D03*
X78700Y-44500D03*
X83150Y-55400D03*
X82550Y-44500D03*
X83500Y-55400D03*
X82900Y-44500D03*
X83300Y-44500D03*
X91550Y-47600D03*
X91800Y-47150D03*
X83650Y-44500D03*
X91700Y-46800D03*
X84000Y-44500D03*
X91300Y-47350D03*
X91600Y-46450D03*
X84350Y-44500D03*
X91050Y-47100D03*
X88950Y-43550D03*
X84950Y-44000D03*
X92800Y-48050D03*
X85650Y-44500D03*
X89050Y-48150D03*
X89050Y-47800D03*
X92550Y-47800D03*
X86000Y-44500D03*
X88750Y-46750D03*
X78150Y-48850D03*
X86350Y-44500D03*
X79800Y-50750D03*
X79050Y-44500D03*
X79250Y-48800D03*
X87300Y-44500D03*
X87650Y-44500D03*
X79300Y-49150D03*
X88000Y-44500D03*
X79300Y-49500D03*
X88700Y-43800D03*
X79000Y-48350D03*
X89300Y-44500D03*
X82700Y-47300D03*
X82500Y-48250D03*
X89650Y-44500D03*
X79400Y-44500D03*
X79800Y-51100D03*
X80400Y-44500D03*
X79500Y-51300D03*
X80750Y-44500D03*
X79200Y-51500D03*
X81100Y-44500D03*
X82100Y-55750D03*
X81450Y-44500D03*
X82450Y-55750D03*
X82450Y-55400D03*
X81850Y-44500D03*
X82200Y-44500D03*
X82800Y-55400D03*
X84900Y-47300D03*
X98350Y-44500D03*
X96750Y-49150D03*
X90000Y-44500D03*
X92300Y-46750D03*
X86000Y-54350D03*
X92300Y-46400D03*
X90350Y-44500D03*
X96500Y-48900D03*
X85750Y-54100D03*
X98250Y-48050D03*
X95300Y-44500D03*
X94550Y-47750D03*
X98250Y-47700D03*
X94300Y-47500D03*
X95650Y-44500D03*
X88300Y-56300D03*
X85300Y-55900D03*
X98250Y-47000D03*
X85600Y-55750D03*
X96000Y-44500D03*
X87850Y-55950D03*
X94050Y-47250D03*
X93800Y-47000D03*
X98250Y-46650D03*
X96350Y-44500D03*
X98250Y-46300D03*
X93550Y-46750D03*
X97300Y-44500D03*
X93300Y-46500D03*
X98400Y-46000D03*
X97650Y-44500D03*
X92050Y-45850D03*
X96750Y-48550D03*
X91300Y-44500D03*
X87100Y-47750D03*
X96500Y-48300D03*
X91650Y-44500D03*
X85250Y-47300D03*
X95700Y-47250D03*
X92000Y-44500D03*
X83850Y-55500D03*
X96050Y-47200D03*
X92350Y-44500D03*
X84050Y-55800D03*
X83900Y-57000D03*
X96300Y-46950D03*
X93300Y-44500D03*
X96550Y-46700D03*
X93650Y-44500D03*
X84950Y-55900D03*
X94000Y-44500D03*
X98250Y-48750D03*
X95050Y-48250D03*
X94350Y-44500D03*
X98250Y-48400D03*
X94800Y-48000D03*
X101200Y-44600D03*
X84200Y-48750D03*
X96500Y-49800D03*
X83950Y-49000D03*
X88850Y-47250D03*
X84200Y-49250D03*
X82350Y-57250D03*
X82900Y-48250D03*
X90350Y-48050D03*
X80650Y-48950D03*
X98750Y-44550D03*
X96550Y-49450D03*
X98500Y-44800D03*
X84750Y-48300D03*
X90350Y-47700D03*
X80650Y-49300D03*
X99250Y-44350D03*
X83950Y-48500D03*
X98400Y-45150D03*
X89050Y-46950D03*
X98000Y-44500D03*
X84500Y-47300D03*
X90800Y-46850D03*
X101900Y-44600D03*
X80000Y-57400D03*
X99500Y-43000D03*
X79700Y-57000D03*
X102000Y-46950D03*
X88500Y-55600D03*
X99100Y-49950D03*
X83350Y-51100D03*
X82550Y-51700D03*
X83700Y-49500D03*
X82550Y-51350D03*
X88650Y-55300D03*
X99400Y-46950D03*
X86800Y-50750D03*
X88250Y-55300D03*
X99100Y-51950D03*
X84750Y-54900D03*
X87900Y-50550D03*
X99050Y-46950D03*
X86750Y-47700D03*
X82950Y-49800D03*
X99100Y-47950D03*
X99100Y-52950D03*
X87850Y-55600D03*
X83700Y-51100D03*
X82550Y-52050D03*
X87900Y-51100D03*
X96400Y-51400D03*
X88200Y-50900D03*
X96700Y-51250D03*
X80350Y-57400D03*
X87450Y-48350D03*
X85550Y-50300D03*
X81400Y-57300D03*
X99950Y-50000D03*
X96550Y-50650D03*
X83300Y-49850D03*
X88250Y-50550D03*
X99100Y-50950D03*
X96850Y-50950D03*
X82850Y-54550D03*
X99100Y-48950D03*
X78000Y-51200D03*
X83900Y-51750D03*
X84150Y-51500D03*
X78000Y-50800D03*
X78100Y-49800D03*
X95400Y-51900D03*
X76950Y-53450D03*
X76450Y-54750D03*
X83500Y-57150D03*
X81775Y-55850D03*
X84250Y-48250D03*
X94700Y-58600D03*
X79850Y-55900D03*
X86300Y-51600D03*
X79100Y-55900D03*
X98700Y-47950D03*
X77600Y-51200D03*
X88250Y-53500D03*
X84500Y-50600D03*
X78000Y-54500D03*
X87500Y-56000D03*
X94250Y-57150D03*
X92800Y-57150D03*
X91350Y-57150D03*
X95650Y-57150D03*
X82700Y-57250D03*
X75900Y-49950D03*
X78100Y-53800D03*
X75900Y-50300D03*
X76500Y-55250D03*
X94950Y-57150D03*
X87150Y-57425D03*
X93175Y-57150D03*
X92425Y-57150D03*
X92050Y-57150D03*
X96350Y-57150D03*
X97100Y-57150D03*
X90850Y-58600D03*
X96725Y-57150D03*
X93550Y-57150D03*
X90500Y-47000D03*
X98250Y-47350D03*
X93450Y-54600D03*
X97250Y-52200D03*
X86700Y-54200D03*
X88000Y-51750D03*
X98800Y-45950D03*
X86750Y-56550D03*
X89050Y-57350D03*
X82950Y-56950D03*
X80350Y-51500D03*
X76800Y-44450D03*
X84850Y-50750D03*
X78000Y-54900D03*
X84100Y-47300D03*
X84150Y-54250D03*
X86300Y-51250D03*
X80650Y-50850D03*
X84500Y-57200D03*
X84800Y-50250D03*
X82100Y-48250D03*
X82000Y-51850D03*
G54D16*
X85212Y-57688D02*
X85300Y-57600D01*
X82138Y-57688D02*
X85212Y-57688D01*
X81500Y-57050D02*
X82138Y-57688D01*
X80950Y-57050D02*
X80700Y-57300D01*
X80950Y-57050D02*
X81500Y-57050D01*
X81762Y-58012D02*
X97588Y-58012D01*
X81050Y-57300D02*
X81762Y-58012D01*
X97588Y-58012D02*
X98250Y-57350D01*
X88950Y-50550D02*
X95850Y-50550D01*
X88600Y-50550D02*
X88850Y-50800D01*
X96050Y-50800D02*
X96150Y-50700D01*
X88850Y-50800D02*
X96050Y-50800D01*
X88600Y-50550D02*
X88650Y-50600D01*
X88974Y-43926D02*
X88650Y-44250D01*
X94276Y-43926D02*
X88974Y-43926D01*
X97000Y-46650D02*
X94276Y-43926D01*
X78600Y-44250D02*
X78350Y-44500D01*
X97000Y-49850D02*
X97000Y-46650D01*
X88650Y-44250D02*
X78600Y-44250D01*
X82785Y-55135D02*
X81548Y-53898D01*
X82885Y-55135D02*
X82785Y-55135D01*
X83150Y-55400D02*
X82885Y-55135D01*
X81548Y-53898D02*
X81548Y-45502D01*
X82550Y-44500D02*
X81548Y-45502D01*
X83073Y-54973D02*
X82873Y-54973D01*
X82900Y-44500D02*
X81710Y-45690D01*
X82873Y-54973D02*
X81710Y-53810D01*
X83500Y-55400D02*
X83073Y-54973D01*
X81710Y-53810D02*
X81710Y-45690D01*
X81100Y-44500D02*
X80900Y-44700D01*
X80900Y-54550D02*
X80900Y-44700D01*
X82100Y-55750D02*
X80900Y-54550D01*
X81065Y-44884D02*
X81450Y-44500D01*
X81065Y-54365D02*
X81065Y-44884D01*
X82450Y-55750D02*
X81065Y-54365D01*
X81850Y-44500D02*
X81225Y-45124D01*
X81225Y-54175D02*
X82450Y-55400D01*
X81225Y-45124D02*
X81225Y-54175D01*
X81386Y-53986D02*
X82800Y-55400D01*
X82200Y-44500D02*
X81386Y-45314D01*
X81386Y-45314D02*
X81386Y-53986D01*
X92300Y-46750D02*
X92250Y-46750D01*
X92250Y-46750D02*
X90000Y-44500D01*
X92300Y-46750D02*
X92800Y-46250D01*
X93450Y-46250D02*
X92800Y-46250D01*
X96750Y-49150D02*
X96350Y-49150D01*
X96350Y-49150D02*
X93450Y-46250D01*
X92300Y-46400D02*
X92650Y-46050D01*
X92650Y-46050D02*
X93500Y-46050D01*
X92300Y-46400D02*
X92250Y-46400D01*
X92250Y-46400D02*
X90350Y-44500D01*
X96350Y-48900D02*
X93500Y-46050D01*
X96500Y-48900D02*
X96350Y-48900D01*
X88300Y-56300D02*
X85700Y-56300D01*
X85700Y-56300D02*
X85300Y-55900D01*
X87850Y-55950D02*
X87850Y-55950D01*
X92050Y-45850D02*
X91300Y-45100D01*
X91300Y-45100D02*
X91300Y-44500D01*
X96750Y-48550D02*
X96250Y-48550D01*
X96250Y-48550D02*
X92774Y-45074D01*
X91874Y-45074D02*
X92774Y-45074D01*
X91874Y-45074D02*
X91300Y-44500D01*
X96250Y-48300D02*
X92862Y-44912D01*
X92062Y-44912D02*
X92862Y-44912D01*
X92062Y-44912D02*
X91650Y-44500D01*
X96500Y-48300D02*
X96250Y-48300D01*
X92250Y-44750D02*
X92000Y-44500D01*
X92250Y-44750D02*
X92950Y-44750D01*
X92950Y-44750D02*
X95450Y-47250D01*
X95700Y-47250D02*
X95450Y-47250D01*
X92950Y-44500D02*
X92350Y-44500D01*
X92950Y-44500D02*
X95450Y-47000D01*
X95850Y-47000D02*
X95450Y-47000D01*
X95850Y-47000D02*
X96050Y-47200D01*
X95550Y-46750D02*
X93300Y-44500D01*
X95550Y-46750D02*
X96100Y-46750D01*
X96100Y-46750D02*
X96300Y-46950D01*
X95650Y-46500D02*
X93650Y-44500D01*
X95650Y-46500D02*
X96350Y-46500D01*
X96350Y-46500D02*
X96550Y-46700D01*
X83950Y-49000D02*
X85350Y-49000D01*
X96300Y-49600D02*
X96500Y-49800D01*
X85950Y-49600D02*
X96300Y-49600D01*
X85350Y-49000D02*
X85950Y-49600D01*
X96500Y-49400D02*
X96550Y-49450D01*
X86000Y-49400D02*
X96500Y-49400D01*
X96500Y-49450D02*
X96550Y-49450D01*
X84750Y-48300D02*
X84900Y-48300D01*
X84900Y-48300D02*
X86000Y-49400D01*
X89050Y-46950D02*
X89000Y-47000D01*
X89000Y-47000D02*
X84800Y-47000D01*
X84800Y-47000D02*
X84500Y-47300D01*
X80936Y-58336D02*
X97914Y-58336D01*
X100255Y-57798D02*
X100257Y-57800D01*
X100257Y-57800D02*
X98450Y-57800D01*
X98450Y-57800D02*
X97914Y-58336D01*
X80000Y-57400D02*
X80936Y-58336D01*
X79812Y-56888D02*
X81588Y-56888D01*
X82226Y-57526D02*
X85024Y-57526D01*
X85738Y-57688D02*
X97312Y-57688D01*
X85200Y-57350D02*
X85400Y-57350D01*
X81588Y-56888D02*
X82226Y-57526D01*
X85400Y-57350D02*
X85738Y-57688D01*
X99700Y-43200D02*
X99500Y-43000D01*
X97312Y-57688D02*
X98062Y-56938D01*
X98562Y-56938D02*
X98062Y-56938D01*
X98562Y-56938D02*
X99700Y-55800D01*
X99700Y-55800D02*
X99700Y-43200D01*
X85024Y-57526D02*
X85200Y-57350D01*
X79700Y-57000D02*
X79812Y-56888D01*
X82750Y-51700D02*
X83350Y-51100D01*
X82550Y-51700D02*
X82750Y-51700D01*
X83638Y-49438D02*
X82962Y-49438D01*
X82550Y-51350D02*
X82550Y-49850D01*
X83700Y-49500D02*
X83638Y-49438D01*
X82550Y-49850D02*
X82962Y-49438D01*
X87450Y-55300D02*
X88250Y-55300D01*
X86800Y-53750D02*
X86450Y-54100D01*
X86450Y-54300D02*
X87450Y-55300D01*
X86450Y-54100D02*
X86450Y-54300D01*
X86800Y-50750D02*
X86800Y-53750D01*
X86550Y-50650D02*
X86550Y-53750D01*
X86288Y-54012D02*
X86288Y-54662D01*
X86550Y-53750D02*
X86288Y-54012D01*
X86288Y-54662D02*
X86050Y-54900D01*
X87900Y-50550D02*
X87850Y-50500D01*
X86050Y-54900D02*
X84750Y-54900D01*
X87850Y-50500D02*
X86700Y-50500D01*
X86700Y-50500D02*
X86550Y-50650D01*
X85988Y-50138D02*
X97212Y-50138D01*
X97212Y-50138D02*
X99100Y-48250D01*
X99100Y-48250D02*
X99100Y-47950D01*
X82950Y-49800D02*
X83150Y-49600D01*
X83400Y-49600D02*
X83638Y-49838D01*
X83400Y-49600D02*
X83150Y-49600D01*
X85688Y-49838D02*
X85988Y-50138D01*
X83638Y-49838D02*
X85688Y-49838D01*
X99100Y-47950D02*
X99100Y-48250D01*
X82550Y-52050D02*
X82750Y-52050D01*
X82750Y-52050D02*
X83700Y-51100D01*
X88150Y-51350D02*
X87900Y-51100D01*
X96350Y-51350D02*
X96400Y-51400D01*
X88150Y-51350D02*
X96350Y-51350D01*
X88450Y-51150D02*
X96600Y-51150D01*
X96600Y-51150D02*
X96700Y-51250D01*
X88200Y-50900D02*
X88450Y-51150D01*
X80350Y-57400D02*
X81124Y-58174D01*
X99900Y-56100D02*
X97826Y-58174D01*
X100257Y-56100D02*
X99900Y-56100D01*
X97826Y-58174D02*
X81124Y-58174D01*
X98650Y-57100D02*
X98150Y-57100D01*
X99950Y-55800D02*
X98650Y-57100D01*
X97400Y-57850D02*
X98150Y-57100D01*
X99950Y-50000D02*
X99950Y-55800D01*
X81400Y-57300D02*
X81950Y-57850D01*
X81950Y-57850D02*
X97400Y-57850D01*
X83450Y-50000D02*
X85600Y-50000D01*
X96150Y-50300D02*
X96550Y-50650D01*
X83300Y-49850D02*
X83450Y-50000D01*
X85900Y-50300D02*
X85600Y-50000D01*
X96150Y-50300D02*
X85900Y-50300D01*
X88250Y-50550D02*
X88662Y-50962D01*
X96838Y-50962D02*
X96850Y-50950D01*
X88662Y-50962D02*
X96838Y-50962D01*
X90500Y-47000D02*
X89600Y-47900D01*
X89600Y-47900D02*
X89600Y-48739D01*
X98250Y-47350D02*
X99000Y-47350D01*
X98650Y-50800D02*
X97250Y-52200D01*
X98650Y-48950D02*
X98650Y-50800D01*
X99350Y-48250D02*
X98650Y-48950D01*
X99350Y-47700D02*
X99350Y-48250D01*
X99000Y-47350D02*
X99350Y-47700D01*
X98650Y-46950D02*
X98650Y-46100D01*
X98800Y-45950D02*
X98650Y-46100D01*
X98650Y-46950D02*
X98250Y-47350D01*
G54D17*
X94850Y-54600D02*
X97250Y-52200D01*
X93450Y-54600D02*
X94850Y-54600D01*
G54D16*
X93450Y-54600D02*
X90850Y-54600D01*
X90850Y-54600D02*
X88000Y-51750D01*
X88000Y-51750D02*
X88000Y-52900D01*
X88000Y-52900D02*
X86700Y-54200D01*
X89600Y-48739D02*
X89289Y-49050D01*
X86350Y-49050D02*
X85150Y-47850D01*
X89289Y-49050D02*
X86350Y-49050D01*
X84650Y-47850D02*
X84100Y-47300D01*
X85150Y-47850D02*
X84650Y-47850D01*
X86750Y-56550D02*
X87550Y-57350D01*
X87550Y-57350D02*
X89050Y-57350D01*
X85150Y-56550D02*
X86750Y-56550D01*
X79550Y-56550D02*
X82550Y-56550D01*
X82550Y-56550D02*
X82950Y-56950D01*
X83350Y-56550D02*
X82950Y-56950D01*
X83850Y-56550D02*
X83350Y-56550D01*
X84500Y-57200D02*
X83850Y-56550D01*
X74900Y-52700D02*
X74900Y-55000D01*
X79750Y-49250D02*
X79750Y-48300D01*
X84850Y-50750D02*
X84850Y-50300D01*
X84500Y-57200D02*
X85150Y-56550D01*
X76800Y-56100D02*
X78400Y-57700D01*
X80350Y-51500D02*
X80350Y-51150D01*
X79550Y-56550D02*
X78400Y-57700D01*
X76000Y-56100D02*
X76800Y-56100D01*
X79150Y-47700D02*
X77600Y-47700D01*
X78000Y-54900D02*
X78400Y-55300D01*
G54D17*
X76800Y-44450D02*
X76800Y-46900D01*
G54D16*
X84850Y-50750D02*
X85350Y-51250D01*
X79750Y-48300D02*
X79150Y-47700D01*
X78400Y-55300D02*
X78400Y-57700D01*
G54D17*
X76800Y-46900D02*
X77600Y-47700D01*
G54D16*
X74900Y-55000D02*
X76000Y-56100D01*
X82000Y-51850D02*
X82000Y-52100D01*
X82000Y-52100D02*
X84150Y-54250D01*
X84850Y-50300D02*
X84800Y-50250D01*
X81900Y-48450D02*
X82100Y-48250D01*
X85350Y-51250D02*
X86300Y-51250D01*
X80650Y-50850D02*
X80650Y-50150D01*
X80650Y-50150D02*
X79750Y-49250D01*
X83050Y-47300D02*
X84100Y-47300D01*
X82100Y-48250D02*
X83050Y-47300D01*
X82000Y-51850D02*
X81900Y-51750D01*
X80350Y-51150D02*
X80650Y-50850D01*
X81900Y-51750D02*
X81900Y-48450D01*
G54D10*
G36*
X105455Y-58705D02*
X104691Y-58705D01*
X104691Y-57437D01*
X104691Y-57400D01*
X104691Y-57362D01*
X104691Y-42637D01*
X104691Y-42600D01*
X104691Y-42562D01*
X104691Y-42561D01*
X104691Y-42561D01*
X104691Y-42561D01*
X104653Y-42370D01*
X104624Y-42300D01*
X104623Y-42299D01*
X104516Y-42138D01*
X104515Y-42137D01*
X104461Y-42084D01*
X104300Y-41976D01*
X104299Y-41975D01*
X104229Y-41946D01*
X104037Y-41908D01*
X103961Y-41908D01*
X103960Y-41909D01*
X103770Y-41946D01*
X103700Y-41975D01*
X103699Y-41976D01*
X103538Y-42083D01*
X103537Y-42084D01*
X103484Y-42138D01*
X103376Y-42299D01*
X103375Y-42300D01*
X103346Y-42370D01*
X103308Y-42562D01*
X103308Y-42600D01*
X103308Y-42637D01*
X103308Y-42638D01*
X103346Y-42829D01*
X103375Y-42899D01*
X103376Y-42900D01*
X103484Y-43061D01*
X103537Y-43115D01*
X103538Y-43116D01*
X103699Y-43223D01*
X103700Y-43224D01*
X103770Y-43253D01*
X103960Y-43290D01*
X103961Y-43291D01*
X104037Y-43291D01*
X104229Y-43253D01*
X104299Y-43224D01*
X104300Y-43223D01*
X104461Y-43115D01*
X104515Y-43062D01*
X104516Y-43061D01*
X104623Y-42900D01*
X104624Y-42899D01*
X104653Y-42829D01*
X104691Y-42638D01*
X104691Y-42638D01*
X104691Y-42638D01*
X104691Y-42637D01*
X104691Y-57362D01*
X104691Y-57361D01*
X104691Y-57361D01*
X104691Y-57361D01*
X104653Y-57170D01*
X104624Y-57100D01*
X104623Y-57099D01*
X104516Y-56938D01*
X104515Y-56937D01*
X104461Y-56884D01*
X104300Y-56776D01*
X104299Y-56775D01*
X104229Y-56746D01*
X104037Y-56708D01*
X103961Y-56708D01*
X103960Y-56709D01*
X103770Y-56746D01*
X103700Y-56775D01*
X103699Y-56776D01*
X103538Y-56883D01*
X103537Y-56884D01*
X103484Y-56938D01*
X103376Y-57099D01*
X103375Y-57100D01*
X103346Y-57170D01*
X103308Y-57362D01*
X103308Y-57400D01*
X103308Y-57437D01*
X103308Y-57438D01*
X103346Y-57629D01*
X103375Y-57699D01*
X103376Y-57700D01*
X103484Y-57861D01*
X103537Y-57915D01*
X103538Y-57916D01*
X103699Y-58023D01*
X103700Y-58024D01*
X103770Y-58053D01*
X103960Y-58090D01*
X103961Y-58091D01*
X104037Y-58091D01*
X104229Y-58053D01*
X104299Y-58024D01*
X104300Y-58023D01*
X104461Y-57915D01*
X104515Y-57862D01*
X104516Y-57861D01*
X104623Y-57700D01*
X104624Y-57699D01*
X104653Y-57629D01*
X104691Y-57438D01*
X104691Y-57438D01*
X104691Y-57438D01*
X104691Y-57437D01*
X104691Y-58705D01*
X102970Y-58705D01*
X102970Y-54356D01*
X102970Y-53356D01*
X102970Y-52356D01*
X102970Y-51356D01*
X102970Y-50356D01*
X102970Y-49356D01*
X102970Y-48356D01*
X102970Y-47356D01*
X102898Y-47184D01*
X102766Y-47051D01*
X102593Y-46980D01*
X102406Y-46979D01*
X102286Y-47029D01*
X102294Y-47008D01*
X102295Y-46891D01*
X102286Y-46870D01*
X102406Y-46919D01*
X102593Y-46920D01*
X102765Y-46848D01*
X102898Y-46716D01*
X102969Y-46543D01*
X102970Y-46356D01*
X102970Y-45356D01*
X102898Y-45184D01*
X102820Y-45105D01*
X102820Y-42406D01*
X102748Y-42234D01*
X102616Y-42101D01*
X102443Y-42030D01*
X102256Y-42029D01*
X102084Y-42101D01*
X101951Y-42233D01*
X101880Y-42406D01*
X101879Y-42593D01*
X101951Y-42765D01*
X102083Y-42898D01*
X102256Y-42969D01*
X102443Y-42970D01*
X102615Y-42898D01*
X102748Y-42766D01*
X102819Y-42593D01*
X102820Y-42406D01*
X102820Y-45105D01*
X102766Y-45051D01*
X102593Y-44980D01*
X102406Y-44979D01*
X102234Y-45051D01*
X102195Y-45090D01*
X102195Y-44541D01*
X102150Y-44433D01*
X102067Y-44350D01*
X101958Y-44305D01*
X101841Y-44304D01*
X101820Y-44313D01*
X101820Y-42406D01*
X101748Y-42234D01*
X101616Y-42101D01*
X101443Y-42030D01*
X101256Y-42029D01*
X101084Y-42101D01*
X100951Y-42233D01*
X100880Y-42406D01*
X100879Y-42593D01*
X100951Y-42765D01*
X101083Y-42898D01*
X101256Y-42969D01*
X101443Y-42970D01*
X101615Y-42898D01*
X101748Y-42766D01*
X101819Y-42593D01*
X101820Y-42406D01*
X101820Y-44313D01*
X101733Y-44349D01*
X101650Y-44432D01*
X101605Y-44541D01*
X101604Y-44658D01*
X101649Y-44766D01*
X101732Y-44849D01*
X101841Y-44894D01*
X101958Y-44895D01*
X102066Y-44850D01*
X102149Y-44767D01*
X102194Y-44658D01*
X102195Y-44541D01*
X102195Y-45090D01*
X102101Y-45183D01*
X102030Y-45356D01*
X102029Y-45543D01*
X102101Y-45715D01*
X102233Y-45848D01*
X102406Y-45919D01*
X102593Y-45920D01*
X102765Y-45848D01*
X102898Y-45716D01*
X102969Y-45543D01*
X102970Y-45356D01*
X102970Y-46356D01*
X102898Y-46184D01*
X102766Y-46051D01*
X102593Y-45980D01*
X102406Y-45979D01*
X102234Y-46051D01*
X102101Y-46183D01*
X102030Y-46356D01*
X102029Y-46543D01*
X102079Y-46663D01*
X102058Y-46655D01*
X101941Y-46654D01*
X101920Y-46663D01*
X101969Y-46543D01*
X101970Y-46356D01*
X101970Y-46356D01*
X101970Y-45716D01*
X101970Y-45116D01*
X101944Y-45053D01*
X101896Y-45005D01*
X101833Y-44980D01*
X101766Y-44979D01*
X101495Y-44979D01*
X101495Y-44541D01*
X101450Y-44433D01*
X101367Y-44350D01*
X101258Y-44305D01*
X101141Y-44304D01*
X101033Y-44349D01*
X100950Y-44432D01*
X100905Y-44541D01*
X100904Y-44658D01*
X100949Y-44766D01*
X101032Y-44849D01*
X101141Y-44894D01*
X101258Y-44895D01*
X101366Y-44850D01*
X101449Y-44767D01*
X101494Y-44658D01*
X101495Y-44541D01*
X101495Y-44979D01*
X101166Y-44979D01*
X101103Y-45005D01*
X101055Y-45053D01*
X101030Y-45116D01*
X101029Y-45183D01*
X101029Y-45783D01*
X101055Y-45846D01*
X101103Y-45894D01*
X101166Y-45919D01*
X101233Y-45920D01*
X101833Y-45920D01*
X101896Y-45894D01*
X101944Y-45846D01*
X101969Y-45783D01*
X101970Y-45716D01*
X101970Y-46356D01*
X101898Y-46184D01*
X101766Y-46051D01*
X101593Y-45980D01*
X101406Y-45979D01*
X101234Y-46051D01*
X101101Y-46183D01*
X101030Y-46356D01*
X101029Y-46543D01*
X101101Y-46715D01*
X101233Y-46848D01*
X101406Y-46919D01*
X101593Y-46920D01*
X101713Y-46870D01*
X101705Y-46891D01*
X101704Y-47008D01*
X101713Y-47029D01*
X101593Y-46980D01*
X101406Y-46979D01*
X101234Y-47051D01*
X101101Y-47183D01*
X101030Y-47356D01*
X101029Y-47543D01*
X101101Y-47715D01*
X101233Y-47848D01*
X101406Y-47919D01*
X101593Y-47920D01*
X101765Y-47848D01*
X101898Y-47716D01*
X101969Y-47543D01*
X101970Y-47356D01*
X101920Y-47236D01*
X101941Y-47244D01*
X102058Y-47245D01*
X102079Y-47236D01*
X102030Y-47356D01*
X102029Y-47543D01*
X102101Y-47715D01*
X102233Y-47848D01*
X102406Y-47919D01*
X102593Y-47920D01*
X102765Y-47848D01*
X102898Y-47716D01*
X102969Y-47543D01*
X102970Y-47356D01*
X102970Y-48356D01*
X102898Y-48184D01*
X102766Y-48051D01*
X102593Y-47980D01*
X102406Y-47979D01*
X102234Y-48051D01*
X102101Y-48183D01*
X102030Y-48356D01*
X102029Y-48543D01*
X102101Y-48715D01*
X102233Y-48848D01*
X102406Y-48919D01*
X102593Y-48920D01*
X102765Y-48848D01*
X102898Y-48716D01*
X102969Y-48543D01*
X102970Y-48356D01*
X102970Y-49356D01*
X102898Y-49184D01*
X102766Y-49051D01*
X102593Y-48980D01*
X102406Y-48979D01*
X102234Y-49051D01*
X102101Y-49183D01*
X102030Y-49356D01*
X102029Y-49543D01*
X102101Y-49715D01*
X102233Y-49848D01*
X102406Y-49919D01*
X102593Y-49920D01*
X102765Y-49848D01*
X102898Y-49716D01*
X102969Y-49543D01*
X102970Y-49356D01*
X102970Y-50356D01*
X102898Y-50184D01*
X102766Y-50051D01*
X102593Y-49980D01*
X102406Y-49979D01*
X102234Y-50051D01*
X102101Y-50183D01*
X102030Y-50356D01*
X102029Y-50543D01*
X102101Y-50715D01*
X102233Y-50848D01*
X102406Y-50919D01*
X102593Y-50920D01*
X102765Y-50848D01*
X102898Y-50716D01*
X102969Y-50543D01*
X102970Y-50356D01*
X102970Y-51356D01*
X102898Y-51184D01*
X102766Y-51051D01*
X102593Y-50980D01*
X102406Y-50979D01*
X102234Y-51051D01*
X102101Y-51183D01*
X102030Y-51356D01*
X102029Y-51543D01*
X102101Y-51715D01*
X102233Y-51848D01*
X102406Y-51919D01*
X102593Y-51920D01*
X102765Y-51848D01*
X102898Y-51716D01*
X102969Y-51543D01*
X102970Y-51356D01*
X102970Y-52356D01*
X102898Y-52184D01*
X102766Y-52051D01*
X102593Y-51980D01*
X102406Y-51979D01*
X102234Y-52051D01*
X102101Y-52183D01*
X102030Y-52356D01*
X102029Y-52543D01*
X102101Y-52715D01*
X102233Y-52848D01*
X102406Y-52919D01*
X102593Y-52920D01*
X102765Y-52848D01*
X102898Y-52716D01*
X102969Y-52543D01*
X102970Y-52356D01*
X102970Y-53356D01*
X102898Y-53184D01*
X102766Y-53051D01*
X102593Y-52980D01*
X102406Y-52979D01*
X102234Y-53051D01*
X102101Y-53183D01*
X102030Y-53356D01*
X102029Y-53543D01*
X102101Y-53715D01*
X102233Y-53848D01*
X102406Y-53919D01*
X102593Y-53920D01*
X102765Y-53848D01*
X102898Y-53716D01*
X102969Y-53543D01*
X102970Y-53356D01*
X102970Y-54356D01*
X102898Y-54184D01*
X102766Y-54051D01*
X102593Y-53980D01*
X102406Y-53979D01*
X102234Y-54051D01*
X102101Y-54183D01*
X102030Y-54356D01*
X102029Y-54543D01*
X102101Y-54715D01*
X102233Y-54848D01*
X102406Y-54919D01*
X102593Y-54920D01*
X102765Y-54848D01*
X102898Y-54716D01*
X102969Y-54543D01*
X102970Y-54356D01*
X102970Y-58705D01*
X102813Y-58705D01*
X102813Y-57706D01*
X102813Y-56006D01*
X102741Y-55834D01*
X102609Y-55701D01*
X102436Y-55630D01*
X102249Y-55629D01*
X102077Y-55701D01*
X101970Y-55808D01*
X101970Y-54356D01*
X101970Y-53356D01*
X101970Y-52356D01*
X101970Y-51356D01*
X101970Y-50356D01*
X101970Y-49356D01*
X101970Y-48356D01*
X101898Y-48184D01*
X101766Y-48051D01*
X101593Y-47980D01*
X101406Y-47979D01*
X101234Y-48051D01*
X101101Y-48183D01*
X101030Y-48356D01*
X101029Y-48543D01*
X101101Y-48715D01*
X101233Y-48848D01*
X101406Y-48919D01*
X101593Y-48920D01*
X101765Y-48848D01*
X101898Y-48716D01*
X101969Y-48543D01*
X101970Y-48356D01*
X101970Y-49356D01*
X101898Y-49184D01*
X101766Y-49051D01*
X101593Y-48980D01*
X101406Y-48979D01*
X101234Y-49051D01*
X101101Y-49183D01*
X101030Y-49356D01*
X101029Y-49543D01*
X101101Y-49715D01*
X101233Y-49848D01*
X101406Y-49919D01*
X101593Y-49920D01*
X101765Y-49848D01*
X101898Y-49716D01*
X101969Y-49543D01*
X101970Y-49356D01*
X101970Y-50356D01*
X101898Y-50184D01*
X101766Y-50051D01*
X101593Y-49980D01*
X101406Y-49979D01*
X101234Y-50051D01*
X101101Y-50183D01*
X101030Y-50356D01*
X101029Y-50543D01*
X101101Y-50715D01*
X101233Y-50848D01*
X101406Y-50919D01*
X101593Y-50920D01*
X101765Y-50848D01*
X101898Y-50716D01*
X101969Y-50543D01*
X101970Y-50356D01*
X101970Y-51356D01*
X101898Y-51184D01*
X101766Y-51051D01*
X101593Y-50980D01*
X101406Y-50979D01*
X101234Y-51051D01*
X101101Y-51183D01*
X101030Y-51356D01*
X101029Y-51543D01*
X101101Y-51715D01*
X101233Y-51848D01*
X101406Y-51919D01*
X101593Y-51920D01*
X101765Y-51848D01*
X101898Y-51716D01*
X101969Y-51543D01*
X101970Y-51356D01*
X101970Y-52356D01*
X101898Y-52184D01*
X101766Y-52051D01*
X101593Y-51980D01*
X101406Y-51979D01*
X101234Y-52051D01*
X101101Y-52183D01*
X101030Y-52356D01*
X101029Y-52543D01*
X101101Y-52715D01*
X101233Y-52848D01*
X101406Y-52919D01*
X101593Y-52920D01*
X101765Y-52848D01*
X101898Y-52716D01*
X101969Y-52543D01*
X101970Y-52356D01*
X101970Y-53356D01*
X101898Y-53184D01*
X101766Y-53051D01*
X101593Y-52980D01*
X101406Y-52979D01*
X101234Y-53051D01*
X101101Y-53183D01*
X101030Y-53356D01*
X101029Y-53543D01*
X101101Y-53715D01*
X101233Y-53848D01*
X101406Y-53919D01*
X101593Y-53920D01*
X101765Y-53848D01*
X101898Y-53716D01*
X101969Y-53543D01*
X101970Y-53356D01*
X101970Y-54356D01*
X101898Y-54184D01*
X101766Y-54051D01*
X101593Y-53980D01*
X101406Y-53979D01*
X101234Y-54051D01*
X101101Y-54183D01*
X101030Y-54356D01*
X101029Y-54543D01*
X101101Y-54715D01*
X101233Y-54848D01*
X101406Y-54919D01*
X101593Y-54920D01*
X101765Y-54848D01*
X101898Y-54716D01*
X101969Y-54543D01*
X101970Y-54356D01*
X101970Y-55808D01*
X101944Y-55833D01*
X101873Y-56006D01*
X101872Y-56193D01*
X101944Y-56365D01*
X102076Y-56498D01*
X102249Y-56569D01*
X102436Y-56570D01*
X102608Y-56498D01*
X102741Y-56366D01*
X102812Y-56193D01*
X102813Y-56006D01*
X102813Y-57706D01*
X102741Y-57534D01*
X102609Y-57401D01*
X102436Y-57330D01*
X102249Y-57329D01*
X102077Y-57401D01*
X101944Y-57533D01*
X101873Y-57706D01*
X101872Y-57893D01*
X101944Y-58065D01*
X102076Y-58198D01*
X102249Y-58269D01*
X102436Y-58270D01*
X102608Y-58198D01*
X102741Y-58066D01*
X102812Y-57893D01*
X102813Y-57706D01*
X102813Y-58705D01*
X100820Y-58705D01*
X100820Y-42406D01*
X100748Y-42234D01*
X100616Y-42101D01*
X100443Y-42030D01*
X100256Y-42029D01*
X100084Y-42101D01*
X99951Y-42233D01*
X99880Y-42406D01*
X99879Y-42593D01*
X99951Y-42765D01*
X100083Y-42898D01*
X100256Y-42969D01*
X100443Y-42970D01*
X100615Y-42898D01*
X100748Y-42766D01*
X100819Y-42593D01*
X100820Y-42406D01*
X100820Y-58705D01*
X99433Y-58705D01*
X99446Y-58685D01*
X99476Y-58614D01*
X99476Y-58614D01*
X99476Y-58614D01*
X99491Y-58538D01*
X99491Y-58538D01*
X99491Y-58538D01*
X99491Y-58537D01*
X99491Y-58500D01*
X99491Y-58462D01*
X99491Y-58461D01*
X99491Y-58461D01*
X99491Y-58461D01*
X99476Y-58385D01*
X99476Y-58385D01*
X99476Y-58385D01*
X99446Y-58314D01*
X99403Y-58250D01*
X99349Y-58196D01*
X99349Y-58196D01*
X99285Y-58153D01*
X99284Y-58153D01*
X99284Y-58152D01*
X99214Y-58123D01*
X99137Y-58108D01*
X99061Y-58108D01*
X99061Y-58108D01*
X98985Y-58123D01*
X98985Y-58123D01*
X98985Y-58123D01*
X98914Y-58153D01*
X98850Y-58196D01*
X98796Y-58250D01*
X98796Y-58250D01*
X98753Y-58314D01*
X98753Y-58315D01*
X98752Y-58315D01*
X98723Y-58385D01*
X98708Y-58462D01*
X98708Y-58500D01*
X98708Y-58537D01*
X98708Y-58538D01*
X98723Y-58614D01*
X98752Y-58684D01*
X98753Y-58684D01*
X98753Y-58685D01*
X98766Y-58705D01*
X94975Y-58705D01*
X94994Y-58658D01*
X94995Y-58546D01*
X97914Y-58546D01*
X97994Y-58530D01*
X98062Y-58484D01*
X98536Y-58010D01*
X99835Y-58010D01*
X99858Y-58065D01*
X99990Y-58198D01*
X100163Y-58269D01*
X100350Y-58270D01*
X100522Y-58198D01*
X100655Y-58066D01*
X100726Y-57893D01*
X100727Y-57706D01*
X100655Y-57534D01*
X100523Y-57401D01*
X100350Y-57330D01*
X100163Y-57329D01*
X99991Y-57401D01*
X99858Y-57533D01*
X99835Y-57590D01*
X98706Y-57590D01*
X99894Y-56402D01*
X99990Y-56498D01*
X100163Y-56569D01*
X100350Y-56570D01*
X100522Y-56498D01*
X100655Y-56366D01*
X100726Y-56193D01*
X100727Y-56006D01*
X100655Y-55834D01*
X100523Y-55701D01*
X100350Y-55630D01*
X100163Y-55629D01*
X100160Y-55631D01*
X100160Y-50207D01*
X100199Y-50167D01*
X100244Y-50058D01*
X100245Y-49941D01*
X100200Y-49833D01*
X100117Y-49750D01*
X100008Y-49705D01*
X99910Y-49704D01*
X99910Y-43200D01*
X99894Y-43119D01*
X99894Y-43119D01*
X99875Y-43092D01*
X99848Y-43051D01*
X99848Y-43051D01*
X99795Y-42998D01*
X99795Y-42941D01*
X99750Y-42833D01*
X99715Y-42798D01*
X99748Y-42766D01*
X99819Y-42593D01*
X99820Y-42406D01*
X99748Y-42234D01*
X99616Y-42101D01*
X99443Y-42030D01*
X99256Y-42029D01*
X99084Y-42101D01*
X98951Y-42233D01*
X98880Y-42406D01*
X98879Y-42593D01*
X98951Y-42765D01*
X99083Y-42898D01*
X99205Y-42948D01*
X99204Y-43058D01*
X99249Y-43166D01*
X99332Y-43249D01*
X99441Y-43294D01*
X99490Y-43294D01*
X99490Y-43555D01*
X99476Y-43485D01*
X99476Y-43485D01*
X99476Y-43485D01*
X99446Y-43414D01*
X99403Y-43350D01*
X99349Y-43296D01*
X99349Y-43296D01*
X99285Y-43253D01*
X99284Y-43253D01*
X99284Y-43252D01*
X99214Y-43223D01*
X99137Y-43208D01*
X99061Y-43208D01*
X99061Y-43208D01*
X98985Y-43223D01*
X98985Y-43223D01*
X98985Y-43223D01*
X98914Y-43253D01*
X98850Y-43296D01*
X98820Y-43326D01*
X98820Y-42406D01*
X98748Y-42234D01*
X98616Y-42101D01*
X98443Y-42030D01*
X98256Y-42029D01*
X98084Y-42101D01*
X97951Y-42233D01*
X97880Y-42406D01*
X97879Y-42593D01*
X97951Y-42765D01*
X98083Y-42898D01*
X98256Y-42969D01*
X98443Y-42970D01*
X98615Y-42898D01*
X98748Y-42766D01*
X98819Y-42593D01*
X98820Y-42406D01*
X98820Y-43326D01*
X98796Y-43350D01*
X98796Y-43350D01*
X98753Y-43414D01*
X98753Y-43415D01*
X98752Y-43415D01*
X98723Y-43485D01*
X98708Y-43562D01*
X98708Y-43600D01*
X98708Y-43637D01*
X98708Y-43638D01*
X98723Y-43714D01*
X98752Y-43784D01*
X98753Y-43784D01*
X98753Y-43785D01*
X98796Y-43849D01*
X98796Y-43849D01*
X98850Y-43903D01*
X98914Y-43946D01*
X98985Y-43976D01*
X98985Y-43976D01*
X98985Y-43976D01*
X99061Y-43991D01*
X99061Y-43991D01*
X99137Y-43991D01*
X99214Y-43976D01*
X99214Y-43975D01*
X99284Y-43947D01*
X99284Y-43946D01*
X99285Y-43946D01*
X99349Y-43903D01*
X99349Y-43903D01*
X99403Y-43849D01*
X99446Y-43785D01*
X99476Y-43714D01*
X99476Y-43714D01*
X99476Y-43714D01*
X99490Y-43644D01*
X99490Y-44172D01*
X99417Y-44100D01*
X99308Y-44055D01*
X99191Y-44054D01*
X99083Y-44099D01*
X99000Y-44182D01*
X98955Y-44291D01*
X98955Y-44337D01*
X98917Y-44300D01*
X98808Y-44255D01*
X98691Y-44254D01*
X98583Y-44299D01*
X98575Y-44307D01*
X98517Y-44250D01*
X98408Y-44205D01*
X98291Y-44204D01*
X98183Y-44249D01*
X98175Y-44257D01*
X98167Y-44250D01*
X98058Y-44205D01*
X97941Y-44204D01*
X97833Y-44249D01*
X97825Y-44257D01*
X97820Y-44252D01*
X97820Y-42406D01*
X97748Y-42234D01*
X97616Y-42101D01*
X97443Y-42030D01*
X97256Y-42029D01*
X97084Y-42101D01*
X96951Y-42233D01*
X96880Y-42406D01*
X96879Y-42593D01*
X96951Y-42765D01*
X97083Y-42898D01*
X97256Y-42969D01*
X97443Y-42970D01*
X97615Y-42898D01*
X97748Y-42766D01*
X97819Y-42593D01*
X97820Y-42406D01*
X97820Y-44252D01*
X97817Y-44250D01*
X97708Y-44205D01*
X97591Y-44204D01*
X97483Y-44249D01*
X97475Y-44257D01*
X97467Y-44250D01*
X97358Y-44205D01*
X97241Y-44204D01*
X97133Y-44249D01*
X97050Y-44332D01*
X97005Y-44441D01*
X97004Y-44558D01*
X97049Y-44666D01*
X97132Y-44749D01*
X97241Y-44794D01*
X97358Y-44795D01*
X97466Y-44750D01*
X97474Y-44742D01*
X97482Y-44749D01*
X97591Y-44794D01*
X97708Y-44795D01*
X97816Y-44750D01*
X97824Y-44742D01*
X97832Y-44749D01*
X97941Y-44794D01*
X98058Y-44795D01*
X98166Y-44750D01*
X98174Y-44742D01*
X98182Y-44749D01*
X98205Y-44759D01*
X98204Y-44858D01*
X98225Y-44907D01*
X98150Y-44982D01*
X98105Y-45091D01*
X98104Y-45208D01*
X98149Y-45316D01*
X98232Y-45399D01*
X98341Y-45444D01*
X98458Y-45445D01*
X98566Y-45400D01*
X98649Y-45317D01*
X98694Y-45208D01*
X98695Y-45091D01*
X98674Y-45042D01*
X98749Y-44967D01*
X98794Y-44858D01*
X98794Y-44845D01*
X98808Y-44845D01*
X98916Y-44800D01*
X98999Y-44717D01*
X99044Y-44608D01*
X99044Y-44562D01*
X99082Y-44599D01*
X99191Y-44644D01*
X99308Y-44645D01*
X99416Y-44600D01*
X99490Y-44527D01*
X99490Y-46667D01*
X99458Y-46655D01*
X99341Y-46654D01*
X99233Y-46699D01*
X99225Y-46707D01*
X99217Y-46700D01*
X99108Y-46655D01*
X98991Y-46654D01*
X98883Y-46699D01*
X98800Y-46782D01*
X98755Y-46891D01*
X98754Y-47008D01*
X98799Y-47116D01*
X98882Y-47199D01*
X98991Y-47244D01*
X99108Y-47245D01*
X99216Y-47200D01*
X99224Y-47192D01*
X99232Y-47199D01*
X99341Y-47244D01*
X99458Y-47245D01*
X99490Y-47232D01*
X99490Y-54667D01*
X99458Y-54655D01*
X99395Y-54654D01*
X99395Y-53891D01*
X99395Y-52891D01*
X99395Y-51891D01*
X99395Y-50891D01*
X99395Y-49891D01*
X99395Y-48891D01*
X99350Y-48783D01*
X99267Y-48700D01*
X99158Y-48655D01*
X99041Y-48654D01*
X98957Y-48689D01*
X99248Y-48398D01*
X99248Y-48398D01*
X99248Y-48398D01*
X99275Y-48357D01*
X99294Y-48330D01*
X99294Y-48330D01*
X99310Y-48250D01*
X99310Y-48157D01*
X99349Y-48117D01*
X99394Y-48008D01*
X99395Y-47891D01*
X99350Y-47783D01*
X99267Y-47700D01*
X99158Y-47655D01*
X99041Y-47654D01*
X98933Y-47699D01*
X98900Y-47732D01*
X98867Y-47700D01*
X98758Y-47655D01*
X98695Y-47654D01*
X98695Y-45941D01*
X98650Y-45833D01*
X98567Y-45750D01*
X98458Y-45705D01*
X98341Y-45704D01*
X98233Y-45749D01*
X98150Y-45832D01*
X98105Y-45941D01*
X98104Y-46040D01*
X98083Y-46049D01*
X98000Y-46132D01*
X97955Y-46241D01*
X97954Y-46358D01*
X97999Y-46466D01*
X98007Y-46474D01*
X98000Y-46482D01*
X97955Y-46591D01*
X97954Y-46708D01*
X97999Y-46816D01*
X98007Y-46824D01*
X98000Y-46832D01*
X97955Y-46941D01*
X97954Y-47058D01*
X97999Y-47166D01*
X98082Y-47249D01*
X98191Y-47294D01*
X98308Y-47295D01*
X98416Y-47250D01*
X98499Y-47167D01*
X98544Y-47058D01*
X98545Y-46941D01*
X98500Y-46833D01*
X98492Y-46825D01*
X98499Y-46817D01*
X98544Y-46708D01*
X98545Y-46591D01*
X98500Y-46483D01*
X98492Y-46475D01*
X98499Y-46467D01*
X98544Y-46358D01*
X98545Y-46259D01*
X98566Y-46250D01*
X98649Y-46167D01*
X98694Y-46058D01*
X98695Y-45941D01*
X98695Y-47654D01*
X98641Y-47654D01*
X98545Y-47694D01*
X98545Y-47641D01*
X98500Y-47533D01*
X98417Y-47450D01*
X98308Y-47405D01*
X98191Y-47404D01*
X98083Y-47449D01*
X98000Y-47532D01*
X97955Y-47641D01*
X97954Y-47758D01*
X97999Y-47866D01*
X98007Y-47874D01*
X98000Y-47882D01*
X97955Y-47991D01*
X97954Y-48108D01*
X97999Y-48216D01*
X98007Y-48224D01*
X98000Y-48232D01*
X97955Y-48341D01*
X97954Y-48458D01*
X97999Y-48566D01*
X98007Y-48574D01*
X98000Y-48582D01*
X97955Y-48691D01*
X97954Y-48808D01*
X97999Y-48916D01*
X98067Y-48985D01*
X97285Y-49767D01*
X97250Y-49683D01*
X97210Y-49642D01*
X97210Y-46650D01*
X97194Y-46569D01*
X97148Y-46501D01*
X96820Y-46173D01*
X96820Y-42406D01*
X96748Y-42234D01*
X96616Y-42101D01*
X96443Y-42030D01*
X96256Y-42029D01*
X96084Y-42101D01*
X95951Y-42233D01*
X95880Y-42406D01*
X95879Y-42593D01*
X95951Y-42765D01*
X96083Y-42898D01*
X96256Y-42969D01*
X96443Y-42970D01*
X96615Y-42898D01*
X96748Y-42766D01*
X96819Y-42593D01*
X96820Y-42406D01*
X96820Y-46173D01*
X95417Y-44770D01*
X95466Y-44750D01*
X95474Y-44742D01*
X95482Y-44749D01*
X95591Y-44794D01*
X95708Y-44795D01*
X95816Y-44750D01*
X95824Y-44742D01*
X95832Y-44749D01*
X95941Y-44794D01*
X96058Y-44795D01*
X96166Y-44750D01*
X96174Y-44742D01*
X96182Y-44749D01*
X96291Y-44794D01*
X96408Y-44795D01*
X96516Y-44750D01*
X96599Y-44667D01*
X96644Y-44558D01*
X96645Y-44441D01*
X96600Y-44333D01*
X96517Y-44250D01*
X96408Y-44205D01*
X96291Y-44204D01*
X96183Y-44249D01*
X96175Y-44257D01*
X96167Y-44250D01*
X96058Y-44205D01*
X95941Y-44204D01*
X95833Y-44249D01*
X95825Y-44257D01*
X95820Y-44252D01*
X95820Y-42406D01*
X95748Y-42234D01*
X95616Y-42101D01*
X95443Y-42030D01*
X95256Y-42029D01*
X95084Y-42101D01*
X94951Y-42233D01*
X94880Y-42406D01*
X94879Y-42593D01*
X94951Y-42765D01*
X95083Y-42898D01*
X95256Y-42969D01*
X95443Y-42970D01*
X95615Y-42898D01*
X95748Y-42766D01*
X95819Y-42593D01*
X95820Y-42406D01*
X95820Y-44252D01*
X95817Y-44250D01*
X95708Y-44205D01*
X95591Y-44204D01*
X95483Y-44249D01*
X95475Y-44257D01*
X95467Y-44250D01*
X95358Y-44205D01*
X95241Y-44204D01*
X95133Y-44249D01*
X95050Y-44332D01*
X95029Y-44382D01*
X94820Y-44173D01*
X94820Y-42406D01*
X94748Y-42234D01*
X94616Y-42101D01*
X94443Y-42030D01*
X94256Y-42029D01*
X94084Y-42101D01*
X93951Y-42233D01*
X93880Y-42406D01*
X93879Y-42593D01*
X93951Y-42765D01*
X94083Y-42898D01*
X94256Y-42969D01*
X94443Y-42970D01*
X94615Y-42898D01*
X94748Y-42766D01*
X94819Y-42593D01*
X94820Y-42406D01*
X94820Y-44173D01*
X94424Y-43777D01*
X94356Y-43731D01*
X94276Y-43716D01*
X93820Y-43716D01*
X93820Y-42406D01*
X93748Y-42234D01*
X93616Y-42101D01*
X93443Y-42030D01*
X93256Y-42029D01*
X93084Y-42101D01*
X92951Y-42233D01*
X92880Y-42406D01*
X92879Y-42593D01*
X92951Y-42765D01*
X93083Y-42898D01*
X93256Y-42969D01*
X93443Y-42970D01*
X93615Y-42898D01*
X93748Y-42766D01*
X93819Y-42593D01*
X93820Y-42406D01*
X93820Y-43716D01*
X92820Y-43716D01*
X92820Y-42406D01*
X92748Y-42234D01*
X92616Y-42101D01*
X92443Y-42030D01*
X92256Y-42029D01*
X92084Y-42101D01*
X91951Y-42233D01*
X91880Y-42406D01*
X91879Y-42593D01*
X91951Y-42765D01*
X92083Y-42898D01*
X92256Y-42969D01*
X92443Y-42970D01*
X92615Y-42898D01*
X92748Y-42766D01*
X92819Y-42593D01*
X92820Y-42406D01*
X92820Y-43716D01*
X91820Y-43716D01*
X91820Y-42406D01*
X91748Y-42234D01*
X91616Y-42101D01*
X91443Y-42030D01*
X91256Y-42029D01*
X91084Y-42101D01*
X90951Y-42233D01*
X90880Y-42406D01*
X90879Y-42593D01*
X90951Y-42765D01*
X91083Y-42898D01*
X91256Y-42969D01*
X91443Y-42970D01*
X91615Y-42898D01*
X91748Y-42766D01*
X91819Y-42593D01*
X91820Y-42406D01*
X91820Y-43716D01*
X90820Y-43716D01*
X90820Y-42406D01*
X90748Y-42234D01*
X90616Y-42101D01*
X90443Y-42030D01*
X90256Y-42029D01*
X90084Y-42101D01*
X89951Y-42233D01*
X89880Y-42406D01*
X89879Y-42593D01*
X89951Y-42765D01*
X90083Y-42898D01*
X90256Y-42969D01*
X90443Y-42970D01*
X90615Y-42898D01*
X90748Y-42766D01*
X90819Y-42593D01*
X90820Y-42406D01*
X90820Y-43716D01*
X89820Y-43716D01*
X89820Y-42406D01*
X89748Y-42234D01*
X89616Y-42101D01*
X89443Y-42030D01*
X89256Y-42029D01*
X89084Y-42101D01*
X88951Y-42233D01*
X88880Y-42406D01*
X88879Y-42593D01*
X88951Y-42765D01*
X89083Y-42898D01*
X89256Y-42969D01*
X89443Y-42970D01*
X89615Y-42898D01*
X89748Y-42766D01*
X89819Y-42593D01*
X89820Y-42406D01*
X89820Y-43716D01*
X89200Y-43716D01*
X89244Y-43608D01*
X89245Y-43491D01*
X89200Y-43383D01*
X89117Y-43300D01*
X89008Y-43255D01*
X88891Y-43254D01*
X88820Y-43284D01*
X88820Y-42406D01*
X88748Y-42234D01*
X88616Y-42101D01*
X88443Y-42030D01*
X88256Y-42029D01*
X88084Y-42101D01*
X87951Y-42233D01*
X87880Y-42406D01*
X87879Y-42593D01*
X87951Y-42765D01*
X88083Y-42898D01*
X88256Y-42969D01*
X88443Y-42970D01*
X88615Y-42898D01*
X88748Y-42766D01*
X88819Y-42593D01*
X88820Y-42406D01*
X88820Y-43284D01*
X88783Y-43299D01*
X88700Y-43382D01*
X88655Y-43491D01*
X88655Y-43504D01*
X88641Y-43504D01*
X88533Y-43549D01*
X88450Y-43632D01*
X88405Y-43741D01*
X88404Y-43858D01*
X88449Y-43966D01*
X88522Y-44040D01*
X87820Y-44040D01*
X87820Y-42406D01*
X87748Y-42234D01*
X87616Y-42101D01*
X87443Y-42030D01*
X87256Y-42029D01*
X87084Y-42101D01*
X86951Y-42233D01*
X86880Y-42406D01*
X86879Y-42593D01*
X86951Y-42765D01*
X87083Y-42898D01*
X87256Y-42969D01*
X87443Y-42970D01*
X87615Y-42898D01*
X87748Y-42766D01*
X87819Y-42593D01*
X87820Y-42406D01*
X87820Y-44040D01*
X86820Y-44040D01*
X86820Y-42406D01*
X86748Y-42234D01*
X86616Y-42101D01*
X86443Y-42030D01*
X86256Y-42029D01*
X86084Y-42101D01*
X85951Y-42233D01*
X85880Y-42406D01*
X85879Y-42593D01*
X85951Y-42765D01*
X86083Y-42898D01*
X86256Y-42969D01*
X86443Y-42970D01*
X86615Y-42898D01*
X86748Y-42766D01*
X86819Y-42593D01*
X86820Y-42406D01*
X86820Y-44040D01*
X85820Y-44040D01*
X85820Y-42406D01*
X85748Y-42234D01*
X85616Y-42101D01*
X85443Y-42030D01*
X85256Y-42029D01*
X85084Y-42101D01*
X84951Y-42233D01*
X84880Y-42406D01*
X84879Y-42593D01*
X84951Y-42765D01*
X85083Y-42898D01*
X85256Y-42969D01*
X85443Y-42970D01*
X85615Y-42898D01*
X85748Y-42766D01*
X85819Y-42593D01*
X85820Y-42406D01*
X85820Y-44040D01*
X85244Y-44040D01*
X85245Y-43941D01*
X85200Y-43833D01*
X85117Y-43750D01*
X85008Y-43705D01*
X84891Y-43704D01*
X84820Y-43734D01*
X84820Y-42406D01*
X84748Y-42234D01*
X84616Y-42101D01*
X84443Y-42030D01*
X84256Y-42029D01*
X84084Y-42101D01*
X83951Y-42233D01*
X83880Y-42406D01*
X83879Y-42593D01*
X83951Y-42765D01*
X84083Y-42898D01*
X84256Y-42969D01*
X84443Y-42970D01*
X84615Y-42898D01*
X84748Y-42766D01*
X84819Y-42593D01*
X84820Y-42406D01*
X84820Y-43734D01*
X84783Y-43749D01*
X84700Y-43832D01*
X84655Y-43941D01*
X84654Y-44040D01*
X83820Y-44040D01*
X83820Y-42406D01*
X83748Y-42234D01*
X83616Y-42101D01*
X83443Y-42030D01*
X83256Y-42029D01*
X83084Y-42101D01*
X82951Y-42233D01*
X82880Y-42406D01*
X82879Y-42593D01*
X82951Y-42765D01*
X83083Y-42898D01*
X83256Y-42969D01*
X83443Y-42970D01*
X83615Y-42898D01*
X83748Y-42766D01*
X83819Y-42593D01*
X83820Y-42406D01*
X83820Y-44040D01*
X82820Y-44040D01*
X82820Y-42406D01*
X82748Y-42234D01*
X82616Y-42101D01*
X82443Y-42030D01*
X82256Y-42029D01*
X82084Y-42101D01*
X81951Y-42233D01*
X81880Y-42406D01*
X81879Y-42593D01*
X81951Y-42765D01*
X82083Y-42898D01*
X82256Y-42969D01*
X82443Y-42970D01*
X82615Y-42898D01*
X82748Y-42766D01*
X82819Y-42593D01*
X82820Y-42406D01*
X82820Y-44040D01*
X81820Y-44040D01*
X81820Y-42406D01*
X81748Y-42234D01*
X81616Y-42101D01*
X81443Y-42030D01*
X81256Y-42029D01*
X81084Y-42101D01*
X80951Y-42233D01*
X80880Y-42406D01*
X80879Y-42593D01*
X80951Y-42765D01*
X81083Y-42898D01*
X81256Y-42969D01*
X81443Y-42970D01*
X81615Y-42898D01*
X81748Y-42766D01*
X81819Y-42593D01*
X81820Y-42406D01*
X81820Y-44040D01*
X80820Y-44040D01*
X80820Y-42406D01*
X80748Y-42234D01*
X80616Y-42101D01*
X80443Y-42030D01*
X80256Y-42029D01*
X80084Y-42101D01*
X79951Y-42233D01*
X79880Y-42406D01*
X79879Y-42593D01*
X79951Y-42765D01*
X80083Y-42898D01*
X80256Y-42969D01*
X80443Y-42970D01*
X80615Y-42898D01*
X80748Y-42766D01*
X80819Y-42593D01*
X80820Y-42406D01*
X80820Y-44040D01*
X80291Y-44040D01*
X80291Y-43637D01*
X80291Y-43600D01*
X80291Y-43562D01*
X80291Y-43561D01*
X80291Y-43561D01*
X80291Y-43561D01*
X80276Y-43485D01*
X80276Y-43485D01*
X80276Y-43485D01*
X80246Y-43414D01*
X80203Y-43350D01*
X80149Y-43296D01*
X80149Y-43296D01*
X80085Y-43253D01*
X80084Y-43253D01*
X80084Y-43252D01*
X80014Y-43223D01*
X79937Y-43208D01*
X79861Y-43208D01*
X79861Y-43208D01*
X79820Y-43217D01*
X79820Y-42406D01*
X79748Y-42234D01*
X79616Y-42101D01*
X79443Y-42030D01*
X79256Y-42029D01*
X79084Y-42101D01*
X78951Y-42233D01*
X78880Y-42406D01*
X78879Y-42593D01*
X78951Y-42765D01*
X79083Y-42898D01*
X79256Y-42969D01*
X79443Y-42970D01*
X79615Y-42898D01*
X79748Y-42766D01*
X79819Y-42593D01*
X79820Y-42406D01*
X79820Y-43217D01*
X79785Y-43223D01*
X79785Y-43223D01*
X79785Y-43223D01*
X79714Y-43253D01*
X79650Y-43296D01*
X79596Y-43350D01*
X79596Y-43350D01*
X79553Y-43414D01*
X79553Y-43415D01*
X79552Y-43415D01*
X79523Y-43485D01*
X79508Y-43562D01*
X79508Y-43600D01*
X79508Y-43637D01*
X79508Y-43638D01*
X79523Y-43714D01*
X79552Y-43784D01*
X79553Y-43784D01*
X79553Y-43785D01*
X79596Y-43849D01*
X79596Y-43849D01*
X79650Y-43903D01*
X79714Y-43946D01*
X79785Y-43976D01*
X79785Y-43976D01*
X79785Y-43976D01*
X79861Y-43991D01*
X79861Y-43991D01*
X79937Y-43991D01*
X80014Y-43976D01*
X80014Y-43975D01*
X80084Y-43947D01*
X80084Y-43946D01*
X80085Y-43946D01*
X80149Y-43903D01*
X80149Y-43903D01*
X80203Y-43849D01*
X80246Y-43785D01*
X80276Y-43714D01*
X80276Y-43714D01*
X80276Y-43714D01*
X80291Y-43638D01*
X80291Y-43638D01*
X80291Y-43638D01*
X80291Y-43637D01*
X80291Y-44040D01*
X78820Y-44040D01*
X78820Y-42406D01*
X78748Y-42234D01*
X78616Y-42101D01*
X78443Y-42030D01*
X78256Y-42029D01*
X78084Y-42101D01*
X77951Y-42233D01*
X77880Y-42406D01*
X77879Y-42593D01*
X77951Y-42765D01*
X78083Y-42898D01*
X78256Y-42969D01*
X78443Y-42970D01*
X78615Y-42898D01*
X78748Y-42766D01*
X78819Y-42593D01*
X78820Y-42406D01*
X78820Y-44040D01*
X78600Y-44040D01*
X78519Y-44055D01*
X78451Y-44101D01*
X78451Y-44101D01*
X78348Y-44204D01*
X78291Y-44204D01*
X78183Y-44249D01*
X78100Y-44332D01*
X78070Y-44404D01*
X78070Y-43606D01*
X77998Y-43434D01*
X77866Y-43301D01*
X77820Y-43282D01*
X77820Y-42766D01*
X77820Y-42166D01*
X77794Y-42103D01*
X77746Y-42055D01*
X77683Y-42030D01*
X77616Y-42029D01*
X77016Y-42029D01*
X76953Y-42055D01*
X76905Y-42103D01*
X76880Y-42166D01*
X76879Y-42233D01*
X76879Y-42833D01*
X76905Y-42896D01*
X76953Y-42944D01*
X77016Y-42969D01*
X77083Y-42970D01*
X77683Y-42970D01*
X77746Y-42944D01*
X77794Y-42896D01*
X77819Y-42833D01*
X77820Y-42766D01*
X77820Y-43282D01*
X77693Y-43230D01*
X77506Y-43229D01*
X77334Y-43301D01*
X77201Y-43433D01*
X77130Y-43606D01*
X77129Y-43793D01*
X77201Y-43965D01*
X77333Y-44098D01*
X77506Y-44169D01*
X77693Y-44170D01*
X77865Y-44098D01*
X77998Y-43966D01*
X78069Y-43793D01*
X78070Y-43606D01*
X78070Y-44404D01*
X78055Y-44441D01*
X78054Y-44558D01*
X78099Y-44666D01*
X78182Y-44749D01*
X78291Y-44794D01*
X78408Y-44795D01*
X78516Y-44750D01*
X78524Y-44742D01*
X78532Y-44749D01*
X78641Y-44794D01*
X78758Y-44795D01*
X78866Y-44750D01*
X78874Y-44742D01*
X78882Y-44749D01*
X78991Y-44794D01*
X79108Y-44795D01*
X79216Y-44750D01*
X79224Y-44742D01*
X79232Y-44749D01*
X79341Y-44794D01*
X79458Y-44795D01*
X79566Y-44750D01*
X79649Y-44667D01*
X79694Y-44558D01*
X79695Y-44460D01*
X80105Y-44460D01*
X80104Y-44558D01*
X80149Y-44666D01*
X80232Y-44749D01*
X80341Y-44794D01*
X80458Y-44795D01*
X80566Y-44750D01*
X80574Y-44742D01*
X80582Y-44749D01*
X80690Y-44794D01*
X80690Y-48655D01*
X80591Y-48654D01*
X80483Y-48699D01*
X80400Y-48782D01*
X80355Y-48891D01*
X80354Y-49008D01*
X80399Y-49116D01*
X80407Y-49124D01*
X80400Y-49132D01*
X80355Y-49241D01*
X80354Y-49358D01*
X80399Y-49466D01*
X80482Y-49549D01*
X80591Y-49594D01*
X80690Y-49595D01*
X80690Y-54550D01*
X80705Y-54630D01*
X80751Y-54698D01*
X81639Y-55586D01*
X81608Y-55599D01*
X81525Y-55682D01*
X81480Y-55791D01*
X81479Y-55908D01*
X81524Y-56016D01*
X81607Y-56099D01*
X81716Y-56144D01*
X81833Y-56145D01*
X81941Y-56100D01*
X82010Y-56032D01*
X82041Y-56044D01*
X82158Y-56045D01*
X82266Y-56000D01*
X82274Y-55992D01*
X82282Y-55999D01*
X82391Y-56044D01*
X82508Y-56045D01*
X82616Y-56000D01*
X82699Y-55917D01*
X82744Y-55808D01*
X82745Y-55694D01*
X82858Y-55695D01*
X82966Y-55650D01*
X82974Y-55642D01*
X82982Y-55649D01*
X83091Y-55694D01*
X83208Y-55695D01*
X83316Y-55650D01*
X83324Y-55642D01*
X83332Y-55649D01*
X83441Y-55694D01*
X83558Y-55695D01*
X83607Y-55674D01*
X83682Y-55749D01*
X83755Y-55779D01*
X83754Y-55858D01*
X83799Y-55966D01*
X83882Y-56049D01*
X83991Y-56094D01*
X84108Y-56095D01*
X84216Y-56050D01*
X84299Y-55967D01*
X84344Y-55858D01*
X84345Y-55741D01*
X84300Y-55633D01*
X84217Y-55550D01*
X84144Y-55520D01*
X84145Y-55441D01*
X84100Y-55333D01*
X84017Y-55250D01*
X83908Y-55205D01*
X83791Y-55204D01*
X83742Y-55225D01*
X83667Y-55150D01*
X83558Y-55105D01*
X83501Y-55105D01*
X83221Y-54824D01*
X83153Y-54778D01*
X83073Y-54763D01*
X83054Y-54763D01*
X83099Y-54717D01*
X83144Y-54608D01*
X83145Y-54491D01*
X83100Y-54383D01*
X83017Y-54300D01*
X82908Y-54255D01*
X82791Y-54254D01*
X82683Y-54299D01*
X82600Y-54382D01*
X82594Y-54397D01*
X81920Y-53723D01*
X81920Y-45776D01*
X82901Y-44795D01*
X82958Y-44795D01*
X83066Y-44750D01*
X83099Y-44717D01*
X83132Y-44749D01*
X83241Y-44794D01*
X83358Y-44795D01*
X83466Y-44750D01*
X83474Y-44742D01*
X83482Y-44749D01*
X83591Y-44794D01*
X83708Y-44795D01*
X83816Y-44750D01*
X83824Y-44742D01*
X83832Y-44749D01*
X83941Y-44794D01*
X84058Y-44795D01*
X84166Y-44750D01*
X84174Y-44742D01*
X84182Y-44749D01*
X84291Y-44794D01*
X84408Y-44795D01*
X84516Y-44750D01*
X84599Y-44667D01*
X84644Y-44558D01*
X84645Y-44460D01*
X85355Y-44460D01*
X85354Y-44558D01*
X85399Y-44666D01*
X85482Y-44749D01*
X85591Y-44794D01*
X85708Y-44795D01*
X85816Y-44750D01*
X85824Y-44742D01*
X85832Y-44749D01*
X85941Y-44794D01*
X86058Y-44795D01*
X86166Y-44750D01*
X86174Y-44742D01*
X86182Y-44749D01*
X86291Y-44794D01*
X86408Y-44795D01*
X86516Y-44750D01*
X86599Y-44667D01*
X86644Y-44558D01*
X86645Y-44460D01*
X87005Y-44460D01*
X87004Y-44558D01*
X87049Y-44666D01*
X87132Y-44749D01*
X87241Y-44794D01*
X87358Y-44795D01*
X87466Y-44750D01*
X87474Y-44742D01*
X87482Y-44749D01*
X87591Y-44794D01*
X87708Y-44795D01*
X87816Y-44750D01*
X87824Y-44742D01*
X87832Y-44749D01*
X87941Y-44794D01*
X88058Y-44795D01*
X88166Y-44750D01*
X88249Y-44667D01*
X88294Y-44558D01*
X88295Y-44460D01*
X88650Y-44460D01*
X88730Y-44444D01*
X88798Y-44398D01*
X89060Y-44136D01*
X94189Y-44136D01*
X94267Y-44214D01*
X94183Y-44249D01*
X94175Y-44257D01*
X94167Y-44250D01*
X94058Y-44205D01*
X93941Y-44204D01*
X93833Y-44249D01*
X93825Y-44257D01*
X93817Y-44250D01*
X93708Y-44205D01*
X93591Y-44204D01*
X93483Y-44249D01*
X93475Y-44257D01*
X93467Y-44250D01*
X93358Y-44205D01*
X93241Y-44204D01*
X93133Y-44249D01*
X93058Y-44324D01*
X93030Y-44305D01*
X92950Y-44290D01*
X92557Y-44290D01*
X92517Y-44250D01*
X92408Y-44205D01*
X92291Y-44204D01*
X92183Y-44249D01*
X92175Y-44257D01*
X92167Y-44250D01*
X92058Y-44205D01*
X91941Y-44204D01*
X91833Y-44249D01*
X91825Y-44257D01*
X91817Y-44250D01*
X91708Y-44205D01*
X91591Y-44204D01*
X91483Y-44249D01*
X91475Y-44257D01*
X91467Y-44250D01*
X91358Y-44205D01*
X91241Y-44204D01*
X91133Y-44249D01*
X91050Y-44332D01*
X91005Y-44441D01*
X91004Y-44558D01*
X91049Y-44666D01*
X91090Y-44707D01*
X91090Y-44943D01*
X90645Y-44498D01*
X90645Y-44441D01*
X90600Y-44333D01*
X90517Y-44250D01*
X90408Y-44205D01*
X90291Y-44204D01*
X90183Y-44249D01*
X90175Y-44257D01*
X90167Y-44250D01*
X90058Y-44205D01*
X89941Y-44204D01*
X89833Y-44249D01*
X89825Y-44257D01*
X89817Y-44250D01*
X89708Y-44205D01*
X89591Y-44204D01*
X89483Y-44249D01*
X89475Y-44257D01*
X89467Y-44250D01*
X89358Y-44205D01*
X89241Y-44204D01*
X89133Y-44249D01*
X89050Y-44332D01*
X89005Y-44441D01*
X89004Y-44558D01*
X89049Y-44666D01*
X89132Y-44749D01*
X89241Y-44794D01*
X89358Y-44795D01*
X89466Y-44750D01*
X89474Y-44742D01*
X89482Y-44749D01*
X89591Y-44794D01*
X89708Y-44795D01*
X89816Y-44750D01*
X89824Y-44742D01*
X89832Y-44749D01*
X89941Y-44794D01*
X89998Y-44794D01*
X91417Y-46214D01*
X91350Y-46282D01*
X91305Y-46391D01*
X91304Y-46508D01*
X91349Y-46616D01*
X91425Y-46692D01*
X91405Y-46741D01*
X91404Y-46858D01*
X91449Y-46966D01*
X91525Y-47042D01*
X91505Y-47091D01*
X91505Y-47137D01*
X91467Y-47100D01*
X91358Y-47055D01*
X91345Y-47055D01*
X91345Y-47041D01*
X91300Y-46933D01*
X91217Y-46850D01*
X91108Y-46805D01*
X91095Y-46805D01*
X91095Y-46791D01*
X91050Y-46683D01*
X90967Y-46600D01*
X90858Y-46555D01*
X90741Y-46554D01*
X90633Y-46599D01*
X90550Y-46682D01*
X90505Y-46791D01*
X90504Y-46908D01*
X90549Y-47016D01*
X90632Y-47099D01*
X90741Y-47144D01*
X90754Y-47144D01*
X90754Y-47158D01*
X90799Y-47266D01*
X90882Y-47349D01*
X90991Y-47394D01*
X91004Y-47394D01*
X91004Y-47408D01*
X91049Y-47516D01*
X91132Y-47599D01*
X91241Y-47644D01*
X91254Y-47644D01*
X91254Y-47658D01*
X91299Y-47766D01*
X91382Y-47849D01*
X91491Y-47894D01*
X91608Y-47895D01*
X91716Y-47850D01*
X91799Y-47767D01*
X91844Y-47658D01*
X91845Y-47541D01*
X91805Y-47445D01*
X91858Y-47445D01*
X91966Y-47400D01*
X92049Y-47317D01*
X92094Y-47208D01*
X92095Y-47091D01*
X92050Y-46983D01*
X91974Y-46907D01*
X91994Y-46858D01*
X91995Y-46791D01*
X92004Y-46801D01*
X92004Y-46808D01*
X92049Y-46916D01*
X92132Y-46999D01*
X92241Y-47044D01*
X92358Y-47045D01*
X92466Y-47000D01*
X92549Y-46917D01*
X92594Y-46808D01*
X92594Y-46751D01*
X92886Y-46460D01*
X93005Y-46460D01*
X93004Y-46558D01*
X93049Y-46666D01*
X93132Y-46749D01*
X93241Y-46794D01*
X93254Y-46794D01*
X93254Y-46808D01*
X93299Y-46916D01*
X93382Y-46999D01*
X93491Y-47044D01*
X93504Y-47044D01*
X93504Y-47058D01*
X93549Y-47166D01*
X93632Y-47249D01*
X93741Y-47294D01*
X93754Y-47294D01*
X93754Y-47308D01*
X93799Y-47416D01*
X93882Y-47499D01*
X93991Y-47544D01*
X94004Y-47544D01*
X94004Y-47558D01*
X94049Y-47666D01*
X94132Y-47749D01*
X94241Y-47794D01*
X94254Y-47794D01*
X94254Y-47808D01*
X94299Y-47916D01*
X94382Y-47999D01*
X94491Y-48044D01*
X94504Y-48044D01*
X94504Y-48058D01*
X94549Y-48166D01*
X94632Y-48249D01*
X94741Y-48294D01*
X94754Y-48294D01*
X94754Y-48308D01*
X94799Y-48416D01*
X94882Y-48499D01*
X94991Y-48544D01*
X95108Y-48545D01*
X95216Y-48500D01*
X95299Y-48417D01*
X95305Y-48402D01*
X96093Y-49190D01*
X93095Y-49190D01*
X93095Y-47991D01*
X93050Y-47883D01*
X92967Y-47800D01*
X92858Y-47755D01*
X92845Y-47755D01*
X92845Y-47741D01*
X92800Y-47633D01*
X92717Y-47550D01*
X92608Y-47505D01*
X92491Y-47504D01*
X92383Y-47549D01*
X92300Y-47632D01*
X92255Y-47741D01*
X92254Y-47858D01*
X92299Y-47966D01*
X92382Y-48049D01*
X92491Y-48094D01*
X92504Y-48094D01*
X92504Y-48108D01*
X92549Y-48216D01*
X92632Y-48299D01*
X92741Y-48344D01*
X92858Y-48345D01*
X92966Y-48300D01*
X93049Y-48217D01*
X93094Y-48108D01*
X93095Y-47991D01*
X93095Y-49190D01*
X90645Y-49190D01*
X90645Y-47991D01*
X90600Y-47883D01*
X90592Y-47875D01*
X90599Y-47867D01*
X90644Y-47758D01*
X90645Y-47641D01*
X90600Y-47533D01*
X90517Y-47450D01*
X90408Y-47405D01*
X90291Y-47404D01*
X90183Y-47449D01*
X90100Y-47532D01*
X90055Y-47641D01*
X90054Y-47758D01*
X90099Y-47866D01*
X90107Y-47874D01*
X90100Y-47882D01*
X90055Y-47991D01*
X90054Y-48108D01*
X90099Y-48216D01*
X90182Y-48299D01*
X90291Y-48344D01*
X90408Y-48345D01*
X90516Y-48300D01*
X90599Y-48217D01*
X90644Y-48108D01*
X90645Y-47991D01*
X90645Y-49190D01*
X89345Y-49190D01*
X89345Y-48091D01*
X89300Y-47983D01*
X89292Y-47975D01*
X89299Y-47967D01*
X89344Y-47858D01*
X89345Y-47741D01*
X89300Y-47633D01*
X89217Y-47550D01*
X89108Y-47505D01*
X89005Y-47504D01*
X89016Y-47500D01*
X89099Y-47417D01*
X89144Y-47308D01*
X89145Y-47229D01*
X89216Y-47200D01*
X89299Y-47117D01*
X89344Y-47008D01*
X89345Y-46891D01*
X89300Y-46783D01*
X89217Y-46700D01*
X89108Y-46655D01*
X89029Y-46654D01*
X89000Y-46583D01*
X88917Y-46500D01*
X88808Y-46455D01*
X88691Y-46454D01*
X88583Y-46499D01*
X88500Y-46582D01*
X88455Y-46691D01*
X88454Y-46790D01*
X84800Y-46790D01*
X84799Y-46790D01*
X84784Y-46793D01*
X84719Y-46805D01*
X84651Y-46851D01*
X84651Y-46851D01*
X84498Y-47004D01*
X84441Y-47004D01*
X84333Y-47049D01*
X84250Y-47132D01*
X84205Y-47241D01*
X84204Y-47358D01*
X84249Y-47466D01*
X84332Y-47549D01*
X84441Y-47594D01*
X84558Y-47595D01*
X84666Y-47550D01*
X84699Y-47517D01*
X84732Y-47549D01*
X84841Y-47594D01*
X84958Y-47595D01*
X85066Y-47550D01*
X85074Y-47542D01*
X85082Y-47549D01*
X85191Y-47594D01*
X85308Y-47595D01*
X85416Y-47550D01*
X85499Y-47467D01*
X85544Y-47358D01*
X85545Y-47241D01*
X85532Y-47210D01*
X88555Y-47210D01*
X88554Y-47308D01*
X88599Y-47416D01*
X88682Y-47499D01*
X88791Y-47544D01*
X88894Y-47545D01*
X88883Y-47549D01*
X88800Y-47632D01*
X88755Y-47741D01*
X88754Y-47858D01*
X88799Y-47966D01*
X88807Y-47974D01*
X88800Y-47982D01*
X88755Y-48091D01*
X88754Y-48208D01*
X88799Y-48316D01*
X88882Y-48399D01*
X88991Y-48444D01*
X89108Y-48445D01*
X89216Y-48400D01*
X89299Y-48317D01*
X89344Y-48208D01*
X89345Y-48091D01*
X89345Y-49190D01*
X87745Y-49190D01*
X87745Y-48291D01*
X87700Y-48183D01*
X87617Y-48100D01*
X87508Y-48055D01*
X87395Y-48054D01*
X87395Y-47691D01*
X87350Y-47583D01*
X87267Y-47500D01*
X87158Y-47455D01*
X87041Y-47454D01*
X86957Y-47489D01*
X86917Y-47450D01*
X86808Y-47405D01*
X86691Y-47404D01*
X86583Y-47449D01*
X86500Y-47532D01*
X86455Y-47641D01*
X86454Y-47758D01*
X86499Y-47866D01*
X86582Y-47949D01*
X86691Y-47994D01*
X86808Y-47995D01*
X86892Y-47960D01*
X86932Y-47999D01*
X87041Y-48044D01*
X87158Y-48045D01*
X87266Y-48000D01*
X87349Y-47917D01*
X87394Y-47808D01*
X87395Y-47691D01*
X87395Y-48054D01*
X87391Y-48054D01*
X87283Y-48099D01*
X87200Y-48182D01*
X87155Y-48291D01*
X87154Y-48408D01*
X87199Y-48516D01*
X87282Y-48599D01*
X87391Y-48644D01*
X87508Y-48645D01*
X87616Y-48600D01*
X87699Y-48517D01*
X87744Y-48408D01*
X87745Y-48291D01*
X87745Y-49190D01*
X86086Y-49190D01*
X85048Y-48151D01*
X84980Y-48105D01*
X84971Y-48104D01*
X84917Y-48050D01*
X84808Y-48005D01*
X84691Y-48004D01*
X84583Y-48049D01*
X84514Y-48118D01*
X84500Y-48083D01*
X84417Y-48000D01*
X84308Y-47955D01*
X84191Y-47954D01*
X84083Y-47999D01*
X84000Y-48082D01*
X83955Y-48191D01*
X83955Y-48205D01*
X83891Y-48204D01*
X83783Y-48249D01*
X83700Y-48332D01*
X83655Y-48441D01*
X83654Y-48558D01*
X83699Y-48666D01*
X83782Y-48749D01*
X83782Y-48750D01*
X83700Y-48832D01*
X83655Y-48941D01*
X83654Y-49058D01*
X83699Y-49166D01*
X83737Y-49205D01*
X83641Y-49204D01*
X83585Y-49228D01*
X83195Y-49228D01*
X83195Y-48191D01*
X83150Y-48083D01*
X83067Y-48000D01*
X82995Y-47970D01*
X82995Y-47241D01*
X82950Y-47133D01*
X82867Y-47050D01*
X82758Y-47005D01*
X82641Y-47004D01*
X82533Y-47049D01*
X82450Y-47132D01*
X82405Y-47241D01*
X82404Y-47358D01*
X82449Y-47466D01*
X82532Y-47549D01*
X82641Y-47594D01*
X82758Y-47595D01*
X82866Y-47550D01*
X82949Y-47467D01*
X82994Y-47358D01*
X82995Y-47241D01*
X82995Y-47970D01*
X82958Y-47955D01*
X82841Y-47954D01*
X82733Y-47999D01*
X82700Y-48032D01*
X82667Y-48000D01*
X82558Y-47955D01*
X82441Y-47954D01*
X82333Y-47999D01*
X82250Y-48082D01*
X82205Y-48191D01*
X82204Y-48308D01*
X82249Y-48416D01*
X82332Y-48499D01*
X82441Y-48544D01*
X82558Y-48545D01*
X82666Y-48500D01*
X82699Y-48467D01*
X82732Y-48499D01*
X82841Y-48544D01*
X82958Y-48545D01*
X83066Y-48500D01*
X83149Y-48417D01*
X83194Y-48308D01*
X83195Y-48191D01*
X83195Y-49228D01*
X82962Y-49228D01*
X82881Y-49243D01*
X82813Y-49289D01*
X82401Y-49701D01*
X82355Y-49769D01*
X82340Y-49850D01*
X82340Y-51142D01*
X82300Y-51182D01*
X82255Y-51291D01*
X82254Y-51408D01*
X82299Y-51516D01*
X82307Y-51524D01*
X82300Y-51532D01*
X82255Y-51641D01*
X82254Y-51758D01*
X82299Y-51866D01*
X82307Y-51874D01*
X82300Y-51882D01*
X82255Y-51991D01*
X82254Y-52108D01*
X82299Y-52216D01*
X82382Y-52299D01*
X82491Y-52344D01*
X82608Y-52345D01*
X82716Y-52300D01*
X82758Y-52258D01*
X82830Y-52244D01*
X82898Y-52198D01*
X83701Y-51395D01*
X83758Y-51395D01*
X83866Y-51350D01*
X83949Y-51267D01*
X83994Y-51158D01*
X83995Y-51041D01*
X83950Y-50933D01*
X83867Y-50850D01*
X83758Y-50805D01*
X83641Y-50804D01*
X83533Y-50849D01*
X83525Y-50857D01*
X83517Y-50850D01*
X83408Y-50805D01*
X83291Y-50804D01*
X83183Y-50849D01*
X83100Y-50932D01*
X83055Y-51041D01*
X83055Y-51098D01*
X82845Y-51307D01*
X82845Y-51291D01*
X82800Y-51183D01*
X82760Y-51142D01*
X82760Y-50027D01*
X82782Y-50049D01*
X82891Y-50094D01*
X83008Y-50095D01*
X83092Y-50060D01*
X83132Y-50099D01*
X83241Y-50144D01*
X83298Y-50144D01*
X83301Y-50148D01*
X83301Y-50148D01*
X83342Y-50175D01*
X83369Y-50194D01*
X83369Y-50194D01*
X83450Y-50210D01*
X85267Y-50210D01*
X85255Y-50241D01*
X85254Y-50358D01*
X85299Y-50466D01*
X85382Y-50549D01*
X85491Y-50594D01*
X85608Y-50595D01*
X85716Y-50550D01*
X85791Y-50475D01*
X85819Y-50494D01*
X85819Y-50494D01*
X85884Y-50506D01*
X85899Y-50510D01*
X85899Y-50509D01*
X85900Y-50510D01*
X86395Y-50510D01*
X86355Y-50569D01*
X86340Y-50650D01*
X86340Y-51305D01*
X86241Y-51304D01*
X86133Y-51349D01*
X86050Y-51432D01*
X86005Y-51541D01*
X86004Y-51658D01*
X86049Y-51766D01*
X86132Y-51849D01*
X86241Y-51894D01*
X86340Y-51895D01*
X86340Y-53663D01*
X86139Y-53863D01*
X86093Y-53931D01*
X86078Y-54012D01*
X86078Y-54062D01*
X86058Y-54055D01*
X86045Y-54055D01*
X86045Y-54041D01*
X86000Y-53933D01*
X85917Y-53850D01*
X85808Y-53805D01*
X85691Y-53804D01*
X85583Y-53849D01*
X85500Y-53932D01*
X85455Y-54041D01*
X85454Y-54158D01*
X85499Y-54266D01*
X85582Y-54349D01*
X85691Y-54394D01*
X85704Y-54394D01*
X85704Y-54408D01*
X85749Y-54516D01*
X85832Y-54599D01*
X85941Y-54644D01*
X86008Y-54645D01*
X85963Y-54690D01*
X84957Y-54690D01*
X84917Y-54650D01*
X84808Y-54605D01*
X84795Y-54605D01*
X84795Y-50541D01*
X84750Y-50433D01*
X84667Y-50350D01*
X84558Y-50305D01*
X84441Y-50304D01*
X84333Y-50349D01*
X84250Y-50432D01*
X84205Y-50541D01*
X84204Y-50658D01*
X84249Y-50766D01*
X84332Y-50849D01*
X84441Y-50894D01*
X84558Y-50895D01*
X84666Y-50850D01*
X84749Y-50767D01*
X84794Y-50658D01*
X84795Y-50541D01*
X84795Y-54605D01*
X84691Y-54604D01*
X84583Y-54649D01*
X84500Y-54732D01*
X84455Y-54841D01*
X84454Y-54958D01*
X84499Y-55066D01*
X84582Y-55149D01*
X84691Y-55194D01*
X84808Y-55195D01*
X84916Y-55150D01*
X84957Y-55110D01*
X86050Y-55110D01*
X86130Y-55094D01*
X86198Y-55048D01*
X86436Y-54810D01*
X86436Y-54810D01*
X86436Y-54810D01*
X86463Y-54769D01*
X86482Y-54742D01*
X86482Y-54742D01*
X86498Y-54662D01*
X86498Y-54644D01*
X87301Y-55448D01*
X87301Y-55448D01*
X87342Y-55475D01*
X87369Y-55494D01*
X87369Y-55494D01*
X87450Y-55510D01*
X87567Y-55510D01*
X87555Y-55541D01*
X87554Y-55658D01*
X87577Y-55712D01*
X87558Y-55705D01*
X87441Y-55704D01*
X87333Y-55749D01*
X87250Y-55832D01*
X87205Y-55941D01*
X87204Y-56058D01*
X87217Y-56090D01*
X85786Y-56090D01*
X85717Y-56020D01*
X85766Y-56000D01*
X85849Y-55917D01*
X85894Y-55808D01*
X85895Y-55691D01*
X85850Y-55583D01*
X85767Y-55500D01*
X85658Y-55455D01*
X85541Y-55454D01*
X85433Y-55499D01*
X85350Y-55582D01*
X85340Y-55605D01*
X85241Y-55604D01*
X85133Y-55649D01*
X85125Y-55657D01*
X85117Y-55650D01*
X85008Y-55605D01*
X84891Y-55604D01*
X84783Y-55649D01*
X84700Y-55732D01*
X84655Y-55841D01*
X84654Y-55958D01*
X84699Y-56066D01*
X84782Y-56149D01*
X84891Y-56194D01*
X85008Y-56195D01*
X85116Y-56150D01*
X85124Y-56142D01*
X85132Y-56149D01*
X85241Y-56194D01*
X85298Y-56194D01*
X85551Y-56448D01*
X85551Y-56448D01*
X85619Y-56494D01*
X85619Y-56494D01*
X85684Y-56506D01*
X85699Y-56510D01*
X85699Y-56509D01*
X85700Y-56510D01*
X88092Y-56510D01*
X88132Y-56549D01*
X88241Y-56594D01*
X88358Y-56595D01*
X88466Y-56550D01*
X88549Y-56467D01*
X88594Y-56358D01*
X88595Y-56241D01*
X88550Y-56133D01*
X88467Y-56050D01*
X88358Y-56005D01*
X88241Y-56004D01*
X88133Y-56049D01*
X88124Y-56058D01*
X88144Y-56008D01*
X88145Y-55891D01*
X88100Y-55783D01*
X88092Y-55775D01*
X88099Y-55767D01*
X88144Y-55658D01*
X88145Y-55575D01*
X88191Y-55594D01*
X88205Y-55594D01*
X88204Y-55658D01*
X88249Y-55766D01*
X88332Y-55849D01*
X88441Y-55894D01*
X88558Y-55895D01*
X88666Y-55850D01*
X88749Y-55767D01*
X88794Y-55658D01*
X88795Y-55559D01*
X88816Y-55550D01*
X88899Y-55467D01*
X88944Y-55358D01*
X88945Y-55241D01*
X88900Y-55133D01*
X88817Y-55050D01*
X88708Y-55005D01*
X88591Y-55004D01*
X88545Y-55024D01*
X88545Y-53441D01*
X88500Y-53333D01*
X88417Y-53250D01*
X88308Y-53205D01*
X88191Y-53204D01*
X88083Y-53249D01*
X88000Y-53332D01*
X87955Y-53441D01*
X87954Y-53558D01*
X87999Y-53666D01*
X88082Y-53749D01*
X88191Y-53794D01*
X88308Y-53795D01*
X88416Y-53750D01*
X88499Y-53667D01*
X88544Y-53558D01*
X88545Y-53441D01*
X88545Y-55024D01*
X88483Y-55049D01*
X88450Y-55082D01*
X88417Y-55050D01*
X88308Y-55005D01*
X88191Y-55004D01*
X88083Y-55049D01*
X88042Y-55090D01*
X87536Y-55090D01*
X86660Y-54213D01*
X86660Y-54186D01*
X86948Y-53898D01*
X86948Y-53898D01*
X86948Y-53898D01*
X86994Y-53830D01*
X86994Y-53830D01*
X87006Y-53765D01*
X87010Y-53750D01*
X87009Y-53750D01*
X87010Y-53750D01*
X87010Y-50957D01*
X87049Y-50917D01*
X87094Y-50808D01*
X87095Y-50710D01*
X87646Y-50710D01*
X87649Y-50716D01*
X87732Y-50799D01*
X87793Y-50825D01*
X87733Y-50849D01*
X87650Y-50932D01*
X87605Y-51041D01*
X87604Y-51158D01*
X87649Y-51266D01*
X87732Y-51349D01*
X87841Y-51394D01*
X87898Y-51394D01*
X88001Y-51498D01*
X88001Y-51498D01*
X88069Y-51544D01*
X88069Y-51544D01*
X88150Y-51560D01*
X96146Y-51560D01*
X96149Y-51566D01*
X96232Y-51649D01*
X96341Y-51694D01*
X96458Y-51695D01*
X96566Y-51650D01*
X96649Y-51567D01*
X96659Y-51544D01*
X96758Y-51545D01*
X96866Y-51500D01*
X96949Y-51417D01*
X96994Y-51308D01*
X96995Y-51209D01*
X97016Y-51200D01*
X97099Y-51117D01*
X97144Y-51008D01*
X97145Y-50891D01*
X97100Y-50783D01*
X97017Y-50700D01*
X96908Y-50655D01*
X96844Y-50654D01*
X96845Y-50591D01*
X96800Y-50483D01*
X96717Y-50400D01*
X96608Y-50355D01*
X96531Y-50354D01*
X96523Y-50348D01*
X97212Y-50348D01*
X97292Y-50332D01*
X97360Y-50286D01*
X98839Y-48807D01*
X98805Y-48891D01*
X98804Y-49008D01*
X98849Y-49116D01*
X98932Y-49199D01*
X99041Y-49244D01*
X99158Y-49245D01*
X99266Y-49200D01*
X99349Y-49117D01*
X99394Y-49008D01*
X99395Y-48891D01*
X99395Y-49891D01*
X99350Y-49783D01*
X99267Y-49700D01*
X99158Y-49655D01*
X99041Y-49654D01*
X98933Y-49699D01*
X98850Y-49782D01*
X98805Y-49891D01*
X98804Y-50008D01*
X98849Y-50116D01*
X98932Y-50199D01*
X99041Y-50244D01*
X99158Y-50245D01*
X99266Y-50200D01*
X99349Y-50117D01*
X99394Y-50008D01*
X99395Y-49891D01*
X99395Y-50891D01*
X99350Y-50783D01*
X99267Y-50700D01*
X99158Y-50655D01*
X99041Y-50654D01*
X98933Y-50699D01*
X98850Y-50782D01*
X98805Y-50891D01*
X98804Y-51008D01*
X98849Y-51116D01*
X98932Y-51199D01*
X99041Y-51244D01*
X99158Y-51245D01*
X99266Y-51200D01*
X99349Y-51117D01*
X99394Y-51008D01*
X99395Y-50891D01*
X99395Y-51891D01*
X99350Y-51783D01*
X99267Y-51700D01*
X99158Y-51655D01*
X99041Y-51654D01*
X98933Y-51699D01*
X98850Y-51782D01*
X98805Y-51891D01*
X98804Y-52008D01*
X98849Y-52116D01*
X98932Y-52199D01*
X99041Y-52244D01*
X99158Y-52245D01*
X99266Y-52200D01*
X99349Y-52117D01*
X99394Y-52008D01*
X99395Y-51891D01*
X99395Y-52891D01*
X99350Y-52783D01*
X99267Y-52700D01*
X99158Y-52655D01*
X99041Y-52654D01*
X98933Y-52699D01*
X98850Y-52782D01*
X98805Y-52891D01*
X98804Y-53008D01*
X98849Y-53116D01*
X98932Y-53199D01*
X99041Y-53244D01*
X99158Y-53245D01*
X99266Y-53200D01*
X99349Y-53117D01*
X99394Y-53008D01*
X99395Y-52891D01*
X99395Y-53891D01*
X99350Y-53783D01*
X99267Y-53700D01*
X99158Y-53655D01*
X99041Y-53654D01*
X98933Y-53699D01*
X98850Y-53782D01*
X98805Y-53891D01*
X98804Y-54008D01*
X98849Y-54116D01*
X98932Y-54199D01*
X99041Y-54244D01*
X99158Y-54245D01*
X99266Y-54200D01*
X99349Y-54117D01*
X99394Y-54008D01*
X99395Y-53891D01*
X99395Y-54654D01*
X99341Y-54654D01*
X99233Y-54699D01*
X99150Y-54782D01*
X99105Y-54891D01*
X99104Y-55008D01*
X99149Y-55116D01*
X99232Y-55199D01*
X99341Y-55244D01*
X99458Y-55245D01*
X99490Y-55232D01*
X99490Y-55713D01*
X98475Y-56728D01*
X98062Y-56728D01*
X98061Y-56728D01*
X98046Y-56731D01*
X97981Y-56743D01*
X97913Y-56789D01*
X97913Y-56789D01*
X97395Y-57307D01*
X97395Y-57091D01*
X97350Y-56983D01*
X97267Y-56900D01*
X97158Y-56855D01*
X97041Y-56854D01*
X96933Y-56899D01*
X96912Y-56920D01*
X96892Y-56900D01*
X96783Y-56855D01*
X96666Y-56854D01*
X96558Y-56899D01*
X96537Y-56920D01*
X96517Y-56900D01*
X96408Y-56855D01*
X96291Y-56854D01*
X96183Y-56899D01*
X96100Y-56982D01*
X96055Y-57091D01*
X96054Y-57208D01*
X96099Y-57316D01*
X96182Y-57399D01*
X96291Y-57444D01*
X96408Y-57445D01*
X96516Y-57400D01*
X96537Y-57379D01*
X96557Y-57399D01*
X96666Y-57444D01*
X96783Y-57445D01*
X96891Y-57400D01*
X96912Y-57379D01*
X96932Y-57399D01*
X97041Y-57444D01*
X97158Y-57445D01*
X97266Y-57400D01*
X97349Y-57317D01*
X97394Y-57208D01*
X97395Y-57091D01*
X97395Y-57307D01*
X97225Y-57478D01*
X95945Y-57478D01*
X95945Y-57091D01*
X95900Y-56983D01*
X95817Y-56900D01*
X95708Y-56855D01*
X95695Y-56855D01*
X95695Y-51841D01*
X95650Y-51733D01*
X95567Y-51650D01*
X95458Y-51605D01*
X95341Y-51604D01*
X95233Y-51649D01*
X95150Y-51732D01*
X95105Y-51841D01*
X95104Y-51958D01*
X95149Y-52066D01*
X95232Y-52149D01*
X95341Y-52194D01*
X95458Y-52195D01*
X95566Y-52150D01*
X95649Y-52067D01*
X95694Y-51958D01*
X95695Y-51841D01*
X95695Y-56855D01*
X95591Y-56854D01*
X95483Y-56899D01*
X95400Y-56982D01*
X95355Y-57091D01*
X95354Y-57208D01*
X95399Y-57316D01*
X95482Y-57399D01*
X95591Y-57444D01*
X95708Y-57445D01*
X95816Y-57400D01*
X95899Y-57317D01*
X95944Y-57208D01*
X95945Y-57091D01*
X95945Y-57478D01*
X95245Y-57478D01*
X95245Y-57091D01*
X95200Y-56983D01*
X95117Y-56900D01*
X95008Y-56855D01*
X94891Y-56854D01*
X94783Y-56899D01*
X94700Y-56982D01*
X94655Y-57091D01*
X94654Y-57208D01*
X94699Y-57316D01*
X94782Y-57399D01*
X94891Y-57444D01*
X95008Y-57445D01*
X95116Y-57400D01*
X95199Y-57317D01*
X95244Y-57208D01*
X95245Y-57091D01*
X95245Y-57478D01*
X94545Y-57478D01*
X94545Y-57091D01*
X94500Y-56983D01*
X94417Y-56900D01*
X94308Y-56855D01*
X94191Y-56854D01*
X94083Y-56899D01*
X94000Y-56982D01*
X93955Y-57091D01*
X93954Y-57208D01*
X93999Y-57316D01*
X94082Y-57399D01*
X94191Y-57444D01*
X94308Y-57445D01*
X94416Y-57400D01*
X94499Y-57317D01*
X94544Y-57208D01*
X94545Y-57091D01*
X94545Y-57478D01*
X93845Y-57478D01*
X93845Y-57091D01*
X93800Y-56983D01*
X93717Y-56900D01*
X93608Y-56855D01*
X93491Y-56854D01*
X93383Y-56899D01*
X93362Y-56920D01*
X93342Y-56900D01*
X93233Y-56855D01*
X93116Y-56854D01*
X93008Y-56899D01*
X92987Y-56920D01*
X92967Y-56900D01*
X92858Y-56855D01*
X92741Y-56854D01*
X92633Y-56899D01*
X92612Y-56920D01*
X92592Y-56900D01*
X92483Y-56855D01*
X92366Y-56854D01*
X92258Y-56899D01*
X92237Y-56920D01*
X92217Y-56900D01*
X92108Y-56855D01*
X91991Y-56854D01*
X91883Y-56899D01*
X91800Y-56982D01*
X91755Y-57091D01*
X91754Y-57208D01*
X91799Y-57316D01*
X91882Y-57399D01*
X91991Y-57444D01*
X92108Y-57445D01*
X92216Y-57400D01*
X92237Y-57379D01*
X92257Y-57399D01*
X92366Y-57444D01*
X92483Y-57445D01*
X92591Y-57400D01*
X92612Y-57379D01*
X92632Y-57399D01*
X92741Y-57444D01*
X92858Y-57445D01*
X92966Y-57400D01*
X92987Y-57379D01*
X93007Y-57399D01*
X93116Y-57444D01*
X93233Y-57445D01*
X93341Y-57400D01*
X93362Y-57379D01*
X93382Y-57399D01*
X93491Y-57444D01*
X93608Y-57445D01*
X93716Y-57400D01*
X93799Y-57317D01*
X93844Y-57208D01*
X93845Y-57091D01*
X93845Y-57478D01*
X91645Y-57478D01*
X91645Y-57091D01*
X91600Y-56983D01*
X91517Y-56900D01*
X91408Y-56855D01*
X91291Y-56854D01*
X91183Y-56899D01*
X91100Y-56982D01*
X91055Y-57091D01*
X91054Y-57208D01*
X91099Y-57316D01*
X91182Y-57399D01*
X91291Y-57444D01*
X91408Y-57445D01*
X91516Y-57400D01*
X91599Y-57317D01*
X91644Y-57208D01*
X91645Y-57091D01*
X91645Y-57478D01*
X87444Y-57478D01*
X87445Y-57366D01*
X87400Y-57258D01*
X87317Y-57175D01*
X87208Y-57130D01*
X87091Y-57129D01*
X86983Y-57174D01*
X86900Y-57257D01*
X86855Y-57366D01*
X86854Y-57478D01*
X85824Y-57478D01*
X85548Y-57201D01*
X85480Y-57155D01*
X85400Y-57140D01*
X85200Y-57140D01*
X85119Y-57155D01*
X85051Y-57201D01*
X84937Y-57316D01*
X84445Y-57316D01*
X84445Y-51441D01*
X84400Y-51333D01*
X84317Y-51250D01*
X84208Y-51205D01*
X84091Y-51204D01*
X83983Y-51249D01*
X83900Y-51332D01*
X83855Y-51441D01*
X83855Y-51454D01*
X83841Y-51454D01*
X83733Y-51499D01*
X83650Y-51582D01*
X83605Y-51691D01*
X83604Y-51808D01*
X83649Y-51916D01*
X83732Y-51999D01*
X83841Y-52044D01*
X83958Y-52045D01*
X84066Y-52000D01*
X84149Y-51917D01*
X84194Y-51808D01*
X84194Y-51795D01*
X84208Y-51795D01*
X84316Y-51750D01*
X84399Y-51667D01*
X84444Y-51558D01*
X84445Y-51441D01*
X84445Y-57316D01*
X83750Y-57316D01*
X83771Y-57265D01*
X83841Y-57294D01*
X83958Y-57295D01*
X84066Y-57250D01*
X84149Y-57167D01*
X84194Y-57058D01*
X84195Y-56941D01*
X84150Y-56833D01*
X84067Y-56750D01*
X83958Y-56705D01*
X83841Y-56704D01*
X83733Y-56749D01*
X83650Y-56832D01*
X83628Y-56884D01*
X83558Y-56855D01*
X83441Y-56854D01*
X83333Y-56899D01*
X83250Y-56982D01*
X83205Y-57091D01*
X83204Y-57208D01*
X83249Y-57316D01*
X82992Y-57316D01*
X82994Y-57308D01*
X82995Y-57191D01*
X82950Y-57083D01*
X82867Y-57000D01*
X82758Y-56955D01*
X82641Y-56954D01*
X82533Y-56999D01*
X82525Y-57007D01*
X82517Y-57000D01*
X82408Y-56955D01*
X82291Y-56954D01*
X82183Y-56999D01*
X82100Y-57082D01*
X82094Y-57097D01*
X81736Y-56739D01*
X81668Y-56693D01*
X81588Y-56678D01*
X80145Y-56678D01*
X80145Y-55841D01*
X80100Y-55733D01*
X80095Y-55727D01*
X80095Y-51041D01*
X80050Y-50933D01*
X80042Y-50925D01*
X80049Y-50917D01*
X80094Y-50808D01*
X80095Y-50691D01*
X80050Y-50583D01*
X79967Y-50500D01*
X79858Y-50455D01*
X79779Y-50454D01*
X79750Y-50383D01*
X79667Y-50300D01*
X79595Y-50270D01*
X79595Y-49441D01*
X79550Y-49333D01*
X79542Y-49325D01*
X79549Y-49317D01*
X79594Y-49208D01*
X79595Y-49091D01*
X79550Y-48983D01*
X79510Y-48942D01*
X79544Y-48858D01*
X79545Y-48741D01*
X79500Y-48633D01*
X79417Y-48550D01*
X79308Y-48505D01*
X79255Y-48505D01*
X79294Y-48408D01*
X79295Y-48291D01*
X79250Y-48183D01*
X79167Y-48100D01*
X79058Y-48055D01*
X78941Y-48054D01*
X78833Y-48099D01*
X78750Y-48182D01*
X78705Y-48291D01*
X78704Y-48408D01*
X78749Y-48516D01*
X78832Y-48599D01*
X78941Y-48644D01*
X78994Y-48644D01*
X78955Y-48741D01*
X78954Y-48858D01*
X78999Y-48966D01*
X79039Y-49007D01*
X79005Y-49091D01*
X79004Y-49208D01*
X79049Y-49316D01*
X79057Y-49324D01*
X79050Y-49332D01*
X79005Y-49441D01*
X79004Y-49558D01*
X79049Y-49666D01*
X79132Y-49749D01*
X79241Y-49794D01*
X79358Y-49795D01*
X79466Y-49750D01*
X79549Y-49667D01*
X79594Y-49558D01*
X79595Y-49441D01*
X79595Y-50270D01*
X79558Y-50255D01*
X79479Y-50254D01*
X79450Y-50183D01*
X79367Y-50100D01*
X79258Y-50055D01*
X79141Y-50054D01*
X79033Y-50099D01*
X78950Y-50182D01*
X78905Y-50291D01*
X78904Y-50408D01*
X78949Y-50516D01*
X79032Y-50599D01*
X79141Y-50644D01*
X79220Y-50645D01*
X79249Y-50716D01*
X79332Y-50799D01*
X79441Y-50844D01*
X79520Y-50845D01*
X79549Y-50916D01*
X79557Y-50924D01*
X79550Y-50932D01*
X79520Y-51005D01*
X79441Y-51004D01*
X79333Y-51049D01*
X79250Y-51132D01*
X79220Y-51205D01*
X79141Y-51204D01*
X79033Y-51249D01*
X78950Y-51332D01*
X78905Y-51441D01*
X78904Y-51558D01*
X78949Y-51666D01*
X79032Y-51749D01*
X79141Y-51794D01*
X79258Y-51795D01*
X79366Y-51750D01*
X79449Y-51667D01*
X79479Y-51594D01*
X79558Y-51595D01*
X79666Y-51550D01*
X79749Y-51467D01*
X79779Y-51394D01*
X79858Y-51395D01*
X79966Y-51350D01*
X80049Y-51267D01*
X80094Y-51158D01*
X80095Y-51041D01*
X80095Y-55727D01*
X80017Y-55650D01*
X79908Y-55605D01*
X79791Y-55604D01*
X79683Y-55649D01*
X79600Y-55732D01*
X79555Y-55841D01*
X79554Y-55958D01*
X79599Y-56066D01*
X79682Y-56149D01*
X79791Y-56194D01*
X79908Y-56195D01*
X80016Y-56150D01*
X80099Y-56067D01*
X80144Y-55958D01*
X80145Y-55841D01*
X80145Y-56678D01*
X79812Y-56678D01*
X79731Y-56693D01*
X79715Y-56705D01*
X79641Y-56704D01*
X79533Y-56749D01*
X79450Y-56832D01*
X79405Y-56941D01*
X79404Y-57058D01*
X79449Y-57166D01*
X79532Y-57249D01*
X79641Y-57294D01*
X79724Y-57295D01*
X79705Y-57341D01*
X79704Y-57458D01*
X79749Y-57566D01*
X79832Y-57649D01*
X79941Y-57694D01*
X79998Y-57694D01*
X80787Y-58484D01*
X80787Y-58484D01*
X80855Y-58530D01*
X80855Y-58530D01*
X80920Y-58542D01*
X80935Y-58546D01*
X80935Y-58545D01*
X80936Y-58546D01*
X90555Y-58546D01*
X90554Y-58658D01*
X90574Y-58705D01*
X80235Y-58705D01*
X80263Y-58652D01*
X80263Y-58651D01*
X80286Y-58577D01*
X80294Y-58501D01*
X80294Y-58500D01*
X80286Y-58423D01*
X80264Y-58350D01*
X80264Y-58350D01*
X80227Y-58281D01*
X80179Y-58222D01*
X80179Y-58222D01*
X80119Y-58172D01*
X80052Y-58136D01*
X80051Y-58136D01*
X79977Y-58113D01*
X79901Y-58105D01*
X79901Y-58105D01*
X79823Y-58113D01*
X79750Y-58135D01*
X79750Y-58135D01*
X79681Y-58172D01*
X79622Y-58220D01*
X79622Y-58220D01*
X79572Y-58280D01*
X79536Y-58347D01*
X79536Y-58348D01*
X79513Y-58422D01*
X79505Y-58498D01*
X79513Y-58576D01*
X79535Y-58649D01*
X79535Y-58649D01*
X79564Y-58705D01*
X79395Y-58705D01*
X79395Y-55841D01*
X79350Y-55733D01*
X79267Y-55650D01*
X79158Y-55605D01*
X79041Y-55604D01*
X78933Y-55649D01*
X78850Y-55732D01*
X78805Y-55841D01*
X78804Y-55958D01*
X78849Y-56066D01*
X78932Y-56149D01*
X79041Y-56194D01*
X79158Y-56195D01*
X79266Y-56150D01*
X79349Y-56067D01*
X79394Y-55958D01*
X79395Y-55841D01*
X79395Y-58705D01*
X78925Y-58705D01*
X78925Y-57925D01*
X78925Y-57474D01*
X78924Y-57375D01*
X78886Y-57283D01*
X78816Y-57212D01*
X78724Y-57174D01*
X78512Y-57175D01*
X78450Y-57237D01*
X78450Y-57650D01*
X78862Y-57650D01*
X78925Y-57587D01*
X78925Y-57474D01*
X78925Y-57925D01*
X78925Y-57812D01*
X78862Y-57750D01*
X78450Y-57750D01*
X78450Y-58162D01*
X78512Y-58225D01*
X78724Y-58225D01*
X78816Y-58187D01*
X78886Y-58116D01*
X78924Y-58024D01*
X78925Y-57925D01*
X78925Y-58705D01*
X78445Y-58705D01*
X78445Y-48791D01*
X78400Y-48683D01*
X78317Y-48600D01*
X78208Y-48555D01*
X78150Y-48554D01*
X78150Y-48049D01*
X78150Y-47350D01*
X78112Y-47258D01*
X78041Y-47188D01*
X77949Y-47150D01*
X77850Y-47149D01*
X77741Y-47149D01*
X77865Y-47098D01*
X77998Y-46966D01*
X78069Y-46793D01*
X78070Y-46606D01*
X78070Y-45606D01*
X78070Y-44606D01*
X77998Y-44434D01*
X77866Y-44301D01*
X77693Y-44230D01*
X77506Y-44229D01*
X77334Y-44301D01*
X77201Y-44433D01*
X77130Y-44606D01*
X77129Y-44793D01*
X77201Y-44965D01*
X77333Y-45098D01*
X77506Y-45169D01*
X77693Y-45170D01*
X77865Y-45098D01*
X77998Y-44966D01*
X78069Y-44793D01*
X78070Y-44606D01*
X78070Y-45606D01*
X77998Y-45434D01*
X77866Y-45301D01*
X77693Y-45230D01*
X77506Y-45229D01*
X77334Y-45301D01*
X77201Y-45433D01*
X77130Y-45606D01*
X77129Y-45793D01*
X77201Y-45965D01*
X77333Y-46098D01*
X77506Y-46169D01*
X77693Y-46170D01*
X77865Y-46098D01*
X77998Y-45966D01*
X78069Y-45793D01*
X78070Y-45606D01*
X78070Y-46606D01*
X77998Y-46434D01*
X77866Y-46301D01*
X77693Y-46230D01*
X77506Y-46229D01*
X77334Y-46301D01*
X77201Y-46433D01*
X77130Y-46606D01*
X77129Y-46793D01*
X77201Y-46965D01*
X77333Y-47098D01*
X77458Y-47149D01*
X77349Y-47149D01*
X77250Y-47150D01*
X77158Y-47188D01*
X77087Y-47258D01*
X77049Y-47350D01*
X77050Y-47587D01*
X77112Y-47650D01*
X77550Y-47650D01*
X77550Y-47642D01*
X77650Y-47642D01*
X77650Y-47650D01*
X78087Y-47650D01*
X78150Y-47587D01*
X78150Y-47350D01*
X78150Y-48049D01*
X78150Y-47812D01*
X78087Y-47750D01*
X77650Y-47750D01*
X77650Y-48187D01*
X77712Y-48250D01*
X77850Y-48250D01*
X77949Y-48249D01*
X78041Y-48211D01*
X78112Y-48141D01*
X78150Y-48049D01*
X78150Y-48554D01*
X78091Y-48554D01*
X77983Y-48599D01*
X77900Y-48682D01*
X77855Y-48791D01*
X77854Y-48908D01*
X77899Y-49016D01*
X77982Y-49099D01*
X78091Y-49144D01*
X78208Y-49145D01*
X78316Y-49100D01*
X78399Y-49017D01*
X78444Y-48908D01*
X78445Y-48791D01*
X78445Y-58705D01*
X78395Y-58705D01*
X78395Y-53741D01*
X78395Y-49741D01*
X78350Y-49633D01*
X78267Y-49550D01*
X78158Y-49505D01*
X78041Y-49504D01*
X77933Y-49549D01*
X77850Y-49632D01*
X77805Y-49741D01*
X77804Y-49858D01*
X77849Y-49966D01*
X77932Y-50049D01*
X78041Y-50094D01*
X78158Y-50095D01*
X78266Y-50050D01*
X78349Y-49967D01*
X78394Y-49858D01*
X78395Y-49741D01*
X78395Y-53741D01*
X78350Y-53633D01*
X78295Y-53577D01*
X78295Y-51141D01*
X78250Y-51033D01*
X78217Y-51000D01*
X78249Y-50967D01*
X78294Y-50858D01*
X78295Y-50741D01*
X78250Y-50633D01*
X78167Y-50550D01*
X78058Y-50505D01*
X77941Y-50504D01*
X77833Y-50549D01*
X77750Y-50632D01*
X77705Y-50741D01*
X77704Y-50858D01*
X77737Y-50937D01*
X77658Y-50905D01*
X77550Y-50904D01*
X77550Y-48187D01*
X77550Y-47750D01*
X77112Y-47750D01*
X77050Y-47812D01*
X77049Y-48049D01*
X77087Y-48141D01*
X77158Y-48211D01*
X77250Y-48249D01*
X77349Y-48250D01*
X77487Y-48250D01*
X77550Y-48187D01*
X77550Y-50904D01*
X77541Y-50904D01*
X77433Y-50949D01*
X77350Y-51032D01*
X77305Y-51141D01*
X77304Y-51258D01*
X77349Y-51366D01*
X77432Y-51449D01*
X77541Y-51494D01*
X77658Y-51495D01*
X77766Y-51450D01*
X77799Y-51417D01*
X77832Y-51449D01*
X77941Y-51494D01*
X78058Y-51495D01*
X78166Y-51450D01*
X78249Y-51367D01*
X78294Y-51258D01*
X78295Y-51141D01*
X78295Y-53577D01*
X78267Y-53550D01*
X78158Y-53505D01*
X78041Y-53504D01*
X77933Y-53549D01*
X77850Y-53632D01*
X77805Y-53741D01*
X77804Y-53858D01*
X77849Y-53966D01*
X77932Y-54049D01*
X78041Y-54094D01*
X78158Y-54095D01*
X78266Y-54050D01*
X78349Y-53967D01*
X78394Y-53858D01*
X78395Y-53741D01*
X78395Y-58705D01*
X78350Y-58705D01*
X78350Y-58162D01*
X78350Y-57750D01*
X78350Y-57650D01*
X78350Y-57237D01*
X78295Y-57182D01*
X78295Y-54441D01*
X78250Y-54333D01*
X78167Y-54250D01*
X78058Y-54205D01*
X77941Y-54204D01*
X77833Y-54249D01*
X77750Y-54332D01*
X77705Y-54441D01*
X77704Y-54558D01*
X77749Y-54666D01*
X77832Y-54749D01*
X77941Y-54794D01*
X78058Y-54795D01*
X78166Y-54750D01*
X78249Y-54667D01*
X78294Y-54558D01*
X78295Y-54441D01*
X78295Y-57182D01*
X78287Y-57175D01*
X78075Y-57174D01*
X77983Y-57212D01*
X77913Y-57283D01*
X77875Y-57375D01*
X77874Y-57474D01*
X77875Y-57587D01*
X77937Y-57650D01*
X78350Y-57650D01*
X78350Y-57750D01*
X77937Y-57750D01*
X77875Y-57812D01*
X77874Y-57925D01*
X77875Y-58024D01*
X77913Y-58116D01*
X77983Y-58187D01*
X78075Y-58225D01*
X78287Y-58225D01*
X78350Y-58162D01*
X78350Y-58705D01*
X77845Y-58705D01*
X77845Y-57611D01*
X77777Y-57448D01*
X77652Y-57322D01*
X77488Y-57255D01*
X77311Y-57254D01*
X77245Y-57282D01*
X77245Y-53391D01*
X77200Y-53283D01*
X77117Y-53200D01*
X77008Y-53155D01*
X76891Y-53154D01*
X76783Y-53199D01*
X76700Y-53282D01*
X76655Y-53391D01*
X76654Y-53508D01*
X76699Y-53616D01*
X76782Y-53699D01*
X76891Y-53744D01*
X77008Y-53745D01*
X77116Y-53700D01*
X77199Y-53617D01*
X77244Y-53508D01*
X77245Y-53391D01*
X77245Y-57282D01*
X77148Y-57322D01*
X77022Y-57447D01*
X76955Y-57611D01*
X76954Y-57788D01*
X77022Y-57951D01*
X77147Y-58077D01*
X77311Y-58144D01*
X77488Y-58145D01*
X77651Y-58077D01*
X77777Y-57952D01*
X77844Y-57788D01*
X77845Y-57611D01*
X77845Y-58705D01*
X76795Y-58705D01*
X76795Y-55191D01*
X76750Y-55083D01*
X76667Y-55000D01*
X76631Y-54985D01*
X76699Y-54917D01*
X76744Y-54808D01*
X76745Y-54691D01*
X76700Y-54583D01*
X76617Y-54500D01*
X76508Y-54455D01*
X76391Y-54454D01*
X76391Y-54455D01*
X76391Y-42637D01*
X76391Y-42600D01*
X76391Y-42562D01*
X76391Y-42561D01*
X76391Y-42561D01*
X76391Y-42561D01*
X76353Y-42370D01*
X76324Y-42300D01*
X76323Y-42299D01*
X76216Y-42138D01*
X76215Y-42137D01*
X76161Y-42084D01*
X76000Y-41976D01*
X75999Y-41975D01*
X75929Y-41946D01*
X75737Y-41908D01*
X75661Y-41908D01*
X75660Y-41909D01*
X75470Y-41946D01*
X75400Y-41975D01*
X75399Y-41976D01*
X75238Y-42083D01*
X75237Y-42084D01*
X75184Y-42138D01*
X75076Y-42299D01*
X75075Y-42300D01*
X75046Y-42370D01*
X75008Y-42562D01*
X75008Y-42600D01*
X75008Y-42637D01*
X75008Y-42638D01*
X75046Y-42829D01*
X75075Y-42899D01*
X75076Y-42900D01*
X75184Y-43061D01*
X75237Y-43115D01*
X75238Y-43116D01*
X75399Y-43223D01*
X75400Y-43224D01*
X75470Y-43253D01*
X75660Y-43290D01*
X75661Y-43291D01*
X75737Y-43291D01*
X75929Y-43253D01*
X75999Y-43224D01*
X76000Y-43223D01*
X76161Y-43115D01*
X76215Y-43062D01*
X76216Y-43061D01*
X76323Y-42900D01*
X76324Y-42899D01*
X76353Y-42829D01*
X76391Y-42638D01*
X76391Y-42638D01*
X76391Y-42638D01*
X76391Y-42637D01*
X76391Y-54455D01*
X76345Y-54474D01*
X76345Y-52611D01*
X76277Y-52448D01*
X76195Y-52365D01*
X76195Y-50241D01*
X76150Y-50133D01*
X76142Y-50125D01*
X76149Y-50117D01*
X76194Y-50008D01*
X76195Y-49891D01*
X76150Y-49783D01*
X76067Y-49700D01*
X75973Y-49660D01*
X75973Y-49062D01*
X75963Y-48993D01*
X75963Y-48992D01*
X75938Y-48921D01*
X75902Y-48860D01*
X75902Y-48860D01*
X75851Y-48803D01*
X75795Y-48761D01*
X75795Y-48761D01*
X75726Y-48728D01*
X75658Y-48711D01*
X75658Y-48711D01*
X75582Y-48706D01*
X75513Y-48716D01*
X75512Y-48716D01*
X75441Y-48741D01*
X75380Y-48777D01*
X75380Y-48777D01*
X75345Y-48809D01*
X75345Y-47591D01*
X75300Y-47483D01*
X75217Y-47400D01*
X75108Y-47355D01*
X74991Y-47354D01*
X74883Y-47399D01*
X74800Y-47482D01*
X74755Y-47591D01*
X74754Y-47708D01*
X74799Y-47816D01*
X74882Y-47899D01*
X74991Y-47944D01*
X75108Y-47945D01*
X75216Y-47900D01*
X75299Y-47817D01*
X75344Y-47708D01*
X75345Y-47591D01*
X75345Y-48809D01*
X75323Y-48828D01*
X75281Y-48884D01*
X75281Y-48884D01*
X75248Y-48953D01*
X75231Y-49021D01*
X75231Y-49021D01*
X75226Y-49097D01*
X75236Y-49166D01*
X75236Y-49167D01*
X75262Y-49238D01*
X75297Y-49299D01*
X75297Y-49299D01*
X75348Y-49356D01*
X75404Y-49398D01*
X75404Y-49398D01*
X75473Y-49431D01*
X75541Y-49448D01*
X75541Y-49448D01*
X75617Y-49453D01*
X75686Y-49443D01*
X75687Y-49443D01*
X75758Y-49417D01*
X75819Y-49382D01*
X75819Y-49382D01*
X75876Y-49331D01*
X75918Y-49275D01*
X75918Y-49275D01*
X75951Y-49206D01*
X75968Y-49138D01*
X75968Y-49138D01*
X75973Y-49062D01*
X75973Y-49660D01*
X75958Y-49655D01*
X75841Y-49654D01*
X75733Y-49699D01*
X75650Y-49782D01*
X75605Y-49891D01*
X75604Y-50008D01*
X75649Y-50116D01*
X75657Y-50124D01*
X75650Y-50132D01*
X75605Y-50241D01*
X75604Y-50358D01*
X75642Y-50448D01*
X75623Y-50445D01*
X75552Y-50447D01*
X75552Y-50447D01*
X75478Y-50464D01*
X75413Y-50493D01*
X75413Y-50493D01*
X75351Y-50538D01*
X75303Y-50589D01*
X75303Y-50589D01*
X75262Y-50654D01*
X75237Y-50721D01*
X75237Y-50721D01*
X75226Y-50785D01*
X75225Y-50796D01*
X75225Y-50796D01*
X75227Y-50867D01*
X75227Y-50867D01*
X75244Y-50941D01*
X75273Y-51006D01*
X75273Y-51006D01*
X75318Y-51068D01*
X75369Y-51116D01*
X75369Y-51116D01*
X75434Y-51157D01*
X75501Y-51182D01*
X75501Y-51182D01*
X75576Y-51194D01*
X75647Y-51192D01*
X75647Y-51192D01*
X75721Y-51175D01*
X75786Y-51146D01*
X75786Y-51146D01*
X75848Y-51101D01*
X75896Y-51050D01*
X75896Y-51050D01*
X75937Y-50985D01*
X75962Y-50919D01*
X75962Y-50918D01*
X75974Y-50843D01*
X75972Y-50772D01*
X75972Y-50772D01*
X75955Y-50698D01*
X75926Y-50633D01*
X75926Y-50633D01*
X75898Y-50594D01*
X75958Y-50595D01*
X76066Y-50550D01*
X76149Y-50467D01*
X76194Y-50358D01*
X76195Y-50241D01*
X76195Y-52365D01*
X76152Y-52322D01*
X75988Y-52255D01*
X75811Y-52254D01*
X75648Y-52322D01*
X75522Y-52447D01*
X75455Y-52611D01*
X75454Y-52788D01*
X75522Y-52951D01*
X75647Y-53077D01*
X75811Y-53144D01*
X75988Y-53145D01*
X76151Y-53077D01*
X76277Y-52952D01*
X76344Y-52788D01*
X76345Y-52611D01*
X76345Y-54474D01*
X76283Y-54499D01*
X76200Y-54582D01*
X76174Y-54644D01*
X76152Y-54622D01*
X75988Y-54555D01*
X75811Y-54554D01*
X75648Y-54622D01*
X75522Y-54747D01*
X75455Y-54911D01*
X75454Y-55088D01*
X75522Y-55251D01*
X75647Y-55377D01*
X75811Y-55444D01*
X75988Y-55445D01*
X76151Y-55377D01*
X76209Y-55319D01*
X76249Y-55416D01*
X76332Y-55499D01*
X76441Y-55544D01*
X76558Y-55545D01*
X76666Y-55500D01*
X76749Y-55417D01*
X76794Y-55308D01*
X76795Y-55191D01*
X76795Y-58705D01*
X76391Y-58705D01*
X76391Y-57237D01*
X76391Y-57200D01*
X76391Y-57162D01*
X76391Y-57161D01*
X76391Y-57161D01*
X76391Y-57161D01*
X76353Y-56970D01*
X76324Y-56900D01*
X76323Y-56899D01*
X76216Y-56738D01*
X76215Y-56737D01*
X76161Y-56684D01*
X76000Y-56576D01*
X75999Y-56575D01*
X75929Y-56546D01*
X75737Y-56508D01*
X75661Y-56508D01*
X75660Y-56509D01*
X75470Y-56546D01*
X75425Y-56565D01*
X75425Y-55225D01*
X75425Y-54774D01*
X75425Y-52925D01*
X75425Y-52474D01*
X75424Y-52375D01*
X75386Y-52283D01*
X75316Y-52212D01*
X75224Y-52174D01*
X75012Y-52175D01*
X74950Y-52237D01*
X74950Y-52650D01*
X75362Y-52650D01*
X75425Y-52587D01*
X75425Y-52474D01*
X75425Y-52925D01*
X75425Y-52812D01*
X75362Y-52750D01*
X74950Y-52750D01*
X74950Y-53162D01*
X75012Y-53225D01*
X75224Y-53225D01*
X75316Y-53187D01*
X75386Y-53116D01*
X75424Y-53024D01*
X75425Y-52925D01*
X75425Y-54774D01*
X75424Y-54675D01*
X75386Y-54583D01*
X75316Y-54512D01*
X75224Y-54474D01*
X75012Y-54475D01*
X74950Y-54537D01*
X74950Y-54950D01*
X75362Y-54950D01*
X75425Y-54887D01*
X75425Y-54774D01*
X75425Y-55225D01*
X75425Y-55112D01*
X75362Y-55050D01*
X74950Y-55050D01*
X74950Y-55462D01*
X75012Y-55525D01*
X75224Y-55525D01*
X75316Y-55487D01*
X75386Y-55416D01*
X75424Y-55324D01*
X75425Y-55225D01*
X75425Y-56565D01*
X75400Y-56575D01*
X75399Y-56576D01*
X75238Y-56683D01*
X75237Y-56684D01*
X75184Y-56738D01*
X75076Y-56899D01*
X75075Y-56900D01*
X75046Y-56970D01*
X75008Y-57162D01*
X75008Y-57200D01*
X75008Y-57237D01*
X75008Y-57238D01*
X75046Y-57429D01*
X75075Y-57499D01*
X75076Y-57500D01*
X75184Y-57661D01*
X75237Y-57715D01*
X75238Y-57716D01*
X75399Y-57823D01*
X75400Y-57824D01*
X75470Y-57853D01*
X75660Y-57890D01*
X75661Y-57891D01*
X75737Y-57891D01*
X75929Y-57853D01*
X75999Y-57824D01*
X76000Y-57823D01*
X76161Y-57715D01*
X76215Y-57662D01*
X76216Y-57661D01*
X76323Y-57500D01*
X76324Y-57499D01*
X76353Y-57429D01*
X76391Y-57238D01*
X76391Y-57238D01*
X76391Y-57238D01*
X76391Y-57237D01*
X76391Y-58705D01*
X74850Y-58705D01*
X74850Y-55462D01*
X74850Y-55050D01*
X74850Y-54950D01*
X74850Y-54537D01*
X74850Y-53162D01*
X74850Y-52750D01*
X74850Y-52650D01*
X74850Y-52237D01*
X74787Y-52175D01*
X74575Y-52174D01*
X74483Y-52212D01*
X74413Y-52283D01*
X74375Y-52375D01*
X74374Y-52474D01*
X74375Y-52587D01*
X74437Y-52650D01*
X74850Y-52650D01*
X74850Y-52750D01*
X74437Y-52750D01*
X74375Y-52812D01*
X74374Y-52925D01*
X74375Y-53024D01*
X74413Y-53116D01*
X74483Y-53187D01*
X74575Y-53225D01*
X74787Y-53225D01*
X74850Y-53162D01*
X74850Y-54537D01*
X74787Y-54475D01*
X74575Y-54474D01*
X74483Y-54512D01*
X74413Y-54583D01*
X74375Y-54675D01*
X74374Y-54774D01*
X74375Y-54887D01*
X74437Y-54950D01*
X74850Y-54950D01*
X74850Y-55050D01*
X74437Y-55050D01*
X74375Y-55112D01*
X74374Y-55225D01*
X74375Y-55324D01*
X74413Y-55416D01*
X74483Y-55487D01*
X74575Y-55525D01*
X74787Y-55525D01*
X74850Y-55462D01*
X74850Y-58705D01*
X74245Y-58705D01*
X74245Y-41195D01*
X76990Y-41195D01*
X76951Y-41233D01*
X76880Y-41406D01*
X76879Y-41593D01*
X76951Y-41765D01*
X77083Y-41898D01*
X77256Y-41969D01*
X77443Y-41970D01*
X77615Y-41898D01*
X77748Y-41766D01*
X77819Y-41593D01*
X77820Y-41406D01*
X77748Y-41234D01*
X77709Y-41195D01*
X77990Y-41195D01*
X77951Y-41233D01*
X77880Y-41406D01*
X77879Y-41593D01*
X77951Y-41765D01*
X78083Y-41898D01*
X78256Y-41969D01*
X78443Y-41970D01*
X78615Y-41898D01*
X78748Y-41766D01*
X78819Y-41593D01*
X78820Y-41406D01*
X78748Y-41234D01*
X78709Y-41195D01*
X78990Y-41195D01*
X78951Y-41233D01*
X78880Y-41406D01*
X78879Y-41593D01*
X78951Y-41765D01*
X79083Y-41898D01*
X79256Y-41969D01*
X79443Y-41970D01*
X79615Y-41898D01*
X79748Y-41766D01*
X79819Y-41593D01*
X79820Y-41406D01*
X79748Y-41234D01*
X79709Y-41195D01*
X79990Y-41195D01*
X79951Y-41233D01*
X79880Y-41406D01*
X79879Y-41593D01*
X79951Y-41765D01*
X80083Y-41898D01*
X80256Y-41969D01*
X80443Y-41970D01*
X80615Y-41898D01*
X80748Y-41766D01*
X80819Y-41593D01*
X80820Y-41406D01*
X80748Y-41234D01*
X80709Y-41195D01*
X80990Y-41195D01*
X80951Y-41233D01*
X80880Y-41406D01*
X80879Y-41593D01*
X80951Y-41765D01*
X81083Y-41898D01*
X81256Y-41969D01*
X81443Y-41970D01*
X81615Y-41898D01*
X81748Y-41766D01*
X81819Y-41593D01*
X81820Y-41406D01*
X81748Y-41234D01*
X81709Y-41195D01*
X81990Y-41195D01*
X81951Y-41233D01*
X81880Y-41406D01*
X81879Y-41593D01*
X81951Y-41765D01*
X82083Y-41898D01*
X82256Y-41969D01*
X82443Y-41970D01*
X82615Y-41898D01*
X82748Y-41766D01*
X82819Y-41593D01*
X82820Y-41406D01*
X82748Y-41234D01*
X82709Y-41195D01*
X82990Y-41195D01*
X82951Y-41233D01*
X82880Y-41406D01*
X82879Y-41593D01*
X82951Y-41765D01*
X83083Y-41898D01*
X83256Y-41969D01*
X83443Y-41970D01*
X83615Y-41898D01*
X83748Y-41766D01*
X83819Y-41593D01*
X83820Y-41406D01*
X83748Y-41234D01*
X83709Y-41195D01*
X83990Y-41195D01*
X83951Y-41233D01*
X83880Y-41406D01*
X83879Y-41593D01*
X83951Y-41765D01*
X84083Y-41898D01*
X84256Y-41969D01*
X84443Y-41970D01*
X84615Y-41898D01*
X84748Y-41766D01*
X84819Y-41593D01*
X84820Y-41406D01*
X84748Y-41234D01*
X84709Y-41195D01*
X84990Y-41195D01*
X84951Y-41233D01*
X84880Y-41406D01*
X84879Y-41593D01*
X84951Y-41765D01*
X85083Y-41898D01*
X85256Y-41969D01*
X85443Y-41970D01*
X85615Y-41898D01*
X85748Y-41766D01*
X85819Y-41593D01*
X85820Y-41406D01*
X85748Y-41234D01*
X85709Y-41195D01*
X85990Y-41195D01*
X85951Y-41233D01*
X85880Y-41406D01*
X85879Y-41593D01*
X85951Y-41765D01*
X86083Y-41898D01*
X86256Y-41969D01*
X86443Y-41970D01*
X86615Y-41898D01*
X86748Y-41766D01*
X86819Y-41593D01*
X86820Y-41406D01*
X86748Y-41234D01*
X86709Y-41195D01*
X86990Y-41195D01*
X86951Y-41233D01*
X86880Y-41406D01*
X86879Y-41593D01*
X86951Y-41765D01*
X87083Y-41898D01*
X87256Y-41969D01*
X87443Y-41970D01*
X87615Y-41898D01*
X87748Y-41766D01*
X87819Y-41593D01*
X87820Y-41406D01*
X87748Y-41234D01*
X87709Y-41195D01*
X87990Y-41195D01*
X87951Y-41233D01*
X87880Y-41406D01*
X87879Y-41593D01*
X87951Y-41765D01*
X88083Y-41898D01*
X88256Y-41969D01*
X88443Y-41970D01*
X88615Y-41898D01*
X88748Y-41766D01*
X88819Y-41593D01*
X88820Y-41406D01*
X88748Y-41234D01*
X88709Y-41195D01*
X88990Y-41195D01*
X88951Y-41233D01*
X88880Y-41406D01*
X88879Y-41593D01*
X88951Y-41765D01*
X89083Y-41898D01*
X89256Y-41969D01*
X89443Y-41970D01*
X89615Y-41898D01*
X89748Y-41766D01*
X89819Y-41593D01*
X89820Y-41406D01*
X89748Y-41234D01*
X89709Y-41195D01*
X89990Y-41195D01*
X89951Y-41233D01*
X89880Y-41406D01*
X89879Y-41593D01*
X89951Y-41765D01*
X90083Y-41898D01*
X90256Y-41969D01*
X90443Y-41970D01*
X90615Y-41898D01*
X90748Y-41766D01*
X90819Y-41593D01*
X90820Y-41406D01*
X90748Y-41234D01*
X90709Y-41195D01*
X90990Y-41195D01*
X90951Y-41233D01*
X90880Y-41406D01*
X90879Y-41593D01*
X90951Y-41765D01*
X91083Y-41898D01*
X91256Y-41969D01*
X91443Y-41970D01*
X91615Y-41898D01*
X91748Y-41766D01*
X91819Y-41593D01*
X91820Y-41406D01*
X91748Y-41234D01*
X91709Y-41195D01*
X91990Y-41195D01*
X91951Y-41233D01*
X91880Y-41406D01*
X91879Y-41593D01*
X91951Y-41765D01*
X92083Y-41898D01*
X92256Y-41969D01*
X92443Y-41970D01*
X92615Y-41898D01*
X92748Y-41766D01*
X92819Y-41593D01*
X92820Y-41406D01*
X92748Y-41234D01*
X92709Y-41195D01*
X92990Y-41195D01*
X92951Y-41233D01*
X92880Y-41406D01*
X92879Y-41593D01*
X92951Y-41765D01*
X93083Y-41898D01*
X93256Y-41969D01*
X93443Y-41970D01*
X93615Y-41898D01*
X93748Y-41766D01*
X93819Y-41593D01*
X93820Y-41406D01*
X93748Y-41234D01*
X93709Y-41195D01*
X93990Y-41195D01*
X93951Y-41233D01*
X93880Y-41406D01*
X93879Y-41593D01*
X93951Y-41765D01*
X94083Y-41898D01*
X94256Y-41969D01*
X94443Y-41970D01*
X94615Y-41898D01*
X94748Y-41766D01*
X94819Y-41593D01*
X94820Y-41406D01*
X94748Y-41234D01*
X94709Y-41195D01*
X94990Y-41195D01*
X94951Y-41233D01*
X94880Y-41406D01*
X94879Y-41593D01*
X94951Y-41765D01*
X95083Y-41898D01*
X95256Y-41969D01*
X95443Y-41970D01*
X95615Y-41898D01*
X95748Y-41766D01*
X95819Y-41593D01*
X95820Y-41406D01*
X95748Y-41234D01*
X95709Y-41195D01*
X95990Y-41195D01*
X95951Y-41233D01*
X95880Y-41406D01*
X95879Y-41593D01*
X95951Y-41765D01*
X96083Y-41898D01*
X96256Y-41969D01*
X96443Y-41970D01*
X96615Y-41898D01*
X96748Y-41766D01*
X96819Y-41593D01*
X96820Y-41406D01*
X96748Y-41234D01*
X96709Y-41195D01*
X96990Y-41195D01*
X96951Y-41233D01*
X96880Y-41406D01*
X96879Y-41593D01*
X96951Y-41765D01*
X97083Y-41898D01*
X97256Y-41969D01*
X97443Y-41970D01*
X97615Y-41898D01*
X97748Y-41766D01*
X97819Y-41593D01*
X97820Y-41406D01*
X97748Y-41234D01*
X97709Y-41195D01*
X97990Y-41195D01*
X97951Y-41233D01*
X97880Y-41406D01*
X97879Y-41593D01*
X97951Y-41765D01*
X98083Y-41898D01*
X98256Y-41969D01*
X98443Y-41970D01*
X98615Y-41898D01*
X98748Y-41766D01*
X98819Y-41593D01*
X98820Y-41406D01*
X98748Y-41234D01*
X98709Y-41195D01*
X98990Y-41195D01*
X98951Y-41233D01*
X98880Y-41406D01*
X98879Y-41593D01*
X98951Y-41765D01*
X99083Y-41898D01*
X99256Y-41969D01*
X99443Y-41970D01*
X99615Y-41898D01*
X99748Y-41766D01*
X99819Y-41593D01*
X99820Y-41406D01*
X99748Y-41234D01*
X99709Y-41195D01*
X99990Y-41195D01*
X99951Y-41233D01*
X99880Y-41406D01*
X99879Y-41593D01*
X99951Y-41765D01*
X100083Y-41898D01*
X100256Y-41969D01*
X100443Y-41970D01*
X100615Y-41898D01*
X100748Y-41766D01*
X100819Y-41593D01*
X100820Y-41406D01*
X100748Y-41234D01*
X100709Y-41195D01*
X100990Y-41195D01*
X100951Y-41233D01*
X100880Y-41406D01*
X100879Y-41593D01*
X100951Y-41765D01*
X101083Y-41898D01*
X101256Y-41969D01*
X101443Y-41970D01*
X101615Y-41898D01*
X101748Y-41766D01*
X101819Y-41593D01*
X101820Y-41406D01*
X101748Y-41234D01*
X101709Y-41195D01*
X101990Y-41195D01*
X101951Y-41233D01*
X101880Y-41406D01*
X101879Y-41593D01*
X101951Y-41765D01*
X102083Y-41898D01*
X102256Y-41969D01*
X102443Y-41970D01*
X102615Y-41898D01*
X102748Y-41766D01*
X102819Y-41593D01*
X102820Y-41406D01*
X102748Y-41234D01*
X102709Y-41195D01*
X105455Y-41195D01*
X105455Y-58705D01*
X105455Y-58705D01*
G37*
G54D18*
X105455Y-58705D02*
X104691Y-58705D01*
X104691Y-57437D01*
X104691Y-57400D01*
X104691Y-57362D01*
X104691Y-42637D01*
X104691Y-42600D01*
X104691Y-42562D01*
X104691Y-42561D01*
X104691Y-42561D01*
X104691Y-42561D01*
X104653Y-42370D01*
X104624Y-42300D01*
X104623Y-42299D01*
X104516Y-42138D01*
X104515Y-42137D01*
X104461Y-42084D01*
X104300Y-41976D01*
X104299Y-41975D01*
X104229Y-41946D01*
X104037Y-41908D01*
X103961Y-41908D01*
X103960Y-41909D01*
X103770Y-41946D01*
X103700Y-41975D01*
X103699Y-41976D01*
X103538Y-42083D01*
X103537Y-42084D01*
X103484Y-42138D01*
X103376Y-42299D01*
X103375Y-42300D01*
X103346Y-42370D01*
X103308Y-42562D01*
X103308Y-42600D01*
X103308Y-42637D01*
X103308Y-42638D01*
X103346Y-42829D01*
X103375Y-42899D01*
X103376Y-42900D01*
X103484Y-43061D01*
X103537Y-43115D01*
X103538Y-43116D01*
X103699Y-43223D01*
X103700Y-43224D01*
X103770Y-43253D01*
X103960Y-43290D01*
X103961Y-43291D01*
X104037Y-43291D01*
X104229Y-43253D01*
X104299Y-43224D01*
X104300Y-43223D01*
X104461Y-43115D01*
X104515Y-43062D01*
X104516Y-43061D01*
X104623Y-42900D01*
X104624Y-42899D01*
X104653Y-42829D01*
X104691Y-42638D01*
X104691Y-42638D01*
X104691Y-42638D01*
X104691Y-42637D01*
X104691Y-57362D01*
X104691Y-57361D01*
X104691Y-57361D01*
X104691Y-57361D01*
X104653Y-57170D01*
X104624Y-57100D01*
X104623Y-57099D01*
X104516Y-56938D01*
X104515Y-56937D01*
X104461Y-56884D01*
X104300Y-56776D01*
X104299Y-56775D01*
X104229Y-56746D01*
X104037Y-56708D01*
X103961Y-56708D01*
X103960Y-56709D01*
X103770Y-56746D01*
X103700Y-56775D01*
X103699Y-56776D01*
X103538Y-56883D01*
X103537Y-56884D01*
X103484Y-56938D01*
X103376Y-57099D01*
X103375Y-57100D01*
X103346Y-57170D01*
X103308Y-57362D01*
X103308Y-57400D01*
X103308Y-57437D01*
X103308Y-57438D01*
X103346Y-57629D01*
X103375Y-57699D01*
X103376Y-57700D01*
X103484Y-57861D01*
X103537Y-57915D01*
X103538Y-57916D01*
X103699Y-58023D01*
X103700Y-58024D01*
X103770Y-58053D01*
X103960Y-58090D01*
X103961Y-58091D01*
X104037Y-58091D01*
X104229Y-58053D01*
X104299Y-58024D01*
X104300Y-58023D01*
X104461Y-57915D01*
X104515Y-57862D01*
X104516Y-57861D01*
X104623Y-57700D01*
X104624Y-57699D01*
X104653Y-57629D01*
X104691Y-57438D01*
X104691Y-57438D01*
X104691Y-57438D01*
X104691Y-57437D01*
X104691Y-58705D01*
X102970Y-58705D01*
X102970Y-54356D01*
X102970Y-53356D01*
X102970Y-52356D01*
X102970Y-51356D01*
X102970Y-50356D01*
X102970Y-49356D01*
X102970Y-48356D01*
X102970Y-47356D01*
X102898Y-47184D01*
X102766Y-47051D01*
X102593Y-46980D01*
X102406Y-46979D01*
X102286Y-47029D01*
X102294Y-47008D01*
X102295Y-46891D01*
X102286Y-46870D01*
X102406Y-46919D01*
X102593Y-46920D01*
X102765Y-46848D01*
X102898Y-46716D01*
X102969Y-46543D01*
X102970Y-46356D01*
X102970Y-45356D01*
X102898Y-45184D01*
X102820Y-45105D01*
X102820Y-42406D01*
X102748Y-42234D01*
X102616Y-42101D01*
X102443Y-42030D01*
X102256Y-42029D01*
X102084Y-42101D01*
X101951Y-42233D01*
X101880Y-42406D01*
X101879Y-42593D01*
X101951Y-42765D01*
X102083Y-42898D01*
X102256Y-42969D01*
X102443Y-42970D01*
X102615Y-42898D01*
X102748Y-42766D01*
X102819Y-42593D01*
X102820Y-42406D01*
X102820Y-45105D01*
X102766Y-45051D01*
X102593Y-44980D01*
X102406Y-44979D01*
X102234Y-45051D01*
X102195Y-45090D01*
X102195Y-44541D01*
X102150Y-44433D01*
X102067Y-44350D01*
X101958Y-44305D01*
X101841Y-44304D01*
X101820Y-44313D01*
X101820Y-42406D01*
X101748Y-42234D01*
X101616Y-42101D01*
X101443Y-42030D01*
X101256Y-42029D01*
X101084Y-42101D01*
X100951Y-42233D01*
X100880Y-42406D01*
X100879Y-42593D01*
X100951Y-42765D01*
X101083Y-42898D01*
X101256Y-42969D01*
X101443Y-42970D01*
X101615Y-42898D01*
X101748Y-42766D01*
X101819Y-42593D01*
X101820Y-42406D01*
X101820Y-44313D01*
X101733Y-44349D01*
X101650Y-44432D01*
X101605Y-44541D01*
X101604Y-44658D01*
X101649Y-44766D01*
X101732Y-44849D01*
X101841Y-44894D01*
X101958Y-44895D01*
X102066Y-44850D01*
X102149Y-44767D01*
X102194Y-44658D01*
X102195Y-44541D01*
X102195Y-45090D01*
X102101Y-45183D01*
X102030Y-45356D01*
X102029Y-45543D01*
X102101Y-45715D01*
X102233Y-45848D01*
X102406Y-45919D01*
X102593Y-45920D01*
X102765Y-45848D01*
X102898Y-45716D01*
X102969Y-45543D01*
X102970Y-45356D01*
X102970Y-46356D01*
X102898Y-46184D01*
X102766Y-46051D01*
X102593Y-45980D01*
X102406Y-45979D01*
X102234Y-46051D01*
X102101Y-46183D01*
X102030Y-46356D01*
X102029Y-46543D01*
X102079Y-46663D01*
X102058Y-46655D01*
X101941Y-46654D01*
X101920Y-46663D01*
X101969Y-46543D01*
X101970Y-46356D01*
X101970Y-46356D01*
X101970Y-45716D01*
X101970Y-45116D01*
X101944Y-45053D01*
X101896Y-45005D01*
X101833Y-44980D01*
X101766Y-44979D01*
X101495Y-44979D01*
X101495Y-44541D01*
X101450Y-44433D01*
X101367Y-44350D01*
X101258Y-44305D01*
X101141Y-44304D01*
X101033Y-44349D01*
X100950Y-44432D01*
X100905Y-44541D01*
X100904Y-44658D01*
X100949Y-44766D01*
X101032Y-44849D01*
X101141Y-44894D01*
X101258Y-44895D01*
X101366Y-44850D01*
X101449Y-44767D01*
X101494Y-44658D01*
X101495Y-44541D01*
X101495Y-44979D01*
X101166Y-44979D01*
X101103Y-45005D01*
X101055Y-45053D01*
X101030Y-45116D01*
X101029Y-45183D01*
X101029Y-45783D01*
X101055Y-45846D01*
X101103Y-45894D01*
X101166Y-45919D01*
X101233Y-45920D01*
X101833Y-45920D01*
X101896Y-45894D01*
X101944Y-45846D01*
X101969Y-45783D01*
X101970Y-45716D01*
X101970Y-46356D01*
X101898Y-46184D01*
X101766Y-46051D01*
X101593Y-45980D01*
X101406Y-45979D01*
X101234Y-46051D01*
X101101Y-46183D01*
X101030Y-46356D01*
X101029Y-46543D01*
X101101Y-46715D01*
X101233Y-46848D01*
X101406Y-46919D01*
X101593Y-46920D01*
X101713Y-46870D01*
X101705Y-46891D01*
X101704Y-47008D01*
X101713Y-47029D01*
X101593Y-46980D01*
X101406Y-46979D01*
X101234Y-47051D01*
X101101Y-47183D01*
X101030Y-47356D01*
X101029Y-47543D01*
X101101Y-47715D01*
X101233Y-47848D01*
X101406Y-47919D01*
X101593Y-47920D01*
X101765Y-47848D01*
X101898Y-47716D01*
X101969Y-47543D01*
X101970Y-47356D01*
X101920Y-47236D01*
X101941Y-47244D01*
X102058Y-47245D01*
X102079Y-47236D01*
X102030Y-47356D01*
X102029Y-47543D01*
X102101Y-47715D01*
X102233Y-47848D01*
X102406Y-47919D01*
X102593Y-47920D01*
X102765Y-47848D01*
X102898Y-47716D01*
X102969Y-47543D01*
X102970Y-47356D01*
X102970Y-48356D01*
X102898Y-48184D01*
X102766Y-48051D01*
X102593Y-47980D01*
X102406Y-47979D01*
X102234Y-48051D01*
X102101Y-48183D01*
X102030Y-48356D01*
X102029Y-48543D01*
X102101Y-48715D01*
X102233Y-48848D01*
X102406Y-48919D01*
X102593Y-48920D01*
X102765Y-48848D01*
X102898Y-48716D01*
X102969Y-48543D01*
X102970Y-48356D01*
X102970Y-49356D01*
X102898Y-49184D01*
X102766Y-49051D01*
X102593Y-48980D01*
X102406Y-48979D01*
X102234Y-49051D01*
X102101Y-49183D01*
X102030Y-49356D01*
X102029Y-49543D01*
X102101Y-49715D01*
X102233Y-49848D01*
X102406Y-49919D01*
X102593Y-49920D01*
X102765Y-49848D01*
X102898Y-49716D01*
X102969Y-49543D01*
X102970Y-49356D01*
X102970Y-50356D01*
X102898Y-50184D01*
X102766Y-50051D01*
X102593Y-49980D01*
X102406Y-49979D01*
X102234Y-50051D01*
X102101Y-50183D01*
X102030Y-50356D01*
X102029Y-50543D01*
X102101Y-50715D01*
X102233Y-50848D01*
X102406Y-50919D01*
X102593Y-50920D01*
X102765Y-50848D01*
X102898Y-50716D01*
X102969Y-50543D01*
X102970Y-50356D01*
X102970Y-51356D01*
X102898Y-51184D01*
X102766Y-51051D01*
X102593Y-50980D01*
X102406Y-50979D01*
X102234Y-51051D01*
X102101Y-51183D01*
X102030Y-51356D01*
X102029Y-51543D01*
X102101Y-51715D01*
X102233Y-51848D01*
X102406Y-51919D01*
X102593Y-51920D01*
X102765Y-51848D01*
X102898Y-51716D01*
X102969Y-51543D01*
X102970Y-51356D01*
X102970Y-52356D01*
X102898Y-52184D01*
X102766Y-52051D01*
X102593Y-51980D01*
X102406Y-51979D01*
X102234Y-52051D01*
X102101Y-52183D01*
X102030Y-52356D01*
X102029Y-52543D01*
X102101Y-52715D01*
X102233Y-52848D01*
X102406Y-52919D01*
X102593Y-52920D01*
X102765Y-52848D01*
X102898Y-52716D01*
X102969Y-52543D01*
X102970Y-52356D01*
X102970Y-53356D01*
X102898Y-53184D01*
X102766Y-53051D01*
X102593Y-52980D01*
X102406Y-52979D01*
X102234Y-53051D01*
X102101Y-53183D01*
X102030Y-53356D01*
X102029Y-53543D01*
X102101Y-53715D01*
X102233Y-53848D01*
X102406Y-53919D01*
X102593Y-53920D01*
X102765Y-53848D01*
X102898Y-53716D01*
X102969Y-53543D01*
X102970Y-53356D01*
X102970Y-54356D01*
X102898Y-54184D01*
X102766Y-54051D01*
X102593Y-53980D01*
X102406Y-53979D01*
X102234Y-54051D01*
X102101Y-54183D01*
X102030Y-54356D01*
X102029Y-54543D01*
X102101Y-54715D01*
X102233Y-54848D01*
X102406Y-54919D01*
X102593Y-54920D01*
X102765Y-54848D01*
X102898Y-54716D01*
X102969Y-54543D01*
X102970Y-54356D01*
X102970Y-58705D01*
X102813Y-58705D01*
X102813Y-57706D01*
X102813Y-56006D01*
X102741Y-55834D01*
X102609Y-55701D01*
X102436Y-55630D01*
X102249Y-55629D01*
X102077Y-55701D01*
X101970Y-55808D01*
X101970Y-54356D01*
X101970Y-53356D01*
X101970Y-52356D01*
X101970Y-51356D01*
X101970Y-50356D01*
X101970Y-49356D01*
X101970Y-48356D01*
X101898Y-48184D01*
X101766Y-48051D01*
X101593Y-47980D01*
X101406Y-47979D01*
X101234Y-48051D01*
X101101Y-48183D01*
X101030Y-48356D01*
X101029Y-48543D01*
X101101Y-48715D01*
X101233Y-48848D01*
X101406Y-48919D01*
X101593Y-48920D01*
X101765Y-48848D01*
X101898Y-48716D01*
X101969Y-48543D01*
X101970Y-48356D01*
X101970Y-49356D01*
X101898Y-49184D01*
X101766Y-49051D01*
X101593Y-48980D01*
X101406Y-48979D01*
X101234Y-49051D01*
X101101Y-49183D01*
X101030Y-49356D01*
X101029Y-49543D01*
X101101Y-49715D01*
X101233Y-49848D01*
X101406Y-49919D01*
X101593Y-49920D01*
X101765Y-49848D01*
X101898Y-49716D01*
X101969Y-49543D01*
X101970Y-49356D01*
X101970Y-50356D01*
X101898Y-50184D01*
X101766Y-50051D01*
X101593Y-49980D01*
X101406Y-49979D01*
X101234Y-50051D01*
X101101Y-50183D01*
X101030Y-50356D01*
X101029Y-50543D01*
X101101Y-50715D01*
X101233Y-50848D01*
X101406Y-50919D01*
X101593Y-50920D01*
X101765Y-50848D01*
X101898Y-50716D01*
X101969Y-50543D01*
X101970Y-50356D01*
X101970Y-51356D01*
X101898Y-51184D01*
X101766Y-51051D01*
X101593Y-50980D01*
X101406Y-50979D01*
X101234Y-51051D01*
X101101Y-51183D01*
X101030Y-51356D01*
X101029Y-51543D01*
X101101Y-51715D01*
X101233Y-51848D01*
X101406Y-51919D01*
X101593Y-51920D01*
X101765Y-51848D01*
X101898Y-51716D01*
X101969Y-51543D01*
X101970Y-51356D01*
X101970Y-52356D01*
X101898Y-52184D01*
X101766Y-52051D01*
X101593Y-51980D01*
X101406Y-51979D01*
X101234Y-52051D01*
X101101Y-52183D01*
X101030Y-52356D01*
X101029Y-52543D01*
X101101Y-52715D01*
X101233Y-52848D01*
X101406Y-52919D01*
X101593Y-52920D01*
X101765Y-52848D01*
X101898Y-52716D01*
X101969Y-52543D01*
X101970Y-52356D01*
X101970Y-53356D01*
X101898Y-53184D01*
X101766Y-53051D01*
X101593Y-52980D01*
X101406Y-52979D01*
X101234Y-53051D01*
X101101Y-53183D01*
X101030Y-53356D01*
X101029Y-53543D01*
X101101Y-53715D01*
X101233Y-53848D01*
X101406Y-53919D01*
X101593Y-53920D01*
X101765Y-53848D01*
X101898Y-53716D01*
X101969Y-53543D01*
X101970Y-53356D01*
X101970Y-54356D01*
X101898Y-54184D01*
X101766Y-54051D01*
X101593Y-53980D01*
X101406Y-53979D01*
X101234Y-54051D01*
X101101Y-54183D01*
X101030Y-54356D01*
X101029Y-54543D01*
X101101Y-54715D01*
X101233Y-54848D01*
X101406Y-54919D01*
X101593Y-54920D01*
X101765Y-54848D01*
X101898Y-54716D01*
X101969Y-54543D01*
X101970Y-54356D01*
X101970Y-55808D01*
X101944Y-55833D01*
X101873Y-56006D01*
X101872Y-56193D01*
X101944Y-56365D01*
X102076Y-56498D01*
X102249Y-56569D01*
X102436Y-56570D01*
X102608Y-56498D01*
X102741Y-56366D01*
X102812Y-56193D01*
X102813Y-56006D01*
X102813Y-57706D01*
X102741Y-57534D01*
X102609Y-57401D01*
X102436Y-57330D01*
X102249Y-57329D01*
X102077Y-57401D01*
X101944Y-57533D01*
X101873Y-57706D01*
X101872Y-57893D01*
X101944Y-58065D01*
X102076Y-58198D01*
X102249Y-58269D01*
X102436Y-58270D01*
X102608Y-58198D01*
X102741Y-58066D01*
X102812Y-57893D01*
X102813Y-57706D01*
X102813Y-58705D01*
X100820Y-58705D01*
X100820Y-42406D01*
X100748Y-42234D01*
X100616Y-42101D01*
X100443Y-42030D01*
X100256Y-42029D01*
X100084Y-42101D01*
X99951Y-42233D01*
X99880Y-42406D01*
X99879Y-42593D01*
X99951Y-42765D01*
X100083Y-42898D01*
X100256Y-42969D01*
X100443Y-42970D01*
X100615Y-42898D01*
X100748Y-42766D01*
X100819Y-42593D01*
X100820Y-42406D01*
X100820Y-58705D01*
X99433Y-58705D01*
X99446Y-58685D01*
X99476Y-58614D01*
X99476Y-58614D01*
X99476Y-58614D01*
X99491Y-58538D01*
X99491Y-58538D01*
X99491Y-58538D01*
X99491Y-58537D01*
X99491Y-58500D01*
X99491Y-58462D01*
X99491Y-58461D01*
X99491Y-58461D01*
X99491Y-58461D01*
X99476Y-58385D01*
X99476Y-58385D01*
X99476Y-58385D01*
X99446Y-58314D01*
X99403Y-58250D01*
X99349Y-58196D01*
X99349Y-58196D01*
X99285Y-58153D01*
X99284Y-58153D01*
X99284Y-58152D01*
X99214Y-58123D01*
X99137Y-58108D01*
X99061Y-58108D01*
X99061Y-58108D01*
X98985Y-58123D01*
X98985Y-58123D01*
X98985Y-58123D01*
X98914Y-58153D01*
X98850Y-58196D01*
X98796Y-58250D01*
X98796Y-58250D01*
X98753Y-58314D01*
X98753Y-58315D01*
X98752Y-58315D01*
X98723Y-58385D01*
X98708Y-58462D01*
X98708Y-58500D01*
X98708Y-58537D01*
X98708Y-58538D01*
X98723Y-58614D01*
X98752Y-58684D01*
X98753Y-58684D01*
X98753Y-58685D01*
X98766Y-58705D01*
X94975Y-58705D01*
X94994Y-58658D01*
X94995Y-58546D01*
X97914Y-58546D01*
X97994Y-58530D01*
X98062Y-58484D01*
X98536Y-58010D01*
X99835Y-58010D01*
X99858Y-58065D01*
X99990Y-58198D01*
X100163Y-58269D01*
X100350Y-58270D01*
X100522Y-58198D01*
X100655Y-58066D01*
X100726Y-57893D01*
X100727Y-57706D01*
X100655Y-57534D01*
X100523Y-57401D01*
X100350Y-57330D01*
X100163Y-57329D01*
X99991Y-57401D01*
X99858Y-57533D01*
X99835Y-57590D01*
X98706Y-57590D01*
X99894Y-56402D01*
X99990Y-56498D01*
X100163Y-56569D01*
X100350Y-56570D01*
X100522Y-56498D01*
X100655Y-56366D01*
X100726Y-56193D01*
X100727Y-56006D01*
X100655Y-55834D01*
X100523Y-55701D01*
X100350Y-55630D01*
X100163Y-55629D01*
X100160Y-55631D01*
X100160Y-50207D01*
X100199Y-50167D01*
X100244Y-50058D01*
X100245Y-49941D01*
X100200Y-49833D01*
X100117Y-49750D01*
X100008Y-49705D01*
X99910Y-49704D01*
X99910Y-43200D01*
X99894Y-43119D01*
X99894Y-43119D01*
X99875Y-43092D01*
X99848Y-43051D01*
X99848Y-43051D01*
X99795Y-42998D01*
X99795Y-42941D01*
X99750Y-42833D01*
X99715Y-42798D01*
X99748Y-42766D01*
X99819Y-42593D01*
X99820Y-42406D01*
X99748Y-42234D01*
X99616Y-42101D01*
X99443Y-42030D01*
X99256Y-42029D01*
X99084Y-42101D01*
X98951Y-42233D01*
X98880Y-42406D01*
X98879Y-42593D01*
X98951Y-42765D01*
X99083Y-42898D01*
X99205Y-42948D01*
X99204Y-43058D01*
X99249Y-43166D01*
X99332Y-43249D01*
X99441Y-43294D01*
X99490Y-43294D01*
X99490Y-43555D01*
X99476Y-43485D01*
X99476Y-43485D01*
X99476Y-43485D01*
X99446Y-43414D01*
X99403Y-43350D01*
X99349Y-43296D01*
X99349Y-43296D01*
X99285Y-43253D01*
X99284Y-43253D01*
X99284Y-43252D01*
X99214Y-43223D01*
X99137Y-43208D01*
X99061Y-43208D01*
X99061Y-43208D01*
X98985Y-43223D01*
X98985Y-43223D01*
X98985Y-43223D01*
X98914Y-43253D01*
X98850Y-43296D01*
X98820Y-43326D01*
X98820Y-42406D01*
X98748Y-42234D01*
X98616Y-42101D01*
X98443Y-42030D01*
X98256Y-42029D01*
X98084Y-42101D01*
X97951Y-42233D01*
X97880Y-42406D01*
X97879Y-42593D01*
X97951Y-42765D01*
X98083Y-42898D01*
X98256Y-42969D01*
X98443Y-42970D01*
X98615Y-42898D01*
X98748Y-42766D01*
X98819Y-42593D01*
X98820Y-42406D01*
X98820Y-43326D01*
X98796Y-43350D01*
X98796Y-43350D01*
X98753Y-43414D01*
X98753Y-43415D01*
X98752Y-43415D01*
X98723Y-43485D01*
X98708Y-43562D01*
X98708Y-43600D01*
X98708Y-43637D01*
X98708Y-43638D01*
X98723Y-43714D01*
X98752Y-43784D01*
X98753Y-43784D01*
X98753Y-43785D01*
X98796Y-43849D01*
X98796Y-43849D01*
X98850Y-43903D01*
X98914Y-43946D01*
X98985Y-43976D01*
X98985Y-43976D01*
X98985Y-43976D01*
X99061Y-43991D01*
X99061Y-43991D01*
X99137Y-43991D01*
X99214Y-43976D01*
X99214Y-43975D01*
X99284Y-43947D01*
X99284Y-43946D01*
X99285Y-43946D01*
X99349Y-43903D01*
X99349Y-43903D01*
X99403Y-43849D01*
X99446Y-43785D01*
X99476Y-43714D01*
X99476Y-43714D01*
X99476Y-43714D01*
X99490Y-43644D01*
X99490Y-44172D01*
X99417Y-44100D01*
X99308Y-44055D01*
X99191Y-44054D01*
X99083Y-44099D01*
X99000Y-44182D01*
X98955Y-44291D01*
X98955Y-44337D01*
X98917Y-44300D01*
X98808Y-44255D01*
X98691Y-44254D01*
X98583Y-44299D01*
X98575Y-44307D01*
X98517Y-44250D01*
X98408Y-44205D01*
X98291Y-44204D01*
X98183Y-44249D01*
X98175Y-44257D01*
X98167Y-44250D01*
X98058Y-44205D01*
X97941Y-44204D01*
X97833Y-44249D01*
X97825Y-44257D01*
X97820Y-44252D01*
X97820Y-42406D01*
X97748Y-42234D01*
X97616Y-42101D01*
X97443Y-42030D01*
X97256Y-42029D01*
X97084Y-42101D01*
X96951Y-42233D01*
X96880Y-42406D01*
X96879Y-42593D01*
X96951Y-42765D01*
X97083Y-42898D01*
X97256Y-42969D01*
X97443Y-42970D01*
X97615Y-42898D01*
X97748Y-42766D01*
X97819Y-42593D01*
X97820Y-42406D01*
X97820Y-44252D01*
X97817Y-44250D01*
X97708Y-44205D01*
X97591Y-44204D01*
X97483Y-44249D01*
X97475Y-44257D01*
X97467Y-44250D01*
X97358Y-44205D01*
X97241Y-44204D01*
X97133Y-44249D01*
X97050Y-44332D01*
X97005Y-44441D01*
X97004Y-44558D01*
X97049Y-44666D01*
X97132Y-44749D01*
X97241Y-44794D01*
X97358Y-44795D01*
X97466Y-44750D01*
X97474Y-44742D01*
X97482Y-44749D01*
X97591Y-44794D01*
X97708Y-44795D01*
X97816Y-44750D01*
X97824Y-44742D01*
X97832Y-44749D01*
X97941Y-44794D01*
X98058Y-44795D01*
X98166Y-44750D01*
X98174Y-44742D01*
X98182Y-44749D01*
X98205Y-44759D01*
X98204Y-44858D01*
X98225Y-44907D01*
X98150Y-44982D01*
X98105Y-45091D01*
X98104Y-45208D01*
X98149Y-45316D01*
X98232Y-45399D01*
X98341Y-45444D01*
X98458Y-45445D01*
X98566Y-45400D01*
X98649Y-45317D01*
X98694Y-45208D01*
X98695Y-45091D01*
X98674Y-45042D01*
X98749Y-44967D01*
X98794Y-44858D01*
X98794Y-44845D01*
X98808Y-44845D01*
X98916Y-44800D01*
X98999Y-44717D01*
X99044Y-44608D01*
X99044Y-44562D01*
X99082Y-44599D01*
X99191Y-44644D01*
X99308Y-44645D01*
X99416Y-44600D01*
X99490Y-44527D01*
X99490Y-46667D01*
X99458Y-46655D01*
X99341Y-46654D01*
X99233Y-46699D01*
X99225Y-46707D01*
X99217Y-46700D01*
X99108Y-46655D01*
X98991Y-46654D01*
X98883Y-46699D01*
X98800Y-46782D01*
X98755Y-46891D01*
X98754Y-47008D01*
X98799Y-47116D01*
X98882Y-47199D01*
X98991Y-47244D01*
X99108Y-47245D01*
X99216Y-47200D01*
X99224Y-47192D01*
X99232Y-47199D01*
X99341Y-47244D01*
X99458Y-47245D01*
X99490Y-47232D01*
X99490Y-54667D01*
X99458Y-54655D01*
X99395Y-54654D01*
X99395Y-53891D01*
X99395Y-52891D01*
X99395Y-51891D01*
X99395Y-50891D01*
X99395Y-49891D01*
X99395Y-48891D01*
X99350Y-48783D01*
X99267Y-48700D01*
X99158Y-48655D01*
X99041Y-48654D01*
X98957Y-48689D01*
X99248Y-48398D01*
X99248Y-48398D01*
X99248Y-48398D01*
X99275Y-48357D01*
X99294Y-48330D01*
X99294Y-48330D01*
X99310Y-48250D01*
X99310Y-48157D01*
X99349Y-48117D01*
X99394Y-48008D01*
X99395Y-47891D01*
X99350Y-47783D01*
X99267Y-47700D01*
X99158Y-47655D01*
X99041Y-47654D01*
X98933Y-47699D01*
X98900Y-47732D01*
X98867Y-47700D01*
X98758Y-47655D01*
X98695Y-47654D01*
X98695Y-45941D01*
X98650Y-45833D01*
X98567Y-45750D01*
X98458Y-45705D01*
X98341Y-45704D01*
X98233Y-45749D01*
X98150Y-45832D01*
X98105Y-45941D01*
X98104Y-46040D01*
X98083Y-46049D01*
X98000Y-46132D01*
X97955Y-46241D01*
X97954Y-46358D01*
X97999Y-46466D01*
X98007Y-46474D01*
X98000Y-46482D01*
X97955Y-46591D01*
X97954Y-46708D01*
X97999Y-46816D01*
X98007Y-46824D01*
X98000Y-46832D01*
X97955Y-46941D01*
X97954Y-47058D01*
X97999Y-47166D01*
X98082Y-47249D01*
X98191Y-47294D01*
X98308Y-47295D01*
X98416Y-47250D01*
X98499Y-47167D01*
X98544Y-47058D01*
X98545Y-46941D01*
X98500Y-46833D01*
X98492Y-46825D01*
X98499Y-46817D01*
X98544Y-46708D01*
X98545Y-46591D01*
X98500Y-46483D01*
X98492Y-46475D01*
X98499Y-46467D01*
X98544Y-46358D01*
X98545Y-46259D01*
X98566Y-46250D01*
X98649Y-46167D01*
X98694Y-46058D01*
X98695Y-45941D01*
X98695Y-47654D01*
X98641Y-47654D01*
X98545Y-47694D01*
X98545Y-47641D01*
X98500Y-47533D01*
X98417Y-47450D01*
X98308Y-47405D01*
X98191Y-47404D01*
X98083Y-47449D01*
X98000Y-47532D01*
X97955Y-47641D01*
X97954Y-47758D01*
X97999Y-47866D01*
X98007Y-47874D01*
X98000Y-47882D01*
X97955Y-47991D01*
X97954Y-48108D01*
X97999Y-48216D01*
X98007Y-48224D01*
X98000Y-48232D01*
X97955Y-48341D01*
X97954Y-48458D01*
X97999Y-48566D01*
X98007Y-48574D01*
X98000Y-48582D01*
X97955Y-48691D01*
X97954Y-48808D01*
X97999Y-48916D01*
X98067Y-48985D01*
X97285Y-49767D01*
X97250Y-49683D01*
X97210Y-49642D01*
X97210Y-46650D01*
X97194Y-46569D01*
X97148Y-46501D01*
X96820Y-46173D01*
X96820Y-42406D01*
X96748Y-42234D01*
X96616Y-42101D01*
X96443Y-42030D01*
X96256Y-42029D01*
X96084Y-42101D01*
X95951Y-42233D01*
X95880Y-42406D01*
X95879Y-42593D01*
X95951Y-42765D01*
X96083Y-42898D01*
X96256Y-42969D01*
X96443Y-42970D01*
X96615Y-42898D01*
X96748Y-42766D01*
X96819Y-42593D01*
X96820Y-42406D01*
X96820Y-46173D01*
X95417Y-44770D01*
X95466Y-44750D01*
X95474Y-44742D01*
X95482Y-44749D01*
X95591Y-44794D01*
X95708Y-44795D01*
X95816Y-44750D01*
X95824Y-44742D01*
X95832Y-44749D01*
X95941Y-44794D01*
X96058Y-44795D01*
X96166Y-44750D01*
X96174Y-44742D01*
X96182Y-44749D01*
X96291Y-44794D01*
X96408Y-44795D01*
X96516Y-44750D01*
X96599Y-44667D01*
X96644Y-44558D01*
X96645Y-44441D01*
X96600Y-44333D01*
X96517Y-44250D01*
X96408Y-44205D01*
X96291Y-44204D01*
X96183Y-44249D01*
X96175Y-44257D01*
X96167Y-44250D01*
X96058Y-44205D01*
X95941Y-44204D01*
X95833Y-44249D01*
X95825Y-44257D01*
X95820Y-44252D01*
X95820Y-42406D01*
X95748Y-42234D01*
X95616Y-42101D01*
X95443Y-42030D01*
X95256Y-42029D01*
X95084Y-42101D01*
X94951Y-42233D01*
X94880Y-42406D01*
X94879Y-42593D01*
X94951Y-42765D01*
X95083Y-42898D01*
X95256Y-42969D01*
X95443Y-42970D01*
X95615Y-42898D01*
X95748Y-42766D01*
X95819Y-42593D01*
X95820Y-42406D01*
X95820Y-44252D01*
X95817Y-44250D01*
X95708Y-44205D01*
X95591Y-44204D01*
X95483Y-44249D01*
X95475Y-44257D01*
X95467Y-44250D01*
X95358Y-44205D01*
X95241Y-44204D01*
X95133Y-44249D01*
X95050Y-44332D01*
X95029Y-44382D01*
X94820Y-44173D01*
X94820Y-42406D01*
X94748Y-42234D01*
X94616Y-42101D01*
X94443Y-42030D01*
X94256Y-42029D01*
X94084Y-42101D01*
X93951Y-42233D01*
X93880Y-42406D01*
X93879Y-42593D01*
X93951Y-42765D01*
X94083Y-42898D01*
X94256Y-42969D01*
X94443Y-42970D01*
X94615Y-42898D01*
X94748Y-42766D01*
X94819Y-42593D01*
X94820Y-42406D01*
X94820Y-44173D01*
X94424Y-43777D01*
X94356Y-43731D01*
X94276Y-43716D01*
X93820Y-43716D01*
X93820Y-42406D01*
X93748Y-42234D01*
X93616Y-42101D01*
X93443Y-42030D01*
X93256Y-42029D01*
X93084Y-42101D01*
X92951Y-42233D01*
X92880Y-42406D01*
X92879Y-42593D01*
X92951Y-42765D01*
X93083Y-42898D01*
X93256Y-42969D01*
X93443Y-42970D01*
X93615Y-42898D01*
X93748Y-42766D01*
X93819Y-42593D01*
X93820Y-42406D01*
X93820Y-43716D01*
X92820Y-43716D01*
X92820Y-42406D01*
X92748Y-42234D01*
X92616Y-42101D01*
X92443Y-42030D01*
X92256Y-42029D01*
X92084Y-42101D01*
X91951Y-42233D01*
X91880Y-42406D01*
X91879Y-42593D01*
X91951Y-42765D01*
X92083Y-42898D01*
X92256Y-42969D01*
X92443Y-42970D01*
X92615Y-42898D01*
X92748Y-42766D01*
X92819Y-42593D01*
X92820Y-42406D01*
X92820Y-43716D01*
X91820Y-43716D01*
X91820Y-42406D01*
X91748Y-42234D01*
X91616Y-42101D01*
X91443Y-42030D01*
X91256Y-42029D01*
X91084Y-42101D01*
X90951Y-42233D01*
X90880Y-42406D01*
X90879Y-42593D01*
X90951Y-42765D01*
X91083Y-42898D01*
X91256Y-42969D01*
X91443Y-42970D01*
X91615Y-42898D01*
X91748Y-42766D01*
X91819Y-42593D01*
X91820Y-42406D01*
X91820Y-43716D01*
X90820Y-43716D01*
X90820Y-42406D01*
X90748Y-42234D01*
X90616Y-42101D01*
X90443Y-42030D01*
X90256Y-42029D01*
X90084Y-42101D01*
X89951Y-42233D01*
X89880Y-42406D01*
X89879Y-42593D01*
X89951Y-42765D01*
X90083Y-42898D01*
X90256Y-42969D01*
X90443Y-42970D01*
X90615Y-42898D01*
X90748Y-42766D01*
X90819Y-42593D01*
X90820Y-42406D01*
X90820Y-43716D01*
X89820Y-43716D01*
X89820Y-42406D01*
X89748Y-42234D01*
X89616Y-42101D01*
X89443Y-42030D01*
X89256Y-42029D01*
X89084Y-42101D01*
X88951Y-42233D01*
X88880Y-42406D01*
X88879Y-42593D01*
X88951Y-42765D01*
X89083Y-42898D01*
X89256Y-42969D01*
X89443Y-42970D01*
X89615Y-42898D01*
X89748Y-42766D01*
X89819Y-42593D01*
X89820Y-42406D01*
X89820Y-43716D01*
X89200Y-43716D01*
X89244Y-43608D01*
X89245Y-43491D01*
X89200Y-43383D01*
X89117Y-43300D01*
X89008Y-43255D01*
X88891Y-43254D01*
X88820Y-43284D01*
X88820Y-42406D01*
X88748Y-42234D01*
X88616Y-42101D01*
X88443Y-42030D01*
X88256Y-42029D01*
X88084Y-42101D01*
X87951Y-42233D01*
X87880Y-42406D01*
X87879Y-42593D01*
X87951Y-42765D01*
X88083Y-42898D01*
X88256Y-42969D01*
X88443Y-42970D01*
X88615Y-42898D01*
X88748Y-42766D01*
X88819Y-42593D01*
X88820Y-42406D01*
X88820Y-43284D01*
X88783Y-43299D01*
X88700Y-43382D01*
X88655Y-43491D01*
X88655Y-43504D01*
X88641Y-43504D01*
X88533Y-43549D01*
X88450Y-43632D01*
X88405Y-43741D01*
X88404Y-43858D01*
X88449Y-43966D01*
X88522Y-44040D01*
X87820Y-44040D01*
X87820Y-42406D01*
X87748Y-42234D01*
X87616Y-42101D01*
X87443Y-42030D01*
X87256Y-42029D01*
X87084Y-42101D01*
X86951Y-42233D01*
X86880Y-42406D01*
X86879Y-42593D01*
X86951Y-42765D01*
X87083Y-42898D01*
X87256Y-42969D01*
X87443Y-42970D01*
X87615Y-42898D01*
X87748Y-42766D01*
X87819Y-42593D01*
X87820Y-42406D01*
X87820Y-44040D01*
X86820Y-44040D01*
X86820Y-42406D01*
X86748Y-42234D01*
X86616Y-42101D01*
X86443Y-42030D01*
X86256Y-42029D01*
X86084Y-42101D01*
X85951Y-42233D01*
X85880Y-42406D01*
X85879Y-42593D01*
X85951Y-42765D01*
X86083Y-42898D01*
X86256Y-42969D01*
X86443Y-42970D01*
X86615Y-42898D01*
X86748Y-42766D01*
X86819Y-42593D01*
X86820Y-42406D01*
X86820Y-44040D01*
X85820Y-44040D01*
X85820Y-42406D01*
X85748Y-42234D01*
X85616Y-42101D01*
X85443Y-42030D01*
X85256Y-42029D01*
X85084Y-42101D01*
X84951Y-42233D01*
X84880Y-42406D01*
X84879Y-42593D01*
X84951Y-42765D01*
X85083Y-42898D01*
X85256Y-42969D01*
X85443Y-42970D01*
X85615Y-42898D01*
X85748Y-42766D01*
X85819Y-42593D01*
X85820Y-42406D01*
X85820Y-44040D01*
X85244Y-44040D01*
X85245Y-43941D01*
X85200Y-43833D01*
X85117Y-43750D01*
X85008Y-43705D01*
X84891Y-43704D01*
X84820Y-43734D01*
X84820Y-42406D01*
X84748Y-42234D01*
X84616Y-42101D01*
X84443Y-42030D01*
X84256Y-42029D01*
X84084Y-42101D01*
X83951Y-42233D01*
X83880Y-42406D01*
X83879Y-42593D01*
X83951Y-42765D01*
X84083Y-42898D01*
X84256Y-42969D01*
X84443Y-42970D01*
X84615Y-42898D01*
X84748Y-42766D01*
X84819Y-42593D01*
X84820Y-42406D01*
X84820Y-43734D01*
X84783Y-43749D01*
X84700Y-43832D01*
X84655Y-43941D01*
X84654Y-44040D01*
X83820Y-44040D01*
X83820Y-42406D01*
X83748Y-42234D01*
X83616Y-42101D01*
X83443Y-42030D01*
X83256Y-42029D01*
X83084Y-42101D01*
X82951Y-42233D01*
X82880Y-42406D01*
X82879Y-42593D01*
X82951Y-42765D01*
X83083Y-42898D01*
X83256Y-42969D01*
X83443Y-42970D01*
X83615Y-42898D01*
X83748Y-42766D01*
X83819Y-42593D01*
X83820Y-42406D01*
X83820Y-44040D01*
X82820Y-44040D01*
X82820Y-42406D01*
X82748Y-42234D01*
X82616Y-42101D01*
X82443Y-42030D01*
X82256Y-42029D01*
X82084Y-42101D01*
X81951Y-42233D01*
X81880Y-42406D01*
X81879Y-42593D01*
X81951Y-42765D01*
X82083Y-42898D01*
X82256Y-42969D01*
X82443Y-42970D01*
X82615Y-42898D01*
X82748Y-42766D01*
X82819Y-42593D01*
X82820Y-42406D01*
X82820Y-44040D01*
X81820Y-44040D01*
X81820Y-42406D01*
X81748Y-42234D01*
X81616Y-42101D01*
X81443Y-42030D01*
X81256Y-42029D01*
X81084Y-42101D01*
X80951Y-42233D01*
X80880Y-42406D01*
X80879Y-42593D01*
X80951Y-42765D01*
X81083Y-42898D01*
X81256Y-42969D01*
X81443Y-42970D01*
X81615Y-42898D01*
X81748Y-42766D01*
X81819Y-42593D01*
X81820Y-42406D01*
X81820Y-44040D01*
X80820Y-44040D01*
X80820Y-42406D01*
X80748Y-42234D01*
X80616Y-42101D01*
X80443Y-42030D01*
X80256Y-42029D01*
X80084Y-42101D01*
X79951Y-42233D01*
X79880Y-42406D01*
X79879Y-42593D01*
X79951Y-42765D01*
X80083Y-42898D01*
X80256Y-42969D01*
X80443Y-42970D01*
X80615Y-42898D01*
X80748Y-42766D01*
X80819Y-42593D01*
X80820Y-42406D01*
X80820Y-44040D01*
X80291Y-44040D01*
X80291Y-43637D01*
X80291Y-43600D01*
X80291Y-43562D01*
X80291Y-43561D01*
X80291Y-43561D01*
X80291Y-43561D01*
X80276Y-43485D01*
X80276Y-43485D01*
X80276Y-43485D01*
X80246Y-43414D01*
X80203Y-43350D01*
X80149Y-43296D01*
X80149Y-43296D01*
X80085Y-43253D01*
X80084Y-43253D01*
X80084Y-43252D01*
X80014Y-43223D01*
X79937Y-43208D01*
X79861Y-43208D01*
X79861Y-43208D01*
X79820Y-43217D01*
X79820Y-42406D01*
X79748Y-42234D01*
X79616Y-42101D01*
X79443Y-42030D01*
X79256Y-42029D01*
X79084Y-42101D01*
X78951Y-42233D01*
X78880Y-42406D01*
X78879Y-42593D01*
X78951Y-42765D01*
X79083Y-42898D01*
X79256Y-42969D01*
X79443Y-42970D01*
X79615Y-42898D01*
X79748Y-42766D01*
X79819Y-42593D01*
X79820Y-42406D01*
X79820Y-43217D01*
X79785Y-43223D01*
X79785Y-43223D01*
X79785Y-43223D01*
X79714Y-43253D01*
X79650Y-43296D01*
X79596Y-43350D01*
X79596Y-43350D01*
X79553Y-43414D01*
X79553Y-43415D01*
X79552Y-43415D01*
X79523Y-43485D01*
X79508Y-43562D01*
X79508Y-43600D01*
X79508Y-43637D01*
X79508Y-43638D01*
X79523Y-43714D01*
X79552Y-43784D01*
X79553Y-43784D01*
X79553Y-43785D01*
X79596Y-43849D01*
X79596Y-43849D01*
X79650Y-43903D01*
X79714Y-43946D01*
X79785Y-43976D01*
X79785Y-43976D01*
X79785Y-43976D01*
X79861Y-43991D01*
X79861Y-43991D01*
X79937Y-43991D01*
X80014Y-43976D01*
X80014Y-43975D01*
X80084Y-43947D01*
X80084Y-43946D01*
X80085Y-43946D01*
X80149Y-43903D01*
X80149Y-43903D01*
X80203Y-43849D01*
X80246Y-43785D01*
X80276Y-43714D01*
X80276Y-43714D01*
X80276Y-43714D01*
X80291Y-43638D01*
X80291Y-43638D01*
X80291Y-43638D01*
X80291Y-43637D01*
X80291Y-44040D01*
X78820Y-44040D01*
X78820Y-42406D01*
X78748Y-42234D01*
X78616Y-42101D01*
X78443Y-42030D01*
X78256Y-42029D01*
X78084Y-42101D01*
X77951Y-42233D01*
X77880Y-42406D01*
X77879Y-42593D01*
X77951Y-42765D01*
X78083Y-42898D01*
X78256Y-42969D01*
X78443Y-42970D01*
X78615Y-42898D01*
X78748Y-42766D01*
X78819Y-42593D01*
X78820Y-42406D01*
X78820Y-44040D01*
X78600Y-44040D01*
X78519Y-44055D01*
X78451Y-44101D01*
X78451Y-44101D01*
X78348Y-44204D01*
X78291Y-44204D01*
X78183Y-44249D01*
X78100Y-44332D01*
X78070Y-44404D01*
X78070Y-43606D01*
X77998Y-43434D01*
X77866Y-43301D01*
X77820Y-43282D01*
X77820Y-42766D01*
X77820Y-42166D01*
X77794Y-42103D01*
X77746Y-42055D01*
X77683Y-42030D01*
X77616Y-42029D01*
X77016Y-42029D01*
X76953Y-42055D01*
X76905Y-42103D01*
X76880Y-42166D01*
X76879Y-42233D01*
X76879Y-42833D01*
X76905Y-42896D01*
X76953Y-42944D01*
X77016Y-42969D01*
X77083Y-42970D01*
X77683Y-42970D01*
X77746Y-42944D01*
X77794Y-42896D01*
X77819Y-42833D01*
X77820Y-42766D01*
X77820Y-43282D01*
X77693Y-43230D01*
X77506Y-43229D01*
X77334Y-43301D01*
X77201Y-43433D01*
X77130Y-43606D01*
X77129Y-43793D01*
X77201Y-43965D01*
X77333Y-44098D01*
X77506Y-44169D01*
X77693Y-44170D01*
X77865Y-44098D01*
X77998Y-43966D01*
X78069Y-43793D01*
X78070Y-43606D01*
X78070Y-44404D01*
X78055Y-44441D01*
X78054Y-44558D01*
X78099Y-44666D01*
X78182Y-44749D01*
X78291Y-44794D01*
X78408Y-44795D01*
X78516Y-44750D01*
X78524Y-44742D01*
X78532Y-44749D01*
X78641Y-44794D01*
X78758Y-44795D01*
X78866Y-44750D01*
X78874Y-44742D01*
X78882Y-44749D01*
X78991Y-44794D01*
X79108Y-44795D01*
X79216Y-44750D01*
X79224Y-44742D01*
X79232Y-44749D01*
X79341Y-44794D01*
X79458Y-44795D01*
X79566Y-44750D01*
X79649Y-44667D01*
X79694Y-44558D01*
X79695Y-44460D01*
X80105Y-44460D01*
X80104Y-44558D01*
X80149Y-44666D01*
X80232Y-44749D01*
X80341Y-44794D01*
X80458Y-44795D01*
X80566Y-44750D01*
X80574Y-44742D01*
X80582Y-44749D01*
X80690Y-44794D01*
X80690Y-48655D01*
X80591Y-48654D01*
X80483Y-48699D01*
X80400Y-48782D01*
X80355Y-48891D01*
X80354Y-49008D01*
X80399Y-49116D01*
X80407Y-49124D01*
X80400Y-49132D01*
X80355Y-49241D01*
X80354Y-49358D01*
X80399Y-49466D01*
X80482Y-49549D01*
X80591Y-49594D01*
X80690Y-49595D01*
X80690Y-54550D01*
X80705Y-54630D01*
X80751Y-54698D01*
X81639Y-55586D01*
X81608Y-55599D01*
X81525Y-55682D01*
X81480Y-55791D01*
X81479Y-55908D01*
X81524Y-56016D01*
X81607Y-56099D01*
X81716Y-56144D01*
X81833Y-56145D01*
X81941Y-56100D01*
X82010Y-56032D01*
X82041Y-56044D01*
X82158Y-56045D01*
X82266Y-56000D01*
X82274Y-55992D01*
X82282Y-55999D01*
X82391Y-56044D01*
X82508Y-56045D01*
X82616Y-56000D01*
X82699Y-55917D01*
X82744Y-55808D01*
X82745Y-55694D01*
X82858Y-55695D01*
X82966Y-55650D01*
X82974Y-55642D01*
X82982Y-55649D01*
X83091Y-55694D01*
X83208Y-55695D01*
X83316Y-55650D01*
X83324Y-55642D01*
X83332Y-55649D01*
X83441Y-55694D01*
X83558Y-55695D01*
X83607Y-55674D01*
X83682Y-55749D01*
X83755Y-55779D01*
X83754Y-55858D01*
X83799Y-55966D01*
X83882Y-56049D01*
X83991Y-56094D01*
X84108Y-56095D01*
X84216Y-56050D01*
X84299Y-55967D01*
X84344Y-55858D01*
X84345Y-55741D01*
X84300Y-55633D01*
X84217Y-55550D01*
X84144Y-55520D01*
X84145Y-55441D01*
X84100Y-55333D01*
X84017Y-55250D01*
X83908Y-55205D01*
X83791Y-55204D01*
X83742Y-55225D01*
X83667Y-55150D01*
X83558Y-55105D01*
X83501Y-55105D01*
X83221Y-54824D01*
X83153Y-54778D01*
X83073Y-54763D01*
X83054Y-54763D01*
X83099Y-54717D01*
X83144Y-54608D01*
X83145Y-54491D01*
X83100Y-54383D01*
X83017Y-54300D01*
X82908Y-54255D01*
X82791Y-54254D01*
X82683Y-54299D01*
X82600Y-54382D01*
X82594Y-54397D01*
X81920Y-53723D01*
X81920Y-45776D01*
X82901Y-44795D01*
X82958Y-44795D01*
X83066Y-44750D01*
X83099Y-44717D01*
X83132Y-44749D01*
X83241Y-44794D01*
X83358Y-44795D01*
X83466Y-44750D01*
X83474Y-44742D01*
X83482Y-44749D01*
X83591Y-44794D01*
X83708Y-44795D01*
X83816Y-44750D01*
X83824Y-44742D01*
X83832Y-44749D01*
X83941Y-44794D01*
X84058Y-44795D01*
X84166Y-44750D01*
X84174Y-44742D01*
X84182Y-44749D01*
X84291Y-44794D01*
X84408Y-44795D01*
X84516Y-44750D01*
X84599Y-44667D01*
X84644Y-44558D01*
X84645Y-44460D01*
X85355Y-44460D01*
X85354Y-44558D01*
X85399Y-44666D01*
X85482Y-44749D01*
X85591Y-44794D01*
X85708Y-44795D01*
X85816Y-44750D01*
X85824Y-44742D01*
X85832Y-44749D01*
X85941Y-44794D01*
X86058Y-44795D01*
X86166Y-44750D01*
X86174Y-44742D01*
X86182Y-44749D01*
X86291Y-44794D01*
X86408Y-44795D01*
X86516Y-44750D01*
X86599Y-44667D01*
X86644Y-44558D01*
X86645Y-44460D01*
X87005Y-44460D01*
X87004Y-44558D01*
X87049Y-44666D01*
X87132Y-44749D01*
X87241Y-44794D01*
X87358Y-44795D01*
X87466Y-44750D01*
X87474Y-44742D01*
X87482Y-44749D01*
X87591Y-44794D01*
X87708Y-44795D01*
X87816Y-44750D01*
X87824Y-44742D01*
X87832Y-44749D01*
X87941Y-44794D01*
X88058Y-44795D01*
X88166Y-44750D01*
X88249Y-44667D01*
X88294Y-44558D01*
X88295Y-44460D01*
X88650Y-44460D01*
X88730Y-44444D01*
X88798Y-44398D01*
X89060Y-44136D01*
X94189Y-44136D01*
X94267Y-44214D01*
X94183Y-44249D01*
X94175Y-44257D01*
X94167Y-44250D01*
X94058Y-44205D01*
X93941Y-44204D01*
X93833Y-44249D01*
X93825Y-44257D01*
X93817Y-44250D01*
X93708Y-44205D01*
X93591Y-44204D01*
X93483Y-44249D01*
X93475Y-44257D01*
X93467Y-44250D01*
X93358Y-44205D01*
X93241Y-44204D01*
X93133Y-44249D01*
X93058Y-44324D01*
X93030Y-44305D01*
X92950Y-44290D01*
X92557Y-44290D01*
X92517Y-44250D01*
X92408Y-44205D01*
X92291Y-44204D01*
X92183Y-44249D01*
X92175Y-44257D01*
X92167Y-44250D01*
X92058Y-44205D01*
X91941Y-44204D01*
X91833Y-44249D01*
X91825Y-44257D01*
X91817Y-44250D01*
X91708Y-44205D01*
X91591Y-44204D01*
X91483Y-44249D01*
X91475Y-44257D01*
X91467Y-44250D01*
X91358Y-44205D01*
X91241Y-44204D01*
X91133Y-44249D01*
X91050Y-44332D01*
X91005Y-44441D01*
X91004Y-44558D01*
X91049Y-44666D01*
X91090Y-44707D01*
X91090Y-44943D01*
X90645Y-44498D01*
X90645Y-44441D01*
X90600Y-44333D01*
X90517Y-44250D01*
X90408Y-44205D01*
X90291Y-44204D01*
X90183Y-44249D01*
X90175Y-44257D01*
X90167Y-44250D01*
X90058Y-44205D01*
X89941Y-44204D01*
X89833Y-44249D01*
X89825Y-44257D01*
X89817Y-44250D01*
X89708Y-44205D01*
X89591Y-44204D01*
X89483Y-44249D01*
X89475Y-44257D01*
X89467Y-44250D01*
X89358Y-44205D01*
X89241Y-44204D01*
X89133Y-44249D01*
X89050Y-44332D01*
X89005Y-44441D01*
X89004Y-44558D01*
X89049Y-44666D01*
X89132Y-44749D01*
X89241Y-44794D01*
X89358Y-44795D01*
X89466Y-44750D01*
X89474Y-44742D01*
X89482Y-44749D01*
X89591Y-44794D01*
X89708Y-44795D01*
X89816Y-44750D01*
X89824Y-44742D01*
X89832Y-44749D01*
X89941Y-44794D01*
X89998Y-44794D01*
X91417Y-46214D01*
X91350Y-46282D01*
X91305Y-46391D01*
X91304Y-46508D01*
X91349Y-46616D01*
X91425Y-46692D01*
X91405Y-46741D01*
X91404Y-46858D01*
X91449Y-46966D01*
X91525Y-47042D01*
X91505Y-47091D01*
X91505Y-47137D01*
X91467Y-47100D01*
X91358Y-47055D01*
X91345Y-47055D01*
X91345Y-47041D01*
X91300Y-46933D01*
X91217Y-46850D01*
X91108Y-46805D01*
X91095Y-46805D01*
X91095Y-46791D01*
X91050Y-46683D01*
X90967Y-46600D01*
X90858Y-46555D01*
X90741Y-46554D01*
X90633Y-46599D01*
X90550Y-46682D01*
X90505Y-46791D01*
X90504Y-46908D01*
X90549Y-47016D01*
X90632Y-47099D01*
X90741Y-47144D01*
X90754Y-47144D01*
X90754Y-47158D01*
X90799Y-47266D01*
X90882Y-47349D01*
X90991Y-47394D01*
X91004Y-47394D01*
X91004Y-47408D01*
X91049Y-47516D01*
X91132Y-47599D01*
X91241Y-47644D01*
X91254Y-47644D01*
X91254Y-47658D01*
X91299Y-47766D01*
X91382Y-47849D01*
X91491Y-47894D01*
X91608Y-47895D01*
X91716Y-47850D01*
X91799Y-47767D01*
X91844Y-47658D01*
X91845Y-47541D01*
X91805Y-47445D01*
X91858Y-47445D01*
X91966Y-47400D01*
X92049Y-47317D01*
X92094Y-47208D01*
X92095Y-47091D01*
X92050Y-46983D01*
X91974Y-46907D01*
X91994Y-46858D01*
X91995Y-46791D01*
X92004Y-46801D01*
X92004Y-46808D01*
X92049Y-46916D01*
X92132Y-46999D01*
X92241Y-47044D01*
X92358Y-47045D01*
X92466Y-47000D01*
X92549Y-46917D01*
X92594Y-46808D01*
X92594Y-46751D01*
X92886Y-46460D01*
X93005Y-46460D01*
X93004Y-46558D01*
X93049Y-46666D01*
X93132Y-46749D01*
X93241Y-46794D01*
X93254Y-46794D01*
X93254Y-46808D01*
X93299Y-46916D01*
X93382Y-46999D01*
X93491Y-47044D01*
X93504Y-47044D01*
X93504Y-47058D01*
X93549Y-47166D01*
X93632Y-47249D01*
X93741Y-47294D01*
X93754Y-47294D01*
X93754Y-47308D01*
X93799Y-47416D01*
X93882Y-47499D01*
X93991Y-47544D01*
X94004Y-47544D01*
X94004Y-47558D01*
X94049Y-47666D01*
X94132Y-47749D01*
X94241Y-47794D01*
X94254Y-47794D01*
X94254Y-47808D01*
X94299Y-47916D01*
X94382Y-47999D01*
X94491Y-48044D01*
X94504Y-48044D01*
X94504Y-48058D01*
X94549Y-48166D01*
X94632Y-48249D01*
X94741Y-48294D01*
X94754Y-48294D01*
X94754Y-48308D01*
X94799Y-48416D01*
X94882Y-48499D01*
X94991Y-48544D01*
X95108Y-48545D01*
X95216Y-48500D01*
X95299Y-48417D01*
X95305Y-48402D01*
X96093Y-49190D01*
X93095Y-49190D01*
X93095Y-47991D01*
X93050Y-47883D01*
X92967Y-47800D01*
X92858Y-47755D01*
X92845Y-47755D01*
X92845Y-47741D01*
X92800Y-47633D01*
X92717Y-47550D01*
X92608Y-47505D01*
X92491Y-47504D01*
X92383Y-47549D01*
X92300Y-47632D01*
X92255Y-47741D01*
X92254Y-47858D01*
X92299Y-47966D01*
X92382Y-48049D01*
X92491Y-48094D01*
X92504Y-48094D01*
X92504Y-48108D01*
X92549Y-48216D01*
X92632Y-48299D01*
X92741Y-48344D01*
X92858Y-48345D01*
X92966Y-48300D01*
X93049Y-48217D01*
X93094Y-48108D01*
X93095Y-47991D01*
X93095Y-49190D01*
X90645Y-49190D01*
X90645Y-47991D01*
X90600Y-47883D01*
X90592Y-47875D01*
X90599Y-47867D01*
X90644Y-47758D01*
X90645Y-47641D01*
X90600Y-47533D01*
X90517Y-47450D01*
X90408Y-47405D01*
X90291Y-47404D01*
X90183Y-47449D01*
X90100Y-47532D01*
X90055Y-47641D01*
X90054Y-47758D01*
X90099Y-47866D01*
X90107Y-47874D01*
X90100Y-47882D01*
X90055Y-47991D01*
X90054Y-48108D01*
X90099Y-48216D01*
X90182Y-48299D01*
X90291Y-48344D01*
X90408Y-48345D01*
X90516Y-48300D01*
X90599Y-48217D01*
X90644Y-48108D01*
X90645Y-47991D01*
X90645Y-49190D01*
X89345Y-49190D01*
X89345Y-48091D01*
X89300Y-47983D01*
X89292Y-47975D01*
X89299Y-47967D01*
X89344Y-47858D01*
X89345Y-47741D01*
X89300Y-47633D01*
X89217Y-47550D01*
X89108Y-47505D01*
X89005Y-47504D01*
X89016Y-47500D01*
X89099Y-47417D01*
X89144Y-47308D01*
X89145Y-47229D01*
X89216Y-47200D01*
X89299Y-47117D01*
X89344Y-47008D01*
X89345Y-46891D01*
X89300Y-46783D01*
X89217Y-46700D01*
X89108Y-46655D01*
X89029Y-46654D01*
X89000Y-46583D01*
X88917Y-46500D01*
X88808Y-46455D01*
X88691Y-46454D01*
X88583Y-46499D01*
X88500Y-46582D01*
X88455Y-46691D01*
X88454Y-46790D01*
X84800Y-46790D01*
X84799Y-46790D01*
X84784Y-46793D01*
X84719Y-46805D01*
X84651Y-46851D01*
X84651Y-46851D01*
X84498Y-47004D01*
X84441Y-47004D01*
X84333Y-47049D01*
X84250Y-47132D01*
X84205Y-47241D01*
X84204Y-47358D01*
X84249Y-47466D01*
X84332Y-47549D01*
X84441Y-47594D01*
X84558Y-47595D01*
X84666Y-47550D01*
X84699Y-47517D01*
X84732Y-47549D01*
X84841Y-47594D01*
X84958Y-47595D01*
X85066Y-47550D01*
X85074Y-47542D01*
X85082Y-47549D01*
X85191Y-47594D01*
X85308Y-47595D01*
X85416Y-47550D01*
X85499Y-47467D01*
X85544Y-47358D01*
X85545Y-47241D01*
X85532Y-47210D01*
X88555Y-47210D01*
X88554Y-47308D01*
X88599Y-47416D01*
X88682Y-47499D01*
X88791Y-47544D01*
X88894Y-47545D01*
X88883Y-47549D01*
X88800Y-47632D01*
X88755Y-47741D01*
X88754Y-47858D01*
X88799Y-47966D01*
X88807Y-47974D01*
X88800Y-47982D01*
X88755Y-48091D01*
X88754Y-48208D01*
X88799Y-48316D01*
X88882Y-48399D01*
X88991Y-48444D01*
X89108Y-48445D01*
X89216Y-48400D01*
X89299Y-48317D01*
X89344Y-48208D01*
X89345Y-48091D01*
X89345Y-49190D01*
X87745Y-49190D01*
X87745Y-48291D01*
X87700Y-48183D01*
X87617Y-48100D01*
X87508Y-48055D01*
X87395Y-48054D01*
X87395Y-47691D01*
X87350Y-47583D01*
X87267Y-47500D01*
X87158Y-47455D01*
X87041Y-47454D01*
X86957Y-47489D01*
X86917Y-47450D01*
X86808Y-47405D01*
X86691Y-47404D01*
X86583Y-47449D01*
X86500Y-47532D01*
X86455Y-47641D01*
X86454Y-47758D01*
X86499Y-47866D01*
X86582Y-47949D01*
X86691Y-47994D01*
X86808Y-47995D01*
X86892Y-47960D01*
X86932Y-47999D01*
X87041Y-48044D01*
X87158Y-48045D01*
X87266Y-48000D01*
X87349Y-47917D01*
X87394Y-47808D01*
X87395Y-47691D01*
X87395Y-48054D01*
X87391Y-48054D01*
X87283Y-48099D01*
X87200Y-48182D01*
X87155Y-48291D01*
X87154Y-48408D01*
X87199Y-48516D01*
X87282Y-48599D01*
X87391Y-48644D01*
X87508Y-48645D01*
X87616Y-48600D01*
X87699Y-48517D01*
X87744Y-48408D01*
X87745Y-48291D01*
X87745Y-49190D01*
X86086Y-49190D01*
X85048Y-48151D01*
X84980Y-48105D01*
X84971Y-48104D01*
X84917Y-48050D01*
X84808Y-48005D01*
X84691Y-48004D01*
X84583Y-48049D01*
X84514Y-48118D01*
X84500Y-48083D01*
X84417Y-48000D01*
X84308Y-47955D01*
X84191Y-47954D01*
X84083Y-47999D01*
X84000Y-48082D01*
X83955Y-48191D01*
X83955Y-48205D01*
X83891Y-48204D01*
X83783Y-48249D01*
X83700Y-48332D01*
X83655Y-48441D01*
X83654Y-48558D01*
X83699Y-48666D01*
X83782Y-48749D01*
X83782Y-48750D01*
X83700Y-48832D01*
X83655Y-48941D01*
X83654Y-49058D01*
X83699Y-49166D01*
X83737Y-49205D01*
X83641Y-49204D01*
X83585Y-49228D01*
X83195Y-49228D01*
X83195Y-48191D01*
X83150Y-48083D01*
X83067Y-48000D01*
X82995Y-47970D01*
X82995Y-47241D01*
X82950Y-47133D01*
X82867Y-47050D01*
X82758Y-47005D01*
X82641Y-47004D01*
X82533Y-47049D01*
X82450Y-47132D01*
X82405Y-47241D01*
X82404Y-47358D01*
X82449Y-47466D01*
X82532Y-47549D01*
X82641Y-47594D01*
X82758Y-47595D01*
X82866Y-47550D01*
X82949Y-47467D01*
X82994Y-47358D01*
X82995Y-47241D01*
X82995Y-47970D01*
X82958Y-47955D01*
X82841Y-47954D01*
X82733Y-47999D01*
X82700Y-48032D01*
X82667Y-48000D01*
X82558Y-47955D01*
X82441Y-47954D01*
X82333Y-47999D01*
X82250Y-48082D01*
X82205Y-48191D01*
X82204Y-48308D01*
X82249Y-48416D01*
X82332Y-48499D01*
X82441Y-48544D01*
X82558Y-48545D01*
X82666Y-48500D01*
X82699Y-48467D01*
X82732Y-48499D01*
X82841Y-48544D01*
X82958Y-48545D01*
X83066Y-48500D01*
X83149Y-48417D01*
X83194Y-48308D01*
X83195Y-48191D01*
X83195Y-49228D01*
X82962Y-49228D01*
X82881Y-49243D01*
X82813Y-49289D01*
X82401Y-49701D01*
X82355Y-49769D01*
X82340Y-49850D01*
X82340Y-51142D01*
X82300Y-51182D01*
X82255Y-51291D01*
X82254Y-51408D01*
X82299Y-51516D01*
X82307Y-51524D01*
X82300Y-51532D01*
X82255Y-51641D01*
X82254Y-51758D01*
X82299Y-51866D01*
X82307Y-51874D01*
X82300Y-51882D01*
X82255Y-51991D01*
X82254Y-52108D01*
X82299Y-52216D01*
X82382Y-52299D01*
X82491Y-52344D01*
X82608Y-52345D01*
X82716Y-52300D01*
X82758Y-52258D01*
X82830Y-52244D01*
X82898Y-52198D01*
X83701Y-51395D01*
X83758Y-51395D01*
X83866Y-51350D01*
X83949Y-51267D01*
X83994Y-51158D01*
X83995Y-51041D01*
X83950Y-50933D01*
X83867Y-50850D01*
X83758Y-50805D01*
X83641Y-50804D01*
X83533Y-50849D01*
X83525Y-50857D01*
X83517Y-50850D01*
X83408Y-50805D01*
X83291Y-50804D01*
X83183Y-50849D01*
X83100Y-50932D01*
X83055Y-51041D01*
X83055Y-51098D01*
X82845Y-51307D01*
X82845Y-51291D01*
X82800Y-51183D01*
X82760Y-51142D01*
X82760Y-50027D01*
X82782Y-50049D01*
X82891Y-50094D01*
X83008Y-50095D01*
X83092Y-50060D01*
X83132Y-50099D01*
X83241Y-50144D01*
X83298Y-50144D01*
X83301Y-50148D01*
X83301Y-50148D01*
X83342Y-50175D01*
X83369Y-50194D01*
X83369Y-50194D01*
X83450Y-50210D01*
X85267Y-50210D01*
X85255Y-50241D01*
X85254Y-50358D01*
X85299Y-50466D01*
X85382Y-50549D01*
X85491Y-50594D01*
X85608Y-50595D01*
X85716Y-50550D01*
X85791Y-50475D01*
X85819Y-50494D01*
X85819Y-50494D01*
X85884Y-50506D01*
X85899Y-50510D01*
X85899Y-50509D01*
X85900Y-50510D01*
X86395Y-50510D01*
X86355Y-50569D01*
X86340Y-50650D01*
X86340Y-51305D01*
X86241Y-51304D01*
X86133Y-51349D01*
X86050Y-51432D01*
X86005Y-51541D01*
X86004Y-51658D01*
X86049Y-51766D01*
X86132Y-51849D01*
X86241Y-51894D01*
X86340Y-51895D01*
X86340Y-53663D01*
X86139Y-53863D01*
X86093Y-53931D01*
X86078Y-54012D01*
X86078Y-54062D01*
X86058Y-54055D01*
X86045Y-54055D01*
X86045Y-54041D01*
X86000Y-53933D01*
X85917Y-53850D01*
X85808Y-53805D01*
X85691Y-53804D01*
X85583Y-53849D01*
X85500Y-53932D01*
X85455Y-54041D01*
X85454Y-54158D01*
X85499Y-54266D01*
X85582Y-54349D01*
X85691Y-54394D01*
X85704Y-54394D01*
X85704Y-54408D01*
X85749Y-54516D01*
X85832Y-54599D01*
X85941Y-54644D01*
X86008Y-54645D01*
X85963Y-54690D01*
X84957Y-54690D01*
X84917Y-54650D01*
X84808Y-54605D01*
X84795Y-54605D01*
X84795Y-50541D01*
X84750Y-50433D01*
X84667Y-50350D01*
X84558Y-50305D01*
X84441Y-50304D01*
X84333Y-50349D01*
X84250Y-50432D01*
X84205Y-50541D01*
X84204Y-50658D01*
X84249Y-50766D01*
X84332Y-50849D01*
X84441Y-50894D01*
X84558Y-50895D01*
X84666Y-50850D01*
X84749Y-50767D01*
X84794Y-50658D01*
X84795Y-50541D01*
X84795Y-54605D01*
X84691Y-54604D01*
X84583Y-54649D01*
X84500Y-54732D01*
X84455Y-54841D01*
X84454Y-54958D01*
X84499Y-55066D01*
X84582Y-55149D01*
X84691Y-55194D01*
X84808Y-55195D01*
X84916Y-55150D01*
X84957Y-55110D01*
X86050Y-55110D01*
X86130Y-55094D01*
X86198Y-55048D01*
X86436Y-54810D01*
X86436Y-54810D01*
X86436Y-54810D01*
X86463Y-54769D01*
X86482Y-54742D01*
X86482Y-54742D01*
X86498Y-54662D01*
X86498Y-54644D01*
X87301Y-55448D01*
X87301Y-55448D01*
X87342Y-55475D01*
X87369Y-55494D01*
X87369Y-55494D01*
X87450Y-55510D01*
X87567Y-55510D01*
X87555Y-55541D01*
X87554Y-55658D01*
X87577Y-55712D01*
X87558Y-55705D01*
X87441Y-55704D01*
X87333Y-55749D01*
X87250Y-55832D01*
X87205Y-55941D01*
X87204Y-56058D01*
X87217Y-56090D01*
X85786Y-56090D01*
X85717Y-56020D01*
X85766Y-56000D01*
X85849Y-55917D01*
X85894Y-55808D01*
X85895Y-55691D01*
X85850Y-55583D01*
X85767Y-55500D01*
X85658Y-55455D01*
X85541Y-55454D01*
X85433Y-55499D01*
X85350Y-55582D01*
X85340Y-55605D01*
X85241Y-55604D01*
X85133Y-55649D01*
X85125Y-55657D01*
X85117Y-55650D01*
X85008Y-55605D01*
X84891Y-55604D01*
X84783Y-55649D01*
X84700Y-55732D01*
X84655Y-55841D01*
X84654Y-55958D01*
X84699Y-56066D01*
X84782Y-56149D01*
X84891Y-56194D01*
X85008Y-56195D01*
X85116Y-56150D01*
X85124Y-56142D01*
X85132Y-56149D01*
X85241Y-56194D01*
X85298Y-56194D01*
X85551Y-56448D01*
X85551Y-56448D01*
X85619Y-56494D01*
X85619Y-56494D01*
X85684Y-56506D01*
X85699Y-56510D01*
X85699Y-56509D01*
X85700Y-56510D01*
X88092Y-56510D01*
X88132Y-56549D01*
X88241Y-56594D01*
X88358Y-56595D01*
X88466Y-56550D01*
X88549Y-56467D01*
X88594Y-56358D01*
X88595Y-56241D01*
X88550Y-56133D01*
X88467Y-56050D01*
X88358Y-56005D01*
X88241Y-56004D01*
X88133Y-56049D01*
X88124Y-56058D01*
X88144Y-56008D01*
X88145Y-55891D01*
X88100Y-55783D01*
X88092Y-55775D01*
X88099Y-55767D01*
X88144Y-55658D01*
X88145Y-55575D01*
X88191Y-55594D01*
X88205Y-55594D01*
X88204Y-55658D01*
X88249Y-55766D01*
X88332Y-55849D01*
X88441Y-55894D01*
X88558Y-55895D01*
X88666Y-55850D01*
X88749Y-55767D01*
X88794Y-55658D01*
X88795Y-55559D01*
X88816Y-55550D01*
X88899Y-55467D01*
X88944Y-55358D01*
X88945Y-55241D01*
X88900Y-55133D01*
X88817Y-55050D01*
X88708Y-55005D01*
X88591Y-55004D01*
X88545Y-55024D01*
X88545Y-53441D01*
X88500Y-53333D01*
X88417Y-53250D01*
X88308Y-53205D01*
X88191Y-53204D01*
X88083Y-53249D01*
X88000Y-53332D01*
X87955Y-53441D01*
X87954Y-53558D01*
X87999Y-53666D01*
X88082Y-53749D01*
X88191Y-53794D01*
X88308Y-53795D01*
X88416Y-53750D01*
X88499Y-53667D01*
X88544Y-53558D01*
X88545Y-53441D01*
X88545Y-55024D01*
X88483Y-55049D01*
X88450Y-55082D01*
X88417Y-55050D01*
X88308Y-55005D01*
X88191Y-55004D01*
X88083Y-55049D01*
X88042Y-55090D01*
X87536Y-55090D01*
X86660Y-54213D01*
X86660Y-54186D01*
X86948Y-53898D01*
X86948Y-53898D01*
X86948Y-53898D01*
X86994Y-53830D01*
X86994Y-53830D01*
X87006Y-53765D01*
X87010Y-53750D01*
X87009Y-53750D01*
X87010Y-53750D01*
X87010Y-50957D01*
X87049Y-50917D01*
X87094Y-50808D01*
X87095Y-50710D01*
X87646Y-50710D01*
X87649Y-50716D01*
X87732Y-50799D01*
X87793Y-50825D01*
X87733Y-50849D01*
X87650Y-50932D01*
X87605Y-51041D01*
X87604Y-51158D01*
X87649Y-51266D01*
X87732Y-51349D01*
X87841Y-51394D01*
X87898Y-51394D01*
X88001Y-51498D01*
X88001Y-51498D01*
X88069Y-51544D01*
X88069Y-51544D01*
X88150Y-51560D01*
X96146Y-51560D01*
X96149Y-51566D01*
X96232Y-51649D01*
X96341Y-51694D01*
X96458Y-51695D01*
X96566Y-51650D01*
X96649Y-51567D01*
X96659Y-51544D01*
X96758Y-51545D01*
X96866Y-51500D01*
X96949Y-51417D01*
X96994Y-51308D01*
X96995Y-51209D01*
X97016Y-51200D01*
X97099Y-51117D01*
X97144Y-51008D01*
X97145Y-50891D01*
X97100Y-50783D01*
X97017Y-50700D01*
X96908Y-50655D01*
X96844Y-50654D01*
X96845Y-50591D01*
X96800Y-50483D01*
X96717Y-50400D01*
X96608Y-50355D01*
X96531Y-50354D01*
X96523Y-50348D01*
X97212Y-50348D01*
X97292Y-50332D01*
X97360Y-50286D01*
X98839Y-48807D01*
X98805Y-48891D01*
X98804Y-49008D01*
X98849Y-49116D01*
X98932Y-49199D01*
X99041Y-49244D01*
X99158Y-49245D01*
X99266Y-49200D01*
X99349Y-49117D01*
X99394Y-49008D01*
X99395Y-48891D01*
X99395Y-49891D01*
X99350Y-49783D01*
X99267Y-49700D01*
X99158Y-49655D01*
X99041Y-49654D01*
X98933Y-49699D01*
X98850Y-49782D01*
X98805Y-49891D01*
X98804Y-50008D01*
X98849Y-50116D01*
X98932Y-50199D01*
X99041Y-50244D01*
X99158Y-50245D01*
X99266Y-50200D01*
X99349Y-50117D01*
X99394Y-50008D01*
X99395Y-49891D01*
X99395Y-50891D01*
X99350Y-50783D01*
X99267Y-50700D01*
X99158Y-50655D01*
X99041Y-50654D01*
X98933Y-50699D01*
X98850Y-50782D01*
X98805Y-50891D01*
X98804Y-51008D01*
X98849Y-51116D01*
X98932Y-51199D01*
X99041Y-51244D01*
X99158Y-51245D01*
X99266Y-51200D01*
X99349Y-51117D01*
X99394Y-51008D01*
X99395Y-50891D01*
X99395Y-51891D01*
X99350Y-51783D01*
X99267Y-51700D01*
X99158Y-51655D01*
X99041Y-51654D01*
X98933Y-51699D01*
X98850Y-51782D01*
X98805Y-51891D01*
X98804Y-52008D01*
X98849Y-52116D01*
X98932Y-52199D01*
X99041Y-52244D01*
X99158Y-52245D01*
X99266Y-52200D01*
X99349Y-52117D01*
X99394Y-52008D01*
X99395Y-51891D01*
X99395Y-52891D01*
X99350Y-52783D01*
X99267Y-52700D01*
X99158Y-52655D01*
X99041Y-52654D01*
X98933Y-52699D01*
X98850Y-52782D01*
X98805Y-52891D01*
X98804Y-53008D01*
X98849Y-53116D01*
X98932Y-53199D01*
X99041Y-53244D01*
X99158Y-53245D01*
X99266Y-53200D01*
X99349Y-53117D01*
X99394Y-53008D01*
X99395Y-52891D01*
X99395Y-53891D01*
X99350Y-53783D01*
X99267Y-53700D01*
X99158Y-53655D01*
X99041Y-53654D01*
X98933Y-53699D01*
X98850Y-53782D01*
X98805Y-53891D01*
X98804Y-54008D01*
X98849Y-54116D01*
X98932Y-54199D01*
X99041Y-54244D01*
X99158Y-54245D01*
X99266Y-54200D01*
X99349Y-54117D01*
X99394Y-54008D01*
X99395Y-53891D01*
X99395Y-54654D01*
X99341Y-54654D01*
X99233Y-54699D01*
X99150Y-54782D01*
X99105Y-54891D01*
X99104Y-55008D01*
X99149Y-55116D01*
X99232Y-55199D01*
X99341Y-55244D01*
X99458Y-55245D01*
X99490Y-55232D01*
X99490Y-55713D01*
X98475Y-56728D01*
X98062Y-56728D01*
X98061Y-56728D01*
X98046Y-56731D01*
X97981Y-56743D01*
X97913Y-56789D01*
X97913Y-56789D01*
X97395Y-57307D01*
X97395Y-57091D01*
X97350Y-56983D01*
X97267Y-56900D01*
X97158Y-56855D01*
X97041Y-56854D01*
X96933Y-56899D01*
X96912Y-56920D01*
X96892Y-56900D01*
X96783Y-56855D01*
X96666Y-56854D01*
X96558Y-56899D01*
X96537Y-56920D01*
X96517Y-56900D01*
X96408Y-56855D01*
X96291Y-56854D01*
X96183Y-56899D01*
X96100Y-56982D01*
X96055Y-57091D01*
X96054Y-57208D01*
X96099Y-57316D01*
X96182Y-57399D01*
X96291Y-57444D01*
X96408Y-57445D01*
X96516Y-57400D01*
X96537Y-57379D01*
X96557Y-57399D01*
X96666Y-57444D01*
X96783Y-57445D01*
X96891Y-57400D01*
X96912Y-57379D01*
X96932Y-57399D01*
X97041Y-57444D01*
X97158Y-57445D01*
X97266Y-57400D01*
X97349Y-57317D01*
X97394Y-57208D01*
X97395Y-57091D01*
X97395Y-57307D01*
X97225Y-57478D01*
X95945Y-57478D01*
X95945Y-57091D01*
X95900Y-56983D01*
X95817Y-56900D01*
X95708Y-56855D01*
X95695Y-56855D01*
X95695Y-51841D01*
X95650Y-51733D01*
X95567Y-51650D01*
X95458Y-51605D01*
X95341Y-51604D01*
X95233Y-51649D01*
X95150Y-51732D01*
X95105Y-51841D01*
X95104Y-51958D01*
X95149Y-52066D01*
X95232Y-52149D01*
X95341Y-52194D01*
X95458Y-52195D01*
X95566Y-52150D01*
X95649Y-52067D01*
X95694Y-51958D01*
X95695Y-51841D01*
X95695Y-56855D01*
X95591Y-56854D01*
X95483Y-56899D01*
X95400Y-56982D01*
X95355Y-57091D01*
X95354Y-57208D01*
X95399Y-57316D01*
X95482Y-57399D01*
X95591Y-57444D01*
X95708Y-57445D01*
X95816Y-57400D01*
X95899Y-57317D01*
X95944Y-57208D01*
X95945Y-57091D01*
X95945Y-57478D01*
X95245Y-57478D01*
X95245Y-57091D01*
X95200Y-56983D01*
X95117Y-56900D01*
X95008Y-56855D01*
X94891Y-56854D01*
X94783Y-56899D01*
X94700Y-56982D01*
X94655Y-57091D01*
X94654Y-57208D01*
X94699Y-57316D01*
X94782Y-57399D01*
X94891Y-57444D01*
X95008Y-57445D01*
X95116Y-57400D01*
X95199Y-57317D01*
X95244Y-57208D01*
X95245Y-57091D01*
X95245Y-57478D01*
X94545Y-57478D01*
X94545Y-57091D01*
X94500Y-56983D01*
X94417Y-56900D01*
X94308Y-56855D01*
X94191Y-56854D01*
X94083Y-56899D01*
X94000Y-56982D01*
X93955Y-57091D01*
X93954Y-57208D01*
X93999Y-57316D01*
X94082Y-57399D01*
X94191Y-57444D01*
X94308Y-57445D01*
X94416Y-57400D01*
X94499Y-57317D01*
X94544Y-57208D01*
X94545Y-57091D01*
X94545Y-57478D01*
X93845Y-57478D01*
X93845Y-57091D01*
X93800Y-56983D01*
X93717Y-56900D01*
X93608Y-56855D01*
X93491Y-56854D01*
X93383Y-56899D01*
X93362Y-56920D01*
X93342Y-56900D01*
X93233Y-56855D01*
X93116Y-56854D01*
X93008Y-56899D01*
X92987Y-56920D01*
X92967Y-56900D01*
X92858Y-56855D01*
X92741Y-56854D01*
X92633Y-56899D01*
X92612Y-56920D01*
X92592Y-56900D01*
X92483Y-56855D01*
X92366Y-56854D01*
X92258Y-56899D01*
X92237Y-56920D01*
X92217Y-56900D01*
X92108Y-56855D01*
X91991Y-56854D01*
X91883Y-56899D01*
X91800Y-56982D01*
X91755Y-57091D01*
X91754Y-57208D01*
X91799Y-57316D01*
X91882Y-57399D01*
X91991Y-57444D01*
X92108Y-57445D01*
X92216Y-57400D01*
X92237Y-57379D01*
X92257Y-57399D01*
X92366Y-57444D01*
X92483Y-57445D01*
X92591Y-57400D01*
X92612Y-57379D01*
X92632Y-57399D01*
X92741Y-57444D01*
X92858Y-57445D01*
X92966Y-57400D01*
X92987Y-57379D01*
X93007Y-57399D01*
X93116Y-57444D01*
X93233Y-57445D01*
X93341Y-57400D01*
X93362Y-57379D01*
X93382Y-57399D01*
X93491Y-57444D01*
X93608Y-57445D01*
X93716Y-57400D01*
X93799Y-57317D01*
X93844Y-57208D01*
X93845Y-57091D01*
X93845Y-57478D01*
X91645Y-57478D01*
X91645Y-57091D01*
X91600Y-56983D01*
X91517Y-56900D01*
X91408Y-56855D01*
X91291Y-56854D01*
X91183Y-56899D01*
X91100Y-56982D01*
X91055Y-57091D01*
X91054Y-57208D01*
X91099Y-57316D01*
X91182Y-57399D01*
X91291Y-57444D01*
X91408Y-57445D01*
X91516Y-57400D01*
X91599Y-57317D01*
X91644Y-57208D01*
X91645Y-57091D01*
X91645Y-57478D01*
X87444Y-57478D01*
X87445Y-57366D01*
X87400Y-57258D01*
X87317Y-57175D01*
X87208Y-57130D01*
X87091Y-57129D01*
X86983Y-57174D01*
X86900Y-57257D01*
X86855Y-57366D01*
X86854Y-57478D01*
X85824Y-57478D01*
X85548Y-57201D01*
X85480Y-57155D01*
X85400Y-57140D01*
X85200Y-57140D01*
X85119Y-57155D01*
X85051Y-57201D01*
X84937Y-57316D01*
X84445Y-57316D01*
X84445Y-51441D01*
X84400Y-51333D01*
X84317Y-51250D01*
X84208Y-51205D01*
X84091Y-51204D01*
X83983Y-51249D01*
X83900Y-51332D01*
X83855Y-51441D01*
X83855Y-51454D01*
X83841Y-51454D01*
X83733Y-51499D01*
X83650Y-51582D01*
X83605Y-51691D01*
X83604Y-51808D01*
X83649Y-51916D01*
X83732Y-51999D01*
X83841Y-52044D01*
X83958Y-52045D01*
X84066Y-52000D01*
X84149Y-51917D01*
X84194Y-51808D01*
X84194Y-51795D01*
X84208Y-51795D01*
X84316Y-51750D01*
X84399Y-51667D01*
X84444Y-51558D01*
X84445Y-51441D01*
X84445Y-57316D01*
X83750Y-57316D01*
X83771Y-57265D01*
X83841Y-57294D01*
X83958Y-57295D01*
X84066Y-57250D01*
X84149Y-57167D01*
X84194Y-57058D01*
X84195Y-56941D01*
X84150Y-56833D01*
X84067Y-56750D01*
X83958Y-56705D01*
X83841Y-56704D01*
X83733Y-56749D01*
X83650Y-56832D01*
X83628Y-56884D01*
X83558Y-56855D01*
X83441Y-56854D01*
X83333Y-56899D01*
X83250Y-56982D01*
X83205Y-57091D01*
X83204Y-57208D01*
X83249Y-57316D01*
X82992Y-57316D01*
X82994Y-57308D01*
X82995Y-57191D01*
X82950Y-57083D01*
X82867Y-57000D01*
X82758Y-56955D01*
X82641Y-56954D01*
X82533Y-56999D01*
X82525Y-57007D01*
X82517Y-57000D01*
X82408Y-56955D01*
X82291Y-56954D01*
X82183Y-56999D01*
X82100Y-57082D01*
X82094Y-57097D01*
X81736Y-56739D01*
X81668Y-56693D01*
X81588Y-56678D01*
X80145Y-56678D01*
X80145Y-55841D01*
X80100Y-55733D01*
X80095Y-55727D01*
X80095Y-51041D01*
X80050Y-50933D01*
X80042Y-50925D01*
X80049Y-50917D01*
X80094Y-50808D01*
X80095Y-50691D01*
X80050Y-50583D01*
X79967Y-50500D01*
X79858Y-50455D01*
X79779Y-50454D01*
X79750Y-50383D01*
X79667Y-50300D01*
X79595Y-50270D01*
X79595Y-49441D01*
X79550Y-49333D01*
X79542Y-49325D01*
X79549Y-49317D01*
X79594Y-49208D01*
X79595Y-49091D01*
X79550Y-48983D01*
X79510Y-48942D01*
X79544Y-48858D01*
X79545Y-48741D01*
X79500Y-48633D01*
X79417Y-48550D01*
X79308Y-48505D01*
X79255Y-48505D01*
X79294Y-48408D01*
X79295Y-48291D01*
X79250Y-48183D01*
X79167Y-48100D01*
X79058Y-48055D01*
X78941Y-48054D01*
X78833Y-48099D01*
X78750Y-48182D01*
X78705Y-48291D01*
X78704Y-48408D01*
X78749Y-48516D01*
X78832Y-48599D01*
X78941Y-48644D01*
X78994Y-48644D01*
X78955Y-48741D01*
X78954Y-48858D01*
X78999Y-48966D01*
X79039Y-49007D01*
X79005Y-49091D01*
X79004Y-49208D01*
X79049Y-49316D01*
X79057Y-49324D01*
X79050Y-49332D01*
X79005Y-49441D01*
X79004Y-49558D01*
X79049Y-49666D01*
X79132Y-49749D01*
X79241Y-49794D01*
X79358Y-49795D01*
X79466Y-49750D01*
X79549Y-49667D01*
X79594Y-49558D01*
X79595Y-49441D01*
X79595Y-50270D01*
X79558Y-50255D01*
X79479Y-50254D01*
X79450Y-50183D01*
X79367Y-50100D01*
X79258Y-50055D01*
X79141Y-50054D01*
X79033Y-50099D01*
X78950Y-50182D01*
X78905Y-50291D01*
X78904Y-50408D01*
X78949Y-50516D01*
X79032Y-50599D01*
X79141Y-50644D01*
X79220Y-50645D01*
X79249Y-50716D01*
X79332Y-50799D01*
X79441Y-50844D01*
X79520Y-50845D01*
X79549Y-50916D01*
X79557Y-50924D01*
X79550Y-50932D01*
X79520Y-51005D01*
X79441Y-51004D01*
X79333Y-51049D01*
X79250Y-51132D01*
X79220Y-51205D01*
X79141Y-51204D01*
X79033Y-51249D01*
X78950Y-51332D01*
X78905Y-51441D01*
X78904Y-51558D01*
X78949Y-51666D01*
X79032Y-51749D01*
X79141Y-51794D01*
X79258Y-51795D01*
X79366Y-51750D01*
X79449Y-51667D01*
X79479Y-51594D01*
X79558Y-51595D01*
X79666Y-51550D01*
X79749Y-51467D01*
X79779Y-51394D01*
X79858Y-51395D01*
X79966Y-51350D01*
X80049Y-51267D01*
X80094Y-51158D01*
X80095Y-51041D01*
X80095Y-55727D01*
X80017Y-55650D01*
X79908Y-55605D01*
X79791Y-55604D01*
X79683Y-55649D01*
X79600Y-55732D01*
X79555Y-55841D01*
X79554Y-55958D01*
X79599Y-56066D01*
X79682Y-56149D01*
X79791Y-56194D01*
X79908Y-56195D01*
X80016Y-56150D01*
X80099Y-56067D01*
X80144Y-55958D01*
X80145Y-55841D01*
X80145Y-56678D01*
X79812Y-56678D01*
X79731Y-56693D01*
X79715Y-56705D01*
X79641Y-56704D01*
X79533Y-56749D01*
X79450Y-56832D01*
X79405Y-56941D01*
X79404Y-57058D01*
X79449Y-57166D01*
X79532Y-57249D01*
X79641Y-57294D01*
X79724Y-57295D01*
X79705Y-57341D01*
X79704Y-57458D01*
X79749Y-57566D01*
X79832Y-57649D01*
X79941Y-57694D01*
X79998Y-57694D01*
X80787Y-58484D01*
X80787Y-58484D01*
X80855Y-58530D01*
X80855Y-58530D01*
X80920Y-58542D01*
X80935Y-58546D01*
X80935Y-58545D01*
X80936Y-58546D01*
X90555Y-58546D01*
X90554Y-58658D01*
X90574Y-58705D01*
X80235Y-58705D01*
X80263Y-58652D01*
X80263Y-58651D01*
X80286Y-58577D01*
X80294Y-58501D01*
X80294Y-58500D01*
X80286Y-58423D01*
X80264Y-58350D01*
X80264Y-58350D01*
X80227Y-58281D01*
X80179Y-58222D01*
X80179Y-58222D01*
X80119Y-58172D01*
X80052Y-58136D01*
X80051Y-58136D01*
X79977Y-58113D01*
X79901Y-58105D01*
X79901Y-58105D01*
X79823Y-58113D01*
X79750Y-58135D01*
X79750Y-58135D01*
X79681Y-58172D01*
X79622Y-58220D01*
X79622Y-58220D01*
X79572Y-58280D01*
X79536Y-58347D01*
X79536Y-58348D01*
X79513Y-58422D01*
X79505Y-58498D01*
X79513Y-58576D01*
X79535Y-58649D01*
X79535Y-58649D01*
X79564Y-58705D01*
X79395Y-58705D01*
X79395Y-55841D01*
X79350Y-55733D01*
X79267Y-55650D01*
X79158Y-55605D01*
X79041Y-55604D01*
X78933Y-55649D01*
X78850Y-55732D01*
X78805Y-55841D01*
X78804Y-55958D01*
X78849Y-56066D01*
X78932Y-56149D01*
X79041Y-56194D01*
X79158Y-56195D01*
X79266Y-56150D01*
X79349Y-56067D01*
X79394Y-55958D01*
X79395Y-55841D01*
X79395Y-58705D01*
X78925Y-58705D01*
X78925Y-57925D01*
X78925Y-57474D01*
X78924Y-57375D01*
X78886Y-57283D01*
X78816Y-57212D01*
X78724Y-57174D01*
X78512Y-57175D01*
X78450Y-57237D01*
X78450Y-57650D01*
X78862Y-57650D01*
X78925Y-57587D01*
X78925Y-57474D01*
X78925Y-57925D01*
X78925Y-57812D01*
X78862Y-57750D01*
X78450Y-57750D01*
X78450Y-58162D01*
X78512Y-58225D01*
X78724Y-58225D01*
X78816Y-58187D01*
X78886Y-58116D01*
X78924Y-58024D01*
X78925Y-57925D01*
X78925Y-58705D01*
X78445Y-58705D01*
X78445Y-48791D01*
X78400Y-48683D01*
X78317Y-48600D01*
X78208Y-48555D01*
X78150Y-48554D01*
X78150Y-48049D01*
X78150Y-47350D01*
X78112Y-47258D01*
X78041Y-47188D01*
X77949Y-47150D01*
X77850Y-47149D01*
X77741Y-47149D01*
X77865Y-47098D01*
X77998Y-46966D01*
X78069Y-46793D01*
X78070Y-46606D01*
X78070Y-45606D01*
X78070Y-44606D01*
X77998Y-44434D01*
X77866Y-44301D01*
X77693Y-44230D01*
X77506Y-44229D01*
X77334Y-44301D01*
X77201Y-44433D01*
X77130Y-44606D01*
X77129Y-44793D01*
X77201Y-44965D01*
X77333Y-45098D01*
X77506Y-45169D01*
X77693Y-45170D01*
X77865Y-45098D01*
X77998Y-44966D01*
X78069Y-44793D01*
X78070Y-44606D01*
X78070Y-45606D01*
X77998Y-45434D01*
X77866Y-45301D01*
X77693Y-45230D01*
X77506Y-45229D01*
X77334Y-45301D01*
X77201Y-45433D01*
X77130Y-45606D01*
X77129Y-45793D01*
X77201Y-45965D01*
X77333Y-46098D01*
X77506Y-46169D01*
X77693Y-46170D01*
X77865Y-46098D01*
X77998Y-45966D01*
X78069Y-45793D01*
X78070Y-45606D01*
X78070Y-46606D01*
X77998Y-46434D01*
X77866Y-46301D01*
X77693Y-46230D01*
X77506Y-46229D01*
X77334Y-46301D01*
X77201Y-46433D01*
X77130Y-46606D01*
X77129Y-46793D01*
X77201Y-46965D01*
X77333Y-47098D01*
X77458Y-47149D01*
X77349Y-47149D01*
X77250Y-47150D01*
X77158Y-47188D01*
X77087Y-47258D01*
X77049Y-47350D01*
X77050Y-47587D01*
X77112Y-47650D01*
X77550Y-47650D01*
X77550Y-47642D01*
X77650Y-47642D01*
X77650Y-47650D01*
X78087Y-47650D01*
X78150Y-47587D01*
X78150Y-47350D01*
X78150Y-48049D01*
X78150Y-47812D01*
X78087Y-47750D01*
X77650Y-47750D01*
X77650Y-48187D01*
X77712Y-48250D01*
X77850Y-48250D01*
X77949Y-48249D01*
X78041Y-48211D01*
X78112Y-48141D01*
X78150Y-48049D01*
X78150Y-48554D01*
X78091Y-48554D01*
X77983Y-48599D01*
X77900Y-48682D01*
X77855Y-48791D01*
X77854Y-48908D01*
X77899Y-49016D01*
X77982Y-49099D01*
X78091Y-49144D01*
X78208Y-49145D01*
X78316Y-49100D01*
X78399Y-49017D01*
X78444Y-48908D01*
X78445Y-48791D01*
X78445Y-58705D01*
X78395Y-58705D01*
X78395Y-53741D01*
X78395Y-49741D01*
X78350Y-49633D01*
X78267Y-49550D01*
X78158Y-49505D01*
X78041Y-49504D01*
X77933Y-49549D01*
X77850Y-49632D01*
X77805Y-49741D01*
X77804Y-49858D01*
X77849Y-49966D01*
X77932Y-50049D01*
X78041Y-50094D01*
X78158Y-50095D01*
X78266Y-50050D01*
X78349Y-49967D01*
X78394Y-49858D01*
X78395Y-49741D01*
X78395Y-53741D01*
X78350Y-53633D01*
X78295Y-53577D01*
X78295Y-51141D01*
X78250Y-51033D01*
X78217Y-51000D01*
X78249Y-50967D01*
X78294Y-50858D01*
X78295Y-50741D01*
X78250Y-50633D01*
X78167Y-50550D01*
X78058Y-50505D01*
X77941Y-50504D01*
X77833Y-50549D01*
X77750Y-50632D01*
X77705Y-50741D01*
X77704Y-50858D01*
X77737Y-50937D01*
X77658Y-50905D01*
X77550Y-50904D01*
X77550Y-48187D01*
X77550Y-47750D01*
X77112Y-47750D01*
X77050Y-47812D01*
X77049Y-48049D01*
X77087Y-48141D01*
X77158Y-48211D01*
X77250Y-48249D01*
X77349Y-48250D01*
X77487Y-48250D01*
X77550Y-48187D01*
X77550Y-50904D01*
X77541Y-50904D01*
X77433Y-50949D01*
X77350Y-51032D01*
X77305Y-51141D01*
X77304Y-51258D01*
X77349Y-51366D01*
X77432Y-51449D01*
X77541Y-51494D01*
X77658Y-51495D01*
X77766Y-51450D01*
X77799Y-51417D01*
X77832Y-51449D01*
X77941Y-51494D01*
X78058Y-51495D01*
X78166Y-51450D01*
X78249Y-51367D01*
X78294Y-51258D01*
X78295Y-51141D01*
X78295Y-53577D01*
X78267Y-53550D01*
X78158Y-53505D01*
X78041Y-53504D01*
X77933Y-53549D01*
X77850Y-53632D01*
X77805Y-53741D01*
X77804Y-53858D01*
X77849Y-53966D01*
X77932Y-54049D01*
X78041Y-54094D01*
X78158Y-54095D01*
X78266Y-54050D01*
X78349Y-53967D01*
X78394Y-53858D01*
X78395Y-53741D01*
X78395Y-58705D01*
X78350Y-58705D01*
X78350Y-58162D01*
X78350Y-57750D01*
X78350Y-57650D01*
X78350Y-57237D01*
X78295Y-57182D01*
X78295Y-54441D01*
X78250Y-54333D01*
X78167Y-54250D01*
X78058Y-54205D01*
X77941Y-54204D01*
X77833Y-54249D01*
X77750Y-54332D01*
X77705Y-54441D01*
X77704Y-54558D01*
X77749Y-54666D01*
X77832Y-54749D01*
X77941Y-54794D01*
X78058Y-54795D01*
X78166Y-54750D01*
X78249Y-54667D01*
X78294Y-54558D01*
X78295Y-54441D01*
X78295Y-57182D01*
X78287Y-57175D01*
X78075Y-57174D01*
X77983Y-57212D01*
X77913Y-57283D01*
X77875Y-57375D01*
X77874Y-57474D01*
X77875Y-57587D01*
X77937Y-57650D01*
X78350Y-57650D01*
X78350Y-57750D01*
X77937Y-57750D01*
X77875Y-57812D01*
X77874Y-57925D01*
X77875Y-58024D01*
X77913Y-58116D01*
X77983Y-58187D01*
X78075Y-58225D01*
X78287Y-58225D01*
X78350Y-58162D01*
X78350Y-58705D01*
X77845Y-58705D01*
X77845Y-57611D01*
X77777Y-57448D01*
X77652Y-57322D01*
X77488Y-57255D01*
X77311Y-57254D01*
X77245Y-57282D01*
X77245Y-53391D01*
X77200Y-53283D01*
X77117Y-53200D01*
X77008Y-53155D01*
X76891Y-53154D01*
X76783Y-53199D01*
X76700Y-53282D01*
X76655Y-53391D01*
X76654Y-53508D01*
X76699Y-53616D01*
X76782Y-53699D01*
X76891Y-53744D01*
X77008Y-53745D01*
X77116Y-53700D01*
X77199Y-53617D01*
X77244Y-53508D01*
X77245Y-53391D01*
X77245Y-57282D01*
X77148Y-57322D01*
X77022Y-57447D01*
X76955Y-57611D01*
X76954Y-57788D01*
X77022Y-57951D01*
X77147Y-58077D01*
X77311Y-58144D01*
X77488Y-58145D01*
X77651Y-58077D01*
X77777Y-57952D01*
X77844Y-57788D01*
X77845Y-57611D01*
X77845Y-58705D01*
X76795Y-58705D01*
X76795Y-55191D01*
X76750Y-55083D01*
X76667Y-55000D01*
X76631Y-54985D01*
X76699Y-54917D01*
X76744Y-54808D01*
X76745Y-54691D01*
X76700Y-54583D01*
X76617Y-54500D01*
X76508Y-54455D01*
X76391Y-54454D01*
X76391Y-54455D01*
X76391Y-42637D01*
X76391Y-42600D01*
X76391Y-42562D01*
X76391Y-42561D01*
X76391Y-42561D01*
X76391Y-42561D01*
X76353Y-42370D01*
X76324Y-42300D01*
X76323Y-42299D01*
X76216Y-42138D01*
X76215Y-42137D01*
X76161Y-42084D01*
X76000Y-41976D01*
X75999Y-41975D01*
X75929Y-41946D01*
X75737Y-41908D01*
X75661Y-41908D01*
X75660Y-41909D01*
X75470Y-41946D01*
X75400Y-41975D01*
X75399Y-41976D01*
X75238Y-42083D01*
X75237Y-42084D01*
X75184Y-42138D01*
X75076Y-42299D01*
X75075Y-42300D01*
X75046Y-42370D01*
X75008Y-42562D01*
X75008Y-42600D01*
X75008Y-42637D01*
X75008Y-42638D01*
X75046Y-42829D01*
X75075Y-42899D01*
X75076Y-42900D01*
X75184Y-43061D01*
X75237Y-43115D01*
X75238Y-43116D01*
X75399Y-43223D01*
X75400Y-43224D01*
X75470Y-43253D01*
X75660Y-43290D01*
X75661Y-43291D01*
X75737Y-43291D01*
X75929Y-43253D01*
X75999Y-43224D01*
X76000Y-43223D01*
X76161Y-43115D01*
X76215Y-43062D01*
X76216Y-43061D01*
X76323Y-42900D01*
X76324Y-42899D01*
X76353Y-42829D01*
X76391Y-42638D01*
X76391Y-42638D01*
X76391Y-42638D01*
X76391Y-42637D01*
X76391Y-54455D01*
X76345Y-54474D01*
X76345Y-52611D01*
X76277Y-52448D01*
X76195Y-52365D01*
X76195Y-50241D01*
X76150Y-50133D01*
X76142Y-50125D01*
X76149Y-50117D01*
X76194Y-50008D01*
X76195Y-49891D01*
X76150Y-49783D01*
X76067Y-49700D01*
X75973Y-49660D01*
X75973Y-49062D01*
X75963Y-48993D01*
X75963Y-48992D01*
X75938Y-48921D01*
X75902Y-48860D01*
X75902Y-48860D01*
X75851Y-48803D01*
X75795Y-48761D01*
X75795Y-48761D01*
X75726Y-48728D01*
X75658Y-48711D01*
X75658Y-48711D01*
X75582Y-48706D01*
X75513Y-48716D01*
X75512Y-48716D01*
X75441Y-48741D01*
X75380Y-48777D01*
X75380Y-48777D01*
X75345Y-48809D01*
X75345Y-47591D01*
X75300Y-47483D01*
X75217Y-47400D01*
X75108Y-47355D01*
X74991Y-47354D01*
X74883Y-47399D01*
X74800Y-47482D01*
X74755Y-47591D01*
X74754Y-47708D01*
X74799Y-47816D01*
X74882Y-47899D01*
X74991Y-47944D01*
X75108Y-47945D01*
X75216Y-47900D01*
X75299Y-47817D01*
X75344Y-47708D01*
X75345Y-47591D01*
X75345Y-48809D01*
X75323Y-48828D01*
X75281Y-48884D01*
X75281Y-48884D01*
X75248Y-48953D01*
X75231Y-49021D01*
X75231Y-49021D01*
X75226Y-49097D01*
X75236Y-49166D01*
X75236Y-49167D01*
X75262Y-49238D01*
X75297Y-49299D01*
X75297Y-49299D01*
X75348Y-49356D01*
X75404Y-49398D01*
X75404Y-49398D01*
X75473Y-49431D01*
X75541Y-49448D01*
X75541Y-49448D01*
X75617Y-49453D01*
X75686Y-49443D01*
X75687Y-49443D01*
X75758Y-49417D01*
X75819Y-49382D01*
X75819Y-49382D01*
X75876Y-49331D01*
X75918Y-49275D01*
X75918Y-49275D01*
X75951Y-49206D01*
X75968Y-49138D01*
X75968Y-49138D01*
X75973Y-49062D01*
X75973Y-49660D01*
X75958Y-49655D01*
X75841Y-49654D01*
X75733Y-49699D01*
X75650Y-49782D01*
X75605Y-49891D01*
X75604Y-50008D01*
X75649Y-50116D01*
X75657Y-50124D01*
X75650Y-50132D01*
X75605Y-50241D01*
X75604Y-50358D01*
X75642Y-50448D01*
X75623Y-50445D01*
X75552Y-50447D01*
X75552Y-50447D01*
X75478Y-50464D01*
X75413Y-50493D01*
X75413Y-50493D01*
X75351Y-50538D01*
X75303Y-50589D01*
X75303Y-50589D01*
X75262Y-50654D01*
X75237Y-50721D01*
X75237Y-50721D01*
X75226Y-50785D01*
X75225Y-50796D01*
X75225Y-50796D01*
X75227Y-50867D01*
X75227Y-50867D01*
X75244Y-50941D01*
X75273Y-51006D01*
X75273Y-51006D01*
X75318Y-51068D01*
X75369Y-51116D01*
X75369Y-51116D01*
X75434Y-51157D01*
X75501Y-51182D01*
X75501Y-51182D01*
X75576Y-51194D01*
X75647Y-51192D01*
X75647Y-51192D01*
X75721Y-51175D01*
X75786Y-51146D01*
X75786Y-51146D01*
X75848Y-51101D01*
X75896Y-51050D01*
X75896Y-51050D01*
X75937Y-50985D01*
X75962Y-50919D01*
X75962Y-50918D01*
X75974Y-50843D01*
X75972Y-50772D01*
X75972Y-50772D01*
X75955Y-50698D01*
X75926Y-50633D01*
X75926Y-50633D01*
X75898Y-50594D01*
X75958Y-50595D01*
X76066Y-50550D01*
X76149Y-50467D01*
X76194Y-50358D01*
X76195Y-50241D01*
X76195Y-52365D01*
X76152Y-52322D01*
X75988Y-52255D01*
X75811Y-52254D01*
X75648Y-52322D01*
X75522Y-52447D01*
X75455Y-52611D01*
X75454Y-52788D01*
X75522Y-52951D01*
X75647Y-53077D01*
X75811Y-53144D01*
X75988Y-53145D01*
X76151Y-53077D01*
X76277Y-52952D01*
X76344Y-52788D01*
X76345Y-52611D01*
X76345Y-54474D01*
X76283Y-54499D01*
X76200Y-54582D01*
X76174Y-54644D01*
X76152Y-54622D01*
X75988Y-54555D01*
X75811Y-54554D01*
X75648Y-54622D01*
X75522Y-54747D01*
X75455Y-54911D01*
X75454Y-55088D01*
X75522Y-55251D01*
X75647Y-55377D01*
X75811Y-55444D01*
X75988Y-55445D01*
X76151Y-55377D01*
X76209Y-55319D01*
X76249Y-55416D01*
X76332Y-55499D01*
X76441Y-55544D01*
X76558Y-55545D01*
X76666Y-55500D01*
X76749Y-55417D01*
X76794Y-55308D01*
X76795Y-55191D01*
X76795Y-58705D01*
X76391Y-58705D01*
X76391Y-57237D01*
X76391Y-57200D01*
X76391Y-57162D01*
X76391Y-57161D01*
X76391Y-57161D01*
X76391Y-57161D01*
X76353Y-56970D01*
X76324Y-56900D01*
X76323Y-56899D01*
X76216Y-56738D01*
X76215Y-56737D01*
X76161Y-56684D01*
X76000Y-56576D01*
X75999Y-56575D01*
X75929Y-56546D01*
X75737Y-56508D01*
X75661Y-56508D01*
X75660Y-56509D01*
X75470Y-56546D01*
X75425Y-56565D01*
X75425Y-55225D01*
X75425Y-54774D01*
X75425Y-52925D01*
X75425Y-52474D01*
X75424Y-52375D01*
X75386Y-52283D01*
X75316Y-52212D01*
X75224Y-52174D01*
X75012Y-52175D01*
X74950Y-52237D01*
X74950Y-52650D01*
X75362Y-52650D01*
X75425Y-52587D01*
X75425Y-52474D01*
X75425Y-52925D01*
X75425Y-52812D01*
X75362Y-52750D01*
X74950Y-52750D01*
X74950Y-53162D01*
X75012Y-53225D01*
X75224Y-53225D01*
X75316Y-53187D01*
X75386Y-53116D01*
X75424Y-53024D01*
X75425Y-52925D01*
X75425Y-54774D01*
X75424Y-54675D01*
X75386Y-54583D01*
X75316Y-54512D01*
X75224Y-54474D01*
X75012Y-54475D01*
X74950Y-54537D01*
X74950Y-54950D01*
X75362Y-54950D01*
X75425Y-54887D01*
X75425Y-54774D01*
X75425Y-55225D01*
X75425Y-55112D01*
X75362Y-55050D01*
X74950Y-55050D01*
X74950Y-55462D01*
X75012Y-55525D01*
X75224Y-55525D01*
X75316Y-55487D01*
X75386Y-55416D01*
X75424Y-55324D01*
X75425Y-55225D01*
X75425Y-56565D01*
X75400Y-56575D01*
X75399Y-56576D01*
X75238Y-56683D01*
X75237Y-56684D01*
X75184Y-56738D01*
X75076Y-56899D01*
X75075Y-56900D01*
X75046Y-56970D01*
X75008Y-57162D01*
X75008Y-57200D01*
X75008Y-57237D01*
X75008Y-57238D01*
X75046Y-57429D01*
X75075Y-57499D01*
X75076Y-57500D01*
X75184Y-57661D01*
X75237Y-57715D01*
X75238Y-57716D01*
X75399Y-57823D01*
X75400Y-57824D01*
X75470Y-57853D01*
X75660Y-57890D01*
X75661Y-57891D01*
X75737Y-57891D01*
X75929Y-57853D01*
X75999Y-57824D01*
X76000Y-57823D01*
X76161Y-57715D01*
X76215Y-57662D01*
X76216Y-57661D01*
X76323Y-57500D01*
X76324Y-57499D01*
X76353Y-57429D01*
X76391Y-57238D01*
X76391Y-57238D01*
X76391Y-57238D01*
X76391Y-57237D01*
X76391Y-58705D01*
X74850Y-58705D01*
X74850Y-55462D01*
X74850Y-55050D01*
X74850Y-54950D01*
X74850Y-54537D01*
X74850Y-53162D01*
X74850Y-52750D01*
X74850Y-52650D01*
X74850Y-52237D01*
X74787Y-52175D01*
X74575Y-52174D01*
X74483Y-52212D01*
X74413Y-52283D01*
X74375Y-52375D01*
X74374Y-52474D01*
X74375Y-52587D01*
X74437Y-52650D01*
X74850Y-52650D01*
X74850Y-52750D01*
X74437Y-52750D01*
X74375Y-52812D01*
X74374Y-52925D01*
X74375Y-53024D01*
X74413Y-53116D01*
X74483Y-53187D01*
X74575Y-53225D01*
X74787Y-53225D01*
X74850Y-53162D01*
X74850Y-54537D01*
X74787Y-54475D01*
X74575Y-54474D01*
X74483Y-54512D01*
X74413Y-54583D01*
X74375Y-54675D01*
X74374Y-54774D01*
X74375Y-54887D01*
X74437Y-54950D01*
X74850Y-54950D01*
X74850Y-55050D01*
X74437Y-55050D01*
X74375Y-55112D01*
X74374Y-55225D01*
X74375Y-55324D01*
X74413Y-55416D01*
X74483Y-55487D01*
X74575Y-55525D01*
X74787Y-55525D01*
X74850Y-55462D01*
X74850Y-58705D01*
X74245Y-58705D01*
X74245Y-41195D01*
X76990Y-41195D01*
X76951Y-41233D01*
X76880Y-41406D01*
X76879Y-41593D01*
X76951Y-41765D01*
X77083Y-41898D01*
X77256Y-41969D01*
X77443Y-41970D01*
X77615Y-41898D01*
X77748Y-41766D01*
X77819Y-41593D01*
X77820Y-41406D01*
X77748Y-41234D01*
X77709Y-41195D01*
X77990Y-41195D01*
X77951Y-41233D01*
X77880Y-41406D01*
X77879Y-41593D01*
X77951Y-41765D01*
X78083Y-41898D01*
X78256Y-41969D01*
X78443Y-41970D01*
X78615Y-41898D01*
X78748Y-41766D01*
X78819Y-41593D01*
X78820Y-41406D01*
X78748Y-41234D01*
X78709Y-41195D01*
X78990Y-41195D01*
X78951Y-41233D01*
X78880Y-41406D01*
X78879Y-41593D01*
X78951Y-41765D01*
X79083Y-41898D01*
X79256Y-41969D01*
X79443Y-41970D01*
X79615Y-41898D01*
X79748Y-41766D01*
X79819Y-41593D01*
X79820Y-41406D01*
X79748Y-41234D01*
X79709Y-41195D01*
X79990Y-41195D01*
X79951Y-41233D01*
X79880Y-41406D01*
X79879Y-41593D01*
X79951Y-41765D01*
X80083Y-41898D01*
X80256Y-41969D01*
X80443Y-41970D01*
X80615Y-41898D01*
X80748Y-41766D01*
X80819Y-41593D01*
X80820Y-41406D01*
X80748Y-41234D01*
X80709Y-41195D01*
X80990Y-41195D01*
X80951Y-41233D01*
X80880Y-41406D01*
X80879Y-41593D01*
X80951Y-41765D01*
X81083Y-41898D01*
X81256Y-41969D01*
X81443Y-41970D01*
X81615Y-41898D01*
X81748Y-41766D01*
X81819Y-41593D01*
X81820Y-41406D01*
X81748Y-41234D01*
X81709Y-41195D01*
X81990Y-41195D01*
X81951Y-41233D01*
X81880Y-41406D01*
X81879Y-41593D01*
X81951Y-41765D01*
X82083Y-41898D01*
X82256Y-41969D01*
X82443Y-41970D01*
X82615Y-41898D01*
X82748Y-41766D01*
X82819Y-41593D01*
X82820Y-41406D01*
X82748Y-41234D01*
X82709Y-41195D01*
X82990Y-41195D01*
X82951Y-41233D01*
X82880Y-41406D01*
X82879Y-41593D01*
X82951Y-41765D01*
X83083Y-41898D01*
X83256Y-41969D01*
X83443Y-41970D01*
X83615Y-41898D01*
X83748Y-41766D01*
X83819Y-41593D01*
X83820Y-41406D01*
X83748Y-41234D01*
X83709Y-41195D01*
X83990Y-41195D01*
X83951Y-41233D01*
X83880Y-41406D01*
X83879Y-41593D01*
X83951Y-41765D01*
X84083Y-41898D01*
X84256Y-41969D01*
X84443Y-41970D01*
X84615Y-41898D01*
X84748Y-41766D01*
X84819Y-41593D01*
X84820Y-41406D01*
X84748Y-41234D01*
X84709Y-41195D01*
X84990Y-41195D01*
X84951Y-41233D01*
X84880Y-41406D01*
X84879Y-41593D01*
X84951Y-41765D01*
X85083Y-41898D01*
X85256Y-41969D01*
X85443Y-41970D01*
X85615Y-41898D01*
X85748Y-41766D01*
X85819Y-41593D01*
X85820Y-41406D01*
X85748Y-41234D01*
X85709Y-41195D01*
X85990Y-41195D01*
X85951Y-41233D01*
X85880Y-41406D01*
X85879Y-41593D01*
X85951Y-41765D01*
X86083Y-41898D01*
X86256Y-41969D01*
X86443Y-41970D01*
X86615Y-41898D01*
X86748Y-41766D01*
X86819Y-41593D01*
X86820Y-41406D01*
X86748Y-41234D01*
X86709Y-41195D01*
X86990Y-41195D01*
X86951Y-41233D01*
X86880Y-41406D01*
X86879Y-41593D01*
X86951Y-41765D01*
X87083Y-41898D01*
X87256Y-41969D01*
X87443Y-41970D01*
X87615Y-41898D01*
X87748Y-41766D01*
X87819Y-41593D01*
X87820Y-41406D01*
X87748Y-41234D01*
X87709Y-41195D01*
X87990Y-41195D01*
X87951Y-41233D01*
X87880Y-41406D01*
X87879Y-41593D01*
X87951Y-41765D01*
X88083Y-41898D01*
X88256Y-41969D01*
X88443Y-41970D01*
X88615Y-41898D01*
X88748Y-41766D01*
X88819Y-41593D01*
X88820Y-41406D01*
X88748Y-41234D01*
X88709Y-41195D01*
X88990Y-41195D01*
X88951Y-41233D01*
X88880Y-41406D01*
X88879Y-41593D01*
X88951Y-41765D01*
X89083Y-41898D01*
X89256Y-41969D01*
X89443Y-41970D01*
X89615Y-41898D01*
X89748Y-41766D01*
X89819Y-41593D01*
X89820Y-41406D01*
X89748Y-41234D01*
X89709Y-41195D01*
X89990Y-41195D01*
X89951Y-41233D01*
X89880Y-41406D01*
X89879Y-41593D01*
X89951Y-41765D01*
X90083Y-41898D01*
X90256Y-41969D01*
X90443Y-41970D01*
X90615Y-41898D01*
X90748Y-41766D01*
X90819Y-41593D01*
X90820Y-41406D01*
X90748Y-41234D01*
X90709Y-41195D01*
X90990Y-41195D01*
X90951Y-41233D01*
X90880Y-41406D01*
X90879Y-41593D01*
X90951Y-41765D01*
X91083Y-41898D01*
X91256Y-41969D01*
X91443Y-41970D01*
X91615Y-41898D01*
X91748Y-41766D01*
X91819Y-41593D01*
X91820Y-41406D01*
X91748Y-41234D01*
X91709Y-41195D01*
X91990Y-41195D01*
X91951Y-41233D01*
X91880Y-41406D01*
X91879Y-41593D01*
X91951Y-41765D01*
X92083Y-41898D01*
X92256Y-41969D01*
X92443Y-41970D01*
X92615Y-41898D01*
X92748Y-41766D01*
X92819Y-41593D01*
X92820Y-41406D01*
X92748Y-41234D01*
X92709Y-41195D01*
X92990Y-41195D01*
X92951Y-41233D01*
X92880Y-41406D01*
X92879Y-41593D01*
X92951Y-41765D01*
X93083Y-41898D01*
X93256Y-41969D01*
X93443Y-41970D01*
X93615Y-41898D01*
X93748Y-41766D01*
X93819Y-41593D01*
X93820Y-41406D01*
X93748Y-41234D01*
X93709Y-41195D01*
X93990Y-41195D01*
X93951Y-41233D01*
X93880Y-41406D01*
X93879Y-41593D01*
X93951Y-41765D01*
X94083Y-41898D01*
X94256Y-41969D01*
X94443Y-41970D01*
X94615Y-41898D01*
X94748Y-41766D01*
X94819Y-41593D01*
X94820Y-41406D01*
X94748Y-41234D01*
X94709Y-41195D01*
X94990Y-41195D01*
X94951Y-41233D01*
X94880Y-41406D01*
X94879Y-41593D01*
X94951Y-41765D01*
X95083Y-41898D01*
X95256Y-41969D01*
X95443Y-41970D01*
X95615Y-41898D01*
X95748Y-41766D01*
X95819Y-41593D01*
X95820Y-41406D01*
X95748Y-41234D01*
X95709Y-41195D01*
X95990Y-41195D01*
X95951Y-41233D01*
X95880Y-41406D01*
X95879Y-41593D01*
X95951Y-41765D01*
X96083Y-41898D01*
X96256Y-41969D01*
X96443Y-41970D01*
X96615Y-41898D01*
X96748Y-41766D01*
X96819Y-41593D01*
X96820Y-41406D01*
X96748Y-41234D01*
X96709Y-41195D01*
X96990Y-41195D01*
X96951Y-41233D01*
X96880Y-41406D01*
X96879Y-41593D01*
X96951Y-41765D01*
X97083Y-41898D01*
X97256Y-41969D01*
X97443Y-41970D01*
X97615Y-41898D01*
X97748Y-41766D01*
X97819Y-41593D01*
X97820Y-41406D01*
X97748Y-41234D01*
X97709Y-41195D01*
X97990Y-41195D01*
X97951Y-41233D01*
X97880Y-41406D01*
X97879Y-41593D01*
X97951Y-41765D01*
X98083Y-41898D01*
X98256Y-41969D01*
X98443Y-41970D01*
X98615Y-41898D01*
X98748Y-41766D01*
X98819Y-41593D01*
X98820Y-41406D01*
X98748Y-41234D01*
X98709Y-41195D01*
X98990Y-41195D01*
X98951Y-41233D01*
X98880Y-41406D01*
X98879Y-41593D01*
X98951Y-41765D01*
X99083Y-41898D01*
X99256Y-41969D01*
X99443Y-41970D01*
X99615Y-41898D01*
X99748Y-41766D01*
X99819Y-41593D01*
X99820Y-41406D01*
X99748Y-41234D01*
X99709Y-41195D01*
X99990Y-41195D01*
X99951Y-41233D01*
X99880Y-41406D01*
X99879Y-41593D01*
X99951Y-41765D01*
X100083Y-41898D01*
X100256Y-41969D01*
X100443Y-41970D01*
X100615Y-41898D01*
X100748Y-41766D01*
X100819Y-41593D01*
X100820Y-41406D01*
X100748Y-41234D01*
X100709Y-41195D01*
X100990Y-41195D01*
X100951Y-41233D01*
X100880Y-41406D01*
X100879Y-41593D01*
X100951Y-41765D01*
X101083Y-41898D01*
X101256Y-41969D01*
X101443Y-41970D01*
X101615Y-41898D01*
X101748Y-41766D01*
X101819Y-41593D01*
X101820Y-41406D01*
X101748Y-41234D01*
X101709Y-41195D01*
X101990Y-41195D01*
X101951Y-41233D01*
X101880Y-41406D01*
X101879Y-41593D01*
X101951Y-41765D01*
X102083Y-41898D01*
X102256Y-41969D01*
X102443Y-41970D01*
X102615Y-41898D01*
X102748Y-41766D01*
X102819Y-41593D01*
X102820Y-41406D01*
X102748Y-41234D01*
X102709Y-41195D01*
X105455Y-41195D01*
X105455Y-58705D01*
M02*
