G04 (created by PCBNEW (2013-04-19 BZR 4011)-stable) date 01/07/2013 10:58:15*
%MOIN*%
G04 Gerber Fmt 3.4, Leading zero omitted, Abs format*
%FSLAX34Y34*%
G01*
G70*
G90*
G04 APERTURE LIST*
%ADD10C,2.3622e-006*%
%ADD11C,0.06*%
%ADD12R,0.06X0.06*%
%ADD13R,0.055X0.055*%
%ADD14C,0.055*%
%ADD15C,0.025*%
%ADD16C,0.008*%
%ADD17C,0.02*%
%ADD18C,0.01*%
G04 APERTURE END LIST*
G54D10*
G54D11*
X102500Y-45450D03*
X101500Y-46450D03*
G54D12*
X101500Y-45450D03*
G54D11*
X102500Y-46450D03*
X101500Y-47450D03*
X102500Y-47450D03*
X101500Y-48450D03*
X102500Y-48450D03*
X101500Y-49450D03*
X102500Y-49450D03*
X101500Y-50450D03*
X102500Y-50450D03*
X101500Y-51450D03*
X102500Y-51450D03*
X101500Y-52450D03*
X102500Y-52450D03*
X101500Y-53450D03*
X102500Y-53450D03*
X101500Y-54450D03*
X102500Y-54450D03*
X100257Y-56100D03*
X102343Y-56100D03*
G54D13*
X74900Y-55000D03*
G54D14*
X75900Y-55000D03*
G54D13*
X74900Y-52700D03*
G54D14*
X75900Y-52700D03*
G54D13*
X78400Y-57700D03*
G54D14*
X77400Y-57700D03*
G54D12*
X77350Y-42500D03*
G54D11*
X77350Y-41500D03*
X78350Y-42500D03*
X78350Y-41500D03*
X79350Y-42500D03*
X79350Y-41500D03*
X80350Y-42500D03*
X80350Y-41500D03*
X81350Y-42500D03*
X81350Y-41500D03*
X82350Y-42500D03*
X82350Y-41500D03*
X83350Y-42500D03*
X83350Y-41500D03*
X84350Y-42500D03*
X84350Y-41500D03*
X85350Y-42500D03*
X85350Y-41500D03*
X86350Y-42500D03*
X86350Y-41500D03*
X87350Y-42500D03*
X87350Y-41500D03*
X88350Y-42500D03*
X88350Y-41500D03*
X89350Y-42500D03*
X89350Y-41500D03*
X90350Y-42500D03*
X90350Y-41500D03*
X91350Y-42500D03*
X91350Y-41500D03*
X92350Y-42500D03*
X92350Y-41500D03*
X93350Y-42500D03*
X93350Y-41500D03*
X94350Y-42500D03*
X94350Y-41500D03*
X95350Y-42500D03*
X95350Y-41500D03*
X96350Y-42500D03*
X96350Y-41500D03*
X97350Y-42500D03*
X97350Y-41500D03*
X98350Y-42500D03*
X98350Y-41500D03*
X99350Y-42500D03*
X99350Y-41500D03*
X100350Y-42500D03*
X100350Y-41500D03*
X101350Y-42500D03*
X101350Y-41500D03*
X102350Y-42500D03*
X102350Y-41500D03*
X100257Y-57800D03*
X102343Y-57800D03*
G54D12*
X77600Y-47700D03*
G54D11*
X77600Y-46700D03*
X77600Y-45700D03*
X77600Y-44700D03*
X77600Y-43700D03*
G54D15*
X75050Y-47650D03*
X85300Y-57600D03*
X80700Y-57300D03*
X81050Y-57300D03*
X98250Y-57350D03*
X99400Y-54950D03*
X95850Y-50550D03*
X88950Y-50550D03*
X99100Y-53950D03*
X96150Y-50700D03*
X88600Y-50550D03*
X97000Y-49850D03*
X78350Y-44500D03*
X79200Y-50350D03*
X79500Y-50550D03*
X78700Y-44500D03*
X83150Y-55400D03*
X82550Y-44500D03*
X83500Y-55400D03*
X82900Y-44500D03*
X83300Y-44500D03*
X91550Y-47600D03*
X91800Y-47150D03*
X83650Y-44500D03*
X91700Y-46800D03*
X84000Y-44500D03*
X91300Y-47350D03*
X91600Y-46450D03*
X84350Y-44500D03*
X91050Y-47100D03*
X88950Y-43550D03*
X84950Y-44000D03*
X92800Y-48050D03*
X85650Y-44500D03*
X89050Y-48150D03*
X89050Y-47800D03*
X92550Y-47800D03*
X86000Y-44500D03*
X88750Y-46750D03*
X78150Y-48850D03*
X86350Y-44500D03*
X79800Y-50750D03*
X79050Y-44500D03*
X79250Y-48800D03*
X87300Y-44500D03*
X87650Y-44500D03*
X79300Y-49150D03*
X88000Y-44500D03*
X79300Y-49500D03*
X88700Y-43800D03*
X79000Y-48350D03*
X89300Y-44500D03*
X82700Y-47300D03*
X82500Y-48250D03*
X89650Y-44500D03*
X79400Y-44500D03*
X79800Y-51100D03*
X80400Y-44500D03*
X79500Y-51300D03*
X80750Y-44500D03*
X79200Y-51500D03*
X81100Y-44500D03*
X82100Y-55750D03*
X81450Y-44500D03*
X82450Y-55750D03*
X82450Y-55400D03*
X81850Y-44500D03*
X82200Y-44500D03*
X82800Y-55400D03*
X84900Y-47300D03*
X98350Y-44500D03*
X96750Y-49150D03*
X90000Y-44500D03*
X92300Y-46750D03*
X86000Y-54350D03*
X92300Y-46400D03*
X90350Y-44500D03*
X96500Y-48900D03*
X85750Y-54100D03*
X98250Y-48050D03*
X95300Y-44500D03*
X94550Y-47750D03*
X98250Y-47700D03*
X94300Y-47500D03*
X95650Y-44500D03*
X88300Y-56300D03*
X85300Y-55900D03*
X98250Y-47000D03*
X85600Y-55750D03*
X96000Y-44500D03*
X87850Y-55950D03*
X94050Y-47250D03*
X93800Y-47000D03*
X98250Y-46650D03*
X96350Y-44500D03*
X98250Y-46300D03*
X93550Y-46750D03*
X97300Y-44500D03*
X93300Y-46500D03*
X98400Y-46000D03*
X97650Y-44500D03*
X92050Y-45850D03*
X96750Y-48550D03*
X91300Y-44500D03*
X87100Y-47750D03*
X96500Y-48300D03*
X91650Y-44500D03*
X85250Y-47300D03*
X95700Y-47250D03*
X92000Y-44500D03*
X83850Y-55500D03*
X96050Y-47200D03*
X92350Y-44500D03*
X84050Y-55800D03*
X83900Y-57000D03*
X96300Y-46950D03*
X93300Y-44500D03*
X96550Y-46700D03*
X93650Y-44500D03*
X84950Y-55900D03*
X94000Y-44500D03*
X98250Y-48750D03*
X95050Y-48250D03*
X94350Y-44500D03*
X98250Y-48400D03*
X94800Y-48000D03*
X101200Y-44600D03*
X84200Y-48750D03*
X96500Y-49800D03*
X83950Y-49000D03*
X88850Y-47250D03*
X84200Y-49250D03*
X82350Y-57250D03*
X82900Y-48250D03*
X90350Y-48050D03*
X80650Y-48950D03*
X98750Y-44550D03*
X96550Y-49450D03*
X98500Y-44800D03*
X84750Y-48300D03*
X90350Y-47700D03*
X80650Y-49300D03*
X99250Y-44350D03*
X83950Y-48500D03*
X98400Y-45150D03*
X89050Y-46950D03*
X98000Y-44500D03*
X84500Y-47300D03*
X90800Y-46850D03*
X101900Y-44600D03*
X80000Y-57400D03*
X99500Y-43000D03*
X79700Y-57000D03*
X102000Y-46950D03*
X88500Y-55600D03*
X99100Y-49950D03*
X83350Y-51100D03*
X82550Y-51700D03*
X83700Y-49500D03*
X82550Y-51350D03*
X88650Y-55300D03*
X99400Y-46950D03*
X86800Y-50750D03*
X88250Y-55300D03*
X99100Y-51950D03*
X84750Y-54900D03*
X87900Y-50550D03*
X99050Y-46950D03*
X86750Y-47700D03*
X82950Y-49800D03*
X99100Y-47950D03*
X99100Y-52950D03*
X87850Y-55600D03*
X83700Y-51100D03*
X82550Y-52050D03*
X87900Y-51100D03*
X96400Y-51400D03*
X88200Y-50900D03*
X96700Y-51250D03*
X80350Y-57400D03*
X87450Y-48350D03*
X85550Y-50300D03*
X81400Y-57300D03*
X99950Y-50000D03*
X96550Y-50650D03*
X83300Y-49850D03*
X88250Y-50550D03*
X99100Y-50950D03*
X96850Y-50950D03*
X82850Y-54550D03*
X99100Y-48950D03*
X78000Y-51200D03*
X83900Y-51750D03*
X84150Y-51500D03*
X78000Y-50800D03*
X78100Y-49800D03*
X95400Y-51900D03*
X76950Y-53450D03*
X76450Y-54750D03*
X83500Y-57150D03*
X81775Y-55850D03*
X84250Y-48250D03*
X94700Y-58600D03*
X79850Y-55900D03*
X86300Y-51600D03*
X79100Y-55900D03*
X98700Y-47950D03*
X77600Y-51200D03*
X88250Y-53500D03*
X84500Y-50600D03*
X78000Y-54500D03*
X87500Y-56000D03*
X94250Y-57150D03*
X92800Y-57150D03*
X91350Y-57150D03*
X95650Y-57150D03*
X82700Y-57250D03*
X75900Y-49950D03*
X78100Y-53800D03*
X75900Y-50300D03*
X76500Y-55250D03*
X94950Y-57150D03*
X87150Y-57425D03*
X93175Y-57150D03*
X92425Y-57150D03*
X92050Y-57150D03*
X96350Y-57150D03*
X97100Y-57150D03*
X90850Y-58600D03*
X96725Y-57150D03*
X93550Y-57150D03*
X90500Y-47000D03*
X98250Y-47350D03*
X93450Y-54600D03*
X97250Y-52200D03*
X86700Y-54200D03*
X88000Y-51750D03*
X98800Y-45950D03*
X86750Y-56550D03*
X89050Y-57350D03*
X82950Y-56950D03*
X80350Y-51500D03*
X76800Y-44450D03*
X84850Y-50750D03*
X78000Y-54900D03*
X84100Y-47300D03*
X84150Y-54250D03*
X86300Y-51250D03*
X80650Y-50850D03*
X84500Y-57200D03*
X84800Y-50250D03*
X82100Y-48250D03*
X82000Y-51850D03*
G54D16*
X84950Y-44000D02*
X85038Y-44088D01*
X88062Y-44088D02*
X88600Y-43550D01*
X88600Y-43550D02*
X88950Y-43550D01*
X85038Y-44088D02*
X88062Y-44088D01*
X89050Y-48150D02*
X89750Y-47450D01*
X91050Y-48050D02*
X92800Y-48050D01*
X90450Y-47450D02*
X91050Y-48050D01*
X89750Y-47450D02*
X90450Y-47450D01*
X89050Y-47800D02*
X89150Y-47800D01*
X89150Y-47800D02*
X89700Y-47250D01*
X92550Y-47800D02*
X92500Y-47850D01*
X92500Y-47850D02*
X91100Y-47850D01*
X91100Y-47850D02*
X90500Y-47250D01*
X90500Y-47250D02*
X89700Y-47250D01*
X86350Y-44500D02*
X85938Y-44912D01*
X82788Y-44912D02*
X85938Y-44912D01*
X78150Y-48850D02*
X78850Y-48850D01*
X78850Y-48850D02*
X82788Y-44912D01*
X79250Y-48800D02*
X82976Y-45074D01*
X82976Y-45074D02*
X86726Y-45074D01*
X86726Y-45074D02*
X87300Y-44500D01*
X79300Y-49150D02*
X83214Y-45236D01*
X86914Y-45236D02*
X87650Y-44500D01*
X83214Y-45236D02*
X86914Y-45236D01*
X87102Y-45398D02*
X88000Y-44500D01*
X79300Y-49500D02*
X83402Y-45398D01*
X83402Y-45398D02*
X87102Y-45398D01*
X79000Y-48350D02*
X82600Y-44750D01*
X88250Y-44250D02*
X88700Y-43800D01*
X82600Y-44750D02*
X85050Y-44750D01*
X85550Y-44250D02*
X88250Y-44250D01*
X85050Y-44750D02*
X85550Y-44250D01*
X89300Y-44500D02*
X89100Y-44500D01*
X83804Y-46046D02*
X87554Y-46046D01*
X82700Y-47150D02*
X83804Y-46046D01*
X82700Y-47300D02*
X82700Y-47150D01*
X87554Y-46046D02*
X89100Y-44500D01*
X89100Y-44250D02*
X87466Y-45884D01*
X82450Y-47150D02*
X82450Y-48150D01*
X82450Y-48150D02*
X82500Y-48250D01*
X87466Y-45884D02*
X83716Y-45884D01*
X83716Y-45884D02*
X82450Y-47150D01*
X89400Y-44250D02*
X89100Y-44250D01*
X89650Y-44500D02*
X89400Y-44250D01*
X85668Y-46532D02*
X87818Y-46532D01*
X84900Y-47300D02*
X85668Y-46532D01*
X97776Y-45074D02*
X98350Y-44500D01*
X89276Y-45074D02*
X97776Y-45074D01*
X87818Y-46532D02*
X89276Y-45074D01*
X94650Y-47662D02*
X97862Y-47662D01*
X97862Y-47662D02*
X98250Y-48050D01*
X94638Y-47662D02*
X94650Y-47662D01*
X94550Y-47750D02*
X94638Y-47662D01*
X94300Y-47500D02*
X98050Y-47500D01*
X98050Y-47500D02*
X98250Y-47700D01*
X97650Y-46408D02*
X94892Y-46408D01*
X94892Y-46408D02*
X94050Y-47250D01*
X97650Y-46408D02*
X97658Y-46408D01*
X97658Y-46408D02*
X98250Y-47000D01*
X85600Y-55750D02*
X87650Y-55750D01*
X87650Y-55750D02*
X87850Y-55950D01*
X97846Y-46246D02*
X94554Y-46246D01*
X94554Y-46246D02*
X93800Y-47000D01*
X97846Y-46246D02*
X98250Y-46650D01*
X98034Y-46084D02*
X94216Y-46084D01*
X94216Y-46084D02*
X93550Y-46750D01*
X98034Y-46084D02*
X98250Y-46300D01*
X98300Y-45922D02*
X93878Y-45922D01*
X93878Y-45922D02*
X93300Y-46500D01*
X98300Y-45922D02*
X98322Y-45922D01*
X98322Y-45922D02*
X98400Y-46000D01*
X87100Y-47750D02*
X88700Y-47750D01*
X92050Y-45850D02*
X90600Y-45850D01*
X88700Y-47750D02*
X90600Y-45850D01*
X84000Y-47550D02*
X83850Y-47400D01*
X87642Y-46208D02*
X89100Y-44750D01*
X89100Y-44750D02*
X91400Y-44750D01*
X84842Y-46208D02*
X87642Y-46208D01*
X85000Y-47550D02*
X84000Y-47550D01*
X83850Y-47200D02*
X84842Y-46208D01*
X85250Y-47300D02*
X85000Y-47550D01*
X83850Y-47400D02*
X83850Y-47200D01*
X91400Y-44750D02*
X91650Y-44500D01*
X95250Y-48050D02*
X97550Y-48050D01*
X97550Y-48050D02*
X98250Y-48750D01*
X95050Y-48250D02*
X95250Y-48050D01*
X94950Y-47850D02*
X97700Y-47850D01*
X97700Y-47850D02*
X98250Y-48400D01*
X94800Y-48000D02*
X94950Y-47850D01*
X88082Y-47018D02*
X89526Y-45574D01*
X99200Y-44700D02*
X101100Y-44700D01*
X101100Y-44700D02*
X101200Y-44600D01*
X84900Y-48750D02*
X86632Y-47018D01*
X86632Y-47018D02*
X88082Y-47018D01*
X84200Y-48750D02*
X84900Y-48750D01*
X98326Y-45574D02*
X99200Y-44700D01*
X89526Y-45574D02*
X98326Y-45574D01*
X88850Y-47250D02*
X86650Y-47250D01*
X86650Y-47250D02*
X84650Y-49250D01*
X84650Y-49250D02*
X84200Y-49250D01*
X89800Y-48600D02*
X90350Y-48050D01*
X85800Y-48600D02*
X89800Y-48600D01*
X81800Y-50100D02*
X84300Y-50100D01*
X84300Y-50100D02*
X85800Y-48600D01*
X80650Y-48950D02*
X81800Y-50100D01*
X80650Y-48700D02*
X83628Y-45722D01*
X80650Y-48950D02*
X80650Y-48700D01*
X83628Y-45722D02*
X87378Y-45722D01*
X96688Y-44088D02*
X96850Y-44250D01*
X89012Y-44088D02*
X96688Y-44088D01*
X96850Y-44250D02*
X98450Y-44250D01*
X87378Y-45722D02*
X89012Y-44088D01*
X98450Y-44250D02*
X98750Y-44550D01*
X98500Y-44800D02*
X98300Y-44800D01*
X98300Y-44800D02*
X97850Y-45250D01*
X87906Y-46694D02*
X89350Y-45250D01*
X84750Y-48300D02*
X86356Y-46694D01*
X89350Y-45250D02*
X97850Y-45250D01*
X86356Y-46694D02*
X87906Y-46694D01*
X90350Y-47700D02*
X90600Y-47950D01*
X90600Y-48150D02*
X89950Y-48800D01*
X90600Y-47950D02*
X90600Y-48150D01*
X80650Y-49300D02*
X81650Y-50300D01*
X85850Y-48800D02*
X89950Y-48800D01*
X84350Y-50300D02*
X85850Y-48800D01*
X81650Y-50300D02*
X84350Y-50300D01*
X83540Y-45560D02*
X87290Y-45560D01*
X87290Y-45560D02*
X88924Y-43926D01*
X80400Y-49050D02*
X80400Y-48700D01*
X80650Y-49300D02*
X80400Y-49050D01*
X80400Y-48700D02*
X83540Y-45560D01*
X88924Y-43926D02*
X96776Y-43926D01*
X96776Y-43926D02*
X96938Y-44088D01*
X96938Y-44088D02*
X98538Y-44088D01*
X99200Y-44300D02*
X99250Y-44350D01*
X98750Y-44300D02*
X99200Y-44300D01*
X98538Y-44088D02*
X98750Y-44300D01*
X98400Y-45150D02*
X98136Y-45413D01*
X84650Y-48550D02*
X84850Y-48550D01*
X86544Y-46856D02*
X87994Y-46856D01*
X84850Y-48550D02*
X86544Y-46856D01*
X83950Y-48500D02*
X84600Y-48500D01*
X89438Y-45412D02*
X98136Y-45413D01*
X84600Y-48500D02*
X84650Y-48550D01*
X87994Y-46856D02*
X89438Y-45412D01*
X97588Y-44912D02*
X98000Y-44500D01*
X85430Y-46370D02*
X87730Y-46370D01*
X89188Y-44912D02*
X97588Y-44912D01*
X87730Y-46370D02*
X89188Y-44912D01*
X84500Y-47300D02*
X85430Y-46370D01*
X90800Y-46850D02*
X91550Y-46100D01*
X101900Y-44600D02*
X101638Y-44862D01*
X99288Y-44862D02*
X101638Y-44862D01*
X98414Y-45736D02*
X99288Y-44862D01*
X92514Y-45736D02*
X98414Y-45736D01*
X92150Y-46100D02*
X92514Y-45736D01*
X91550Y-46100D02*
X92150Y-46100D01*
X88500Y-55600D02*
X95950Y-55600D01*
X95950Y-55600D02*
X98688Y-52862D01*
X98688Y-50362D02*
X99100Y-49950D01*
X98688Y-52862D02*
X98688Y-50362D01*
X99512Y-47062D02*
X99400Y-46950D01*
X88650Y-55300D02*
X96000Y-55300D01*
X98526Y-52774D02*
X98526Y-50124D01*
X99512Y-49138D02*
X99512Y-47062D01*
X96000Y-55300D02*
X98526Y-52774D01*
X98526Y-50124D02*
X99512Y-49138D01*
X88250Y-55700D02*
X88400Y-55850D01*
X88400Y-55850D02*
X95950Y-55850D01*
X98850Y-52200D02*
X99100Y-51950D01*
X98850Y-52950D02*
X98850Y-52200D01*
X95950Y-55850D02*
X98850Y-52950D01*
X88250Y-55300D02*
X88250Y-55700D01*
X84750Y-54900D02*
X84900Y-55050D01*
X99050Y-46950D02*
X99350Y-47250D01*
X99350Y-47250D02*
X99350Y-49050D01*
X98364Y-50036D02*
X98364Y-52686D01*
X96000Y-55050D02*
X84900Y-55050D01*
X98364Y-52686D02*
X96000Y-55050D01*
X99350Y-49050D02*
X98364Y-50036D01*
X83550Y-49750D02*
X83400Y-49600D01*
X83150Y-49600D02*
X82950Y-49800D01*
X86750Y-47700D02*
X86450Y-47700D01*
X83400Y-49600D02*
X83150Y-49600D01*
X84400Y-49750D02*
X83550Y-49750D01*
X86450Y-47700D02*
X84400Y-49750D01*
X87850Y-55600D02*
X88300Y-56050D01*
X96000Y-56050D02*
X99100Y-52950D01*
X88300Y-56050D02*
X96000Y-56050D01*
X98202Y-49848D02*
X99100Y-48950D01*
X82850Y-54550D02*
X82950Y-54650D01*
X82950Y-54650D02*
X84850Y-54650D01*
X95912Y-54888D02*
X98202Y-52598D01*
X98202Y-52598D02*
X98202Y-49848D01*
X84850Y-54650D02*
X85088Y-54888D01*
X85088Y-54888D02*
X95912Y-54888D01*
X78000Y-51200D02*
X79300Y-52500D01*
X83150Y-52500D02*
X83900Y-51750D01*
X79300Y-52500D02*
X83150Y-52500D01*
X78000Y-50800D02*
X79500Y-52300D01*
X79500Y-52300D02*
X83000Y-52300D01*
X83000Y-52300D02*
X83800Y-51500D01*
X83800Y-51500D02*
X84150Y-51500D01*
X86300Y-51600D02*
X85000Y-52900D01*
X79300Y-52900D02*
X77600Y-51200D01*
X85000Y-52900D02*
X79300Y-52900D01*
X76450Y-54750D02*
X77750Y-54750D01*
X77750Y-54750D02*
X78000Y-54500D01*
X83500Y-57150D02*
X83500Y-57000D01*
X83500Y-57000D02*
X84300Y-56200D01*
X84300Y-56200D02*
X87300Y-56200D01*
X87300Y-56200D02*
X87500Y-56000D01*
X81775Y-55850D02*
X79900Y-55850D01*
X79900Y-55850D02*
X79850Y-55900D01*
X84500Y-51300D02*
X84500Y-50600D01*
G54D17*
X101850Y-42800D02*
X100650Y-44000D01*
X78700Y-45700D02*
X77600Y-45700D01*
X98400Y-43500D02*
X89500Y-43500D01*
X101850Y-42000D02*
X101850Y-42800D01*
X102350Y-41500D02*
X101850Y-42000D01*
X98900Y-44000D02*
X98400Y-43500D01*
X89500Y-43500D02*
X89150Y-43150D01*
X89150Y-43150D02*
X81250Y-43150D01*
X100650Y-44000D02*
X98900Y-44000D01*
X81250Y-43150D02*
X78700Y-45700D01*
G54D16*
X97750Y-58600D02*
X99400Y-56950D01*
X84800Y-51600D02*
X84500Y-51300D01*
X99400Y-56950D02*
X101493Y-56950D01*
X79100Y-55900D02*
X79850Y-55900D01*
X86300Y-51600D02*
X84800Y-51600D01*
X94700Y-58600D02*
X97750Y-58600D01*
X79850Y-55900D02*
X78450Y-54500D01*
X78450Y-54500D02*
X78000Y-54500D01*
X77600Y-51200D02*
X77600Y-48850D01*
X78100Y-46200D02*
X77600Y-45700D01*
X77600Y-48850D02*
X78100Y-48350D01*
X78100Y-48350D02*
X78100Y-46200D01*
X101493Y-56950D02*
X102343Y-57800D01*
X78000Y-54500D02*
X77600Y-54100D01*
X77600Y-54100D02*
X77600Y-51200D01*
G54D10*
G36*
X84993Y-47760D02*
X84748Y-48004D01*
X84691Y-48004D01*
X84583Y-48049D01*
X84500Y-48132D01*
X84455Y-48241D01*
X84455Y-48290D01*
X84157Y-48290D01*
X84117Y-48250D01*
X84008Y-48205D01*
X83891Y-48204D01*
X83783Y-48249D01*
X83700Y-48332D01*
X83655Y-48441D01*
X83654Y-48558D01*
X83699Y-48666D01*
X83782Y-48749D01*
X83782Y-48750D01*
X83700Y-48832D01*
X83655Y-48941D01*
X83654Y-49058D01*
X83699Y-49166D01*
X83737Y-49205D01*
X83641Y-49204D01*
X83533Y-49249D01*
X83450Y-49332D01*
X83424Y-49394D01*
X83400Y-49390D01*
X83150Y-49390D01*
X83069Y-49405D01*
X83042Y-49424D01*
X83001Y-49451D01*
X83001Y-49451D01*
X82948Y-49504D01*
X82891Y-49504D01*
X82783Y-49549D01*
X82700Y-49632D01*
X82655Y-49741D01*
X82654Y-49858D01*
X82667Y-49890D01*
X81886Y-49890D01*
X80945Y-48948D01*
X80945Y-48891D01*
X80900Y-48783D01*
X80882Y-48764D01*
X82240Y-47406D01*
X82240Y-47988D01*
X82158Y-47955D01*
X82041Y-47954D01*
X81933Y-47999D01*
X81850Y-48082D01*
X81805Y-48191D01*
X81804Y-48308D01*
X81849Y-48416D01*
X81932Y-48499D01*
X82041Y-48544D01*
X82158Y-48545D01*
X82266Y-48500D01*
X82299Y-48467D01*
X82332Y-48499D01*
X82441Y-48544D01*
X82558Y-48545D01*
X82666Y-48500D01*
X82699Y-48467D01*
X82732Y-48499D01*
X82841Y-48544D01*
X82958Y-48545D01*
X83066Y-48500D01*
X83149Y-48417D01*
X83194Y-48308D01*
X83195Y-48191D01*
X83150Y-48083D01*
X83067Y-48000D01*
X82958Y-47955D01*
X82841Y-47954D01*
X82733Y-47999D01*
X82700Y-48032D01*
X82667Y-48000D01*
X82660Y-47997D01*
X82660Y-47594D01*
X82758Y-47595D01*
X82866Y-47550D01*
X82949Y-47467D01*
X82994Y-47358D01*
X82995Y-47241D01*
X82968Y-47178D01*
X83890Y-46256D01*
X84497Y-46256D01*
X83701Y-47051D01*
X83655Y-47119D01*
X83640Y-47200D01*
X83640Y-47400D01*
X83655Y-47480D01*
X83701Y-47548D01*
X83851Y-47698D01*
X83851Y-47698D01*
X83892Y-47725D01*
X83919Y-47744D01*
X83919Y-47744D01*
X84000Y-47760D01*
X84993Y-47760D01*
X84993Y-47760D01*
G37*
G54D18*
X84993Y-47760D02*
X84748Y-48004D01*
X84691Y-48004D01*
X84583Y-48049D01*
X84500Y-48132D01*
X84455Y-48241D01*
X84455Y-48290D01*
X84157Y-48290D01*
X84117Y-48250D01*
X84008Y-48205D01*
X83891Y-48204D01*
X83783Y-48249D01*
X83700Y-48332D01*
X83655Y-48441D01*
X83654Y-48558D01*
X83699Y-48666D01*
X83782Y-48749D01*
X83782Y-48750D01*
X83700Y-48832D01*
X83655Y-48941D01*
X83654Y-49058D01*
X83699Y-49166D01*
X83737Y-49205D01*
X83641Y-49204D01*
X83533Y-49249D01*
X83450Y-49332D01*
X83424Y-49394D01*
X83400Y-49390D01*
X83150Y-49390D01*
X83069Y-49405D01*
X83042Y-49424D01*
X83001Y-49451D01*
X83001Y-49451D01*
X82948Y-49504D01*
X82891Y-49504D01*
X82783Y-49549D01*
X82700Y-49632D01*
X82655Y-49741D01*
X82654Y-49858D01*
X82667Y-49890D01*
X81886Y-49890D01*
X80945Y-48948D01*
X80945Y-48891D01*
X80900Y-48783D01*
X80882Y-48764D01*
X82240Y-47406D01*
X82240Y-47988D01*
X82158Y-47955D01*
X82041Y-47954D01*
X81933Y-47999D01*
X81850Y-48082D01*
X81805Y-48191D01*
X81804Y-48308D01*
X81849Y-48416D01*
X81932Y-48499D01*
X82041Y-48544D01*
X82158Y-48545D01*
X82266Y-48500D01*
X82299Y-48467D01*
X82332Y-48499D01*
X82441Y-48544D01*
X82558Y-48545D01*
X82666Y-48500D01*
X82699Y-48467D01*
X82732Y-48499D01*
X82841Y-48544D01*
X82958Y-48545D01*
X83066Y-48500D01*
X83149Y-48417D01*
X83194Y-48308D01*
X83195Y-48191D01*
X83150Y-48083D01*
X83067Y-48000D01*
X82958Y-47955D01*
X82841Y-47954D01*
X82733Y-47999D01*
X82700Y-48032D01*
X82667Y-48000D01*
X82660Y-47997D01*
X82660Y-47594D01*
X82758Y-47595D01*
X82866Y-47550D01*
X82949Y-47467D01*
X82994Y-47358D01*
X82995Y-47241D01*
X82968Y-47178D01*
X83890Y-46256D01*
X84497Y-46256D01*
X83701Y-47051D01*
X83655Y-47119D01*
X83640Y-47200D01*
X83640Y-47400D01*
X83655Y-47480D01*
X83701Y-47548D01*
X83851Y-47698D01*
X83851Y-47698D01*
X83892Y-47725D01*
X83919Y-47744D01*
X83919Y-47744D01*
X84000Y-47760D01*
X84993Y-47760D01*
G54D10*
G36*
X105455Y-58705D02*
X104691Y-58705D01*
X104691Y-57437D01*
X104691Y-57400D01*
X104691Y-57362D01*
X104691Y-42637D01*
X104691Y-42600D01*
X104691Y-42562D01*
X104691Y-42561D01*
X104691Y-42561D01*
X104691Y-42561D01*
X104653Y-42370D01*
X104624Y-42300D01*
X104623Y-42299D01*
X104516Y-42138D01*
X104515Y-42137D01*
X104461Y-42084D01*
X104300Y-41976D01*
X104299Y-41975D01*
X104229Y-41946D01*
X104037Y-41908D01*
X103961Y-41908D01*
X103960Y-41909D01*
X103770Y-41946D01*
X103700Y-41975D01*
X103699Y-41976D01*
X103538Y-42083D01*
X103537Y-42084D01*
X103484Y-42138D01*
X103376Y-42299D01*
X103375Y-42300D01*
X103346Y-42370D01*
X103308Y-42562D01*
X103308Y-42600D01*
X103308Y-42637D01*
X103308Y-42638D01*
X103346Y-42829D01*
X103375Y-42899D01*
X103376Y-42900D01*
X103484Y-43061D01*
X103537Y-43115D01*
X103538Y-43116D01*
X103699Y-43223D01*
X103700Y-43224D01*
X103770Y-43253D01*
X103960Y-43290D01*
X103961Y-43291D01*
X104037Y-43291D01*
X104229Y-43253D01*
X104299Y-43224D01*
X104300Y-43223D01*
X104461Y-43115D01*
X104515Y-43062D01*
X104516Y-43061D01*
X104623Y-42900D01*
X104624Y-42899D01*
X104653Y-42829D01*
X104691Y-42638D01*
X104691Y-42638D01*
X104691Y-42638D01*
X104691Y-42637D01*
X104691Y-57362D01*
X104691Y-57361D01*
X104691Y-57361D01*
X104691Y-57361D01*
X104653Y-57170D01*
X104624Y-57100D01*
X104623Y-57099D01*
X104516Y-56938D01*
X104515Y-56937D01*
X104461Y-56884D01*
X104300Y-56776D01*
X104299Y-56775D01*
X104229Y-56746D01*
X104037Y-56708D01*
X103961Y-56708D01*
X103960Y-56709D01*
X103770Y-56746D01*
X103700Y-56775D01*
X103699Y-56776D01*
X103538Y-56883D01*
X103537Y-56884D01*
X103484Y-56938D01*
X103376Y-57099D01*
X103375Y-57100D01*
X103346Y-57170D01*
X103308Y-57362D01*
X103308Y-57400D01*
X103308Y-57437D01*
X103308Y-57438D01*
X103346Y-57629D01*
X103375Y-57699D01*
X103376Y-57700D01*
X103484Y-57861D01*
X103537Y-57915D01*
X103538Y-57916D01*
X103699Y-58023D01*
X103700Y-58024D01*
X103770Y-58053D01*
X103960Y-58090D01*
X103961Y-58091D01*
X104037Y-58091D01*
X104229Y-58053D01*
X104299Y-58024D01*
X104300Y-58023D01*
X104461Y-57915D01*
X104515Y-57862D01*
X104516Y-57861D01*
X104623Y-57700D01*
X104624Y-57699D01*
X104653Y-57629D01*
X104691Y-57438D01*
X104691Y-57438D01*
X104691Y-57438D01*
X104691Y-57437D01*
X104691Y-58705D01*
X102970Y-58705D01*
X102970Y-54356D01*
X102970Y-53356D01*
X102970Y-52356D01*
X102970Y-51356D01*
X102970Y-50356D01*
X102970Y-49356D01*
X102970Y-48356D01*
X102970Y-47356D01*
X102898Y-47184D01*
X102766Y-47051D01*
X102593Y-46980D01*
X102406Y-46979D01*
X102286Y-47029D01*
X102294Y-47008D01*
X102295Y-46891D01*
X102286Y-46870D01*
X102406Y-46919D01*
X102593Y-46920D01*
X102765Y-46848D01*
X102898Y-46716D01*
X102969Y-46543D01*
X102970Y-46356D01*
X102970Y-45356D01*
X102898Y-45184D01*
X102820Y-45105D01*
X102820Y-42406D01*
X102748Y-42234D01*
X102616Y-42101D01*
X102478Y-42044D01*
X102486Y-42043D01*
X102637Y-41981D01*
X102665Y-41885D01*
X102350Y-41570D01*
X102034Y-41885D01*
X102062Y-41981D01*
X102229Y-42041D01*
X102084Y-42101D01*
X101951Y-42233D01*
X101880Y-42406D01*
X101879Y-42593D01*
X101951Y-42765D01*
X102083Y-42898D01*
X102256Y-42969D01*
X102443Y-42970D01*
X102615Y-42898D01*
X102748Y-42766D01*
X102819Y-42593D01*
X102820Y-42406D01*
X102820Y-45105D01*
X102766Y-45051D01*
X102593Y-44980D01*
X102406Y-44979D01*
X102234Y-45051D01*
X102195Y-45090D01*
X102195Y-44541D01*
X102150Y-44433D01*
X102067Y-44350D01*
X101958Y-44305D01*
X101841Y-44304D01*
X101820Y-44313D01*
X101820Y-42406D01*
X101748Y-42234D01*
X101616Y-42101D01*
X101443Y-42030D01*
X101256Y-42029D01*
X101084Y-42101D01*
X100951Y-42233D01*
X100880Y-42406D01*
X100879Y-42593D01*
X100951Y-42765D01*
X101083Y-42898D01*
X101256Y-42969D01*
X101443Y-42970D01*
X101615Y-42898D01*
X101748Y-42766D01*
X101819Y-42593D01*
X101820Y-42406D01*
X101820Y-44313D01*
X101733Y-44349D01*
X101650Y-44432D01*
X101605Y-44541D01*
X101605Y-44598D01*
X101551Y-44652D01*
X101494Y-44652D01*
X101495Y-44541D01*
X101450Y-44433D01*
X101367Y-44350D01*
X101258Y-44305D01*
X101141Y-44304D01*
X101033Y-44349D01*
X100950Y-44432D01*
X100926Y-44490D01*
X100820Y-44490D01*
X100820Y-42406D01*
X100748Y-42234D01*
X100616Y-42101D01*
X100443Y-42030D01*
X100256Y-42029D01*
X100084Y-42101D01*
X99951Y-42233D01*
X99880Y-42406D01*
X99879Y-42593D01*
X99951Y-42765D01*
X100083Y-42898D01*
X100256Y-42969D01*
X100443Y-42970D01*
X100615Y-42898D01*
X100748Y-42766D01*
X100819Y-42593D01*
X100820Y-42406D01*
X100820Y-44490D01*
X99820Y-44490D01*
X99820Y-42406D01*
X99748Y-42234D01*
X99616Y-42101D01*
X99443Y-42030D01*
X99256Y-42029D01*
X99084Y-42101D01*
X98951Y-42233D01*
X98880Y-42406D01*
X98879Y-42593D01*
X98951Y-42765D01*
X99083Y-42898D01*
X99205Y-42948D01*
X99204Y-43058D01*
X99249Y-43166D01*
X99332Y-43249D01*
X99441Y-43294D01*
X99558Y-43295D01*
X99666Y-43250D01*
X99749Y-43167D01*
X99794Y-43058D01*
X99795Y-42941D01*
X99750Y-42833D01*
X99715Y-42798D01*
X99748Y-42766D01*
X99819Y-42593D01*
X99820Y-42406D01*
X99820Y-44490D01*
X99511Y-44490D01*
X99544Y-44408D01*
X99545Y-44291D01*
X99500Y-44183D01*
X99491Y-44174D01*
X99491Y-43637D01*
X99491Y-43600D01*
X99491Y-43562D01*
X99491Y-43561D01*
X99491Y-43561D01*
X99491Y-43561D01*
X99476Y-43485D01*
X99476Y-43485D01*
X99476Y-43485D01*
X99446Y-43414D01*
X99403Y-43350D01*
X99349Y-43296D01*
X99349Y-43296D01*
X99285Y-43253D01*
X99284Y-43253D01*
X99284Y-43252D01*
X99214Y-43223D01*
X99137Y-43208D01*
X99061Y-43208D01*
X99061Y-43208D01*
X98985Y-43223D01*
X98985Y-43223D01*
X98985Y-43223D01*
X98914Y-43253D01*
X98850Y-43296D01*
X98820Y-43326D01*
X98820Y-42406D01*
X98748Y-42234D01*
X98616Y-42101D01*
X98443Y-42030D01*
X98256Y-42029D01*
X98084Y-42101D01*
X97951Y-42233D01*
X97880Y-42406D01*
X97879Y-42593D01*
X97951Y-42765D01*
X98083Y-42898D01*
X98256Y-42969D01*
X98443Y-42970D01*
X98615Y-42898D01*
X98748Y-42766D01*
X98819Y-42593D01*
X98820Y-42406D01*
X98820Y-43326D01*
X98796Y-43350D01*
X98796Y-43350D01*
X98753Y-43414D01*
X98753Y-43415D01*
X98752Y-43415D01*
X98723Y-43485D01*
X98708Y-43562D01*
X98708Y-43600D01*
X98708Y-43637D01*
X98708Y-43638D01*
X98723Y-43714D01*
X98752Y-43784D01*
X98753Y-43784D01*
X98753Y-43785D01*
X98796Y-43849D01*
X98796Y-43849D01*
X98850Y-43903D01*
X98914Y-43946D01*
X98985Y-43976D01*
X98985Y-43976D01*
X98985Y-43976D01*
X99061Y-43991D01*
X99061Y-43991D01*
X99137Y-43991D01*
X99214Y-43976D01*
X99214Y-43975D01*
X99284Y-43947D01*
X99284Y-43946D01*
X99285Y-43946D01*
X99349Y-43903D01*
X99349Y-43903D01*
X99403Y-43849D01*
X99446Y-43785D01*
X99476Y-43714D01*
X99476Y-43714D01*
X99476Y-43714D01*
X99491Y-43638D01*
X99491Y-43638D01*
X99491Y-43638D01*
X99491Y-43637D01*
X99491Y-44174D01*
X99417Y-44100D01*
X99308Y-44055D01*
X99191Y-44054D01*
X99106Y-44090D01*
X98836Y-44090D01*
X98686Y-43939D01*
X98618Y-43893D01*
X98538Y-43878D01*
X97820Y-43878D01*
X97820Y-42406D01*
X97748Y-42234D01*
X97616Y-42101D01*
X97443Y-42030D01*
X97256Y-42029D01*
X97084Y-42101D01*
X96951Y-42233D01*
X96880Y-42406D01*
X96879Y-42593D01*
X96951Y-42765D01*
X97083Y-42898D01*
X97256Y-42969D01*
X97443Y-42970D01*
X97615Y-42898D01*
X97748Y-42766D01*
X97819Y-42593D01*
X97820Y-42406D01*
X97820Y-43878D01*
X97024Y-43878D01*
X96924Y-43777D01*
X96856Y-43731D01*
X96820Y-43724D01*
X96820Y-42406D01*
X96748Y-42234D01*
X96616Y-42101D01*
X96443Y-42030D01*
X96256Y-42029D01*
X96084Y-42101D01*
X95951Y-42233D01*
X95880Y-42406D01*
X95879Y-42593D01*
X95951Y-42765D01*
X96083Y-42898D01*
X96256Y-42969D01*
X96443Y-42970D01*
X96615Y-42898D01*
X96748Y-42766D01*
X96819Y-42593D01*
X96820Y-42406D01*
X96820Y-43724D01*
X96776Y-43716D01*
X95820Y-43716D01*
X95820Y-42406D01*
X95748Y-42234D01*
X95616Y-42101D01*
X95443Y-42030D01*
X95256Y-42029D01*
X95084Y-42101D01*
X94951Y-42233D01*
X94880Y-42406D01*
X94879Y-42593D01*
X94951Y-42765D01*
X95083Y-42898D01*
X95256Y-42969D01*
X95443Y-42970D01*
X95615Y-42898D01*
X95748Y-42766D01*
X95819Y-42593D01*
X95820Y-42406D01*
X95820Y-43716D01*
X94820Y-43716D01*
X94820Y-42406D01*
X94748Y-42234D01*
X94616Y-42101D01*
X94443Y-42030D01*
X94256Y-42029D01*
X94084Y-42101D01*
X93951Y-42233D01*
X93880Y-42406D01*
X93879Y-42593D01*
X93951Y-42765D01*
X94083Y-42898D01*
X94256Y-42969D01*
X94443Y-42970D01*
X94615Y-42898D01*
X94748Y-42766D01*
X94819Y-42593D01*
X94820Y-42406D01*
X94820Y-43716D01*
X93820Y-43716D01*
X93820Y-42406D01*
X93748Y-42234D01*
X93616Y-42101D01*
X93443Y-42030D01*
X93256Y-42029D01*
X93084Y-42101D01*
X92951Y-42233D01*
X92880Y-42406D01*
X92879Y-42593D01*
X92951Y-42765D01*
X93083Y-42898D01*
X93256Y-42969D01*
X93443Y-42970D01*
X93615Y-42898D01*
X93748Y-42766D01*
X93819Y-42593D01*
X93820Y-42406D01*
X93820Y-43716D01*
X92820Y-43716D01*
X92820Y-42406D01*
X92748Y-42234D01*
X92616Y-42101D01*
X92443Y-42030D01*
X92256Y-42029D01*
X92084Y-42101D01*
X91951Y-42233D01*
X91880Y-42406D01*
X91879Y-42593D01*
X91951Y-42765D01*
X92083Y-42898D01*
X92256Y-42969D01*
X92443Y-42970D01*
X92615Y-42898D01*
X92748Y-42766D01*
X92819Y-42593D01*
X92820Y-42406D01*
X92820Y-43716D01*
X91820Y-43716D01*
X91820Y-42406D01*
X91748Y-42234D01*
X91616Y-42101D01*
X91443Y-42030D01*
X91256Y-42029D01*
X91084Y-42101D01*
X90951Y-42233D01*
X90880Y-42406D01*
X90879Y-42593D01*
X90951Y-42765D01*
X91083Y-42898D01*
X91256Y-42969D01*
X91443Y-42970D01*
X91615Y-42898D01*
X91748Y-42766D01*
X91819Y-42593D01*
X91820Y-42406D01*
X91820Y-43716D01*
X90820Y-43716D01*
X90820Y-42406D01*
X90748Y-42234D01*
X90616Y-42101D01*
X90443Y-42030D01*
X90256Y-42029D01*
X90084Y-42101D01*
X89951Y-42233D01*
X89880Y-42406D01*
X89879Y-42593D01*
X89951Y-42765D01*
X90083Y-42898D01*
X90256Y-42969D01*
X90443Y-42970D01*
X90615Y-42898D01*
X90748Y-42766D01*
X90819Y-42593D01*
X90820Y-42406D01*
X90820Y-43716D01*
X89820Y-43716D01*
X89820Y-42406D01*
X89748Y-42234D01*
X89616Y-42101D01*
X89443Y-42030D01*
X89256Y-42029D01*
X89084Y-42101D01*
X88951Y-42233D01*
X88880Y-42406D01*
X88879Y-42593D01*
X88951Y-42765D01*
X89083Y-42898D01*
X89256Y-42969D01*
X89443Y-42970D01*
X89615Y-42898D01*
X89748Y-42766D01*
X89819Y-42593D01*
X89820Y-42406D01*
X89820Y-43716D01*
X89200Y-43716D01*
X89244Y-43608D01*
X89245Y-43491D01*
X89200Y-43383D01*
X89117Y-43300D01*
X89008Y-43255D01*
X88891Y-43254D01*
X88820Y-43284D01*
X88820Y-42406D01*
X88748Y-42234D01*
X88616Y-42101D01*
X88443Y-42030D01*
X88256Y-42029D01*
X88084Y-42101D01*
X87951Y-42233D01*
X87880Y-42406D01*
X87879Y-42593D01*
X87951Y-42765D01*
X88083Y-42898D01*
X88256Y-42969D01*
X88443Y-42970D01*
X88615Y-42898D01*
X88748Y-42766D01*
X88819Y-42593D01*
X88820Y-42406D01*
X88820Y-43284D01*
X88783Y-43299D01*
X88742Y-43340D01*
X88600Y-43340D01*
X88519Y-43355D01*
X88451Y-43401D01*
X87975Y-43878D01*
X87820Y-43878D01*
X87820Y-42406D01*
X87748Y-42234D01*
X87616Y-42101D01*
X87443Y-42030D01*
X87256Y-42029D01*
X87084Y-42101D01*
X86951Y-42233D01*
X86880Y-42406D01*
X86879Y-42593D01*
X86951Y-42765D01*
X87083Y-42898D01*
X87256Y-42969D01*
X87443Y-42970D01*
X87615Y-42898D01*
X87748Y-42766D01*
X87819Y-42593D01*
X87820Y-42406D01*
X87820Y-43878D01*
X86820Y-43878D01*
X86820Y-42406D01*
X86748Y-42234D01*
X86616Y-42101D01*
X86443Y-42030D01*
X86256Y-42029D01*
X86084Y-42101D01*
X85951Y-42233D01*
X85880Y-42406D01*
X85879Y-42593D01*
X85951Y-42765D01*
X86083Y-42898D01*
X86256Y-42969D01*
X86443Y-42970D01*
X86615Y-42898D01*
X86748Y-42766D01*
X86819Y-42593D01*
X86820Y-42406D01*
X86820Y-43878D01*
X85820Y-43878D01*
X85820Y-42406D01*
X85748Y-42234D01*
X85616Y-42101D01*
X85443Y-42030D01*
X85256Y-42029D01*
X85084Y-42101D01*
X84951Y-42233D01*
X84880Y-42406D01*
X84879Y-42593D01*
X84951Y-42765D01*
X85083Y-42898D01*
X85256Y-42969D01*
X85443Y-42970D01*
X85615Y-42898D01*
X85748Y-42766D01*
X85819Y-42593D01*
X85820Y-42406D01*
X85820Y-43878D01*
X85218Y-43878D01*
X85200Y-43833D01*
X85117Y-43750D01*
X85008Y-43705D01*
X84891Y-43704D01*
X84820Y-43734D01*
X84820Y-42406D01*
X84748Y-42234D01*
X84616Y-42101D01*
X84443Y-42030D01*
X84256Y-42029D01*
X84084Y-42101D01*
X83951Y-42233D01*
X83880Y-42406D01*
X83879Y-42593D01*
X83951Y-42765D01*
X84083Y-42898D01*
X84256Y-42969D01*
X84443Y-42970D01*
X84615Y-42898D01*
X84748Y-42766D01*
X84819Y-42593D01*
X84820Y-42406D01*
X84820Y-43734D01*
X84783Y-43749D01*
X84700Y-43832D01*
X84655Y-43941D01*
X84654Y-44058D01*
X84699Y-44166D01*
X84782Y-44249D01*
X84891Y-44294D01*
X85008Y-44295D01*
X85013Y-44293D01*
X85038Y-44298D01*
X85205Y-44298D01*
X84963Y-44540D01*
X84644Y-44540D01*
X84645Y-44441D01*
X84600Y-44333D01*
X84517Y-44250D01*
X84408Y-44205D01*
X84291Y-44204D01*
X84183Y-44249D01*
X84175Y-44257D01*
X84167Y-44250D01*
X84058Y-44205D01*
X83941Y-44204D01*
X83833Y-44249D01*
X83825Y-44257D01*
X83820Y-44252D01*
X83820Y-42406D01*
X83748Y-42234D01*
X83616Y-42101D01*
X83443Y-42030D01*
X83256Y-42029D01*
X83084Y-42101D01*
X82951Y-42233D01*
X82880Y-42406D01*
X82879Y-42593D01*
X82951Y-42765D01*
X83083Y-42898D01*
X83256Y-42969D01*
X83443Y-42970D01*
X83615Y-42898D01*
X83748Y-42766D01*
X83819Y-42593D01*
X83820Y-42406D01*
X83820Y-44252D01*
X83817Y-44250D01*
X83708Y-44205D01*
X83591Y-44204D01*
X83483Y-44249D01*
X83475Y-44257D01*
X83467Y-44250D01*
X83358Y-44205D01*
X83241Y-44204D01*
X83133Y-44249D01*
X83100Y-44282D01*
X83067Y-44250D01*
X82958Y-44205D01*
X82841Y-44204D01*
X82820Y-44213D01*
X82820Y-42406D01*
X82748Y-42234D01*
X82616Y-42101D01*
X82443Y-42030D01*
X82256Y-42029D01*
X82084Y-42101D01*
X81951Y-42233D01*
X81880Y-42406D01*
X81879Y-42593D01*
X81951Y-42765D01*
X82083Y-42898D01*
X82256Y-42969D01*
X82443Y-42970D01*
X82615Y-42898D01*
X82748Y-42766D01*
X82819Y-42593D01*
X82820Y-42406D01*
X82820Y-44213D01*
X82733Y-44249D01*
X82725Y-44257D01*
X82717Y-44250D01*
X82608Y-44205D01*
X82491Y-44204D01*
X82383Y-44249D01*
X82375Y-44257D01*
X82367Y-44250D01*
X82258Y-44205D01*
X82141Y-44204D01*
X82033Y-44249D01*
X82025Y-44257D01*
X82017Y-44250D01*
X81908Y-44205D01*
X81820Y-44204D01*
X81820Y-42406D01*
X81748Y-42234D01*
X81616Y-42101D01*
X81443Y-42030D01*
X81256Y-42029D01*
X81084Y-42101D01*
X80951Y-42233D01*
X80880Y-42406D01*
X80879Y-42593D01*
X80951Y-42765D01*
X81083Y-42898D01*
X81256Y-42969D01*
X81443Y-42970D01*
X81615Y-42898D01*
X81748Y-42766D01*
X81819Y-42593D01*
X81820Y-42406D01*
X81820Y-44204D01*
X81791Y-44204D01*
X81683Y-44249D01*
X81650Y-44282D01*
X81617Y-44250D01*
X81508Y-44205D01*
X81391Y-44204D01*
X81283Y-44249D01*
X81275Y-44257D01*
X81267Y-44250D01*
X81158Y-44205D01*
X81041Y-44204D01*
X80933Y-44249D01*
X80925Y-44257D01*
X80917Y-44250D01*
X80820Y-44209D01*
X80820Y-42406D01*
X80748Y-42234D01*
X80616Y-42101D01*
X80443Y-42030D01*
X80256Y-42029D01*
X80084Y-42101D01*
X79951Y-42233D01*
X79880Y-42406D01*
X79879Y-42593D01*
X79951Y-42765D01*
X80083Y-42898D01*
X80256Y-42969D01*
X80443Y-42970D01*
X80615Y-42898D01*
X80748Y-42766D01*
X80819Y-42593D01*
X80820Y-42406D01*
X80820Y-44209D01*
X80808Y-44205D01*
X80691Y-44204D01*
X80583Y-44249D01*
X80575Y-44257D01*
X80567Y-44250D01*
X80458Y-44205D01*
X80341Y-44204D01*
X80291Y-44225D01*
X80291Y-43637D01*
X80291Y-43600D01*
X80291Y-43562D01*
X80291Y-43561D01*
X80291Y-43561D01*
X80291Y-43561D01*
X80276Y-43485D01*
X80276Y-43485D01*
X80276Y-43485D01*
X80246Y-43414D01*
X80203Y-43350D01*
X80149Y-43296D01*
X80149Y-43296D01*
X80085Y-43253D01*
X80084Y-43253D01*
X80084Y-43252D01*
X80014Y-43223D01*
X79937Y-43208D01*
X79861Y-43208D01*
X79861Y-43208D01*
X79820Y-43217D01*
X79820Y-42406D01*
X79748Y-42234D01*
X79616Y-42101D01*
X79443Y-42030D01*
X79256Y-42029D01*
X79084Y-42101D01*
X78951Y-42233D01*
X78880Y-42406D01*
X78879Y-42593D01*
X78951Y-42765D01*
X79083Y-42898D01*
X79256Y-42969D01*
X79443Y-42970D01*
X79615Y-42898D01*
X79748Y-42766D01*
X79819Y-42593D01*
X79820Y-42406D01*
X79820Y-43217D01*
X79785Y-43223D01*
X79785Y-43223D01*
X79785Y-43223D01*
X79714Y-43253D01*
X79650Y-43296D01*
X79596Y-43350D01*
X79596Y-43350D01*
X79553Y-43414D01*
X79553Y-43415D01*
X79552Y-43415D01*
X79523Y-43485D01*
X79508Y-43562D01*
X79508Y-43600D01*
X79508Y-43637D01*
X79508Y-43638D01*
X79523Y-43714D01*
X79552Y-43784D01*
X79553Y-43784D01*
X79553Y-43785D01*
X79596Y-43849D01*
X79596Y-43849D01*
X79650Y-43903D01*
X79714Y-43946D01*
X79785Y-43976D01*
X79785Y-43976D01*
X79785Y-43976D01*
X79861Y-43991D01*
X79861Y-43991D01*
X79937Y-43991D01*
X80014Y-43976D01*
X80014Y-43975D01*
X80084Y-43947D01*
X80084Y-43946D01*
X80085Y-43946D01*
X80149Y-43903D01*
X80149Y-43903D01*
X80203Y-43849D01*
X80246Y-43785D01*
X80276Y-43714D01*
X80276Y-43714D01*
X80276Y-43714D01*
X80291Y-43638D01*
X80291Y-43638D01*
X80291Y-43638D01*
X80291Y-43637D01*
X80291Y-44225D01*
X80233Y-44249D01*
X80150Y-44332D01*
X80105Y-44441D01*
X80104Y-44558D01*
X80149Y-44666D01*
X80232Y-44749D01*
X80341Y-44794D01*
X80458Y-44795D01*
X80566Y-44750D01*
X80574Y-44742D01*
X80582Y-44749D01*
X80691Y-44794D01*
X80808Y-44795D01*
X80916Y-44750D01*
X80924Y-44742D01*
X80932Y-44749D01*
X81041Y-44794D01*
X81158Y-44795D01*
X81266Y-44750D01*
X81274Y-44742D01*
X81282Y-44749D01*
X81391Y-44794D01*
X81508Y-44795D01*
X81616Y-44750D01*
X81649Y-44717D01*
X81682Y-44749D01*
X81791Y-44794D01*
X81908Y-44795D01*
X82016Y-44750D01*
X82024Y-44742D01*
X82032Y-44749D01*
X82141Y-44794D01*
X82257Y-44795D01*
X79695Y-47357D01*
X79695Y-44441D01*
X79650Y-44333D01*
X79567Y-44250D01*
X79458Y-44205D01*
X79341Y-44204D01*
X79233Y-44249D01*
X79225Y-44257D01*
X79217Y-44250D01*
X79108Y-44205D01*
X78991Y-44204D01*
X78883Y-44249D01*
X78875Y-44257D01*
X78867Y-44250D01*
X78820Y-44230D01*
X78820Y-42406D01*
X78748Y-42234D01*
X78616Y-42101D01*
X78443Y-42030D01*
X78256Y-42029D01*
X78084Y-42101D01*
X77951Y-42233D01*
X77880Y-42406D01*
X77879Y-42593D01*
X77951Y-42765D01*
X78083Y-42898D01*
X78256Y-42969D01*
X78443Y-42970D01*
X78615Y-42898D01*
X78748Y-42766D01*
X78819Y-42593D01*
X78820Y-42406D01*
X78820Y-44230D01*
X78758Y-44205D01*
X78641Y-44204D01*
X78533Y-44249D01*
X78525Y-44257D01*
X78517Y-44250D01*
X78408Y-44205D01*
X78291Y-44204D01*
X78183Y-44249D01*
X78100Y-44332D01*
X78070Y-44404D01*
X78070Y-43606D01*
X77998Y-43434D01*
X77866Y-43301D01*
X77820Y-43282D01*
X77820Y-42766D01*
X77820Y-42166D01*
X77794Y-42103D01*
X77746Y-42055D01*
X77683Y-42030D01*
X77616Y-42029D01*
X77016Y-42029D01*
X76953Y-42055D01*
X76905Y-42103D01*
X76880Y-42166D01*
X76879Y-42233D01*
X76879Y-42833D01*
X76905Y-42896D01*
X76953Y-42944D01*
X77016Y-42969D01*
X77083Y-42970D01*
X77683Y-42970D01*
X77746Y-42944D01*
X77794Y-42896D01*
X77819Y-42833D01*
X77820Y-42766D01*
X77820Y-43282D01*
X77693Y-43230D01*
X77506Y-43229D01*
X77334Y-43301D01*
X77201Y-43433D01*
X77130Y-43606D01*
X77129Y-43793D01*
X77201Y-43965D01*
X77333Y-44098D01*
X77506Y-44169D01*
X77693Y-44170D01*
X77865Y-44098D01*
X77998Y-43966D01*
X78069Y-43793D01*
X78070Y-43606D01*
X78070Y-44404D01*
X78055Y-44441D01*
X78054Y-44558D01*
X78099Y-44666D01*
X78182Y-44749D01*
X78291Y-44794D01*
X78408Y-44795D01*
X78516Y-44750D01*
X78524Y-44742D01*
X78532Y-44749D01*
X78641Y-44794D01*
X78758Y-44795D01*
X78866Y-44750D01*
X78874Y-44742D01*
X78882Y-44749D01*
X78991Y-44794D01*
X79108Y-44795D01*
X79216Y-44750D01*
X79224Y-44742D01*
X79232Y-44749D01*
X79341Y-44794D01*
X79458Y-44795D01*
X79566Y-44750D01*
X79649Y-44667D01*
X79694Y-44558D01*
X79695Y-44441D01*
X79695Y-47357D01*
X78998Y-48054D01*
X78941Y-48054D01*
X78833Y-48099D01*
X78750Y-48182D01*
X78705Y-48291D01*
X78704Y-48408D01*
X78749Y-48516D01*
X78817Y-48585D01*
X78763Y-48640D01*
X78357Y-48640D01*
X78317Y-48600D01*
X78208Y-48555D01*
X78154Y-48555D01*
X78154Y-45781D01*
X78143Y-45563D01*
X78081Y-45412D01*
X78070Y-45408D01*
X78070Y-44606D01*
X77998Y-44434D01*
X77866Y-44301D01*
X77693Y-44230D01*
X77506Y-44229D01*
X77334Y-44301D01*
X77201Y-44433D01*
X77130Y-44606D01*
X77129Y-44793D01*
X77201Y-44965D01*
X77333Y-45098D01*
X77471Y-45155D01*
X77463Y-45156D01*
X77312Y-45218D01*
X77284Y-45314D01*
X77600Y-45629D01*
X77915Y-45314D01*
X77887Y-45218D01*
X77720Y-45158D01*
X77865Y-45098D01*
X77998Y-44966D01*
X78069Y-44793D01*
X78070Y-44606D01*
X78070Y-45408D01*
X77985Y-45384D01*
X77670Y-45700D01*
X77985Y-46015D01*
X78081Y-45987D01*
X78154Y-45781D01*
X78154Y-48555D01*
X78091Y-48554D01*
X78070Y-48563D01*
X78070Y-46606D01*
X77998Y-46434D01*
X77866Y-46301D01*
X77728Y-46244D01*
X77736Y-46243D01*
X77887Y-46181D01*
X77915Y-46085D01*
X77600Y-45770D01*
X77529Y-45841D01*
X77529Y-45700D01*
X77214Y-45384D01*
X77118Y-45412D01*
X77095Y-45478D01*
X77095Y-44391D01*
X77050Y-44283D01*
X76967Y-44200D01*
X76858Y-44155D01*
X76741Y-44154D01*
X76633Y-44199D01*
X76550Y-44282D01*
X76505Y-44391D01*
X76504Y-44508D01*
X76549Y-44616D01*
X76632Y-44699D01*
X76741Y-44744D01*
X76858Y-44745D01*
X76966Y-44700D01*
X77049Y-44617D01*
X77094Y-44508D01*
X77095Y-44391D01*
X77095Y-45478D01*
X77045Y-45618D01*
X77056Y-45836D01*
X77118Y-45987D01*
X77214Y-46015D01*
X77529Y-45700D01*
X77529Y-45841D01*
X77284Y-46085D01*
X77312Y-46181D01*
X77479Y-46241D01*
X77334Y-46301D01*
X77201Y-46433D01*
X77130Y-46606D01*
X77129Y-46793D01*
X77201Y-46965D01*
X77333Y-47098D01*
X77506Y-47169D01*
X77693Y-47170D01*
X77865Y-47098D01*
X77998Y-46966D01*
X78069Y-46793D01*
X78070Y-46606D01*
X78070Y-48563D01*
X78070Y-48563D01*
X78070Y-47966D01*
X78070Y-47366D01*
X78044Y-47303D01*
X77996Y-47255D01*
X77933Y-47230D01*
X77866Y-47229D01*
X77266Y-47229D01*
X77203Y-47255D01*
X77155Y-47303D01*
X77130Y-47366D01*
X77129Y-47433D01*
X77129Y-48033D01*
X77155Y-48096D01*
X77203Y-48144D01*
X77266Y-48169D01*
X77333Y-48170D01*
X77933Y-48170D01*
X77996Y-48144D01*
X78044Y-48096D01*
X78069Y-48033D01*
X78070Y-47966D01*
X78070Y-48563D01*
X77983Y-48599D01*
X77900Y-48682D01*
X77855Y-48791D01*
X77854Y-48908D01*
X77899Y-49016D01*
X77982Y-49099D01*
X78091Y-49144D01*
X78208Y-49145D01*
X78316Y-49100D01*
X78357Y-49060D01*
X78850Y-49060D01*
X78930Y-49044D01*
X78998Y-48998D01*
X79014Y-48982D01*
X79039Y-49007D01*
X79005Y-49091D01*
X79004Y-49208D01*
X79049Y-49316D01*
X79057Y-49324D01*
X79050Y-49332D01*
X79005Y-49441D01*
X79004Y-49558D01*
X79049Y-49666D01*
X79132Y-49749D01*
X79241Y-49794D01*
X79358Y-49795D01*
X79466Y-49750D01*
X79549Y-49667D01*
X79594Y-49558D01*
X79594Y-49501D01*
X80190Y-48906D01*
X80190Y-49050D01*
X80205Y-49130D01*
X80251Y-49198D01*
X80354Y-49301D01*
X80354Y-49358D01*
X80399Y-49466D01*
X80482Y-49549D01*
X80591Y-49594D01*
X80648Y-49594D01*
X81501Y-50448D01*
X81501Y-50448D01*
X81542Y-50475D01*
X81569Y-50494D01*
X81569Y-50494D01*
X81650Y-50510D01*
X84350Y-50510D01*
X84430Y-50494D01*
X84498Y-50448D01*
X84544Y-50402D01*
X84549Y-50416D01*
X84632Y-50499D01*
X84668Y-50514D01*
X84600Y-50582D01*
X84555Y-50691D01*
X84554Y-50808D01*
X84599Y-50916D01*
X84682Y-50999D01*
X84791Y-51044D01*
X84908Y-51045D01*
X85016Y-51000D01*
X85099Y-50917D01*
X85144Y-50808D01*
X85145Y-50691D01*
X85100Y-50583D01*
X85017Y-50500D01*
X84981Y-50485D01*
X85049Y-50417D01*
X85094Y-50308D01*
X85095Y-50191D01*
X85050Y-50083D01*
X84967Y-50000D01*
X84952Y-49994D01*
X85936Y-49010D01*
X89950Y-49010D01*
X90030Y-48994D01*
X90098Y-48948D01*
X90748Y-48298D01*
X90748Y-48298D01*
X90748Y-48298D01*
X90794Y-48230D01*
X90794Y-48230D01*
X90810Y-48150D01*
X90810Y-48106D01*
X90901Y-48198D01*
X90901Y-48198D01*
X90942Y-48225D01*
X90969Y-48244D01*
X90969Y-48244D01*
X91050Y-48260D01*
X92592Y-48260D01*
X92632Y-48299D01*
X92741Y-48344D01*
X92858Y-48345D01*
X92966Y-48300D01*
X93049Y-48217D01*
X93094Y-48108D01*
X93095Y-47991D01*
X93050Y-47883D01*
X92967Y-47800D01*
X92858Y-47755D01*
X92845Y-47755D01*
X92845Y-47741D01*
X92800Y-47633D01*
X92717Y-47550D01*
X92608Y-47505D01*
X92491Y-47504D01*
X92383Y-47549D01*
X92300Y-47632D01*
X92297Y-47640D01*
X91844Y-47640D01*
X91845Y-47541D01*
X91805Y-47445D01*
X91858Y-47445D01*
X91966Y-47400D01*
X92049Y-47317D01*
X92094Y-47208D01*
X92095Y-47091D01*
X92050Y-46983D01*
X91974Y-46907D01*
X91994Y-46858D01*
X91995Y-46741D01*
X91950Y-46633D01*
X91874Y-46557D01*
X91894Y-46508D01*
X91895Y-46391D01*
X91861Y-46310D01*
X92017Y-46310D01*
X92005Y-46341D01*
X92004Y-46458D01*
X92049Y-46566D01*
X92057Y-46574D01*
X92050Y-46582D01*
X92005Y-46691D01*
X92004Y-46808D01*
X92049Y-46916D01*
X92132Y-46999D01*
X92241Y-47044D01*
X92358Y-47045D01*
X92466Y-47000D01*
X92549Y-46917D01*
X92594Y-46808D01*
X92595Y-46691D01*
X92550Y-46583D01*
X92542Y-46575D01*
X92549Y-46567D01*
X92594Y-46458D01*
X92595Y-46341D01*
X92550Y-46233D01*
X92467Y-46150D01*
X92417Y-46129D01*
X92600Y-45946D01*
X93557Y-45946D01*
X93298Y-46204D01*
X93241Y-46204D01*
X93133Y-46249D01*
X93050Y-46332D01*
X93005Y-46441D01*
X93004Y-46558D01*
X93049Y-46666D01*
X93132Y-46749D01*
X93241Y-46794D01*
X93254Y-46794D01*
X93254Y-46808D01*
X93299Y-46916D01*
X93382Y-46999D01*
X93491Y-47044D01*
X93504Y-47044D01*
X93504Y-47058D01*
X93549Y-47166D01*
X93632Y-47249D01*
X93741Y-47294D01*
X93754Y-47294D01*
X93754Y-47308D01*
X93799Y-47416D01*
X93882Y-47499D01*
X93991Y-47544D01*
X94004Y-47544D01*
X94004Y-47558D01*
X94049Y-47666D01*
X94132Y-47749D01*
X94241Y-47794D01*
X94254Y-47794D01*
X94254Y-47808D01*
X94299Y-47916D01*
X94382Y-47999D01*
X94491Y-48044D01*
X94504Y-48044D01*
X94504Y-48058D01*
X94549Y-48166D01*
X94632Y-48249D01*
X94741Y-48294D01*
X94754Y-48294D01*
X94754Y-48308D01*
X94799Y-48416D01*
X94882Y-48499D01*
X94991Y-48544D01*
X95108Y-48545D01*
X95216Y-48500D01*
X95299Y-48417D01*
X95344Y-48308D01*
X95344Y-48260D01*
X96205Y-48260D01*
X96204Y-48358D01*
X96249Y-48466D01*
X96332Y-48549D01*
X96441Y-48594D01*
X96454Y-48594D01*
X96454Y-48604D01*
X96441Y-48604D01*
X96333Y-48649D01*
X96250Y-48732D01*
X96205Y-48841D01*
X96204Y-48958D01*
X96249Y-49066D01*
X96332Y-49149D01*
X96417Y-49185D01*
X96383Y-49199D01*
X96300Y-49282D01*
X96255Y-49391D01*
X96254Y-49508D01*
X96289Y-49592D01*
X96250Y-49632D01*
X96205Y-49741D01*
X96204Y-49858D01*
X96249Y-49966D01*
X96332Y-50049D01*
X96441Y-50094D01*
X96558Y-50095D01*
X96666Y-50050D01*
X96735Y-49981D01*
X96749Y-50016D01*
X96832Y-50099D01*
X96941Y-50144D01*
X97058Y-50145D01*
X97166Y-50100D01*
X97249Y-50017D01*
X97294Y-49908D01*
X97295Y-49791D01*
X97250Y-49683D01*
X97167Y-49600D01*
X97058Y-49555D01*
X96941Y-49554D01*
X96833Y-49599D01*
X96764Y-49668D01*
X96760Y-49657D01*
X96799Y-49617D01*
X96844Y-49508D01*
X96845Y-49429D01*
X96916Y-49400D01*
X96999Y-49317D01*
X97044Y-49208D01*
X97045Y-49091D01*
X97000Y-48983D01*
X96917Y-48900D01*
X96808Y-48855D01*
X96795Y-48855D01*
X96795Y-48845D01*
X96808Y-48845D01*
X96916Y-48800D01*
X96999Y-48717D01*
X97044Y-48608D01*
X97045Y-48491D01*
X97000Y-48383D01*
X96917Y-48300D01*
X96820Y-48260D01*
X97463Y-48260D01*
X97954Y-48751D01*
X97954Y-48808D01*
X97999Y-48916D01*
X98082Y-48999D01*
X98191Y-49044D01*
X98308Y-49045D01*
X98416Y-49000D01*
X98499Y-48917D01*
X98544Y-48808D01*
X98545Y-48691D01*
X98500Y-48583D01*
X98492Y-48575D01*
X98499Y-48567D01*
X98544Y-48458D01*
X98545Y-48341D01*
X98500Y-48233D01*
X98492Y-48225D01*
X98499Y-48217D01*
X98544Y-48108D01*
X98545Y-47991D01*
X98500Y-47883D01*
X98492Y-47875D01*
X98499Y-47867D01*
X98544Y-47758D01*
X98545Y-47641D01*
X98500Y-47533D01*
X98492Y-47525D01*
X98499Y-47517D01*
X98544Y-47408D01*
X98545Y-47291D01*
X98500Y-47183D01*
X98492Y-47175D01*
X98499Y-47167D01*
X98544Y-47058D01*
X98545Y-46941D01*
X98500Y-46833D01*
X98492Y-46825D01*
X98499Y-46817D01*
X98544Y-46708D01*
X98545Y-46591D01*
X98500Y-46483D01*
X98492Y-46475D01*
X98499Y-46467D01*
X98544Y-46358D01*
X98545Y-46259D01*
X98566Y-46250D01*
X98624Y-46192D01*
X98632Y-46199D01*
X98741Y-46244D01*
X98858Y-46245D01*
X98966Y-46200D01*
X99049Y-46117D01*
X99094Y-46008D01*
X99095Y-45891D01*
X99050Y-45783D01*
X98967Y-45700D01*
X98858Y-45655D01*
X98791Y-45654D01*
X99374Y-45072D01*
X101048Y-45072D01*
X101030Y-45116D01*
X101029Y-45183D01*
X101029Y-45783D01*
X101055Y-45846D01*
X101103Y-45894D01*
X101166Y-45919D01*
X101233Y-45920D01*
X101833Y-45920D01*
X101896Y-45894D01*
X101944Y-45846D01*
X101969Y-45783D01*
X101970Y-45716D01*
X101970Y-45116D01*
X101944Y-45053D01*
X101896Y-45005D01*
X101833Y-44980D01*
X101816Y-44980D01*
X101901Y-44895D01*
X101958Y-44895D01*
X102066Y-44850D01*
X102149Y-44767D01*
X102194Y-44658D01*
X102195Y-44541D01*
X102195Y-45090D01*
X102101Y-45183D01*
X102030Y-45356D01*
X102029Y-45543D01*
X102101Y-45715D01*
X102233Y-45848D01*
X102406Y-45919D01*
X102593Y-45920D01*
X102765Y-45848D01*
X102898Y-45716D01*
X102969Y-45543D01*
X102970Y-45356D01*
X102970Y-46356D01*
X102898Y-46184D01*
X102766Y-46051D01*
X102593Y-45980D01*
X102406Y-45979D01*
X102234Y-46051D01*
X102101Y-46183D01*
X102030Y-46356D01*
X102029Y-46543D01*
X102079Y-46663D01*
X102058Y-46655D01*
X101941Y-46654D01*
X101920Y-46663D01*
X101969Y-46543D01*
X101970Y-46356D01*
X101898Y-46184D01*
X101766Y-46051D01*
X101593Y-45980D01*
X101406Y-45979D01*
X101234Y-46051D01*
X101101Y-46183D01*
X101030Y-46356D01*
X101029Y-46543D01*
X101101Y-46715D01*
X101233Y-46848D01*
X101406Y-46919D01*
X101593Y-46920D01*
X101713Y-46870D01*
X101705Y-46891D01*
X101704Y-47008D01*
X101713Y-47029D01*
X101593Y-46980D01*
X101406Y-46979D01*
X101234Y-47051D01*
X101101Y-47183D01*
X101030Y-47356D01*
X101029Y-47543D01*
X101101Y-47715D01*
X101233Y-47848D01*
X101406Y-47919D01*
X101593Y-47920D01*
X101765Y-47848D01*
X101898Y-47716D01*
X101969Y-47543D01*
X101970Y-47356D01*
X101920Y-47236D01*
X101941Y-47244D01*
X102058Y-47245D01*
X102079Y-47236D01*
X102030Y-47356D01*
X102029Y-47543D01*
X102101Y-47715D01*
X102233Y-47848D01*
X102406Y-47919D01*
X102593Y-47920D01*
X102765Y-47848D01*
X102898Y-47716D01*
X102969Y-47543D01*
X102970Y-47356D01*
X102970Y-48356D01*
X102898Y-48184D01*
X102766Y-48051D01*
X102593Y-47980D01*
X102406Y-47979D01*
X102234Y-48051D01*
X102101Y-48183D01*
X102030Y-48356D01*
X102029Y-48543D01*
X102101Y-48715D01*
X102233Y-48848D01*
X102406Y-48919D01*
X102593Y-48920D01*
X102765Y-48848D01*
X102898Y-48716D01*
X102969Y-48543D01*
X102970Y-48356D01*
X102970Y-49356D01*
X102898Y-49184D01*
X102766Y-49051D01*
X102593Y-48980D01*
X102406Y-48979D01*
X102234Y-49051D01*
X102101Y-49183D01*
X102030Y-49356D01*
X102029Y-49543D01*
X102101Y-49715D01*
X102233Y-49848D01*
X102406Y-49919D01*
X102593Y-49920D01*
X102765Y-49848D01*
X102898Y-49716D01*
X102969Y-49543D01*
X102970Y-49356D01*
X102970Y-50356D01*
X102898Y-50184D01*
X102766Y-50051D01*
X102593Y-49980D01*
X102406Y-49979D01*
X102234Y-50051D01*
X102101Y-50183D01*
X102030Y-50356D01*
X102029Y-50543D01*
X102101Y-50715D01*
X102233Y-50848D01*
X102406Y-50919D01*
X102593Y-50920D01*
X102765Y-50848D01*
X102898Y-50716D01*
X102969Y-50543D01*
X102970Y-50356D01*
X102970Y-51356D01*
X102898Y-51184D01*
X102766Y-51051D01*
X102593Y-50980D01*
X102406Y-50979D01*
X102234Y-51051D01*
X102101Y-51183D01*
X102030Y-51356D01*
X102029Y-51543D01*
X102101Y-51715D01*
X102233Y-51848D01*
X102406Y-51919D01*
X102593Y-51920D01*
X102765Y-51848D01*
X102898Y-51716D01*
X102969Y-51543D01*
X102970Y-51356D01*
X102970Y-52356D01*
X102898Y-52184D01*
X102766Y-52051D01*
X102593Y-51980D01*
X102406Y-51979D01*
X102234Y-52051D01*
X102101Y-52183D01*
X102030Y-52356D01*
X102029Y-52543D01*
X102101Y-52715D01*
X102233Y-52848D01*
X102406Y-52919D01*
X102593Y-52920D01*
X102765Y-52848D01*
X102898Y-52716D01*
X102969Y-52543D01*
X102970Y-52356D01*
X102970Y-53356D01*
X102898Y-53184D01*
X102766Y-53051D01*
X102593Y-52980D01*
X102406Y-52979D01*
X102234Y-53051D01*
X102101Y-53183D01*
X102030Y-53356D01*
X102029Y-53543D01*
X102101Y-53715D01*
X102233Y-53848D01*
X102406Y-53919D01*
X102593Y-53920D01*
X102765Y-53848D01*
X102898Y-53716D01*
X102969Y-53543D01*
X102970Y-53356D01*
X102970Y-54356D01*
X102898Y-54184D01*
X102766Y-54051D01*
X102593Y-53980D01*
X102406Y-53979D01*
X102234Y-54051D01*
X102101Y-54183D01*
X102030Y-54356D01*
X102029Y-54543D01*
X102101Y-54715D01*
X102233Y-54848D01*
X102406Y-54919D01*
X102593Y-54920D01*
X102765Y-54848D01*
X102898Y-54716D01*
X102969Y-54543D01*
X102970Y-54356D01*
X102970Y-58705D01*
X102897Y-58705D01*
X102897Y-57881D01*
X102897Y-56181D01*
X102886Y-55963D01*
X102824Y-55812D01*
X102728Y-55784D01*
X102658Y-55855D01*
X102658Y-55714D01*
X102630Y-55618D01*
X102424Y-55545D01*
X102206Y-55556D01*
X102055Y-55618D01*
X102027Y-55714D01*
X102343Y-56029D01*
X102658Y-55714D01*
X102658Y-55855D01*
X102413Y-56100D01*
X102728Y-56415D01*
X102824Y-56387D01*
X102897Y-56181D01*
X102897Y-57881D01*
X102886Y-57663D01*
X102824Y-57512D01*
X102728Y-57484D01*
X102658Y-57555D01*
X102658Y-57414D01*
X102658Y-56485D01*
X102343Y-56170D01*
X102272Y-56241D01*
X102272Y-56100D01*
X101970Y-55797D01*
X101970Y-54356D01*
X101970Y-53356D01*
X101970Y-52356D01*
X101970Y-51356D01*
X101970Y-50356D01*
X101970Y-49356D01*
X101970Y-48356D01*
X101898Y-48184D01*
X101766Y-48051D01*
X101593Y-47980D01*
X101406Y-47979D01*
X101234Y-48051D01*
X101101Y-48183D01*
X101030Y-48356D01*
X101029Y-48543D01*
X101101Y-48715D01*
X101233Y-48848D01*
X101406Y-48919D01*
X101593Y-48920D01*
X101765Y-48848D01*
X101898Y-48716D01*
X101969Y-48543D01*
X101970Y-48356D01*
X101970Y-49356D01*
X101898Y-49184D01*
X101766Y-49051D01*
X101593Y-48980D01*
X101406Y-48979D01*
X101234Y-49051D01*
X101101Y-49183D01*
X101030Y-49356D01*
X101029Y-49543D01*
X101101Y-49715D01*
X101233Y-49848D01*
X101406Y-49919D01*
X101593Y-49920D01*
X101765Y-49848D01*
X101898Y-49716D01*
X101969Y-49543D01*
X101970Y-49356D01*
X101970Y-50356D01*
X101898Y-50184D01*
X101766Y-50051D01*
X101593Y-49980D01*
X101406Y-49979D01*
X101234Y-50051D01*
X101101Y-50183D01*
X101030Y-50356D01*
X101029Y-50543D01*
X101101Y-50715D01*
X101233Y-50848D01*
X101406Y-50919D01*
X101593Y-50920D01*
X101765Y-50848D01*
X101898Y-50716D01*
X101969Y-50543D01*
X101970Y-50356D01*
X101970Y-51356D01*
X101898Y-51184D01*
X101766Y-51051D01*
X101593Y-50980D01*
X101406Y-50979D01*
X101234Y-51051D01*
X101101Y-51183D01*
X101030Y-51356D01*
X101029Y-51543D01*
X101101Y-51715D01*
X101233Y-51848D01*
X101406Y-51919D01*
X101593Y-51920D01*
X101765Y-51848D01*
X101898Y-51716D01*
X101969Y-51543D01*
X101970Y-51356D01*
X101970Y-52356D01*
X101898Y-52184D01*
X101766Y-52051D01*
X101593Y-51980D01*
X101406Y-51979D01*
X101234Y-52051D01*
X101101Y-52183D01*
X101030Y-52356D01*
X101029Y-52543D01*
X101101Y-52715D01*
X101233Y-52848D01*
X101406Y-52919D01*
X101593Y-52920D01*
X101765Y-52848D01*
X101898Y-52716D01*
X101969Y-52543D01*
X101970Y-52356D01*
X101970Y-53356D01*
X101898Y-53184D01*
X101766Y-53051D01*
X101593Y-52980D01*
X101406Y-52979D01*
X101234Y-53051D01*
X101101Y-53183D01*
X101030Y-53356D01*
X101029Y-53543D01*
X101101Y-53715D01*
X101233Y-53848D01*
X101406Y-53919D01*
X101593Y-53920D01*
X101765Y-53848D01*
X101898Y-53716D01*
X101969Y-53543D01*
X101970Y-53356D01*
X101970Y-54356D01*
X101898Y-54184D01*
X101766Y-54051D01*
X101593Y-53980D01*
X101406Y-53979D01*
X101234Y-54051D01*
X101101Y-54183D01*
X101030Y-54356D01*
X101029Y-54543D01*
X101101Y-54715D01*
X101233Y-54848D01*
X101406Y-54919D01*
X101593Y-54920D01*
X101765Y-54848D01*
X101898Y-54716D01*
X101969Y-54543D01*
X101970Y-54356D01*
X101970Y-55797D01*
X101957Y-55784D01*
X101861Y-55812D01*
X101788Y-56018D01*
X101799Y-56236D01*
X101861Y-56387D01*
X101957Y-56415D01*
X102272Y-56100D01*
X102272Y-56241D01*
X102027Y-56485D01*
X102055Y-56581D01*
X102261Y-56654D01*
X102479Y-56643D01*
X102630Y-56581D01*
X102658Y-56485D01*
X102658Y-57414D01*
X102630Y-57318D01*
X102424Y-57245D01*
X102206Y-57256D01*
X102055Y-57318D01*
X102027Y-57414D01*
X102343Y-57729D01*
X102658Y-57414D01*
X102658Y-57555D01*
X102413Y-57800D01*
X102728Y-58115D01*
X102824Y-58087D01*
X102897Y-57881D01*
X102897Y-58705D01*
X102658Y-58705D01*
X102658Y-58185D01*
X102343Y-57870D01*
X102272Y-57941D01*
X102272Y-57800D01*
X101957Y-57484D01*
X101861Y-57512D01*
X101788Y-57718D01*
X101799Y-57936D01*
X101861Y-58087D01*
X101957Y-58115D01*
X102272Y-57800D01*
X102272Y-57941D01*
X102027Y-58185D01*
X102055Y-58281D01*
X102261Y-58354D01*
X102479Y-58343D01*
X102630Y-58281D01*
X102658Y-58185D01*
X102658Y-58705D01*
X100727Y-58705D01*
X100727Y-57706D01*
X100727Y-56006D01*
X100655Y-55834D01*
X100523Y-55701D01*
X100350Y-55630D01*
X100245Y-55629D01*
X100245Y-49941D01*
X100200Y-49833D01*
X100117Y-49750D01*
X100008Y-49705D01*
X99891Y-49704D01*
X99783Y-49749D01*
X99722Y-49810D01*
X99722Y-49138D01*
X99722Y-47062D01*
X99706Y-46981D01*
X99706Y-46981D01*
X99694Y-46965D01*
X99695Y-46891D01*
X99650Y-46783D01*
X99567Y-46700D01*
X99458Y-46655D01*
X99341Y-46654D01*
X99233Y-46699D01*
X99225Y-46707D01*
X99217Y-46700D01*
X99108Y-46655D01*
X98991Y-46654D01*
X98883Y-46699D01*
X98800Y-46782D01*
X98755Y-46891D01*
X98754Y-47008D01*
X98799Y-47116D01*
X98882Y-47199D01*
X98991Y-47244D01*
X99048Y-47244D01*
X99140Y-47336D01*
X99140Y-47655D01*
X99041Y-47654D01*
X98933Y-47699D01*
X98850Y-47782D01*
X98805Y-47891D01*
X98804Y-48008D01*
X98849Y-48116D01*
X98932Y-48199D01*
X99041Y-48244D01*
X99140Y-48245D01*
X99140Y-48655D01*
X99041Y-48654D01*
X98933Y-48699D01*
X98850Y-48782D01*
X98805Y-48891D01*
X98805Y-48948D01*
X98053Y-49699D01*
X98007Y-49767D01*
X97992Y-49848D01*
X97992Y-52511D01*
X97545Y-52957D01*
X97545Y-52141D01*
X97500Y-52033D01*
X97417Y-51950D01*
X97308Y-51905D01*
X97191Y-51904D01*
X97145Y-51924D01*
X97145Y-50891D01*
X97100Y-50783D01*
X97017Y-50700D01*
X96908Y-50655D01*
X96844Y-50654D01*
X96845Y-50591D01*
X96800Y-50483D01*
X96717Y-50400D01*
X96608Y-50355D01*
X96491Y-50354D01*
X96383Y-50399D01*
X96325Y-50457D01*
X96317Y-50450D01*
X96208Y-50405D01*
X96109Y-50404D01*
X96100Y-50383D01*
X96017Y-50300D01*
X95908Y-50255D01*
X95791Y-50254D01*
X95683Y-50299D01*
X95600Y-50382D01*
X95555Y-50491D01*
X95554Y-50608D01*
X95599Y-50716D01*
X95682Y-50799D01*
X95791Y-50844D01*
X95890Y-50845D01*
X95899Y-50866D01*
X95982Y-50949D01*
X96091Y-50994D01*
X96208Y-50995D01*
X96316Y-50950D01*
X96374Y-50892D01*
X96382Y-50899D01*
X96491Y-50944D01*
X96555Y-50945D01*
X96554Y-50990D01*
X96533Y-50999D01*
X96450Y-51082D01*
X96440Y-51105D01*
X96341Y-51104D01*
X96233Y-51149D01*
X96150Y-51232D01*
X96105Y-51341D01*
X96104Y-51458D01*
X96149Y-51566D01*
X96232Y-51649D01*
X96341Y-51694D01*
X96458Y-51695D01*
X96566Y-51650D01*
X96649Y-51567D01*
X96659Y-51544D01*
X96758Y-51545D01*
X96866Y-51500D01*
X96949Y-51417D01*
X96994Y-51308D01*
X96995Y-51209D01*
X97016Y-51200D01*
X97099Y-51117D01*
X97144Y-51008D01*
X97145Y-50891D01*
X97145Y-51924D01*
X97083Y-51949D01*
X97000Y-52032D01*
X96955Y-52141D01*
X96954Y-52258D01*
X96999Y-52366D01*
X97082Y-52449D01*
X97191Y-52494D01*
X97308Y-52495D01*
X97416Y-52450D01*
X97499Y-52367D01*
X97544Y-52258D01*
X97545Y-52141D01*
X97545Y-52957D01*
X95825Y-54678D01*
X93737Y-54678D01*
X93744Y-54658D01*
X93745Y-54541D01*
X93700Y-54433D01*
X93617Y-54350D01*
X93508Y-54305D01*
X93391Y-54304D01*
X93283Y-54349D01*
X93200Y-54432D01*
X93155Y-54541D01*
X93154Y-54658D01*
X93163Y-54678D01*
X89245Y-54678D01*
X89245Y-50491D01*
X89200Y-50383D01*
X89117Y-50300D01*
X89008Y-50255D01*
X88891Y-50254D01*
X88783Y-50299D01*
X88775Y-50307D01*
X88767Y-50300D01*
X88658Y-50255D01*
X88541Y-50254D01*
X88433Y-50299D01*
X88425Y-50307D01*
X88417Y-50300D01*
X88308Y-50255D01*
X88191Y-50254D01*
X88083Y-50299D01*
X88075Y-50307D01*
X88067Y-50300D01*
X87958Y-50255D01*
X87841Y-50254D01*
X87733Y-50299D01*
X87650Y-50382D01*
X87605Y-50491D01*
X87604Y-50608D01*
X87649Y-50716D01*
X87732Y-50799D01*
X87793Y-50825D01*
X87733Y-50849D01*
X87650Y-50932D01*
X87605Y-51041D01*
X87604Y-51158D01*
X87649Y-51266D01*
X87732Y-51349D01*
X87841Y-51394D01*
X87958Y-51395D01*
X88066Y-51350D01*
X88149Y-51267D01*
X88179Y-51194D01*
X88258Y-51195D01*
X88366Y-51150D01*
X88449Y-51067D01*
X88494Y-50958D01*
X88495Y-50841D01*
X88487Y-50822D01*
X88541Y-50844D01*
X88658Y-50845D01*
X88766Y-50800D01*
X88774Y-50792D01*
X88782Y-50799D01*
X88891Y-50844D01*
X89008Y-50845D01*
X89116Y-50800D01*
X89199Y-50717D01*
X89244Y-50608D01*
X89245Y-50491D01*
X89245Y-54678D01*
X88295Y-54678D01*
X88295Y-51691D01*
X88250Y-51583D01*
X88167Y-51500D01*
X88058Y-51455D01*
X87941Y-51454D01*
X87833Y-51499D01*
X87750Y-51582D01*
X87705Y-51691D01*
X87704Y-51808D01*
X87749Y-51916D01*
X87832Y-51999D01*
X87941Y-52044D01*
X88058Y-52045D01*
X88166Y-52000D01*
X88249Y-51917D01*
X88294Y-51808D01*
X88295Y-51691D01*
X88295Y-54678D01*
X87095Y-54678D01*
X87095Y-50691D01*
X87050Y-50583D01*
X86967Y-50500D01*
X86858Y-50455D01*
X86741Y-50454D01*
X86633Y-50499D01*
X86550Y-50582D01*
X86505Y-50691D01*
X86504Y-50808D01*
X86549Y-50916D01*
X86632Y-50999D01*
X86741Y-51044D01*
X86858Y-51045D01*
X86966Y-51000D01*
X87049Y-50917D01*
X87094Y-50808D01*
X87095Y-50691D01*
X87095Y-54678D01*
X86995Y-54678D01*
X86995Y-54141D01*
X86950Y-54033D01*
X86867Y-53950D01*
X86758Y-53905D01*
X86641Y-53904D01*
X86595Y-53924D01*
X86595Y-51191D01*
X86550Y-51083D01*
X86467Y-51000D01*
X86358Y-50955D01*
X86241Y-50954D01*
X86133Y-50999D01*
X86050Y-51082D01*
X86005Y-51191D01*
X86004Y-51308D01*
X86049Y-51416D01*
X86132Y-51499D01*
X86241Y-51544D01*
X86358Y-51545D01*
X86466Y-51500D01*
X86549Y-51417D01*
X86594Y-51308D01*
X86595Y-51191D01*
X86595Y-53924D01*
X86533Y-53949D01*
X86450Y-54032D01*
X86405Y-54141D01*
X86404Y-54258D01*
X86449Y-54366D01*
X86532Y-54449D01*
X86641Y-54494D01*
X86758Y-54495D01*
X86866Y-54450D01*
X86949Y-54367D01*
X86994Y-54258D01*
X86995Y-54141D01*
X86995Y-54678D01*
X86295Y-54678D01*
X86295Y-54291D01*
X86250Y-54183D01*
X86167Y-54100D01*
X86058Y-54055D01*
X86045Y-54055D01*
X86045Y-54041D01*
X86000Y-53933D01*
X85917Y-53850D01*
X85845Y-53820D01*
X85845Y-50241D01*
X85800Y-50133D01*
X85717Y-50050D01*
X85608Y-50005D01*
X85491Y-50004D01*
X85383Y-50049D01*
X85300Y-50132D01*
X85255Y-50241D01*
X85254Y-50358D01*
X85299Y-50466D01*
X85382Y-50549D01*
X85491Y-50594D01*
X85608Y-50595D01*
X85716Y-50550D01*
X85799Y-50467D01*
X85844Y-50358D01*
X85845Y-50241D01*
X85845Y-53820D01*
X85808Y-53805D01*
X85691Y-53804D01*
X85583Y-53849D01*
X85500Y-53932D01*
X85455Y-54041D01*
X85454Y-54158D01*
X85499Y-54266D01*
X85582Y-54349D01*
X85691Y-54394D01*
X85704Y-54394D01*
X85704Y-54408D01*
X85749Y-54516D01*
X85832Y-54599D01*
X85941Y-54644D01*
X86058Y-54645D01*
X86166Y-54600D01*
X86249Y-54517D01*
X86294Y-54408D01*
X86295Y-54291D01*
X86295Y-54678D01*
X85174Y-54678D01*
X84998Y-54501D01*
X84930Y-54455D01*
X84850Y-54440D01*
X84377Y-54440D01*
X84399Y-54417D01*
X84444Y-54308D01*
X84445Y-54191D01*
X84445Y-51441D01*
X84400Y-51333D01*
X84317Y-51250D01*
X84208Y-51205D01*
X84091Y-51204D01*
X83983Y-51249D01*
X83942Y-51290D01*
X83927Y-51290D01*
X83949Y-51267D01*
X83994Y-51158D01*
X83995Y-51041D01*
X83950Y-50933D01*
X83867Y-50850D01*
X83758Y-50805D01*
X83641Y-50804D01*
X83533Y-50849D01*
X83525Y-50857D01*
X83517Y-50850D01*
X83408Y-50805D01*
X83291Y-50804D01*
X83183Y-50849D01*
X83100Y-50932D01*
X83055Y-51041D01*
X83054Y-51158D01*
X83099Y-51266D01*
X83182Y-51349D01*
X83291Y-51394D01*
X83408Y-51395D01*
X83516Y-51350D01*
X83524Y-51342D01*
X83532Y-51349D01*
X83617Y-51385D01*
X82913Y-52090D01*
X82844Y-52090D01*
X82845Y-51991D01*
X82800Y-51883D01*
X82792Y-51875D01*
X82799Y-51867D01*
X82844Y-51758D01*
X82845Y-51641D01*
X82800Y-51533D01*
X82792Y-51525D01*
X82799Y-51517D01*
X82844Y-51408D01*
X82845Y-51291D01*
X82800Y-51183D01*
X82717Y-51100D01*
X82608Y-51055D01*
X82491Y-51054D01*
X82383Y-51099D01*
X82300Y-51182D01*
X82255Y-51291D01*
X82254Y-51408D01*
X82299Y-51516D01*
X82307Y-51524D01*
X82300Y-51532D01*
X82255Y-51641D01*
X82255Y-51694D01*
X82250Y-51683D01*
X82167Y-51600D01*
X82058Y-51555D01*
X81941Y-51554D01*
X81833Y-51599D01*
X81750Y-51682D01*
X81705Y-51791D01*
X81704Y-51908D01*
X81749Y-52016D01*
X81822Y-52090D01*
X80945Y-52090D01*
X80945Y-50791D01*
X80900Y-50683D01*
X80817Y-50600D01*
X80708Y-50555D01*
X80591Y-50554D01*
X80483Y-50599D01*
X80400Y-50682D01*
X80355Y-50791D01*
X80354Y-50908D01*
X80399Y-51016D01*
X80482Y-51099D01*
X80591Y-51144D01*
X80708Y-51145D01*
X80816Y-51100D01*
X80899Y-51017D01*
X80944Y-50908D01*
X80945Y-50791D01*
X80945Y-52090D01*
X80645Y-52090D01*
X80645Y-51441D01*
X80600Y-51333D01*
X80517Y-51250D01*
X80408Y-51205D01*
X80291Y-51204D01*
X80183Y-51249D01*
X80100Y-51332D01*
X80055Y-51441D01*
X80054Y-51558D01*
X80099Y-51666D01*
X80182Y-51749D01*
X80291Y-51794D01*
X80408Y-51795D01*
X80516Y-51750D01*
X80599Y-51667D01*
X80644Y-51558D01*
X80645Y-51441D01*
X80645Y-52090D01*
X79586Y-52090D01*
X79282Y-51785D01*
X79366Y-51750D01*
X79449Y-51667D01*
X79479Y-51594D01*
X79558Y-51595D01*
X79666Y-51550D01*
X79749Y-51467D01*
X79779Y-51394D01*
X79858Y-51395D01*
X79966Y-51350D01*
X80049Y-51267D01*
X80094Y-51158D01*
X80095Y-51041D01*
X80050Y-50933D01*
X80042Y-50925D01*
X80049Y-50917D01*
X80094Y-50808D01*
X80095Y-50691D01*
X80050Y-50583D01*
X79967Y-50500D01*
X79858Y-50455D01*
X79779Y-50454D01*
X79750Y-50383D01*
X79667Y-50300D01*
X79558Y-50255D01*
X79479Y-50254D01*
X79450Y-50183D01*
X79367Y-50100D01*
X79258Y-50055D01*
X79141Y-50054D01*
X79033Y-50099D01*
X78950Y-50182D01*
X78905Y-50291D01*
X78904Y-50408D01*
X78949Y-50516D01*
X79032Y-50599D01*
X79141Y-50644D01*
X79220Y-50645D01*
X79249Y-50716D01*
X79332Y-50799D01*
X79441Y-50844D01*
X79520Y-50845D01*
X79549Y-50916D01*
X79557Y-50924D01*
X79550Y-50932D01*
X79520Y-51005D01*
X79441Y-51004D01*
X79333Y-51049D01*
X79250Y-51132D01*
X79220Y-51205D01*
X79141Y-51204D01*
X79033Y-51249D01*
X78950Y-51332D01*
X78914Y-51417D01*
X78395Y-50898D01*
X78395Y-49741D01*
X78350Y-49633D01*
X78267Y-49550D01*
X78158Y-49505D01*
X78041Y-49504D01*
X77933Y-49549D01*
X77850Y-49632D01*
X77805Y-49741D01*
X77804Y-49858D01*
X77849Y-49966D01*
X77932Y-50049D01*
X78041Y-50094D01*
X78158Y-50095D01*
X78266Y-50050D01*
X78349Y-49967D01*
X78394Y-49858D01*
X78395Y-49741D01*
X78395Y-50898D01*
X78295Y-50798D01*
X78295Y-50741D01*
X78250Y-50633D01*
X78167Y-50550D01*
X78058Y-50505D01*
X77941Y-50504D01*
X77833Y-50549D01*
X77750Y-50632D01*
X77705Y-50741D01*
X77704Y-50858D01*
X77749Y-50966D01*
X77782Y-50999D01*
X77750Y-51032D01*
X77705Y-51141D01*
X77704Y-51258D01*
X77749Y-51366D01*
X77832Y-51449D01*
X77941Y-51494D01*
X77998Y-51494D01*
X79151Y-52648D01*
X79219Y-52694D01*
X79300Y-52710D01*
X83150Y-52710D01*
X83230Y-52694D01*
X83298Y-52648D01*
X83901Y-52045D01*
X83958Y-52045D01*
X84066Y-52000D01*
X84149Y-51917D01*
X84194Y-51808D01*
X84194Y-51795D01*
X84208Y-51795D01*
X84316Y-51750D01*
X84399Y-51667D01*
X84444Y-51558D01*
X84445Y-51441D01*
X84445Y-54191D01*
X84400Y-54083D01*
X84317Y-54000D01*
X84208Y-53955D01*
X84091Y-53954D01*
X83983Y-53999D01*
X83900Y-54082D01*
X83855Y-54191D01*
X83854Y-54308D01*
X83899Y-54416D01*
X83922Y-54440D01*
X83123Y-54440D01*
X83100Y-54383D01*
X83017Y-54300D01*
X82908Y-54255D01*
X82791Y-54254D01*
X82683Y-54299D01*
X82600Y-54382D01*
X82555Y-54491D01*
X82554Y-54608D01*
X82599Y-54716D01*
X82682Y-54799D01*
X82791Y-54844D01*
X82874Y-54845D01*
X82874Y-54845D01*
X82950Y-54860D01*
X84455Y-54860D01*
X84454Y-54958D01*
X84499Y-55066D01*
X84582Y-55149D01*
X84691Y-55194D01*
X84748Y-55194D01*
X84751Y-55198D01*
X84751Y-55198D01*
X84792Y-55225D01*
X84819Y-55244D01*
X84819Y-55244D01*
X84900Y-55260D01*
X87955Y-55260D01*
X87954Y-55324D01*
X87908Y-55305D01*
X87791Y-55304D01*
X87683Y-55349D01*
X87600Y-55432D01*
X87555Y-55540D01*
X85807Y-55540D01*
X85767Y-55500D01*
X85658Y-55455D01*
X85541Y-55454D01*
X85433Y-55499D01*
X85350Y-55582D01*
X85340Y-55605D01*
X85241Y-55604D01*
X85133Y-55649D01*
X85125Y-55657D01*
X85117Y-55650D01*
X85008Y-55605D01*
X84891Y-55604D01*
X84783Y-55649D01*
X84700Y-55732D01*
X84655Y-55841D01*
X84654Y-55958D01*
X84699Y-56066D01*
X84782Y-56149D01*
X84891Y-56194D01*
X85008Y-56195D01*
X85116Y-56150D01*
X85124Y-56142D01*
X85132Y-56149D01*
X85241Y-56194D01*
X85358Y-56195D01*
X85466Y-56150D01*
X85549Y-56067D01*
X85559Y-56044D01*
X85658Y-56045D01*
X85766Y-56000D01*
X85807Y-55960D01*
X87554Y-55960D01*
X87554Y-56008D01*
X87599Y-56116D01*
X87682Y-56199D01*
X87791Y-56244D01*
X87908Y-56245D01*
X88016Y-56200D01*
X88025Y-56191D01*
X88005Y-56241D01*
X88004Y-56358D01*
X88049Y-56466D01*
X88132Y-56549D01*
X88241Y-56594D01*
X88358Y-56595D01*
X88466Y-56550D01*
X88549Y-56467D01*
X88594Y-56358D01*
X88595Y-56260D01*
X96000Y-56260D01*
X96080Y-56244D01*
X96148Y-56198D01*
X99101Y-53245D01*
X99158Y-53245D01*
X99266Y-53200D01*
X99349Y-53117D01*
X99394Y-53008D01*
X99395Y-52891D01*
X99350Y-52783D01*
X99267Y-52700D01*
X99158Y-52655D01*
X99060Y-52654D01*
X99060Y-52286D01*
X99101Y-52245D01*
X99158Y-52245D01*
X99266Y-52200D01*
X99349Y-52117D01*
X99394Y-52008D01*
X99395Y-51891D01*
X99350Y-51783D01*
X99267Y-51700D01*
X99158Y-51655D01*
X99041Y-51654D01*
X98933Y-51699D01*
X98898Y-51734D01*
X98898Y-51165D01*
X98932Y-51199D01*
X99041Y-51244D01*
X99158Y-51245D01*
X99266Y-51200D01*
X99349Y-51117D01*
X99394Y-51008D01*
X99395Y-50891D01*
X99350Y-50783D01*
X99267Y-50700D01*
X99158Y-50655D01*
X99041Y-50654D01*
X98933Y-50699D01*
X98898Y-50734D01*
X98898Y-50448D01*
X99101Y-50245D01*
X99158Y-50245D01*
X99266Y-50200D01*
X99349Y-50117D01*
X99394Y-50008D01*
X99395Y-49891D01*
X99350Y-49783D01*
X99267Y-49700D01*
X99252Y-49694D01*
X99660Y-49286D01*
X99706Y-49218D01*
X99722Y-49138D01*
X99722Y-49810D01*
X99700Y-49832D01*
X99655Y-49941D01*
X99654Y-50058D01*
X99699Y-50166D01*
X99782Y-50249D01*
X99891Y-50294D01*
X100008Y-50295D01*
X100116Y-50250D01*
X100199Y-50167D01*
X100244Y-50058D01*
X100245Y-49941D01*
X100245Y-55629D01*
X100163Y-55629D01*
X99991Y-55701D01*
X99858Y-55833D01*
X99787Y-56006D01*
X99786Y-56193D01*
X99858Y-56365D01*
X99990Y-56498D01*
X100163Y-56569D01*
X100350Y-56570D01*
X100522Y-56498D01*
X100655Y-56366D01*
X100726Y-56193D01*
X100727Y-56006D01*
X100727Y-57706D01*
X100655Y-57534D01*
X100523Y-57401D01*
X100350Y-57330D01*
X100163Y-57329D01*
X99991Y-57401D01*
X99858Y-57533D01*
X99787Y-57706D01*
X99786Y-57893D01*
X99858Y-58065D01*
X99990Y-58198D01*
X100163Y-58269D01*
X100350Y-58270D01*
X100522Y-58198D01*
X100655Y-58066D01*
X100726Y-57893D01*
X100727Y-57706D01*
X100727Y-58705D01*
X99695Y-58705D01*
X99695Y-54891D01*
X99650Y-54783D01*
X99567Y-54700D01*
X99458Y-54655D01*
X99395Y-54654D01*
X99395Y-53891D01*
X99350Y-53783D01*
X99267Y-53700D01*
X99158Y-53655D01*
X99041Y-53654D01*
X98933Y-53699D01*
X98850Y-53782D01*
X98805Y-53891D01*
X98804Y-54008D01*
X98849Y-54116D01*
X98932Y-54199D01*
X99041Y-54244D01*
X99158Y-54245D01*
X99266Y-54200D01*
X99349Y-54117D01*
X99394Y-54008D01*
X99395Y-53891D01*
X99395Y-54654D01*
X99341Y-54654D01*
X99233Y-54699D01*
X99150Y-54782D01*
X99105Y-54891D01*
X99104Y-55008D01*
X99149Y-55116D01*
X99232Y-55199D01*
X99341Y-55244D01*
X99458Y-55245D01*
X99566Y-55200D01*
X99649Y-55117D01*
X99694Y-55008D01*
X99695Y-54891D01*
X99695Y-58705D01*
X99433Y-58705D01*
X99446Y-58685D01*
X99476Y-58614D01*
X99476Y-58614D01*
X99476Y-58614D01*
X99491Y-58538D01*
X99491Y-58538D01*
X99491Y-58538D01*
X99491Y-58537D01*
X99491Y-58500D01*
X99491Y-58462D01*
X99491Y-58461D01*
X99491Y-58461D01*
X99491Y-58461D01*
X99476Y-58385D01*
X99476Y-58385D01*
X99476Y-58385D01*
X99446Y-58314D01*
X99403Y-58250D01*
X99349Y-58196D01*
X99349Y-58196D01*
X99285Y-58153D01*
X99284Y-58153D01*
X99284Y-58152D01*
X99214Y-58123D01*
X99137Y-58108D01*
X99061Y-58108D01*
X99061Y-58108D01*
X98985Y-58123D01*
X98985Y-58123D01*
X98985Y-58123D01*
X98914Y-58153D01*
X98850Y-58196D01*
X98796Y-58250D01*
X98796Y-58250D01*
X98753Y-58314D01*
X98753Y-58315D01*
X98752Y-58315D01*
X98723Y-58385D01*
X98708Y-58462D01*
X98708Y-58500D01*
X98708Y-58537D01*
X98708Y-58538D01*
X98723Y-58614D01*
X98752Y-58684D01*
X98753Y-58684D01*
X98753Y-58685D01*
X98766Y-58705D01*
X98545Y-58705D01*
X98545Y-57291D01*
X98500Y-57183D01*
X98417Y-57100D01*
X98308Y-57055D01*
X98191Y-57054D01*
X98083Y-57099D01*
X98000Y-57182D01*
X97955Y-57291D01*
X97954Y-57408D01*
X97999Y-57516D01*
X98082Y-57599D01*
X98191Y-57644D01*
X98308Y-57645D01*
X98416Y-57600D01*
X98499Y-57517D01*
X98544Y-57408D01*
X98545Y-57291D01*
X98545Y-58705D01*
X97395Y-58705D01*
X97395Y-57091D01*
X97350Y-56983D01*
X97267Y-56900D01*
X97158Y-56855D01*
X97041Y-56854D01*
X96933Y-56899D01*
X96912Y-56920D01*
X96892Y-56900D01*
X96783Y-56855D01*
X96666Y-56854D01*
X96558Y-56899D01*
X96537Y-56920D01*
X96517Y-56900D01*
X96408Y-56855D01*
X96291Y-56854D01*
X96183Y-56899D01*
X96100Y-56982D01*
X96055Y-57091D01*
X96054Y-57208D01*
X96099Y-57316D01*
X96182Y-57399D01*
X96291Y-57444D01*
X96408Y-57445D01*
X96516Y-57400D01*
X96537Y-57379D01*
X96557Y-57399D01*
X96666Y-57444D01*
X96783Y-57445D01*
X96891Y-57400D01*
X96912Y-57379D01*
X96932Y-57399D01*
X97041Y-57444D01*
X97158Y-57445D01*
X97266Y-57400D01*
X97349Y-57317D01*
X97394Y-57208D01*
X97395Y-57091D01*
X97395Y-58705D01*
X95945Y-58705D01*
X95945Y-57091D01*
X95900Y-56983D01*
X95817Y-56900D01*
X95708Y-56855D01*
X95591Y-56854D01*
X95483Y-56899D01*
X95400Y-56982D01*
X95355Y-57091D01*
X95354Y-57208D01*
X95399Y-57316D01*
X95482Y-57399D01*
X95591Y-57444D01*
X95708Y-57445D01*
X95816Y-57400D01*
X95899Y-57317D01*
X95944Y-57208D01*
X95945Y-57091D01*
X95945Y-58705D01*
X95245Y-58705D01*
X95245Y-57091D01*
X95200Y-56983D01*
X95117Y-56900D01*
X95008Y-56855D01*
X94891Y-56854D01*
X94783Y-56899D01*
X94700Y-56982D01*
X94655Y-57091D01*
X94654Y-57208D01*
X94699Y-57316D01*
X94782Y-57399D01*
X94891Y-57444D01*
X95008Y-57445D01*
X95116Y-57400D01*
X95199Y-57317D01*
X95244Y-57208D01*
X95245Y-57091D01*
X95245Y-58705D01*
X94545Y-58705D01*
X94545Y-57091D01*
X94500Y-56983D01*
X94417Y-56900D01*
X94308Y-56855D01*
X94191Y-56854D01*
X94083Y-56899D01*
X94000Y-56982D01*
X93955Y-57091D01*
X93954Y-57208D01*
X93999Y-57316D01*
X94082Y-57399D01*
X94191Y-57444D01*
X94308Y-57445D01*
X94416Y-57400D01*
X94499Y-57317D01*
X94544Y-57208D01*
X94545Y-57091D01*
X94545Y-58705D01*
X93845Y-58705D01*
X93845Y-57091D01*
X93800Y-56983D01*
X93717Y-56900D01*
X93608Y-56855D01*
X93491Y-56854D01*
X93383Y-56899D01*
X93362Y-56920D01*
X93342Y-56900D01*
X93233Y-56855D01*
X93116Y-56854D01*
X93008Y-56899D01*
X92987Y-56920D01*
X92967Y-56900D01*
X92858Y-56855D01*
X92741Y-56854D01*
X92633Y-56899D01*
X92612Y-56920D01*
X92592Y-56900D01*
X92483Y-56855D01*
X92366Y-56854D01*
X92258Y-56899D01*
X92237Y-56920D01*
X92217Y-56900D01*
X92108Y-56855D01*
X91991Y-56854D01*
X91883Y-56899D01*
X91800Y-56982D01*
X91755Y-57091D01*
X91754Y-57208D01*
X91799Y-57316D01*
X91882Y-57399D01*
X91991Y-57444D01*
X92108Y-57445D01*
X92216Y-57400D01*
X92237Y-57379D01*
X92257Y-57399D01*
X92366Y-57444D01*
X92483Y-57445D01*
X92591Y-57400D01*
X92612Y-57379D01*
X92632Y-57399D01*
X92741Y-57444D01*
X92858Y-57445D01*
X92966Y-57400D01*
X92987Y-57379D01*
X93007Y-57399D01*
X93116Y-57444D01*
X93233Y-57445D01*
X93341Y-57400D01*
X93362Y-57379D01*
X93382Y-57399D01*
X93491Y-57444D01*
X93608Y-57445D01*
X93716Y-57400D01*
X93799Y-57317D01*
X93844Y-57208D01*
X93845Y-57091D01*
X93845Y-58705D01*
X91645Y-58705D01*
X91645Y-57091D01*
X91600Y-56983D01*
X91517Y-56900D01*
X91408Y-56855D01*
X91291Y-56854D01*
X91183Y-56899D01*
X91100Y-56982D01*
X91055Y-57091D01*
X91054Y-57208D01*
X91099Y-57316D01*
X91182Y-57399D01*
X91291Y-57444D01*
X91408Y-57445D01*
X91516Y-57400D01*
X91599Y-57317D01*
X91644Y-57208D01*
X91645Y-57091D01*
X91645Y-58705D01*
X91125Y-58705D01*
X91144Y-58658D01*
X91145Y-58541D01*
X91100Y-58433D01*
X91017Y-58350D01*
X90908Y-58305D01*
X90791Y-58304D01*
X90683Y-58349D01*
X90600Y-58432D01*
X90555Y-58541D01*
X90554Y-58658D01*
X90574Y-58705D01*
X89345Y-58705D01*
X89345Y-57291D01*
X89300Y-57183D01*
X89217Y-57100D01*
X89108Y-57055D01*
X88991Y-57054D01*
X88883Y-57099D01*
X88800Y-57182D01*
X88755Y-57291D01*
X88754Y-57408D01*
X88799Y-57516D01*
X88882Y-57599D01*
X88991Y-57644D01*
X89108Y-57645D01*
X89216Y-57600D01*
X89299Y-57517D01*
X89344Y-57408D01*
X89345Y-57291D01*
X89345Y-58705D01*
X87445Y-58705D01*
X87445Y-57366D01*
X87400Y-57258D01*
X87317Y-57175D01*
X87208Y-57130D01*
X87091Y-57129D01*
X87045Y-57149D01*
X87045Y-56491D01*
X87000Y-56383D01*
X86917Y-56300D01*
X86808Y-56255D01*
X86691Y-56254D01*
X86583Y-56299D01*
X86500Y-56382D01*
X86455Y-56491D01*
X86454Y-56608D01*
X86499Y-56716D01*
X86582Y-56799D01*
X86691Y-56844D01*
X86808Y-56845D01*
X86916Y-56800D01*
X86999Y-56717D01*
X87044Y-56608D01*
X87045Y-56491D01*
X87045Y-57149D01*
X86983Y-57174D01*
X86900Y-57257D01*
X86855Y-57366D01*
X86854Y-57483D01*
X86899Y-57591D01*
X86982Y-57674D01*
X87091Y-57719D01*
X87208Y-57720D01*
X87316Y-57675D01*
X87399Y-57592D01*
X87444Y-57483D01*
X87445Y-57366D01*
X87445Y-58705D01*
X85595Y-58705D01*
X85595Y-57541D01*
X85550Y-57433D01*
X85467Y-57350D01*
X85358Y-57305D01*
X85241Y-57304D01*
X85133Y-57349D01*
X85050Y-57432D01*
X85005Y-57541D01*
X85004Y-57658D01*
X85049Y-57766D01*
X85132Y-57849D01*
X85241Y-57894D01*
X85358Y-57895D01*
X85466Y-57850D01*
X85549Y-57767D01*
X85594Y-57658D01*
X85595Y-57541D01*
X85595Y-58705D01*
X84795Y-58705D01*
X84795Y-57141D01*
X84750Y-57033D01*
X84667Y-56950D01*
X84558Y-56905D01*
X84441Y-56904D01*
X84345Y-56944D01*
X84345Y-55741D01*
X84300Y-55633D01*
X84217Y-55550D01*
X84144Y-55520D01*
X84145Y-55441D01*
X84100Y-55333D01*
X84017Y-55250D01*
X83908Y-55205D01*
X83791Y-55204D01*
X83742Y-55225D01*
X83667Y-55150D01*
X83558Y-55105D01*
X83441Y-55104D01*
X83333Y-55149D01*
X83325Y-55157D01*
X83317Y-55150D01*
X83208Y-55105D01*
X83091Y-55104D01*
X82983Y-55149D01*
X82975Y-55157D01*
X82967Y-55150D01*
X82858Y-55105D01*
X82741Y-55104D01*
X82633Y-55149D01*
X82625Y-55157D01*
X82617Y-55150D01*
X82508Y-55105D01*
X82391Y-55104D01*
X82283Y-55149D01*
X82200Y-55232D01*
X82155Y-55341D01*
X82154Y-55455D01*
X82041Y-55454D01*
X81933Y-55499D01*
X81850Y-55582D01*
X81805Y-55691D01*
X81804Y-55808D01*
X81849Y-55916D01*
X81932Y-55999D01*
X82041Y-56044D01*
X82158Y-56045D01*
X82266Y-56000D01*
X82274Y-55992D01*
X82282Y-55999D01*
X82391Y-56044D01*
X82508Y-56045D01*
X82616Y-56000D01*
X82699Y-55917D01*
X82744Y-55808D01*
X82745Y-55694D01*
X82858Y-55695D01*
X82966Y-55650D01*
X82974Y-55642D01*
X82982Y-55649D01*
X83091Y-55694D01*
X83208Y-55695D01*
X83316Y-55650D01*
X83324Y-55642D01*
X83332Y-55649D01*
X83441Y-55694D01*
X83558Y-55695D01*
X83607Y-55674D01*
X83682Y-55749D01*
X83755Y-55779D01*
X83754Y-55858D01*
X83799Y-55966D01*
X83882Y-56049D01*
X83991Y-56094D01*
X84108Y-56095D01*
X84216Y-56050D01*
X84299Y-55967D01*
X84344Y-55858D01*
X84345Y-55741D01*
X84345Y-56944D01*
X84333Y-56949D01*
X84250Y-57032D01*
X84205Y-57141D01*
X84204Y-57258D01*
X84249Y-57366D01*
X84332Y-57449D01*
X84441Y-57494D01*
X84558Y-57495D01*
X84666Y-57450D01*
X84749Y-57367D01*
X84794Y-57258D01*
X84795Y-57141D01*
X84795Y-58705D01*
X84195Y-58705D01*
X84195Y-56941D01*
X84150Y-56833D01*
X84067Y-56750D01*
X83958Y-56705D01*
X83841Y-56704D01*
X83733Y-56749D01*
X83650Y-56832D01*
X83605Y-56941D01*
X83604Y-57058D01*
X83649Y-57166D01*
X83732Y-57249D01*
X83841Y-57294D01*
X83958Y-57295D01*
X84066Y-57250D01*
X84149Y-57167D01*
X84194Y-57058D01*
X84195Y-56941D01*
X84195Y-58705D01*
X83245Y-58705D01*
X83245Y-56891D01*
X83200Y-56783D01*
X83117Y-56700D01*
X83008Y-56655D01*
X82891Y-56654D01*
X82783Y-56699D01*
X82700Y-56782D01*
X82655Y-56891D01*
X82654Y-56954D01*
X82641Y-56954D01*
X82533Y-56999D01*
X82525Y-57007D01*
X82517Y-57000D01*
X82408Y-56955D01*
X82291Y-56954D01*
X82183Y-56999D01*
X82100Y-57082D01*
X82055Y-57191D01*
X82054Y-57308D01*
X82099Y-57416D01*
X82182Y-57499D01*
X82291Y-57544D01*
X82408Y-57545D01*
X82516Y-57500D01*
X82524Y-57492D01*
X82532Y-57499D01*
X82641Y-57544D01*
X82758Y-57545D01*
X82866Y-57500D01*
X82949Y-57417D01*
X82994Y-57308D01*
X82995Y-57245D01*
X83008Y-57245D01*
X83116Y-57200D01*
X83199Y-57117D01*
X83244Y-57008D01*
X83245Y-56891D01*
X83245Y-58705D01*
X81695Y-58705D01*
X81695Y-57241D01*
X81650Y-57133D01*
X81567Y-57050D01*
X81458Y-57005D01*
X81341Y-57004D01*
X81233Y-57049D01*
X81225Y-57057D01*
X81217Y-57050D01*
X81108Y-57005D01*
X80991Y-57004D01*
X80883Y-57049D01*
X80875Y-57057D01*
X80867Y-57050D01*
X80758Y-57005D01*
X80641Y-57004D01*
X80533Y-57049D01*
X80457Y-57125D01*
X80408Y-57105D01*
X80291Y-57104D01*
X80183Y-57149D01*
X80175Y-57157D01*
X80167Y-57150D01*
X80058Y-57105D01*
X79975Y-57104D01*
X79994Y-57058D01*
X79995Y-56941D01*
X79950Y-56833D01*
X79867Y-56750D01*
X79758Y-56705D01*
X79641Y-56704D01*
X79533Y-56749D01*
X79450Y-56832D01*
X79405Y-56941D01*
X79404Y-57058D01*
X79449Y-57166D01*
X79532Y-57249D01*
X79641Y-57294D01*
X79724Y-57295D01*
X79705Y-57341D01*
X79704Y-57458D01*
X79749Y-57566D01*
X79832Y-57649D01*
X79941Y-57694D01*
X80058Y-57695D01*
X80166Y-57650D01*
X80174Y-57642D01*
X80182Y-57649D01*
X80291Y-57694D01*
X80408Y-57695D01*
X80516Y-57650D01*
X80592Y-57574D01*
X80641Y-57594D01*
X80758Y-57595D01*
X80866Y-57550D01*
X80874Y-57542D01*
X80882Y-57549D01*
X80991Y-57594D01*
X81108Y-57595D01*
X81216Y-57550D01*
X81224Y-57542D01*
X81232Y-57549D01*
X81341Y-57594D01*
X81458Y-57595D01*
X81566Y-57550D01*
X81649Y-57467D01*
X81694Y-57358D01*
X81695Y-57241D01*
X81695Y-58705D01*
X80235Y-58705D01*
X80263Y-58652D01*
X80263Y-58651D01*
X80286Y-58577D01*
X80294Y-58501D01*
X80294Y-58500D01*
X80286Y-58423D01*
X80264Y-58350D01*
X80264Y-58350D01*
X80227Y-58281D01*
X80179Y-58222D01*
X80179Y-58222D01*
X80119Y-58172D01*
X80052Y-58136D01*
X80051Y-58136D01*
X79977Y-58113D01*
X79901Y-58105D01*
X79901Y-58105D01*
X79823Y-58113D01*
X79750Y-58135D01*
X79750Y-58135D01*
X79681Y-58172D01*
X79622Y-58220D01*
X79622Y-58220D01*
X79572Y-58280D01*
X79536Y-58347D01*
X79536Y-58348D01*
X79513Y-58422D01*
X79505Y-58498D01*
X79513Y-58576D01*
X79535Y-58649D01*
X79535Y-58649D01*
X79564Y-58705D01*
X78845Y-58705D01*
X78845Y-57941D01*
X78845Y-57391D01*
X78819Y-57328D01*
X78771Y-57280D01*
X78708Y-57255D01*
X78641Y-57254D01*
X78395Y-57254D01*
X78395Y-53741D01*
X78350Y-53633D01*
X78267Y-53550D01*
X78158Y-53505D01*
X78041Y-53504D01*
X77933Y-53549D01*
X77850Y-53632D01*
X77805Y-53741D01*
X77804Y-53858D01*
X77849Y-53966D01*
X77932Y-54049D01*
X78041Y-54094D01*
X78158Y-54095D01*
X78266Y-54050D01*
X78349Y-53967D01*
X78394Y-53858D01*
X78395Y-53741D01*
X78395Y-57254D01*
X78295Y-57254D01*
X78295Y-54841D01*
X78250Y-54733D01*
X78167Y-54650D01*
X78058Y-54605D01*
X77941Y-54604D01*
X77833Y-54649D01*
X77750Y-54732D01*
X77705Y-54841D01*
X77704Y-54958D01*
X77749Y-55066D01*
X77832Y-55149D01*
X77941Y-55194D01*
X78058Y-55195D01*
X78166Y-55150D01*
X78249Y-55067D01*
X78294Y-54958D01*
X78295Y-54841D01*
X78295Y-57254D01*
X78091Y-57254D01*
X78028Y-57280D01*
X77980Y-57328D01*
X77955Y-57391D01*
X77954Y-57458D01*
X77954Y-58008D01*
X77980Y-58071D01*
X78028Y-58119D01*
X78091Y-58144D01*
X78158Y-58145D01*
X78708Y-58145D01*
X78771Y-58119D01*
X78819Y-58071D01*
X78844Y-58008D01*
X78845Y-57941D01*
X78845Y-58705D01*
X77845Y-58705D01*
X77845Y-57611D01*
X77777Y-57448D01*
X77652Y-57322D01*
X77488Y-57255D01*
X77311Y-57254D01*
X77148Y-57322D01*
X77022Y-57447D01*
X76955Y-57611D01*
X76954Y-57788D01*
X77022Y-57951D01*
X77147Y-58077D01*
X77311Y-58144D01*
X77488Y-58145D01*
X77651Y-58077D01*
X77777Y-57952D01*
X77844Y-57788D01*
X77845Y-57611D01*
X77845Y-58705D01*
X76795Y-58705D01*
X76795Y-55191D01*
X76750Y-55083D01*
X76667Y-55000D01*
X76558Y-54955D01*
X76441Y-54954D01*
X76391Y-54975D01*
X76391Y-42637D01*
X76391Y-42600D01*
X76391Y-42562D01*
X76391Y-42561D01*
X76391Y-42561D01*
X76391Y-42561D01*
X76353Y-42370D01*
X76324Y-42300D01*
X76323Y-42299D01*
X76216Y-42138D01*
X76215Y-42137D01*
X76161Y-42084D01*
X76000Y-41976D01*
X75999Y-41975D01*
X75929Y-41946D01*
X75737Y-41908D01*
X75661Y-41908D01*
X75660Y-41909D01*
X75470Y-41946D01*
X75400Y-41975D01*
X75399Y-41976D01*
X75238Y-42083D01*
X75237Y-42084D01*
X75184Y-42138D01*
X75076Y-42299D01*
X75075Y-42300D01*
X75046Y-42370D01*
X75008Y-42562D01*
X75008Y-42600D01*
X75008Y-42637D01*
X75008Y-42638D01*
X75046Y-42829D01*
X75075Y-42899D01*
X75076Y-42900D01*
X75184Y-43061D01*
X75237Y-43115D01*
X75238Y-43116D01*
X75399Y-43223D01*
X75400Y-43224D01*
X75470Y-43253D01*
X75660Y-43290D01*
X75661Y-43291D01*
X75737Y-43291D01*
X75929Y-43253D01*
X75999Y-43224D01*
X76000Y-43223D01*
X76161Y-43115D01*
X76215Y-43062D01*
X76216Y-43061D01*
X76323Y-42900D01*
X76324Y-42899D01*
X76353Y-42829D01*
X76391Y-42638D01*
X76391Y-42638D01*
X76391Y-42638D01*
X76391Y-42637D01*
X76391Y-54975D01*
X76345Y-54994D01*
X76345Y-54911D01*
X76345Y-52611D01*
X76277Y-52448D01*
X76195Y-52365D01*
X76195Y-50241D01*
X76150Y-50133D01*
X76142Y-50125D01*
X76149Y-50117D01*
X76194Y-50008D01*
X76195Y-49891D01*
X76150Y-49783D01*
X76067Y-49700D01*
X75973Y-49660D01*
X75973Y-49062D01*
X75963Y-48993D01*
X75963Y-48992D01*
X75938Y-48921D01*
X75902Y-48860D01*
X75902Y-48860D01*
X75851Y-48803D01*
X75795Y-48761D01*
X75795Y-48761D01*
X75726Y-48728D01*
X75658Y-48711D01*
X75658Y-48711D01*
X75582Y-48706D01*
X75513Y-48716D01*
X75512Y-48716D01*
X75441Y-48741D01*
X75380Y-48777D01*
X75380Y-48777D01*
X75345Y-48809D01*
X75345Y-47591D01*
X75300Y-47483D01*
X75217Y-47400D01*
X75108Y-47355D01*
X74991Y-47354D01*
X74883Y-47399D01*
X74800Y-47482D01*
X74755Y-47591D01*
X74754Y-47708D01*
X74799Y-47816D01*
X74882Y-47899D01*
X74991Y-47944D01*
X75108Y-47945D01*
X75216Y-47900D01*
X75299Y-47817D01*
X75344Y-47708D01*
X75345Y-47591D01*
X75345Y-48809D01*
X75323Y-48828D01*
X75281Y-48884D01*
X75281Y-48884D01*
X75248Y-48953D01*
X75231Y-49021D01*
X75231Y-49021D01*
X75226Y-49097D01*
X75236Y-49166D01*
X75236Y-49167D01*
X75262Y-49238D01*
X75297Y-49299D01*
X75297Y-49299D01*
X75348Y-49356D01*
X75404Y-49398D01*
X75404Y-49398D01*
X75473Y-49431D01*
X75541Y-49448D01*
X75541Y-49448D01*
X75617Y-49453D01*
X75686Y-49443D01*
X75687Y-49443D01*
X75758Y-49417D01*
X75819Y-49382D01*
X75819Y-49382D01*
X75876Y-49331D01*
X75918Y-49275D01*
X75918Y-49275D01*
X75951Y-49206D01*
X75968Y-49138D01*
X75968Y-49138D01*
X75973Y-49062D01*
X75973Y-49660D01*
X75958Y-49655D01*
X75841Y-49654D01*
X75733Y-49699D01*
X75650Y-49782D01*
X75605Y-49891D01*
X75604Y-50008D01*
X75649Y-50116D01*
X75657Y-50124D01*
X75650Y-50132D01*
X75605Y-50241D01*
X75604Y-50358D01*
X75642Y-50448D01*
X75623Y-50445D01*
X75552Y-50447D01*
X75552Y-50447D01*
X75478Y-50464D01*
X75413Y-50493D01*
X75413Y-50493D01*
X75351Y-50538D01*
X75303Y-50589D01*
X75303Y-50589D01*
X75262Y-50654D01*
X75237Y-50721D01*
X75237Y-50721D01*
X75226Y-50785D01*
X75225Y-50796D01*
X75225Y-50796D01*
X75227Y-50867D01*
X75227Y-50867D01*
X75244Y-50941D01*
X75273Y-51006D01*
X75273Y-51006D01*
X75318Y-51068D01*
X75369Y-51116D01*
X75369Y-51116D01*
X75434Y-51157D01*
X75501Y-51182D01*
X75501Y-51182D01*
X75576Y-51194D01*
X75647Y-51192D01*
X75647Y-51192D01*
X75721Y-51175D01*
X75786Y-51146D01*
X75786Y-51146D01*
X75848Y-51101D01*
X75896Y-51050D01*
X75896Y-51050D01*
X75937Y-50985D01*
X75962Y-50919D01*
X75962Y-50918D01*
X75974Y-50843D01*
X75972Y-50772D01*
X75972Y-50772D01*
X75955Y-50698D01*
X75926Y-50633D01*
X75926Y-50633D01*
X75898Y-50594D01*
X75958Y-50595D01*
X76066Y-50550D01*
X76149Y-50467D01*
X76194Y-50358D01*
X76195Y-50241D01*
X76195Y-52365D01*
X76152Y-52322D01*
X75988Y-52255D01*
X75811Y-52254D01*
X75648Y-52322D01*
X75522Y-52447D01*
X75455Y-52611D01*
X75454Y-52788D01*
X75522Y-52951D01*
X75647Y-53077D01*
X75811Y-53144D01*
X75988Y-53145D01*
X76151Y-53077D01*
X76277Y-52952D01*
X76344Y-52788D01*
X76345Y-52611D01*
X76345Y-54911D01*
X76277Y-54748D01*
X76152Y-54622D01*
X75988Y-54555D01*
X75811Y-54554D01*
X75648Y-54622D01*
X75522Y-54747D01*
X75455Y-54911D01*
X75454Y-55088D01*
X75522Y-55251D01*
X75647Y-55377D01*
X75811Y-55444D01*
X75988Y-55445D01*
X76151Y-55377D01*
X76209Y-55319D01*
X76249Y-55416D01*
X76332Y-55499D01*
X76441Y-55544D01*
X76558Y-55545D01*
X76666Y-55500D01*
X76749Y-55417D01*
X76794Y-55308D01*
X76795Y-55191D01*
X76795Y-58705D01*
X76391Y-58705D01*
X76391Y-57237D01*
X76391Y-57200D01*
X76391Y-57162D01*
X76391Y-57161D01*
X76391Y-57161D01*
X76391Y-57161D01*
X76353Y-56970D01*
X76324Y-56900D01*
X76323Y-56899D01*
X76216Y-56738D01*
X76215Y-56737D01*
X76161Y-56684D01*
X76000Y-56576D01*
X75999Y-56575D01*
X75929Y-56546D01*
X75737Y-56508D01*
X75661Y-56508D01*
X75660Y-56509D01*
X75470Y-56546D01*
X75400Y-56575D01*
X75399Y-56576D01*
X75345Y-56613D01*
X75345Y-55241D01*
X75345Y-54691D01*
X75345Y-52941D01*
X75345Y-52391D01*
X75319Y-52328D01*
X75271Y-52280D01*
X75208Y-52255D01*
X75141Y-52254D01*
X74591Y-52254D01*
X74528Y-52280D01*
X74480Y-52328D01*
X74455Y-52391D01*
X74454Y-52458D01*
X74454Y-53008D01*
X74480Y-53071D01*
X74528Y-53119D01*
X74591Y-53144D01*
X74658Y-53145D01*
X75208Y-53145D01*
X75271Y-53119D01*
X75319Y-53071D01*
X75344Y-53008D01*
X75345Y-52941D01*
X75345Y-54691D01*
X75319Y-54628D01*
X75271Y-54580D01*
X75208Y-54555D01*
X75141Y-54554D01*
X74591Y-54554D01*
X74528Y-54580D01*
X74480Y-54628D01*
X74455Y-54691D01*
X74454Y-54758D01*
X74454Y-55308D01*
X74480Y-55371D01*
X74528Y-55419D01*
X74591Y-55444D01*
X74658Y-55445D01*
X75208Y-55445D01*
X75271Y-55419D01*
X75319Y-55371D01*
X75344Y-55308D01*
X75345Y-55241D01*
X75345Y-56613D01*
X75238Y-56683D01*
X75237Y-56684D01*
X75184Y-56738D01*
X75076Y-56899D01*
X75075Y-56900D01*
X75046Y-56970D01*
X75008Y-57162D01*
X75008Y-57200D01*
X75008Y-57237D01*
X75008Y-57238D01*
X75046Y-57429D01*
X75075Y-57499D01*
X75076Y-57500D01*
X75184Y-57661D01*
X75237Y-57715D01*
X75238Y-57716D01*
X75399Y-57823D01*
X75400Y-57824D01*
X75470Y-57853D01*
X75660Y-57890D01*
X75661Y-57891D01*
X75737Y-57891D01*
X75929Y-57853D01*
X75999Y-57824D01*
X76000Y-57823D01*
X76161Y-57715D01*
X76215Y-57662D01*
X76216Y-57661D01*
X76323Y-57500D01*
X76324Y-57499D01*
X76353Y-57429D01*
X76391Y-57238D01*
X76391Y-57238D01*
X76391Y-57238D01*
X76391Y-57237D01*
X76391Y-58705D01*
X74245Y-58705D01*
X74245Y-41195D01*
X76990Y-41195D01*
X76951Y-41233D01*
X76880Y-41406D01*
X76879Y-41593D01*
X76951Y-41765D01*
X77083Y-41898D01*
X77256Y-41969D01*
X77443Y-41970D01*
X77615Y-41898D01*
X77748Y-41766D01*
X77819Y-41593D01*
X77820Y-41406D01*
X77748Y-41234D01*
X77709Y-41195D01*
X77990Y-41195D01*
X77951Y-41233D01*
X77880Y-41406D01*
X77879Y-41593D01*
X77951Y-41765D01*
X78083Y-41898D01*
X78256Y-41969D01*
X78443Y-41970D01*
X78615Y-41898D01*
X78748Y-41766D01*
X78819Y-41593D01*
X78820Y-41406D01*
X78748Y-41234D01*
X78709Y-41195D01*
X78990Y-41195D01*
X78951Y-41233D01*
X78880Y-41406D01*
X78879Y-41593D01*
X78951Y-41765D01*
X79083Y-41898D01*
X79256Y-41969D01*
X79443Y-41970D01*
X79615Y-41898D01*
X79748Y-41766D01*
X79819Y-41593D01*
X79820Y-41406D01*
X79748Y-41234D01*
X79709Y-41195D01*
X79990Y-41195D01*
X79951Y-41233D01*
X79880Y-41406D01*
X79879Y-41593D01*
X79951Y-41765D01*
X80083Y-41898D01*
X80256Y-41969D01*
X80443Y-41970D01*
X80615Y-41898D01*
X80748Y-41766D01*
X80819Y-41593D01*
X80820Y-41406D01*
X80748Y-41234D01*
X80709Y-41195D01*
X80990Y-41195D01*
X80951Y-41233D01*
X80880Y-41406D01*
X80879Y-41593D01*
X80951Y-41765D01*
X81083Y-41898D01*
X81256Y-41969D01*
X81443Y-41970D01*
X81615Y-41898D01*
X81748Y-41766D01*
X81819Y-41593D01*
X81820Y-41406D01*
X81748Y-41234D01*
X81709Y-41195D01*
X81990Y-41195D01*
X81951Y-41233D01*
X81880Y-41406D01*
X81879Y-41593D01*
X81951Y-41765D01*
X82083Y-41898D01*
X82256Y-41969D01*
X82443Y-41970D01*
X82615Y-41898D01*
X82748Y-41766D01*
X82819Y-41593D01*
X82820Y-41406D01*
X82748Y-41234D01*
X82709Y-41195D01*
X82990Y-41195D01*
X82951Y-41233D01*
X82880Y-41406D01*
X82879Y-41593D01*
X82951Y-41765D01*
X83083Y-41898D01*
X83256Y-41969D01*
X83443Y-41970D01*
X83615Y-41898D01*
X83748Y-41766D01*
X83819Y-41593D01*
X83820Y-41406D01*
X83748Y-41234D01*
X83709Y-41195D01*
X83990Y-41195D01*
X83951Y-41233D01*
X83880Y-41406D01*
X83879Y-41593D01*
X83951Y-41765D01*
X84083Y-41898D01*
X84256Y-41969D01*
X84443Y-41970D01*
X84615Y-41898D01*
X84748Y-41766D01*
X84819Y-41593D01*
X84820Y-41406D01*
X84748Y-41234D01*
X84709Y-41195D01*
X84990Y-41195D01*
X84951Y-41233D01*
X84880Y-41406D01*
X84879Y-41593D01*
X84951Y-41765D01*
X85083Y-41898D01*
X85256Y-41969D01*
X85443Y-41970D01*
X85615Y-41898D01*
X85748Y-41766D01*
X85819Y-41593D01*
X85820Y-41406D01*
X85748Y-41234D01*
X85709Y-41195D01*
X85990Y-41195D01*
X85951Y-41233D01*
X85880Y-41406D01*
X85879Y-41593D01*
X85951Y-41765D01*
X86083Y-41898D01*
X86256Y-41969D01*
X86443Y-41970D01*
X86615Y-41898D01*
X86748Y-41766D01*
X86819Y-41593D01*
X86820Y-41406D01*
X86748Y-41234D01*
X86709Y-41195D01*
X86990Y-41195D01*
X86951Y-41233D01*
X86880Y-41406D01*
X86879Y-41593D01*
X86951Y-41765D01*
X87083Y-41898D01*
X87256Y-41969D01*
X87443Y-41970D01*
X87615Y-41898D01*
X87748Y-41766D01*
X87819Y-41593D01*
X87820Y-41406D01*
X87748Y-41234D01*
X87709Y-41195D01*
X87990Y-41195D01*
X87951Y-41233D01*
X87880Y-41406D01*
X87879Y-41593D01*
X87951Y-41765D01*
X88083Y-41898D01*
X88256Y-41969D01*
X88443Y-41970D01*
X88615Y-41898D01*
X88748Y-41766D01*
X88819Y-41593D01*
X88820Y-41406D01*
X88748Y-41234D01*
X88709Y-41195D01*
X88990Y-41195D01*
X88951Y-41233D01*
X88880Y-41406D01*
X88879Y-41593D01*
X88951Y-41765D01*
X89083Y-41898D01*
X89256Y-41969D01*
X89443Y-41970D01*
X89615Y-41898D01*
X89748Y-41766D01*
X89819Y-41593D01*
X89820Y-41406D01*
X89748Y-41234D01*
X89709Y-41195D01*
X89990Y-41195D01*
X89951Y-41233D01*
X89880Y-41406D01*
X89879Y-41593D01*
X89951Y-41765D01*
X90083Y-41898D01*
X90256Y-41969D01*
X90443Y-41970D01*
X90615Y-41898D01*
X90748Y-41766D01*
X90819Y-41593D01*
X90820Y-41406D01*
X90748Y-41234D01*
X90709Y-41195D01*
X90990Y-41195D01*
X90951Y-41233D01*
X90880Y-41406D01*
X90879Y-41593D01*
X90951Y-41765D01*
X91083Y-41898D01*
X91256Y-41969D01*
X91443Y-41970D01*
X91615Y-41898D01*
X91748Y-41766D01*
X91819Y-41593D01*
X91820Y-41406D01*
X91748Y-41234D01*
X91709Y-41195D01*
X91990Y-41195D01*
X91951Y-41233D01*
X91880Y-41406D01*
X91879Y-41593D01*
X91951Y-41765D01*
X92083Y-41898D01*
X92256Y-41969D01*
X92443Y-41970D01*
X92615Y-41898D01*
X92748Y-41766D01*
X92819Y-41593D01*
X92820Y-41406D01*
X92748Y-41234D01*
X92709Y-41195D01*
X92990Y-41195D01*
X92951Y-41233D01*
X92880Y-41406D01*
X92879Y-41593D01*
X92951Y-41765D01*
X93083Y-41898D01*
X93256Y-41969D01*
X93443Y-41970D01*
X93615Y-41898D01*
X93748Y-41766D01*
X93819Y-41593D01*
X93820Y-41406D01*
X93748Y-41234D01*
X93709Y-41195D01*
X93990Y-41195D01*
X93951Y-41233D01*
X93880Y-41406D01*
X93879Y-41593D01*
X93951Y-41765D01*
X94083Y-41898D01*
X94256Y-41969D01*
X94443Y-41970D01*
X94615Y-41898D01*
X94748Y-41766D01*
X94819Y-41593D01*
X94820Y-41406D01*
X94748Y-41234D01*
X94709Y-41195D01*
X94990Y-41195D01*
X94951Y-41233D01*
X94880Y-41406D01*
X94879Y-41593D01*
X94951Y-41765D01*
X95083Y-41898D01*
X95256Y-41969D01*
X95443Y-41970D01*
X95615Y-41898D01*
X95748Y-41766D01*
X95819Y-41593D01*
X95820Y-41406D01*
X95748Y-41234D01*
X95709Y-41195D01*
X95990Y-41195D01*
X95951Y-41233D01*
X95880Y-41406D01*
X95879Y-41593D01*
X95951Y-41765D01*
X96083Y-41898D01*
X96256Y-41969D01*
X96443Y-41970D01*
X96615Y-41898D01*
X96748Y-41766D01*
X96819Y-41593D01*
X96820Y-41406D01*
X96748Y-41234D01*
X96709Y-41195D01*
X96990Y-41195D01*
X96951Y-41233D01*
X96880Y-41406D01*
X96879Y-41593D01*
X96951Y-41765D01*
X97083Y-41898D01*
X97256Y-41969D01*
X97443Y-41970D01*
X97615Y-41898D01*
X97748Y-41766D01*
X97819Y-41593D01*
X97820Y-41406D01*
X97748Y-41234D01*
X97709Y-41195D01*
X97990Y-41195D01*
X97951Y-41233D01*
X97880Y-41406D01*
X97879Y-41593D01*
X97951Y-41765D01*
X98083Y-41898D01*
X98256Y-41969D01*
X98443Y-41970D01*
X98615Y-41898D01*
X98748Y-41766D01*
X98819Y-41593D01*
X98820Y-41406D01*
X98748Y-41234D01*
X98709Y-41195D01*
X98990Y-41195D01*
X98951Y-41233D01*
X98880Y-41406D01*
X98879Y-41593D01*
X98951Y-41765D01*
X99083Y-41898D01*
X99256Y-41969D01*
X99443Y-41970D01*
X99615Y-41898D01*
X99748Y-41766D01*
X99819Y-41593D01*
X99820Y-41406D01*
X99748Y-41234D01*
X99709Y-41195D01*
X99990Y-41195D01*
X99951Y-41233D01*
X99880Y-41406D01*
X99879Y-41593D01*
X99951Y-41765D01*
X100083Y-41898D01*
X100256Y-41969D01*
X100443Y-41970D01*
X100615Y-41898D01*
X100748Y-41766D01*
X100819Y-41593D01*
X100820Y-41406D01*
X100748Y-41234D01*
X100709Y-41195D01*
X100990Y-41195D01*
X100951Y-41233D01*
X100880Y-41406D01*
X100879Y-41593D01*
X100951Y-41765D01*
X101083Y-41898D01*
X101256Y-41969D01*
X101443Y-41970D01*
X101615Y-41898D01*
X101748Y-41766D01*
X101805Y-41628D01*
X101806Y-41636D01*
X101868Y-41787D01*
X101964Y-41815D01*
X102279Y-41500D01*
X102273Y-41494D01*
X102344Y-41423D01*
X102350Y-41429D01*
X102355Y-41423D01*
X102426Y-41494D01*
X102420Y-41500D01*
X102735Y-41815D01*
X102831Y-41787D01*
X102904Y-41581D01*
X102893Y-41363D01*
X102831Y-41212D01*
X102771Y-41195D01*
X105455Y-41195D01*
X105455Y-58705D01*
X105455Y-58705D01*
G37*
G54D18*
X105455Y-58705D02*
X104691Y-58705D01*
X104691Y-57437D01*
X104691Y-57400D01*
X104691Y-57362D01*
X104691Y-42637D01*
X104691Y-42600D01*
X104691Y-42562D01*
X104691Y-42561D01*
X104691Y-42561D01*
X104691Y-42561D01*
X104653Y-42370D01*
X104624Y-42300D01*
X104623Y-42299D01*
X104516Y-42138D01*
X104515Y-42137D01*
X104461Y-42084D01*
X104300Y-41976D01*
X104299Y-41975D01*
X104229Y-41946D01*
X104037Y-41908D01*
X103961Y-41908D01*
X103960Y-41909D01*
X103770Y-41946D01*
X103700Y-41975D01*
X103699Y-41976D01*
X103538Y-42083D01*
X103537Y-42084D01*
X103484Y-42138D01*
X103376Y-42299D01*
X103375Y-42300D01*
X103346Y-42370D01*
X103308Y-42562D01*
X103308Y-42600D01*
X103308Y-42637D01*
X103308Y-42638D01*
X103346Y-42829D01*
X103375Y-42899D01*
X103376Y-42900D01*
X103484Y-43061D01*
X103537Y-43115D01*
X103538Y-43116D01*
X103699Y-43223D01*
X103700Y-43224D01*
X103770Y-43253D01*
X103960Y-43290D01*
X103961Y-43291D01*
X104037Y-43291D01*
X104229Y-43253D01*
X104299Y-43224D01*
X104300Y-43223D01*
X104461Y-43115D01*
X104515Y-43062D01*
X104516Y-43061D01*
X104623Y-42900D01*
X104624Y-42899D01*
X104653Y-42829D01*
X104691Y-42638D01*
X104691Y-42638D01*
X104691Y-42638D01*
X104691Y-42637D01*
X104691Y-57362D01*
X104691Y-57361D01*
X104691Y-57361D01*
X104691Y-57361D01*
X104653Y-57170D01*
X104624Y-57100D01*
X104623Y-57099D01*
X104516Y-56938D01*
X104515Y-56937D01*
X104461Y-56884D01*
X104300Y-56776D01*
X104299Y-56775D01*
X104229Y-56746D01*
X104037Y-56708D01*
X103961Y-56708D01*
X103960Y-56709D01*
X103770Y-56746D01*
X103700Y-56775D01*
X103699Y-56776D01*
X103538Y-56883D01*
X103537Y-56884D01*
X103484Y-56938D01*
X103376Y-57099D01*
X103375Y-57100D01*
X103346Y-57170D01*
X103308Y-57362D01*
X103308Y-57400D01*
X103308Y-57437D01*
X103308Y-57438D01*
X103346Y-57629D01*
X103375Y-57699D01*
X103376Y-57700D01*
X103484Y-57861D01*
X103537Y-57915D01*
X103538Y-57916D01*
X103699Y-58023D01*
X103700Y-58024D01*
X103770Y-58053D01*
X103960Y-58090D01*
X103961Y-58091D01*
X104037Y-58091D01*
X104229Y-58053D01*
X104299Y-58024D01*
X104300Y-58023D01*
X104461Y-57915D01*
X104515Y-57862D01*
X104516Y-57861D01*
X104623Y-57700D01*
X104624Y-57699D01*
X104653Y-57629D01*
X104691Y-57438D01*
X104691Y-57438D01*
X104691Y-57438D01*
X104691Y-57437D01*
X104691Y-58705D01*
X102970Y-58705D01*
X102970Y-54356D01*
X102970Y-53356D01*
X102970Y-52356D01*
X102970Y-51356D01*
X102970Y-50356D01*
X102970Y-49356D01*
X102970Y-48356D01*
X102970Y-47356D01*
X102898Y-47184D01*
X102766Y-47051D01*
X102593Y-46980D01*
X102406Y-46979D01*
X102286Y-47029D01*
X102294Y-47008D01*
X102295Y-46891D01*
X102286Y-46870D01*
X102406Y-46919D01*
X102593Y-46920D01*
X102765Y-46848D01*
X102898Y-46716D01*
X102969Y-46543D01*
X102970Y-46356D01*
X102970Y-45356D01*
X102898Y-45184D01*
X102820Y-45105D01*
X102820Y-42406D01*
X102748Y-42234D01*
X102616Y-42101D01*
X102478Y-42044D01*
X102486Y-42043D01*
X102637Y-41981D01*
X102665Y-41885D01*
X102350Y-41570D01*
X102034Y-41885D01*
X102062Y-41981D01*
X102229Y-42041D01*
X102084Y-42101D01*
X101951Y-42233D01*
X101880Y-42406D01*
X101879Y-42593D01*
X101951Y-42765D01*
X102083Y-42898D01*
X102256Y-42969D01*
X102443Y-42970D01*
X102615Y-42898D01*
X102748Y-42766D01*
X102819Y-42593D01*
X102820Y-42406D01*
X102820Y-45105D01*
X102766Y-45051D01*
X102593Y-44980D01*
X102406Y-44979D01*
X102234Y-45051D01*
X102195Y-45090D01*
X102195Y-44541D01*
X102150Y-44433D01*
X102067Y-44350D01*
X101958Y-44305D01*
X101841Y-44304D01*
X101820Y-44313D01*
X101820Y-42406D01*
X101748Y-42234D01*
X101616Y-42101D01*
X101443Y-42030D01*
X101256Y-42029D01*
X101084Y-42101D01*
X100951Y-42233D01*
X100880Y-42406D01*
X100879Y-42593D01*
X100951Y-42765D01*
X101083Y-42898D01*
X101256Y-42969D01*
X101443Y-42970D01*
X101615Y-42898D01*
X101748Y-42766D01*
X101819Y-42593D01*
X101820Y-42406D01*
X101820Y-44313D01*
X101733Y-44349D01*
X101650Y-44432D01*
X101605Y-44541D01*
X101605Y-44598D01*
X101551Y-44652D01*
X101494Y-44652D01*
X101495Y-44541D01*
X101450Y-44433D01*
X101367Y-44350D01*
X101258Y-44305D01*
X101141Y-44304D01*
X101033Y-44349D01*
X100950Y-44432D01*
X100926Y-44490D01*
X100820Y-44490D01*
X100820Y-42406D01*
X100748Y-42234D01*
X100616Y-42101D01*
X100443Y-42030D01*
X100256Y-42029D01*
X100084Y-42101D01*
X99951Y-42233D01*
X99880Y-42406D01*
X99879Y-42593D01*
X99951Y-42765D01*
X100083Y-42898D01*
X100256Y-42969D01*
X100443Y-42970D01*
X100615Y-42898D01*
X100748Y-42766D01*
X100819Y-42593D01*
X100820Y-42406D01*
X100820Y-44490D01*
X99820Y-44490D01*
X99820Y-42406D01*
X99748Y-42234D01*
X99616Y-42101D01*
X99443Y-42030D01*
X99256Y-42029D01*
X99084Y-42101D01*
X98951Y-42233D01*
X98880Y-42406D01*
X98879Y-42593D01*
X98951Y-42765D01*
X99083Y-42898D01*
X99205Y-42948D01*
X99204Y-43058D01*
X99249Y-43166D01*
X99332Y-43249D01*
X99441Y-43294D01*
X99558Y-43295D01*
X99666Y-43250D01*
X99749Y-43167D01*
X99794Y-43058D01*
X99795Y-42941D01*
X99750Y-42833D01*
X99715Y-42798D01*
X99748Y-42766D01*
X99819Y-42593D01*
X99820Y-42406D01*
X99820Y-44490D01*
X99511Y-44490D01*
X99544Y-44408D01*
X99545Y-44291D01*
X99500Y-44183D01*
X99491Y-44174D01*
X99491Y-43637D01*
X99491Y-43600D01*
X99491Y-43562D01*
X99491Y-43561D01*
X99491Y-43561D01*
X99491Y-43561D01*
X99476Y-43485D01*
X99476Y-43485D01*
X99476Y-43485D01*
X99446Y-43414D01*
X99403Y-43350D01*
X99349Y-43296D01*
X99349Y-43296D01*
X99285Y-43253D01*
X99284Y-43253D01*
X99284Y-43252D01*
X99214Y-43223D01*
X99137Y-43208D01*
X99061Y-43208D01*
X99061Y-43208D01*
X98985Y-43223D01*
X98985Y-43223D01*
X98985Y-43223D01*
X98914Y-43253D01*
X98850Y-43296D01*
X98820Y-43326D01*
X98820Y-42406D01*
X98748Y-42234D01*
X98616Y-42101D01*
X98443Y-42030D01*
X98256Y-42029D01*
X98084Y-42101D01*
X97951Y-42233D01*
X97880Y-42406D01*
X97879Y-42593D01*
X97951Y-42765D01*
X98083Y-42898D01*
X98256Y-42969D01*
X98443Y-42970D01*
X98615Y-42898D01*
X98748Y-42766D01*
X98819Y-42593D01*
X98820Y-42406D01*
X98820Y-43326D01*
X98796Y-43350D01*
X98796Y-43350D01*
X98753Y-43414D01*
X98753Y-43415D01*
X98752Y-43415D01*
X98723Y-43485D01*
X98708Y-43562D01*
X98708Y-43600D01*
X98708Y-43637D01*
X98708Y-43638D01*
X98723Y-43714D01*
X98752Y-43784D01*
X98753Y-43784D01*
X98753Y-43785D01*
X98796Y-43849D01*
X98796Y-43849D01*
X98850Y-43903D01*
X98914Y-43946D01*
X98985Y-43976D01*
X98985Y-43976D01*
X98985Y-43976D01*
X99061Y-43991D01*
X99061Y-43991D01*
X99137Y-43991D01*
X99214Y-43976D01*
X99214Y-43975D01*
X99284Y-43947D01*
X99284Y-43946D01*
X99285Y-43946D01*
X99349Y-43903D01*
X99349Y-43903D01*
X99403Y-43849D01*
X99446Y-43785D01*
X99476Y-43714D01*
X99476Y-43714D01*
X99476Y-43714D01*
X99491Y-43638D01*
X99491Y-43638D01*
X99491Y-43638D01*
X99491Y-43637D01*
X99491Y-44174D01*
X99417Y-44100D01*
X99308Y-44055D01*
X99191Y-44054D01*
X99106Y-44090D01*
X98836Y-44090D01*
X98686Y-43939D01*
X98618Y-43893D01*
X98538Y-43878D01*
X97820Y-43878D01*
X97820Y-42406D01*
X97748Y-42234D01*
X97616Y-42101D01*
X97443Y-42030D01*
X97256Y-42029D01*
X97084Y-42101D01*
X96951Y-42233D01*
X96880Y-42406D01*
X96879Y-42593D01*
X96951Y-42765D01*
X97083Y-42898D01*
X97256Y-42969D01*
X97443Y-42970D01*
X97615Y-42898D01*
X97748Y-42766D01*
X97819Y-42593D01*
X97820Y-42406D01*
X97820Y-43878D01*
X97024Y-43878D01*
X96924Y-43777D01*
X96856Y-43731D01*
X96820Y-43724D01*
X96820Y-42406D01*
X96748Y-42234D01*
X96616Y-42101D01*
X96443Y-42030D01*
X96256Y-42029D01*
X96084Y-42101D01*
X95951Y-42233D01*
X95880Y-42406D01*
X95879Y-42593D01*
X95951Y-42765D01*
X96083Y-42898D01*
X96256Y-42969D01*
X96443Y-42970D01*
X96615Y-42898D01*
X96748Y-42766D01*
X96819Y-42593D01*
X96820Y-42406D01*
X96820Y-43724D01*
X96776Y-43716D01*
X95820Y-43716D01*
X95820Y-42406D01*
X95748Y-42234D01*
X95616Y-42101D01*
X95443Y-42030D01*
X95256Y-42029D01*
X95084Y-42101D01*
X94951Y-42233D01*
X94880Y-42406D01*
X94879Y-42593D01*
X94951Y-42765D01*
X95083Y-42898D01*
X95256Y-42969D01*
X95443Y-42970D01*
X95615Y-42898D01*
X95748Y-42766D01*
X95819Y-42593D01*
X95820Y-42406D01*
X95820Y-43716D01*
X94820Y-43716D01*
X94820Y-42406D01*
X94748Y-42234D01*
X94616Y-42101D01*
X94443Y-42030D01*
X94256Y-42029D01*
X94084Y-42101D01*
X93951Y-42233D01*
X93880Y-42406D01*
X93879Y-42593D01*
X93951Y-42765D01*
X94083Y-42898D01*
X94256Y-42969D01*
X94443Y-42970D01*
X94615Y-42898D01*
X94748Y-42766D01*
X94819Y-42593D01*
X94820Y-42406D01*
X94820Y-43716D01*
X93820Y-43716D01*
X93820Y-42406D01*
X93748Y-42234D01*
X93616Y-42101D01*
X93443Y-42030D01*
X93256Y-42029D01*
X93084Y-42101D01*
X92951Y-42233D01*
X92880Y-42406D01*
X92879Y-42593D01*
X92951Y-42765D01*
X93083Y-42898D01*
X93256Y-42969D01*
X93443Y-42970D01*
X93615Y-42898D01*
X93748Y-42766D01*
X93819Y-42593D01*
X93820Y-42406D01*
X93820Y-43716D01*
X92820Y-43716D01*
X92820Y-42406D01*
X92748Y-42234D01*
X92616Y-42101D01*
X92443Y-42030D01*
X92256Y-42029D01*
X92084Y-42101D01*
X91951Y-42233D01*
X91880Y-42406D01*
X91879Y-42593D01*
X91951Y-42765D01*
X92083Y-42898D01*
X92256Y-42969D01*
X92443Y-42970D01*
X92615Y-42898D01*
X92748Y-42766D01*
X92819Y-42593D01*
X92820Y-42406D01*
X92820Y-43716D01*
X91820Y-43716D01*
X91820Y-42406D01*
X91748Y-42234D01*
X91616Y-42101D01*
X91443Y-42030D01*
X91256Y-42029D01*
X91084Y-42101D01*
X90951Y-42233D01*
X90880Y-42406D01*
X90879Y-42593D01*
X90951Y-42765D01*
X91083Y-42898D01*
X91256Y-42969D01*
X91443Y-42970D01*
X91615Y-42898D01*
X91748Y-42766D01*
X91819Y-42593D01*
X91820Y-42406D01*
X91820Y-43716D01*
X90820Y-43716D01*
X90820Y-42406D01*
X90748Y-42234D01*
X90616Y-42101D01*
X90443Y-42030D01*
X90256Y-42029D01*
X90084Y-42101D01*
X89951Y-42233D01*
X89880Y-42406D01*
X89879Y-42593D01*
X89951Y-42765D01*
X90083Y-42898D01*
X90256Y-42969D01*
X90443Y-42970D01*
X90615Y-42898D01*
X90748Y-42766D01*
X90819Y-42593D01*
X90820Y-42406D01*
X90820Y-43716D01*
X89820Y-43716D01*
X89820Y-42406D01*
X89748Y-42234D01*
X89616Y-42101D01*
X89443Y-42030D01*
X89256Y-42029D01*
X89084Y-42101D01*
X88951Y-42233D01*
X88880Y-42406D01*
X88879Y-42593D01*
X88951Y-42765D01*
X89083Y-42898D01*
X89256Y-42969D01*
X89443Y-42970D01*
X89615Y-42898D01*
X89748Y-42766D01*
X89819Y-42593D01*
X89820Y-42406D01*
X89820Y-43716D01*
X89200Y-43716D01*
X89244Y-43608D01*
X89245Y-43491D01*
X89200Y-43383D01*
X89117Y-43300D01*
X89008Y-43255D01*
X88891Y-43254D01*
X88820Y-43284D01*
X88820Y-42406D01*
X88748Y-42234D01*
X88616Y-42101D01*
X88443Y-42030D01*
X88256Y-42029D01*
X88084Y-42101D01*
X87951Y-42233D01*
X87880Y-42406D01*
X87879Y-42593D01*
X87951Y-42765D01*
X88083Y-42898D01*
X88256Y-42969D01*
X88443Y-42970D01*
X88615Y-42898D01*
X88748Y-42766D01*
X88819Y-42593D01*
X88820Y-42406D01*
X88820Y-43284D01*
X88783Y-43299D01*
X88742Y-43340D01*
X88600Y-43340D01*
X88519Y-43355D01*
X88451Y-43401D01*
X87975Y-43878D01*
X87820Y-43878D01*
X87820Y-42406D01*
X87748Y-42234D01*
X87616Y-42101D01*
X87443Y-42030D01*
X87256Y-42029D01*
X87084Y-42101D01*
X86951Y-42233D01*
X86880Y-42406D01*
X86879Y-42593D01*
X86951Y-42765D01*
X87083Y-42898D01*
X87256Y-42969D01*
X87443Y-42970D01*
X87615Y-42898D01*
X87748Y-42766D01*
X87819Y-42593D01*
X87820Y-42406D01*
X87820Y-43878D01*
X86820Y-43878D01*
X86820Y-42406D01*
X86748Y-42234D01*
X86616Y-42101D01*
X86443Y-42030D01*
X86256Y-42029D01*
X86084Y-42101D01*
X85951Y-42233D01*
X85880Y-42406D01*
X85879Y-42593D01*
X85951Y-42765D01*
X86083Y-42898D01*
X86256Y-42969D01*
X86443Y-42970D01*
X86615Y-42898D01*
X86748Y-42766D01*
X86819Y-42593D01*
X86820Y-42406D01*
X86820Y-43878D01*
X85820Y-43878D01*
X85820Y-42406D01*
X85748Y-42234D01*
X85616Y-42101D01*
X85443Y-42030D01*
X85256Y-42029D01*
X85084Y-42101D01*
X84951Y-42233D01*
X84880Y-42406D01*
X84879Y-42593D01*
X84951Y-42765D01*
X85083Y-42898D01*
X85256Y-42969D01*
X85443Y-42970D01*
X85615Y-42898D01*
X85748Y-42766D01*
X85819Y-42593D01*
X85820Y-42406D01*
X85820Y-43878D01*
X85218Y-43878D01*
X85200Y-43833D01*
X85117Y-43750D01*
X85008Y-43705D01*
X84891Y-43704D01*
X84820Y-43734D01*
X84820Y-42406D01*
X84748Y-42234D01*
X84616Y-42101D01*
X84443Y-42030D01*
X84256Y-42029D01*
X84084Y-42101D01*
X83951Y-42233D01*
X83880Y-42406D01*
X83879Y-42593D01*
X83951Y-42765D01*
X84083Y-42898D01*
X84256Y-42969D01*
X84443Y-42970D01*
X84615Y-42898D01*
X84748Y-42766D01*
X84819Y-42593D01*
X84820Y-42406D01*
X84820Y-43734D01*
X84783Y-43749D01*
X84700Y-43832D01*
X84655Y-43941D01*
X84654Y-44058D01*
X84699Y-44166D01*
X84782Y-44249D01*
X84891Y-44294D01*
X85008Y-44295D01*
X85013Y-44293D01*
X85038Y-44298D01*
X85205Y-44298D01*
X84963Y-44540D01*
X84644Y-44540D01*
X84645Y-44441D01*
X84600Y-44333D01*
X84517Y-44250D01*
X84408Y-44205D01*
X84291Y-44204D01*
X84183Y-44249D01*
X84175Y-44257D01*
X84167Y-44250D01*
X84058Y-44205D01*
X83941Y-44204D01*
X83833Y-44249D01*
X83825Y-44257D01*
X83820Y-44252D01*
X83820Y-42406D01*
X83748Y-42234D01*
X83616Y-42101D01*
X83443Y-42030D01*
X83256Y-42029D01*
X83084Y-42101D01*
X82951Y-42233D01*
X82880Y-42406D01*
X82879Y-42593D01*
X82951Y-42765D01*
X83083Y-42898D01*
X83256Y-42969D01*
X83443Y-42970D01*
X83615Y-42898D01*
X83748Y-42766D01*
X83819Y-42593D01*
X83820Y-42406D01*
X83820Y-44252D01*
X83817Y-44250D01*
X83708Y-44205D01*
X83591Y-44204D01*
X83483Y-44249D01*
X83475Y-44257D01*
X83467Y-44250D01*
X83358Y-44205D01*
X83241Y-44204D01*
X83133Y-44249D01*
X83100Y-44282D01*
X83067Y-44250D01*
X82958Y-44205D01*
X82841Y-44204D01*
X82820Y-44213D01*
X82820Y-42406D01*
X82748Y-42234D01*
X82616Y-42101D01*
X82443Y-42030D01*
X82256Y-42029D01*
X82084Y-42101D01*
X81951Y-42233D01*
X81880Y-42406D01*
X81879Y-42593D01*
X81951Y-42765D01*
X82083Y-42898D01*
X82256Y-42969D01*
X82443Y-42970D01*
X82615Y-42898D01*
X82748Y-42766D01*
X82819Y-42593D01*
X82820Y-42406D01*
X82820Y-44213D01*
X82733Y-44249D01*
X82725Y-44257D01*
X82717Y-44250D01*
X82608Y-44205D01*
X82491Y-44204D01*
X82383Y-44249D01*
X82375Y-44257D01*
X82367Y-44250D01*
X82258Y-44205D01*
X82141Y-44204D01*
X82033Y-44249D01*
X82025Y-44257D01*
X82017Y-44250D01*
X81908Y-44205D01*
X81820Y-44204D01*
X81820Y-42406D01*
X81748Y-42234D01*
X81616Y-42101D01*
X81443Y-42030D01*
X81256Y-42029D01*
X81084Y-42101D01*
X80951Y-42233D01*
X80880Y-42406D01*
X80879Y-42593D01*
X80951Y-42765D01*
X81083Y-42898D01*
X81256Y-42969D01*
X81443Y-42970D01*
X81615Y-42898D01*
X81748Y-42766D01*
X81819Y-42593D01*
X81820Y-42406D01*
X81820Y-44204D01*
X81791Y-44204D01*
X81683Y-44249D01*
X81650Y-44282D01*
X81617Y-44250D01*
X81508Y-44205D01*
X81391Y-44204D01*
X81283Y-44249D01*
X81275Y-44257D01*
X81267Y-44250D01*
X81158Y-44205D01*
X81041Y-44204D01*
X80933Y-44249D01*
X80925Y-44257D01*
X80917Y-44250D01*
X80820Y-44209D01*
X80820Y-42406D01*
X80748Y-42234D01*
X80616Y-42101D01*
X80443Y-42030D01*
X80256Y-42029D01*
X80084Y-42101D01*
X79951Y-42233D01*
X79880Y-42406D01*
X79879Y-42593D01*
X79951Y-42765D01*
X80083Y-42898D01*
X80256Y-42969D01*
X80443Y-42970D01*
X80615Y-42898D01*
X80748Y-42766D01*
X80819Y-42593D01*
X80820Y-42406D01*
X80820Y-44209D01*
X80808Y-44205D01*
X80691Y-44204D01*
X80583Y-44249D01*
X80575Y-44257D01*
X80567Y-44250D01*
X80458Y-44205D01*
X80341Y-44204D01*
X80291Y-44225D01*
X80291Y-43637D01*
X80291Y-43600D01*
X80291Y-43562D01*
X80291Y-43561D01*
X80291Y-43561D01*
X80291Y-43561D01*
X80276Y-43485D01*
X80276Y-43485D01*
X80276Y-43485D01*
X80246Y-43414D01*
X80203Y-43350D01*
X80149Y-43296D01*
X80149Y-43296D01*
X80085Y-43253D01*
X80084Y-43253D01*
X80084Y-43252D01*
X80014Y-43223D01*
X79937Y-43208D01*
X79861Y-43208D01*
X79861Y-43208D01*
X79820Y-43217D01*
X79820Y-42406D01*
X79748Y-42234D01*
X79616Y-42101D01*
X79443Y-42030D01*
X79256Y-42029D01*
X79084Y-42101D01*
X78951Y-42233D01*
X78880Y-42406D01*
X78879Y-42593D01*
X78951Y-42765D01*
X79083Y-42898D01*
X79256Y-42969D01*
X79443Y-42970D01*
X79615Y-42898D01*
X79748Y-42766D01*
X79819Y-42593D01*
X79820Y-42406D01*
X79820Y-43217D01*
X79785Y-43223D01*
X79785Y-43223D01*
X79785Y-43223D01*
X79714Y-43253D01*
X79650Y-43296D01*
X79596Y-43350D01*
X79596Y-43350D01*
X79553Y-43414D01*
X79553Y-43415D01*
X79552Y-43415D01*
X79523Y-43485D01*
X79508Y-43562D01*
X79508Y-43600D01*
X79508Y-43637D01*
X79508Y-43638D01*
X79523Y-43714D01*
X79552Y-43784D01*
X79553Y-43784D01*
X79553Y-43785D01*
X79596Y-43849D01*
X79596Y-43849D01*
X79650Y-43903D01*
X79714Y-43946D01*
X79785Y-43976D01*
X79785Y-43976D01*
X79785Y-43976D01*
X79861Y-43991D01*
X79861Y-43991D01*
X79937Y-43991D01*
X80014Y-43976D01*
X80014Y-43975D01*
X80084Y-43947D01*
X80084Y-43946D01*
X80085Y-43946D01*
X80149Y-43903D01*
X80149Y-43903D01*
X80203Y-43849D01*
X80246Y-43785D01*
X80276Y-43714D01*
X80276Y-43714D01*
X80276Y-43714D01*
X80291Y-43638D01*
X80291Y-43638D01*
X80291Y-43638D01*
X80291Y-43637D01*
X80291Y-44225D01*
X80233Y-44249D01*
X80150Y-44332D01*
X80105Y-44441D01*
X80104Y-44558D01*
X80149Y-44666D01*
X80232Y-44749D01*
X80341Y-44794D01*
X80458Y-44795D01*
X80566Y-44750D01*
X80574Y-44742D01*
X80582Y-44749D01*
X80691Y-44794D01*
X80808Y-44795D01*
X80916Y-44750D01*
X80924Y-44742D01*
X80932Y-44749D01*
X81041Y-44794D01*
X81158Y-44795D01*
X81266Y-44750D01*
X81274Y-44742D01*
X81282Y-44749D01*
X81391Y-44794D01*
X81508Y-44795D01*
X81616Y-44750D01*
X81649Y-44717D01*
X81682Y-44749D01*
X81791Y-44794D01*
X81908Y-44795D01*
X82016Y-44750D01*
X82024Y-44742D01*
X82032Y-44749D01*
X82141Y-44794D01*
X82257Y-44795D01*
X79695Y-47357D01*
X79695Y-44441D01*
X79650Y-44333D01*
X79567Y-44250D01*
X79458Y-44205D01*
X79341Y-44204D01*
X79233Y-44249D01*
X79225Y-44257D01*
X79217Y-44250D01*
X79108Y-44205D01*
X78991Y-44204D01*
X78883Y-44249D01*
X78875Y-44257D01*
X78867Y-44250D01*
X78820Y-44230D01*
X78820Y-42406D01*
X78748Y-42234D01*
X78616Y-42101D01*
X78443Y-42030D01*
X78256Y-42029D01*
X78084Y-42101D01*
X77951Y-42233D01*
X77880Y-42406D01*
X77879Y-42593D01*
X77951Y-42765D01*
X78083Y-42898D01*
X78256Y-42969D01*
X78443Y-42970D01*
X78615Y-42898D01*
X78748Y-42766D01*
X78819Y-42593D01*
X78820Y-42406D01*
X78820Y-44230D01*
X78758Y-44205D01*
X78641Y-44204D01*
X78533Y-44249D01*
X78525Y-44257D01*
X78517Y-44250D01*
X78408Y-44205D01*
X78291Y-44204D01*
X78183Y-44249D01*
X78100Y-44332D01*
X78070Y-44404D01*
X78070Y-43606D01*
X77998Y-43434D01*
X77866Y-43301D01*
X77820Y-43282D01*
X77820Y-42766D01*
X77820Y-42166D01*
X77794Y-42103D01*
X77746Y-42055D01*
X77683Y-42030D01*
X77616Y-42029D01*
X77016Y-42029D01*
X76953Y-42055D01*
X76905Y-42103D01*
X76880Y-42166D01*
X76879Y-42233D01*
X76879Y-42833D01*
X76905Y-42896D01*
X76953Y-42944D01*
X77016Y-42969D01*
X77083Y-42970D01*
X77683Y-42970D01*
X77746Y-42944D01*
X77794Y-42896D01*
X77819Y-42833D01*
X77820Y-42766D01*
X77820Y-43282D01*
X77693Y-43230D01*
X77506Y-43229D01*
X77334Y-43301D01*
X77201Y-43433D01*
X77130Y-43606D01*
X77129Y-43793D01*
X77201Y-43965D01*
X77333Y-44098D01*
X77506Y-44169D01*
X77693Y-44170D01*
X77865Y-44098D01*
X77998Y-43966D01*
X78069Y-43793D01*
X78070Y-43606D01*
X78070Y-44404D01*
X78055Y-44441D01*
X78054Y-44558D01*
X78099Y-44666D01*
X78182Y-44749D01*
X78291Y-44794D01*
X78408Y-44795D01*
X78516Y-44750D01*
X78524Y-44742D01*
X78532Y-44749D01*
X78641Y-44794D01*
X78758Y-44795D01*
X78866Y-44750D01*
X78874Y-44742D01*
X78882Y-44749D01*
X78991Y-44794D01*
X79108Y-44795D01*
X79216Y-44750D01*
X79224Y-44742D01*
X79232Y-44749D01*
X79341Y-44794D01*
X79458Y-44795D01*
X79566Y-44750D01*
X79649Y-44667D01*
X79694Y-44558D01*
X79695Y-44441D01*
X79695Y-47357D01*
X78998Y-48054D01*
X78941Y-48054D01*
X78833Y-48099D01*
X78750Y-48182D01*
X78705Y-48291D01*
X78704Y-48408D01*
X78749Y-48516D01*
X78817Y-48585D01*
X78763Y-48640D01*
X78357Y-48640D01*
X78317Y-48600D01*
X78208Y-48555D01*
X78154Y-48555D01*
X78154Y-45781D01*
X78143Y-45563D01*
X78081Y-45412D01*
X78070Y-45408D01*
X78070Y-44606D01*
X77998Y-44434D01*
X77866Y-44301D01*
X77693Y-44230D01*
X77506Y-44229D01*
X77334Y-44301D01*
X77201Y-44433D01*
X77130Y-44606D01*
X77129Y-44793D01*
X77201Y-44965D01*
X77333Y-45098D01*
X77471Y-45155D01*
X77463Y-45156D01*
X77312Y-45218D01*
X77284Y-45314D01*
X77600Y-45629D01*
X77915Y-45314D01*
X77887Y-45218D01*
X77720Y-45158D01*
X77865Y-45098D01*
X77998Y-44966D01*
X78069Y-44793D01*
X78070Y-44606D01*
X78070Y-45408D01*
X77985Y-45384D01*
X77670Y-45700D01*
X77985Y-46015D01*
X78081Y-45987D01*
X78154Y-45781D01*
X78154Y-48555D01*
X78091Y-48554D01*
X78070Y-48563D01*
X78070Y-46606D01*
X77998Y-46434D01*
X77866Y-46301D01*
X77728Y-46244D01*
X77736Y-46243D01*
X77887Y-46181D01*
X77915Y-46085D01*
X77600Y-45770D01*
X77529Y-45841D01*
X77529Y-45700D01*
X77214Y-45384D01*
X77118Y-45412D01*
X77095Y-45478D01*
X77095Y-44391D01*
X77050Y-44283D01*
X76967Y-44200D01*
X76858Y-44155D01*
X76741Y-44154D01*
X76633Y-44199D01*
X76550Y-44282D01*
X76505Y-44391D01*
X76504Y-44508D01*
X76549Y-44616D01*
X76632Y-44699D01*
X76741Y-44744D01*
X76858Y-44745D01*
X76966Y-44700D01*
X77049Y-44617D01*
X77094Y-44508D01*
X77095Y-44391D01*
X77095Y-45478D01*
X77045Y-45618D01*
X77056Y-45836D01*
X77118Y-45987D01*
X77214Y-46015D01*
X77529Y-45700D01*
X77529Y-45841D01*
X77284Y-46085D01*
X77312Y-46181D01*
X77479Y-46241D01*
X77334Y-46301D01*
X77201Y-46433D01*
X77130Y-46606D01*
X77129Y-46793D01*
X77201Y-46965D01*
X77333Y-47098D01*
X77506Y-47169D01*
X77693Y-47170D01*
X77865Y-47098D01*
X77998Y-46966D01*
X78069Y-46793D01*
X78070Y-46606D01*
X78070Y-48563D01*
X78070Y-48563D01*
X78070Y-47966D01*
X78070Y-47366D01*
X78044Y-47303D01*
X77996Y-47255D01*
X77933Y-47230D01*
X77866Y-47229D01*
X77266Y-47229D01*
X77203Y-47255D01*
X77155Y-47303D01*
X77130Y-47366D01*
X77129Y-47433D01*
X77129Y-48033D01*
X77155Y-48096D01*
X77203Y-48144D01*
X77266Y-48169D01*
X77333Y-48170D01*
X77933Y-48170D01*
X77996Y-48144D01*
X78044Y-48096D01*
X78069Y-48033D01*
X78070Y-47966D01*
X78070Y-48563D01*
X77983Y-48599D01*
X77900Y-48682D01*
X77855Y-48791D01*
X77854Y-48908D01*
X77899Y-49016D01*
X77982Y-49099D01*
X78091Y-49144D01*
X78208Y-49145D01*
X78316Y-49100D01*
X78357Y-49060D01*
X78850Y-49060D01*
X78930Y-49044D01*
X78998Y-48998D01*
X79014Y-48982D01*
X79039Y-49007D01*
X79005Y-49091D01*
X79004Y-49208D01*
X79049Y-49316D01*
X79057Y-49324D01*
X79050Y-49332D01*
X79005Y-49441D01*
X79004Y-49558D01*
X79049Y-49666D01*
X79132Y-49749D01*
X79241Y-49794D01*
X79358Y-49795D01*
X79466Y-49750D01*
X79549Y-49667D01*
X79594Y-49558D01*
X79594Y-49501D01*
X80190Y-48906D01*
X80190Y-49050D01*
X80205Y-49130D01*
X80251Y-49198D01*
X80354Y-49301D01*
X80354Y-49358D01*
X80399Y-49466D01*
X80482Y-49549D01*
X80591Y-49594D01*
X80648Y-49594D01*
X81501Y-50448D01*
X81501Y-50448D01*
X81542Y-50475D01*
X81569Y-50494D01*
X81569Y-50494D01*
X81650Y-50510D01*
X84350Y-50510D01*
X84430Y-50494D01*
X84498Y-50448D01*
X84544Y-50402D01*
X84549Y-50416D01*
X84632Y-50499D01*
X84668Y-50514D01*
X84600Y-50582D01*
X84555Y-50691D01*
X84554Y-50808D01*
X84599Y-50916D01*
X84682Y-50999D01*
X84791Y-51044D01*
X84908Y-51045D01*
X85016Y-51000D01*
X85099Y-50917D01*
X85144Y-50808D01*
X85145Y-50691D01*
X85100Y-50583D01*
X85017Y-50500D01*
X84981Y-50485D01*
X85049Y-50417D01*
X85094Y-50308D01*
X85095Y-50191D01*
X85050Y-50083D01*
X84967Y-50000D01*
X84952Y-49994D01*
X85936Y-49010D01*
X89950Y-49010D01*
X90030Y-48994D01*
X90098Y-48948D01*
X90748Y-48298D01*
X90748Y-48298D01*
X90748Y-48298D01*
X90794Y-48230D01*
X90794Y-48230D01*
X90810Y-48150D01*
X90810Y-48106D01*
X90901Y-48198D01*
X90901Y-48198D01*
X90942Y-48225D01*
X90969Y-48244D01*
X90969Y-48244D01*
X91050Y-48260D01*
X92592Y-48260D01*
X92632Y-48299D01*
X92741Y-48344D01*
X92858Y-48345D01*
X92966Y-48300D01*
X93049Y-48217D01*
X93094Y-48108D01*
X93095Y-47991D01*
X93050Y-47883D01*
X92967Y-47800D01*
X92858Y-47755D01*
X92845Y-47755D01*
X92845Y-47741D01*
X92800Y-47633D01*
X92717Y-47550D01*
X92608Y-47505D01*
X92491Y-47504D01*
X92383Y-47549D01*
X92300Y-47632D01*
X92297Y-47640D01*
X91844Y-47640D01*
X91845Y-47541D01*
X91805Y-47445D01*
X91858Y-47445D01*
X91966Y-47400D01*
X92049Y-47317D01*
X92094Y-47208D01*
X92095Y-47091D01*
X92050Y-46983D01*
X91974Y-46907D01*
X91994Y-46858D01*
X91995Y-46741D01*
X91950Y-46633D01*
X91874Y-46557D01*
X91894Y-46508D01*
X91895Y-46391D01*
X91861Y-46310D01*
X92017Y-46310D01*
X92005Y-46341D01*
X92004Y-46458D01*
X92049Y-46566D01*
X92057Y-46574D01*
X92050Y-46582D01*
X92005Y-46691D01*
X92004Y-46808D01*
X92049Y-46916D01*
X92132Y-46999D01*
X92241Y-47044D01*
X92358Y-47045D01*
X92466Y-47000D01*
X92549Y-46917D01*
X92594Y-46808D01*
X92595Y-46691D01*
X92550Y-46583D01*
X92542Y-46575D01*
X92549Y-46567D01*
X92594Y-46458D01*
X92595Y-46341D01*
X92550Y-46233D01*
X92467Y-46150D01*
X92417Y-46129D01*
X92600Y-45946D01*
X93557Y-45946D01*
X93298Y-46204D01*
X93241Y-46204D01*
X93133Y-46249D01*
X93050Y-46332D01*
X93005Y-46441D01*
X93004Y-46558D01*
X93049Y-46666D01*
X93132Y-46749D01*
X93241Y-46794D01*
X93254Y-46794D01*
X93254Y-46808D01*
X93299Y-46916D01*
X93382Y-46999D01*
X93491Y-47044D01*
X93504Y-47044D01*
X93504Y-47058D01*
X93549Y-47166D01*
X93632Y-47249D01*
X93741Y-47294D01*
X93754Y-47294D01*
X93754Y-47308D01*
X93799Y-47416D01*
X93882Y-47499D01*
X93991Y-47544D01*
X94004Y-47544D01*
X94004Y-47558D01*
X94049Y-47666D01*
X94132Y-47749D01*
X94241Y-47794D01*
X94254Y-47794D01*
X94254Y-47808D01*
X94299Y-47916D01*
X94382Y-47999D01*
X94491Y-48044D01*
X94504Y-48044D01*
X94504Y-48058D01*
X94549Y-48166D01*
X94632Y-48249D01*
X94741Y-48294D01*
X94754Y-48294D01*
X94754Y-48308D01*
X94799Y-48416D01*
X94882Y-48499D01*
X94991Y-48544D01*
X95108Y-48545D01*
X95216Y-48500D01*
X95299Y-48417D01*
X95344Y-48308D01*
X95344Y-48260D01*
X96205Y-48260D01*
X96204Y-48358D01*
X96249Y-48466D01*
X96332Y-48549D01*
X96441Y-48594D01*
X96454Y-48594D01*
X96454Y-48604D01*
X96441Y-48604D01*
X96333Y-48649D01*
X96250Y-48732D01*
X96205Y-48841D01*
X96204Y-48958D01*
X96249Y-49066D01*
X96332Y-49149D01*
X96417Y-49185D01*
X96383Y-49199D01*
X96300Y-49282D01*
X96255Y-49391D01*
X96254Y-49508D01*
X96289Y-49592D01*
X96250Y-49632D01*
X96205Y-49741D01*
X96204Y-49858D01*
X96249Y-49966D01*
X96332Y-50049D01*
X96441Y-50094D01*
X96558Y-50095D01*
X96666Y-50050D01*
X96735Y-49981D01*
X96749Y-50016D01*
X96832Y-50099D01*
X96941Y-50144D01*
X97058Y-50145D01*
X97166Y-50100D01*
X97249Y-50017D01*
X97294Y-49908D01*
X97295Y-49791D01*
X97250Y-49683D01*
X97167Y-49600D01*
X97058Y-49555D01*
X96941Y-49554D01*
X96833Y-49599D01*
X96764Y-49668D01*
X96760Y-49657D01*
X96799Y-49617D01*
X96844Y-49508D01*
X96845Y-49429D01*
X96916Y-49400D01*
X96999Y-49317D01*
X97044Y-49208D01*
X97045Y-49091D01*
X97000Y-48983D01*
X96917Y-48900D01*
X96808Y-48855D01*
X96795Y-48855D01*
X96795Y-48845D01*
X96808Y-48845D01*
X96916Y-48800D01*
X96999Y-48717D01*
X97044Y-48608D01*
X97045Y-48491D01*
X97000Y-48383D01*
X96917Y-48300D01*
X96820Y-48260D01*
X97463Y-48260D01*
X97954Y-48751D01*
X97954Y-48808D01*
X97999Y-48916D01*
X98082Y-48999D01*
X98191Y-49044D01*
X98308Y-49045D01*
X98416Y-49000D01*
X98499Y-48917D01*
X98544Y-48808D01*
X98545Y-48691D01*
X98500Y-48583D01*
X98492Y-48575D01*
X98499Y-48567D01*
X98544Y-48458D01*
X98545Y-48341D01*
X98500Y-48233D01*
X98492Y-48225D01*
X98499Y-48217D01*
X98544Y-48108D01*
X98545Y-47991D01*
X98500Y-47883D01*
X98492Y-47875D01*
X98499Y-47867D01*
X98544Y-47758D01*
X98545Y-47641D01*
X98500Y-47533D01*
X98492Y-47525D01*
X98499Y-47517D01*
X98544Y-47408D01*
X98545Y-47291D01*
X98500Y-47183D01*
X98492Y-47175D01*
X98499Y-47167D01*
X98544Y-47058D01*
X98545Y-46941D01*
X98500Y-46833D01*
X98492Y-46825D01*
X98499Y-46817D01*
X98544Y-46708D01*
X98545Y-46591D01*
X98500Y-46483D01*
X98492Y-46475D01*
X98499Y-46467D01*
X98544Y-46358D01*
X98545Y-46259D01*
X98566Y-46250D01*
X98624Y-46192D01*
X98632Y-46199D01*
X98741Y-46244D01*
X98858Y-46245D01*
X98966Y-46200D01*
X99049Y-46117D01*
X99094Y-46008D01*
X99095Y-45891D01*
X99050Y-45783D01*
X98967Y-45700D01*
X98858Y-45655D01*
X98791Y-45654D01*
X99374Y-45072D01*
X101048Y-45072D01*
X101030Y-45116D01*
X101029Y-45183D01*
X101029Y-45783D01*
X101055Y-45846D01*
X101103Y-45894D01*
X101166Y-45919D01*
X101233Y-45920D01*
X101833Y-45920D01*
X101896Y-45894D01*
X101944Y-45846D01*
X101969Y-45783D01*
X101970Y-45716D01*
X101970Y-45116D01*
X101944Y-45053D01*
X101896Y-45005D01*
X101833Y-44980D01*
X101816Y-44980D01*
X101901Y-44895D01*
X101958Y-44895D01*
X102066Y-44850D01*
X102149Y-44767D01*
X102194Y-44658D01*
X102195Y-44541D01*
X102195Y-45090D01*
X102101Y-45183D01*
X102030Y-45356D01*
X102029Y-45543D01*
X102101Y-45715D01*
X102233Y-45848D01*
X102406Y-45919D01*
X102593Y-45920D01*
X102765Y-45848D01*
X102898Y-45716D01*
X102969Y-45543D01*
X102970Y-45356D01*
X102970Y-46356D01*
X102898Y-46184D01*
X102766Y-46051D01*
X102593Y-45980D01*
X102406Y-45979D01*
X102234Y-46051D01*
X102101Y-46183D01*
X102030Y-46356D01*
X102029Y-46543D01*
X102079Y-46663D01*
X102058Y-46655D01*
X101941Y-46654D01*
X101920Y-46663D01*
X101969Y-46543D01*
X101970Y-46356D01*
X101898Y-46184D01*
X101766Y-46051D01*
X101593Y-45980D01*
X101406Y-45979D01*
X101234Y-46051D01*
X101101Y-46183D01*
X101030Y-46356D01*
X101029Y-46543D01*
X101101Y-46715D01*
X101233Y-46848D01*
X101406Y-46919D01*
X101593Y-46920D01*
X101713Y-46870D01*
X101705Y-46891D01*
X101704Y-47008D01*
X101713Y-47029D01*
X101593Y-46980D01*
X101406Y-46979D01*
X101234Y-47051D01*
X101101Y-47183D01*
X101030Y-47356D01*
X101029Y-47543D01*
X101101Y-47715D01*
X101233Y-47848D01*
X101406Y-47919D01*
X101593Y-47920D01*
X101765Y-47848D01*
X101898Y-47716D01*
X101969Y-47543D01*
X101970Y-47356D01*
X101920Y-47236D01*
X101941Y-47244D01*
X102058Y-47245D01*
X102079Y-47236D01*
X102030Y-47356D01*
X102029Y-47543D01*
X102101Y-47715D01*
X102233Y-47848D01*
X102406Y-47919D01*
X102593Y-47920D01*
X102765Y-47848D01*
X102898Y-47716D01*
X102969Y-47543D01*
X102970Y-47356D01*
X102970Y-48356D01*
X102898Y-48184D01*
X102766Y-48051D01*
X102593Y-47980D01*
X102406Y-47979D01*
X102234Y-48051D01*
X102101Y-48183D01*
X102030Y-48356D01*
X102029Y-48543D01*
X102101Y-48715D01*
X102233Y-48848D01*
X102406Y-48919D01*
X102593Y-48920D01*
X102765Y-48848D01*
X102898Y-48716D01*
X102969Y-48543D01*
X102970Y-48356D01*
X102970Y-49356D01*
X102898Y-49184D01*
X102766Y-49051D01*
X102593Y-48980D01*
X102406Y-48979D01*
X102234Y-49051D01*
X102101Y-49183D01*
X102030Y-49356D01*
X102029Y-49543D01*
X102101Y-49715D01*
X102233Y-49848D01*
X102406Y-49919D01*
X102593Y-49920D01*
X102765Y-49848D01*
X102898Y-49716D01*
X102969Y-49543D01*
X102970Y-49356D01*
X102970Y-50356D01*
X102898Y-50184D01*
X102766Y-50051D01*
X102593Y-49980D01*
X102406Y-49979D01*
X102234Y-50051D01*
X102101Y-50183D01*
X102030Y-50356D01*
X102029Y-50543D01*
X102101Y-50715D01*
X102233Y-50848D01*
X102406Y-50919D01*
X102593Y-50920D01*
X102765Y-50848D01*
X102898Y-50716D01*
X102969Y-50543D01*
X102970Y-50356D01*
X102970Y-51356D01*
X102898Y-51184D01*
X102766Y-51051D01*
X102593Y-50980D01*
X102406Y-50979D01*
X102234Y-51051D01*
X102101Y-51183D01*
X102030Y-51356D01*
X102029Y-51543D01*
X102101Y-51715D01*
X102233Y-51848D01*
X102406Y-51919D01*
X102593Y-51920D01*
X102765Y-51848D01*
X102898Y-51716D01*
X102969Y-51543D01*
X102970Y-51356D01*
X102970Y-52356D01*
X102898Y-52184D01*
X102766Y-52051D01*
X102593Y-51980D01*
X102406Y-51979D01*
X102234Y-52051D01*
X102101Y-52183D01*
X102030Y-52356D01*
X102029Y-52543D01*
X102101Y-52715D01*
X102233Y-52848D01*
X102406Y-52919D01*
X102593Y-52920D01*
X102765Y-52848D01*
X102898Y-52716D01*
X102969Y-52543D01*
X102970Y-52356D01*
X102970Y-53356D01*
X102898Y-53184D01*
X102766Y-53051D01*
X102593Y-52980D01*
X102406Y-52979D01*
X102234Y-53051D01*
X102101Y-53183D01*
X102030Y-53356D01*
X102029Y-53543D01*
X102101Y-53715D01*
X102233Y-53848D01*
X102406Y-53919D01*
X102593Y-53920D01*
X102765Y-53848D01*
X102898Y-53716D01*
X102969Y-53543D01*
X102970Y-53356D01*
X102970Y-54356D01*
X102898Y-54184D01*
X102766Y-54051D01*
X102593Y-53980D01*
X102406Y-53979D01*
X102234Y-54051D01*
X102101Y-54183D01*
X102030Y-54356D01*
X102029Y-54543D01*
X102101Y-54715D01*
X102233Y-54848D01*
X102406Y-54919D01*
X102593Y-54920D01*
X102765Y-54848D01*
X102898Y-54716D01*
X102969Y-54543D01*
X102970Y-54356D01*
X102970Y-58705D01*
X102897Y-58705D01*
X102897Y-57881D01*
X102897Y-56181D01*
X102886Y-55963D01*
X102824Y-55812D01*
X102728Y-55784D01*
X102658Y-55855D01*
X102658Y-55714D01*
X102630Y-55618D01*
X102424Y-55545D01*
X102206Y-55556D01*
X102055Y-55618D01*
X102027Y-55714D01*
X102343Y-56029D01*
X102658Y-55714D01*
X102658Y-55855D01*
X102413Y-56100D01*
X102728Y-56415D01*
X102824Y-56387D01*
X102897Y-56181D01*
X102897Y-57881D01*
X102886Y-57663D01*
X102824Y-57512D01*
X102728Y-57484D01*
X102658Y-57555D01*
X102658Y-57414D01*
X102658Y-56485D01*
X102343Y-56170D01*
X102272Y-56241D01*
X102272Y-56100D01*
X101970Y-55797D01*
X101970Y-54356D01*
X101970Y-53356D01*
X101970Y-52356D01*
X101970Y-51356D01*
X101970Y-50356D01*
X101970Y-49356D01*
X101970Y-48356D01*
X101898Y-48184D01*
X101766Y-48051D01*
X101593Y-47980D01*
X101406Y-47979D01*
X101234Y-48051D01*
X101101Y-48183D01*
X101030Y-48356D01*
X101029Y-48543D01*
X101101Y-48715D01*
X101233Y-48848D01*
X101406Y-48919D01*
X101593Y-48920D01*
X101765Y-48848D01*
X101898Y-48716D01*
X101969Y-48543D01*
X101970Y-48356D01*
X101970Y-49356D01*
X101898Y-49184D01*
X101766Y-49051D01*
X101593Y-48980D01*
X101406Y-48979D01*
X101234Y-49051D01*
X101101Y-49183D01*
X101030Y-49356D01*
X101029Y-49543D01*
X101101Y-49715D01*
X101233Y-49848D01*
X101406Y-49919D01*
X101593Y-49920D01*
X101765Y-49848D01*
X101898Y-49716D01*
X101969Y-49543D01*
X101970Y-49356D01*
X101970Y-50356D01*
X101898Y-50184D01*
X101766Y-50051D01*
X101593Y-49980D01*
X101406Y-49979D01*
X101234Y-50051D01*
X101101Y-50183D01*
X101030Y-50356D01*
X101029Y-50543D01*
X101101Y-50715D01*
X101233Y-50848D01*
X101406Y-50919D01*
X101593Y-50920D01*
X101765Y-50848D01*
X101898Y-50716D01*
X101969Y-50543D01*
X101970Y-50356D01*
X101970Y-51356D01*
X101898Y-51184D01*
X101766Y-51051D01*
X101593Y-50980D01*
X101406Y-50979D01*
X101234Y-51051D01*
X101101Y-51183D01*
X101030Y-51356D01*
X101029Y-51543D01*
X101101Y-51715D01*
X101233Y-51848D01*
X101406Y-51919D01*
X101593Y-51920D01*
X101765Y-51848D01*
X101898Y-51716D01*
X101969Y-51543D01*
X101970Y-51356D01*
X101970Y-52356D01*
X101898Y-52184D01*
X101766Y-52051D01*
X101593Y-51980D01*
X101406Y-51979D01*
X101234Y-52051D01*
X101101Y-52183D01*
X101030Y-52356D01*
X101029Y-52543D01*
X101101Y-52715D01*
X101233Y-52848D01*
X101406Y-52919D01*
X101593Y-52920D01*
X101765Y-52848D01*
X101898Y-52716D01*
X101969Y-52543D01*
X101970Y-52356D01*
X101970Y-53356D01*
X101898Y-53184D01*
X101766Y-53051D01*
X101593Y-52980D01*
X101406Y-52979D01*
X101234Y-53051D01*
X101101Y-53183D01*
X101030Y-53356D01*
X101029Y-53543D01*
X101101Y-53715D01*
X101233Y-53848D01*
X101406Y-53919D01*
X101593Y-53920D01*
X101765Y-53848D01*
X101898Y-53716D01*
X101969Y-53543D01*
X101970Y-53356D01*
X101970Y-54356D01*
X101898Y-54184D01*
X101766Y-54051D01*
X101593Y-53980D01*
X101406Y-53979D01*
X101234Y-54051D01*
X101101Y-54183D01*
X101030Y-54356D01*
X101029Y-54543D01*
X101101Y-54715D01*
X101233Y-54848D01*
X101406Y-54919D01*
X101593Y-54920D01*
X101765Y-54848D01*
X101898Y-54716D01*
X101969Y-54543D01*
X101970Y-54356D01*
X101970Y-55797D01*
X101957Y-55784D01*
X101861Y-55812D01*
X101788Y-56018D01*
X101799Y-56236D01*
X101861Y-56387D01*
X101957Y-56415D01*
X102272Y-56100D01*
X102272Y-56241D01*
X102027Y-56485D01*
X102055Y-56581D01*
X102261Y-56654D01*
X102479Y-56643D01*
X102630Y-56581D01*
X102658Y-56485D01*
X102658Y-57414D01*
X102630Y-57318D01*
X102424Y-57245D01*
X102206Y-57256D01*
X102055Y-57318D01*
X102027Y-57414D01*
X102343Y-57729D01*
X102658Y-57414D01*
X102658Y-57555D01*
X102413Y-57800D01*
X102728Y-58115D01*
X102824Y-58087D01*
X102897Y-57881D01*
X102897Y-58705D01*
X102658Y-58705D01*
X102658Y-58185D01*
X102343Y-57870D01*
X102272Y-57941D01*
X102272Y-57800D01*
X101957Y-57484D01*
X101861Y-57512D01*
X101788Y-57718D01*
X101799Y-57936D01*
X101861Y-58087D01*
X101957Y-58115D01*
X102272Y-57800D01*
X102272Y-57941D01*
X102027Y-58185D01*
X102055Y-58281D01*
X102261Y-58354D01*
X102479Y-58343D01*
X102630Y-58281D01*
X102658Y-58185D01*
X102658Y-58705D01*
X100727Y-58705D01*
X100727Y-57706D01*
X100727Y-56006D01*
X100655Y-55834D01*
X100523Y-55701D01*
X100350Y-55630D01*
X100245Y-55629D01*
X100245Y-49941D01*
X100200Y-49833D01*
X100117Y-49750D01*
X100008Y-49705D01*
X99891Y-49704D01*
X99783Y-49749D01*
X99722Y-49810D01*
X99722Y-49138D01*
X99722Y-47062D01*
X99706Y-46981D01*
X99706Y-46981D01*
X99694Y-46965D01*
X99695Y-46891D01*
X99650Y-46783D01*
X99567Y-46700D01*
X99458Y-46655D01*
X99341Y-46654D01*
X99233Y-46699D01*
X99225Y-46707D01*
X99217Y-46700D01*
X99108Y-46655D01*
X98991Y-46654D01*
X98883Y-46699D01*
X98800Y-46782D01*
X98755Y-46891D01*
X98754Y-47008D01*
X98799Y-47116D01*
X98882Y-47199D01*
X98991Y-47244D01*
X99048Y-47244D01*
X99140Y-47336D01*
X99140Y-47655D01*
X99041Y-47654D01*
X98933Y-47699D01*
X98850Y-47782D01*
X98805Y-47891D01*
X98804Y-48008D01*
X98849Y-48116D01*
X98932Y-48199D01*
X99041Y-48244D01*
X99140Y-48245D01*
X99140Y-48655D01*
X99041Y-48654D01*
X98933Y-48699D01*
X98850Y-48782D01*
X98805Y-48891D01*
X98805Y-48948D01*
X98053Y-49699D01*
X98007Y-49767D01*
X97992Y-49848D01*
X97992Y-52511D01*
X97545Y-52957D01*
X97545Y-52141D01*
X97500Y-52033D01*
X97417Y-51950D01*
X97308Y-51905D01*
X97191Y-51904D01*
X97145Y-51924D01*
X97145Y-50891D01*
X97100Y-50783D01*
X97017Y-50700D01*
X96908Y-50655D01*
X96844Y-50654D01*
X96845Y-50591D01*
X96800Y-50483D01*
X96717Y-50400D01*
X96608Y-50355D01*
X96491Y-50354D01*
X96383Y-50399D01*
X96325Y-50457D01*
X96317Y-50450D01*
X96208Y-50405D01*
X96109Y-50404D01*
X96100Y-50383D01*
X96017Y-50300D01*
X95908Y-50255D01*
X95791Y-50254D01*
X95683Y-50299D01*
X95600Y-50382D01*
X95555Y-50491D01*
X95554Y-50608D01*
X95599Y-50716D01*
X95682Y-50799D01*
X95791Y-50844D01*
X95890Y-50845D01*
X95899Y-50866D01*
X95982Y-50949D01*
X96091Y-50994D01*
X96208Y-50995D01*
X96316Y-50950D01*
X96374Y-50892D01*
X96382Y-50899D01*
X96491Y-50944D01*
X96555Y-50945D01*
X96554Y-50990D01*
X96533Y-50999D01*
X96450Y-51082D01*
X96440Y-51105D01*
X96341Y-51104D01*
X96233Y-51149D01*
X96150Y-51232D01*
X96105Y-51341D01*
X96104Y-51458D01*
X96149Y-51566D01*
X96232Y-51649D01*
X96341Y-51694D01*
X96458Y-51695D01*
X96566Y-51650D01*
X96649Y-51567D01*
X96659Y-51544D01*
X96758Y-51545D01*
X96866Y-51500D01*
X96949Y-51417D01*
X96994Y-51308D01*
X96995Y-51209D01*
X97016Y-51200D01*
X97099Y-51117D01*
X97144Y-51008D01*
X97145Y-50891D01*
X97145Y-51924D01*
X97083Y-51949D01*
X97000Y-52032D01*
X96955Y-52141D01*
X96954Y-52258D01*
X96999Y-52366D01*
X97082Y-52449D01*
X97191Y-52494D01*
X97308Y-52495D01*
X97416Y-52450D01*
X97499Y-52367D01*
X97544Y-52258D01*
X97545Y-52141D01*
X97545Y-52957D01*
X95825Y-54678D01*
X93737Y-54678D01*
X93744Y-54658D01*
X93745Y-54541D01*
X93700Y-54433D01*
X93617Y-54350D01*
X93508Y-54305D01*
X93391Y-54304D01*
X93283Y-54349D01*
X93200Y-54432D01*
X93155Y-54541D01*
X93154Y-54658D01*
X93163Y-54678D01*
X89245Y-54678D01*
X89245Y-50491D01*
X89200Y-50383D01*
X89117Y-50300D01*
X89008Y-50255D01*
X88891Y-50254D01*
X88783Y-50299D01*
X88775Y-50307D01*
X88767Y-50300D01*
X88658Y-50255D01*
X88541Y-50254D01*
X88433Y-50299D01*
X88425Y-50307D01*
X88417Y-50300D01*
X88308Y-50255D01*
X88191Y-50254D01*
X88083Y-50299D01*
X88075Y-50307D01*
X88067Y-50300D01*
X87958Y-50255D01*
X87841Y-50254D01*
X87733Y-50299D01*
X87650Y-50382D01*
X87605Y-50491D01*
X87604Y-50608D01*
X87649Y-50716D01*
X87732Y-50799D01*
X87793Y-50825D01*
X87733Y-50849D01*
X87650Y-50932D01*
X87605Y-51041D01*
X87604Y-51158D01*
X87649Y-51266D01*
X87732Y-51349D01*
X87841Y-51394D01*
X87958Y-51395D01*
X88066Y-51350D01*
X88149Y-51267D01*
X88179Y-51194D01*
X88258Y-51195D01*
X88366Y-51150D01*
X88449Y-51067D01*
X88494Y-50958D01*
X88495Y-50841D01*
X88487Y-50822D01*
X88541Y-50844D01*
X88658Y-50845D01*
X88766Y-50800D01*
X88774Y-50792D01*
X88782Y-50799D01*
X88891Y-50844D01*
X89008Y-50845D01*
X89116Y-50800D01*
X89199Y-50717D01*
X89244Y-50608D01*
X89245Y-50491D01*
X89245Y-54678D01*
X88295Y-54678D01*
X88295Y-51691D01*
X88250Y-51583D01*
X88167Y-51500D01*
X88058Y-51455D01*
X87941Y-51454D01*
X87833Y-51499D01*
X87750Y-51582D01*
X87705Y-51691D01*
X87704Y-51808D01*
X87749Y-51916D01*
X87832Y-51999D01*
X87941Y-52044D01*
X88058Y-52045D01*
X88166Y-52000D01*
X88249Y-51917D01*
X88294Y-51808D01*
X88295Y-51691D01*
X88295Y-54678D01*
X87095Y-54678D01*
X87095Y-50691D01*
X87050Y-50583D01*
X86967Y-50500D01*
X86858Y-50455D01*
X86741Y-50454D01*
X86633Y-50499D01*
X86550Y-50582D01*
X86505Y-50691D01*
X86504Y-50808D01*
X86549Y-50916D01*
X86632Y-50999D01*
X86741Y-51044D01*
X86858Y-51045D01*
X86966Y-51000D01*
X87049Y-50917D01*
X87094Y-50808D01*
X87095Y-50691D01*
X87095Y-54678D01*
X86995Y-54678D01*
X86995Y-54141D01*
X86950Y-54033D01*
X86867Y-53950D01*
X86758Y-53905D01*
X86641Y-53904D01*
X86595Y-53924D01*
X86595Y-51191D01*
X86550Y-51083D01*
X86467Y-51000D01*
X86358Y-50955D01*
X86241Y-50954D01*
X86133Y-50999D01*
X86050Y-51082D01*
X86005Y-51191D01*
X86004Y-51308D01*
X86049Y-51416D01*
X86132Y-51499D01*
X86241Y-51544D01*
X86358Y-51545D01*
X86466Y-51500D01*
X86549Y-51417D01*
X86594Y-51308D01*
X86595Y-51191D01*
X86595Y-53924D01*
X86533Y-53949D01*
X86450Y-54032D01*
X86405Y-54141D01*
X86404Y-54258D01*
X86449Y-54366D01*
X86532Y-54449D01*
X86641Y-54494D01*
X86758Y-54495D01*
X86866Y-54450D01*
X86949Y-54367D01*
X86994Y-54258D01*
X86995Y-54141D01*
X86995Y-54678D01*
X86295Y-54678D01*
X86295Y-54291D01*
X86250Y-54183D01*
X86167Y-54100D01*
X86058Y-54055D01*
X86045Y-54055D01*
X86045Y-54041D01*
X86000Y-53933D01*
X85917Y-53850D01*
X85845Y-53820D01*
X85845Y-50241D01*
X85800Y-50133D01*
X85717Y-50050D01*
X85608Y-50005D01*
X85491Y-50004D01*
X85383Y-50049D01*
X85300Y-50132D01*
X85255Y-50241D01*
X85254Y-50358D01*
X85299Y-50466D01*
X85382Y-50549D01*
X85491Y-50594D01*
X85608Y-50595D01*
X85716Y-50550D01*
X85799Y-50467D01*
X85844Y-50358D01*
X85845Y-50241D01*
X85845Y-53820D01*
X85808Y-53805D01*
X85691Y-53804D01*
X85583Y-53849D01*
X85500Y-53932D01*
X85455Y-54041D01*
X85454Y-54158D01*
X85499Y-54266D01*
X85582Y-54349D01*
X85691Y-54394D01*
X85704Y-54394D01*
X85704Y-54408D01*
X85749Y-54516D01*
X85832Y-54599D01*
X85941Y-54644D01*
X86058Y-54645D01*
X86166Y-54600D01*
X86249Y-54517D01*
X86294Y-54408D01*
X86295Y-54291D01*
X86295Y-54678D01*
X85174Y-54678D01*
X84998Y-54501D01*
X84930Y-54455D01*
X84850Y-54440D01*
X84377Y-54440D01*
X84399Y-54417D01*
X84444Y-54308D01*
X84445Y-54191D01*
X84445Y-51441D01*
X84400Y-51333D01*
X84317Y-51250D01*
X84208Y-51205D01*
X84091Y-51204D01*
X83983Y-51249D01*
X83942Y-51290D01*
X83927Y-51290D01*
X83949Y-51267D01*
X83994Y-51158D01*
X83995Y-51041D01*
X83950Y-50933D01*
X83867Y-50850D01*
X83758Y-50805D01*
X83641Y-50804D01*
X83533Y-50849D01*
X83525Y-50857D01*
X83517Y-50850D01*
X83408Y-50805D01*
X83291Y-50804D01*
X83183Y-50849D01*
X83100Y-50932D01*
X83055Y-51041D01*
X83054Y-51158D01*
X83099Y-51266D01*
X83182Y-51349D01*
X83291Y-51394D01*
X83408Y-51395D01*
X83516Y-51350D01*
X83524Y-51342D01*
X83532Y-51349D01*
X83617Y-51385D01*
X82913Y-52090D01*
X82844Y-52090D01*
X82845Y-51991D01*
X82800Y-51883D01*
X82792Y-51875D01*
X82799Y-51867D01*
X82844Y-51758D01*
X82845Y-51641D01*
X82800Y-51533D01*
X82792Y-51525D01*
X82799Y-51517D01*
X82844Y-51408D01*
X82845Y-51291D01*
X82800Y-51183D01*
X82717Y-51100D01*
X82608Y-51055D01*
X82491Y-51054D01*
X82383Y-51099D01*
X82300Y-51182D01*
X82255Y-51291D01*
X82254Y-51408D01*
X82299Y-51516D01*
X82307Y-51524D01*
X82300Y-51532D01*
X82255Y-51641D01*
X82255Y-51694D01*
X82250Y-51683D01*
X82167Y-51600D01*
X82058Y-51555D01*
X81941Y-51554D01*
X81833Y-51599D01*
X81750Y-51682D01*
X81705Y-51791D01*
X81704Y-51908D01*
X81749Y-52016D01*
X81822Y-52090D01*
X80945Y-52090D01*
X80945Y-50791D01*
X80900Y-50683D01*
X80817Y-50600D01*
X80708Y-50555D01*
X80591Y-50554D01*
X80483Y-50599D01*
X80400Y-50682D01*
X80355Y-50791D01*
X80354Y-50908D01*
X80399Y-51016D01*
X80482Y-51099D01*
X80591Y-51144D01*
X80708Y-51145D01*
X80816Y-51100D01*
X80899Y-51017D01*
X80944Y-50908D01*
X80945Y-50791D01*
X80945Y-52090D01*
X80645Y-52090D01*
X80645Y-51441D01*
X80600Y-51333D01*
X80517Y-51250D01*
X80408Y-51205D01*
X80291Y-51204D01*
X80183Y-51249D01*
X80100Y-51332D01*
X80055Y-51441D01*
X80054Y-51558D01*
X80099Y-51666D01*
X80182Y-51749D01*
X80291Y-51794D01*
X80408Y-51795D01*
X80516Y-51750D01*
X80599Y-51667D01*
X80644Y-51558D01*
X80645Y-51441D01*
X80645Y-52090D01*
X79586Y-52090D01*
X79282Y-51785D01*
X79366Y-51750D01*
X79449Y-51667D01*
X79479Y-51594D01*
X79558Y-51595D01*
X79666Y-51550D01*
X79749Y-51467D01*
X79779Y-51394D01*
X79858Y-51395D01*
X79966Y-51350D01*
X80049Y-51267D01*
X80094Y-51158D01*
X80095Y-51041D01*
X80050Y-50933D01*
X80042Y-50925D01*
X80049Y-50917D01*
X80094Y-50808D01*
X80095Y-50691D01*
X80050Y-50583D01*
X79967Y-50500D01*
X79858Y-50455D01*
X79779Y-50454D01*
X79750Y-50383D01*
X79667Y-50300D01*
X79558Y-50255D01*
X79479Y-50254D01*
X79450Y-50183D01*
X79367Y-50100D01*
X79258Y-50055D01*
X79141Y-50054D01*
X79033Y-50099D01*
X78950Y-50182D01*
X78905Y-50291D01*
X78904Y-50408D01*
X78949Y-50516D01*
X79032Y-50599D01*
X79141Y-50644D01*
X79220Y-50645D01*
X79249Y-50716D01*
X79332Y-50799D01*
X79441Y-50844D01*
X79520Y-50845D01*
X79549Y-50916D01*
X79557Y-50924D01*
X79550Y-50932D01*
X79520Y-51005D01*
X79441Y-51004D01*
X79333Y-51049D01*
X79250Y-51132D01*
X79220Y-51205D01*
X79141Y-51204D01*
X79033Y-51249D01*
X78950Y-51332D01*
X78914Y-51417D01*
X78395Y-50898D01*
X78395Y-49741D01*
X78350Y-49633D01*
X78267Y-49550D01*
X78158Y-49505D01*
X78041Y-49504D01*
X77933Y-49549D01*
X77850Y-49632D01*
X77805Y-49741D01*
X77804Y-49858D01*
X77849Y-49966D01*
X77932Y-50049D01*
X78041Y-50094D01*
X78158Y-50095D01*
X78266Y-50050D01*
X78349Y-49967D01*
X78394Y-49858D01*
X78395Y-49741D01*
X78395Y-50898D01*
X78295Y-50798D01*
X78295Y-50741D01*
X78250Y-50633D01*
X78167Y-50550D01*
X78058Y-50505D01*
X77941Y-50504D01*
X77833Y-50549D01*
X77750Y-50632D01*
X77705Y-50741D01*
X77704Y-50858D01*
X77749Y-50966D01*
X77782Y-50999D01*
X77750Y-51032D01*
X77705Y-51141D01*
X77704Y-51258D01*
X77749Y-51366D01*
X77832Y-51449D01*
X77941Y-51494D01*
X77998Y-51494D01*
X79151Y-52648D01*
X79219Y-52694D01*
X79300Y-52710D01*
X83150Y-52710D01*
X83230Y-52694D01*
X83298Y-52648D01*
X83901Y-52045D01*
X83958Y-52045D01*
X84066Y-52000D01*
X84149Y-51917D01*
X84194Y-51808D01*
X84194Y-51795D01*
X84208Y-51795D01*
X84316Y-51750D01*
X84399Y-51667D01*
X84444Y-51558D01*
X84445Y-51441D01*
X84445Y-54191D01*
X84400Y-54083D01*
X84317Y-54000D01*
X84208Y-53955D01*
X84091Y-53954D01*
X83983Y-53999D01*
X83900Y-54082D01*
X83855Y-54191D01*
X83854Y-54308D01*
X83899Y-54416D01*
X83922Y-54440D01*
X83123Y-54440D01*
X83100Y-54383D01*
X83017Y-54300D01*
X82908Y-54255D01*
X82791Y-54254D01*
X82683Y-54299D01*
X82600Y-54382D01*
X82555Y-54491D01*
X82554Y-54608D01*
X82599Y-54716D01*
X82682Y-54799D01*
X82791Y-54844D01*
X82874Y-54845D01*
X82874Y-54845D01*
X82950Y-54860D01*
X84455Y-54860D01*
X84454Y-54958D01*
X84499Y-55066D01*
X84582Y-55149D01*
X84691Y-55194D01*
X84748Y-55194D01*
X84751Y-55198D01*
X84751Y-55198D01*
X84792Y-55225D01*
X84819Y-55244D01*
X84819Y-55244D01*
X84900Y-55260D01*
X87955Y-55260D01*
X87954Y-55324D01*
X87908Y-55305D01*
X87791Y-55304D01*
X87683Y-55349D01*
X87600Y-55432D01*
X87555Y-55540D01*
X85807Y-55540D01*
X85767Y-55500D01*
X85658Y-55455D01*
X85541Y-55454D01*
X85433Y-55499D01*
X85350Y-55582D01*
X85340Y-55605D01*
X85241Y-55604D01*
X85133Y-55649D01*
X85125Y-55657D01*
X85117Y-55650D01*
X85008Y-55605D01*
X84891Y-55604D01*
X84783Y-55649D01*
X84700Y-55732D01*
X84655Y-55841D01*
X84654Y-55958D01*
X84699Y-56066D01*
X84782Y-56149D01*
X84891Y-56194D01*
X85008Y-56195D01*
X85116Y-56150D01*
X85124Y-56142D01*
X85132Y-56149D01*
X85241Y-56194D01*
X85358Y-56195D01*
X85466Y-56150D01*
X85549Y-56067D01*
X85559Y-56044D01*
X85658Y-56045D01*
X85766Y-56000D01*
X85807Y-55960D01*
X87554Y-55960D01*
X87554Y-56008D01*
X87599Y-56116D01*
X87682Y-56199D01*
X87791Y-56244D01*
X87908Y-56245D01*
X88016Y-56200D01*
X88025Y-56191D01*
X88005Y-56241D01*
X88004Y-56358D01*
X88049Y-56466D01*
X88132Y-56549D01*
X88241Y-56594D01*
X88358Y-56595D01*
X88466Y-56550D01*
X88549Y-56467D01*
X88594Y-56358D01*
X88595Y-56260D01*
X96000Y-56260D01*
X96080Y-56244D01*
X96148Y-56198D01*
X99101Y-53245D01*
X99158Y-53245D01*
X99266Y-53200D01*
X99349Y-53117D01*
X99394Y-53008D01*
X99395Y-52891D01*
X99350Y-52783D01*
X99267Y-52700D01*
X99158Y-52655D01*
X99060Y-52654D01*
X99060Y-52286D01*
X99101Y-52245D01*
X99158Y-52245D01*
X99266Y-52200D01*
X99349Y-52117D01*
X99394Y-52008D01*
X99395Y-51891D01*
X99350Y-51783D01*
X99267Y-51700D01*
X99158Y-51655D01*
X99041Y-51654D01*
X98933Y-51699D01*
X98898Y-51734D01*
X98898Y-51165D01*
X98932Y-51199D01*
X99041Y-51244D01*
X99158Y-51245D01*
X99266Y-51200D01*
X99349Y-51117D01*
X99394Y-51008D01*
X99395Y-50891D01*
X99350Y-50783D01*
X99267Y-50700D01*
X99158Y-50655D01*
X99041Y-50654D01*
X98933Y-50699D01*
X98898Y-50734D01*
X98898Y-50448D01*
X99101Y-50245D01*
X99158Y-50245D01*
X99266Y-50200D01*
X99349Y-50117D01*
X99394Y-50008D01*
X99395Y-49891D01*
X99350Y-49783D01*
X99267Y-49700D01*
X99252Y-49694D01*
X99660Y-49286D01*
X99706Y-49218D01*
X99722Y-49138D01*
X99722Y-49810D01*
X99700Y-49832D01*
X99655Y-49941D01*
X99654Y-50058D01*
X99699Y-50166D01*
X99782Y-50249D01*
X99891Y-50294D01*
X100008Y-50295D01*
X100116Y-50250D01*
X100199Y-50167D01*
X100244Y-50058D01*
X100245Y-49941D01*
X100245Y-55629D01*
X100163Y-55629D01*
X99991Y-55701D01*
X99858Y-55833D01*
X99787Y-56006D01*
X99786Y-56193D01*
X99858Y-56365D01*
X99990Y-56498D01*
X100163Y-56569D01*
X100350Y-56570D01*
X100522Y-56498D01*
X100655Y-56366D01*
X100726Y-56193D01*
X100727Y-56006D01*
X100727Y-57706D01*
X100655Y-57534D01*
X100523Y-57401D01*
X100350Y-57330D01*
X100163Y-57329D01*
X99991Y-57401D01*
X99858Y-57533D01*
X99787Y-57706D01*
X99786Y-57893D01*
X99858Y-58065D01*
X99990Y-58198D01*
X100163Y-58269D01*
X100350Y-58270D01*
X100522Y-58198D01*
X100655Y-58066D01*
X100726Y-57893D01*
X100727Y-57706D01*
X100727Y-58705D01*
X99695Y-58705D01*
X99695Y-54891D01*
X99650Y-54783D01*
X99567Y-54700D01*
X99458Y-54655D01*
X99395Y-54654D01*
X99395Y-53891D01*
X99350Y-53783D01*
X99267Y-53700D01*
X99158Y-53655D01*
X99041Y-53654D01*
X98933Y-53699D01*
X98850Y-53782D01*
X98805Y-53891D01*
X98804Y-54008D01*
X98849Y-54116D01*
X98932Y-54199D01*
X99041Y-54244D01*
X99158Y-54245D01*
X99266Y-54200D01*
X99349Y-54117D01*
X99394Y-54008D01*
X99395Y-53891D01*
X99395Y-54654D01*
X99341Y-54654D01*
X99233Y-54699D01*
X99150Y-54782D01*
X99105Y-54891D01*
X99104Y-55008D01*
X99149Y-55116D01*
X99232Y-55199D01*
X99341Y-55244D01*
X99458Y-55245D01*
X99566Y-55200D01*
X99649Y-55117D01*
X99694Y-55008D01*
X99695Y-54891D01*
X99695Y-58705D01*
X99433Y-58705D01*
X99446Y-58685D01*
X99476Y-58614D01*
X99476Y-58614D01*
X99476Y-58614D01*
X99491Y-58538D01*
X99491Y-58538D01*
X99491Y-58538D01*
X99491Y-58537D01*
X99491Y-58500D01*
X99491Y-58462D01*
X99491Y-58461D01*
X99491Y-58461D01*
X99491Y-58461D01*
X99476Y-58385D01*
X99476Y-58385D01*
X99476Y-58385D01*
X99446Y-58314D01*
X99403Y-58250D01*
X99349Y-58196D01*
X99349Y-58196D01*
X99285Y-58153D01*
X99284Y-58153D01*
X99284Y-58152D01*
X99214Y-58123D01*
X99137Y-58108D01*
X99061Y-58108D01*
X99061Y-58108D01*
X98985Y-58123D01*
X98985Y-58123D01*
X98985Y-58123D01*
X98914Y-58153D01*
X98850Y-58196D01*
X98796Y-58250D01*
X98796Y-58250D01*
X98753Y-58314D01*
X98753Y-58315D01*
X98752Y-58315D01*
X98723Y-58385D01*
X98708Y-58462D01*
X98708Y-58500D01*
X98708Y-58537D01*
X98708Y-58538D01*
X98723Y-58614D01*
X98752Y-58684D01*
X98753Y-58684D01*
X98753Y-58685D01*
X98766Y-58705D01*
X98545Y-58705D01*
X98545Y-57291D01*
X98500Y-57183D01*
X98417Y-57100D01*
X98308Y-57055D01*
X98191Y-57054D01*
X98083Y-57099D01*
X98000Y-57182D01*
X97955Y-57291D01*
X97954Y-57408D01*
X97999Y-57516D01*
X98082Y-57599D01*
X98191Y-57644D01*
X98308Y-57645D01*
X98416Y-57600D01*
X98499Y-57517D01*
X98544Y-57408D01*
X98545Y-57291D01*
X98545Y-58705D01*
X97395Y-58705D01*
X97395Y-57091D01*
X97350Y-56983D01*
X97267Y-56900D01*
X97158Y-56855D01*
X97041Y-56854D01*
X96933Y-56899D01*
X96912Y-56920D01*
X96892Y-56900D01*
X96783Y-56855D01*
X96666Y-56854D01*
X96558Y-56899D01*
X96537Y-56920D01*
X96517Y-56900D01*
X96408Y-56855D01*
X96291Y-56854D01*
X96183Y-56899D01*
X96100Y-56982D01*
X96055Y-57091D01*
X96054Y-57208D01*
X96099Y-57316D01*
X96182Y-57399D01*
X96291Y-57444D01*
X96408Y-57445D01*
X96516Y-57400D01*
X96537Y-57379D01*
X96557Y-57399D01*
X96666Y-57444D01*
X96783Y-57445D01*
X96891Y-57400D01*
X96912Y-57379D01*
X96932Y-57399D01*
X97041Y-57444D01*
X97158Y-57445D01*
X97266Y-57400D01*
X97349Y-57317D01*
X97394Y-57208D01*
X97395Y-57091D01*
X97395Y-58705D01*
X95945Y-58705D01*
X95945Y-57091D01*
X95900Y-56983D01*
X95817Y-56900D01*
X95708Y-56855D01*
X95591Y-56854D01*
X95483Y-56899D01*
X95400Y-56982D01*
X95355Y-57091D01*
X95354Y-57208D01*
X95399Y-57316D01*
X95482Y-57399D01*
X95591Y-57444D01*
X95708Y-57445D01*
X95816Y-57400D01*
X95899Y-57317D01*
X95944Y-57208D01*
X95945Y-57091D01*
X95945Y-58705D01*
X95245Y-58705D01*
X95245Y-57091D01*
X95200Y-56983D01*
X95117Y-56900D01*
X95008Y-56855D01*
X94891Y-56854D01*
X94783Y-56899D01*
X94700Y-56982D01*
X94655Y-57091D01*
X94654Y-57208D01*
X94699Y-57316D01*
X94782Y-57399D01*
X94891Y-57444D01*
X95008Y-57445D01*
X95116Y-57400D01*
X95199Y-57317D01*
X95244Y-57208D01*
X95245Y-57091D01*
X95245Y-58705D01*
X94545Y-58705D01*
X94545Y-57091D01*
X94500Y-56983D01*
X94417Y-56900D01*
X94308Y-56855D01*
X94191Y-56854D01*
X94083Y-56899D01*
X94000Y-56982D01*
X93955Y-57091D01*
X93954Y-57208D01*
X93999Y-57316D01*
X94082Y-57399D01*
X94191Y-57444D01*
X94308Y-57445D01*
X94416Y-57400D01*
X94499Y-57317D01*
X94544Y-57208D01*
X94545Y-57091D01*
X94545Y-58705D01*
X93845Y-58705D01*
X93845Y-57091D01*
X93800Y-56983D01*
X93717Y-56900D01*
X93608Y-56855D01*
X93491Y-56854D01*
X93383Y-56899D01*
X93362Y-56920D01*
X93342Y-56900D01*
X93233Y-56855D01*
X93116Y-56854D01*
X93008Y-56899D01*
X92987Y-56920D01*
X92967Y-56900D01*
X92858Y-56855D01*
X92741Y-56854D01*
X92633Y-56899D01*
X92612Y-56920D01*
X92592Y-56900D01*
X92483Y-56855D01*
X92366Y-56854D01*
X92258Y-56899D01*
X92237Y-56920D01*
X92217Y-56900D01*
X92108Y-56855D01*
X91991Y-56854D01*
X91883Y-56899D01*
X91800Y-56982D01*
X91755Y-57091D01*
X91754Y-57208D01*
X91799Y-57316D01*
X91882Y-57399D01*
X91991Y-57444D01*
X92108Y-57445D01*
X92216Y-57400D01*
X92237Y-57379D01*
X92257Y-57399D01*
X92366Y-57444D01*
X92483Y-57445D01*
X92591Y-57400D01*
X92612Y-57379D01*
X92632Y-57399D01*
X92741Y-57444D01*
X92858Y-57445D01*
X92966Y-57400D01*
X92987Y-57379D01*
X93007Y-57399D01*
X93116Y-57444D01*
X93233Y-57445D01*
X93341Y-57400D01*
X93362Y-57379D01*
X93382Y-57399D01*
X93491Y-57444D01*
X93608Y-57445D01*
X93716Y-57400D01*
X93799Y-57317D01*
X93844Y-57208D01*
X93845Y-57091D01*
X93845Y-58705D01*
X91645Y-58705D01*
X91645Y-57091D01*
X91600Y-56983D01*
X91517Y-56900D01*
X91408Y-56855D01*
X91291Y-56854D01*
X91183Y-56899D01*
X91100Y-56982D01*
X91055Y-57091D01*
X91054Y-57208D01*
X91099Y-57316D01*
X91182Y-57399D01*
X91291Y-57444D01*
X91408Y-57445D01*
X91516Y-57400D01*
X91599Y-57317D01*
X91644Y-57208D01*
X91645Y-57091D01*
X91645Y-58705D01*
X91125Y-58705D01*
X91144Y-58658D01*
X91145Y-58541D01*
X91100Y-58433D01*
X91017Y-58350D01*
X90908Y-58305D01*
X90791Y-58304D01*
X90683Y-58349D01*
X90600Y-58432D01*
X90555Y-58541D01*
X90554Y-58658D01*
X90574Y-58705D01*
X89345Y-58705D01*
X89345Y-57291D01*
X89300Y-57183D01*
X89217Y-57100D01*
X89108Y-57055D01*
X88991Y-57054D01*
X88883Y-57099D01*
X88800Y-57182D01*
X88755Y-57291D01*
X88754Y-57408D01*
X88799Y-57516D01*
X88882Y-57599D01*
X88991Y-57644D01*
X89108Y-57645D01*
X89216Y-57600D01*
X89299Y-57517D01*
X89344Y-57408D01*
X89345Y-57291D01*
X89345Y-58705D01*
X87445Y-58705D01*
X87445Y-57366D01*
X87400Y-57258D01*
X87317Y-57175D01*
X87208Y-57130D01*
X87091Y-57129D01*
X87045Y-57149D01*
X87045Y-56491D01*
X87000Y-56383D01*
X86917Y-56300D01*
X86808Y-56255D01*
X86691Y-56254D01*
X86583Y-56299D01*
X86500Y-56382D01*
X86455Y-56491D01*
X86454Y-56608D01*
X86499Y-56716D01*
X86582Y-56799D01*
X86691Y-56844D01*
X86808Y-56845D01*
X86916Y-56800D01*
X86999Y-56717D01*
X87044Y-56608D01*
X87045Y-56491D01*
X87045Y-57149D01*
X86983Y-57174D01*
X86900Y-57257D01*
X86855Y-57366D01*
X86854Y-57483D01*
X86899Y-57591D01*
X86982Y-57674D01*
X87091Y-57719D01*
X87208Y-57720D01*
X87316Y-57675D01*
X87399Y-57592D01*
X87444Y-57483D01*
X87445Y-57366D01*
X87445Y-58705D01*
X85595Y-58705D01*
X85595Y-57541D01*
X85550Y-57433D01*
X85467Y-57350D01*
X85358Y-57305D01*
X85241Y-57304D01*
X85133Y-57349D01*
X85050Y-57432D01*
X85005Y-57541D01*
X85004Y-57658D01*
X85049Y-57766D01*
X85132Y-57849D01*
X85241Y-57894D01*
X85358Y-57895D01*
X85466Y-57850D01*
X85549Y-57767D01*
X85594Y-57658D01*
X85595Y-57541D01*
X85595Y-58705D01*
X84795Y-58705D01*
X84795Y-57141D01*
X84750Y-57033D01*
X84667Y-56950D01*
X84558Y-56905D01*
X84441Y-56904D01*
X84345Y-56944D01*
X84345Y-55741D01*
X84300Y-55633D01*
X84217Y-55550D01*
X84144Y-55520D01*
X84145Y-55441D01*
X84100Y-55333D01*
X84017Y-55250D01*
X83908Y-55205D01*
X83791Y-55204D01*
X83742Y-55225D01*
X83667Y-55150D01*
X83558Y-55105D01*
X83441Y-55104D01*
X83333Y-55149D01*
X83325Y-55157D01*
X83317Y-55150D01*
X83208Y-55105D01*
X83091Y-55104D01*
X82983Y-55149D01*
X82975Y-55157D01*
X82967Y-55150D01*
X82858Y-55105D01*
X82741Y-55104D01*
X82633Y-55149D01*
X82625Y-55157D01*
X82617Y-55150D01*
X82508Y-55105D01*
X82391Y-55104D01*
X82283Y-55149D01*
X82200Y-55232D01*
X82155Y-55341D01*
X82154Y-55455D01*
X82041Y-55454D01*
X81933Y-55499D01*
X81850Y-55582D01*
X81805Y-55691D01*
X81804Y-55808D01*
X81849Y-55916D01*
X81932Y-55999D01*
X82041Y-56044D01*
X82158Y-56045D01*
X82266Y-56000D01*
X82274Y-55992D01*
X82282Y-55999D01*
X82391Y-56044D01*
X82508Y-56045D01*
X82616Y-56000D01*
X82699Y-55917D01*
X82744Y-55808D01*
X82745Y-55694D01*
X82858Y-55695D01*
X82966Y-55650D01*
X82974Y-55642D01*
X82982Y-55649D01*
X83091Y-55694D01*
X83208Y-55695D01*
X83316Y-55650D01*
X83324Y-55642D01*
X83332Y-55649D01*
X83441Y-55694D01*
X83558Y-55695D01*
X83607Y-55674D01*
X83682Y-55749D01*
X83755Y-55779D01*
X83754Y-55858D01*
X83799Y-55966D01*
X83882Y-56049D01*
X83991Y-56094D01*
X84108Y-56095D01*
X84216Y-56050D01*
X84299Y-55967D01*
X84344Y-55858D01*
X84345Y-55741D01*
X84345Y-56944D01*
X84333Y-56949D01*
X84250Y-57032D01*
X84205Y-57141D01*
X84204Y-57258D01*
X84249Y-57366D01*
X84332Y-57449D01*
X84441Y-57494D01*
X84558Y-57495D01*
X84666Y-57450D01*
X84749Y-57367D01*
X84794Y-57258D01*
X84795Y-57141D01*
X84795Y-58705D01*
X84195Y-58705D01*
X84195Y-56941D01*
X84150Y-56833D01*
X84067Y-56750D01*
X83958Y-56705D01*
X83841Y-56704D01*
X83733Y-56749D01*
X83650Y-56832D01*
X83605Y-56941D01*
X83604Y-57058D01*
X83649Y-57166D01*
X83732Y-57249D01*
X83841Y-57294D01*
X83958Y-57295D01*
X84066Y-57250D01*
X84149Y-57167D01*
X84194Y-57058D01*
X84195Y-56941D01*
X84195Y-58705D01*
X83245Y-58705D01*
X83245Y-56891D01*
X83200Y-56783D01*
X83117Y-56700D01*
X83008Y-56655D01*
X82891Y-56654D01*
X82783Y-56699D01*
X82700Y-56782D01*
X82655Y-56891D01*
X82654Y-56954D01*
X82641Y-56954D01*
X82533Y-56999D01*
X82525Y-57007D01*
X82517Y-57000D01*
X82408Y-56955D01*
X82291Y-56954D01*
X82183Y-56999D01*
X82100Y-57082D01*
X82055Y-57191D01*
X82054Y-57308D01*
X82099Y-57416D01*
X82182Y-57499D01*
X82291Y-57544D01*
X82408Y-57545D01*
X82516Y-57500D01*
X82524Y-57492D01*
X82532Y-57499D01*
X82641Y-57544D01*
X82758Y-57545D01*
X82866Y-57500D01*
X82949Y-57417D01*
X82994Y-57308D01*
X82995Y-57245D01*
X83008Y-57245D01*
X83116Y-57200D01*
X83199Y-57117D01*
X83244Y-57008D01*
X83245Y-56891D01*
X83245Y-58705D01*
X81695Y-58705D01*
X81695Y-57241D01*
X81650Y-57133D01*
X81567Y-57050D01*
X81458Y-57005D01*
X81341Y-57004D01*
X81233Y-57049D01*
X81225Y-57057D01*
X81217Y-57050D01*
X81108Y-57005D01*
X80991Y-57004D01*
X80883Y-57049D01*
X80875Y-57057D01*
X80867Y-57050D01*
X80758Y-57005D01*
X80641Y-57004D01*
X80533Y-57049D01*
X80457Y-57125D01*
X80408Y-57105D01*
X80291Y-57104D01*
X80183Y-57149D01*
X80175Y-57157D01*
X80167Y-57150D01*
X80058Y-57105D01*
X79975Y-57104D01*
X79994Y-57058D01*
X79995Y-56941D01*
X79950Y-56833D01*
X79867Y-56750D01*
X79758Y-56705D01*
X79641Y-56704D01*
X79533Y-56749D01*
X79450Y-56832D01*
X79405Y-56941D01*
X79404Y-57058D01*
X79449Y-57166D01*
X79532Y-57249D01*
X79641Y-57294D01*
X79724Y-57295D01*
X79705Y-57341D01*
X79704Y-57458D01*
X79749Y-57566D01*
X79832Y-57649D01*
X79941Y-57694D01*
X80058Y-57695D01*
X80166Y-57650D01*
X80174Y-57642D01*
X80182Y-57649D01*
X80291Y-57694D01*
X80408Y-57695D01*
X80516Y-57650D01*
X80592Y-57574D01*
X80641Y-57594D01*
X80758Y-57595D01*
X80866Y-57550D01*
X80874Y-57542D01*
X80882Y-57549D01*
X80991Y-57594D01*
X81108Y-57595D01*
X81216Y-57550D01*
X81224Y-57542D01*
X81232Y-57549D01*
X81341Y-57594D01*
X81458Y-57595D01*
X81566Y-57550D01*
X81649Y-57467D01*
X81694Y-57358D01*
X81695Y-57241D01*
X81695Y-58705D01*
X80235Y-58705D01*
X80263Y-58652D01*
X80263Y-58651D01*
X80286Y-58577D01*
X80294Y-58501D01*
X80294Y-58500D01*
X80286Y-58423D01*
X80264Y-58350D01*
X80264Y-58350D01*
X80227Y-58281D01*
X80179Y-58222D01*
X80179Y-58222D01*
X80119Y-58172D01*
X80052Y-58136D01*
X80051Y-58136D01*
X79977Y-58113D01*
X79901Y-58105D01*
X79901Y-58105D01*
X79823Y-58113D01*
X79750Y-58135D01*
X79750Y-58135D01*
X79681Y-58172D01*
X79622Y-58220D01*
X79622Y-58220D01*
X79572Y-58280D01*
X79536Y-58347D01*
X79536Y-58348D01*
X79513Y-58422D01*
X79505Y-58498D01*
X79513Y-58576D01*
X79535Y-58649D01*
X79535Y-58649D01*
X79564Y-58705D01*
X78845Y-58705D01*
X78845Y-57941D01*
X78845Y-57391D01*
X78819Y-57328D01*
X78771Y-57280D01*
X78708Y-57255D01*
X78641Y-57254D01*
X78395Y-57254D01*
X78395Y-53741D01*
X78350Y-53633D01*
X78267Y-53550D01*
X78158Y-53505D01*
X78041Y-53504D01*
X77933Y-53549D01*
X77850Y-53632D01*
X77805Y-53741D01*
X77804Y-53858D01*
X77849Y-53966D01*
X77932Y-54049D01*
X78041Y-54094D01*
X78158Y-54095D01*
X78266Y-54050D01*
X78349Y-53967D01*
X78394Y-53858D01*
X78395Y-53741D01*
X78395Y-57254D01*
X78295Y-57254D01*
X78295Y-54841D01*
X78250Y-54733D01*
X78167Y-54650D01*
X78058Y-54605D01*
X77941Y-54604D01*
X77833Y-54649D01*
X77750Y-54732D01*
X77705Y-54841D01*
X77704Y-54958D01*
X77749Y-55066D01*
X77832Y-55149D01*
X77941Y-55194D01*
X78058Y-55195D01*
X78166Y-55150D01*
X78249Y-55067D01*
X78294Y-54958D01*
X78295Y-54841D01*
X78295Y-57254D01*
X78091Y-57254D01*
X78028Y-57280D01*
X77980Y-57328D01*
X77955Y-57391D01*
X77954Y-57458D01*
X77954Y-58008D01*
X77980Y-58071D01*
X78028Y-58119D01*
X78091Y-58144D01*
X78158Y-58145D01*
X78708Y-58145D01*
X78771Y-58119D01*
X78819Y-58071D01*
X78844Y-58008D01*
X78845Y-57941D01*
X78845Y-58705D01*
X77845Y-58705D01*
X77845Y-57611D01*
X77777Y-57448D01*
X77652Y-57322D01*
X77488Y-57255D01*
X77311Y-57254D01*
X77148Y-57322D01*
X77022Y-57447D01*
X76955Y-57611D01*
X76954Y-57788D01*
X77022Y-57951D01*
X77147Y-58077D01*
X77311Y-58144D01*
X77488Y-58145D01*
X77651Y-58077D01*
X77777Y-57952D01*
X77844Y-57788D01*
X77845Y-57611D01*
X77845Y-58705D01*
X76795Y-58705D01*
X76795Y-55191D01*
X76750Y-55083D01*
X76667Y-55000D01*
X76558Y-54955D01*
X76441Y-54954D01*
X76391Y-54975D01*
X76391Y-42637D01*
X76391Y-42600D01*
X76391Y-42562D01*
X76391Y-42561D01*
X76391Y-42561D01*
X76391Y-42561D01*
X76353Y-42370D01*
X76324Y-42300D01*
X76323Y-42299D01*
X76216Y-42138D01*
X76215Y-42137D01*
X76161Y-42084D01*
X76000Y-41976D01*
X75999Y-41975D01*
X75929Y-41946D01*
X75737Y-41908D01*
X75661Y-41908D01*
X75660Y-41909D01*
X75470Y-41946D01*
X75400Y-41975D01*
X75399Y-41976D01*
X75238Y-42083D01*
X75237Y-42084D01*
X75184Y-42138D01*
X75076Y-42299D01*
X75075Y-42300D01*
X75046Y-42370D01*
X75008Y-42562D01*
X75008Y-42600D01*
X75008Y-42637D01*
X75008Y-42638D01*
X75046Y-42829D01*
X75075Y-42899D01*
X75076Y-42900D01*
X75184Y-43061D01*
X75237Y-43115D01*
X75238Y-43116D01*
X75399Y-43223D01*
X75400Y-43224D01*
X75470Y-43253D01*
X75660Y-43290D01*
X75661Y-43291D01*
X75737Y-43291D01*
X75929Y-43253D01*
X75999Y-43224D01*
X76000Y-43223D01*
X76161Y-43115D01*
X76215Y-43062D01*
X76216Y-43061D01*
X76323Y-42900D01*
X76324Y-42899D01*
X76353Y-42829D01*
X76391Y-42638D01*
X76391Y-42638D01*
X76391Y-42638D01*
X76391Y-42637D01*
X76391Y-54975D01*
X76345Y-54994D01*
X76345Y-54911D01*
X76345Y-52611D01*
X76277Y-52448D01*
X76195Y-52365D01*
X76195Y-50241D01*
X76150Y-50133D01*
X76142Y-50125D01*
X76149Y-50117D01*
X76194Y-50008D01*
X76195Y-49891D01*
X76150Y-49783D01*
X76067Y-49700D01*
X75973Y-49660D01*
X75973Y-49062D01*
X75963Y-48993D01*
X75963Y-48992D01*
X75938Y-48921D01*
X75902Y-48860D01*
X75902Y-48860D01*
X75851Y-48803D01*
X75795Y-48761D01*
X75795Y-48761D01*
X75726Y-48728D01*
X75658Y-48711D01*
X75658Y-48711D01*
X75582Y-48706D01*
X75513Y-48716D01*
X75512Y-48716D01*
X75441Y-48741D01*
X75380Y-48777D01*
X75380Y-48777D01*
X75345Y-48809D01*
X75345Y-47591D01*
X75300Y-47483D01*
X75217Y-47400D01*
X75108Y-47355D01*
X74991Y-47354D01*
X74883Y-47399D01*
X74800Y-47482D01*
X74755Y-47591D01*
X74754Y-47708D01*
X74799Y-47816D01*
X74882Y-47899D01*
X74991Y-47944D01*
X75108Y-47945D01*
X75216Y-47900D01*
X75299Y-47817D01*
X75344Y-47708D01*
X75345Y-47591D01*
X75345Y-48809D01*
X75323Y-48828D01*
X75281Y-48884D01*
X75281Y-48884D01*
X75248Y-48953D01*
X75231Y-49021D01*
X75231Y-49021D01*
X75226Y-49097D01*
X75236Y-49166D01*
X75236Y-49167D01*
X75262Y-49238D01*
X75297Y-49299D01*
X75297Y-49299D01*
X75348Y-49356D01*
X75404Y-49398D01*
X75404Y-49398D01*
X75473Y-49431D01*
X75541Y-49448D01*
X75541Y-49448D01*
X75617Y-49453D01*
X75686Y-49443D01*
X75687Y-49443D01*
X75758Y-49417D01*
X75819Y-49382D01*
X75819Y-49382D01*
X75876Y-49331D01*
X75918Y-49275D01*
X75918Y-49275D01*
X75951Y-49206D01*
X75968Y-49138D01*
X75968Y-49138D01*
X75973Y-49062D01*
X75973Y-49660D01*
X75958Y-49655D01*
X75841Y-49654D01*
X75733Y-49699D01*
X75650Y-49782D01*
X75605Y-49891D01*
X75604Y-50008D01*
X75649Y-50116D01*
X75657Y-50124D01*
X75650Y-50132D01*
X75605Y-50241D01*
X75604Y-50358D01*
X75642Y-50448D01*
X75623Y-50445D01*
X75552Y-50447D01*
X75552Y-50447D01*
X75478Y-50464D01*
X75413Y-50493D01*
X75413Y-50493D01*
X75351Y-50538D01*
X75303Y-50589D01*
X75303Y-50589D01*
X75262Y-50654D01*
X75237Y-50721D01*
X75237Y-50721D01*
X75226Y-50785D01*
X75225Y-50796D01*
X75225Y-50796D01*
X75227Y-50867D01*
X75227Y-50867D01*
X75244Y-50941D01*
X75273Y-51006D01*
X75273Y-51006D01*
X75318Y-51068D01*
X75369Y-51116D01*
X75369Y-51116D01*
X75434Y-51157D01*
X75501Y-51182D01*
X75501Y-51182D01*
X75576Y-51194D01*
X75647Y-51192D01*
X75647Y-51192D01*
X75721Y-51175D01*
X75786Y-51146D01*
X75786Y-51146D01*
X75848Y-51101D01*
X75896Y-51050D01*
X75896Y-51050D01*
X75937Y-50985D01*
X75962Y-50919D01*
X75962Y-50918D01*
X75974Y-50843D01*
X75972Y-50772D01*
X75972Y-50772D01*
X75955Y-50698D01*
X75926Y-50633D01*
X75926Y-50633D01*
X75898Y-50594D01*
X75958Y-50595D01*
X76066Y-50550D01*
X76149Y-50467D01*
X76194Y-50358D01*
X76195Y-50241D01*
X76195Y-52365D01*
X76152Y-52322D01*
X75988Y-52255D01*
X75811Y-52254D01*
X75648Y-52322D01*
X75522Y-52447D01*
X75455Y-52611D01*
X75454Y-52788D01*
X75522Y-52951D01*
X75647Y-53077D01*
X75811Y-53144D01*
X75988Y-53145D01*
X76151Y-53077D01*
X76277Y-52952D01*
X76344Y-52788D01*
X76345Y-52611D01*
X76345Y-54911D01*
X76277Y-54748D01*
X76152Y-54622D01*
X75988Y-54555D01*
X75811Y-54554D01*
X75648Y-54622D01*
X75522Y-54747D01*
X75455Y-54911D01*
X75454Y-55088D01*
X75522Y-55251D01*
X75647Y-55377D01*
X75811Y-55444D01*
X75988Y-55445D01*
X76151Y-55377D01*
X76209Y-55319D01*
X76249Y-55416D01*
X76332Y-55499D01*
X76441Y-55544D01*
X76558Y-55545D01*
X76666Y-55500D01*
X76749Y-55417D01*
X76794Y-55308D01*
X76795Y-55191D01*
X76795Y-58705D01*
X76391Y-58705D01*
X76391Y-57237D01*
X76391Y-57200D01*
X76391Y-57162D01*
X76391Y-57161D01*
X76391Y-57161D01*
X76391Y-57161D01*
X76353Y-56970D01*
X76324Y-56900D01*
X76323Y-56899D01*
X76216Y-56738D01*
X76215Y-56737D01*
X76161Y-56684D01*
X76000Y-56576D01*
X75999Y-56575D01*
X75929Y-56546D01*
X75737Y-56508D01*
X75661Y-56508D01*
X75660Y-56509D01*
X75470Y-56546D01*
X75400Y-56575D01*
X75399Y-56576D01*
X75345Y-56613D01*
X75345Y-55241D01*
X75345Y-54691D01*
X75345Y-52941D01*
X75345Y-52391D01*
X75319Y-52328D01*
X75271Y-52280D01*
X75208Y-52255D01*
X75141Y-52254D01*
X74591Y-52254D01*
X74528Y-52280D01*
X74480Y-52328D01*
X74455Y-52391D01*
X74454Y-52458D01*
X74454Y-53008D01*
X74480Y-53071D01*
X74528Y-53119D01*
X74591Y-53144D01*
X74658Y-53145D01*
X75208Y-53145D01*
X75271Y-53119D01*
X75319Y-53071D01*
X75344Y-53008D01*
X75345Y-52941D01*
X75345Y-54691D01*
X75319Y-54628D01*
X75271Y-54580D01*
X75208Y-54555D01*
X75141Y-54554D01*
X74591Y-54554D01*
X74528Y-54580D01*
X74480Y-54628D01*
X74455Y-54691D01*
X74454Y-54758D01*
X74454Y-55308D01*
X74480Y-55371D01*
X74528Y-55419D01*
X74591Y-55444D01*
X74658Y-55445D01*
X75208Y-55445D01*
X75271Y-55419D01*
X75319Y-55371D01*
X75344Y-55308D01*
X75345Y-55241D01*
X75345Y-56613D01*
X75238Y-56683D01*
X75237Y-56684D01*
X75184Y-56738D01*
X75076Y-56899D01*
X75075Y-56900D01*
X75046Y-56970D01*
X75008Y-57162D01*
X75008Y-57200D01*
X75008Y-57237D01*
X75008Y-57238D01*
X75046Y-57429D01*
X75075Y-57499D01*
X75076Y-57500D01*
X75184Y-57661D01*
X75237Y-57715D01*
X75238Y-57716D01*
X75399Y-57823D01*
X75400Y-57824D01*
X75470Y-57853D01*
X75660Y-57890D01*
X75661Y-57891D01*
X75737Y-57891D01*
X75929Y-57853D01*
X75999Y-57824D01*
X76000Y-57823D01*
X76161Y-57715D01*
X76215Y-57662D01*
X76216Y-57661D01*
X76323Y-57500D01*
X76324Y-57499D01*
X76353Y-57429D01*
X76391Y-57238D01*
X76391Y-57238D01*
X76391Y-57238D01*
X76391Y-57237D01*
X76391Y-58705D01*
X74245Y-58705D01*
X74245Y-41195D01*
X76990Y-41195D01*
X76951Y-41233D01*
X76880Y-41406D01*
X76879Y-41593D01*
X76951Y-41765D01*
X77083Y-41898D01*
X77256Y-41969D01*
X77443Y-41970D01*
X77615Y-41898D01*
X77748Y-41766D01*
X77819Y-41593D01*
X77820Y-41406D01*
X77748Y-41234D01*
X77709Y-41195D01*
X77990Y-41195D01*
X77951Y-41233D01*
X77880Y-41406D01*
X77879Y-41593D01*
X77951Y-41765D01*
X78083Y-41898D01*
X78256Y-41969D01*
X78443Y-41970D01*
X78615Y-41898D01*
X78748Y-41766D01*
X78819Y-41593D01*
X78820Y-41406D01*
X78748Y-41234D01*
X78709Y-41195D01*
X78990Y-41195D01*
X78951Y-41233D01*
X78880Y-41406D01*
X78879Y-41593D01*
X78951Y-41765D01*
X79083Y-41898D01*
X79256Y-41969D01*
X79443Y-41970D01*
X79615Y-41898D01*
X79748Y-41766D01*
X79819Y-41593D01*
X79820Y-41406D01*
X79748Y-41234D01*
X79709Y-41195D01*
X79990Y-41195D01*
X79951Y-41233D01*
X79880Y-41406D01*
X79879Y-41593D01*
X79951Y-41765D01*
X80083Y-41898D01*
X80256Y-41969D01*
X80443Y-41970D01*
X80615Y-41898D01*
X80748Y-41766D01*
X80819Y-41593D01*
X80820Y-41406D01*
X80748Y-41234D01*
X80709Y-41195D01*
X80990Y-41195D01*
X80951Y-41233D01*
X80880Y-41406D01*
X80879Y-41593D01*
X80951Y-41765D01*
X81083Y-41898D01*
X81256Y-41969D01*
X81443Y-41970D01*
X81615Y-41898D01*
X81748Y-41766D01*
X81819Y-41593D01*
X81820Y-41406D01*
X81748Y-41234D01*
X81709Y-41195D01*
X81990Y-41195D01*
X81951Y-41233D01*
X81880Y-41406D01*
X81879Y-41593D01*
X81951Y-41765D01*
X82083Y-41898D01*
X82256Y-41969D01*
X82443Y-41970D01*
X82615Y-41898D01*
X82748Y-41766D01*
X82819Y-41593D01*
X82820Y-41406D01*
X82748Y-41234D01*
X82709Y-41195D01*
X82990Y-41195D01*
X82951Y-41233D01*
X82880Y-41406D01*
X82879Y-41593D01*
X82951Y-41765D01*
X83083Y-41898D01*
X83256Y-41969D01*
X83443Y-41970D01*
X83615Y-41898D01*
X83748Y-41766D01*
X83819Y-41593D01*
X83820Y-41406D01*
X83748Y-41234D01*
X83709Y-41195D01*
X83990Y-41195D01*
X83951Y-41233D01*
X83880Y-41406D01*
X83879Y-41593D01*
X83951Y-41765D01*
X84083Y-41898D01*
X84256Y-41969D01*
X84443Y-41970D01*
X84615Y-41898D01*
X84748Y-41766D01*
X84819Y-41593D01*
X84820Y-41406D01*
X84748Y-41234D01*
X84709Y-41195D01*
X84990Y-41195D01*
X84951Y-41233D01*
X84880Y-41406D01*
X84879Y-41593D01*
X84951Y-41765D01*
X85083Y-41898D01*
X85256Y-41969D01*
X85443Y-41970D01*
X85615Y-41898D01*
X85748Y-41766D01*
X85819Y-41593D01*
X85820Y-41406D01*
X85748Y-41234D01*
X85709Y-41195D01*
X85990Y-41195D01*
X85951Y-41233D01*
X85880Y-41406D01*
X85879Y-41593D01*
X85951Y-41765D01*
X86083Y-41898D01*
X86256Y-41969D01*
X86443Y-41970D01*
X86615Y-41898D01*
X86748Y-41766D01*
X86819Y-41593D01*
X86820Y-41406D01*
X86748Y-41234D01*
X86709Y-41195D01*
X86990Y-41195D01*
X86951Y-41233D01*
X86880Y-41406D01*
X86879Y-41593D01*
X86951Y-41765D01*
X87083Y-41898D01*
X87256Y-41969D01*
X87443Y-41970D01*
X87615Y-41898D01*
X87748Y-41766D01*
X87819Y-41593D01*
X87820Y-41406D01*
X87748Y-41234D01*
X87709Y-41195D01*
X87990Y-41195D01*
X87951Y-41233D01*
X87880Y-41406D01*
X87879Y-41593D01*
X87951Y-41765D01*
X88083Y-41898D01*
X88256Y-41969D01*
X88443Y-41970D01*
X88615Y-41898D01*
X88748Y-41766D01*
X88819Y-41593D01*
X88820Y-41406D01*
X88748Y-41234D01*
X88709Y-41195D01*
X88990Y-41195D01*
X88951Y-41233D01*
X88880Y-41406D01*
X88879Y-41593D01*
X88951Y-41765D01*
X89083Y-41898D01*
X89256Y-41969D01*
X89443Y-41970D01*
X89615Y-41898D01*
X89748Y-41766D01*
X89819Y-41593D01*
X89820Y-41406D01*
X89748Y-41234D01*
X89709Y-41195D01*
X89990Y-41195D01*
X89951Y-41233D01*
X89880Y-41406D01*
X89879Y-41593D01*
X89951Y-41765D01*
X90083Y-41898D01*
X90256Y-41969D01*
X90443Y-41970D01*
X90615Y-41898D01*
X90748Y-41766D01*
X90819Y-41593D01*
X90820Y-41406D01*
X90748Y-41234D01*
X90709Y-41195D01*
X90990Y-41195D01*
X90951Y-41233D01*
X90880Y-41406D01*
X90879Y-41593D01*
X90951Y-41765D01*
X91083Y-41898D01*
X91256Y-41969D01*
X91443Y-41970D01*
X91615Y-41898D01*
X91748Y-41766D01*
X91819Y-41593D01*
X91820Y-41406D01*
X91748Y-41234D01*
X91709Y-41195D01*
X91990Y-41195D01*
X91951Y-41233D01*
X91880Y-41406D01*
X91879Y-41593D01*
X91951Y-41765D01*
X92083Y-41898D01*
X92256Y-41969D01*
X92443Y-41970D01*
X92615Y-41898D01*
X92748Y-41766D01*
X92819Y-41593D01*
X92820Y-41406D01*
X92748Y-41234D01*
X92709Y-41195D01*
X92990Y-41195D01*
X92951Y-41233D01*
X92880Y-41406D01*
X92879Y-41593D01*
X92951Y-41765D01*
X93083Y-41898D01*
X93256Y-41969D01*
X93443Y-41970D01*
X93615Y-41898D01*
X93748Y-41766D01*
X93819Y-41593D01*
X93820Y-41406D01*
X93748Y-41234D01*
X93709Y-41195D01*
X93990Y-41195D01*
X93951Y-41233D01*
X93880Y-41406D01*
X93879Y-41593D01*
X93951Y-41765D01*
X94083Y-41898D01*
X94256Y-41969D01*
X94443Y-41970D01*
X94615Y-41898D01*
X94748Y-41766D01*
X94819Y-41593D01*
X94820Y-41406D01*
X94748Y-41234D01*
X94709Y-41195D01*
X94990Y-41195D01*
X94951Y-41233D01*
X94880Y-41406D01*
X94879Y-41593D01*
X94951Y-41765D01*
X95083Y-41898D01*
X95256Y-41969D01*
X95443Y-41970D01*
X95615Y-41898D01*
X95748Y-41766D01*
X95819Y-41593D01*
X95820Y-41406D01*
X95748Y-41234D01*
X95709Y-41195D01*
X95990Y-41195D01*
X95951Y-41233D01*
X95880Y-41406D01*
X95879Y-41593D01*
X95951Y-41765D01*
X96083Y-41898D01*
X96256Y-41969D01*
X96443Y-41970D01*
X96615Y-41898D01*
X96748Y-41766D01*
X96819Y-41593D01*
X96820Y-41406D01*
X96748Y-41234D01*
X96709Y-41195D01*
X96990Y-41195D01*
X96951Y-41233D01*
X96880Y-41406D01*
X96879Y-41593D01*
X96951Y-41765D01*
X97083Y-41898D01*
X97256Y-41969D01*
X97443Y-41970D01*
X97615Y-41898D01*
X97748Y-41766D01*
X97819Y-41593D01*
X97820Y-41406D01*
X97748Y-41234D01*
X97709Y-41195D01*
X97990Y-41195D01*
X97951Y-41233D01*
X97880Y-41406D01*
X97879Y-41593D01*
X97951Y-41765D01*
X98083Y-41898D01*
X98256Y-41969D01*
X98443Y-41970D01*
X98615Y-41898D01*
X98748Y-41766D01*
X98819Y-41593D01*
X98820Y-41406D01*
X98748Y-41234D01*
X98709Y-41195D01*
X98990Y-41195D01*
X98951Y-41233D01*
X98880Y-41406D01*
X98879Y-41593D01*
X98951Y-41765D01*
X99083Y-41898D01*
X99256Y-41969D01*
X99443Y-41970D01*
X99615Y-41898D01*
X99748Y-41766D01*
X99819Y-41593D01*
X99820Y-41406D01*
X99748Y-41234D01*
X99709Y-41195D01*
X99990Y-41195D01*
X99951Y-41233D01*
X99880Y-41406D01*
X99879Y-41593D01*
X99951Y-41765D01*
X100083Y-41898D01*
X100256Y-41969D01*
X100443Y-41970D01*
X100615Y-41898D01*
X100748Y-41766D01*
X100819Y-41593D01*
X100820Y-41406D01*
X100748Y-41234D01*
X100709Y-41195D01*
X100990Y-41195D01*
X100951Y-41233D01*
X100880Y-41406D01*
X100879Y-41593D01*
X100951Y-41765D01*
X101083Y-41898D01*
X101256Y-41969D01*
X101443Y-41970D01*
X101615Y-41898D01*
X101748Y-41766D01*
X101805Y-41628D01*
X101806Y-41636D01*
X101868Y-41787D01*
X101964Y-41815D01*
X102279Y-41500D01*
X102273Y-41494D01*
X102344Y-41423D01*
X102350Y-41429D01*
X102355Y-41423D01*
X102426Y-41494D01*
X102420Y-41500D01*
X102735Y-41815D01*
X102831Y-41787D01*
X102904Y-41581D01*
X102893Y-41363D01*
X102831Y-41212D01*
X102771Y-41195D01*
X105455Y-41195D01*
X105455Y-58705D01*
M02*
