G04 (created by PCBNEW (2013-04-19 BZR 4011)-stable) date 01/07/2013 10:58:15*
%MOIN*%
G04 Gerber Fmt 3.4, Leading zero omitted, Abs format*
%FSLAX34Y34*%
G01*
G70*
G90*
G04 APERTURE LIST*
%ADD10C,2.3622e-006*%
%ADD11C,0.005*%
%ADD12C,0.008*%
%ADD13C,0.012*%
%ADD14C,0.0028*%
%ADD15C,0.0045*%
G04 APERTURE END LIST*
G54D10*
G54D11*
X80900Y-52100D02*
X80900Y-55150D01*
X97500Y-52100D02*
X97500Y-55150D01*
X80900Y-52100D02*
X97500Y-52100D01*
X98900Y-55150D02*
X80100Y-55150D01*
X84500Y-58900D02*
X84500Y-58100D01*
X84500Y-58100D02*
X86300Y-58100D01*
X86300Y-58100D02*
X86300Y-58900D01*
X94500Y-58900D02*
X94500Y-58100D01*
X94500Y-58100D02*
X92700Y-58100D01*
X92700Y-58100D02*
X92700Y-58900D01*
X81700Y-58900D02*
X81700Y-58300D01*
X81700Y-58300D02*
X80100Y-58300D01*
X80100Y-58300D02*
X80100Y-43800D01*
X80100Y-43800D02*
X98900Y-43800D01*
X98900Y-43800D02*
X98900Y-58300D01*
X98900Y-58300D02*
X97300Y-58300D01*
X97300Y-58300D02*
X97300Y-58900D01*
X99500Y-43200D02*
X79500Y-43200D01*
X79500Y-58900D02*
X99500Y-58900D01*
X79500Y-43200D02*
X79500Y-58900D01*
X99500Y-43200D02*
X99500Y-58900D01*
X100150Y-44650D02*
X100150Y-45850D01*
X100150Y-45850D02*
X100450Y-45850D01*
X100450Y-45850D02*
X100450Y-44650D01*
X100450Y-44650D02*
X100150Y-44650D01*
X100050Y-49800D02*
X99550Y-49800D01*
X99550Y-49800D02*
X99550Y-49100D01*
X99550Y-49100D02*
X100050Y-49100D01*
X100450Y-49800D02*
X100950Y-49800D01*
X100950Y-49800D02*
X100950Y-49100D01*
X100950Y-49100D02*
X100450Y-49100D01*
X99650Y-46600D02*
X100850Y-46600D01*
X100850Y-46600D02*
X100850Y-46000D01*
X100850Y-46000D02*
X99650Y-46000D01*
X99650Y-46000D02*
X99650Y-46600D01*
X100850Y-46750D02*
X99650Y-46750D01*
X99650Y-46750D02*
X99650Y-47350D01*
X99650Y-47350D02*
X100850Y-47350D01*
X100850Y-47350D02*
X100850Y-46750D01*
X100850Y-48250D02*
X99650Y-48250D01*
X99650Y-48250D02*
X99650Y-48850D01*
X99650Y-48850D02*
X100850Y-48850D01*
X100850Y-48850D02*
X100850Y-48250D01*
X100850Y-47500D02*
X99650Y-47500D01*
X99650Y-47500D02*
X99650Y-48100D01*
X99650Y-48100D02*
X100850Y-48100D01*
X100850Y-48100D02*
X100850Y-47500D01*
X99550Y-43800D02*
X100750Y-43800D01*
X100750Y-43800D02*
X100750Y-43200D01*
X100750Y-43200D02*
X99550Y-43200D01*
X99550Y-43200D02*
X99550Y-43800D01*
X100750Y-43900D02*
X99550Y-43900D01*
X99550Y-43900D02*
X99550Y-44500D01*
X99550Y-44500D02*
X100750Y-44500D01*
X100750Y-44500D02*
X100750Y-43900D01*
X103100Y-42950D02*
X103000Y-42850D01*
X103000Y-42850D02*
X102300Y-42850D01*
X102300Y-42850D02*
X102200Y-42950D01*
X103100Y-44950D02*
X102200Y-44950D01*
X102200Y-44950D02*
X102200Y-44300D01*
X103100Y-43600D02*
X103100Y-42950D01*
X103100Y-42950D02*
X102200Y-42950D01*
X102200Y-42950D02*
X102200Y-43600D01*
X103100Y-44300D02*
X103100Y-44950D01*
X84800Y-58800D02*
X84700Y-58700D01*
X84700Y-58700D02*
X84700Y-58200D01*
X84700Y-58200D02*
X84800Y-58100D01*
X85200Y-58800D02*
X84800Y-58800D01*
X84800Y-58800D02*
X84800Y-58100D01*
X84800Y-58100D02*
X85200Y-58100D01*
X85600Y-58800D02*
X86000Y-58800D01*
X86000Y-58800D02*
X86000Y-58100D01*
X86000Y-58100D02*
X85600Y-58100D01*
X94200Y-58100D02*
X94300Y-58200D01*
X94300Y-58200D02*
X94300Y-58700D01*
X94300Y-58700D02*
X94200Y-58800D01*
X93800Y-58100D02*
X94200Y-58100D01*
X94200Y-58100D02*
X94200Y-58800D01*
X94200Y-58800D02*
X93800Y-58800D01*
X93400Y-58100D02*
X93000Y-58100D01*
X93000Y-58100D02*
X93000Y-58800D01*
X93000Y-58800D02*
X93400Y-58800D01*
X99650Y-55300D02*
X99550Y-55200D01*
X99550Y-55200D02*
X99550Y-54700D01*
X99550Y-54700D02*
X99650Y-54600D01*
X100050Y-55300D02*
X99650Y-55300D01*
X99650Y-55300D02*
X99650Y-54600D01*
X99650Y-54600D02*
X100050Y-54600D01*
X100450Y-55300D02*
X100850Y-55300D01*
X100850Y-55300D02*
X100850Y-54600D01*
X100850Y-54600D02*
X100450Y-54600D01*
X99650Y-53800D02*
X99550Y-53700D01*
X99550Y-53700D02*
X99550Y-53200D01*
X99550Y-53200D02*
X99650Y-53100D01*
X100050Y-53800D02*
X99650Y-53800D01*
X99650Y-53800D02*
X99650Y-53100D01*
X99650Y-53100D02*
X100050Y-53100D01*
X100450Y-53800D02*
X100850Y-53800D01*
X100850Y-53800D02*
X100850Y-53100D01*
X100850Y-53100D02*
X100450Y-53100D01*
X99650Y-52300D02*
X99550Y-52200D01*
X99550Y-52200D02*
X99550Y-51700D01*
X99550Y-51700D02*
X99650Y-51600D01*
X100050Y-52300D02*
X99650Y-52300D01*
X99650Y-52300D02*
X99650Y-51600D01*
X99650Y-51600D02*
X100050Y-51600D01*
X100450Y-52300D02*
X100850Y-52300D01*
X100850Y-52300D02*
X100850Y-51600D01*
X100850Y-51600D02*
X100450Y-51600D01*
X100850Y-53900D02*
X99650Y-53900D01*
X99650Y-53900D02*
X99650Y-54500D01*
X99650Y-54500D02*
X100850Y-54500D01*
X100850Y-54500D02*
X100850Y-53900D01*
X100850Y-52400D02*
X99650Y-52400D01*
X99650Y-52400D02*
X99650Y-53000D01*
X99650Y-53000D02*
X100850Y-53000D01*
X100850Y-53000D02*
X100850Y-52400D01*
X100850Y-50900D02*
X99650Y-50900D01*
X99650Y-50900D02*
X99650Y-51500D01*
X99650Y-51500D02*
X100850Y-51500D01*
X100850Y-51500D02*
X100850Y-50900D01*
X100850Y-50200D02*
X99650Y-50200D01*
X99650Y-50200D02*
X99650Y-50800D01*
X99650Y-50800D02*
X100850Y-50800D01*
X100850Y-50800D02*
X100850Y-50200D01*
X77200Y-50400D02*
X76000Y-50400D01*
X76000Y-50400D02*
X76000Y-51000D01*
X76000Y-51000D02*
X77200Y-51000D01*
X77200Y-51000D02*
X77200Y-50400D01*
X77200Y-49650D02*
X76000Y-49650D01*
X76000Y-49650D02*
X76000Y-50250D01*
X76000Y-50250D02*
X77200Y-50250D01*
X77200Y-50250D02*
X77200Y-49650D01*
X77200Y-48900D02*
X76000Y-48900D01*
X76000Y-48900D02*
X76000Y-49500D01*
X76000Y-49500D02*
X77200Y-49500D01*
X77200Y-49500D02*
X77200Y-48900D01*
X102600Y-56400D02*
X102600Y-56800D01*
X102600Y-56800D02*
X100000Y-56800D01*
X100000Y-56800D02*
X100000Y-56400D01*
X102600Y-55800D02*
X102600Y-55400D01*
X102600Y-55400D02*
X100000Y-55400D01*
X100000Y-55400D02*
X100000Y-55800D01*
G54D12*
X76950Y-46250D02*
X76950Y-47450D01*
X76950Y-47450D02*
X74150Y-47450D01*
X74150Y-47450D02*
X74150Y-46250D01*
X76950Y-45050D02*
X76950Y-44750D01*
X76950Y-44750D02*
X76350Y-43850D01*
X76350Y-43850D02*
X74750Y-43850D01*
X74750Y-43850D02*
X74150Y-44750D01*
X74150Y-44750D02*
X74150Y-45050D01*
G54D13*
X76400Y-55000D02*
G75*
G03X76400Y-55000I-1000J0D01*
G74*
G01*
X76400Y-55250D02*
X76150Y-55250D01*
X76150Y-55250D02*
X76150Y-54750D01*
X76150Y-54750D02*
X76400Y-54750D01*
X76400Y-52700D02*
G75*
G03X76400Y-52700I-1000J0D01*
G74*
G01*
X76400Y-52950D02*
X76150Y-52950D01*
X76150Y-52950D02*
X76150Y-52450D01*
X76150Y-52450D02*
X76400Y-52450D01*
X78900Y-57700D02*
G75*
G03X78900Y-57700I-1000J0D01*
G74*
G01*
X76900Y-57450D02*
X77150Y-57450D01*
X77150Y-57450D02*
X77150Y-57950D01*
X77150Y-57950D02*
X76900Y-57950D01*
G54D11*
X101450Y-44450D02*
X101450Y-43250D01*
X101450Y-43250D02*
X100850Y-43250D01*
X100850Y-43250D02*
X100850Y-44450D01*
X100850Y-44450D02*
X101450Y-44450D01*
X101550Y-43250D02*
X101550Y-44450D01*
X101550Y-44450D02*
X102150Y-44450D01*
X102150Y-44450D02*
X102150Y-43250D01*
X102150Y-43250D02*
X101550Y-43250D01*
X102600Y-58100D02*
X102600Y-58500D01*
X102600Y-58500D02*
X100000Y-58500D01*
X100000Y-58500D02*
X100000Y-58100D01*
X102600Y-57500D02*
X102600Y-57100D01*
X102600Y-57100D02*
X100000Y-57100D01*
X100000Y-57100D02*
X100000Y-57500D01*
G54D14*
X103300Y-54300D02*
X103500Y-54300D01*
X103500Y-54300D02*
X103500Y-54600D01*
X103500Y-54600D02*
X103300Y-54600D01*
X103100Y-54300D02*
X102900Y-54300D01*
X102900Y-54300D02*
X102900Y-54600D01*
X102900Y-54600D02*
X103100Y-54600D01*
X103300Y-53300D02*
X103500Y-53300D01*
X103500Y-53300D02*
X103500Y-53600D01*
X103500Y-53600D02*
X103300Y-53600D01*
X103100Y-53300D02*
X102900Y-53300D01*
X102900Y-53300D02*
X102900Y-53600D01*
X102900Y-53600D02*
X103100Y-53600D01*
X103300Y-52300D02*
X103500Y-52300D01*
X103500Y-52300D02*
X103500Y-52600D01*
X103500Y-52600D02*
X103300Y-52600D01*
X103100Y-52300D02*
X102900Y-52300D01*
X102900Y-52300D02*
X102900Y-52600D01*
X102900Y-52600D02*
X103100Y-52600D01*
X103300Y-51300D02*
X103500Y-51300D01*
X103500Y-51300D02*
X103500Y-51600D01*
X103500Y-51600D02*
X103300Y-51600D01*
X103100Y-51300D02*
X102900Y-51300D01*
X102900Y-51300D02*
X102900Y-51600D01*
X102900Y-51600D02*
X103100Y-51600D01*
X77750Y-53400D02*
X77950Y-53400D01*
X77950Y-53400D02*
X77950Y-53700D01*
X77950Y-53700D02*
X77750Y-53700D01*
X77550Y-53400D02*
X77350Y-53400D01*
X77350Y-53400D02*
X77350Y-53700D01*
X77350Y-53700D02*
X77550Y-53700D01*
X77750Y-53900D02*
X77950Y-53900D01*
X77950Y-53900D02*
X77950Y-54200D01*
X77950Y-54200D02*
X77750Y-54200D01*
X77550Y-53900D02*
X77350Y-53900D01*
X77350Y-53900D02*
X77350Y-54200D01*
X77350Y-54200D02*
X77550Y-54200D01*
X103100Y-45600D02*
X102900Y-45600D01*
X102900Y-45600D02*
X102900Y-45300D01*
X102900Y-45300D02*
X103100Y-45300D01*
X103300Y-45600D02*
X103500Y-45600D01*
X103500Y-45600D02*
X103500Y-45300D01*
X103500Y-45300D02*
X103300Y-45300D01*
G54D15*
X79358Y-58813D02*
X79444Y-58813D01*
X79444Y-58533D01*
X79195Y-58786D02*
X79204Y-58800D01*
X79230Y-58813D01*
X79247Y-58813D01*
X79272Y-58800D01*
X79290Y-58773D01*
X79298Y-58746D01*
X79307Y-58693D01*
X79307Y-58653D01*
X79298Y-58600D01*
X79290Y-58573D01*
X79272Y-58546D01*
X79247Y-58533D01*
X79230Y-58533D01*
X79204Y-58546D01*
X79195Y-58560D01*
X79118Y-58813D02*
X79118Y-58533D01*
X79058Y-58733D01*
X78998Y-58533D01*
X78998Y-58813D01*
X78921Y-58560D02*
X78912Y-58546D01*
X78895Y-58533D01*
X78852Y-58533D01*
X78835Y-58546D01*
X78827Y-58560D01*
X78818Y-58586D01*
X78818Y-58613D01*
X78827Y-58653D01*
X78930Y-58813D01*
X78818Y-58813D01*
X78707Y-58533D02*
X78690Y-58533D01*
X78672Y-58546D01*
X78664Y-58560D01*
X78655Y-58586D01*
X78647Y-58640D01*
X78647Y-58706D01*
X78655Y-58760D01*
X78664Y-58786D01*
X78672Y-58800D01*
X78690Y-58813D01*
X78707Y-58813D01*
X78724Y-58800D01*
X78732Y-58786D01*
X78741Y-58760D01*
X78750Y-58706D01*
X78750Y-58640D01*
X78741Y-58586D01*
X78732Y-58560D01*
X78724Y-58546D01*
X78707Y-58533D01*
X99440Y-45147D02*
X99426Y-45130D01*
X99400Y-45112D01*
X99360Y-45087D01*
X99346Y-45070D01*
X99346Y-45052D01*
X99413Y-45061D02*
X99400Y-45044D01*
X99373Y-45027D01*
X99320Y-45018D01*
X99226Y-45018D01*
X99173Y-45027D01*
X99146Y-45044D01*
X99133Y-45061D01*
X99133Y-45095D01*
X99146Y-45112D01*
X99173Y-45130D01*
X99226Y-45138D01*
X99320Y-45138D01*
X99373Y-45130D01*
X99400Y-45112D01*
X99413Y-45095D01*
X99413Y-45061D01*
X99413Y-45224D02*
X99413Y-45258D01*
X99400Y-45275D01*
X99386Y-45284D01*
X99346Y-45301D01*
X99293Y-45310D01*
X99186Y-45310D01*
X99160Y-45301D01*
X99146Y-45292D01*
X99133Y-45275D01*
X99133Y-45241D01*
X99146Y-45224D01*
X99160Y-45215D01*
X99186Y-45207D01*
X99253Y-45207D01*
X99280Y-45215D01*
X99293Y-45224D01*
X99306Y-45241D01*
X99306Y-45275D01*
X99293Y-45292D01*
X99280Y-45301D01*
X99253Y-45310D01*
X99133Y-45421D02*
X99133Y-45438D01*
X99146Y-45455D01*
X99160Y-45464D01*
X99186Y-45472D01*
X99240Y-45481D01*
X99306Y-45481D01*
X99360Y-45472D01*
X99386Y-45464D01*
X99400Y-45455D01*
X99413Y-45438D01*
X99413Y-45421D01*
X99400Y-45404D01*
X99386Y-45395D01*
X99360Y-45387D01*
X99306Y-45378D01*
X99240Y-45378D01*
X99186Y-45387D01*
X99160Y-45395D01*
X99146Y-45404D01*
X99133Y-45421D01*
X99266Y-49304D02*
X99266Y-49244D01*
X99413Y-49244D02*
X99133Y-49244D01*
X99133Y-49329D01*
X99413Y-49407D02*
X99413Y-49441D01*
X99400Y-49458D01*
X99386Y-49467D01*
X99346Y-49484D01*
X99293Y-49492D01*
X99186Y-49492D01*
X99160Y-49484D01*
X99146Y-49475D01*
X99133Y-49458D01*
X99133Y-49424D01*
X99146Y-49407D01*
X99160Y-49398D01*
X99186Y-49390D01*
X99253Y-49390D01*
X99280Y-49398D01*
X99293Y-49407D01*
X99306Y-49424D01*
X99306Y-49458D01*
X99293Y-49475D01*
X99280Y-49484D01*
X99253Y-49492D01*
X99133Y-49604D02*
X99133Y-49621D01*
X99146Y-49638D01*
X99160Y-49647D01*
X99186Y-49655D01*
X99240Y-49664D01*
X99306Y-49664D01*
X99360Y-49655D01*
X99386Y-49647D01*
X99400Y-49638D01*
X99413Y-49621D01*
X99413Y-49604D01*
X99400Y-49587D01*
X99386Y-49578D01*
X99360Y-49570D01*
X99306Y-49561D01*
X99240Y-49561D01*
X99186Y-49570D01*
X99160Y-49578D01*
X99146Y-49587D01*
X99133Y-49604D01*
X99413Y-46184D02*
X99280Y-46124D01*
X99413Y-46081D02*
X99133Y-46081D01*
X99133Y-46150D01*
X99146Y-46167D01*
X99160Y-46175D01*
X99186Y-46184D01*
X99226Y-46184D01*
X99253Y-46175D01*
X99266Y-46167D01*
X99280Y-46150D01*
X99280Y-46081D01*
X99413Y-46355D02*
X99413Y-46252D01*
X99413Y-46304D02*
X99133Y-46304D01*
X99173Y-46287D01*
X99200Y-46270D01*
X99213Y-46252D01*
X99253Y-46458D02*
X99240Y-46441D01*
X99226Y-46432D01*
X99200Y-46424D01*
X99186Y-46424D01*
X99160Y-46432D01*
X99146Y-46441D01*
X99133Y-46458D01*
X99133Y-46492D01*
X99146Y-46510D01*
X99160Y-46518D01*
X99186Y-46527D01*
X99200Y-46527D01*
X99226Y-46518D01*
X99240Y-46510D01*
X99253Y-46492D01*
X99253Y-46458D01*
X99266Y-46441D01*
X99280Y-46432D01*
X99306Y-46424D01*
X99360Y-46424D01*
X99386Y-46432D01*
X99400Y-46441D01*
X99413Y-46458D01*
X99413Y-46492D01*
X99400Y-46510D01*
X99386Y-46518D01*
X99360Y-46527D01*
X99306Y-46527D01*
X99280Y-46518D01*
X99266Y-46510D01*
X99253Y-46492D01*
X99315Y-47363D02*
X99375Y-47230D01*
X99418Y-47363D02*
X99418Y-47083D01*
X99350Y-47083D01*
X99332Y-47096D01*
X99324Y-47110D01*
X99315Y-47136D01*
X99315Y-47176D01*
X99324Y-47203D01*
X99332Y-47216D01*
X99350Y-47230D01*
X99418Y-47230D01*
X99144Y-47363D02*
X99247Y-47363D01*
X99195Y-47363D02*
X99195Y-47083D01*
X99212Y-47123D01*
X99230Y-47150D01*
X99247Y-47163D01*
X99058Y-47363D02*
X99024Y-47363D01*
X99007Y-47350D01*
X98998Y-47336D01*
X98981Y-47296D01*
X98972Y-47243D01*
X98972Y-47136D01*
X98981Y-47110D01*
X98990Y-47096D01*
X99007Y-47083D01*
X99041Y-47083D01*
X99058Y-47096D01*
X99067Y-47110D01*
X99075Y-47136D01*
X99075Y-47203D01*
X99067Y-47230D01*
X99058Y-47243D01*
X99041Y-47256D01*
X99007Y-47256D01*
X98990Y-47243D01*
X98981Y-47230D01*
X98972Y-47203D01*
X99413Y-48434D02*
X99280Y-48374D01*
X99413Y-48331D02*
X99133Y-48331D01*
X99133Y-48400D01*
X99146Y-48417D01*
X99160Y-48425D01*
X99186Y-48434D01*
X99226Y-48434D01*
X99253Y-48425D01*
X99266Y-48417D01*
X99280Y-48400D01*
X99280Y-48331D01*
X99413Y-48520D02*
X99413Y-48554D01*
X99400Y-48571D01*
X99386Y-48580D01*
X99346Y-48597D01*
X99293Y-48605D01*
X99186Y-48605D01*
X99160Y-48597D01*
X99146Y-48588D01*
X99133Y-48571D01*
X99133Y-48537D01*
X99146Y-48520D01*
X99160Y-48511D01*
X99186Y-48502D01*
X99253Y-48502D01*
X99280Y-48511D01*
X99293Y-48520D01*
X99306Y-48537D01*
X99306Y-48571D01*
X99293Y-48588D01*
X99280Y-48597D01*
X99253Y-48605D01*
X99133Y-48717D02*
X99133Y-48734D01*
X99146Y-48751D01*
X99160Y-48760D01*
X99186Y-48768D01*
X99240Y-48777D01*
X99306Y-48777D01*
X99360Y-48768D01*
X99386Y-48760D01*
X99400Y-48751D01*
X99413Y-48734D01*
X99413Y-48717D01*
X99400Y-48700D01*
X99386Y-48691D01*
X99360Y-48682D01*
X99306Y-48674D01*
X99240Y-48674D01*
X99186Y-48682D01*
X99160Y-48691D01*
X99146Y-48700D01*
X99133Y-48717D01*
X99413Y-47534D02*
X99280Y-47474D01*
X99413Y-47431D02*
X99133Y-47431D01*
X99133Y-47500D01*
X99146Y-47517D01*
X99160Y-47525D01*
X99186Y-47534D01*
X99226Y-47534D01*
X99253Y-47525D01*
X99266Y-47517D01*
X99280Y-47500D01*
X99280Y-47431D01*
X99413Y-47620D02*
X99413Y-47654D01*
X99400Y-47671D01*
X99386Y-47680D01*
X99346Y-47697D01*
X99293Y-47705D01*
X99186Y-47705D01*
X99160Y-47697D01*
X99146Y-47688D01*
X99133Y-47671D01*
X99133Y-47637D01*
X99146Y-47620D01*
X99160Y-47611D01*
X99186Y-47602D01*
X99253Y-47602D01*
X99280Y-47611D01*
X99293Y-47620D01*
X99306Y-47637D01*
X99306Y-47671D01*
X99293Y-47688D01*
X99280Y-47697D01*
X99253Y-47705D01*
X99413Y-47877D02*
X99413Y-47774D01*
X99413Y-47825D02*
X99133Y-47825D01*
X99173Y-47808D01*
X99200Y-47791D01*
X99213Y-47774D01*
X100265Y-43113D02*
X100325Y-42980D01*
X100368Y-43113D02*
X100368Y-42833D01*
X100300Y-42833D01*
X100282Y-42846D01*
X100274Y-42860D01*
X100265Y-42886D01*
X100265Y-42926D01*
X100274Y-42953D01*
X100282Y-42966D01*
X100300Y-42980D01*
X100368Y-42980D01*
X100180Y-43113D02*
X100145Y-43113D01*
X100128Y-43100D01*
X100120Y-43086D01*
X100102Y-43046D01*
X100094Y-42993D01*
X100094Y-42886D01*
X100102Y-42860D01*
X100111Y-42846D01*
X100128Y-42833D01*
X100162Y-42833D01*
X100180Y-42846D01*
X100188Y-42860D01*
X100197Y-42886D01*
X100197Y-42953D01*
X100188Y-42980D01*
X100180Y-42993D01*
X100162Y-43006D01*
X100128Y-43006D01*
X100111Y-42993D01*
X100102Y-42980D01*
X100094Y-42953D01*
X99940Y-42926D02*
X99940Y-43113D01*
X99982Y-42820D02*
X100025Y-43020D01*
X99914Y-43020D01*
X99315Y-44213D02*
X99375Y-44080D01*
X99418Y-44213D02*
X99418Y-43933D01*
X99350Y-43933D01*
X99332Y-43946D01*
X99324Y-43960D01*
X99315Y-43986D01*
X99315Y-44026D01*
X99324Y-44053D01*
X99332Y-44066D01*
X99350Y-44080D01*
X99418Y-44080D01*
X99230Y-44213D02*
X99195Y-44213D01*
X99178Y-44200D01*
X99170Y-44186D01*
X99152Y-44146D01*
X99144Y-44093D01*
X99144Y-43986D01*
X99152Y-43960D01*
X99161Y-43946D01*
X99178Y-43933D01*
X99212Y-43933D01*
X99230Y-43946D01*
X99238Y-43960D01*
X99247Y-43986D01*
X99247Y-44053D01*
X99238Y-44080D01*
X99230Y-44093D01*
X99212Y-44106D01*
X99178Y-44106D01*
X99161Y-44093D01*
X99152Y-44080D01*
X99144Y-44053D01*
X98981Y-43933D02*
X99067Y-43933D01*
X99075Y-44066D01*
X99067Y-44053D01*
X99050Y-44040D01*
X99007Y-44040D01*
X98990Y-44053D01*
X98981Y-44066D01*
X98972Y-44093D01*
X98972Y-44160D01*
X98981Y-44186D01*
X98990Y-44200D01*
X99007Y-44213D01*
X99050Y-44213D01*
X99067Y-44200D01*
X99075Y-44186D01*
X102118Y-43163D02*
X102118Y-42883D01*
X102075Y-42883D01*
X102050Y-42896D01*
X102032Y-42923D01*
X102024Y-42950D01*
X102015Y-43003D01*
X102015Y-43043D01*
X102024Y-43096D01*
X102032Y-43123D01*
X102050Y-43150D01*
X102075Y-43163D01*
X102118Y-43163D01*
X101930Y-43163D02*
X101895Y-43163D01*
X101878Y-43150D01*
X101870Y-43136D01*
X101852Y-43096D01*
X101844Y-43043D01*
X101844Y-42936D01*
X101852Y-42910D01*
X101861Y-42896D01*
X101878Y-42883D01*
X101912Y-42883D01*
X101930Y-42896D01*
X101938Y-42910D01*
X101947Y-42936D01*
X101947Y-43003D01*
X101938Y-43030D01*
X101930Y-43043D01*
X101912Y-43056D01*
X101878Y-43056D01*
X101861Y-43043D01*
X101852Y-43030D01*
X101844Y-43003D01*
X101732Y-42883D02*
X101715Y-42883D01*
X101698Y-42896D01*
X101690Y-42910D01*
X101681Y-42936D01*
X101672Y-42990D01*
X101672Y-43056D01*
X101681Y-43110D01*
X101690Y-43136D01*
X101698Y-43150D01*
X101715Y-43163D01*
X101732Y-43163D01*
X101750Y-43150D01*
X101758Y-43136D01*
X101767Y-43110D01*
X101775Y-43056D01*
X101775Y-42990D01*
X101767Y-42936D01*
X101758Y-42910D01*
X101750Y-42896D01*
X101732Y-42883D01*
X85618Y-58013D02*
X85618Y-57733D01*
X85575Y-57733D01*
X85550Y-57746D01*
X85532Y-57773D01*
X85524Y-57800D01*
X85515Y-57853D01*
X85515Y-57893D01*
X85524Y-57946D01*
X85532Y-57973D01*
X85550Y-58000D01*
X85575Y-58013D01*
X85618Y-58013D01*
X85447Y-57760D02*
X85438Y-57746D01*
X85421Y-57733D01*
X85378Y-57733D01*
X85361Y-57746D01*
X85352Y-57760D01*
X85344Y-57786D01*
X85344Y-57813D01*
X85352Y-57853D01*
X85455Y-58013D01*
X85344Y-58013D01*
X85232Y-57733D02*
X85215Y-57733D01*
X85198Y-57746D01*
X85190Y-57760D01*
X85181Y-57786D01*
X85172Y-57840D01*
X85172Y-57906D01*
X85181Y-57960D01*
X85190Y-57986D01*
X85198Y-58000D01*
X85215Y-58013D01*
X85232Y-58013D01*
X85250Y-58000D01*
X85258Y-57986D01*
X85267Y-57960D01*
X85275Y-57906D01*
X85275Y-57840D01*
X85267Y-57786D01*
X85258Y-57760D01*
X85250Y-57746D01*
X85232Y-57733D01*
X93818Y-58013D02*
X93818Y-57733D01*
X93775Y-57733D01*
X93750Y-57746D01*
X93732Y-57773D01*
X93724Y-57800D01*
X93715Y-57853D01*
X93715Y-57893D01*
X93724Y-57946D01*
X93732Y-57973D01*
X93750Y-58000D01*
X93775Y-58013D01*
X93818Y-58013D01*
X93647Y-57760D02*
X93638Y-57746D01*
X93621Y-57733D01*
X93578Y-57733D01*
X93561Y-57746D01*
X93552Y-57760D01*
X93544Y-57786D01*
X93544Y-57813D01*
X93552Y-57853D01*
X93655Y-58013D01*
X93544Y-58013D01*
X93372Y-58013D02*
X93475Y-58013D01*
X93424Y-58013D02*
X93424Y-57733D01*
X93441Y-57773D01*
X93458Y-57800D01*
X93475Y-57813D01*
X99213Y-54731D02*
X98933Y-54731D01*
X98933Y-54774D01*
X98946Y-54800D01*
X98973Y-54817D01*
X99000Y-54825D01*
X99053Y-54834D01*
X99093Y-54834D01*
X99146Y-54825D01*
X99173Y-54817D01*
X99200Y-54800D01*
X99213Y-54774D01*
X99213Y-54731D01*
X98933Y-54894D02*
X98933Y-55014D01*
X99213Y-54937D01*
X98933Y-55117D02*
X98933Y-55134D01*
X98946Y-55151D01*
X98960Y-55160D01*
X98986Y-55168D01*
X99040Y-55177D01*
X99106Y-55177D01*
X99160Y-55168D01*
X99186Y-55160D01*
X99200Y-55151D01*
X99213Y-55134D01*
X99213Y-55117D01*
X99200Y-55100D01*
X99186Y-55091D01*
X99160Y-55082D01*
X99106Y-55074D01*
X99040Y-55074D01*
X98986Y-55082D01*
X98960Y-55091D01*
X98946Y-55100D01*
X98933Y-55117D01*
X99413Y-53231D02*
X99133Y-53231D01*
X99133Y-53274D01*
X99146Y-53300D01*
X99173Y-53317D01*
X99200Y-53325D01*
X99253Y-53334D01*
X99293Y-53334D01*
X99346Y-53325D01*
X99373Y-53317D01*
X99400Y-53300D01*
X99413Y-53274D01*
X99413Y-53231D01*
X99133Y-53394D02*
X99133Y-53514D01*
X99413Y-53437D01*
X99413Y-53677D02*
X99413Y-53574D01*
X99413Y-53625D02*
X99133Y-53625D01*
X99173Y-53608D01*
X99200Y-53591D01*
X99213Y-53574D01*
X99413Y-51381D02*
X99133Y-51381D01*
X99133Y-51424D01*
X99146Y-51450D01*
X99173Y-51467D01*
X99200Y-51475D01*
X99253Y-51484D01*
X99293Y-51484D01*
X99346Y-51475D01*
X99373Y-51467D01*
X99400Y-51450D01*
X99413Y-51424D01*
X99413Y-51381D01*
X99133Y-51544D02*
X99133Y-51664D01*
X99413Y-51587D01*
X99160Y-51724D02*
X99146Y-51732D01*
X99133Y-51750D01*
X99133Y-51792D01*
X99146Y-51810D01*
X99160Y-51818D01*
X99186Y-51827D01*
X99213Y-51827D01*
X99253Y-51818D01*
X99413Y-51715D01*
X99413Y-51827D01*
X99413Y-54184D02*
X99280Y-54124D01*
X99413Y-54081D02*
X99133Y-54081D01*
X99133Y-54150D01*
X99146Y-54167D01*
X99160Y-54175D01*
X99186Y-54184D01*
X99226Y-54184D01*
X99253Y-54175D01*
X99266Y-54167D01*
X99280Y-54150D01*
X99280Y-54081D01*
X99133Y-54244D02*
X99133Y-54364D01*
X99413Y-54287D01*
X99133Y-54467D02*
X99133Y-54484D01*
X99146Y-54501D01*
X99160Y-54510D01*
X99186Y-54518D01*
X99240Y-54527D01*
X99306Y-54527D01*
X99360Y-54518D01*
X99386Y-54510D01*
X99400Y-54501D01*
X99413Y-54484D01*
X99413Y-54467D01*
X99400Y-54450D01*
X99386Y-54441D01*
X99360Y-54432D01*
X99306Y-54424D01*
X99240Y-54424D01*
X99186Y-54432D01*
X99160Y-54441D01*
X99146Y-54450D01*
X99133Y-54467D01*
X99413Y-52484D02*
X99280Y-52424D01*
X99413Y-52381D02*
X99133Y-52381D01*
X99133Y-52450D01*
X99146Y-52467D01*
X99160Y-52475D01*
X99186Y-52484D01*
X99226Y-52484D01*
X99253Y-52475D01*
X99266Y-52467D01*
X99280Y-52450D01*
X99280Y-52381D01*
X99133Y-52544D02*
X99133Y-52664D01*
X99413Y-52587D01*
X99413Y-52827D02*
X99413Y-52724D01*
X99413Y-52775D02*
X99133Y-52775D01*
X99173Y-52758D01*
X99200Y-52741D01*
X99213Y-52724D01*
X99315Y-51363D02*
X99375Y-51230D01*
X99418Y-51363D02*
X99418Y-51083D01*
X99350Y-51083D01*
X99332Y-51096D01*
X99324Y-51110D01*
X99315Y-51136D01*
X99315Y-51176D01*
X99324Y-51203D01*
X99332Y-51216D01*
X99350Y-51230D01*
X99418Y-51230D01*
X99255Y-51083D02*
X99135Y-51083D01*
X99212Y-51363D01*
X99075Y-51110D02*
X99067Y-51096D01*
X99050Y-51083D01*
X99007Y-51083D01*
X98990Y-51096D01*
X98981Y-51110D01*
X98972Y-51136D01*
X98972Y-51163D01*
X98981Y-51203D01*
X99084Y-51363D01*
X98972Y-51363D01*
X99413Y-50334D02*
X99280Y-50274D01*
X99413Y-50231D02*
X99133Y-50231D01*
X99133Y-50300D01*
X99146Y-50317D01*
X99160Y-50325D01*
X99186Y-50334D01*
X99226Y-50334D01*
X99253Y-50325D01*
X99266Y-50317D01*
X99280Y-50300D01*
X99280Y-50231D01*
X99133Y-50394D02*
X99133Y-50514D01*
X99413Y-50437D01*
X99133Y-50565D02*
X99133Y-50677D01*
X99240Y-50617D01*
X99240Y-50642D01*
X99253Y-50660D01*
X99266Y-50668D01*
X99293Y-50677D01*
X99360Y-50677D01*
X99386Y-50668D01*
X99400Y-50660D01*
X99413Y-50642D01*
X99413Y-50591D01*
X99400Y-50574D01*
X99386Y-50565D01*
X77563Y-50670D02*
X77430Y-50610D01*
X77563Y-50567D02*
X77283Y-50567D01*
X77283Y-50635D01*
X77296Y-50652D01*
X77310Y-50661D01*
X77336Y-50670D01*
X77376Y-50670D01*
X77403Y-50661D01*
X77416Y-50652D01*
X77430Y-50635D01*
X77430Y-50567D01*
X77283Y-50781D02*
X77283Y-50798D01*
X77296Y-50815D01*
X77310Y-50824D01*
X77336Y-50832D01*
X77390Y-50841D01*
X77456Y-50841D01*
X77510Y-50832D01*
X77536Y-50824D01*
X77550Y-50815D01*
X77563Y-50798D01*
X77563Y-50781D01*
X77550Y-50764D01*
X77536Y-50755D01*
X77510Y-50747D01*
X77456Y-50738D01*
X77390Y-50738D01*
X77336Y-50747D01*
X77310Y-50755D01*
X77296Y-50764D01*
X77283Y-50781D01*
X77563Y-49920D02*
X77430Y-49860D01*
X77563Y-49817D02*
X77283Y-49817D01*
X77283Y-49885D01*
X77296Y-49902D01*
X77310Y-49911D01*
X77336Y-49920D01*
X77376Y-49920D01*
X77403Y-49911D01*
X77416Y-49902D01*
X77430Y-49885D01*
X77430Y-49817D01*
X77563Y-50091D02*
X77563Y-49988D01*
X77563Y-50040D02*
X77283Y-50040D01*
X77323Y-50022D01*
X77350Y-50005D01*
X77363Y-49988D01*
X77563Y-49170D02*
X77430Y-49110D01*
X77563Y-49067D02*
X77283Y-49067D01*
X77283Y-49135D01*
X77296Y-49152D01*
X77310Y-49161D01*
X77336Y-49170D01*
X77376Y-49170D01*
X77403Y-49161D01*
X77416Y-49152D01*
X77430Y-49135D01*
X77430Y-49067D01*
X77310Y-49238D02*
X77296Y-49247D01*
X77283Y-49264D01*
X77283Y-49307D01*
X77296Y-49324D01*
X77310Y-49332D01*
X77336Y-49341D01*
X77363Y-49341D01*
X77403Y-49332D01*
X77563Y-49230D01*
X77563Y-49341D01*
X102950Y-55224D02*
X102963Y-55250D01*
X102963Y-55292D01*
X102950Y-55310D01*
X102936Y-55318D01*
X102910Y-55327D01*
X102883Y-55327D01*
X102856Y-55318D01*
X102843Y-55310D01*
X102830Y-55292D01*
X102816Y-55258D01*
X102803Y-55241D01*
X102790Y-55232D01*
X102763Y-55224D01*
X102736Y-55224D01*
X102710Y-55232D01*
X102696Y-55241D01*
X102683Y-55258D01*
X102683Y-55301D01*
X102696Y-55327D01*
X102683Y-55387D02*
X102963Y-55430D01*
X102763Y-55464D01*
X102963Y-55498D01*
X102683Y-55541D01*
X102710Y-55601D02*
X102696Y-55610D01*
X102683Y-55627D01*
X102683Y-55670D01*
X102696Y-55687D01*
X102710Y-55695D01*
X102736Y-55704D01*
X102763Y-55704D01*
X102803Y-55695D01*
X102963Y-55592D01*
X102963Y-55704D01*
X102683Y-55815D02*
X102683Y-55832D01*
X102696Y-55850D01*
X102710Y-55858D01*
X102736Y-55867D01*
X102790Y-55875D01*
X102856Y-55875D01*
X102910Y-55867D01*
X102936Y-55858D01*
X102950Y-55850D01*
X102963Y-55832D01*
X102963Y-55815D01*
X102950Y-55798D01*
X102936Y-55790D01*
X102910Y-55781D01*
X102856Y-55772D01*
X102790Y-55772D01*
X102736Y-55781D01*
X102710Y-55790D01*
X102696Y-55798D01*
X102683Y-55815D01*
X75687Y-47583D02*
X75687Y-47810D01*
X75678Y-47836D01*
X75670Y-47850D01*
X75652Y-47863D01*
X75618Y-47863D01*
X75601Y-47850D01*
X75592Y-47836D01*
X75584Y-47810D01*
X75584Y-47583D01*
X75464Y-47583D02*
X75447Y-47583D01*
X75430Y-47596D01*
X75421Y-47610D01*
X75412Y-47636D01*
X75404Y-47690D01*
X75404Y-47756D01*
X75412Y-47810D01*
X75421Y-47836D01*
X75430Y-47850D01*
X75447Y-47863D01*
X75464Y-47863D01*
X75481Y-47850D01*
X75490Y-47836D01*
X75498Y-47810D01*
X75507Y-47756D01*
X75507Y-47690D01*
X75498Y-47636D01*
X75490Y-47610D01*
X75481Y-47596D01*
X75464Y-47583D01*
X76863Y-54867D02*
X76583Y-54867D01*
X76583Y-54910D01*
X76596Y-54935D01*
X76623Y-54952D01*
X76650Y-54961D01*
X76703Y-54970D01*
X76743Y-54970D01*
X76796Y-54961D01*
X76823Y-54952D01*
X76850Y-54935D01*
X76863Y-54910D01*
X76863Y-54867D01*
X76583Y-55081D02*
X76583Y-55098D01*
X76596Y-55115D01*
X76610Y-55124D01*
X76636Y-55132D01*
X76690Y-55141D01*
X76756Y-55141D01*
X76810Y-55132D01*
X76836Y-55124D01*
X76850Y-55115D01*
X76863Y-55098D01*
X76863Y-55081D01*
X76850Y-55064D01*
X76836Y-55055D01*
X76810Y-55047D01*
X76756Y-55038D01*
X76690Y-55038D01*
X76636Y-55047D01*
X76610Y-55055D01*
X76596Y-55064D01*
X76583Y-55081D01*
X76813Y-52567D02*
X76533Y-52567D01*
X76533Y-52610D01*
X76546Y-52635D01*
X76573Y-52652D01*
X76600Y-52661D01*
X76653Y-52670D01*
X76693Y-52670D01*
X76746Y-52661D01*
X76773Y-52652D01*
X76800Y-52635D01*
X76813Y-52610D01*
X76813Y-52567D01*
X76813Y-52841D02*
X76813Y-52738D01*
X76813Y-52790D02*
X76533Y-52790D01*
X76573Y-52772D01*
X76600Y-52755D01*
X76613Y-52738D01*
X76713Y-57567D02*
X76433Y-57567D01*
X76433Y-57610D01*
X76446Y-57635D01*
X76473Y-57652D01*
X76500Y-57661D01*
X76553Y-57670D01*
X76593Y-57670D01*
X76646Y-57661D01*
X76673Y-57652D01*
X76700Y-57635D01*
X76713Y-57610D01*
X76713Y-57567D01*
X76460Y-57738D02*
X76446Y-57747D01*
X76433Y-57764D01*
X76433Y-57807D01*
X76446Y-57824D01*
X76460Y-57832D01*
X76486Y-57841D01*
X76513Y-57841D01*
X76553Y-57832D01*
X76713Y-57730D01*
X76713Y-57841D01*
X100965Y-44813D02*
X101025Y-44680D01*
X101068Y-44813D02*
X101068Y-44533D01*
X101000Y-44533D01*
X100982Y-44546D01*
X100974Y-44560D01*
X100965Y-44586D01*
X100965Y-44626D01*
X100974Y-44653D01*
X100982Y-44666D01*
X101000Y-44680D01*
X101068Y-44680D01*
X100897Y-44560D02*
X100888Y-44546D01*
X100871Y-44533D01*
X100828Y-44533D01*
X100811Y-44546D01*
X100802Y-44560D01*
X100794Y-44586D01*
X100794Y-44613D01*
X100802Y-44653D01*
X100905Y-44813D01*
X100794Y-44813D01*
X100691Y-44653D02*
X100708Y-44640D01*
X100717Y-44626D01*
X100725Y-44600D01*
X100725Y-44586D01*
X100717Y-44560D01*
X100708Y-44546D01*
X100691Y-44533D01*
X100657Y-44533D01*
X100640Y-44546D01*
X100631Y-44560D01*
X100622Y-44586D01*
X100622Y-44600D01*
X100631Y-44626D01*
X100640Y-44640D01*
X100657Y-44653D01*
X100691Y-44653D01*
X100708Y-44666D01*
X100717Y-44680D01*
X100725Y-44706D01*
X100725Y-44760D01*
X100717Y-44786D01*
X100708Y-44800D01*
X100691Y-44813D01*
X100657Y-44813D01*
X100640Y-44800D01*
X100631Y-44786D01*
X100622Y-44760D01*
X100622Y-44706D01*
X100631Y-44680D01*
X100640Y-44666D01*
X100657Y-44653D01*
X101665Y-44813D02*
X101725Y-44680D01*
X101768Y-44813D02*
X101768Y-44533D01*
X101700Y-44533D01*
X101682Y-44546D01*
X101674Y-44560D01*
X101665Y-44586D01*
X101665Y-44626D01*
X101674Y-44653D01*
X101682Y-44666D01*
X101700Y-44680D01*
X101768Y-44680D01*
X101605Y-44533D02*
X101494Y-44533D01*
X101554Y-44640D01*
X101528Y-44640D01*
X101511Y-44653D01*
X101502Y-44666D01*
X101494Y-44693D01*
X101494Y-44760D01*
X101502Y-44786D01*
X101511Y-44800D01*
X101528Y-44813D01*
X101580Y-44813D01*
X101597Y-44800D01*
X101605Y-44786D01*
X101382Y-44533D02*
X101365Y-44533D01*
X101348Y-44546D01*
X101340Y-44560D01*
X101331Y-44586D01*
X101322Y-44640D01*
X101322Y-44706D01*
X101331Y-44760D01*
X101340Y-44786D01*
X101348Y-44800D01*
X101365Y-44813D01*
X101382Y-44813D01*
X101400Y-44800D01*
X101408Y-44786D01*
X101417Y-44760D01*
X101425Y-44706D01*
X101425Y-44640D01*
X101417Y-44586D01*
X101408Y-44560D01*
X101400Y-44546D01*
X101382Y-44533D01*
X102950Y-56924D02*
X102963Y-56950D01*
X102963Y-56992D01*
X102950Y-57010D01*
X102936Y-57018D01*
X102910Y-57027D01*
X102883Y-57027D01*
X102856Y-57018D01*
X102843Y-57010D01*
X102830Y-56992D01*
X102816Y-56958D01*
X102803Y-56941D01*
X102790Y-56932D01*
X102763Y-56924D01*
X102736Y-56924D01*
X102710Y-56932D01*
X102696Y-56941D01*
X102683Y-56958D01*
X102683Y-57001D01*
X102696Y-57027D01*
X102683Y-57087D02*
X102963Y-57130D01*
X102763Y-57164D01*
X102963Y-57198D01*
X102683Y-57241D01*
X102963Y-57318D02*
X102963Y-57352D01*
X102950Y-57370D01*
X102936Y-57378D01*
X102896Y-57395D01*
X102843Y-57404D01*
X102736Y-57404D01*
X102710Y-57395D01*
X102696Y-57387D01*
X102683Y-57370D01*
X102683Y-57335D01*
X102696Y-57318D01*
X102710Y-57310D01*
X102736Y-57301D01*
X102803Y-57301D01*
X102830Y-57310D01*
X102843Y-57318D01*
X102856Y-57335D01*
X102856Y-57370D01*
X102843Y-57387D01*
X102830Y-57395D01*
X102803Y-57404D01*
X102963Y-57575D02*
X102963Y-57472D01*
X102963Y-57524D02*
X102683Y-57524D01*
X102723Y-57507D01*
X102750Y-57490D01*
X102763Y-57472D01*
G54D14*
X77727Y-53355D02*
X77767Y-53290D01*
X77795Y-53355D02*
X77795Y-53217D01*
X77750Y-53217D01*
X77738Y-53224D01*
X77732Y-53231D01*
X77727Y-53244D01*
X77727Y-53263D01*
X77732Y-53277D01*
X77738Y-53283D01*
X77750Y-53290D01*
X77795Y-53290D01*
X77624Y-53217D02*
X77647Y-53217D01*
X77658Y-53224D01*
X77664Y-53231D01*
X77675Y-53250D01*
X77681Y-53277D01*
X77681Y-53329D01*
X77675Y-53342D01*
X77670Y-53349D01*
X77658Y-53355D01*
X77635Y-53355D01*
X77624Y-53349D01*
X77618Y-53342D01*
X77612Y-53329D01*
X77612Y-53296D01*
X77618Y-53283D01*
X77624Y-53277D01*
X77635Y-53270D01*
X77658Y-53270D01*
X77670Y-53277D01*
X77675Y-53283D01*
X77681Y-53296D01*
X77572Y-53217D02*
X77498Y-53217D01*
X77538Y-53270D01*
X77521Y-53270D01*
X77510Y-53277D01*
X77504Y-53283D01*
X77498Y-53296D01*
X77498Y-53329D01*
X77504Y-53342D01*
X77510Y-53349D01*
X77521Y-53355D01*
X77555Y-53355D01*
X77567Y-53349D01*
X77572Y-53342D01*
X77727Y-54405D02*
X77767Y-54340D01*
X77795Y-54405D02*
X77795Y-54267D01*
X77750Y-54267D01*
X77738Y-54274D01*
X77732Y-54281D01*
X77727Y-54294D01*
X77727Y-54313D01*
X77732Y-54327D01*
X77738Y-54333D01*
X77750Y-54340D01*
X77795Y-54340D01*
X77624Y-54267D02*
X77647Y-54267D01*
X77658Y-54274D01*
X77664Y-54281D01*
X77675Y-54300D01*
X77681Y-54327D01*
X77681Y-54379D01*
X77675Y-54392D01*
X77670Y-54399D01*
X77658Y-54405D01*
X77635Y-54405D01*
X77624Y-54399D01*
X77618Y-54392D01*
X77612Y-54379D01*
X77612Y-54346D01*
X77618Y-54333D01*
X77624Y-54327D01*
X77635Y-54320D01*
X77658Y-54320D01*
X77670Y-54327D01*
X77675Y-54333D01*
X77681Y-54346D01*
X77510Y-54313D02*
X77510Y-54405D01*
X77538Y-54261D02*
X77567Y-54359D01*
X77492Y-54359D01*
M02*
