M48
;DRILL file {Pcbnew (2013-04-19 BZR 4011)-stable} date 01/07/2013 10:58:16
;FORMAT={-:-/ absolute / inch / decimal}
FMAT,2
INCH,TZ
T1C0.015
T2C0.032
T3C0.035
T4C0.040
%
G90
G05
M72
T1
X7.505Y4.765
X7.59Y4.995
X7.59Y5.03
X7.645Y5.475
X7.65Y5.525
X7.68Y4.445
X7.695Y5.345
X7.76Y5.12
X7.8Y5.08
X7.8Y5.12
X7.8Y5.45
X7.8Y5.49
X7.81Y4.98
X7.81Y5.38
X7.815Y4.885
X7.835Y4.45
X7.87Y4.45
X7.9Y4.835
X7.905Y4.45
X7.91Y5.59
X7.92Y5.035
X7.92Y5.15
X7.925Y4.88
X7.93Y4.915
X7.93Y4.95
X7.94Y4.45
X7.95Y5.055
X7.95Y5.13
X7.97Y5.7
X7.98Y5.075
X7.98Y5.11
X7.985Y5.59
X8.Y5.74
X8.035Y5.15
X8.035Y5.74
X8.04Y4.45
X8.065Y4.895
X8.065Y4.93
X8.065Y5.085
X8.07Y5.73
X8.075Y4.45
X8.105Y5.73
X8.11Y4.45
X8.14Y5.73
X8.145Y4.45
X8.1775Y5.585
X8.185Y4.45
X8.2Y5.185
X8.21Y4.825
X8.21Y5.575
X8.22Y4.45
X8.235Y5.725
X8.245Y5.54
X8.245Y5.575
X8.25Y4.825
X8.255Y4.45
X8.255Y5.135
X8.255Y5.17
X8.255Y5.205
X8.27Y4.73
X8.27Y5.725
X8.28Y5.54
X8.285Y5.455
X8.29Y4.45
X8.29Y4.825
X8.295Y4.98
X8.295Y5.695
X8.315Y5.54
X8.33Y4.45
X8.33Y4.985
X8.335Y5.11
X8.35Y5.54
X8.35Y5.715
X8.365Y4.45
X8.37Y4.95
X8.37Y5.11
X8.385Y5.55
X8.39Y5.175
X8.39Y5.7
X8.395Y4.85
X8.395Y4.9
X8.4Y4.45
X8.405Y5.58
X8.41Y4.73
X8.415Y5.15
X8.415Y5.425
X8.42Y4.875
X8.42Y4.925
X8.425Y4.825
X8.435Y4.45
X8.45Y4.73
X8.45Y5.06
X8.45Y5.72
X8.475Y4.83
X8.475Y5.49
X8.48Y5.025
X8.485Y5.075
X8.49Y4.73
X8.495Y4.4
X8.495Y5.59
X8.525Y4.73
X8.53Y5.59
X8.53Y5.76
X8.555Y5.03
X8.56Y5.575
X8.565Y4.45
X8.575Y5.41
X8.6Y4.45
X8.6Y5.435
X8.63Y5.125
X8.63Y5.16
X8.635Y4.45
X8.67Y5.42
X8.675Y4.77
X8.675Y5.655
X8.68Y5.075
X8.71Y4.775
X8.715Y5.7425
X8.73Y4.45
X8.745Y4.835
X8.75Y5.6
X8.765Y4.45
X8.785Y5.56
X8.785Y5.595
X8.79Y5.055
X8.79Y5.11
X8.8Y4.45
X8.8Y5.175
X8.82Y5.09
X8.825Y5.055
X8.825Y5.35
X8.825Y5.53
X8.83Y5.63
X8.85Y5.56
X8.86Y5.055
X8.865Y5.53
X8.87Y4.38
X8.875Y4.675
X8.885Y4.725
X8.895Y4.355
X8.895Y5.055
X8.905Y4.695
X8.905Y4.78
X8.905Y4.815
X8.905Y5.735
X8.93Y4.45
X8.965Y4.45
X9.Y4.45
X9.035Y4.45
X9.035Y4.77
X9.035Y4.805
X9.05Y4.7
X9.08Y4.685
X9.085Y5.86
X9.105Y4.71
X9.13Y4.45
X9.13Y4.735
X9.135Y5.715
X9.155Y4.76
X9.16Y4.645
X9.165Y4.45
X9.17Y4.68
X9.18Y4.715
X9.2Y4.45
X9.205Y4.585
X9.205Y5.715
X9.23Y4.64
X9.23Y4.675
X9.235Y4.45
X9.2425Y5.715
X9.255Y4.78
X9.28Y4.805
X9.28Y5.715
X9.3175Y5.715
X9.33Y4.45
X9.33Y4.65
X9.345Y5.46
X9.355Y4.675
X9.355Y5.715
X9.365Y4.45
X9.38Y4.7
X9.4Y4.45
X9.405Y4.725
X9.425Y5.715
X9.43Y4.75
X9.435Y4.45
X9.455Y4.775
X9.47Y5.86
X9.48Y4.8
X9.495Y5.715
X9.505Y4.825
X9.53Y4.45
X9.54Y5.19
X9.565Y4.45
X9.565Y5.715
X9.57Y4.725
X9.585Y5.055
X9.6Y4.45
X9.605Y4.72
X9.615Y5.07
X9.63Y4.695
X9.635Y4.45
X9.635Y5.715
X9.64Y5.14
X9.65Y4.83
X9.65Y4.89
X9.65Y4.98
X9.655Y4.67
X9.655Y4.945
X9.655Y5.065
X9.67Y5.125
X9.6725Y5.715
X9.675Y4.855
X9.675Y4.915
X9.685Y5.095
X9.7Y4.985
X9.71Y5.715
X9.725Y5.22
X9.73Y4.45
X9.765Y4.45
X9.8Y4.45
X9.825Y4.63
X9.825Y4.665
X9.825Y4.7
X9.825Y4.735
X9.825Y4.77
X9.825Y4.805
X9.825Y4.84
X9.825Y4.875
X9.825Y5.735
X9.835Y4.45
X9.84Y4.515
X9.84Y4.6
X9.85Y4.48
X9.87Y4.795
X9.875Y4.455
X9.88Y4.595
X9.905Y4.695
X9.91Y4.795
X9.91Y4.895
X9.91Y4.995
X9.91Y5.095
X9.91Y5.195
X9.91Y5.295
X9.91Y5.395
X9.925Y4.435
X9.94Y4.695
X9.94Y5.495
X9.95Y4.3
X9.995Y5.
X10.12Y4.46
X10.19Y4.46
X10.2Y4.695
T2
X7.49Y5.27
X7.49Y5.5
X7.59Y5.27
X7.59Y5.5
X7.735Y4.15
X7.735Y4.25
X7.74Y5.77
X7.835Y4.15
X7.835Y4.25
X7.84Y5.77
X7.935Y4.15
X7.935Y4.25
X8.035Y4.15
X8.035Y4.25
X8.135Y4.15
X8.135Y4.25
X8.235Y4.15
X8.235Y4.25
X8.335Y4.15
X8.335Y4.25
X8.435Y4.15
X8.435Y4.25
X8.535Y4.15
X8.535Y4.25
X8.635Y4.15
X8.635Y4.25
X8.735Y4.15
X8.735Y4.25
X8.835Y4.15
X8.835Y4.25
X8.935Y4.15
X8.935Y4.25
X9.035Y4.15
X9.035Y4.25
X9.135Y4.15
X9.135Y4.25
X9.235Y4.15
X9.235Y4.25
X9.335Y4.15
X9.335Y4.25
X9.435Y4.15
X9.435Y4.25
X9.535Y4.15
X9.535Y4.25
X9.635Y4.15
X9.635Y4.25
X9.735Y4.15
X9.735Y4.25
X9.835Y4.15
X9.835Y4.25
X9.935Y4.15
X9.935Y4.25
X10.035Y4.15
X10.035Y4.25
X10.135Y4.15
X10.135Y4.25
X10.235Y4.15
X10.235Y4.25
T3
X10.0257Y5.61
X10.0257Y5.78
X10.15Y4.545
X10.15Y4.645
X10.15Y4.745
X10.15Y4.845
X10.15Y4.945
X10.15Y5.045
X10.15Y5.145
X10.15Y5.245
X10.15Y5.345
X10.15Y5.445
X10.2343Y5.61
X10.2343Y5.78
X10.25Y4.545
X10.25Y4.645
X10.25Y4.745
X10.25Y4.845
X10.25Y4.945
X10.25Y5.045
X10.25Y5.145
X10.25Y5.245
X10.25Y5.345
X10.25Y5.445
T4
X7.76Y4.37
X7.76Y4.47
X7.76Y4.57
X7.76Y4.67
X7.76Y4.77
T0
M30
