G04 (created by PCBNEW (2013-04-19 BZR 4011)-stable) date 01/07/2013 10:58:15*
%MOIN*%
G04 Gerber Fmt 3.4, Leading zero omitted, Abs format*
%FSLAX34Y34*%
G01*
G70*
G90*
G04 APERTURE LIST*
%ADD10C,2.3622e-006*%
%ADD11R,0.0354X0.15*%
%ADD12R,0.036X0.036*%
%ADD13R,0.045X0.055*%
%ADD14R,0.035X0.045*%
%ADD15R,0.08X0.06*%
%ADD16R,0.035X0.055*%
%ADD17R,0.144X0.08*%
%ADD18R,0.04X0.08*%
%ADD19R,0.045X0.035*%
%ADD20R,0.0157X0.0236*%
G04 APERTURE END LIST*
G54D10*
G54D11*
X89200Y-53050D03*
X89672Y-53050D03*
X90145Y-53050D03*
X96759Y-53050D03*
X96287Y-53050D03*
X95814Y-53050D03*
X95342Y-53050D03*
X94869Y-53050D03*
X94397Y-53050D03*
X93924Y-53050D03*
X93452Y-53050D03*
X92980Y-53050D03*
X92507Y-53050D03*
X92035Y-53050D03*
X91562Y-53050D03*
X91090Y-53050D03*
X90617Y-53050D03*
X88728Y-53050D03*
X88255Y-53050D03*
X87783Y-53050D03*
X87310Y-53050D03*
X86838Y-53050D03*
X86365Y-53050D03*
X85893Y-53050D03*
X85420Y-53050D03*
X84948Y-53050D03*
X84476Y-53050D03*
X84003Y-53050D03*
X83531Y-53050D03*
X83058Y-53050D03*
X82585Y-53050D03*
X82113Y-53050D03*
X81641Y-53050D03*
G54D12*
X99900Y-44900D03*
X99900Y-45600D03*
X100700Y-45250D03*
G54D13*
X99825Y-49450D03*
X100675Y-49450D03*
G54D14*
X99900Y-46300D03*
X100600Y-46300D03*
X100600Y-47050D03*
X99900Y-47050D03*
X100600Y-48550D03*
X99900Y-48550D03*
X100600Y-47800D03*
X99900Y-47800D03*
X99800Y-43500D03*
X100500Y-43500D03*
X100500Y-44200D03*
X99800Y-44200D03*
G54D15*
X102650Y-44600D03*
X102650Y-43300D03*
G54D16*
X85025Y-58450D03*
X85775Y-58450D03*
X93975Y-58450D03*
X93225Y-58450D03*
X99875Y-54950D03*
X100625Y-54950D03*
X99875Y-53450D03*
X100625Y-53450D03*
X99875Y-51950D03*
X100625Y-51950D03*
G54D14*
X100600Y-54200D03*
X99900Y-54200D03*
X100600Y-52700D03*
X99900Y-52700D03*
X100600Y-51200D03*
X99900Y-51200D03*
X100600Y-50500D03*
X99900Y-50500D03*
X76950Y-50700D03*
X76250Y-50700D03*
X76950Y-49950D03*
X76250Y-49950D03*
X76950Y-49200D03*
X76250Y-49200D03*
G54D17*
X75550Y-44350D03*
G54D18*
X75550Y-46950D03*
X74650Y-46950D03*
X76450Y-46950D03*
G54D19*
X101150Y-44200D03*
X101150Y-43500D03*
X101850Y-43500D03*
X101850Y-44200D03*
G54D20*
X103377Y-54450D03*
X103023Y-54450D03*
X103377Y-53450D03*
X103023Y-53450D03*
X103377Y-52450D03*
X103023Y-52450D03*
X103377Y-51450D03*
X103023Y-51450D03*
X77827Y-53550D03*
X77473Y-53550D03*
X77827Y-54050D03*
X77473Y-54050D03*
X103023Y-45450D03*
X103377Y-45450D03*
M02*
