G04 (created by PCBNEW (2013-04-19 BZR 4011)-stable) date 01/07/2013 10:58:15*
%MOIN*%
G04 Gerber Fmt 3.4, Leading zero omitted, Abs format*
%FSLAX34Y34*%
G01*
G70*
G90*
G04 APERTURE LIST*
%ADD10C,2.3622e-006*%
%ADD11C,0.005*%
G04 APERTURE END LIST*
G54D10*
G54D11*
X74050Y-58900D02*
X74050Y-41000D01*
X105650Y-58900D02*
X74050Y-58900D01*
X105650Y-41000D02*
X105650Y-58900D01*
X74050Y-41000D02*
X105650Y-41000D01*
X75782Y-50820D02*
G75*
G03X75782Y-50820I-182J0D01*
G74*
G01*
X75780Y-49080D02*
G75*
G03X75780Y-49080I-180J0D01*
G74*
G01*
X80100Y-58500D02*
G75*
G03X80100Y-58500I-200J0D01*
G74*
G01*
X99300Y-58500D02*
G75*
G03X99300Y-58500I-200J0D01*
G74*
G01*
X99300Y-43600D02*
G75*
G03X99300Y-43600I-200J0D01*
G74*
G01*
X80100Y-43600D02*
G75*
G03X80100Y-43600I-200J0D01*
G74*
G01*
X76200Y-57200D02*
G75*
G03X76200Y-57200I-500J0D01*
G74*
G01*
X104500Y-57400D02*
G75*
G03X104500Y-57400I-500J0D01*
G74*
G01*
X104500Y-42600D02*
G75*
G03X104500Y-42600I-500J0D01*
G74*
G01*
X76200Y-42600D02*
G75*
G03X76200Y-42600I-500J0D01*
G74*
G01*
X99300Y-43600D02*
G75*
G03X99300Y-43600I-200J0D01*
G74*
G01*
X99300Y-58500D02*
G75*
G03X99300Y-58500I-200J0D01*
G74*
G01*
X80100Y-58500D02*
G75*
G03X80100Y-58500I-200J0D01*
G74*
G01*
X80100Y-43600D02*
G75*
G03X80100Y-43600I-200J0D01*
G74*
G01*
X75773Y-50816D02*
G75*
G03X75773Y-50816I-177J0D01*
G74*
G01*
X75773Y-49084D02*
G75*
G03X75773Y-49084I-177J0D01*
G74*
G01*
M02*
