G04 (created by PCBNEW-RS274X (2012-01-19 BZR 3256)-stable) date 26/03/2013 21:56:11*
G01*
G70*
G90*
%MOIN*%
G04 Gerber Fmt 3.4, Leading zero omitted, Abs format*
%FSLAX34Y34*%
G04 APERTURE LIST*
%ADD10C,0.006000*%
%ADD11C,0.005000*%
%ADD12C,0.012000*%
%ADD13C,0.015000*%
%ADD14C,0.004500*%
G04 APERTURE END LIST*
G54D10*
G54D11*
X89650Y-66250D02*
X88450Y-66250D01*
X88450Y-66250D02*
X88450Y-66850D01*
X88450Y-66850D02*
X89650Y-66850D01*
X89650Y-66850D02*
X89650Y-66250D01*
X100700Y-61900D02*
X100700Y-61200D01*
X100700Y-61200D02*
X99500Y-61200D01*
X99500Y-61200D02*
X99500Y-61900D01*
X99500Y-61900D02*
X100700Y-61900D01*
X98120Y-64400D02*
X98118Y-64413D01*
X98114Y-64426D01*
X98108Y-64438D01*
X98099Y-64449D01*
X98089Y-64458D01*
X98077Y-64464D01*
X98064Y-64468D01*
X98050Y-64469D01*
X98037Y-64468D01*
X98024Y-64464D01*
X98012Y-64458D01*
X98002Y-64450D01*
X97993Y-64439D01*
X97986Y-64427D01*
X97982Y-64414D01*
X97981Y-64400D01*
X97982Y-64388D01*
X97985Y-64375D01*
X97992Y-64363D01*
X98000Y-64352D01*
X98011Y-64343D01*
X98022Y-64336D01*
X98035Y-64332D01*
X98049Y-64331D01*
X98062Y-64332D01*
X98075Y-64335D01*
X98087Y-64341D01*
X98098Y-64350D01*
X98107Y-64360D01*
X98113Y-64372D01*
X98118Y-64385D01*
X98119Y-64399D01*
X98120Y-64400D01*
X99550Y-64450D02*
X100300Y-64450D01*
X100300Y-64450D02*
X100300Y-65650D01*
X100300Y-65650D02*
X99550Y-65650D01*
X98900Y-65650D02*
X98100Y-65650D01*
X98100Y-65650D02*
X98100Y-64450D01*
X98100Y-64450D02*
X98900Y-64450D01*
X97650Y-61150D02*
X97150Y-61150D01*
X97150Y-61150D02*
X97150Y-60450D01*
X97150Y-60450D02*
X97650Y-60450D01*
X98050Y-61150D02*
X98550Y-61150D01*
X98550Y-61150D02*
X98550Y-60450D01*
X98550Y-60450D02*
X98050Y-60450D01*
X91800Y-68100D02*
X91800Y-66900D01*
X91800Y-66900D02*
X91200Y-66900D01*
X91200Y-66900D02*
X91200Y-68100D01*
X91200Y-68100D02*
X91800Y-68100D01*
X91050Y-68100D02*
X91050Y-66900D01*
X91050Y-66900D02*
X90450Y-66900D01*
X90450Y-66900D02*
X90450Y-68100D01*
X90450Y-68100D02*
X91050Y-68100D01*
X99100Y-64200D02*
X99100Y-63000D01*
X99100Y-63000D02*
X98500Y-63000D01*
X98500Y-63000D02*
X98500Y-64200D01*
X98500Y-64200D02*
X99100Y-64200D01*
X81400Y-61150D02*
X82600Y-61150D01*
X82600Y-61150D02*
X82600Y-60550D01*
X82600Y-60550D02*
X81400Y-60550D01*
X81400Y-60550D02*
X81400Y-61150D01*
G54D12*
X81150Y-60550D02*
X80150Y-60550D01*
X80150Y-60550D02*
X80150Y-65550D01*
X80150Y-65550D02*
X81150Y-65550D01*
X81150Y-65550D02*
X81150Y-60550D01*
X81150Y-61550D02*
X80150Y-61550D01*
G54D13*
X91450Y-70200D02*
X81450Y-70200D01*
X91450Y-68200D02*
X81450Y-68200D01*
X81450Y-70200D02*
X81450Y-68200D01*
X91450Y-68200D02*
X91450Y-70200D01*
G54D11*
X82800Y-66150D02*
X88000Y-66150D01*
X88000Y-66150D02*
X88000Y-60950D01*
X88000Y-60950D02*
X83200Y-60950D01*
X83200Y-60950D02*
X82800Y-61350D01*
X82800Y-61350D02*
X82800Y-66150D01*
X83650Y-61550D02*
X83645Y-61598D01*
X83631Y-61645D01*
X83608Y-61688D01*
X83577Y-61726D01*
X83539Y-61757D01*
X83496Y-61780D01*
X83450Y-61794D01*
X83401Y-61799D01*
X83354Y-61795D01*
X83307Y-61781D01*
X83264Y-61759D01*
X83226Y-61728D01*
X83194Y-61691D01*
X83171Y-61648D01*
X83156Y-61601D01*
X83151Y-61553D01*
X83155Y-61505D01*
X83168Y-61458D01*
X83190Y-61415D01*
X83221Y-61377D01*
X83258Y-61345D01*
X83300Y-61321D01*
X83347Y-61306D01*
X83395Y-61301D01*
X83443Y-61304D01*
X83490Y-61317D01*
X83533Y-61339D01*
X83572Y-61369D01*
X83604Y-61406D01*
X83628Y-61449D01*
X83643Y-61495D01*
X83649Y-61544D01*
X83650Y-61550D01*
X85600Y-66900D02*
X85700Y-66800D01*
X85700Y-66800D02*
X86200Y-66800D01*
X86200Y-66800D02*
X86300Y-66900D01*
X85600Y-67300D02*
X85600Y-66900D01*
X85600Y-66900D02*
X86300Y-66900D01*
X86300Y-66900D02*
X86300Y-67300D01*
X85600Y-67700D02*
X85600Y-68100D01*
X85600Y-68100D02*
X86300Y-68100D01*
X86300Y-68100D02*
X86300Y-67700D01*
X83600Y-66900D02*
X83700Y-66800D01*
X83700Y-66800D02*
X84200Y-66800D01*
X84200Y-66800D02*
X84300Y-66900D01*
X83600Y-67300D02*
X83600Y-66900D01*
X83600Y-66900D02*
X84300Y-66900D01*
X84300Y-66900D02*
X84300Y-67300D01*
X83600Y-67700D02*
X83600Y-68100D01*
X83600Y-68100D02*
X84300Y-68100D01*
X84300Y-68100D02*
X84300Y-67700D01*
X84600Y-66900D02*
X84700Y-66800D01*
X84700Y-66800D02*
X85200Y-66800D01*
X85200Y-66800D02*
X85300Y-66900D01*
X84600Y-67300D02*
X84600Y-66900D01*
X84600Y-66900D02*
X85300Y-66900D01*
X85300Y-66900D02*
X85300Y-67300D01*
X84600Y-67700D02*
X84600Y-68100D01*
X84600Y-68100D02*
X85300Y-68100D01*
X85300Y-68100D02*
X85300Y-67700D01*
X86600Y-66900D02*
X86700Y-66800D01*
X86700Y-66800D02*
X87200Y-66800D01*
X87200Y-66800D02*
X87300Y-66900D01*
X86600Y-67300D02*
X86600Y-66900D01*
X86600Y-66900D02*
X87300Y-66900D01*
X87300Y-66900D02*
X87300Y-67300D01*
X86600Y-67700D02*
X86600Y-68100D01*
X86600Y-68100D02*
X87300Y-68100D01*
X87300Y-68100D02*
X87300Y-67700D01*
X87600Y-66900D02*
X87700Y-66800D01*
X87700Y-66800D02*
X88200Y-66800D01*
X88200Y-66800D02*
X88300Y-66900D01*
X87600Y-67300D02*
X87600Y-66900D01*
X87600Y-66900D02*
X88300Y-66900D01*
X88300Y-66900D02*
X88300Y-67300D01*
X87600Y-67700D02*
X87600Y-68100D01*
X87600Y-68100D02*
X88300Y-68100D01*
X88300Y-68100D02*
X88300Y-67700D01*
X81600Y-66900D02*
X81700Y-66800D01*
X81700Y-66800D02*
X82200Y-66800D01*
X82200Y-66800D02*
X82300Y-66900D01*
X81600Y-67300D02*
X81600Y-66900D01*
X81600Y-66900D02*
X82300Y-66900D01*
X82300Y-66900D02*
X82300Y-67300D01*
X81600Y-67700D02*
X81600Y-68100D01*
X81600Y-68100D02*
X82300Y-68100D01*
X82300Y-68100D02*
X82300Y-67700D01*
X82600Y-66900D02*
X82700Y-66800D01*
X82700Y-66800D02*
X83200Y-66800D01*
X83200Y-66800D02*
X83300Y-66900D01*
X82600Y-67300D02*
X82600Y-66900D01*
X82600Y-66900D02*
X83300Y-66900D01*
X83300Y-66900D02*
X83300Y-67300D01*
X82600Y-67700D02*
X82600Y-68100D01*
X82600Y-68100D02*
X83300Y-68100D01*
X83300Y-68100D02*
X83300Y-67700D01*
X89600Y-66900D02*
X89700Y-66800D01*
X89700Y-66800D02*
X90200Y-66800D01*
X90200Y-66800D02*
X90300Y-66900D01*
X89600Y-67300D02*
X89600Y-66900D01*
X89600Y-66900D02*
X90300Y-66900D01*
X90300Y-66900D02*
X90300Y-67300D01*
X89600Y-67700D02*
X89600Y-68100D01*
X89600Y-68100D02*
X90300Y-68100D01*
X90300Y-68100D02*
X90300Y-67700D01*
X88600Y-66900D02*
X88700Y-66800D01*
X88700Y-66800D02*
X89200Y-66800D01*
X89200Y-66800D02*
X89300Y-66900D01*
X88600Y-67300D02*
X88600Y-66900D01*
X88600Y-66900D02*
X89300Y-66900D01*
X89300Y-66900D02*
X89300Y-67300D01*
X88600Y-67700D02*
X88600Y-68100D01*
X88600Y-68100D02*
X89300Y-68100D01*
X89300Y-68100D02*
X89300Y-67700D01*
X81350Y-64850D02*
X82550Y-64850D01*
X82550Y-64850D02*
X82550Y-64250D01*
X82550Y-64250D02*
X81350Y-64250D01*
X81350Y-64250D02*
X81350Y-64850D01*
X82200Y-63900D02*
X82200Y-62700D01*
X82200Y-62700D02*
X81600Y-62700D01*
X81600Y-62700D02*
X81600Y-63900D01*
X81600Y-63900D02*
X82200Y-63900D01*
X97920Y-62550D02*
X97918Y-62563D01*
X97914Y-62576D01*
X97908Y-62588D01*
X97899Y-62599D01*
X97889Y-62608D01*
X97877Y-62614D01*
X97864Y-62618D01*
X97850Y-62619D01*
X97837Y-62618D01*
X97824Y-62614D01*
X97812Y-62608D01*
X97802Y-62600D01*
X97793Y-62589D01*
X97786Y-62577D01*
X97782Y-62564D01*
X97781Y-62550D01*
X97782Y-62538D01*
X97785Y-62525D01*
X97792Y-62513D01*
X97800Y-62502D01*
X97811Y-62493D01*
X97822Y-62486D01*
X97835Y-62482D01*
X97849Y-62481D01*
X97862Y-62482D01*
X97875Y-62485D01*
X97887Y-62491D01*
X97898Y-62500D01*
X97907Y-62510D01*
X97913Y-62522D01*
X97918Y-62535D01*
X97919Y-62549D01*
X97920Y-62550D01*
X96350Y-62500D02*
X95600Y-62500D01*
X95600Y-62500D02*
X95600Y-61300D01*
X95600Y-61300D02*
X96350Y-61300D01*
X97000Y-61300D02*
X97800Y-61300D01*
X97800Y-61300D02*
X97800Y-62500D01*
X97800Y-62500D02*
X97000Y-62500D01*
X92250Y-69400D02*
X92250Y-68200D01*
X92250Y-68200D02*
X91650Y-68200D01*
X91650Y-68200D02*
X91650Y-69400D01*
X91650Y-69400D02*
X92250Y-69400D01*
X89250Y-62000D02*
X89246Y-62038D01*
X89234Y-62076D01*
X89216Y-62110D01*
X89191Y-62140D01*
X89161Y-62165D01*
X89127Y-62184D01*
X89090Y-62195D01*
X89051Y-62199D01*
X89013Y-62196D01*
X88976Y-62185D01*
X88941Y-62167D01*
X88911Y-62142D01*
X88885Y-62112D01*
X88867Y-62078D01*
X88855Y-62041D01*
X88851Y-62002D01*
X88854Y-61964D01*
X88865Y-61927D01*
X88882Y-61892D01*
X88907Y-61862D01*
X88936Y-61836D01*
X88970Y-61817D01*
X89008Y-61805D01*
X89046Y-61801D01*
X89084Y-61804D01*
X89122Y-61814D01*
X89157Y-61832D01*
X89187Y-61856D01*
X89213Y-61885D01*
X89232Y-61919D01*
X89245Y-61956D01*
X89249Y-61995D01*
X89250Y-62000D01*
X93250Y-61400D02*
X88450Y-61400D01*
X88450Y-61400D02*
X88450Y-66200D01*
X88450Y-66200D02*
X93250Y-66200D01*
X93250Y-66200D02*
X93250Y-61400D01*
X95450Y-62500D02*
X95450Y-61300D01*
X95450Y-61300D02*
X94850Y-61300D01*
X94850Y-61300D02*
X94850Y-62500D01*
X94850Y-62500D02*
X95450Y-62500D01*
X94700Y-62500D02*
X94700Y-61300D01*
X94700Y-61300D02*
X94100Y-61300D01*
X94100Y-61300D02*
X94100Y-62500D01*
X94100Y-62500D02*
X94700Y-62500D01*
X93950Y-62500D02*
X93950Y-61300D01*
X93950Y-61300D02*
X93350Y-61300D01*
X93350Y-61300D02*
X93350Y-62500D01*
X93350Y-62500D02*
X93950Y-62500D01*
X82550Y-65000D02*
X81350Y-65000D01*
X81350Y-65000D02*
X81350Y-65600D01*
X81350Y-65600D02*
X82550Y-65600D01*
X82550Y-65600D02*
X82550Y-65000D01*
X88300Y-66250D02*
X87100Y-66250D01*
X87100Y-66250D02*
X87100Y-66850D01*
X87100Y-66850D02*
X88300Y-66850D01*
X88300Y-66850D02*
X88300Y-66250D01*
G54D14*
X89987Y-66521D02*
X90000Y-66512D01*
X90013Y-66486D01*
X90013Y-66469D01*
X90000Y-66444D01*
X89973Y-66426D01*
X89947Y-66418D01*
X89893Y-66409D01*
X89853Y-66409D01*
X89800Y-66418D01*
X89773Y-66426D01*
X89747Y-66444D01*
X89733Y-66469D01*
X89733Y-66486D01*
X89747Y-66512D01*
X89760Y-66521D01*
X90013Y-66606D02*
X90013Y-66641D01*
X90000Y-66658D01*
X89987Y-66666D01*
X89947Y-66684D01*
X89893Y-66692D01*
X89787Y-66692D01*
X89760Y-66684D01*
X89747Y-66675D01*
X89733Y-66658D01*
X89733Y-66624D01*
X89747Y-66606D01*
X89760Y-66598D01*
X89787Y-66589D01*
X89853Y-66589D01*
X89880Y-66598D01*
X89893Y-66606D01*
X89907Y-66624D01*
X89907Y-66658D01*
X89893Y-66675D01*
X89880Y-66684D01*
X89853Y-66692D01*
X99437Y-61083D02*
X99437Y-61310D01*
X99429Y-61337D01*
X99420Y-61350D01*
X99403Y-61363D01*
X99369Y-61363D01*
X99351Y-61350D01*
X99343Y-61337D01*
X99334Y-61310D01*
X99334Y-61083D01*
X99214Y-61083D02*
X99197Y-61083D01*
X99180Y-61097D01*
X99171Y-61110D01*
X99162Y-61137D01*
X99154Y-61190D01*
X99154Y-61257D01*
X99162Y-61310D01*
X99171Y-61337D01*
X99180Y-61350D01*
X99197Y-61363D01*
X99214Y-61363D01*
X99231Y-61350D01*
X99240Y-61337D01*
X99248Y-61310D01*
X99257Y-61257D01*
X99257Y-61190D01*
X99248Y-61137D01*
X99240Y-61110D01*
X99231Y-61097D01*
X99214Y-61083D01*
X99229Y-65987D02*
X99238Y-66000D01*
X99264Y-66013D01*
X99281Y-66013D01*
X99306Y-66000D01*
X99324Y-65973D01*
X99332Y-65947D01*
X99341Y-65893D01*
X99341Y-65853D01*
X99332Y-65800D01*
X99324Y-65773D01*
X99306Y-65747D01*
X99281Y-65733D01*
X99264Y-65733D01*
X99238Y-65747D01*
X99229Y-65760D01*
X99118Y-65733D02*
X99101Y-65733D01*
X99084Y-65747D01*
X99075Y-65760D01*
X99066Y-65787D01*
X99058Y-65840D01*
X99058Y-65907D01*
X99066Y-65960D01*
X99075Y-65987D01*
X99084Y-66000D01*
X99101Y-66013D01*
X99118Y-66013D01*
X99135Y-66000D01*
X99144Y-65987D01*
X99152Y-65960D01*
X99161Y-65907D01*
X99161Y-65840D01*
X99152Y-65787D01*
X99144Y-65760D01*
X99135Y-65747D01*
X99118Y-65733D01*
X97995Y-61367D02*
X98055Y-61367D01*
X98055Y-61513D02*
X98055Y-61233D01*
X97969Y-61233D01*
X97807Y-61513D02*
X97910Y-61513D01*
X97858Y-61513D02*
X97858Y-61233D01*
X97875Y-61273D01*
X97893Y-61300D01*
X97910Y-61313D01*
X97696Y-61233D02*
X97679Y-61233D01*
X97662Y-61247D01*
X97653Y-61260D01*
X97644Y-61287D01*
X97636Y-61340D01*
X97636Y-61407D01*
X97644Y-61460D01*
X97653Y-61487D01*
X97662Y-61500D01*
X97679Y-61513D01*
X97696Y-61513D01*
X97713Y-61500D01*
X97722Y-61487D01*
X97730Y-61460D01*
X97739Y-61407D01*
X97739Y-61340D01*
X97730Y-61287D01*
X97722Y-61260D01*
X97713Y-61247D01*
X97696Y-61233D01*
X92163Y-67385D02*
X92030Y-67325D01*
X92163Y-67282D02*
X91883Y-67282D01*
X91883Y-67350D01*
X91897Y-67368D01*
X91910Y-67376D01*
X91937Y-67385D01*
X91977Y-67385D01*
X92003Y-67376D01*
X92017Y-67368D01*
X92030Y-67350D01*
X92030Y-67282D01*
X92163Y-67556D02*
X92163Y-67453D01*
X92163Y-67505D02*
X91883Y-67505D01*
X91923Y-67488D01*
X91950Y-67470D01*
X91963Y-67453D01*
X92163Y-67641D02*
X92163Y-67676D01*
X92150Y-67693D01*
X92137Y-67701D01*
X92097Y-67719D01*
X92043Y-67727D01*
X91937Y-67727D01*
X91910Y-67719D01*
X91897Y-67710D01*
X91883Y-67693D01*
X91883Y-67659D01*
X91897Y-67641D01*
X91910Y-67633D01*
X91937Y-67624D01*
X92003Y-67624D01*
X92030Y-67633D01*
X92043Y-67641D01*
X92057Y-67659D01*
X92057Y-67693D01*
X92043Y-67710D01*
X92030Y-67719D01*
X92003Y-67727D01*
X90865Y-66863D02*
X90925Y-66730D01*
X90968Y-66863D02*
X90968Y-66583D01*
X90900Y-66583D01*
X90882Y-66597D01*
X90874Y-66610D01*
X90865Y-66637D01*
X90865Y-66677D01*
X90874Y-66703D01*
X90882Y-66717D01*
X90900Y-66730D01*
X90968Y-66730D01*
X90780Y-66863D02*
X90745Y-66863D01*
X90728Y-66850D01*
X90720Y-66837D01*
X90702Y-66797D01*
X90694Y-66743D01*
X90694Y-66637D01*
X90702Y-66610D01*
X90711Y-66597D01*
X90728Y-66583D01*
X90762Y-66583D01*
X90780Y-66597D01*
X90788Y-66610D01*
X90797Y-66637D01*
X90797Y-66703D01*
X90788Y-66730D01*
X90780Y-66743D01*
X90762Y-66757D01*
X90728Y-66757D01*
X90711Y-66743D01*
X90702Y-66730D01*
X90694Y-66703D01*
X90583Y-66583D02*
X90566Y-66583D01*
X90549Y-66597D01*
X90540Y-66610D01*
X90531Y-66637D01*
X90523Y-66690D01*
X90523Y-66757D01*
X90531Y-66810D01*
X90540Y-66837D01*
X90549Y-66850D01*
X90566Y-66863D01*
X90583Y-66863D01*
X90600Y-66850D01*
X90609Y-66837D01*
X90617Y-66810D01*
X90626Y-66757D01*
X90626Y-66690D01*
X90617Y-66637D01*
X90609Y-66610D01*
X90600Y-66597D01*
X90583Y-66583D01*
X99463Y-63485D02*
X99330Y-63425D01*
X99463Y-63382D02*
X99183Y-63382D01*
X99183Y-63450D01*
X99197Y-63468D01*
X99210Y-63476D01*
X99237Y-63485D01*
X99277Y-63485D01*
X99303Y-63476D01*
X99317Y-63468D01*
X99330Y-63450D01*
X99330Y-63382D01*
X99463Y-63656D02*
X99463Y-63553D01*
X99463Y-63605D02*
X99183Y-63605D01*
X99223Y-63588D01*
X99250Y-63570D01*
X99263Y-63553D01*
X99183Y-63767D02*
X99183Y-63784D01*
X99197Y-63801D01*
X99210Y-63810D01*
X99237Y-63819D01*
X99290Y-63827D01*
X99357Y-63827D01*
X99410Y-63819D01*
X99437Y-63810D01*
X99450Y-63801D01*
X99463Y-63784D01*
X99463Y-63767D01*
X99450Y-63750D01*
X99437Y-63741D01*
X99410Y-63733D01*
X99357Y-63724D01*
X99290Y-63724D01*
X99237Y-63733D01*
X99210Y-63741D01*
X99197Y-63750D01*
X99183Y-63767D01*
X81429Y-61513D02*
X81489Y-61380D01*
X81532Y-61513D02*
X81532Y-61233D01*
X81464Y-61233D01*
X81446Y-61247D01*
X81438Y-61260D01*
X81429Y-61287D01*
X81429Y-61327D01*
X81438Y-61353D01*
X81446Y-61367D01*
X81464Y-61380D01*
X81532Y-61380D01*
X81318Y-61233D02*
X81301Y-61233D01*
X81284Y-61247D01*
X81275Y-61260D01*
X81266Y-61287D01*
X81258Y-61340D01*
X81258Y-61407D01*
X81266Y-61460D01*
X81275Y-61487D01*
X81284Y-61500D01*
X81301Y-61513D01*
X81318Y-61513D01*
X81335Y-61500D01*
X81344Y-61487D01*
X81352Y-61460D01*
X81361Y-61407D01*
X81361Y-61340D01*
X81352Y-61287D01*
X81344Y-61260D01*
X81335Y-61247D01*
X81318Y-61233D01*
X83487Y-60601D02*
X83487Y-60804D01*
X83479Y-60827D01*
X83470Y-60839D01*
X83453Y-60851D01*
X83419Y-60851D01*
X83401Y-60839D01*
X83393Y-60827D01*
X83384Y-60804D01*
X83384Y-60601D01*
X83307Y-60625D02*
X83298Y-60613D01*
X83281Y-60601D01*
X83238Y-60601D01*
X83221Y-60613D01*
X83212Y-60625D01*
X83204Y-60649D01*
X83204Y-60673D01*
X83212Y-60708D01*
X83315Y-60851D01*
X83204Y-60851D01*
X82479Y-64087D02*
X82488Y-64100D01*
X82514Y-64113D01*
X82531Y-64113D01*
X82556Y-64100D01*
X82574Y-64073D01*
X82582Y-64047D01*
X82591Y-63993D01*
X82591Y-63953D01*
X82582Y-63900D01*
X82574Y-63873D01*
X82556Y-63847D01*
X82531Y-63833D01*
X82514Y-63833D01*
X82488Y-63847D01*
X82479Y-63860D01*
X82316Y-63833D02*
X82402Y-63833D01*
X82411Y-63967D01*
X82402Y-63953D01*
X82385Y-63940D01*
X82342Y-63940D01*
X82325Y-63953D01*
X82316Y-63967D01*
X82308Y-63993D01*
X82308Y-64060D01*
X82316Y-64087D01*
X82325Y-64100D01*
X82342Y-64113D01*
X82385Y-64113D01*
X82402Y-64100D01*
X82411Y-64087D01*
X82563Y-63271D02*
X82430Y-63211D01*
X82563Y-63168D02*
X82283Y-63168D01*
X82283Y-63236D01*
X82297Y-63254D01*
X82310Y-63262D01*
X82337Y-63271D01*
X82377Y-63271D01*
X82403Y-63262D01*
X82417Y-63254D01*
X82430Y-63236D01*
X82430Y-63168D01*
X82283Y-63331D02*
X82283Y-63442D01*
X82390Y-63382D01*
X82390Y-63408D01*
X82403Y-63425D01*
X82417Y-63434D01*
X82443Y-63442D01*
X82510Y-63442D01*
X82537Y-63434D01*
X82550Y-63425D01*
X82563Y-63408D01*
X82563Y-63356D01*
X82550Y-63339D01*
X82537Y-63331D01*
X96729Y-62777D02*
X96738Y-62789D01*
X96764Y-62801D01*
X96781Y-62801D01*
X96806Y-62789D01*
X96824Y-62765D01*
X96832Y-62742D01*
X96841Y-62694D01*
X96841Y-62658D01*
X96832Y-62611D01*
X96824Y-62587D01*
X96806Y-62563D01*
X96781Y-62551D01*
X96764Y-62551D01*
X96738Y-62563D01*
X96729Y-62575D01*
X96558Y-62801D02*
X96661Y-62801D01*
X96609Y-62801D02*
X96609Y-62551D01*
X96626Y-62587D01*
X96644Y-62611D01*
X96661Y-62623D01*
X92215Y-68113D02*
X92275Y-67980D01*
X92318Y-68113D02*
X92318Y-67833D01*
X92250Y-67833D01*
X92232Y-67847D01*
X92224Y-67860D01*
X92215Y-67887D01*
X92215Y-67927D01*
X92224Y-67953D01*
X92232Y-67967D01*
X92250Y-67980D01*
X92318Y-67980D01*
X92130Y-68113D02*
X92095Y-68113D01*
X92078Y-68100D01*
X92070Y-68087D01*
X92052Y-68047D01*
X92044Y-67993D01*
X92044Y-67887D01*
X92052Y-67860D01*
X92061Y-67847D01*
X92078Y-67833D01*
X92112Y-67833D01*
X92130Y-67847D01*
X92138Y-67860D01*
X92147Y-67887D01*
X92147Y-67953D01*
X92138Y-67980D01*
X92130Y-67993D01*
X92112Y-68007D01*
X92078Y-68007D01*
X92061Y-67993D01*
X92052Y-67980D01*
X92044Y-67953D01*
X91890Y-67833D02*
X91924Y-67833D01*
X91941Y-67847D01*
X91950Y-67860D01*
X91967Y-67900D01*
X91976Y-67953D01*
X91976Y-68060D01*
X91967Y-68087D01*
X91959Y-68100D01*
X91941Y-68113D01*
X91907Y-68113D01*
X91890Y-68100D01*
X91881Y-68087D01*
X91873Y-68060D01*
X91873Y-67993D01*
X91881Y-67967D01*
X91890Y-67953D01*
X91907Y-67940D01*
X91941Y-67940D01*
X91959Y-67953D01*
X91967Y-67967D01*
X91976Y-67993D01*
X93262Y-66700D02*
X93236Y-66713D01*
X93193Y-66713D01*
X93176Y-66700D01*
X93167Y-66687D01*
X93159Y-66660D01*
X93159Y-66633D01*
X93167Y-66607D01*
X93176Y-66593D01*
X93193Y-66580D01*
X93227Y-66567D01*
X93245Y-66553D01*
X93253Y-66540D01*
X93262Y-66513D01*
X93262Y-66487D01*
X93253Y-66460D01*
X93245Y-66447D01*
X93227Y-66433D01*
X93185Y-66433D01*
X93159Y-66447D01*
X93082Y-66713D02*
X93082Y-66433D01*
X93014Y-66433D01*
X92996Y-66447D01*
X92988Y-66460D01*
X92979Y-66487D01*
X92979Y-66527D01*
X92988Y-66553D01*
X92996Y-66567D01*
X93014Y-66580D01*
X93082Y-66580D01*
X92825Y-66527D02*
X92825Y-66713D01*
X92868Y-66420D02*
X92911Y-66620D01*
X92799Y-66620D01*
X92697Y-66433D02*
X92680Y-66433D01*
X92663Y-66447D01*
X92654Y-66460D01*
X92645Y-66487D01*
X92637Y-66540D01*
X92637Y-66607D01*
X92645Y-66660D01*
X92654Y-66687D01*
X92663Y-66700D01*
X92680Y-66713D01*
X92697Y-66713D01*
X92714Y-66700D01*
X92723Y-66687D01*
X92731Y-66660D01*
X92740Y-66607D01*
X92740Y-66540D01*
X92731Y-66487D01*
X92723Y-66460D01*
X92714Y-66447D01*
X92697Y-66433D01*
G54D11*
X92992Y-63093D02*
X92992Y-62493D01*
X92649Y-63093D02*
X92906Y-62750D01*
X92649Y-62493D02*
X92992Y-62836D01*
X92106Y-63093D02*
X92392Y-63093D01*
X92392Y-62493D01*
X91735Y-62493D02*
X91735Y-62921D01*
X91763Y-63007D01*
X91820Y-63064D01*
X91906Y-63093D01*
X91963Y-63093D01*
X91449Y-62864D02*
X90992Y-62864D01*
X90392Y-63093D02*
X90735Y-63093D01*
X90563Y-63093D02*
X90563Y-62493D01*
X90620Y-62579D01*
X90678Y-62636D01*
X90735Y-62664D01*
X90164Y-62550D02*
X90135Y-62521D01*
X90078Y-62493D01*
X89935Y-62493D01*
X89878Y-62521D01*
X89849Y-62550D01*
X89821Y-62607D01*
X89821Y-62664D01*
X89849Y-62750D01*
X90192Y-63093D01*
X89821Y-63093D01*
X89621Y-62493D02*
X89250Y-62493D01*
X89450Y-62721D01*
X89364Y-62721D01*
X89307Y-62750D01*
X89278Y-62779D01*
X89250Y-62836D01*
X89250Y-62979D01*
X89278Y-63036D01*
X89307Y-63064D01*
X89364Y-63093D01*
X89536Y-63093D01*
X89593Y-63064D01*
X89621Y-63036D01*
X88879Y-62493D02*
X88822Y-62493D01*
X88765Y-62521D01*
X88736Y-62550D01*
X88707Y-62607D01*
X88679Y-62721D01*
X88679Y-62864D01*
X88707Y-62979D01*
X88736Y-63036D01*
X88765Y-63064D01*
X88822Y-63093D01*
X88879Y-63093D01*
X88936Y-63064D01*
X88965Y-63036D01*
X88993Y-62979D01*
X89022Y-62864D01*
X89022Y-62721D01*
X88993Y-62607D01*
X88965Y-62550D01*
X88936Y-62521D01*
X88879Y-62493D01*
G54D14*
X95813Y-61871D02*
X95680Y-61811D01*
X95813Y-61768D02*
X95533Y-61768D01*
X95533Y-61836D01*
X95547Y-61854D01*
X95560Y-61862D01*
X95587Y-61871D01*
X95627Y-61871D01*
X95653Y-61862D01*
X95667Y-61854D01*
X95680Y-61836D01*
X95680Y-61768D01*
X95627Y-62025D02*
X95813Y-62025D01*
X95520Y-61982D02*
X95720Y-61939D01*
X95720Y-62051D01*
X95063Y-61871D02*
X94930Y-61811D01*
X95063Y-61768D02*
X94783Y-61768D01*
X94783Y-61836D01*
X94797Y-61854D01*
X94810Y-61862D01*
X94837Y-61871D01*
X94877Y-61871D01*
X94903Y-61862D01*
X94917Y-61854D01*
X94930Y-61836D01*
X94930Y-61768D01*
X94783Y-62034D02*
X94783Y-61948D01*
X94917Y-61939D01*
X94903Y-61948D01*
X94890Y-61965D01*
X94890Y-62008D01*
X94903Y-62025D01*
X94917Y-62034D01*
X94943Y-62042D01*
X95010Y-62042D01*
X95037Y-62034D01*
X95050Y-62025D01*
X95063Y-62008D01*
X95063Y-61965D01*
X95050Y-61948D01*
X95037Y-61939D01*
X93679Y-62813D02*
X93739Y-62680D01*
X93782Y-62813D02*
X93782Y-62533D01*
X93714Y-62533D01*
X93696Y-62547D01*
X93688Y-62560D01*
X93679Y-62587D01*
X93679Y-62627D01*
X93688Y-62653D01*
X93696Y-62667D01*
X93714Y-62680D01*
X93782Y-62680D01*
X93525Y-62533D02*
X93559Y-62533D01*
X93576Y-62547D01*
X93585Y-62560D01*
X93602Y-62600D01*
X93611Y-62653D01*
X93611Y-62760D01*
X93602Y-62787D01*
X93594Y-62800D01*
X93576Y-62813D01*
X93542Y-62813D01*
X93525Y-62800D01*
X93516Y-62787D01*
X93508Y-62760D01*
X93508Y-62693D01*
X93516Y-62667D01*
X93525Y-62653D01*
X93542Y-62640D01*
X93576Y-62640D01*
X93594Y-62653D01*
X93602Y-62667D01*
X93611Y-62693D01*
X81979Y-65963D02*
X82039Y-65830D01*
X82082Y-65963D02*
X82082Y-65683D01*
X82014Y-65683D01*
X81996Y-65697D01*
X81988Y-65710D01*
X81979Y-65737D01*
X81979Y-65777D01*
X81988Y-65803D01*
X81996Y-65817D01*
X82014Y-65830D01*
X82082Y-65830D01*
X81911Y-65710D02*
X81902Y-65697D01*
X81885Y-65683D01*
X81842Y-65683D01*
X81825Y-65697D01*
X81816Y-65710D01*
X81808Y-65737D01*
X81808Y-65763D01*
X81816Y-65803D01*
X81919Y-65963D01*
X81808Y-65963D01*
X88129Y-66163D02*
X88189Y-66030D01*
X88232Y-66163D02*
X88232Y-65883D01*
X88164Y-65883D01*
X88146Y-65897D01*
X88138Y-65910D01*
X88129Y-65937D01*
X88129Y-65977D01*
X88138Y-66003D01*
X88146Y-66017D01*
X88164Y-66030D01*
X88232Y-66030D01*
X87958Y-66163D02*
X88061Y-66163D01*
X88009Y-66163D02*
X88009Y-65883D01*
X88026Y-65923D01*
X88044Y-65950D01*
X88061Y-65963D01*
M02*
