M48
;DRILL file {Pcbnew (2012-01-19 BZR 3256)-stable} date 26/03/2013 21:56:14
;FORMAT={-:-/ absolute / inch / decimal}
FMAT,2
INCH,TZ
T1C0.015
T2C0.035
T3C0.040
%
G90
G05
M72
T1
X8.070Y6.235
X8.105Y6.660
X8.105Y6.855
X8.130Y6.455
X8.165Y6.085
X8.175Y6.510
X8.195Y6.713
X8.205Y6.660
X8.245Y6.785
X8.275Y6.165
X8.280Y6.115
X8.295Y6.660
X8.295Y6.713
X8.345Y6.785
X8.355Y6.600
X8.390Y6.355
X8.395Y6.713
X8.410Y6.490
X8.415Y6.225
X8.425Y6.355
X8.445Y6.490
X8.445Y6.785
X8.460Y6.355
X8.475Y6.300
X8.480Y6.490
X8.480Y6.650
X8.495Y6.350
X8.495Y6.713
X8.500Y6.275
X8.515Y6.500
X8.525Y6.060
X8.530Y6.300
X8.530Y6.335
X8.530Y6.470
X8.540Y6.525
X8.545Y6.785
X8.560Y6.450
X8.570Y6.060
X8.585Y6.525
X8.590Y6.430
X8.595Y6.713
X8.607Y6.060
X8.620Y6.415
X8.620Y6.645
X8.635Y6.360
X8.645Y6.675
X8.645Y6.785
X8.675Y6.320
X8.675Y6.360
X8.695Y6.640
X8.695Y6.713
X8.710Y6.360
X8.745Y6.785
X8.795Y6.713
X8.835Y6.480
X8.840Y6.235
X8.845Y6.785
X8.845Y6.835
X8.895Y6.713
X8.910Y6.145
X8.940Y6.125
X8.940Y6.515
X8.945Y6.785
X8.970Y6.100
X8.995Y6.713
X9.075Y6.715
X9.110Y6.410
X9.150Y6.715
X9.195Y6.155
X9.195Y6.410
X9.195Y6.905
X9.203Y6.515
X9.203Y6.553
X9.265Y6.508
X9.265Y6.555
X9.265Y6.630
X9.265Y6.705
X9.265Y6.785
X9.265Y6.855
X9.265Y6.970
X9.280Y6.410
X9.365Y6.410
X9.450Y6.410
X9.485Y6.650
X9.530Y6.625
X9.535Y6.410
X9.620Y6.410
X9.620Y6.550
X9.635Y6.150
X9.660Y6.575
X9.705Y6.410
X9.705Y6.550
X9.740Y6.585
X9.760Y6.305
X9.840Y6.610
T3
X9.240Y6.080
X9.340Y6.080
X9.440Y6.080
X9.540Y6.080
X9.640Y6.080
T2
X9.782Y6.365G85X9.782Y6.355
G05
X10.018Y6.365G85X10.018Y6.355
G05
T0
M30
