G04 (created by PCBNEW-RS274X (2012-01-19 BZR 3256)-stable) date 26/03/2013 21:56:11*
G01*
G70*
G90*
%MOIN*%
G04 Gerber Fmt 3.4, Leading zero omitted, Abs format*
%FSLAX34Y34*%
G04 APERTURE LIST*
%ADD10C,0.006000*%
%ADD11C,0.005000*%
G04 APERTURE END LIST*
G54D10*
G54D11*
X80000Y-60300D02*
X100800Y-60300D01*
X98456Y-69000D02*
X98452Y-69040D01*
X98440Y-69078D01*
X98421Y-69113D01*
X98396Y-69145D01*
X98365Y-69170D01*
X98329Y-69189D01*
X98291Y-69201D01*
X98251Y-69205D01*
X98212Y-69202D01*
X98173Y-69190D01*
X98138Y-69172D01*
X98106Y-69147D01*
X98081Y-69116D01*
X98061Y-69081D01*
X98049Y-69042D01*
X98045Y-69002D01*
X98048Y-68963D01*
X98059Y-68925D01*
X98077Y-68889D01*
X98102Y-68857D01*
X98133Y-68831D01*
X98168Y-68812D01*
X98206Y-68799D01*
X98246Y-68795D01*
X98285Y-68798D01*
X98324Y-68808D01*
X98360Y-68827D01*
X98392Y-68851D01*
X98418Y-68882D01*
X98438Y-68917D01*
X98450Y-68955D01*
X98455Y-68995D01*
X98456Y-69000D01*
X95306Y-69000D02*
X95302Y-69040D01*
X95290Y-69078D01*
X95271Y-69113D01*
X95246Y-69145D01*
X95215Y-69170D01*
X95179Y-69189D01*
X95141Y-69201D01*
X95101Y-69205D01*
X95062Y-69202D01*
X95023Y-69190D01*
X94988Y-69172D01*
X94956Y-69147D01*
X94931Y-69116D01*
X94911Y-69081D01*
X94899Y-69042D01*
X94895Y-69002D01*
X94898Y-68963D01*
X94909Y-68925D01*
X94927Y-68889D01*
X94952Y-68857D01*
X94983Y-68831D01*
X95018Y-68812D01*
X95056Y-68799D01*
X95096Y-68795D01*
X95135Y-68798D01*
X95174Y-68808D01*
X95210Y-68827D01*
X95242Y-68851D01*
X95268Y-68882D01*
X95288Y-68917D01*
X95300Y-68955D01*
X95305Y-68995D01*
X95306Y-69000D01*
X99450Y-62000D02*
X99438Y-62116D01*
X99404Y-62228D01*
X99349Y-62332D01*
X99275Y-62422D01*
X99185Y-62497D01*
X99082Y-62553D01*
X98970Y-62587D01*
X98854Y-62599D01*
X98738Y-62589D01*
X98626Y-62556D01*
X98522Y-62502D01*
X98431Y-62428D01*
X98355Y-62338D01*
X98299Y-62236D01*
X98264Y-62124D01*
X98251Y-62008D01*
X98260Y-61892D01*
X98293Y-61780D01*
X98346Y-61675D01*
X98419Y-61584D01*
X98508Y-61508D01*
X98610Y-61451D01*
X98722Y-61414D01*
X98838Y-61401D01*
X98954Y-61410D01*
X99066Y-61441D01*
X99171Y-61494D01*
X99263Y-61566D01*
X99340Y-61655D01*
X99398Y-61756D01*
X99435Y-61868D01*
X99449Y-61984D01*
X99450Y-62000D01*
X82550Y-62000D02*
X82538Y-62116D01*
X82504Y-62228D01*
X82449Y-62332D01*
X82375Y-62422D01*
X82285Y-62497D01*
X82182Y-62553D01*
X82070Y-62587D01*
X81954Y-62599D01*
X81838Y-62589D01*
X81726Y-62556D01*
X81622Y-62502D01*
X81531Y-62428D01*
X81455Y-62338D01*
X81399Y-62236D01*
X81364Y-62124D01*
X81351Y-62008D01*
X81360Y-61892D01*
X81393Y-61780D01*
X81446Y-61675D01*
X81519Y-61584D01*
X81608Y-61508D01*
X81710Y-61451D01*
X81822Y-61414D01*
X81938Y-61401D01*
X82054Y-61410D01*
X82166Y-61441D01*
X82271Y-61494D01*
X82363Y-61566D01*
X82440Y-61655D01*
X82498Y-61756D01*
X82535Y-61868D01*
X82549Y-61984D01*
X82550Y-62000D01*
X80300Y-70000D02*
X100500Y-70000D01*
X100800Y-65800D02*
X100800Y-60300D01*
X100200Y-65800D02*
X100800Y-65800D01*
X100200Y-65800D02*
X100200Y-68000D01*
X100800Y-68000D02*
X100200Y-68000D01*
X100800Y-68400D02*
X100800Y-68000D01*
X100500Y-68400D02*
X100800Y-68400D01*
X100500Y-70000D02*
X100500Y-68400D01*
X80000Y-60300D02*
X80000Y-65800D01*
X80600Y-65800D02*
X80000Y-65800D01*
X80600Y-68000D02*
X80600Y-65800D01*
X80000Y-68000D02*
X80600Y-68000D01*
X80000Y-68400D02*
X80000Y-68000D01*
X80300Y-68400D02*
X80000Y-68400D01*
X80300Y-70000D02*
X80300Y-68400D01*
M02*
