G04 (created by PCBNEW-RS274X (2012-01-19 BZR 3256)-stable) date 26/03/2013 21:56:11*
G01*
G70*
G90*
%MOIN*%
G04 Gerber Fmt 3.4, Leading zero omitted, Abs format*
%FSLAX34Y34*%
G04 APERTURE LIST*
%ADD10C,0.006000*%
%ADD11R,0.055000X0.065000*%
%ADD12R,0.040000X0.060000*%
%ADD13R,0.090000X0.130000*%
%ADD14R,0.065000X0.075000*%
%ADD15R,0.065000X0.055000*%
%ADD16R,0.140000X0.075000*%
%ADD17O,0.140000X0.075000*%
%ADD18O,0.080000X0.180000*%
%ADD19R,0.077200X0.031800*%
%ADD20R,0.031800X0.077200*%
%ADD21R,0.075000X0.055000*%
%ADD22R,0.177500X0.098700*%
%ADD23R,0.080000X0.080000*%
%ADD24C,0.080000*%
%ADD25O,0.080000X0.090000*%
G04 APERTURE END LIST*
G54D10*
G54D11*
X89400Y-66550D03*
X88700Y-66550D03*
G54D12*
X99725Y-61000D03*
X100475Y-61000D03*
X99725Y-62100D03*
X100100Y-61000D03*
X100475Y-62100D03*
G54D13*
X98500Y-65050D03*
X99900Y-65050D03*
G54D14*
X97425Y-60800D03*
X98275Y-60800D03*
G54D15*
X91500Y-67850D03*
X91500Y-67150D03*
X90750Y-67850D03*
X90750Y-67150D03*
X98800Y-63950D03*
X98800Y-63250D03*
G54D11*
X81650Y-60850D03*
X82350Y-60850D03*
G54D16*
X80650Y-61050D03*
G54D17*
X80650Y-62050D03*
X80650Y-63050D03*
X80650Y-64050D03*
X80650Y-65050D03*
G54D18*
X90950Y-69200D03*
X89950Y-69200D03*
X88950Y-69200D03*
X87950Y-69200D03*
X86950Y-69200D03*
X85950Y-69200D03*
X84950Y-69200D03*
X83950Y-69200D03*
X82950Y-69200D03*
X81950Y-69200D03*
G54D19*
X83117Y-64633D03*
X83117Y-64436D03*
X83117Y-64239D03*
X83117Y-64042D03*
X83117Y-63845D03*
X83117Y-63648D03*
X83117Y-64830D03*
X83117Y-65026D03*
G54D20*
X84711Y-65833D03*
X84908Y-65833D03*
X85105Y-65833D03*
G54D19*
X87683Y-62861D03*
X87683Y-62664D03*
X87683Y-62467D03*
X87683Y-62270D03*
X87683Y-62074D03*
G54D20*
X86089Y-61267D03*
G54D19*
X87683Y-63058D03*
X87683Y-63255D03*
X87683Y-63452D03*
X87683Y-63648D03*
X87683Y-63845D03*
G54D20*
X84908Y-61267D03*
X86286Y-65833D03*
X85105Y-61267D03*
X86483Y-65833D03*
X86680Y-65833D03*
X85302Y-61267D03*
X85498Y-61267D03*
X86876Y-65833D03*
G54D19*
X87683Y-64239D03*
G54D20*
X85695Y-61267D03*
X85892Y-61267D03*
G54D19*
X87683Y-64042D03*
G54D20*
X86089Y-65833D03*
X84711Y-61267D03*
X84514Y-61267D03*
X85892Y-65833D03*
X85695Y-65833D03*
X84317Y-61267D03*
X84120Y-61267D03*
X85498Y-65833D03*
X85302Y-65833D03*
X83924Y-61267D03*
G54D19*
X83117Y-63452D03*
X83117Y-63255D03*
X83117Y-63058D03*
X83117Y-62861D03*
G54D20*
X86286Y-61267D03*
X86483Y-61267D03*
X86680Y-61267D03*
X86876Y-61267D03*
G54D19*
X87683Y-64436D03*
X87683Y-64633D03*
X87683Y-64830D03*
X87683Y-65026D03*
X83117Y-62664D03*
X83117Y-62467D03*
X83117Y-62270D03*
X83117Y-62074D03*
G54D20*
X84514Y-65833D03*
X84317Y-65833D03*
X84120Y-65833D03*
X83924Y-65833D03*
G54D21*
X85950Y-67125D03*
X85950Y-67875D03*
X83950Y-67125D03*
X83950Y-67875D03*
X84950Y-67125D03*
X84950Y-67875D03*
X86950Y-67125D03*
X86950Y-67875D03*
X87950Y-67125D03*
X87950Y-67875D03*
X81950Y-67125D03*
X81950Y-67875D03*
X82950Y-67125D03*
X82950Y-67875D03*
X89950Y-67125D03*
X89950Y-67875D03*
X88950Y-67125D03*
X88950Y-67875D03*
G54D11*
X81600Y-64550D03*
X82300Y-64550D03*
G54D15*
X81900Y-63650D03*
X81900Y-62950D03*
G54D13*
X97400Y-61900D03*
X96000Y-61900D03*
G54D15*
X91950Y-69150D03*
X91950Y-68450D03*
G54D22*
X90850Y-61400D03*
X90850Y-66200D03*
G54D23*
X92400Y-60800D03*
G54D24*
X93400Y-60800D03*
X94400Y-60800D03*
X95400Y-60800D03*
X96400Y-60800D03*
G54D15*
X95150Y-62250D03*
X95150Y-61550D03*
X94400Y-62250D03*
X94400Y-61550D03*
X93650Y-62250D03*
X93650Y-61550D03*
G54D11*
X82300Y-65300D03*
X81600Y-65300D03*
X88050Y-66550D03*
X87350Y-66550D03*
G54D25*
X97819Y-63600D03*
X100181Y-63600D03*
M02*
