G04 (created by PCBNEW-RS274X (2012-01-19 BZR 3256)-stable) date 26/03/2013 21:56:11*
G01*
G70*
G90*
%MOIN*%
G04 Gerber Fmt 3.4, Leading zero omitted, Abs format*
%FSLAX34Y34*%
G04 APERTURE LIST*
%ADD10C,0.006000*%
%ADD11R,0.036000X0.036000*%
%ADD12R,0.055000X0.045000*%
%ADD13R,0.045000X0.035000*%
%ADD14R,0.035000X0.045000*%
%ADD15R,0.060000X0.160000*%
%ADD16O,0.060000X0.160000*%
%ADD17R,0.060000X0.080000*%
%ADD18R,0.055000X0.035000*%
%ADD19R,0.080000X0.040000*%
%ADD20R,0.047200X0.086600*%
%ADD21R,0.063000X0.055100*%
%ADD22R,0.047200X0.055100*%
%ADD23R,0.027600X0.063000*%
%ADD24R,0.023600X0.023600*%
%ADD25R,0.015700X0.023600*%
G04 APERTURE END LIST*
G54D10*
G54D11*
X89500Y-64450D03*
X89500Y-63750D03*
X90300Y-64100D03*
X89500Y-63100D03*
X89500Y-62400D03*
X90300Y-62750D03*
G54D12*
X81050Y-66975D03*
X81050Y-67825D03*
G54D13*
X93650Y-64100D03*
X93650Y-63400D03*
X92800Y-64100D03*
X92800Y-63400D03*
X91950Y-64100D03*
X91950Y-63400D03*
X91100Y-64100D03*
X91100Y-63400D03*
G54D14*
X93350Y-68550D03*
X92650Y-68550D03*
X93350Y-67800D03*
X92650Y-67800D03*
X93350Y-65550D03*
X92650Y-65550D03*
X93350Y-64800D03*
X92650Y-64800D03*
X93350Y-66300D03*
X92650Y-66300D03*
X93350Y-67050D03*
X92650Y-67050D03*
G54D13*
X91500Y-67150D03*
X91500Y-67850D03*
G54D14*
X85250Y-60650D03*
X84550Y-60650D03*
X85250Y-61350D03*
X84550Y-61350D03*
X86600Y-61350D03*
X85900Y-61350D03*
X82300Y-63000D03*
X81600Y-63000D03*
X88900Y-64400D03*
X88200Y-64400D03*
X88200Y-63650D03*
X88900Y-63650D03*
G54D13*
X90750Y-67850D03*
X90750Y-67150D03*
X85950Y-67850D03*
X85950Y-67150D03*
X83950Y-67850D03*
X83950Y-67150D03*
X84950Y-67850D03*
X84950Y-67150D03*
X86950Y-67850D03*
X86950Y-67150D03*
X87950Y-67850D03*
X87950Y-67150D03*
X88950Y-67850D03*
X88950Y-67150D03*
X89950Y-67850D03*
X89950Y-67150D03*
X82950Y-67850D03*
X82950Y-67150D03*
X81950Y-67850D03*
X81950Y-67150D03*
G54D14*
X88200Y-62900D03*
X88900Y-62900D03*
G54D13*
X97050Y-64100D03*
X97050Y-63400D03*
X96200Y-64100D03*
X96200Y-63400D03*
X95350Y-64100D03*
X95350Y-63400D03*
X94500Y-64100D03*
X94500Y-63400D03*
G54D14*
X89550Y-61700D03*
X90250Y-61700D03*
X92650Y-69300D03*
X93350Y-69300D03*
X81650Y-60750D03*
X82350Y-60750D03*
X81050Y-60750D03*
X80350Y-60750D03*
G54D15*
X90950Y-69200D03*
G54D16*
X89950Y-69200D03*
X88950Y-69200D03*
X87950Y-69200D03*
X86950Y-69200D03*
X85950Y-69200D03*
X84950Y-69200D03*
X83950Y-69200D03*
X82950Y-69200D03*
X81950Y-69200D03*
G54D17*
X90100Y-65250D03*
X91400Y-65250D03*
G54D18*
X80700Y-61575D03*
X80700Y-62325D03*
X80700Y-63025D03*
X80700Y-63775D03*
X91100Y-62775D03*
X91100Y-62025D03*
X91950Y-62775D03*
X91950Y-62025D03*
X92800Y-62775D03*
X92800Y-62025D03*
X93650Y-62775D03*
X93650Y-62025D03*
X94500Y-62775D03*
X94500Y-62025D03*
X95350Y-62775D03*
X95350Y-62025D03*
X96200Y-62775D03*
X96200Y-62025D03*
X97050Y-62775D03*
X97050Y-62025D03*
G54D19*
X80850Y-65100D03*
X82050Y-65100D03*
X82050Y-64500D03*
X80850Y-64500D03*
G54D14*
X82300Y-63750D03*
X81600Y-63750D03*
G54D20*
X93999Y-68838D03*
X100101Y-68838D03*
G54D21*
X99747Y-65059D03*
G54D22*
X93999Y-65059D03*
G54D23*
X94471Y-64862D03*
X94904Y-64862D03*
X95337Y-64862D03*
X95770Y-64862D03*
X96204Y-64862D03*
X96637Y-64862D03*
X97070Y-64862D03*
X97503Y-64862D03*
X97936Y-64862D03*
G54D14*
X88200Y-65150D03*
X88900Y-65150D03*
G54D18*
X91950Y-69625D03*
X91950Y-68875D03*
G54D24*
X83100Y-60750D03*
X83100Y-61150D03*
X83800Y-61150D03*
X83800Y-60750D03*
G54D25*
X85627Y-66500D03*
X85273Y-66500D03*
M02*
