G04 (created by PCBNEW-RS274X (2012-01-19 BZR 3256)-stable) date 26/03/2013 21:56:11*
G01*
G70*
G90*
%MOIN*%
G04 Gerber Fmt 3.4, Leading zero omitted, Abs format*
%FSLAX34Y34*%
G04 APERTURE LIST*
%ADD10C,0.006000*%
%ADD11R,0.036000X0.036000*%
%ADD12R,0.055000X0.045000*%
%ADD13R,0.045000X0.035000*%
%ADD14R,0.035000X0.045000*%
%ADD15R,0.060000X0.160000*%
%ADD16O,0.060000X0.160000*%
%ADD17R,0.060000X0.080000*%
%ADD18R,0.055000X0.035000*%
%ADD19R,0.080000X0.040000*%
%ADD20R,0.047200X0.086600*%
%ADD21R,0.063000X0.055100*%
%ADD22R,0.047200X0.055100*%
%ADD23R,0.027600X0.063000*%
%ADD24R,0.060000X0.060000*%
%ADD25C,0.060000*%
%ADD26R,0.023600X0.023600*%
%ADD27O,0.060000X0.070000*%
%ADD28R,0.015700X0.023600*%
%ADD29C,0.025000*%
%ADD30C,0.008000*%
%ADD31C,0.020000*%
%ADD32C,0.012000*%
%ADD33C,0.010000*%
G04 APERTURE END LIST*
G54D10*
G54D11*
X89500Y-64450D03*
X89500Y-63750D03*
X90300Y-64100D03*
X89500Y-63100D03*
X89500Y-62400D03*
X90300Y-62750D03*
G54D12*
X81050Y-66975D03*
X81050Y-67825D03*
G54D13*
X93650Y-64100D03*
X93650Y-63400D03*
X92800Y-64100D03*
X92800Y-63400D03*
X91950Y-64100D03*
X91950Y-63400D03*
X91100Y-64100D03*
X91100Y-63400D03*
G54D14*
X93350Y-68550D03*
X92650Y-68550D03*
X93350Y-67800D03*
X92650Y-67800D03*
X93350Y-65550D03*
X92650Y-65550D03*
X93350Y-64800D03*
X92650Y-64800D03*
X93350Y-66300D03*
X92650Y-66300D03*
X93350Y-67050D03*
X92650Y-67050D03*
G54D13*
X91500Y-67150D03*
X91500Y-67850D03*
G54D14*
X85250Y-60650D03*
X84550Y-60650D03*
X85250Y-61350D03*
X84550Y-61350D03*
X86600Y-61350D03*
X85900Y-61350D03*
X82300Y-63000D03*
X81600Y-63000D03*
X88900Y-64400D03*
X88200Y-64400D03*
X88200Y-63650D03*
X88900Y-63650D03*
G54D13*
X90750Y-67850D03*
X90750Y-67150D03*
X85950Y-67850D03*
X85950Y-67150D03*
X83950Y-67850D03*
X83950Y-67150D03*
X84950Y-67850D03*
X84950Y-67150D03*
X86950Y-67850D03*
X86950Y-67150D03*
X87950Y-67850D03*
X87950Y-67150D03*
X88950Y-67850D03*
X88950Y-67150D03*
X89950Y-67850D03*
X89950Y-67150D03*
X82950Y-67850D03*
X82950Y-67150D03*
X81950Y-67850D03*
X81950Y-67150D03*
G54D14*
X88200Y-62900D03*
X88900Y-62900D03*
G54D13*
X97050Y-64100D03*
X97050Y-63400D03*
X96200Y-64100D03*
X96200Y-63400D03*
X95350Y-64100D03*
X95350Y-63400D03*
X94500Y-64100D03*
X94500Y-63400D03*
G54D14*
X89550Y-61700D03*
X90250Y-61700D03*
X92650Y-69300D03*
X93350Y-69300D03*
X81650Y-60750D03*
X82350Y-60750D03*
X81050Y-60750D03*
X80350Y-60750D03*
G54D15*
X90950Y-69200D03*
G54D16*
X89950Y-69200D03*
X88950Y-69200D03*
X87950Y-69200D03*
X86950Y-69200D03*
X85950Y-69200D03*
X84950Y-69200D03*
X83950Y-69200D03*
X82950Y-69200D03*
X81950Y-69200D03*
G54D17*
X90100Y-65250D03*
X91400Y-65250D03*
G54D18*
X80700Y-61575D03*
X80700Y-62325D03*
X80700Y-63025D03*
X80700Y-63775D03*
X91100Y-62775D03*
X91100Y-62025D03*
X91950Y-62775D03*
X91950Y-62025D03*
X92800Y-62775D03*
X92800Y-62025D03*
X93650Y-62775D03*
X93650Y-62025D03*
X94500Y-62775D03*
X94500Y-62025D03*
X95350Y-62775D03*
X95350Y-62025D03*
X96200Y-62775D03*
X96200Y-62025D03*
X97050Y-62775D03*
X97050Y-62025D03*
G54D19*
X80850Y-65100D03*
X82050Y-65100D03*
X82050Y-64500D03*
X80850Y-64500D03*
G54D14*
X82300Y-63750D03*
X81600Y-63750D03*
G54D20*
X93999Y-68838D03*
X100101Y-68838D03*
G54D21*
X99747Y-65059D03*
G54D22*
X93999Y-65059D03*
G54D23*
X94471Y-64862D03*
X94904Y-64862D03*
X95337Y-64862D03*
X95770Y-64862D03*
X96204Y-64862D03*
X96637Y-64862D03*
X97070Y-64862D03*
X97503Y-64862D03*
X97936Y-64862D03*
G54D14*
X88200Y-65150D03*
X88900Y-65150D03*
G54D18*
X91950Y-69625D03*
X91950Y-68875D03*
G54D24*
X92400Y-60800D03*
G54D25*
X93400Y-60800D03*
X94400Y-60800D03*
X95400Y-60800D03*
X96400Y-60800D03*
G54D26*
X83100Y-60750D03*
X83100Y-61150D03*
X83800Y-61150D03*
X83800Y-60750D03*
G54D27*
X97819Y-63600D03*
X100181Y-63600D03*
G54D28*
X85627Y-66500D03*
X85273Y-66500D03*
G54D29*
X85150Y-65000D03*
X81950Y-67125D03*
X84800Y-66500D03*
X84250Y-63550D03*
X82950Y-66600D03*
X82950Y-67125D03*
X84600Y-63550D03*
X85700Y-60600D03*
X85000Y-62750D03*
X85250Y-60600D03*
X91100Y-64100D03*
X91950Y-64100D03*
X92800Y-64100D03*
X93650Y-64100D03*
X94500Y-64100D03*
X95350Y-64100D03*
X96200Y-64100D03*
X97050Y-64100D03*
X86075Y-60600D03*
X81650Y-60850D03*
X87100Y-63600D03*
X81050Y-68550D03*
X88450Y-68350D03*
X92025Y-65525D03*
X91500Y-67150D03*
X96200Y-65500D03*
X85900Y-64300D03*
X92650Y-65550D03*
X92650Y-65075D03*
X97050Y-65500D03*
X86200Y-64150D03*
X92650Y-67850D03*
X85850Y-65250D03*
X95300Y-66250D03*
X92650Y-68550D03*
X85400Y-65250D03*
X94850Y-66500D03*
X92650Y-67050D03*
X97400Y-65850D03*
X85300Y-64700D03*
X85600Y-64500D03*
X96600Y-65750D03*
X92650Y-66300D03*
X83950Y-67125D03*
X83550Y-66000D03*
X86950Y-66400D03*
X85950Y-67125D03*
X86950Y-67125D03*
X88950Y-67125D03*
X86200Y-66450D03*
X84950Y-67125D03*
X86450Y-66750D03*
X82050Y-66600D03*
X83900Y-63550D03*
X87950Y-67125D03*
X89950Y-67125D03*
X90750Y-67150D03*
X89100Y-61450D03*
X84800Y-64900D03*
X89400Y-61250D03*
X84450Y-64900D03*
X89700Y-61000D03*
X84150Y-62250D03*
X92650Y-69700D03*
X87450Y-67850D03*
X89450Y-67850D03*
X86450Y-67850D03*
X85300Y-63000D03*
X88450Y-67850D03*
X82450Y-67850D03*
X85450Y-67850D03*
X84450Y-67850D03*
X88400Y-62350D03*
X96350Y-61500D03*
X83450Y-67850D03*
X81050Y-66600D03*
X86350Y-63600D03*
X84950Y-63500D03*
X81750Y-65100D03*
X98400Y-66100D03*
X86750Y-63200D03*
X82750Y-61650D03*
X84750Y-63000D03*
X89400Y-65150D03*
X92025Y-65150D03*
X91950Y-69050D03*
X91950Y-61550D03*
X82800Y-61150D03*
X97600Y-63050D03*
X81300Y-64550D03*
X80700Y-62350D03*
X88350Y-64800D03*
X84100Y-64900D03*
X86750Y-63600D03*
X85300Y-63350D03*
G54D30*
X85150Y-65000D02*
X85050Y-64900D01*
X88200Y-62900D02*
X86700Y-62900D01*
X85050Y-64900D02*
X85050Y-64550D01*
X85050Y-64550D02*
X86700Y-62900D01*
X82950Y-66600D02*
X82500Y-66600D01*
X82500Y-66600D02*
X81950Y-67150D01*
X84250Y-64100D02*
X83050Y-65300D01*
X81950Y-67125D02*
X81950Y-67150D01*
X82950Y-66600D02*
X83050Y-66500D01*
X83050Y-65300D02*
X83050Y-66500D01*
X85273Y-66500D02*
X84800Y-66500D01*
X84250Y-63550D02*
X84250Y-64100D01*
X84600Y-63550D02*
X84600Y-64000D01*
X84600Y-64000D02*
X83250Y-65350D01*
X82950Y-67125D02*
X82950Y-67150D01*
X82950Y-67150D02*
X83250Y-66850D01*
X83250Y-65350D02*
X83250Y-66850D01*
X85700Y-60900D02*
X85250Y-61350D01*
X85700Y-60600D02*
X85700Y-60900D01*
X82300Y-63000D02*
X82550Y-62750D01*
X82550Y-62750D02*
X85000Y-62750D01*
X85250Y-60650D02*
X85250Y-60600D01*
X86075Y-60825D02*
X86600Y-61350D01*
X86075Y-60600D02*
X86075Y-60825D01*
X81650Y-60850D02*
X81650Y-60750D01*
X87150Y-63650D02*
X88200Y-63650D01*
X87100Y-63600D02*
X87150Y-63650D01*
X81050Y-68550D02*
X81050Y-67825D01*
X85950Y-67850D02*
X85950Y-69200D01*
X81950Y-67850D02*
X81950Y-69200D01*
X83950Y-67850D02*
X83950Y-69200D01*
X86950Y-69200D02*
X86950Y-67850D01*
X88950Y-67850D02*
X88950Y-69200D01*
X84950Y-67850D02*
X84950Y-69200D01*
X84950Y-67850D02*
X85300Y-67500D01*
X91500Y-67850D02*
X91450Y-67850D01*
X85300Y-67500D02*
X91150Y-67500D01*
X91150Y-67500D02*
X91500Y-67850D01*
X87950Y-67850D02*
X87950Y-69200D01*
X87950Y-67850D02*
X88450Y-68350D01*
X89950Y-67850D02*
X89950Y-69200D01*
X82950Y-67850D02*
X82950Y-69200D01*
X92025Y-65525D02*
X91675Y-65525D01*
X91675Y-65525D02*
X91400Y-65250D01*
X90950Y-68050D02*
X90750Y-67850D01*
X91900Y-67550D02*
X91500Y-67150D01*
X90950Y-69200D02*
X90950Y-68050D01*
X91900Y-68250D02*
X91900Y-67550D01*
X90950Y-69200D02*
X91900Y-68250D01*
X86350Y-64400D02*
X86000Y-64400D01*
X88750Y-66000D02*
X92200Y-66000D01*
X87750Y-65800D02*
X86350Y-64400D01*
X92200Y-66000D02*
X92650Y-65550D01*
X96200Y-65500D02*
X96200Y-64866D01*
X87750Y-65800D02*
X88550Y-65800D01*
X86000Y-64400D02*
X85900Y-64300D01*
X96200Y-64866D02*
X96204Y-64862D01*
X88550Y-65800D02*
X88750Y-66000D01*
X97050Y-64882D02*
X97070Y-64862D01*
X97050Y-65500D02*
X97050Y-64882D01*
X92300Y-65650D02*
X92300Y-65150D01*
X92150Y-65800D02*
X92300Y-65650D01*
X92300Y-65150D02*
X92650Y-64800D01*
X86350Y-64150D02*
X86200Y-64150D01*
X87800Y-65600D02*
X86350Y-64150D01*
X88800Y-65800D02*
X92150Y-65800D01*
X92650Y-64800D02*
X92650Y-65075D01*
X88600Y-65600D02*
X88800Y-65800D01*
X87800Y-65600D02*
X88600Y-65600D01*
X86450Y-65250D02*
X85850Y-65250D01*
X92300Y-67450D02*
X92650Y-67800D01*
X87600Y-66400D02*
X88400Y-66400D01*
X95337Y-66213D02*
X95337Y-64862D01*
X87600Y-66400D02*
X86450Y-65250D01*
X88400Y-66400D02*
X88600Y-66600D01*
X88600Y-66600D02*
X91950Y-66600D01*
X92650Y-67800D02*
X92650Y-67850D01*
X95300Y-66250D02*
X95337Y-66213D01*
X91950Y-66600D02*
X92300Y-66950D01*
X92300Y-66950D02*
X92300Y-67450D01*
X88350Y-66600D02*
X88550Y-66800D01*
X92650Y-68450D02*
X92650Y-68550D01*
X87550Y-66600D02*
X86450Y-65500D01*
X94850Y-66500D02*
X94904Y-66446D01*
X94904Y-66446D02*
X94904Y-64862D01*
X92100Y-67000D02*
X92100Y-67900D01*
X92100Y-67900D02*
X92650Y-68450D01*
X85650Y-65500D02*
X85400Y-65250D01*
X88550Y-66800D02*
X91900Y-66800D01*
X91900Y-66800D02*
X92100Y-67000D01*
X86450Y-65500D02*
X85650Y-65500D01*
X87550Y-66600D02*
X88350Y-66600D01*
X87650Y-66200D02*
X88450Y-66200D01*
X87650Y-66200D02*
X86250Y-64800D01*
X97400Y-65800D02*
X97400Y-65850D01*
X92650Y-67050D02*
X92000Y-66400D01*
X88650Y-66400D02*
X88450Y-66200D01*
X86250Y-64800D02*
X85400Y-64800D01*
X97936Y-64862D02*
X97936Y-65264D01*
X85400Y-64800D02*
X85300Y-64700D01*
X97936Y-65264D02*
X97400Y-65800D01*
X92000Y-66400D02*
X88650Y-66400D01*
X97150Y-65750D02*
X97503Y-65397D01*
X87700Y-66000D02*
X86300Y-64600D01*
X88500Y-66000D02*
X88700Y-66200D01*
X86300Y-64600D02*
X85700Y-64600D01*
X96600Y-65750D02*
X97150Y-65750D01*
X87700Y-66000D02*
X88500Y-66000D01*
X85700Y-64600D02*
X85600Y-64500D01*
X97503Y-65397D02*
X97503Y-64862D01*
X92650Y-66300D02*
X92550Y-66200D01*
X88700Y-66200D02*
X92550Y-66200D01*
X83950Y-67125D02*
X83950Y-67150D01*
X86950Y-66400D02*
X86700Y-66150D01*
X86700Y-66150D02*
X84750Y-66150D01*
X83950Y-66950D02*
X83950Y-67150D01*
X83550Y-66750D02*
X83950Y-67150D01*
X83550Y-66000D02*
X83550Y-66750D01*
X84750Y-66150D02*
X83950Y-66950D01*
X85950Y-67125D02*
X85950Y-67150D01*
X86950Y-67125D02*
X86950Y-67150D01*
X88950Y-67150D02*
X88650Y-67150D01*
X88950Y-67125D02*
X88950Y-67150D01*
X88650Y-67150D02*
X88300Y-66800D01*
X86600Y-66450D02*
X86950Y-66800D01*
X86200Y-66450D02*
X86600Y-66450D01*
X86950Y-66800D02*
X88300Y-66800D01*
X86450Y-66750D02*
X85877Y-66750D01*
X85627Y-66500D02*
X85627Y-66673D01*
X85877Y-66750D02*
X85627Y-66500D01*
X85150Y-67150D02*
X84950Y-67150D01*
X85627Y-66673D02*
X85150Y-67150D01*
X84950Y-67125D02*
X84950Y-67150D01*
X87950Y-67125D02*
X87950Y-67150D01*
X83900Y-64200D02*
X83900Y-63550D01*
X82850Y-65250D02*
X82850Y-65800D01*
X82850Y-65800D02*
X82050Y-66600D01*
X83900Y-64200D02*
X82850Y-65250D01*
X89950Y-67125D02*
X89950Y-67150D01*
X88950Y-61450D02*
X87700Y-62700D01*
X84800Y-64550D02*
X86650Y-62700D01*
X84800Y-64900D02*
X84800Y-64550D01*
X89100Y-61450D02*
X88950Y-61450D01*
X87700Y-62700D02*
X86650Y-62700D01*
X89400Y-61250D02*
X89350Y-61200D01*
X87650Y-62500D02*
X86600Y-62500D01*
X84450Y-64650D02*
X86600Y-62500D01*
X89350Y-61200D02*
X88950Y-61200D01*
X84450Y-64900D02*
X84450Y-64650D01*
X88950Y-61200D02*
X87650Y-62500D01*
X84150Y-62250D02*
X84200Y-62300D01*
X84200Y-62300D02*
X87600Y-62300D01*
X89700Y-61000D02*
X88900Y-61000D01*
X88900Y-61000D02*
X87600Y-62300D01*
G54D31*
X96350Y-61500D02*
X97350Y-61500D01*
X97600Y-61750D02*
X97600Y-62050D01*
X97350Y-61500D02*
X97600Y-61750D01*
G54D30*
X92650Y-69300D02*
X92650Y-69700D01*
G54D31*
X93400Y-60800D02*
X92400Y-60800D01*
X100181Y-63600D02*
X98700Y-63600D01*
X98700Y-63600D02*
X97900Y-62800D01*
X97600Y-62050D02*
X97900Y-62350D01*
X97900Y-62800D02*
X97900Y-62350D01*
X90350Y-60800D02*
X89550Y-61600D01*
X96350Y-61500D02*
X94100Y-61500D01*
X89550Y-61600D02*
X89550Y-61700D01*
G54D30*
X82350Y-60750D02*
X81950Y-61150D01*
G54D31*
X94100Y-61500D02*
X93400Y-60800D01*
G54D30*
X81050Y-66975D02*
X81050Y-66600D01*
X88400Y-62350D02*
X89050Y-61700D01*
G54D31*
X92400Y-60800D02*
X90350Y-60800D01*
G54D30*
X89050Y-61700D02*
X89550Y-61700D01*
X81200Y-61150D02*
X81950Y-61150D01*
X95770Y-64862D02*
X95770Y-65720D01*
X98950Y-65550D02*
X98950Y-64831D01*
X85300Y-63000D02*
X84950Y-63350D01*
X92275Y-69300D02*
X92650Y-69300D01*
X91950Y-69625D02*
X92275Y-69300D01*
X82350Y-61250D02*
X82750Y-61650D01*
X85300Y-62700D02*
X85100Y-62500D01*
G54D32*
X89900Y-62700D02*
X89500Y-63100D01*
G54D30*
X81050Y-61000D02*
X81200Y-61150D01*
X84950Y-63500D02*
X84750Y-63300D01*
X84950Y-63350D02*
X84950Y-63500D01*
X82650Y-64350D02*
X82650Y-64800D01*
X81050Y-66100D02*
X82050Y-65100D01*
X98400Y-66100D02*
X98950Y-65550D01*
G54D32*
X89900Y-62050D02*
X89900Y-62700D01*
G54D30*
X95770Y-65720D02*
X96150Y-66100D01*
X86750Y-63200D02*
X86350Y-63600D01*
X85300Y-63000D02*
X85300Y-62700D01*
X83600Y-62500D02*
X82750Y-61650D01*
X84750Y-63300D02*
X83700Y-63300D01*
X81050Y-60750D02*
X81050Y-61000D01*
X81050Y-66600D02*
X81050Y-66100D01*
X81750Y-65100D02*
X82050Y-65100D01*
X98950Y-64831D02*
X100181Y-63600D01*
X82350Y-60750D02*
X82350Y-61250D01*
X82350Y-65100D02*
X82650Y-64800D01*
X96150Y-66100D02*
X98400Y-66100D01*
G54D32*
X89550Y-61700D02*
X89900Y-62050D01*
G54D30*
X82050Y-65100D02*
X82350Y-65100D01*
X85100Y-62500D02*
X83600Y-62500D01*
X83700Y-63300D02*
X82650Y-64350D01*
X91100Y-62775D02*
X91100Y-63400D01*
X91950Y-62775D02*
X91950Y-63400D01*
X84000Y-61350D02*
X83800Y-61150D01*
X84550Y-61350D02*
X84000Y-61350D01*
X83900Y-60650D02*
X83800Y-60750D01*
X84550Y-60650D02*
X83900Y-60650D01*
X83300Y-60750D02*
X83450Y-60900D01*
X85500Y-61750D02*
X85900Y-61350D01*
X83100Y-60750D02*
X83300Y-60750D01*
X83800Y-61750D02*
X85500Y-61750D01*
X83450Y-61400D02*
X83800Y-61750D01*
X83450Y-60900D02*
X83450Y-61400D01*
X96200Y-62775D02*
X96200Y-63400D01*
X92800Y-62775D02*
X92800Y-63400D01*
X93650Y-62775D02*
X93650Y-63400D01*
X89000Y-63750D02*
X88900Y-63650D01*
X88900Y-64400D02*
X88900Y-63650D01*
X89500Y-63750D02*
X89000Y-63750D01*
X80725Y-63000D02*
X80700Y-63025D01*
X81600Y-63000D02*
X80725Y-63000D01*
X90300Y-65050D02*
X90100Y-65250D01*
X90300Y-64100D02*
X90300Y-65050D01*
X95350Y-62775D02*
X95350Y-63400D01*
X94500Y-62775D02*
X94500Y-63400D01*
X97050Y-62775D02*
X97050Y-63400D01*
X83050Y-63000D02*
X84750Y-63000D01*
X82300Y-63750D02*
X83050Y-63000D01*
X81600Y-63750D02*
X81600Y-64050D01*
X81600Y-64050D02*
X82050Y-64500D01*
X80700Y-61575D02*
X80700Y-61100D01*
X80700Y-61100D02*
X80350Y-60750D01*
X88900Y-62900D02*
X89400Y-62400D01*
X89400Y-62400D02*
X89500Y-62400D01*
X90650Y-64350D02*
X90900Y-64600D01*
X90650Y-63100D02*
X90650Y-64350D01*
X90300Y-62750D02*
X90650Y-63100D01*
X92025Y-64800D02*
X92025Y-65150D01*
X90900Y-64600D02*
X91825Y-64600D01*
X88900Y-65150D02*
X89400Y-65150D01*
X91825Y-64600D02*
X92025Y-64800D01*
X91950Y-68875D02*
X91950Y-69050D01*
X93350Y-68550D02*
X93350Y-67800D01*
X90575Y-62025D02*
X90250Y-61700D01*
X93750Y-64400D02*
X96450Y-64400D01*
G54D31*
X96200Y-62025D02*
X95350Y-62025D01*
G54D30*
X80700Y-64350D02*
X80850Y-64500D01*
X80200Y-62500D02*
X80200Y-63275D01*
X81250Y-64500D02*
X80850Y-64500D01*
X96637Y-64587D02*
X96637Y-64862D01*
G54D31*
X91950Y-62025D02*
X91100Y-62025D01*
G54D30*
X81300Y-64550D02*
X81250Y-64500D01*
X88200Y-64400D02*
X88200Y-64650D01*
G54D31*
X92800Y-62025D02*
X91950Y-62025D01*
G54D30*
X93350Y-67800D02*
X93350Y-67050D01*
X84100Y-64750D02*
X85300Y-63550D01*
G54D31*
X95350Y-62025D02*
X94500Y-62025D01*
X91950Y-61550D02*
X91950Y-62025D01*
X97600Y-62575D02*
X97050Y-62025D01*
X97600Y-63050D02*
X97600Y-62575D01*
G54D30*
X88350Y-64800D02*
X88375Y-64775D01*
G54D31*
X94500Y-62025D02*
X93650Y-62025D01*
G54D30*
X80700Y-62325D02*
X80375Y-62325D01*
X88200Y-65150D02*
X88200Y-64950D01*
X84100Y-64900D02*
X84100Y-64750D01*
X88375Y-64775D02*
X89175Y-64775D01*
G54D31*
X93650Y-62025D02*
X92800Y-62025D01*
G54D30*
X80700Y-63775D02*
X80700Y-64350D01*
X91100Y-62025D02*
X90575Y-62025D01*
X80375Y-62325D02*
X80200Y-62500D01*
G54D32*
X96637Y-64862D02*
X96625Y-64850D01*
G54D30*
X93350Y-66300D02*
X93350Y-65550D01*
G54D31*
X97050Y-62025D02*
X96625Y-62025D01*
G54D30*
X82800Y-61150D02*
X83100Y-61150D01*
X80700Y-62350D02*
X80700Y-62325D01*
X96450Y-64400D02*
X96637Y-64587D01*
X88200Y-64650D02*
X88350Y-64800D01*
X93350Y-64800D02*
X93750Y-64400D01*
X80200Y-63275D02*
X80700Y-63775D01*
X89175Y-64775D02*
X89500Y-64450D01*
X87550Y-64400D02*
X88200Y-64400D01*
X93350Y-65550D02*
X93350Y-64800D01*
G54D32*
X96625Y-64850D02*
X96625Y-62025D01*
G54D30*
X93350Y-69300D02*
X93350Y-68550D01*
X88200Y-64950D02*
X88350Y-64800D01*
X93350Y-67050D02*
X93350Y-66300D01*
X85300Y-63550D02*
X85300Y-63350D01*
X86750Y-63600D02*
X87550Y-64400D01*
G54D31*
X96625Y-62025D02*
X96200Y-62025D01*
G54D10*
G36*
X84082Y-61960D02*
X83984Y-62001D01*
X83901Y-62083D01*
X83856Y-62191D01*
X83856Y-62308D01*
X83901Y-62416D01*
X83983Y-62499D01*
X84081Y-62540D01*
X82550Y-62540D01*
X82522Y-62545D01*
X82536Y-62532D01*
X82666Y-62339D01*
X82695Y-62268D01*
X82741Y-62039D01*
X82741Y-62038D01*
X82741Y-61962D01*
X82741Y-61961D01*
X82695Y-61732D01*
X82666Y-61661D01*
X82536Y-61468D01*
X82482Y-61414D01*
X82288Y-61284D01*
X82218Y-61255D01*
X81988Y-61209D01*
X81912Y-61209D01*
X81911Y-61209D01*
X81682Y-61255D01*
X81611Y-61284D01*
X81418Y-61414D01*
X81364Y-61468D01*
X81234Y-61662D01*
X81205Y-61732D01*
X81159Y-61962D01*
X81159Y-62038D01*
X81205Y-62268D01*
X81234Y-62338D01*
X81364Y-62532D01*
X81418Y-62586D01*
X81446Y-62605D01*
X81391Y-62605D01*
X81329Y-62631D01*
X81281Y-62679D01*
X81255Y-62741D01*
X81255Y-62790D01*
X81134Y-62790D01*
X81119Y-62754D01*
X81071Y-62706D01*
X81009Y-62680D01*
X80941Y-62680D01*
X80410Y-62680D01*
X80410Y-62670D01*
X80459Y-62670D01*
X81009Y-62670D01*
X81071Y-62644D01*
X81119Y-62596D01*
X81145Y-62534D01*
X81145Y-62466D01*
X81145Y-62116D01*
X81119Y-62054D01*
X81071Y-62006D01*
X81009Y-61980D01*
X80941Y-61980D01*
X80391Y-61980D01*
X80329Y-62006D01*
X80281Y-62054D01*
X80255Y-62116D01*
X80255Y-62157D01*
X80226Y-62177D01*
X80195Y-62208D01*
X80195Y-61145D01*
X80209Y-61145D01*
X80448Y-61145D01*
X80490Y-61186D01*
X80490Y-61230D01*
X80391Y-61230D01*
X80329Y-61256D01*
X80281Y-61304D01*
X80255Y-61366D01*
X80255Y-61434D01*
X80255Y-61784D01*
X80281Y-61846D01*
X80329Y-61894D01*
X80391Y-61920D01*
X80459Y-61920D01*
X81009Y-61920D01*
X81071Y-61894D01*
X81119Y-61846D01*
X81145Y-61784D01*
X81145Y-61716D01*
X81145Y-61366D01*
X81119Y-61304D01*
X81071Y-61256D01*
X81009Y-61230D01*
X80941Y-61230D01*
X80910Y-61230D01*
X80910Y-61224D01*
X80938Y-61225D01*
X81000Y-61163D01*
X81000Y-60850D01*
X81000Y-60800D01*
X81000Y-60700D01*
X81100Y-60700D01*
X81100Y-60800D01*
X81100Y-60850D01*
X81100Y-61163D01*
X81162Y-61225D01*
X81274Y-61224D01*
X81366Y-61186D01*
X81417Y-61134D01*
X81441Y-61145D01*
X81509Y-61145D01*
X81859Y-61145D01*
X81921Y-61119D01*
X81952Y-61087D01*
X81964Y-61116D01*
X82034Y-61186D01*
X82126Y-61224D01*
X82238Y-61225D01*
X82300Y-61163D01*
X82300Y-60850D01*
X82300Y-60800D01*
X82300Y-60700D01*
X82400Y-60700D01*
X82450Y-60700D01*
X82713Y-60700D01*
X82775Y-60638D01*
X82774Y-60574D01*
X82774Y-60495D01*
X82879Y-60495D01*
X82838Y-60536D01*
X82812Y-60598D01*
X82812Y-60666D01*
X82812Y-60856D01*
X82769Y-60856D01*
X82713Y-60800D01*
X82400Y-60800D01*
X82400Y-61163D01*
X82462Y-61225D01*
X82512Y-61224D01*
X82551Y-61316D01*
X82633Y-61399D01*
X82741Y-61444D01*
X82858Y-61444D01*
X82910Y-61422D01*
X82948Y-61438D01*
X83016Y-61438D01*
X83247Y-61438D01*
X83253Y-61467D01*
X83256Y-61481D01*
X83302Y-61548D01*
X83651Y-61898D01*
X83652Y-61898D01*
X83697Y-61928D01*
X83719Y-61943D01*
X83720Y-61944D01*
X83799Y-61959D01*
X83800Y-61960D01*
X84082Y-61960D01*
X84082Y-61960D01*
G37*
G54D33*
X84082Y-61960D02*
X83984Y-62001D01*
X83901Y-62083D01*
X83856Y-62191D01*
X83856Y-62308D01*
X83901Y-62416D01*
X83983Y-62499D01*
X84081Y-62540D01*
X82550Y-62540D01*
X82522Y-62545D01*
X82536Y-62532D01*
X82666Y-62339D01*
X82695Y-62268D01*
X82741Y-62039D01*
X82741Y-62038D01*
X82741Y-61962D01*
X82741Y-61961D01*
X82695Y-61732D01*
X82666Y-61661D01*
X82536Y-61468D01*
X82482Y-61414D01*
X82288Y-61284D01*
X82218Y-61255D01*
X81988Y-61209D01*
X81912Y-61209D01*
X81911Y-61209D01*
X81682Y-61255D01*
X81611Y-61284D01*
X81418Y-61414D01*
X81364Y-61468D01*
X81234Y-61662D01*
X81205Y-61732D01*
X81159Y-61962D01*
X81159Y-62038D01*
X81205Y-62268D01*
X81234Y-62338D01*
X81364Y-62532D01*
X81418Y-62586D01*
X81446Y-62605D01*
X81391Y-62605D01*
X81329Y-62631D01*
X81281Y-62679D01*
X81255Y-62741D01*
X81255Y-62790D01*
X81134Y-62790D01*
X81119Y-62754D01*
X81071Y-62706D01*
X81009Y-62680D01*
X80941Y-62680D01*
X80410Y-62680D01*
X80410Y-62670D01*
X80459Y-62670D01*
X81009Y-62670D01*
X81071Y-62644D01*
X81119Y-62596D01*
X81145Y-62534D01*
X81145Y-62466D01*
X81145Y-62116D01*
X81119Y-62054D01*
X81071Y-62006D01*
X81009Y-61980D01*
X80941Y-61980D01*
X80391Y-61980D01*
X80329Y-62006D01*
X80281Y-62054D01*
X80255Y-62116D01*
X80255Y-62157D01*
X80226Y-62177D01*
X80195Y-62208D01*
X80195Y-61145D01*
X80209Y-61145D01*
X80448Y-61145D01*
X80490Y-61186D01*
X80490Y-61230D01*
X80391Y-61230D01*
X80329Y-61256D01*
X80281Y-61304D01*
X80255Y-61366D01*
X80255Y-61434D01*
X80255Y-61784D01*
X80281Y-61846D01*
X80329Y-61894D01*
X80391Y-61920D01*
X80459Y-61920D01*
X81009Y-61920D01*
X81071Y-61894D01*
X81119Y-61846D01*
X81145Y-61784D01*
X81145Y-61716D01*
X81145Y-61366D01*
X81119Y-61304D01*
X81071Y-61256D01*
X81009Y-61230D01*
X80941Y-61230D01*
X80910Y-61230D01*
X80910Y-61224D01*
X80938Y-61225D01*
X81000Y-61163D01*
X81000Y-60850D01*
X81000Y-60800D01*
X81000Y-60700D01*
X81100Y-60700D01*
X81100Y-60800D01*
X81100Y-60850D01*
X81100Y-61163D01*
X81162Y-61225D01*
X81274Y-61224D01*
X81366Y-61186D01*
X81417Y-61134D01*
X81441Y-61145D01*
X81509Y-61145D01*
X81859Y-61145D01*
X81921Y-61119D01*
X81952Y-61087D01*
X81964Y-61116D01*
X82034Y-61186D01*
X82126Y-61224D01*
X82238Y-61225D01*
X82300Y-61163D01*
X82300Y-60850D01*
X82300Y-60800D01*
X82300Y-60700D01*
X82400Y-60700D01*
X82450Y-60700D01*
X82713Y-60700D01*
X82775Y-60638D01*
X82774Y-60574D01*
X82774Y-60495D01*
X82879Y-60495D01*
X82838Y-60536D01*
X82812Y-60598D01*
X82812Y-60666D01*
X82812Y-60856D01*
X82769Y-60856D01*
X82713Y-60800D01*
X82400Y-60800D01*
X82400Y-61163D01*
X82462Y-61225D01*
X82512Y-61224D01*
X82551Y-61316D01*
X82633Y-61399D01*
X82741Y-61444D01*
X82858Y-61444D01*
X82910Y-61422D01*
X82948Y-61438D01*
X83016Y-61438D01*
X83247Y-61438D01*
X83253Y-61467D01*
X83256Y-61481D01*
X83302Y-61548D01*
X83651Y-61898D01*
X83652Y-61898D01*
X83697Y-61928D01*
X83719Y-61943D01*
X83720Y-61944D01*
X83799Y-61959D01*
X83800Y-61960D01*
X84082Y-61960D01*
G54D10*
G36*
X84599Y-63256D02*
X84542Y-63256D01*
X84434Y-63301D01*
X84425Y-63309D01*
X84417Y-63301D01*
X84309Y-63256D01*
X84192Y-63256D01*
X84084Y-63301D01*
X84075Y-63309D01*
X84067Y-63301D01*
X83959Y-63256D01*
X83842Y-63256D01*
X83734Y-63301D01*
X83651Y-63383D01*
X83606Y-63491D01*
X83606Y-63608D01*
X83651Y-63716D01*
X83690Y-63755D01*
X83690Y-64113D01*
X82702Y-65102D01*
X82656Y-65168D01*
X82638Y-65150D01*
X82100Y-65150D01*
X82100Y-65488D01*
X82162Y-65550D01*
X82499Y-65549D01*
X82591Y-65511D01*
X82640Y-65462D01*
X82640Y-65713D01*
X82047Y-66306D01*
X81992Y-66306D01*
X81884Y-66351D01*
X81801Y-66433D01*
X81756Y-66541D01*
X81756Y-66658D01*
X81801Y-66766D01*
X81839Y-66805D01*
X81691Y-66805D01*
X81629Y-66831D01*
X81581Y-66879D01*
X81575Y-66893D01*
X81575Y-66875D01*
X81563Y-66875D01*
X81575Y-66863D01*
X81574Y-66701D01*
X81536Y-66609D01*
X81466Y-66539D01*
X81375Y-66501D01*
X81276Y-66501D01*
X81162Y-66500D01*
X81100Y-66562D01*
X81100Y-66875D01*
X81100Y-66925D01*
X81100Y-67025D01*
X81000Y-67025D01*
X81000Y-66925D01*
X81000Y-66875D01*
X81000Y-66562D01*
X80938Y-66500D01*
X80824Y-66501D01*
X80795Y-66501D01*
X80795Y-65800D01*
X80780Y-65725D01*
X80738Y-65662D01*
X80675Y-65620D01*
X80600Y-65605D01*
X80195Y-65605D01*
X80195Y-63566D01*
X80255Y-63626D01*
X80255Y-63634D01*
X80255Y-63984D01*
X80281Y-64046D01*
X80329Y-64094D01*
X80391Y-64120D01*
X80459Y-64120D01*
X80490Y-64120D01*
X80490Y-64130D01*
X80416Y-64130D01*
X80354Y-64156D01*
X80306Y-64204D01*
X80280Y-64266D01*
X80280Y-64334D01*
X80280Y-64734D01*
X80306Y-64796D01*
X80310Y-64800D01*
X80306Y-64804D01*
X80280Y-64866D01*
X80280Y-64934D01*
X80280Y-65334D01*
X80306Y-65396D01*
X80354Y-65444D01*
X80416Y-65470D01*
X80484Y-65470D01*
X81284Y-65470D01*
X81346Y-65444D01*
X81394Y-65396D01*
X81407Y-65364D01*
X81439Y-65441D01*
X81509Y-65511D01*
X81601Y-65549D01*
X81938Y-65550D01*
X82000Y-65488D01*
X82000Y-65200D01*
X82000Y-65150D01*
X82000Y-65050D01*
X82100Y-65050D01*
X82150Y-65050D01*
X82638Y-65050D01*
X82700Y-64988D01*
X82699Y-64949D01*
X82699Y-64850D01*
X82661Y-64759D01*
X82620Y-64718D01*
X82620Y-64666D01*
X82620Y-64266D01*
X82594Y-64204D01*
X82546Y-64156D01*
X82514Y-64142D01*
X82571Y-64119D01*
X82619Y-64071D01*
X82645Y-64009D01*
X82645Y-63941D01*
X82645Y-63701D01*
X83136Y-63210D01*
X84544Y-63210D01*
X84583Y-63249D01*
X84599Y-63256D01*
X84599Y-63256D01*
G37*
G54D33*
X84599Y-63256D02*
X84542Y-63256D01*
X84434Y-63301D01*
X84425Y-63309D01*
X84417Y-63301D01*
X84309Y-63256D01*
X84192Y-63256D01*
X84084Y-63301D01*
X84075Y-63309D01*
X84067Y-63301D01*
X83959Y-63256D01*
X83842Y-63256D01*
X83734Y-63301D01*
X83651Y-63383D01*
X83606Y-63491D01*
X83606Y-63608D01*
X83651Y-63716D01*
X83690Y-63755D01*
X83690Y-64113D01*
X82702Y-65102D01*
X82656Y-65168D01*
X82638Y-65150D01*
X82100Y-65150D01*
X82100Y-65488D01*
X82162Y-65550D01*
X82499Y-65549D01*
X82591Y-65511D01*
X82640Y-65462D01*
X82640Y-65713D01*
X82047Y-66306D01*
X81992Y-66306D01*
X81884Y-66351D01*
X81801Y-66433D01*
X81756Y-66541D01*
X81756Y-66658D01*
X81801Y-66766D01*
X81839Y-66805D01*
X81691Y-66805D01*
X81629Y-66831D01*
X81581Y-66879D01*
X81575Y-66893D01*
X81575Y-66875D01*
X81563Y-66875D01*
X81575Y-66863D01*
X81574Y-66701D01*
X81536Y-66609D01*
X81466Y-66539D01*
X81375Y-66501D01*
X81276Y-66501D01*
X81162Y-66500D01*
X81100Y-66562D01*
X81100Y-66875D01*
X81100Y-66925D01*
X81100Y-67025D01*
X81000Y-67025D01*
X81000Y-66925D01*
X81000Y-66875D01*
X81000Y-66562D01*
X80938Y-66500D01*
X80824Y-66501D01*
X80795Y-66501D01*
X80795Y-65800D01*
X80780Y-65725D01*
X80738Y-65662D01*
X80675Y-65620D01*
X80600Y-65605D01*
X80195Y-65605D01*
X80195Y-63566D01*
X80255Y-63626D01*
X80255Y-63634D01*
X80255Y-63984D01*
X80281Y-64046D01*
X80329Y-64094D01*
X80391Y-64120D01*
X80459Y-64120D01*
X80490Y-64120D01*
X80490Y-64130D01*
X80416Y-64130D01*
X80354Y-64156D01*
X80306Y-64204D01*
X80280Y-64266D01*
X80280Y-64334D01*
X80280Y-64734D01*
X80306Y-64796D01*
X80310Y-64800D01*
X80306Y-64804D01*
X80280Y-64866D01*
X80280Y-64934D01*
X80280Y-65334D01*
X80306Y-65396D01*
X80354Y-65444D01*
X80416Y-65470D01*
X80484Y-65470D01*
X81284Y-65470D01*
X81346Y-65444D01*
X81394Y-65396D01*
X81407Y-65364D01*
X81439Y-65441D01*
X81509Y-65511D01*
X81601Y-65549D01*
X81938Y-65550D01*
X82000Y-65488D01*
X82000Y-65200D01*
X82000Y-65150D01*
X82000Y-65050D01*
X82100Y-65050D01*
X82150Y-65050D01*
X82638Y-65050D01*
X82700Y-64988D01*
X82699Y-64949D01*
X82699Y-64850D01*
X82661Y-64759D01*
X82620Y-64718D01*
X82620Y-64666D01*
X82620Y-64266D01*
X82594Y-64204D01*
X82546Y-64156D01*
X82514Y-64142D01*
X82571Y-64119D01*
X82619Y-64071D01*
X82645Y-64009D01*
X82645Y-63941D01*
X82645Y-63701D01*
X83136Y-63210D01*
X84544Y-63210D01*
X84583Y-63249D01*
X84599Y-63256D01*
G54D10*
G36*
X85215Y-66788D02*
X85198Y-66805D01*
X85141Y-66805D01*
X84691Y-66805D01*
X84629Y-66831D01*
X84581Y-66879D01*
X84555Y-66941D01*
X84555Y-67009D01*
X84555Y-67359D01*
X84581Y-67421D01*
X84629Y-67469D01*
X84691Y-67495D01*
X84759Y-67495D01*
X85008Y-67495D01*
X84998Y-67505D01*
X84691Y-67505D01*
X84629Y-67531D01*
X84581Y-67579D01*
X84555Y-67641D01*
X84555Y-67709D01*
X84555Y-68059D01*
X84581Y-68121D01*
X84629Y-68169D01*
X84691Y-68195D01*
X84740Y-68195D01*
X84740Y-68269D01*
X84690Y-68290D01*
X84560Y-68419D01*
X84489Y-68589D01*
X84489Y-68772D01*
X84489Y-69805D01*
X84411Y-69805D01*
X84411Y-69628D01*
X84411Y-68590D01*
X84341Y-68421D01*
X84212Y-68291D01*
X84160Y-68269D01*
X84160Y-68195D01*
X84209Y-68195D01*
X84271Y-68169D01*
X84319Y-68121D01*
X84345Y-68059D01*
X84345Y-67991D01*
X84345Y-67641D01*
X84319Y-67579D01*
X84271Y-67531D01*
X84209Y-67505D01*
X84141Y-67505D01*
X83691Y-67505D01*
X83629Y-67531D01*
X83581Y-67579D01*
X83555Y-67641D01*
X83555Y-67709D01*
X83555Y-68059D01*
X83581Y-68121D01*
X83629Y-68169D01*
X83691Y-68195D01*
X83740Y-68195D01*
X83740Y-68269D01*
X83690Y-68290D01*
X83560Y-68419D01*
X83489Y-68589D01*
X83489Y-68772D01*
X83489Y-69805D01*
X83411Y-69805D01*
X83411Y-69628D01*
X83411Y-68590D01*
X83341Y-68421D01*
X83212Y-68291D01*
X83160Y-68269D01*
X83160Y-68195D01*
X83209Y-68195D01*
X83271Y-68169D01*
X83319Y-68121D01*
X83345Y-68059D01*
X83345Y-67991D01*
X83345Y-67641D01*
X83319Y-67579D01*
X83271Y-67531D01*
X83209Y-67505D01*
X83141Y-67505D01*
X82691Y-67505D01*
X82629Y-67531D01*
X82581Y-67579D01*
X82555Y-67641D01*
X82555Y-67709D01*
X82555Y-68059D01*
X82581Y-68121D01*
X82629Y-68169D01*
X82691Y-68195D01*
X82740Y-68195D01*
X82740Y-68269D01*
X82690Y-68290D01*
X82560Y-68419D01*
X82489Y-68589D01*
X82489Y-68772D01*
X82489Y-69805D01*
X82411Y-69805D01*
X82411Y-69628D01*
X82411Y-68590D01*
X82341Y-68421D01*
X82212Y-68291D01*
X82160Y-68269D01*
X82160Y-68195D01*
X82209Y-68195D01*
X82271Y-68169D01*
X82319Y-68121D01*
X82345Y-68059D01*
X82345Y-67991D01*
X82345Y-67641D01*
X82319Y-67579D01*
X82271Y-67531D01*
X82209Y-67505D01*
X82141Y-67505D01*
X81691Y-67505D01*
X81629Y-67531D01*
X81581Y-67579D01*
X81555Y-67641D01*
X81555Y-67709D01*
X81555Y-68059D01*
X81581Y-68121D01*
X81629Y-68169D01*
X81691Y-68195D01*
X81740Y-68195D01*
X81740Y-68269D01*
X81690Y-68290D01*
X81560Y-68419D01*
X81489Y-68589D01*
X81489Y-68772D01*
X81489Y-69805D01*
X80495Y-69805D01*
X80495Y-68400D01*
X80480Y-68325D01*
X80438Y-68262D01*
X80375Y-68220D01*
X80300Y-68205D01*
X80195Y-68205D01*
X80195Y-68195D01*
X80600Y-68195D01*
X80666Y-68181D01*
X80679Y-68194D01*
X80741Y-68220D01*
X80809Y-68220D01*
X80840Y-68220D01*
X80840Y-68344D01*
X80801Y-68383D01*
X80756Y-68491D01*
X80756Y-68608D01*
X80801Y-68716D01*
X80883Y-68799D01*
X80991Y-68844D01*
X81108Y-68844D01*
X81216Y-68799D01*
X81299Y-68717D01*
X81344Y-68609D01*
X81344Y-68492D01*
X81299Y-68384D01*
X81260Y-68344D01*
X81260Y-68220D01*
X81359Y-68220D01*
X81421Y-68194D01*
X81469Y-68146D01*
X81495Y-68084D01*
X81495Y-68016D01*
X81495Y-67566D01*
X81469Y-67504D01*
X81421Y-67456D01*
X81389Y-67442D01*
X81466Y-67411D01*
X81536Y-67341D01*
X81555Y-67295D01*
X81555Y-67359D01*
X81581Y-67421D01*
X81629Y-67469D01*
X81691Y-67495D01*
X81759Y-67495D01*
X82209Y-67495D01*
X82271Y-67469D01*
X82319Y-67421D01*
X82345Y-67359D01*
X82345Y-67291D01*
X82345Y-67051D01*
X82586Y-66810D01*
X82679Y-66810D01*
X82629Y-66831D01*
X82581Y-66879D01*
X82555Y-66941D01*
X82555Y-67009D01*
X82555Y-67359D01*
X82581Y-67421D01*
X82629Y-67469D01*
X82691Y-67495D01*
X82759Y-67495D01*
X83209Y-67495D01*
X83271Y-67469D01*
X83319Y-67421D01*
X83345Y-67359D01*
X83345Y-67291D01*
X83345Y-67051D01*
X83398Y-66999D01*
X83398Y-66998D01*
X83439Y-66936D01*
X83440Y-66936D01*
X83555Y-67051D01*
X83555Y-67359D01*
X83581Y-67421D01*
X83629Y-67469D01*
X83691Y-67495D01*
X83759Y-67495D01*
X84209Y-67495D01*
X84271Y-67469D01*
X84319Y-67421D01*
X84345Y-67359D01*
X84345Y-67291D01*
X84345Y-66941D01*
X84319Y-66879D01*
X84318Y-66878D01*
X84544Y-66651D01*
X84551Y-66666D01*
X84633Y-66749D01*
X84741Y-66794D01*
X84858Y-66794D01*
X84966Y-66749D01*
X85005Y-66710D01*
X85049Y-66710D01*
X85051Y-66714D01*
X85099Y-66762D01*
X85161Y-66788D01*
X85215Y-66788D01*
X85215Y-66788D01*
G37*
G54D33*
X85215Y-66788D02*
X85198Y-66805D01*
X85141Y-66805D01*
X84691Y-66805D01*
X84629Y-66831D01*
X84581Y-66879D01*
X84555Y-66941D01*
X84555Y-67009D01*
X84555Y-67359D01*
X84581Y-67421D01*
X84629Y-67469D01*
X84691Y-67495D01*
X84759Y-67495D01*
X85008Y-67495D01*
X84998Y-67505D01*
X84691Y-67505D01*
X84629Y-67531D01*
X84581Y-67579D01*
X84555Y-67641D01*
X84555Y-67709D01*
X84555Y-68059D01*
X84581Y-68121D01*
X84629Y-68169D01*
X84691Y-68195D01*
X84740Y-68195D01*
X84740Y-68269D01*
X84690Y-68290D01*
X84560Y-68419D01*
X84489Y-68589D01*
X84489Y-68772D01*
X84489Y-69805D01*
X84411Y-69805D01*
X84411Y-69628D01*
X84411Y-68590D01*
X84341Y-68421D01*
X84212Y-68291D01*
X84160Y-68269D01*
X84160Y-68195D01*
X84209Y-68195D01*
X84271Y-68169D01*
X84319Y-68121D01*
X84345Y-68059D01*
X84345Y-67991D01*
X84345Y-67641D01*
X84319Y-67579D01*
X84271Y-67531D01*
X84209Y-67505D01*
X84141Y-67505D01*
X83691Y-67505D01*
X83629Y-67531D01*
X83581Y-67579D01*
X83555Y-67641D01*
X83555Y-67709D01*
X83555Y-68059D01*
X83581Y-68121D01*
X83629Y-68169D01*
X83691Y-68195D01*
X83740Y-68195D01*
X83740Y-68269D01*
X83690Y-68290D01*
X83560Y-68419D01*
X83489Y-68589D01*
X83489Y-68772D01*
X83489Y-69805D01*
X83411Y-69805D01*
X83411Y-69628D01*
X83411Y-68590D01*
X83341Y-68421D01*
X83212Y-68291D01*
X83160Y-68269D01*
X83160Y-68195D01*
X83209Y-68195D01*
X83271Y-68169D01*
X83319Y-68121D01*
X83345Y-68059D01*
X83345Y-67991D01*
X83345Y-67641D01*
X83319Y-67579D01*
X83271Y-67531D01*
X83209Y-67505D01*
X83141Y-67505D01*
X82691Y-67505D01*
X82629Y-67531D01*
X82581Y-67579D01*
X82555Y-67641D01*
X82555Y-67709D01*
X82555Y-68059D01*
X82581Y-68121D01*
X82629Y-68169D01*
X82691Y-68195D01*
X82740Y-68195D01*
X82740Y-68269D01*
X82690Y-68290D01*
X82560Y-68419D01*
X82489Y-68589D01*
X82489Y-68772D01*
X82489Y-69805D01*
X82411Y-69805D01*
X82411Y-69628D01*
X82411Y-68590D01*
X82341Y-68421D01*
X82212Y-68291D01*
X82160Y-68269D01*
X82160Y-68195D01*
X82209Y-68195D01*
X82271Y-68169D01*
X82319Y-68121D01*
X82345Y-68059D01*
X82345Y-67991D01*
X82345Y-67641D01*
X82319Y-67579D01*
X82271Y-67531D01*
X82209Y-67505D01*
X82141Y-67505D01*
X81691Y-67505D01*
X81629Y-67531D01*
X81581Y-67579D01*
X81555Y-67641D01*
X81555Y-67709D01*
X81555Y-68059D01*
X81581Y-68121D01*
X81629Y-68169D01*
X81691Y-68195D01*
X81740Y-68195D01*
X81740Y-68269D01*
X81690Y-68290D01*
X81560Y-68419D01*
X81489Y-68589D01*
X81489Y-68772D01*
X81489Y-69805D01*
X80495Y-69805D01*
X80495Y-68400D01*
X80480Y-68325D01*
X80438Y-68262D01*
X80375Y-68220D01*
X80300Y-68205D01*
X80195Y-68205D01*
X80195Y-68195D01*
X80600Y-68195D01*
X80666Y-68181D01*
X80679Y-68194D01*
X80741Y-68220D01*
X80809Y-68220D01*
X80840Y-68220D01*
X80840Y-68344D01*
X80801Y-68383D01*
X80756Y-68491D01*
X80756Y-68608D01*
X80801Y-68716D01*
X80883Y-68799D01*
X80991Y-68844D01*
X81108Y-68844D01*
X81216Y-68799D01*
X81299Y-68717D01*
X81344Y-68609D01*
X81344Y-68492D01*
X81299Y-68384D01*
X81260Y-68344D01*
X81260Y-68220D01*
X81359Y-68220D01*
X81421Y-68194D01*
X81469Y-68146D01*
X81495Y-68084D01*
X81495Y-68016D01*
X81495Y-67566D01*
X81469Y-67504D01*
X81421Y-67456D01*
X81389Y-67442D01*
X81466Y-67411D01*
X81536Y-67341D01*
X81555Y-67295D01*
X81555Y-67359D01*
X81581Y-67421D01*
X81629Y-67469D01*
X81691Y-67495D01*
X81759Y-67495D01*
X82209Y-67495D01*
X82271Y-67469D01*
X82319Y-67421D01*
X82345Y-67359D01*
X82345Y-67291D01*
X82345Y-67051D01*
X82586Y-66810D01*
X82679Y-66810D01*
X82629Y-66831D01*
X82581Y-66879D01*
X82555Y-66941D01*
X82555Y-67009D01*
X82555Y-67359D01*
X82581Y-67421D01*
X82629Y-67469D01*
X82691Y-67495D01*
X82759Y-67495D01*
X83209Y-67495D01*
X83271Y-67469D01*
X83319Y-67421D01*
X83345Y-67359D01*
X83345Y-67291D01*
X83345Y-67051D01*
X83398Y-66999D01*
X83398Y-66998D01*
X83439Y-66936D01*
X83440Y-66936D01*
X83555Y-67051D01*
X83555Y-67359D01*
X83581Y-67421D01*
X83629Y-67469D01*
X83691Y-67495D01*
X83759Y-67495D01*
X84209Y-67495D01*
X84271Y-67469D01*
X84319Y-67421D01*
X84345Y-67359D01*
X84345Y-67291D01*
X84345Y-66941D01*
X84319Y-66879D01*
X84318Y-66878D01*
X84544Y-66651D01*
X84551Y-66666D01*
X84633Y-66749D01*
X84741Y-66794D01*
X84858Y-66794D01*
X84966Y-66749D01*
X85005Y-66710D01*
X85049Y-66710D01*
X85051Y-66714D01*
X85099Y-66762D01*
X85161Y-66788D01*
X85215Y-66788D01*
G54D10*
G36*
X85740Y-68269D02*
X85690Y-68290D01*
X85560Y-68419D01*
X85489Y-68589D01*
X85489Y-68772D01*
X85489Y-69805D01*
X85411Y-69805D01*
X85411Y-69628D01*
X85411Y-68590D01*
X85341Y-68421D01*
X85212Y-68291D01*
X85160Y-68269D01*
X85160Y-68195D01*
X85209Y-68195D01*
X85271Y-68169D01*
X85319Y-68121D01*
X85345Y-68059D01*
X85345Y-67991D01*
X85345Y-67751D01*
X85386Y-67710D01*
X85555Y-67710D01*
X85555Y-68059D01*
X85581Y-68121D01*
X85629Y-68169D01*
X85691Y-68195D01*
X85740Y-68195D01*
X85740Y-68269D01*
X85740Y-68269D01*
G37*
G54D33*
X85740Y-68269D02*
X85690Y-68290D01*
X85560Y-68419D01*
X85489Y-68589D01*
X85489Y-68772D01*
X85489Y-69805D01*
X85411Y-69805D01*
X85411Y-69628D01*
X85411Y-68590D01*
X85341Y-68421D01*
X85212Y-68291D01*
X85160Y-68269D01*
X85160Y-68195D01*
X85209Y-68195D01*
X85271Y-68169D01*
X85319Y-68121D01*
X85345Y-68059D01*
X85345Y-67991D01*
X85345Y-67751D01*
X85386Y-67710D01*
X85555Y-67710D01*
X85555Y-68059D01*
X85581Y-68121D01*
X85629Y-68169D01*
X85691Y-68195D01*
X85740Y-68195D01*
X85740Y-68269D01*
G54D10*
G36*
X86293Y-62510D02*
X85569Y-63233D01*
X85549Y-63184D01*
X85467Y-63101D01*
X85359Y-63056D01*
X85242Y-63056D01*
X85134Y-63101D01*
X85051Y-63183D01*
X85006Y-63291D01*
X85006Y-63408D01*
X85046Y-63506D01*
X84858Y-63695D01*
X84894Y-63609D01*
X84894Y-63492D01*
X84849Y-63384D01*
X84767Y-63301D01*
X84750Y-63294D01*
X84808Y-63294D01*
X84916Y-63249D01*
X84999Y-63167D01*
X85044Y-63059D01*
X85044Y-63044D01*
X85058Y-63044D01*
X85166Y-62999D01*
X85249Y-62917D01*
X85294Y-62809D01*
X85294Y-62692D01*
X85249Y-62584D01*
X85175Y-62510D01*
X86293Y-62510D01*
X86293Y-62510D01*
G37*
G54D33*
X86293Y-62510D02*
X85569Y-63233D01*
X85549Y-63184D01*
X85467Y-63101D01*
X85359Y-63056D01*
X85242Y-63056D01*
X85134Y-63101D01*
X85051Y-63183D01*
X85006Y-63291D01*
X85006Y-63408D01*
X85046Y-63506D01*
X84858Y-63695D01*
X84894Y-63609D01*
X84894Y-63492D01*
X84849Y-63384D01*
X84767Y-63301D01*
X84750Y-63294D01*
X84808Y-63294D01*
X84916Y-63249D01*
X84999Y-63167D01*
X85044Y-63059D01*
X85044Y-63044D01*
X85058Y-63044D01*
X85166Y-62999D01*
X85249Y-62917D01*
X85294Y-62809D01*
X85294Y-62692D01*
X85249Y-62584D01*
X85175Y-62510D01*
X86293Y-62510D01*
G54D10*
G36*
X86740Y-68269D02*
X86690Y-68290D01*
X86560Y-68419D01*
X86489Y-68589D01*
X86489Y-68772D01*
X86489Y-69805D01*
X86411Y-69805D01*
X86411Y-69628D01*
X86411Y-68590D01*
X86341Y-68421D01*
X86212Y-68291D01*
X86160Y-68269D01*
X86160Y-68195D01*
X86209Y-68195D01*
X86271Y-68169D01*
X86319Y-68121D01*
X86345Y-68059D01*
X86345Y-67991D01*
X86345Y-67710D01*
X86555Y-67710D01*
X86555Y-68059D01*
X86581Y-68121D01*
X86629Y-68169D01*
X86691Y-68195D01*
X86740Y-68195D01*
X86740Y-68269D01*
X86740Y-68269D01*
G37*
G54D33*
X86740Y-68269D02*
X86690Y-68290D01*
X86560Y-68419D01*
X86489Y-68589D01*
X86489Y-68772D01*
X86489Y-69805D01*
X86411Y-69805D01*
X86411Y-69628D01*
X86411Y-68590D01*
X86341Y-68421D01*
X86212Y-68291D01*
X86160Y-68269D01*
X86160Y-68195D01*
X86209Y-68195D01*
X86271Y-68169D01*
X86319Y-68121D01*
X86345Y-68059D01*
X86345Y-67991D01*
X86345Y-67710D01*
X86555Y-67710D01*
X86555Y-68059D01*
X86581Y-68121D01*
X86629Y-68169D01*
X86691Y-68195D01*
X86740Y-68195D01*
X86740Y-68269D01*
G54D10*
G36*
X87740Y-68269D02*
X87690Y-68290D01*
X87560Y-68419D01*
X87489Y-68589D01*
X87489Y-68772D01*
X87489Y-69805D01*
X87411Y-69805D01*
X87411Y-69628D01*
X87411Y-68590D01*
X87341Y-68421D01*
X87212Y-68291D01*
X87160Y-68269D01*
X87160Y-68195D01*
X87209Y-68195D01*
X87271Y-68169D01*
X87319Y-68121D01*
X87345Y-68059D01*
X87345Y-67991D01*
X87345Y-67710D01*
X87555Y-67710D01*
X87555Y-68059D01*
X87581Y-68121D01*
X87629Y-68169D01*
X87691Y-68195D01*
X87740Y-68195D01*
X87740Y-68269D01*
X87740Y-68269D01*
G37*
G54D33*
X87740Y-68269D02*
X87690Y-68290D01*
X87560Y-68419D01*
X87489Y-68589D01*
X87489Y-68772D01*
X87489Y-69805D01*
X87411Y-69805D01*
X87411Y-69628D01*
X87411Y-68590D01*
X87341Y-68421D01*
X87212Y-68291D01*
X87160Y-68269D01*
X87160Y-68195D01*
X87209Y-68195D01*
X87271Y-68169D01*
X87319Y-68121D01*
X87345Y-68059D01*
X87345Y-67991D01*
X87345Y-67710D01*
X87555Y-67710D01*
X87555Y-68059D01*
X87581Y-68121D01*
X87629Y-68169D01*
X87691Y-68195D01*
X87740Y-68195D01*
X87740Y-68269D01*
G54D10*
G36*
X87943Y-64775D02*
X87929Y-64781D01*
X87881Y-64829D01*
X87855Y-64891D01*
X87855Y-64959D01*
X87855Y-65358D01*
X86498Y-64002D01*
X86431Y-63956D01*
X86419Y-63953D01*
X86367Y-63901D01*
X86259Y-63856D01*
X86142Y-63856D01*
X86034Y-63901D01*
X85951Y-63983D01*
X85941Y-64006D01*
X85890Y-64006D01*
X86786Y-63110D01*
X87855Y-63110D01*
X87855Y-63159D01*
X87881Y-63221D01*
X87929Y-63269D01*
X87943Y-63275D01*
X87929Y-63281D01*
X87881Y-63329D01*
X87855Y-63391D01*
X87855Y-63440D01*
X87351Y-63440D01*
X87349Y-63434D01*
X87267Y-63351D01*
X87159Y-63306D01*
X87042Y-63306D01*
X86934Y-63351D01*
X86925Y-63359D01*
X86917Y-63351D01*
X86809Y-63306D01*
X86692Y-63306D01*
X86584Y-63351D01*
X86501Y-63433D01*
X86456Y-63541D01*
X86456Y-63658D01*
X86501Y-63766D01*
X86583Y-63849D01*
X86691Y-63894D01*
X86747Y-63894D01*
X87401Y-64548D01*
X87402Y-64548D01*
X87447Y-64578D01*
X87469Y-64593D01*
X87470Y-64594D01*
X87550Y-64610D01*
X87855Y-64610D01*
X87855Y-64659D01*
X87881Y-64721D01*
X87929Y-64769D01*
X87943Y-64775D01*
X87943Y-64775D01*
G37*
G54D33*
X87943Y-64775D02*
X87929Y-64781D01*
X87881Y-64829D01*
X87855Y-64891D01*
X87855Y-64959D01*
X87855Y-65358D01*
X86498Y-64002D01*
X86431Y-63956D01*
X86419Y-63953D01*
X86367Y-63901D01*
X86259Y-63856D01*
X86142Y-63856D01*
X86034Y-63901D01*
X85951Y-63983D01*
X85941Y-64006D01*
X85890Y-64006D01*
X86786Y-63110D01*
X87855Y-63110D01*
X87855Y-63159D01*
X87881Y-63221D01*
X87929Y-63269D01*
X87943Y-63275D01*
X87929Y-63281D01*
X87881Y-63329D01*
X87855Y-63391D01*
X87855Y-63440D01*
X87351Y-63440D01*
X87349Y-63434D01*
X87267Y-63351D01*
X87159Y-63306D01*
X87042Y-63306D01*
X86934Y-63351D01*
X86925Y-63359D01*
X86917Y-63351D01*
X86809Y-63306D01*
X86692Y-63306D01*
X86584Y-63351D01*
X86501Y-63433D01*
X86456Y-63541D01*
X86456Y-63658D01*
X86501Y-63766D01*
X86583Y-63849D01*
X86691Y-63894D01*
X86747Y-63894D01*
X87401Y-64548D01*
X87402Y-64548D01*
X87447Y-64578D01*
X87469Y-64593D01*
X87470Y-64594D01*
X87550Y-64610D01*
X87855Y-64610D01*
X87855Y-64659D01*
X87881Y-64721D01*
X87929Y-64769D01*
X87943Y-64775D01*
G54D10*
G36*
X88563Y-68078D02*
X88509Y-68056D01*
X88452Y-68056D01*
X88345Y-67948D01*
X88345Y-67710D01*
X88555Y-67710D01*
X88555Y-68059D01*
X88563Y-68078D01*
X88563Y-68078D01*
G37*
G54D33*
X88563Y-68078D02*
X88509Y-68056D01*
X88452Y-68056D01*
X88345Y-67948D01*
X88345Y-67710D01*
X88555Y-67710D01*
X88555Y-68059D01*
X88563Y-68078D01*
G54D10*
G36*
X89199Y-62101D02*
X89176Y-62124D01*
X89150Y-62186D01*
X89150Y-62254D01*
X89150Y-62353D01*
X88998Y-62505D01*
X88691Y-62505D01*
X88629Y-62531D01*
X88581Y-62579D01*
X88555Y-62641D01*
X88555Y-62709D01*
X88555Y-63159D01*
X88581Y-63221D01*
X88629Y-63269D01*
X88643Y-63275D01*
X88629Y-63281D01*
X88581Y-63329D01*
X88555Y-63391D01*
X88555Y-63459D01*
X88555Y-63909D01*
X88581Y-63971D01*
X88629Y-64019D01*
X88643Y-64025D01*
X88629Y-64031D01*
X88581Y-64079D01*
X88555Y-64141D01*
X88555Y-64209D01*
X88555Y-64565D01*
X88545Y-64565D01*
X88545Y-64141D01*
X88519Y-64079D01*
X88471Y-64031D01*
X88456Y-64025D01*
X88471Y-64019D01*
X88519Y-63971D01*
X88545Y-63909D01*
X88545Y-63841D01*
X88545Y-63391D01*
X88519Y-63329D01*
X88471Y-63281D01*
X88456Y-63275D01*
X88471Y-63269D01*
X88519Y-63221D01*
X88545Y-63159D01*
X88545Y-63091D01*
X88545Y-62641D01*
X88519Y-62579D01*
X88471Y-62531D01*
X88409Y-62505D01*
X88341Y-62505D01*
X88191Y-62505D01*
X88978Y-61718D01*
X89041Y-61744D01*
X89125Y-61744D01*
X89125Y-61800D01*
X89137Y-61800D01*
X89125Y-61812D01*
X89126Y-61876D01*
X89126Y-61975D01*
X89164Y-62066D01*
X89199Y-62101D01*
X89199Y-62101D01*
G37*
G54D33*
X89199Y-62101D02*
X89176Y-62124D01*
X89150Y-62186D01*
X89150Y-62254D01*
X89150Y-62353D01*
X88998Y-62505D01*
X88691Y-62505D01*
X88629Y-62531D01*
X88581Y-62579D01*
X88555Y-62641D01*
X88555Y-62709D01*
X88555Y-63159D01*
X88581Y-63221D01*
X88629Y-63269D01*
X88643Y-63275D01*
X88629Y-63281D01*
X88581Y-63329D01*
X88555Y-63391D01*
X88555Y-63459D01*
X88555Y-63909D01*
X88581Y-63971D01*
X88629Y-64019D01*
X88643Y-64025D01*
X88629Y-64031D01*
X88581Y-64079D01*
X88555Y-64141D01*
X88555Y-64209D01*
X88555Y-64565D01*
X88545Y-64565D01*
X88545Y-64141D01*
X88519Y-64079D01*
X88471Y-64031D01*
X88456Y-64025D01*
X88471Y-64019D01*
X88519Y-63971D01*
X88545Y-63909D01*
X88545Y-63841D01*
X88545Y-63391D01*
X88519Y-63329D01*
X88471Y-63281D01*
X88456Y-63275D01*
X88471Y-63269D01*
X88519Y-63221D01*
X88545Y-63159D01*
X88545Y-63091D01*
X88545Y-62641D01*
X88519Y-62579D01*
X88471Y-62531D01*
X88409Y-62505D01*
X88341Y-62505D01*
X88191Y-62505D01*
X88978Y-61718D01*
X89041Y-61744D01*
X89125Y-61744D01*
X89125Y-61800D01*
X89137Y-61800D01*
X89125Y-61812D01*
X89126Y-61876D01*
X89126Y-61975D01*
X89164Y-62066D01*
X89199Y-62101D01*
G54D10*
G36*
X89600Y-61750D02*
X89500Y-61750D01*
X89500Y-61650D01*
X89600Y-61650D01*
X89600Y-61750D01*
X89600Y-61750D01*
G37*
G54D33*
X89600Y-61750D02*
X89500Y-61750D01*
X89500Y-61650D01*
X89600Y-61650D01*
X89600Y-61750D01*
G54D10*
G36*
X89740Y-68269D02*
X89690Y-68290D01*
X89560Y-68419D01*
X89489Y-68589D01*
X89489Y-68772D01*
X89489Y-69805D01*
X89411Y-69805D01*
X89411Y-69628D01*
X89411Y-68590D01*
X89341Y-68421D01*
X89212Y-68291D01*
X89160Y-68269D01*
X89160Y-68195D01*
X89209Y-68195D01*
X89271Y-68169D01*
X89319Y-68121D01*
X89345Y-68059D01*
X89345Y-67991D01*
X89345Y-67710D01*
X89555Y-67710D01*
X89555Y-68059D01*
X89581Y-68121D01*
X89629Y-68169D01*
X89691Y-68195D01*
X89740Y-68195D01*
X89740Y-68269D01*
X89740Y-68269D01*
G37*
G54D33*
X89740Y-68269D02*
X89690Y-68290D01*
X89560Y-68419D01*
X89489Y-68589D01*
X89489Y-68772D01*
X89489Y-69805D01*
X89411Y-69805D01*
X89411Y-69628D01*
X89411Y-68590D01*
X89341Y-68421D01*
X89212Y-68291D01*
X89160Y-68269D01*
X89160Y-68195D01*
X89209Y-68195D01*
X89271Y-68169D01*
X89319Y-68121D01*
X89345Y-68059D01*
X89345Y-67991D01*
X89345Y-67710D01*
X89555Y-67710D01*
X89555Y-68059D01*
X89581Y-68121D01*
X89629Y-68169D01*
X89691Y-68195D01*
X89740Y-68195D01*
X89740Y-68269D01*
G54D10*
G36*
X92000Y-69675D02*
X91900Y-69675D01*
X91850Y-69675D01*
X91487Y-69675D01*
X91425Y-69737D01*
X91425Y-69805D01*
X91420Y-69805D01*
X91420Y-69026D01*
X91505Y-68941D01*
X91505Y-69084D01*
X91531Y-69146D01*
X91579Y-69194D01*
X91610Y-69207D01*
X91534Y-69239D01*
X91464Y-69309D01*
X91426Y-69401D01*
X91425Y-69513D01*
X91487Y-69575D01*
X91850Y-69575D01*
X91900Y-69575D01*
X92000Y-69575D01*
X92000Y-69675D01*
X92000Y-69675D01*
G37*
G54D33*
X92000Y-69675D02*
X91900Y-69675D01*
X91850Y-69675D01*
X91487Y-69675D01*
X91425Y-69737D01*
X91425Y-69805D01*
X91420Y-69805D01*
X91420Y-69026D01*
X91505Y-68941D01*
X91505Y-69084D01*
X91531Y-69146D01*
X91579Y-69194D01*
X91610Y-69207D01*
X91534Y-69239D01*
X91464Y-69309D01*
X91426Y-69401D01*
X91425Y-69513D01*
X91487Y-69575D01*
X91850Y-69575D01*
X91900Y-69575D01*
X92000Y-69575D01*
X92000Y-69675D01*
G54D10*
G36*
X96395Y-62430D02*
X95891Y-62430D01*
X95829Y-62456D01*
X95781Y-62504D01*
X95775Y-62518D01*
X95769Y-62504D01*
X95721Y-62456D01*
X95659Y-62430D01*
X95591Y-62430D01*
X95041Y-62430D01*
X94979Y-62456D01*
X94931Y-62504D01*
X94925Y-62518D01*
X94919Y-62504D01*
X94871Y-62456D01*
X94809Y-62430D01*
X94741Y-62430D01*
X94191Y-62430D01*
X94129Y-62456D01*
X94081Y-62504D01*
X94075Y-62518D01*
X94069Y-62504D01*
X94021Y-62456D01*
X93959Y-62430D01*
X93891Y-62430D01*
X93341Y-62430D01*
X93279Y-62456D01*
X93231Y-62504D01*
X93225Y-62518D01*
X93219Y-62504D01*
X93171Y-62456D01*
X93109Y-62430D01*
X93041Y-62430D01*
X92491Y-62430D01*
X92429Y-62456D01*
X92381Y-62504D01*
X92375Y-62518D01*
X92369Y-62504D01*
X92321Y-62456D01*
X92259Y-62430D01*
X92191Y-62430D01*
X91641Y-62430D01*
X91579Y-62456D01*
X91531Y-62504D01*
X91525Y-62518D01*
X91519Y-62504D01*
X91471Y-62456D01*
X91409Y-62430D01*
X91341Y-62430D01*
X90791Y-62430D01*
X90729Y-62456D01*
X90681Y-62504D01*
X90655Y-62566D01*
X90655Y-62634D01*
X90655Y-62808D01*
X90650Y-62803D01*
X90650Y-62536D01*
X90624Y-62474D01*
X90576Y-62426D01*
X90514Y-62400D01*
X90446Y-62400D01*
X90086Y-62400D01*
X90024Y-62426D01*
X89976Y-62474D01*
X89950Y-62536D01*
X89950Y-62604D01*
X89950Y-62964D01*
X89976Y-63026D01*
X90024Y-63074D01*
X90086Y-63100D01*
X90154Y-63100D01*
X90353Y-63100D01*
X90440Y-63186D01*
X90440Y-63750D01*
X90086Y-63750D01*
X90024Y-63776D01*
X89976Y-63824D01*
X89950Y-63886D01*
X89950Y-63954D01*
X89950Y-64314D01*
X89976Y-64376D01*
X90024Y-64424D01*
X90086Y-64450D01*
X90090Y-64450D01*
X90090Y-64680D01*
X89843Y-64680D01*
X89850Y-64664D01*
X89850Y-64596D01*
X89850Y-64236D01*
X89824Y-64174D01*
X89776Y-64126D01*
X89714Y-64100D01*
X89776Y-64074D01*
X89824Y-64026D01*
X89850Y-63964D01*
X89850Y-63896D01*
X89850Y-63536D01*
X89828Y-63483D01*
X89891Y-63421D01*
X89929Y-63329D01*
X89930Y-63212D01*
X89868Y-63150D01*
X89600Y-63150D01*
X89550Y-63150D01*
X89450Y-63150D01*
X89450Y-63050D01*
X89550Y-63050D01*
X89600Y-63050D01*
X89868Y-63050D01*
X89930Y-62988D01*
X89929Y-62871D01*
X89891Y-62779D01*
X89821Y-62709D01*
X89799Y-62700D01*
X89824Y-62676D01*
X89850Y-62614D01*
X89850Y-62546D01*
X89850Y-62186D01*
X89834Y-62149D01*
X89866Y-62136D01*
X89936Y-62066D01*
X89947Y-62037D01*
X89979Y-62069D01*
X90041Y-62095D01*
X90109Y-62095D01*
X90348Y-62095D01*
X90426Y-62173D01*
X90427Y-62173D01*
X90472Y-62203D01*
X90494Y-62218D01*
X90495Y-62219D01*
X90575Y-62235D01*
X90655Y-62235D01*
X90681Y-62296D01*
X90729Y-62344D01*
X90791Y-62370D01*
X90859Y-62370D01*
X91409Y-62370D01*
X91471Y-62344D01*
X91519Y-62296D01*
X91519Y-62295D01*
X91530Y-62295D01*
X91531Y-62296D01*
X91579Y-62344D01*
X91641Y-62370D01*
X91709Y-62370D01*
X92259Y-62370D01*
X92321Y-62344D01*
X92369Y-62296D01*
X92369Y-62295D01*
X92380Y-62295D01*
X92381Y-62296D01*
X92429Y-62344D01*
X92491Y-62370D01*
X92559Y-62370D01*
X93109Y-62370D01*
X93171Y-62344D01*
X93219Y-62296D01*
X93219Y-62295D01*
X93230Y-62295D01*
X93231Y-62296D01*
X93279Y-62344D01*
X93341Y-62370D01*
X93409Y-62370D01*
X93959Y-62370D01*
X94021Y-62344D01*
X94069Y-62296D01*
X94069Y-62295D01*
X94080Y-62295D01*
X94081Y-62296D01*
X94129Y-62344D01*
X94191Y-62370D01*
X94259Y-62370D01*
X94809Y-62370D01*
X94871Y-62344D01*
X94919Y-62296D01*
X94919Y-62295D01*
X94930Y-62295D01*
X94931Y-62296D01*
X94979Y-62344D01*
X95041Y-62370D01*
X95109Y-62370D01*
X95659Y-62370D01*
X95721Y-62344D01*
X95769Y-62296D01*
X95769Y-62295D01*
X95780Y-62295D01*
X95781Y-62296D01*
X95829Y-62344D01*
X95891Y-62370D01*
X95959Y-62370D01*
X96395Y-62370D01*
X96395Y-62430D01*
X96395Y-62430D01*
G37*
G54D33*
X96395Y-62430D02*
X95891Y-62430D01*
X95829Y-62456D01*
X95781Y-62504D01*
X95775Y-62518D01*
X95769Y-62504D01*
X95721Y-62456D01*
X95659Y-62430D01*
X95591Y-62430D01*
X95041Y-62430D01*
X94979Y-62456D01*
X94931Y-62504D01*
X94925Y-62518D01*
X94919Y-62504D01*
X94871Y-62456D01*
X94809Y-62430D01*
X94741Y-62430D01*
X94191Y-62430D01*
X94129Y-62456D01*
X94081Y-62504D01*
X94075Y-62518D01*
X94069Y-62504D01*
X94021Y-62456D01*
X93959Y-62430D01*
X93891Y-62430D01*
X93341Y-62430D01*
X93279Y-62456D01*
X93231Y-62504D01*
X93225Y-62518D01*
X93219Y-62504D01*
X93171Y-62456D01*
X93109Y-62430D01*
X93041Y-62430D01*
X92491Y-62430D01*
X92429Y-62456D01*
X92381Y-62504D01*
X92375Y-62518D01*
X92369Y-62504D01*
X92321Y-62456D01*
X92259Y-62430D01*
X92191Y-62430D01*
X91641Y-62430D01*
X91579Y-62456D01*
X91531Y-62504D01*
X91525Y-62518D01*
X91519Y-62504D01*
X91471Y-62456D01*
X91409Y-62430D01*
X91341Y-62430D01*
X90791Y-62430D01*
X90729Y-62456D01*
X90681Y-62504D01*
X90655Y-62566D01*
X90655Y-62634D01*
X90655Y-62808D01*
X90650Y-62803D01*
X90650Y-62536D01*
X90624Y-62474D01*
X90576Y-62426D01*
X90514Y-62400D01*
X90446Y-62400D01*
X90086Y-62400D01*
X90024Y-62426D01*
X89976Y-62474D01*
X89950Y-62536D01*
X89950Y-62604D01*
X89950Y-62964D01*
X89976Y-63026D01*
X90024Y-63074D01*
X90086Y-63100D01*
X90154Y-63100D01*
X90353Y-63100D01*
X90440Y-63186D01*
X90440Y-63750D01*
X90086Y-63750D01*
X90024Y-63776D01*
X89976Y-63824D01*
X89950Y-63886D01*
X89950Y-63954D01*
X89950Y-64314D01*
X89976Y-64376D01*
X90024Y-64424D01*
X90086Y-64450D01*
X90090Y-64450D01*
X90090Y-64680D01*
X89843Y-64680D01*
X89850Y-64664D01*
X89850Y-64596D01*
X89850Y-64236D01*
X89824Y-64174D01*
X89776Y-64126D01*
X89714Y-64100D01*
X89776Y-64074D01*
X89824Y-64026D01*
X89850Y-63964D01*
X89850Y-63896D01*
X89850Y-63536D01*
X89828Y-63483D01*
X89891Y-63421D01*
X89929Y-63329D01*
X89930Y-63212D01*
X89868Y-63150D01*
X89600Y-63150D01*
X89550Y-63150D01*
X89450Y-63150D01*
X89450Y-63050D01*
X89550Y-63050D01*
X89600Y-63050D01*
X89868Y-63050D01*
X89930Y-62988D01*
X89929Y-62871D01*
X89891Y-62779D01*
X89821Y-62709D01*
X89799Y-62700D01*
X89824Y-62676D01*
X89850Y-62614D01*
X89850Y-62546D01*
X89850Y-62186D01*
X89834Y-62149D01*
X89866Y-62136D01*
X89936Y-62066D01*
X89947Y-62037D01*
X89979Y-62069D01*
X90041Y-62095D01*
X90109Y-62095D01*
X90348Y-62095D01*
X90426Y-62173D01*
X90427Y-62173D01*
X90472Y-62203D01*
X90494Y-62218D01*
X90495Y-62219D01*
X90575Y-62235D01*
X90655Y-62235D01*
X90681Y-62296D01*
X90729Y-62344D01*
X90791Y-62370D01*
X90859Y-62370D01*
X91409Y-62370D01*
X91471Y-62344D01*
X91519Y-62296D01*
X91519Y-62295D01*
X91530Y-62295D01*
X91531Y-62296D01*
X91579Y-62344D01*
X91641Y-62370D01*
X91709Y-62370D01*
X92259Y-62370D01*
X92321Y-62344D01*
X92369Y-62296D01*
X92369Y-62295D01*
X92380Y-62295D01*
X92381Y-62296D01*
X92429Y-62344D01*
X92491Y-62370D01*
X92559Y-62370D01*
X93109Y-62370D01*
X93171Y-62344D01*
X93219Y-62296D01*
X93219Y-62295D01*
X93230Y-62295D01*
X93231Y-62296D01*
X93279Y-62344D01*
X93341Y-62370D01*
X93409Y-62370D01*
X93959Y-62370D01*
X94021Y-62344D01*
X94069Y-62296D01*
X94069Y-62295D01*
X94080Y-62295D01*
X94081Y-62296D01*
X94129Y-62344D01*
X94191Y-62370D01*
X94259Y-62370D01*
X94809Y-62370D01*
X94871Y-62344D01*
X94919Y-62296D01*
X94919Y-62295D01*
X94930Y-62295D01*
X94931Y-62296D01*
X94979Y-62344D01*
X95041Y-62370D01*
X95109Y-62370D01*
X95659Y-62370D01*
X95721Y-62344D01*
X95769Y-62296D01*
X95769Y-62295D01*
X95780Y-62295D01*
X95781Y-62296D01*
X95829Y-62344D01*
X95891Y-62370D01*
X95959Y-62370D01*
X96395Y-62370D01*
X96395Y-62430D01*
G54D10*
G36*
X100605Y-68205D02*
X100500Y-68205D01*
X100425Y-68220D01*
X100390Y-68243D01*
X100371Y-68235D01*
X100303Y-68235D01*
X99831Y-68235D01*
X99769Y-68261D01*
X99721Y-68309D01*
X99695Y-68371D01*
X99695Y-68439D01*
X99695Y-69305D01*
X99721Y-69367D01*
X99769Y-69415D01*
X99831Y-69441D01*
X99899Y-69441D01*
X100305Y-69441D01*
X100305Y-69805D01*
X98649Y-69805D01*
X98649Y-68980D01*
X98638Y-68904D01*
X98611Y-68829D01*
X98571Y-68763D01*
X98518Y-68704D01*
X98517Y-68702D01*
X98472Y-68670D01*
X98457Y-68658D01*
X98456Y-68657D01*
X98455Y-68657D01*
X98384Y-68624D01*
X98382Y-68623D01*
X98346Y-68614D01*
X98310Y-68605D01*
X98230Y-68601D01*
X98154Y-68612D01*
X98079Y-68639D01*
X98013Y-68679D01*
X97954Y-68731D01*
X97952Y-68733D01*
X97920Y-68777D01*
X97908Y-68793D01*
X97907Y-68793D01*
X97907Y-68795D01*
X97873Y-68868D01*
X97864Y-68904D01*
X97855Y-68940D01*
X97851Y-69020D01*
X97862Y-69096D01*
X97862Y-69097D01*
X97889Y-69171D01*
X97928Y-69236D01*
X97982Y-69296D01*
X97983Y-69297D01*
X98003Y-69312D01*
X98043Y-69342D01*
X98045Y-69343D01*
X98116Y-69376D01*
X98117Y-69377D01*
X98172Y-69390D01*
X98190Y-69395D01*
X98191Y-69395D01*
X98270Y-69399D01*
X98345Y-69388D01*
X98346Y-69388D01*
X98347Y-69387D01*
X98421Y-69361D01*
X98486Y-69322D01*
X98546Y-69268D01*
X98546Y-69267D01*
X98547Y-69267D01*
X98562Y-69246D01*
X98592Y-69207D01*
X98592Y-69206D01*
X98593Y-69205D01*
X98626Y-69134D01*
X98627Y-69133D01*
X98640Y-69078D01*
X98645Y-69060D01*
X98645Y-69059D01*
X98649Y-68980D01*
X98649Y-69805D01*
X95499Y-69805D01*
X95499Y-68980D01*
X95488Y-68904D01*
X95461Y-68829D01*
X95421Y-68763D01*
X95368Y-68704D01*
X95367Y-68702D01*
X95322Y-68670D01*
X95307Y-68658D01*
X95306Y-68657D01*
X95305Y-68657D01*
X95234Y-68624D01*
X95232Y-68623D01*
X95196Y-68614D01*
X95160Y-68605D01*
X95080Y-68601D01*
X95004Y-68612D01*
X94929Y-68639D01*
X94863Y-68679D01*
X94804Y-68731D01*
X94802Y-68733D01*
X94770Y-68777D01*
X94758Y-68793D01*
X94757Y-68793D01*
X94757Y-68795D01*
X94723Y-68868D01*
X94714Y-68904D01*
X94705Y-68940D01*
X94701Y-69020D01*
X94712Y-69096D01*
X94712Y-69097D01*
X94739Y-69171D01*
X94778Y-69236D01*
X94832Y-69296D01*
X94833Y-69297D01*
X94853Y-69312D01*
X94893Y-69342D01*
X94895Y-69343D01*
X94966Y-69376D01*
X94967Y-69377D01*
X95022Y-69390D01*
X95040Y-69395D01*
X95041Y-69395D01*
X95120Y-69399D01*
X95195Y-69388D01*
X95196Y-69388D01*
X95197Y-69387D01*
X95271Y-69361D01*
X95336Y-69322D01*
X95396Y-69268D01*
X95396Y-69267D01*
X95397Y-69267D01*
X95412Y-69246D01*
X95442Y-69207D01*
X95442Y-69206D01*
X95443Y-69205D01*
X95476Y-69134D01*
X95477Y-69133D01*
X95490Y-69078D01*
X95495Y-69060D01*
X95495Y-69059D01*
X95499Y-68980D01*
X95499Y-69805D01*
X92474Y-69805D01*
X92474Y-69774D01*
X92538Y-69775D01*
X92600Y-69713D01*
X92600Y-69400D01*
X92600Y-69350D01*
X92600Y-69250D01*
X92700Y-69250D01*
X92700Y-69350D01*
X92700Y-69400D01*
X92700Y-69713D01*
X92762Y-69775D01*
X92874Y-69774D01*
X92966Y-69736D01*
X93036Y-69666D01*
X93047Y-69637D01*
X93079Y-69669D01*
X93141Y-69695D01*
X93209Y-69695D01*
X93559Y-69695D01*
X93621Y-69669D01*
X93669Y-69621D01*
X93695Y-69559D01*
X93695Y-69491D01*
X93695Y-69426D01*
X93729Y-69441D01*
X93797Y-69441D01*
X94269Y-69441D01*
X94331Y-69415D01*
X94379Y-69367D01*
X94405Y-69305D01*
X94405Y-69237D01*
X94405Y-68371D01*
X94379Y-68309D01*
X94331Y-68261D01*
X94269Y-68235D01*
X94201Y-68235D01*
X93729Y-68235D01*
X93680Y-68255D01*
X93669Y-68229D01*
X93621Y-68181D01*
X93606Y-68175D01*
X93621Y-68169D01*
X93669Y-68121D01*
X93695Y-68059D01*
X93695Y-67991D01*
X93695Y-67541D01*
X93669Y-67479D01*
X93621Y-67431D01*
X93606Y-67425D01*
X93621Y-67419D01*
X93669Y-67371D01*
X93695Y-67309D01*
X93695Y-67241D01*
X93695Y-66791D01*
X93669Y-66729D01*
X93621Y-66681D01*
X93606Y-66675D01*
X93621Y-66669D01*
X93669Y-66621D01*
X93695Y-66559D01*
X93695Y-66491D01*
X93695Y-66041D01*
X93669Y-65979D01*
X93621Y-65931D01*
X93606Y-65925D01*
X93621Y-65919D01*
X93669Y-65871D01*
X93695Y-65809D01*
X93695Y-65741D01*
X93695Y-65489D01*
X93729Y-65504D01*
X93797Y-65504D01*
X94269Y-65504D01*
X94331Y-65478D01*
X94379Y-65430D01*
X94405Y-65368D01*
X94405Y-65347D01*
X94643Y-65347D01*
X94687Y-65328D01*
X94694Y-65331D01*
X94694Y-66246D01*
X94684Y-66251D01*
X94601Y-66333D01*
X94556Y-66441D01*
X94556Y-66558D01*
X94601Y-66666D01*
X94683Y-66749D01*
X94791Y-66794D01*
X94908Y-66794D01*
X95016Y-66749D01*
X95099Y-66667D01*
X95144Y-66559D01*
X95144Y-66503D01*
X95241Y-66544D01*
X95358Y-66544D01*
X95466Y-66499D01*
X95549Y-66417D01*
X95594Y-66309D01*
X95594Y-66192D01*
X95549Y-66084D01*
X95547Y-66081D01*
X95547Y-65411D01*
X95583Y-65426D01*
X95658Y-65427D01*
X95720Y-65365D01*
X95720Y-64962D01*
X95720Y-64912D01*
X95720Y-64812D01*
X95820Y-64812D01*
X95820Y-64912D01*
X95820Y-64962D01*
X95820Y-65365D01*
X95882Y-65427D01*
X95912Y-65426D01*
X95906Y-65441D01*
X95906Y-65558D01*
X95951Y-65666D01*
X96033Y-65749D01*
X96141Y-65794D01*
X96258Y-65794D01*
X96306Y-65774D01*
X96306Y-65808D01*
X96351Y-65916D01*
X96433Y-65999D01*
X96541Y-66044D01*
X96658Y-66044D01*
X96766Y-65999D01*
X96805Y-65960D01*
X97127Y-65960D01*
X97151Y-66016D01*
X97233Y-66099D01*
X97341Y-66144D01*
X97458Y-66144D01*
X97566Y-66099D01*
X97649Y-66017D01*
X97694Y-65909D01*
X97694Y-65802D01*
X98084Y-65413D01*
X98084Y-65412D01*
X98130Y-65345D01*
X98130Y-65344D01*
X98131Y-65337D01*
X98170Y-65321D01*
X98218Y-65273D01*
X98244Y-65211D01*
X98244Y-65143D01*
X98244Y-64513D01*
X98218Y-64451D01*
X98170Y-64403D01*
X98108Y-64377D01*
X98040Y-64377D01*
X97764Y-64377D01*
X97719Y-64395D01*
X97675Y-64377D01*
X97607Y-64377D01*
X97413Y-64377D01*
X97419Y-64371D01*
X97445Y-64309D01*
X97445Y-64241D01*
X97445Y-63937D01*
X97557Y-64050D01*
X97727Y-64121D01*
X97910Y-64121D01*
X98079Y-64051D01*
X98209Y-63922D01*
X98280Y-63752D01*
X98280Y-63569D01*
X98280Y-63449D01*
X98210Y-63280D01*
X98081Y-63150D01*
X97911Y-63079D01*
X97894Y-63079D01*
X97894Y-62992D01*
X97870Y-62934D01*
X97870Y-62575D01*
X97869Y-62574D01*
X97870Y-62574D01*
X97865Y-62553D01*
X97849Y-62472D01*
X97848Y-62471D01*
X97791Y-62384D01*
X97788Y-62382D01*
X97495Y-62088D01*
X97495Y-61816D01*
X97469Y-61754D01*
X97421Y-61706D01*
X97359Y-61680D01*
X97291Y-61680D01*
X96741Y-61680D01*
X96679Y-61706D01*
X96631Y-61754D01*
X96630Y-61755D01*
X96625Y-61755D01*
X96619Y-61755D01*
X96619Y-61754D01*
X96571Y-61706D01*
X96509Y-61680D01*
X96441Y-61680D01*
X95891Y-61680D01*
X95829Y-61706D01*
X95781Y-61754D01*
X95780Y-61755D01*
X95769Y-61755D01*
X95769Y-61754D01*
X95721Y-61706D01*
X95659Y-61680D01*
X95591Y-61680D01*
X95041Y-61680D01*
X94979Y-61706D01*
X94931Y-61754D01*
X94930Y-61755D01*
X94919Y-61755D01*
X94919Y-61754D01*
X94871Y-61706D01*
X94809Y-61680D01*
X94741Y-61680D01*
X94191Y-61680D01*
X94129Y-61706D01*
X94081Y-61754D01*
X94080Y-61755D01*
X94069Y-61755D01*
X94069Y-61754D01*
X94021Y-61706D01*
X93959Y-61680D01*
X93891Y-61680D01*
X93708Y-61680D01*
X93708Y-61178D01*
X93400Y-60871D01*
X93092Y-61178D01*
X93119Y-61272D01*
X93321Y-61343D01*
X93534Y-61332D01*
X93681Y-61272D01*
X93708Y-61178D01*
X93708Y-61680D01*
X93341Y-61680D01*
X93279Y-61706D01*
X93231Y-61754D01*
X93230Y-61755D01*
X93219Y-61755D01*
X93219Y-61754D01*
X93171Y-61706D01*
X93109Y-61680D01*
X93041Y-61680D01*
X92491Y-61680D01*
X92429Y-61706D01*
X92381Y-61754D01*
X92380Y-61755D01*
X92369Y-61755D01*
X92369Y-61754D01*
X92321Y-61706D01*
X92259Y-61680D01*
X92220Y-61680D01*
X92220Y-61666D01*
X92244Y-61609D01*
X92244Y-61492D01*
X92199Y-61384D01*
X92164Y-61349D01*
X92288Y-61350D01*
X92350Y-61288D01*
X92350Y-60850D01*
X91912Y-60850D01*
X91850Y-60912D01*
X91851Y-61051D01*
X91851Y-61150D01*
X91889Y-61241D01*
X91904Y-61256D01*
X91892Y-61256D01*
X91784Y-61301D01*
X91701Y-61383D01*
X91656Y-61491D01*
X91656Y-61608D01*
X91680Y-61665D01*
X91680Y-61680D01*
X91641Y-61680D01*
X91579Y-61706D01*
X91531Y-61754D01*
X91530Y-61755D01*
X91519Y-61755D01*
X91519Y-61754D01*
X91471Y-61706D01*
X91409Y-61680D01*
X91341Y-61680D01*
X90791Y-61680D01*
X90729Y-61706D01*
X90681Y-61754D01*
X90657Y-61810D01*
X90595Y-61748D01*
X90595Y-61441D01*
X90569Y-61379D01*
X90521Y-61331D01*
X90459Y-61305D01*
X90391Y-61305D01*
X90041Y-61305D01*
X89979Y-61331D01*
X89947Y-61362D01*
X89936Y-61334D01*
X89866Y-61264D01*
X89847Y-61256D01*
X89866Y-61249D01*
X89949Y-61167D01*
X89994Y-61059D01*
X89994Y-60942D01*
X89949Y-60834D01*
X89867Y-60751D01*
X89759Y-60706D01*
X89642Y-60706D01*
X89534Y-60751D01*
X89494Y-60790D01*
X88900Y-60790D01*
X88820Y-60806D01*
X88797Y-60821D01*
X88751Y-60852D01*
X87513Y-62090D01*
X84401Y-62090D01*
X84399Y-62084D01*
X84317Y-62001D01*
X84218Y-61960D01*
X85500Y-61960D01*
X85500Y-61959D01*
X85567Y-61946D01*
X85580Y-61944D01*
X85581Y-61944D01*
X85648Y-61898D01*
X85801Y-61745D01*
X86109Y-61745D01*
X86171Y-61719D01*
X86219Y-61671D01*
X86245Y-61609D01*
X86245Y-61541D01*
X86245Y-61291D01*
X86255Y-61301D01*
X86255Y-61609D01*
X86281Y-61671D01*
X86329Y-61719D01*
X86391Y-61745D01*
X86459Y-61745D01*
X86809Y-61745D01*
X86871Y-61719D01*
X86919Y-61671D01*
X86945Y-61609D01*
X86945Y-61541D01*
X86945Y-61091D01*
X86919Y-61029D01*
X86871Y-60981D01*
X86809Y-60955D01*
X86741Y-60955D01*
X86501Y-60955D01*
X86318Y-60772D01*
X86324Y-60767D01*
X86369Y-60659D01*
X86369Y-60542D01*
X86349Y-60495D01*
X91851Y-60495D01*
X91851Y-60549D01*
X91850Y-60688D01*
X91912Y-60750D01*
X92300Y-60750D01*
X92350Y-60750D01*
X92450Y-60750D01*
X92450Y-60850D01*
X92450Y-60900D01*
X92450Y-61288D01*
X92512Y-61350D01*
X92749Y-61349D01*
X92841Y-61311D01*
X92911Y-61241D01*
X92949Y-61150D01*
X92949Y-61087D01*
X93022Y-61108D01*
X93294Y-60835D01*
X93329Y-60800D01*
X93400Y-60729D01*
X93471Y-60800D01*
X93506Y-60835D01*
X93778Y-61108D01*
X93872Y-61081D01*
X93934Y-60903D01*
X94001Y-61066D01*
X94133Y-61198D01*
X94306Y-61270D01*
X94493Y-61270D01*
X94666Y-61199D01*
X94798Y-61067D01*
X94870Y-60894D01*
X94870Y-60707D01*
X94799Y-60534D01*
X94760Y-60495D01*
X95040Y-60495D01*
X95002Y-60533D01*
X94930Y-60706D01*
X94930Y-60893D01*
X95001Y-61066D01*
X95133Y-61198D01*
X95306Y-61270D01*
X95493Y-61270D01*
X95666Y-61199D01*
X95798Y-61067D01*
X95870Y-60894D01*
X95870Y-60707D01*
X95799Y-60534D01*
X95760Y-60495D01*
X96040Y-60495D01*
X96002Y-60533D01*
X95930Y-60706D01*
X95930Y-60893D01*
X96001Y-61066D01*
X96133Y-61198D01*
X96306Y-61270D01*
X96493Y-61270D01*
X96666Y-61199D01*
X96798Y-61067D01*
X96870Y-60894D01*
X96870Y-60707D01*
X96799Y-60534D01*
X96760Y-60495D01*
X100605Y-60495D01*
X100605Y-63214D01*
X100504Y-63105D01*
X100316Y-63018D01*
X100231Y-63065D01*
X100231Y-63500D01*
X100231Y-63550D01*
X100231Y-63650D01*
X100231Y-63700D01*
X100231Y-64135D01*
X100316Y-64182D01*
X100504Y-64095D01*
X100605Y-63985D01*
X100605Y-65605D01*
X100232Y-65605D01*
X100232Y-65368D01*
X100232Y-65300D01*
X100232Y-64750D01*
X100206Y-64688D01*
X100158Y-64640D01*
X100131Y-64628D01*
X100131Y-64135D01*
X100131Y-63650D01*
X100131Y-63550D01*
X100131Y-63065D01*
X100046Y-63018D01*
X99858Y-63105D01*
X99712Y-63263D01*
X99641Y-63455D01*
X99641Y-62039D01*
X99641Y-62038D01*
X99641Y-61962D01*
X99641Y-61961D01*
X99595Y-61732D01*
X99566Y-61661D01*
X99436Y-61468D01*
X99382Y-61414D01*
X99188Y-61284D01*
X99118Y-61255D01*
X98888Y-61209D01*
X98812Y-61209D01*
X98811Y-61209D01*
X98582Y-61255D01*
X98511Y-61284D01*
X98318Y-61414D01*
X98264Y-61468D01*
X98134Y-61662D01*
X98105Y-61732D01*
X98059Y-61962D01*
X98059Y-62038D01*
X98105Y-62268D01*
X98134Y-62338D01*
X98264Y-62532D01*
X98318Y-62586D01*
X98511Y-62716D01*
X98582Y-62745D01*
X98811Y-62791D01*
X98812Y-62791D01*
X98888Y-62791D01*
X99118Y-62745D01*
X99188Y-62716D01*
X99382Y-62586D01*
X99436Y-62532D01*
X99566Y-62339D01*
X99595Y-62268D01*
X99641Y-62039D01*
X99641Y-63455D01*
X99638Y-63464D01*
X99693Y-63550D01*
X100131Y-63550D01*
X100131Y-63650D01*
X99693Y-63650D01*
X99638Y-63736D01*
X99712Y-63937D01*
X99858Y-64095D01*
X100046Y-64182D01*
X100131Y-64135D01*
X100131Y-64628D01*
X100096Y-64614D01*
X100028Y-64614D01*
X99398Y-64614D01*
X99336Y-64640D01*
X99288Y-64688D01*
X99262Y-64750D01*
X99262Y-64818D01*
X99262Y-65368D01*
X99288Y-65430D01*
X99336Y-65478D01*
X99398Y-65504D01*
X99466Y-65504D01*
X100096Y-65504D01*
X100158Y-65478D01*
X100206Y-65430D01*
X100232Y-65368D01*
X100232Y-65605D01*
X100200Y-65605D01*
X100125Y-65620D01*
X100062Y-65662D01*
X100020Y-65725D01*
X100005Y-65800D01*
X100005Y-68000D01*
X100020Y-68075D01*
X100062Y-68138D01*
X100125Y-68180D01*
X100200Y-68195D01*
X100605Y-68195D01*
X100605Y-68205D01*
X100605Y-68205D01*
G37*
G54D33*
X100605Y-68205D02*
X100500Y-68205D01*
X100425Y-68220D01*
X100390Y-68243D01*
X100371Y-68235D01*
X100303Y-68235D01*
X99831Y-68235D01*
X99769Y-68261D01*
X99721Y-68309D01*
X99695Y-68371D01*
X99695Y-68439D01*
X99695Y-69305D01*
X99721Y-69367D01*
X99769Y-69415D01*
X99831Y-69441D01*
X99899Y-69441D01*
X100305Y-69441D01*
X100305Y-69805D01*
X98649Y-69805D01*
X98649Y-68980D01*
X98638Y-68904D01*
X98611Y-68829D01*
X98571Y-68763D01*
X98518Y-68704D01*
X98517Y-68702D01*
X98472Y-68670D01*
X98457Y-68658D01*
X98456Y-68657D01*
X98455Y-68657D01*
X98384Y-68624D01*
X98382Y-68623D01*
X98346Y-68614D01*
X98310Y-68605D01*
X98230Y-68601D01*
X98154Y-68612D01*
X98079Y-68639D01*
X98013Y-68679D01*
X97954Y-68731D01*
X97952Y-68733D01*
X97920Y-68777D01*
X97908Y-68793D01*
X97907Y-68793D01*
X97907Y-68795D01*
X97873Y-68868D01*
X97864Y-68904D01*
X97855Y-68940D01*
X97851Y-69020D01*
X97862Y-69096D01*
X97862Y-69097D01*
X97889Y-69171D01*
X97928Y-69236D01*
X97982Y-69296D01*
X97983Y-69297D01*
X98003Y-69312D01*
X98043Y-69342D01*
X98045Y-69343D01*
X98116Y-69376D01*
X98117Y-69377D01*
X98172Y-69390D01*
X98190Y-69395D01*
X98191Y-69395D01*
X98270Y-69399D01*
X98345Y-69388D01*
X98346Y-69388D01*
X98347Y-69387D01*
X98421Y-69361D01*
X98486Y-69322D01*
X98546Y-69268D01*
X98546Y-69267D01*
X98547Y-69267D01*
X98562Y-69246D01*
X98592Y-69207D01*
X98592Y-69206D01*
X98593Y-69205D01*
X98626Y-69134D01*
X98627Y-69133D01*
X98640Y-69078D01*
X98645Y-69060D01*
X98645Y-69059D01*
X98649Y-68980D01*
X98649Y-69805D01*
X95499Y-69805D01*
X95499Y-68980D01*
X95488Y-68904D01*
X95461Y-68829D01*
X95421Y-68763D01*
X95368Y-68704D01*
X95367Y-68702D01*
X95322Y-68670D01*
X95307Y-68658D01*
X95306Y-68657D01*
X95305Y-68657D01*
X95234Y-68624D01*
X95232Y-68623D01*
X95196Y-68614D01*
X95160Y-68605D01*
X95080Y-68601D01*
X95004Y-68612D01*
X94929Y-68639D01*
X94863Y-68679D01*
X94804Y-68731D01*
X94802Y-68733D01*
X94770Y-68777D01*
X94758Y-68793D01*
X94757Y-68793D01*
X94757Y-68795D01*
X94723Y-68868D01*
X94714Y-68904D01*
X94705Y-68940D01*
X94701Y-69020D01*
X94712Y-69096D01*
X94712Y-69097D01*
X94739Y-69171D01*
X94778Y-69236D01*
X94832Y-69296D01*
X94833Y-69297D01*
X94853Y-69312D01*
X94893Y-69342D01*
X94895Y-69343D01*
X94966Y-69376D01*
X94967Y-69377D01*
X95022Y-69390D01*
X95040Y-69395D01*
X95041Y-69395D01*
X95120Y-69399D01*
X95195Y-69388D01*
X95196Y-69388D01*
X95197Y-69387D01*
X95271Y-69361D01*
X95336Y-69322D01*
X95396Y-69268D01*
X95396Y-69267D01*
X95397Y-69267D01*
X95412Y-69246D01*
X95442Y-69207D01*
X95442Y-69206D01*
X95443Y-69205D01*
X95476Y-69134D01*
X95477Y-69133D01*
X95490Y-69078D01*
X95495Y-69060D01*
X95495Y-69059D01*
X95499Y-68980D01*
X95499Y-69805D01*
X92474Y-69805D01*
X92474Y-69774D01*
X92538Y-69775D01*
X92600Y-69713D01*
X92600Y-69400D01*
X92600Y-69350D01*
X92600Y-69250D01*
X92700Y-69250D01*
X92700Y-69350D01*
X92700Y-69400D01*
X92700Y-69713D01*
X92762Y-69775D01*
X92874Y-69774D01*
X92966Y-69736D01*
X93036Y-69666D01*
X93047Y-69637D01*
X93079Y-69669D01*
X93141Y-69695D01*
X93209Y-69695D01*
X93559Y-69695D01*
X93621Y-69669D01*
X93669Y-69621D01*
X93695Y-69559D01*
X93695Y-69491D01*
X93695Y-69426D01*
X93729Y-69441D01*
X93797Y-69441D01*
X94269Y-69441D01*
X94331Y-69415D01*
X94379Y-69367D01*
X94405Y-69305D01*
X94405Y-69237D01*
X94405Y-68371D01*
X94379Y-68309D01*
X94331Y-68261D01*
X94269Y-68235D01*
X94201Y-68235D01*
X93729Y-68235D01*
X93680Y-68255D01*
X93669Y-68229D01*
X93621Y-68181D01*
X93606Y-68175D01*
X93621Y-68169D01*
X93669Y-68121D01*
X93695Y-68059D01*
X93695Y-67991D01*
X93695Y-67541D01*
X93669Y-67479D01*
X93621Y-67431D01*
X93606Y-67425D01*
X93621Y-67419D01*
X93669Y-67371D01*
X93695Y-67309D01*
X93695Y-67241D01*
X93695Y-66791D01*
X93669Y-66729D01*
X93621Y-66681D01*
X93606Y-66675D01*
X93621Y-66669D01*
X93669Y-66621D01*
X93695Y-66559D01*
X93695Y-66491D01*
X93695Y-66041D01*
X93669Y-65979D01*
X93621Y-65931D01*
X93606Y-65925D01*
X93621Y-65919D01*
X93669Y-65871D01*
X93695Y-65809D01*
X93695Y-65741D01*
X93695Y-65489D01*
X93729Y-65504D01*
X93797Y-65504D01*
X94269Y-65504D01*
X94331Y-65478D01*
X94379Y-65430D01*
X94405Y-65368D01*
X94405Y-65347D01*
X94643Y-65347D01*
X94687Y-65328D01*
X94694Y-65331D01*
X94694Y-66246D01*
X94684Y-66251D01*
X94601Y-66333D01*
X94556Y-66441D01*
X94556Y-66558D01*
X94601Y-66666D01*
X94683Y-66749D01*
X94791Y-66794D01*
X94908Y-66794D01*
X95016Y-66749D01*
X95099Y-66667D01*
X95144Y-66559D01*
X95144Y-66503D01*
X95241Y-66544D01*
X95358Y-66544D01*
X95466Y-66499D01*
X95549Y-66417D01*
X95594Y-66309D01*
X95594Y-66192D01*
X95549Y-66084D01*
X95547Y-66081D01*
X95547Y-65411D01*
X95583Y-65426D01*
X95658Y-65427D01*
X95720Y-65365D01*
X95720Y-64962D01*
X95720Y-64912D01*
X95720Y-64812D01*
X95820Y-64812D01*
X95820Y-64912D01*
X95820Y-64962D01*
X95820Y-65365D01*
X95882Y-65427D01*
X95912Y-65426D01*
X95906Y-65441D01*
X95906Y-65558D01*
X95951Y-65666D01*
X96033Y-65749D01*
X96141Y-65794D01*
X96258Y-65794D01*
X96306Y-65774D01*
X96306Y-65808D01*
X96351Y-65916D01*
X96433Y-65999D01*
X96541Y-66044D01*
X96658Y-66044D01*
X96766Y-65999D01*
X96805Y-65960D01*
X97127Y-65960D01*
X97151Y-66016D01*
X97233Y-66099D01*
X97341Y-66144D01*
X97458Y-66144D01*
X97566Y-66099D01*
X97649Y-66017D01*
X97694Y-65909D01*
X97694Y-65802D01*
X98084Y-65413D01*
X98084Y-65412D01*
X98130Y-65345D01*
X98130Y-65344D01*
X98131Y-65337D01*
X98170Y-65321D01*
X98218Y-65273D01*
X98244Y-65211D01*
X98244Y-65143D01*
X98244Y-64513D01*
X98218Y-64451D01*
X98170Y-64403D01*
X98108Y-64377D01*
X98040Y-64377D01*
X97764Y-64377D01*
X97719Y-64395D01*
X97675Y-64377D01*
X97607Y-64377D01*
X97413Y-64377D01*
X97419Y-64371D01*
X97445Y-64309D01*
X97445Y-64241D01*
X97445Y-63937D01*
X97557Y-64050D01*
X97727Y-64121D01*
X97910Y-64121D01*
X98079Y-64051D01*
X98209Y-63922D01*
X98280Y-63752D01*
X98280Y-63569D01*
X98280Y-63449D01*
X98210Y-63280D01*
X98081Y-63150D01*
X97911Y-63079D01*
X97894Y-63079D01*
X97894Y-62992D01*
X97870Y-62934D01*
X97870Y-62575D01*
X97869Y-62574D01*
X97870Y-62574D01*
X97865Y-62553D01*
X97849Y-62472D01*
X97848Y-62471D01*
X97791Y-62384D01*
X97788Y-62382D01*
X97495Y-62088D01*
X97495Y-61816D01*
X97469Y-61754D01*
X97421Y-61706D01*
X97359Y-61680D01*
X97291Y-61680D01*
X96741Y-61680D01*
X96679Y-61706D01*
X96631Y-61754D01*
X96630Y-61755D01*
X96625Y-61755D01*
X96619Y-61755D01*
X96619Y-61754D01*
X96571Y-61706D01*
X96509Y-61680D01*
X96441Y-61680D01*
X95891Y-61680D01*
X95829Y-61706D01*
X95781Y-61754D01*
X95780Y-61755D01*
X95769Y-61755D01*
X95769Y-61754D01*
X95721Y-61706D01*
X95659Y-61680D01*
X95591Y-61680D01*
X95041Y-61680D01*
X94979Y-61706D01*
X94931Y-61754D01*
X94930Y-61755D01*
X94919Y-61755D01*
X94919Y-61754D01*
X94871Y-61706D01*
X94809Y-61680D01*
X94741Y-61680D01*
X94191Y-61680D01*
X94129Y-61706D01*
X94081Y-61754D01*
X94080Y-61755D01*
X94069Y-61755D01*
X94069Y-61754D01*
X94021Y-61706D01*
X93959Y-61680D01*
X93891Y-61680D01*
X93708Y-61680D01*
X93708Y-61178D01*
X93400Y-60871D01*
X93092Y-61178D01*
X93119Y-61272D01*
X93321Y-61343D01*
X93534Y-61332D01*
X93681Y-61272D01*
X93708Y-61178D01*
X93708Y-61680D01*
X93341Y-61680D01*
X93279Y-61706D01*
X93231Y-61754D01*
X93230Y-61755D01*
X93219Y-61755D01*
X93219Y-61754D01*
X93171Y-61706D01*
X93109Y-61680D01*
X93041Y-61680D01*
X92491Y-61680D01*
X92429Y-61706D01*
X92381Y-61754D01*
X92380Y-61755D01*
X92369Y-61755D01*
X92369Y-61754D01*
X92321Y-61706D01*
X92259Y-61680D01*
X92220Y-61680D01*
X92220Y-61666D01*
X92244Y-61609D01*
X92244Y-61492D01*
X92199Y-61384D01*
X92164Y-61349D01*
X92288Y-61350D01*
X92350Y-61288D01*
X92350Y-60850D01*
X91912Y-60850D01*
X91850Y-60912D01*
X91851Y-61051D01*
X91851Y-61150D01*
X91889Y-61241D01*
X91904Y-61256D01*
X91892Y-61256D01*
X91784Y-61301D01*
X91701Y-61383D01*
X91656Y-61491D01*
X91656Y-61608D01*
X91680Y-61665D01*
X91680Y-61680D01*
X91641Y-61680D01*
X91579Y-61706D01*
X91531Y-61754D01*
X91530Y-61755D01*
X91519Y-61755D01*
X91519Y-61754D01*
X91471Y-61706D01*
X91409Y-61680D01*
X91341Y-61680D01*
X90791Y-61680D01*
X90729Y-61706D01*
X90681Y-61754D01*
X90657Y-61810D01*
X90595Y-61748D01*
X90595Y-61441D01*
X90569Y-61379D01*
X90521Y-61331D01*
X90459Y-61305D01*
X90391Y-61305D01*
X90041Y-61305D01*
X89979Y-61331D01*
X89947Y-61362D01*
X89936Y-61334D01*
X89866Y-61264D01*
X89847Y-61256D01*
X89866Y-61249D01*
X89949Y-61167D01*
X89994Y-61059D01*
X89994Y-60942D01*
X89949Y-60834D01*
X89867Y-60751D01*
X89759Y-60706D01*
X89642Y-60706D01*
X89534Y-60751D01*
X89494Y-60790D01*
X88900Y-60790D01*
X88820Y-60806D01*
X88797Y-60821D01*
X88751Y-60852D01*
X87513Y-62090D01*
X84401Y-62090D01*
X84399Y-62084D01*
X84317Y-62001D01*
X84218Y-61960D01*
X85500Y-61960D01*
X85500Y-61959D01*
X85567Y-61946D01*
X85580Y-61944D01*
X85581Y-61944D01*
X85648Y-61898D01*
X85801Y-61745D01*
X86109Y-61745D01*
X86171Y-61719D01*
X86219Y-61671D01*
X86245Y-61609D01*
X86245Y-61541D01*
X86245Y-61291D01*
X86255Y-61301D01*
X86255Y-61609D01*
X86281Y-61671D01*
X86329Y-61719D01*
X86391Y-61745D01*
X86459Y-61745D01*
X86809Y-61745D01*
X86871Y-61719D01*
X86919Y-61671D01*
X86945Y-61609D01*
X86945Y-61541D01*
X86945Y-61091D01*
X86919Y-61029D01*
X86871Y-60981D01*
X86809Y-60955D01*
X86741Y-60955D01*
X86501Y-60955D01*
X86318Y-60772D01*
X86324Y-60767D01*
X86369Y-60659D01*
X86369Y-60542D01*
X86349Y-60495D01*
X91851Y-60495D01*
X91851Y-60549D01*
X91850Y-60688D01*
X91912Y-60750D01*
X92300Y-60750D01*
X92350Y-60750D01*
X92450Y-60750D01*
X92450Y-60850D01*
X92450Y-60900D01*
X92450Y-61288D01*
X92512Y-61350D01*
X92749Y-61349D01*
X92841Y-61311D01*
X92911Y-61241D01*
X92949Y-61150D01*
X92949Y-61087D01*
X93022Y-61108D01*
X93294Y-60835D01*
X93329Y-60800D01*
X93400Y-60729D01*
X93471Y-60800D01*
X93506Y-60835D01*
X93778Y-61108D01*
X93872Y-61081D01*
X93934Y-60903D01*
X94001Y-61066D01*
X94133Y-61198D01*
X94306Y-61270D01*
X94493Y-61270D01*
X94666Y-61199D01*
X94798Y-61067D01*
X94870Y-60894D01*
X94870Y-60707D01*
X94799Y-60534D01*
X94760Y-60495D01*
X95040Y-60495D01*
X95002Y-60533D01*
X94930Y-60706D01*
X94930Y-60893D01*
X95001Y-61066D01*
X95133Y-61198D01*
X95306Y-61270D01*
X95493Y-61270D01*
X95666Y-61199D01*
X95798Y-61067D01*
X95870Y-60894D01*
X95870Y-60707D01*
X95799Y-60534D01*
X95760Y-60495D01*
X96040Y-60495D01*
X96002Y-60533D01*
X95930Y-60706D01*
X95930Y-60893D01*
X96001Y-61066D01*
X96133Y-61198D01*
X96306Y-61270D01*
X96493Y-61270D01*
X96666Y-61199D01*
X96798Y-61067D01*
X96870Y-60894D01*
X96870Y-60707D01*
X96799Y-60534D01*
X96760Y-60495D01*
X100605Y-60495D01*
X100605Y-63214D01*
X100504Y-63105D01*
X100316Y-63018D01*
X100231Y-63065D01*
X100231Y-63500D01*
X100231Y-63550D01*
X100231Y-63650D01*
X100231Y-63700D01*
X100231Y-64135D01*
X100316Y-64182D01*
X100504Y-64095D01*
X100605Y-63985D01*
X100605Y-65605D01*
X100232Y-65605D01*
X100232Y-65368D01*
X100232Y-65300D01*
X100232Y-64750D01*
X100206Y-64688D01*
X100158Y-64640D01*
X100131Y-64628D01*
X100131Y-64135D01*
X100131Y-63650D01*
X100131Y-63550D01*
X100131Y-63065D01*
X100046Y-63018D01*
X99858Y-63105D01*
X99712Y-63263D01*
X99641Y-63455D01*
X99641Y-62039D01*
X99641Y-62038D01*
X99641Y-61962D01*
X99641Y-61961D01*
X99595Y-61732D01*
X99566Y-61661D01*
X99436Y-61468D01*
X99382Y-61414D01*
X99188Y-61284D01*
X99118Y-61255D01*
X98888Y-61209D01*
X98812Y-61209D01*
X98811Y-61209D01*
X98582Y-61255D01*
X98511Y-61284D01*
X98318Y-61414D01*
X98264Y-61468D01*
X98134Y-61662D01*
X98105Y-61732D01*
X98059Y-61962D01*
X98059Y-62038D01*
X98105Y-62268D01*
X98134Y-62338D01*
X98264Y-62532D01*
X98318Y-62586D01*
X98511Y-62716D01*
X98582Y-62745D01*
X98811Y-62791D01*
X98812Y-62791D01*
X98888Y-62791D01*
X99118Y-62745D01*
X99188Y-62716D01*
X99382Y-62586D01*
X99436Y-62532D01*
X99566Y-62339D01*
X99595Y-62268D01*
X99641Y-62039D01*
X99641Y-63455D01*
X99638Y-63464D01*
X99693Y-63550D01*
X100131Y-63550D01*
X100131Y-63650D01*
X99693Y-63650D01*
X99638Y-63736D01*
X99712Y-63937D01*
X99858Y-64095D01*
X100046Y-64182D01*
X100131Y-64135D01*
X100131Y-64628D01*
X100096Y-64614D01*
X100028Y-64614D01*
X99398Y-64614D01*
X99336Y-64640D01*
X99288Y-64688D01*
X99262Y-64750D01*
X99262Y-64818D01*
X99262Y-65368D01*
X99288Y-65430D01*
X99336Y-65478D01*
X99398Y-65504D01*
X99466Y-65504D01*
X100096Y-65504D01*
X100158Y-65478D01*
X100206Y-65430D01*
X100232Y-65368D01*
X100232Y-65605D01*
X100200Y-65605D01*
X100125Y-65620D01*
X100062Y-65662D01*
X100020Y-65725D01*
X100005Y-65800D01*
X100005Y-68000D01*
X100020Y-68075D01*
X100062Y-68138D01*
X100125Y-68180D01*
X100200Y-68195D01*
X100605Y-68195D01*
X100605Y-68205D01*
M02*
