G04 (created by PCBNEW-RS274X (2012-01-19 BZR 3256)-stable) date 26/03/2013 21:56:11*
G01*
G70*
G90*
%MOIN*%
G04 Gerber Fmt 3.4, Leading zero omitted, Abs format*
%FSLAX34Y34*%
G04 APERTURE LIST*
%ADD10C,0.006000*%
%ADD11R,0.035000X0.045000*%
%ADD12R,0.020000X0.040000*%
%ADD13R,0.070000X0.110000*%
%ADD14R,0.045000X0.055000*%
%ADD15R,0.045000X0.035000*%
%ADD16R,0.120000X0.055000*%
%ADD17O,0.120000X0.055000*%
%ADD18O,0.060000X0.160000*%
%ADD19R,0.057200X0.011800*%
%ADD20R,0.011800X0.057200*%
%ADD21R,0.055000X0.035000*%
%ADD22R,0.157500X0.078700*%
%ADD23R,0.060000X0.060000*%
%ADD24C,0.060000*%
%ADD25O,0.060000X0.070000*%
%ADD26C,0.025000*%
%ADD27C,0.020000*%
%ADD28C,0.008000*%
%ADD29C,0.010000*%
G04 APERTURE END LIST*
G54D10*
G54D11*
X89400Y-66550D03*
X88700Y-66550D03*
G54D12*
X99725Y-61000D03*
X100475Y-61000D03*
X99725Y-62100D03*
X100100Y-61000D03*
X100475Y-62100D03*
G54D13*
X98500Y-65050D03*
X99900Y-65050D03*
G54D14*
X97425Y-60800D03*
X98275Y-60800D03*
G54D15*
X91500Y-67850D03*
X91500Y-67150D03*
X90750Y-67850D03*
X90750Y-67150D03*
X98800Y-63950D03*
X98800Y-63250D03*
G54D11*
X81650Y-60850D03*
X82350Y-60850D03*
G54D16*
X80650Y-61050D03*
G54D17*
X80650Y-62050D03*
X80650Y-63050D03*
X80650Y-64050D03*
X80650Y-65050D03*
G54D18*
X90950Y-69200D03*
X89950Y-69200D03*
X88950Y-69200D03*
X87950Y-69200D03*
X86950Y-69200D03*
X85950Y-69200D03*
X84950Y-69200D03*
X83950Y-69200D03*
X82950Y-69200D03*
X81950Y-69200D03*
G54D19*
X83117Y-64633D03*
X83117Y-64436D03*
X83117Y-64239D03*
X83117Y-64042D03*
X83117Y-63845D03*
X83117Y-63648D03*
X83117Y-64830D03*
X83117Y-65026D03*
G54D20*
X84711Y-65833D03*
X84908Y-65833D03*
X85105Y-65833D03*
G54D19*
X87683Y-62861D03*
X87683Y-62664D03*
X87683Y-62467D03*
X87683Y-62270D03*
X87683Y-62074D03*
G54D20*
X86089Y-61267D03*
G54D19*
X87683Y-63058D03*
X87683Y-63255D03*
X87683Y-63452D03*
X87683Y-63648D03*
X87683Y-63845D03*
G54D20*
X84908Y-61267D03*
X86286Y-65833D03*
X85105Y-61267D03*
X86483Y-65833D03*
X86680Y-65833D03*
X85302Y-61267D03*
X85498Y-61267D03*
X86876Y-65833D03*
G54D19*
X87683Y-64239D03*
G54D20*
X85695Y-61267D03*
X85892Y-61267D03*
G54D19*
X87683Y-64042D03*
G54D20*
X86089Y-65833D03*
X84711Y-61267D03*
X84514Y-61267D03*
X85892Y-65833D03*
X85695Y-65833D03*
X84317Y-61267D03*
X84120Y-61267D03*
X85498Y-65833D03*
X85302Y-65833D03*
X83924Y-61267D03*
G54D19*
X83117Y-63452D03*
X83117Y-63255D03*
X83117Y-63058D03*
X83117Y-62861D03*
G54D20*
X86286Y-61267D03*
X86483Y-61267D03*
X86680Y-61267D03*
X86876Y-61267D03*
G54D19*
X87683Y-64436D03*
X87683Y-64633D03*
X87683Y-64830D03*
X87683Y-65026D03*
X83117Y-62664D03*
X83117Y-62467D03*
X83117Y-62270D03*
X83117Y-62074D03*
G54D20*
X84514Y-65833D03*
X84317Y-65833D03*
X84120Y-65833D03*
X83924Y-65833D03*
G54D21*
X85950Y-67125D03*
X85950Y-67875D03*
X83950Y-67125D03*
X83950Y-67875D03*
X84950Y-67125D03*
X84950Y-67875D03*
X86950Y-67125D03*
X86950Y-67875D03*
X87950Y-67125D03*
X87950Y-67875D03*
X81950Y-67125D03*
X81950Y-67875D03*
X82950Y-67125D03*
X82950Y-67875D03*
X89950Y-67125D03*
X89950Y-67875D03*
X88950Y-67125D03*
X88950Y-67875D03*
G54D11*
X81600Y-64550D03*
X82300Y-64550D03*
G54D15*
X81900Y-63650D03*
X81900Y-62950D03*
G54D13*
X97400Y-61900D03*
X96000Y-61900D03*
G54D15*
X91950Y-69150D03*
X91950Y-68450D03*
G54D22*
X90850Y-61400D03*
X90850Y-66200D03*
G54D23*
X92400Y-60800D03*
G54D24*
X93400Y-60800D03*
X94400Y-60800D03*
X95400Y-60800D03*
X96400Y-60800D03*
G54D15*
X95150Y-62250D03*
X95150Y-61550D03*
X94400Y-62250D03*
X94400Y-61550D03*
X93650Y-62250D03*
X93650Y-61550D03*
G54D11*
X82300Y-65300D03*
X81600Y-65300D03*
X88050Y-66550D03*
X87350Y-66550D03*
G54D25*
X97819Y-63600D03*
X100181Y-63600D03*
G54D26*
X85150Y-65000D03*
X81950Y-67125D03*
X84800Y-66500D03*
X84250Y-63550D03*
X82950Y-66600D03*
X82950Y-67125D03*
X84600Y-63550D03*
X85700Y-60600D03*
X85000Y-62750D03*
X85250Y-60600D03*
X91100Y-64100D03*
X91950Y-64100D03*
X92800Y-64100D03*
X93650Y-64100D03*
X94500Y-64100D03*
X95350Y-64100D03*
X96200Y-64100D03*
X97050Y-64100D03*
X86075Y-60600D03*
X81650Y-60850D03*
X87100Y-63600D03*
X81050Y-68550D03*
X88450Y-68350D03*
X92025Y-65525D03*
X91500Y-67150D03*
X96200Y-65500D03*
X85900Y-64300D03*
X92650Y-65550D03*
X92650Y-65075D03*
X97050Y-65500D03*
X86200Y-64150D03*
X92650Y-67850D03*
X85850Y-65250D03*
X95300Y-66250D03*
X92650Y-68550D03*
X85400Y-65250D03*
X94850Y-66500D03*
X92650Y-67050D03*
X97400Y-65850D03*
X85300Y-64700D03*
X85600Y-64500D03*
X96600Y-65750D03*
X92650Y-66300D03*
X83950Y-67125D03*
X83550Y-66000D03*
X86950Y-66400D03*
X85950Y-67125D03*
X86950Y-67125D03*
X88950Y-67125D03*
X86200Y-66450D03*
X84950Y-67125D03*
X86450Y-66750D03*
X82050Y-66600D03*
X83900Y-63550D03*
X87950Y-67125D03*
X89950Y-67125D03*
X90750Y-67150D03*
X89100Y-61450D03*
X84800Y-64900D03*
X89400Y-61250D03*
X84450Y-64900D03*
X89700Y-61000D03*
X84150Y-62250D03*
X92650Y-69700D03*
X87450Y-67850D03*
X89450Y-67850D03*
X86450Y-67850D03*
X85300Y-63000D03*
X88450Y-67850D03*
X82450Y-67850D03*
X85450Y-67850D03*
X84450Y-67850D03*
X88400Y-62350D03*
X96350Y-61500D03*
X83450Y-67850D03*
X81050Y-66600D03*
X86350Y-63600D03*
X84950Y-63500D03*
X81750Y-65100D03*
X98400Y-66100D03*
X86750Y-63200D03*
X82750Y-61650D03*
X84750Y-63000D03*
X89400Y-65150D03*
X92025Y-65150D03*
X91950Y-69050D03*
X91950Y-61550D03*
X82800Y-61150D03*
X97600Y-63050D03*
X81300Y-64550D03*
X80700Y-62350D03*
X88350Y-64800D03*
X84100Y-64900D03*
X86750Y-63600D03*
X85300Y-63350D03*
G54D27*
X100400Y-60550D02*
X99850Y-60550D01*
X99850Y-60550D02*
X99725Y-60675D01*
X98275Y-60800D02*
X97400Y-61675D01*
X97400Y-61675D02*
X97400Y-61900D01*
X99725Y-60675D02*
X99725Y-61000D01*
X98275Y-60800D02*
X99525Y-60800D01*
X99525Y-60800D02*
X99725Y-61000D01*
X100475Y-61000D02*
X100475Y-60625D01*
X100475Y-60625D02*
X100400Y-60550D01*
G54D28*
X86150Y-65400D02*
X86150Y-65100D01*
X86089Y-65833D02*
X86089Y-65461D01*
X86150Y-65100D02*
X86000Y-64950D01*
X86000Y-64950D02*
X85200Y-64950D01*
X85200Y-64950D02*
X85150Y-65000D01*
X86089Y-65461D02*
X86150Y-65400D01*
X82350Y-63150D02*
X82350Y-63200D01*
X82639Y-62861D02*
X82350Y-63150D01*
X83117Y-62861D02*
X82639Y-62861D01*
X82350Y-63200D02*
X81900Y-63650D01*
X83464Y-62664D02*
X84250Y-63450D01*
X84662Y-66638D02*
X82988Y-66638D01*
X82988Y-66638D02*
X82950Y-66600D01*
X84908Y-66392D02*
X84800Y-66500D01*
X84908Y-65833D02*
X84908Y-66392D01*
X84250Y-63450D02*
X84250Y-63550D01*
X83464Y-62664D02*
X83117Y-62664D01*
X84800Y-66500D02*
X84662Y-66638D01*
X85105Y-65833D02*
X85105Y-66595D01*
X83517Y-62467D02*
X84600Y-63550D01*
X84900Y-66800D02*
X83275Y-66800D01*
X85105Y-66595D02*
X84900Y-66800D01*
X83517Y-62467D02*
X83117Y-62467D01*
X83275Y-66800D02*
X82950Y-67125D01*
X89050Y-64400D02*
X88102Y-63452D01*
X97100Y-64400D02*
X89050Y-64400D01*
X97819Y-63600D02*
X98450Y-63600D01*
X97819Y-63681D02*
X97100Y-64400D01*
X97819Y-63600D02*
X97819Y-63681D01*
X98450Y-63600D02*
X98800Y-63950D01*
X88102Y-63452D02*
X87683Y-63452D01*
X85695Y-60605D02*
X85700Y-60600D01*
X85695Y-61267D02*
X85695Y-60605D01*
X85000Y-62750D02*
X85302Y-62448D01*
X85302Y-62448D02*
X85302Y-61267D01*
X85250Y-60650D02*
X85250Y-60600D01*
X85498Y-61267D02*
X85498Y-60898D01*
X85498Y-60898D02*
X85250Y-60650D01*
X91100Y-64100D02*
X89000Y-64100D01*
X88155Y-63255D02*
X87683Y-63255D01*
X89000Y-64100D02*
X88155Y-63255D01*
X91650Y-63800D02*
X91950Y-64100D01*
X88208Y-63058D02*
X87683Y-63058D01*
X88950Y-63800D02*
X88208Y-63058D01*
X91650Y-63800D02*
X88950Y-63800D01*
X92300Y-63600D02*
X92800Y-64100D01*
X89000Y-63600D02*
X92300Y-63600D01*
X89000Y-63600D02*
X88261Y-62861D01*
X87683Y-62861D02*
X88261Y-62861D01*
X89050Y-63400D02*
X88314Y-62664D01*
X93400Y-63850D02*
X93650Y-64100D01*
X89050Y-63400D02*
X92350Y-63400D01*
X92800Y-63850D02*
X92350Y-63400D01*
X93400Y-63850D02*
X92800Y-63850D01*
X87683Y-62664D02*
X88314Y-62664D01*
X89650Y-63200D02*
X92400Y-63200D01*
X94050Y-63650D02*
X94500Y-64100D01*
X94050Y-63650D02*
X92850Y-63650D01*
X88524Y-62074D02*
X89650Y-63200D01*
X92850Y-63650D02*
X92400Y-63200D01*
X87683Y-62074D02*
X88524Y-62074D01*
X94700Y-63450D02*
X92900Y-63450D01*
X92900Y-63450D02*
X92450Y-63000D01*
X89700Y-63000D02*
X87967Y-61267D01*
X87967Y-61267D02*
X86876Y-61267D01*
X89700Y-63000D02*
X92450Y-63000D01*
X95350Y-64100D02*
X94700Y-63450D01*
X95350Y-63250D02*
X92950Y-63250D01*
X86680Y-61267D02*
X86680Y-60920D01*
X87800Y-60850D02*
X89750Y-62800D01*
X86680Y-60920D02*
X86750Y-60850D01*
X92950Y-63250D02*
X92500Y-62800D01*
X95350Y-63250D02*
X96200Y-64100D01*
X89750Y-62800D02*
X92500Y-62800D01*
X86750Y-60850D02*
X87800Y-60850D01*
X89800Y-62600D02*
X92550Y-62600D01*
X96000Y-63050D02*
X93000Y-63050D01*
X93000Y-63050D02*
X92550Y-62600D01*
X86483Y-60867D02*
X86662Y-60688D01*
X86483Y-61267D02*
X86483Y-60867D01*
X87888Y-60688D02*
X89800Y-62600D01*
X96000Y-63050D02*
X97050Y-64100D01*
X86662Y-60688D02*
X87888Y-60688D01*
X85892Y-61267D02*
X85892Y-60783D01*
X85892Y-60783D02*
X86075Y-60600D01*
X81450Y-61050D02*
X81650Y-60850D01*
X85105Y-60905D02*
X84700Y-60500D01*
X80650Y-61050D02*
X81450Y-61050D01*
X84700Y-60500D02*
X82000Y-60500D01*
X82000Y-60500D02*
X81650Y-60850D01*
X85105Y-61267D02*
X85105Y-60905D01*
X87342Y-64042D02*
X87100Y-63800D01*
X87100Y-63800D02*
X87100Y-63600D01*
X87683Y-64042D02*
X87342Y-64042D01*
X88950Y-69200D02*
X87950Y-69200D01*
X89950Y-69200D02*
X88950Y-69200D01*
X86950Y-69200D02*
X85950Y-69200D01*
X81950Y-69200D02*
X81700Y-69200D01*
X81700Y-69200D02*
X81050Y-68550D01*
X83950Y-69200D02*
X82950Y-69200D01*
X85950Y-69200D02*
X84950Y-69200D01*
X87950Y-69200D02*
X86950Y-69200D01*
X82950Y-69200D02*
X81950Y-69200D01*
X84950Y-69200D02*
X83950Y-69200D01*
X88450Y-68350D02*
X88550Y-68250D01*
X91100Y-68250D02*
X91500Y-67850D01*
X88550Y-68250D02*
X91100Y-68250D01*
X91700Y-68450D02*
X91950Y-68450D01*
X92025Y-65525D02*
X91950Y-65600D01*
X90950Y-69200D02*
X91700Y-68450D01*
X91950Y-65600D02*
X91950Y-68450D01*
X83117Y-64239D02*
X85839Y-64239D01*
X85839Y-64239D02*
X85900Y-64300D01*
X96200Y-65500D02*
X92700Y-65500D01*
X92700Y-65500D02*
X92650Y-65550D01*
X96800Y-65250D02*
X97050Y-65500D01*
X92650Y-65075D02*
X92825Y-65250D01*
X83117Y-64042D02*
X86092Y-64042D01*
X86092Y-64042D02*
X86200Y-64150D01*
X92825Y-65250D02*
X96800Y-65250D01*
X92650Y-67850D02*
X94250Y-66250D01*
X85695Y-65833D02*
X85695Y-65405D01*
X85695Y-65405D02*
X85850Y-65250D01*
X94250Y-66250D02*
X95300Y-66250D01*
X92650Y-68550D02*
X94700Y-66500D01*
X85498Y-65833D02*
X85498Y-65348D01*
X94700Y-66500D02*
X94850Y-66500D01*
X85498Y-65348D02*
X85400Y-65250D01*
X97250Y-66000D02*
X93700Y-66000D01*
X93700Y-66000D02*
X92650Y-67050D01*
X97400Y-65850D02*
X97250Y-66000D01*
X85233Y-64633D02*
X85300Y-64700D01*
X85233Y-64633D02*
X83117Y-64633D01*
X96600Y-65750D02*
X93200Y-65750D01*
X93200Y-65750D02*
X92650Y-66300D01*
X85536Y-64436D02*
X85600Y-64500D01*
X83117Y-64436D02*
X85536Y-64436D01*
X82650Y-64950D02*
X82650Y-64200D01*
X82726Y-65026D02*
X82650Y-64950D01*
X82650Y-64200D02*
X82600Y-64150D01*
X83117Y-65026D02*
X82726Y-65026D01*
X80750Y-64150D02*
X80650Y-64050D01*
X82600Y-64150D02*
X80750Y-64150D01*
X84317Y-65833D02*
X84317Y-66383D01*
X84224Y-66476D02*
X83276Y-66476D01*
X82500Y-65700D02*
X81350Y-65700D01*
X84317Y-66383D02*
X84224Y-66476D01*
X81350Y-65700D02*
X80700Y-65050D01*
X83276Y-66476D02*
X82500Y-65700D01*
X80700Y-65050D02*
X80650Y-65050D01*
X83530Y-64830D02*
X83600Y-64900D01*
X83117Y-64830D02*
X83530Y-64830D01*
X86950Y-66350D02*
X87150Y-66150D01*
X86950Y-66400D02*
X86950Y-66400D01*
X83600Y-65950D02*
X83550Y-66000D01*
X87217Y-64633D02*
X87000Y-64850D01*
X87217Y-64633D02*
X87683Y-64633D01*
X87000Y-65200D02*
X87150Y-65350D01*
X87150Y-65350D02*
X87150Y-66150D01*
X86950Y-66400D02*
X86950Y-66350D01*
X86876Y-65833D02*
X86876Y-66326D01*
X83530Y-64830D02*
X83600Y-64900D01*
X87000Y-64850D02*
X87000Y-65200D01*
X86876Y-66326D02*
X86950Y-66400D01*
X83600Y-64900D02*
X83600Y-65950D01*
X85302Y-66477D02*
X85950Y-67125D01*
X85302Y-65833D02*
X85302Y-66477D01*
X83117Y-63845D02*
X86345Y-63845D01*
X86500Y-64000D02*
X86500Y-65250D01*
X86500Y-65250D02*
X86680Y-65430D01*
X86500Y-64000D02*
X86345Y-63845D01*
X86950Y-66800D02*
X86950Y-67125D01*
X86680Y-65833D02*
X86680Y-66530D01*
X86680Y-65833D02*
X86680Y-65430D01*
X86680Y-66530D02*
X86950Y-66800D01*
X86286Y-66364D02*
X86200Y-66450D01*
X86286Y-65833D02*
X86286Y-66364D01*
X86483Y-66717D02*
X86450Y-66750D01*
X86483Y-65833D02*
X86483Y-66717D01*
X83802Y-63648D02*
X83900Y-63550D01*
X83802Y-63648D02*
X83117Y-63648D01*
X87950Y-67125D02*
X87575Y-67500D01*
X83117Y-63058D02*
X83408Y-63058D01*
X83605Y-63255D02*
X83900Y-63550D01*
X87575Y-67500D02*
X82550Y-67500D01*
X82050Y-66600D02*
X82450Y-67000D01*
X83117Y-63255D02*
X83605Y-63255D01*
X82550Y-67500D02*
X82450Y-67400D01*
X83408Y-63058D02*
X83900Y-63550D01*
X82450Y-67000D02*
X82450Y-67400D01*
X89950Y-67125D02*
X89950Y-67000D01*
X88650Y-64600D02*
X88486Y-64436D01*
X89700Y-66100D02*
X88650Y-65050D01*
X89700Y-66750D02*
X89700Y-66100D01*
X88650Y-65050D02*
X88650Y-64600D01*
X89950Y-67000D02*
X89700Y-66750D01*
X88486Y-64436D02*
X87683Y-64436D01*
X90750Y-67150D02*
X90400Y-66800D01*
X88850Y-64550D02*
X88145Y-63845D01*
X88850Y-64550D02*
X88850Y-65000D01*
X88145Y-63845D02*
X87683Y-63845D01*
X89900Y-66050D02*
X88850Y-65000D01*
X90000Y-66800D02*
X89900Y-66700D01*
X90400Y-66800D02*
X90000Y-66800D01*
X89900Y-66700D02*
X89900Y-66050D01*
X84711Y-64989D02*
X84800Y-64900D01*
X89100Y-61650D02*
X89100Y-61450D01*
X84711Y-64989D02*
X84711Y-65833D01*
X93050Y-62850D02*
X92600Y-62400D01*
X95150Y-62250D02*
X94550Y-62850D01*
X89850Y-62400D02*
X89100Y-61650D01*
X94550Y-62850D02*
X93050Y-62850D01*
X92600Y-62400D02*
X89850Y-62400D01*
X89900Y-62200D02*
X89400Y-61700D01*
X84514Y-65833D02*
X84514Y-64964D01*
X84514Y-64964D02*
X84450Y-64900D01*
X92650Y-62200D02*
X93100Y-62650D01*
X89400Y-61700D02*
X89400Y-61250D01*
X94400Y-62250D02*
X94000Y-62650D01*
X93100Y-62650D02*
X94000Y-62650D01*
X84514Y-65833D02*
X84514Y-65314D01*
X89900Y-62200D02*
X92650Y-62200D01*
X84120Y-62220D02*
X84120Y-61267D01*
X89700Y-61750D02*
X89700Y-61000D01*
X84120Y-62220D02*
X84150Y-62250D01*
X92700Y-62000D02*
X89950Y-62000D01*
X92950Y-62250D02*
X92700Y-62000D01*
X89950Y-62000D02*
X89700Y-61750D01*
X93650Y-62250D02*
X92950Y-62250D01*
G54D27*
X100100Y-61000D02*
X100100Y-63519D01*
G54D28*
X87683Y-62270D02*
X88320Y-62270D01*
G54D27*
X96350Y-61550D02*
X96350Y-61500D01*
G54D28*
X84425Y-67875D02*
X83950Y-67875D01*
X87425Y-67875D02*
X86950Y-67875D01*
G54D27*
X100100Y-63519D02*
X100181Y-63600D01*
G54D28*
X88950Y-67875D02*
X88475Y-67875D01*
X87950Y-67875D02*
X87475Y-67875D01*
X89425Y-67875D02*
X89450Y-67850D01*
X89950Y-67875D02*
X89475Y-67875D01*
X82950Y-67875D02*
X82475Y-67875D01*
X83475Y-67875D02*
X83450Y-67850D01*
X86700Y-63150D02*
X86750Y-63200D01*
X86089Y-61267D02*
X86089Y-62211D01*
G54D27*
X96000Y-61900D02*
X96350Y-61550D01*
G54D28*
X85425Y-67875D02*
X84950Y-67875D01*
X82475Y-67875D02*
X82450Y-67850D01*
X84950Y-67875D02*
X84475Y-67875D01*
G54D27*
X100181Y-63600D02*
X100181Y-64769D01*
G54D28*
X83950Y-67875D02*
X83475Y-67875D01*
X85425Y-67875D02*
X85450Y-67850D01*
X85475Y-67875D02*
X85450Y-67850D01*
X86950Y-67875D02*
X86475Y-67875D01*
X83425Y-67875D02*
X82950Y-67875D01*
X87475Y-67875D02*
X87450Y-67850D01*
X88450Y-67850D02*
X88450Y-66950D01*
X88475Y-67875D02*
X88450Y-67850D01*
X86425Y-67875D02*
X85950Y-67875D01*
X87425Y-67875D02*
X87450Y-67850D01*
X82600Y-62400D02*
X82600Y-62650D01*
X88450Y-66950D02*
X88050Y-66550D01*
X89475Y-67875D02*
X89450Y-67850D01*
X84425Y-67875D02*
X84450Y-67850D01*
X86350Y-63600D02*
X85050Y-63600D01*
X87950Y-67875D02*
X88425Y-67875D01*
X85950Y-67875D02*
X85475Y-67875D01*
X80650Y-63050D02*
X81800Y-63050D01*
X83425Y-67875D02*
X83450Y-67850D01*
X90750Y-67850D02*
X90725Y-67875D01*
X82425Y-67875D02*
X81950Y-67875D01*
X88320Y-62270D02*
X88400Y-62350D01*
X82600Y-62650D02*
X82300Y-62950D01*
X89425Y-67875D02*
X88950Y-67875D01*
X84475Y-67875D02*
X84450Y-67850D01*
X92650Y-69700D02*
X95950Y-66400D01*
X85050Y-63600D02*
X84950Y-63500D01*
X82425Y-67875D02*
X82450Y-67850D01*
X95950Y-66400D02*
X98100Y-66400D01*
X88050Y-66550D02*
X88700Y-66550D01*
X82730Y-62270D02*
X82600Y-62400D01*
X81750Y-65100D02*
X82300Y-64550D01*
X87683Y-62270D02*
X87230Y-62270D01*
X82700Y-62200D02*
X82700Y-61700D01*
X82700Y-61700D02*
X82750Y-61650D01*
X83117Y-62270D02*
X82730Y-62270D01*
X81050Y-66975D02*
X81950Y-67875D01*
X88425Y-67875D02*
X88450Y-67850D01*
X81800Y-63050D02*
X81900Y-62950D01*
G54D27*
X100181Y-64769D02*
X99900Y-65050D01*
G54D28*
X87683Y-64239D02*
X86989Y-64239D01*
X87230Y-62270D02*
X86700Y-62800D01*
X86425Y-67875D02*
X86450Y-67850D01*
X82300Y-62950D02*
X81900Y-62950D01*
X81050Y-66600D02*
X81050Y-66975D01*
X90725Y-67875D02*
X89950Y-67875D01*
X86475Y-67875D02*
X86450Y-67850D01*
X86700Y-62800D02*
X86700Y-63150D01*
X86989Y-64239D02*
X86350Y-63600D01*
X82770Y-62270D02*
X83117Y-62270D01*
X81600Y-65250D02*
X81750Y-65100D01*
X81600Y-65300D02*
X81600Y-65250D01*
X82770Y-62270D02*
X82700Y-62200D01*
X86089Y-62211D02*
X85300Y-63000D01*
X98100Y-66400D02*
X98400Y-66100D01*
X83364Y-66314D02*
X82350Y-65300D01*
X84120Y-65833D02*
X84120Y-66230D01*
X84120Y-66230D02*
X84036Y-66314D01*
X82350Y-65300D02*
X82300Y-65300D01*
X84036Y-66314D02*
X83364Y-66314D01*
X82350Y-65300D02*
X82300Y-65300D01*
G54D27*
X96400Y-60800D02*
X97425Y-60800D01*
G54D28*
X84750Y-63000D02*
X84711Y-62961D01*
X84711Y-62961D02*
X84711Y-61267D01*
X87270Y-64830D02*
X87200Y-64900D01*
X87200Y-64900D02*
X87200Y-65150D01*
X87200Y-65150D02*
X87350Y-65300D01*
X87350Y-66550D02*
X87350Y-65300D01*
X87683Y-64830D02*
X87270Y-64830D01*
X94400Y-61550D02*
X93650Y-61550D01*
X94400Y-60800D02*
X94400Y-61550D01*
X92025Y-65150D02*
X90975Y-66200D01*
X90975Y-66200D02*
X90850Y-66200D01*
X89400Y-65150D02*
X90450Y-66200D01*
X90450Y-66200D02*
X90850Y-66200D01*
X95150Y-61550D02*
X95150Y-61050D01*
X95150Y-61050D02*
X95400Y-60800D01*
X91950Y-69050D02*
X91950Y-69150D01*
X86286Y-61267D02*
X86286Y-60814D01*
G54D27*
X99250Y-64300D02*
X98500Y-65050D01*
G54D28*
X86574Y-60526D02*
X89976Y-60526D01*
X86286Y-60814D02*
X86574Y-60526D01*
X81950Y-61250D02*
X82350Y-60850D01*
X83807Y-61150D02*
X82800Y-61150D01*
X89976Y-60526D02*
X90850Y-61400D01*
G54D27*
X90850Y-61400D02*
X91800Y-61400D01*
G54D28*
X83924Y-65833D02*
X83924Y-65076D01*
G54D27*
X91800Y-61400D02*
X91950Y-61550D01*
G54D28*
X87000Y-62750D02*
X87000Y-63350D01*
X87683Y-65026D02*
X88124Y-65026D01*
G54D27*
X98800Y-63250D02*
X99250Y-63700D01*
G54D28*
X82650Y-61150D02*
X82800Y-61150D01*
X85300Y-63350D02*
X86500Y-63350D01*
X80800Y-62050D02*
X81600Y-61250D01*
X87283Y-62467D02*
X87683Y-62467D01*
G54D27*
X98250Y-63250D02*
X98050Y-63050D01*
G54D28*
X82350Y-60850D02*
X82650Y-61150D01*
X80650Y-62050D02*
X80650Y-62300D01*
X86500Y-63350D02*
X86750Y-63600D01*
X87000Y-63350D02*
X86750Y-63600D01*
G54D27*
X98800Y-63250D02*
X98250Y-63250D01*
G54D28*
X87283Y-62467D02*
X87000Y-62750D01*
X86286Y-62364D02*
X85300Y-63350D01*
X86286Y-61267D02*
X86286Y-62364D01*
X80650Y-62050D02*
X80800Y-62050D01*
X83117Y-62074D02*
X83924Y-61267D01*
X88350Y-65000D02*
X88350Y-64800D01*
X84650Y-63250D02*
X85200Y-63250D01*
G54D27*
X98900Y-63250D02*
X98800Y-63250D01*
G54D28*
X88124Y-65026D02*
X88350Y-64800D01*
G54D27*
X99725Y-62425D02*
X98900Y-63250D01*
G54D28*
X89400Y-66050D02*
X88350Y-65000D01*
X80650Y-62300D02*
X80700Y-62350D01*
X83924Y-61267D02*
X83807Y-61150D01*
X83474Y-62074D02*
X84650Y-63250D01*
X83924Y-65076D02*
X84100Y-64900D01*
X85200Y-63250D02*
X85300Y-63350D01*
G54D27*
X98050Y-63050D02*
X97600Y-63050D01*
G54D28*
X89400Y-66550D02*
X89400Y-66050D01*
G54D27*
X99250Y-63700D02*
X99250Y-64300D01*
G54D28*
X81600Y-61250D02*
X81950Y-61250D01*
X83117Y-62074D02*
X83474Y-62074D01*
X81600Y-64550D02*
X81300Y-64550D01*
G54D27*
X99725Y-62100D02*
X99725Y-62425D01*
G54D10*
G36*
X81562Y-63347D02*
X81531Y-63379D01*
X81505Y-63441D01*
X81505Y-63509D01*
X81505Y-63859D01*
X81531Y-63921D01*
X81550Y-63940D01*
X81417Y-63940D01*
X81361Y-63803D01*
X81238Y-63680D01*
X81078Y-63613D01*
X80904Y-63613D01*
X80224Y-63613D01*
X80195Y-63624D01*
X80195Y-63567D01*
X80213Y-63575D01*
X80600Y-63575D01*
X80600Y-63150D01*
X80600Y-63100D01*
X80600Y-63000D01*
X80700Y-63000D01*
X80700Y-63100D01*
X80700Y-63150D01*
X80700Y-63575D01*
X81087Y-63575D01*
X81279Y-63492D01*
X81425Y-63342D01*
X81457Y-63250D01*
X81464Y-63266D01*
X81534Y-63336D01*
X81562Y-63347D01*
X81562Y-63347D01*
G37*
G54D29*
X81562Y-63347D02*
X81531Y-63379D01*
X81505Y-63441D01*
X81505Y-63509D01*
X81505Y-63859D01*
X81531Y-63921D01*
X81550Y-63940D01*
X81417Y-63940D01*
X81361Y-63803D01*
X81238Y-63680D01*
X81078Y-63613D01*
X80904Y-63613D01*
X80224Y-63613D01*
X80195Y-63624D01*
X80195Y-63567D01*
X80213Y-63575D01*
X80600Y-63575D01*
X80600Y-63150D01*
X80600Y-63100D01*
X80600Y-63000D01*
X80700Y-63000D01*
X80700Y-63100D01*
X80700Y-63150D01*
X80700Y-63575D01*
X81087Y-63575D01*
X81279Y-63492D01*
X81425Y-63342D01*
X81457Y-63250D01*
X81464Y-63266D01*
X81534Y-63336D01*
X81562Y-63347D01*
G54D10*
G36*
X81650Y-65350D02*
X81550Y-65350D01*
X81550Y-65250D01*
X81650Y-65250D01*
X81650Y-65350D01*
X81650Y-65350D01*
G37*
G54D29*
X81650Y-65350D02*
X81550Y-65350D01*
X81550Y-65250D01*
X81650Y-65250D01*
X81650Y-65350D01*
G54D10*
G36*
X81950Y-63000D02*
X81850Y-63000D01*
X81850Y-62900D01*
X81950Y-62900D01*
X81950Y-63000D01*
X81950Y-63000D01*
G37*
G54D29*
X81950Y-63000D02*
X81850Y-63000D01*
X81850Y-62900D01*
X81950Y-62900D01*
X81950Y-63000D01*
G54D10*
G36*
X82350Y-64600D02*
X82250Y-64600D01*
X82250Y-64500D01*
X82350Y-64500D01*
X82350Y-64600D01*
X82350Y-64600D01*
G37*
G54D29*
X82350Y-64600D02*
X82250Y-64600D01*
X82250Y-64500D01*
X82350Y-64500D01*
X82350Y-64600D01*
G54D10*
G36*
X82663Y-62565D02*
X82661Y-62571D01*
X82661Y-62639D01*
X82661Y-62651D01*
X82639Y-62651D01*
X82559Y-62667D01*
X82536Y-62682D01*
X82490Y-62713D01*
X82374Y-62828D01*
X82374Y-62726D01*
X82352Y-62673D01*
X82482Y-62586D01*
X82536Y-62532D01*
X82603Y-62431D01*
X82620Y-62470D01*
X82661Y-62511D01*
X82661Y-62560D01*
X82663Y-62565D01*
X82663Y-62565D01*
G37*
G54D29*
X82663Y-62565D02*
X82661Y-62571D01*
X82661Y-62639D01*
X82661Y-62651D01*
X82639Y-62651D01*
X82559Y-62667D01*
X82536Y-62682D01*
X82490Y-62713D01*
X82374Y-62828D01*
X82374Y-62726D01*
X82352Y-62673D01*
X82482Y-62586D01*
X82536Y-62532D01*
X82603Y-62431D01*
X82620Y-62470D01*
X82661Y-62511D01*
X82661Y-62560D01*
X82663Y-62565D01*
G54D10*
G36*
X83534Y-61360D02*
X83049Y-61845D01*
X82797Y-61845D01*
X82735Y-61871D01*
X82724Y-61881D01*
X82695Y-61732D01*
X82666Y-61661D01*
X82536Y-61468D01*
X82482Y-61414D01*
X82288Y-61284D01*
X82234Y-61261D01*
X82251Y-61245D01*
X82448Y-61245D01*
X82501Y-61298D01*
X82502Y-61298D01*
X82569Y-61344D01*
X82570Y-61344D01*
X82580Y-61346D01*
X82633Y-61399D01*
X82741Y-61444D01*
X82858Y-61444D01*
X82966Y-61399D01*
X83005Y-61360D01*
X83534Y-61360D01*
X83534Y-61360D01*
G37*
G54D29*
X83534Y-61360D02*
X83049Y-61845D01*
X82797Y-61845D01*
X82735Y-61871D01*
X82724Y-61881D01*
X82695Y-61732D01*
X82666Y-61661D01*
X82536Y-61468D01*
X82482Y-61414D01*
X82288Y-61284D01*
X82234Y-61261D01*
X82251Y-61245D01*
X82448Y-61245D01*
X82501Y-61298D01*
X82502Y-61298D01*
X82569Y-61344D01*
X82570Y-61344D01*
X82580Y-61346D01*
X82633Y-61399D01*
X82741Y-61444D01*
X82858Y-61444D01*
X82966Y-61399D01*
X83005Y-61360D01*
X83534Y-61360D01*
G54D10*
G36*
X85219Y-63635D02*
X84883Y-63635D01*
X84894Y-63609D01*
X84894Y-63492D01*
X84880Y-63460D01*
X85027Y-63460D01*
X85051Y-63516D01*
X85133Y-63599D01*
X85219Y-63635D01*
X85219Y-63635D01*
G37*
G54D29*
X85219Y-63635D02*
X84883Y-63635D01*
X84894Y-63609D01*
X84894Y-63492D01*
X84880Y-63460D01*
X85027Y-63460D01*
X85051Y-63516D01*
X85133Y-63599D01*
X85219Y-63635D01*
G54D10*
G36*
X86076Y-62277D02*
X85297Y-63056D01*
X85281Y-63056D01*
X85267Y-63053D01*
X85200Y-63040D01*
X85067Y-63040D01*
X85166Y-62999D01*
X85249Y-62917D01*
X85294Y-62809D01*
X85294Y-62752D01*
X85450Y-62597D01*
X85450Y-62596D01*
X85496Y-62529D01*
X85496Y-62528D01*
X85498Y-62515D01*
X85511Y-62448D01*
X85512Y-62448D01*
X85512Y-61723D01*
X85591Y-61723D01*
X85596Y-61720D01*
X85602Y-61723D01*
X85670Y-61723D01*
X85788Y-61723D01*
X85793Y-61720D01*
X85799Y-61723D01*
X85848Y-61723D01*
X85889Y-61764D01*
X85980Y-61802D01*
X85989Y-61802D01*
X85989Y-61803D01*
X86076Y-61803D01*
X86076Y-62277D01*
X86076Y-62277D01*
G37*
G54D29*
X86076Y-62277D02*
X85297Y-63056D01*
X85281Y-63056D01*
X85267Y-63053D01*
X85200Y-63040D01*
X85067Y-63040D01*
X85166Y-62999D01*
X85249Y-62917D01*
X85294Y-62809D01*
X85294Y-62752D01*
X85450Y-62597D01*
X85450Y-62596D01*
X85496Y-62529D01*
X85496Y-62528D01*
X85498Y-62515D01*
X85511Y-62448D01*
X85512Y-62448D01*
X85512Y-61723D01*
X85591Y-61723D01*
X85596Y-61720D01*
X85602Y-61723D01*
X85670Y-61723D01*
X85788Y-61723D01*
X85793Y-61720D01*
X85799Y-61723D01*
X85848Y-61723D01*
X85889Y-61764D01*
X85980Y-61802D01*
X85989Y-61802D01*
X85989Y-61803D01*
X86076Y-61803D01*
X86076Y-62277D01*
G54D10*
G36*
X86463Y-63677D02*
X86426Y-63651D01*
X86412Y-63648D01*
X86345Y-63635D01*
X85379Y-63635D01*
X85466Y-63599D01*
X85505Y-63560D01*
X86413Y-63560D01*
X86456Y-63602D01*
X86456Y-63658D01*
X86463Y-63677D01*
X86463Y-63677D01*
G37*
G54D29*
X86463Y-63677D02*
X86426Y-63651D01*
X86412Y-63648D01*
X86345Y-63635D01*
X85379Y-63635D01*
X85466Y-63599D01*
X85505Y-63560D01*
X86413Y-63560D01*
X86456Y-63602D01*
X86456Y-63658D01*
X86463Y-63677D01*
G54D10*
G36*
X87292Y-64242D02*
X87266Y-64268D01*
X87209Y-64268D01*
X87147Y-64330D01*
X87148Y-64347D01*
X87182Y-64429D01*
X87182Y-64430D01*
X87137Y-64439D01*
X87114Y-64454D01*
X87068Y-64485D01*
X86852Y-64702D01*
X86806Y-64769D01*
X86803Y-64782D01*
X86790Y-64850D01*
X86790Y-65200D01*
X86800Y-65253D01*
X86710Y-65163D01*
X86710Y-64000D01*
X86696Y-63932D01*
X86694Y-63920D01*
X86694Y-63919D01*
X86671Y-63885D01*
X86691Y-63894D01*
X86808Y-63894D01*
X86901Y-63855D01*
X86903Y-63867D01*
X86906Y-63881D01*
X86952Y-63948D01*
X87147Y-64144D01*
X87147Y-64148D01*
X87209Y-64210D01*
X87222Y-64210D01*
X87223Y-64210D01*
X87261Y-64236D01*
X87262Y-64236D01*
X87274Y-64238D01*
X87292Y-64242D01*
X87292Y-64242D01*
G37*
G54D29*
X87292Y-64242D02*
X87266Y-64268D01*
X87209Y-64268D01*
X87147Y-64330D01*
X87148Y-64347D01*
X87182Y-64429D01*
X87182Y-64430D01*
X87137Y-64439D01*
X87114Y-64454D01*
X87068Y-64485D01*
X86852Y-64702D01*
X86806Y-64769D01*
X86803Y-64782D01*
X86790Y-64850D01*
X86790Y-65200D01*
X86800Y-65253D01*
X86710Y-65163D01*
X86710Y-64000D01*
X86696Y-63932D01*
X86694Y-63920D01*
X86694Y-63919D01*
X86671Y-63885D01*
X86691Y-63894D01*
X86808Y-63894D01*
X86901Y-63855D01*
X86903Y-63867D01*
X86906Y-63881D01*
X86952Y-63948D01*
X87147Y-64144D01*
X87147Y-64148D01*
X87209Y-64210D01*
X87222Y-64210D01*
X87223Y-64210D01*
X87261Y-64236D01*
X87262Y-64236D01*
X87274Y-64238D01*
X87292Y-64242D01*
G54D10*
G36*
X88267Y-61864D02*
X88048Y-61864D01*
X88003Y-61845D01*
X87935Y-61845D01*
X87363Y-61845D01*
X87301Y-61871D01*
X87253Y-61919D01*
X87227Y-61981D01*
X87227Y-62029D01*
X87186Y-62070D01*
X87148Y-62162D01*
X87147Y-62179D01*
X87209Y-62241D01*
X87265Y-62241D01*
X87281Y-62257D01*
X87215Y-62270D01*
X87202Y-62273D01*
X87134Y-62319D01*
X86852Y-62602D01*
X86806Y-62669D01*
X86803Y-62682D01*
X86790Y-62750D01*
X86790Y-63263D01*
X86749Y-63303D01*
X86648Y-63202D01*
X86581Y-63156D01*
X86567Y-63153D01*
X86500Y-63140D01*
X85806Y-63140D01*
X86434Y-62513D01*
X86434Y-62512D01*
X86464Y-62467D01*
X86479Y-62445D01*
X86480Y-62444D01*
X86495Y-62364D01*
X86496Y-62364D01*
X86496Y-61723D01*
X86576Y-61723D01*
X86581Y-61720D01*
X86587Y-61723D01*
X86655Y-61723D01*
X86773Y-61723D01*
X86778Y-61720D01*
X86783Y-61723D01*
X86851Y-61723D01*
X86969Y-61723D01*
X87031Y-61697D01*
X87079Y-61649D01*
X87105Y-61587D01*
X87105Y-61519D01*
X87105Y-61477D01*
X87880Y-61477D01*
X88267Y-61864D01*
X88267Y-61864D01*
G37*
G54D29*
X88267Y-61864D02*
X88048Y-61864D01*
X88003Y-61845D01*
X87935Y-61845D01*
X87363Y-61845D01*
X87301Y-61871D01*
X87253Y-61919D01*
X87227Y-61981D01*
X87227Y-62029D01*
X87186Y-62070D01*
X87148Y-62162D01*
X87147Y-62179D01*
X87209Y-62241D01*
X87265Y-62241D01*
X87281Y-62257D01*
X87215Y-62270D01*
X87202Y-62273D01*
X87134Y-62319D01*
X86852Y-62602D01*
X86806Y-62669D01*
X86803Y-62682D01*
X86790Y-62750D01*
X86790Y-63263D01*
X86749Y-63303D01*
X86648Y-63202D01*
X86581Y-63156D01*
X86567Y-63153D01*
X86500Y-63140D01*
X85806Y-63140D01*
X86434Y-62513D01*
X86434Y-62512D01*
X86464Y-62467D01*
X86479Y-62445D01*
X86480Y-62444D01*
X86495Y-62364D01*
X86496Y-62364D01*
X86496Y-61723D01*
X86576Y-61723D01*
X86581Y-61720D01*
X86587Y-61723D01*
X86655Y-61723D01*
X86773Y-61723D01*
X86778Y-61720D01*
X86783Y-61723D01*
X86851Y-61723D01*
X86969Y-61723D01*
X87031Y-61697D01*
X87079Y-61649D01*
X87105Y-61587D01*
X87105Y-61519D01*
X87105Y-61477D01*
X87880Y-61477D01*
X88267Y-61864D01*
G54D10*
G36*
X89190Y-66155D02*
X89129Y-66181D01*
X89097Y-66212D01*
X89086Y-66184D01*
X89016Y-66114D01*
X88924Y-66076D01*
X88812Y-66075D01*
X88750Y-66137D01*
X88750Y-66450D01*
X88750Y-66500D01*
X88750Y-66600D01*
X88650Y-66600D01*
X88650Y-66500D01*
X88650Y-66137D01*
X88588Y-66075D01*
X88476Y-66076D01*
X88384Y-66114D01*
X88375Y-66123D01*
X88366Y-66114D01*
X88274Y-66076D01*
X88162Y-66075D01*
X88100Y-66137D01*
X88100Y-66500D01*
X88337Y-66500D01*
X88413Y-66500D01*
X88650Y-66500D01*
X88650Y-66600D01*
X88600Y-66600D01*
X88413Y-66600D01*
X88337Y-66600D01*
X88150Y-66600D01*
X88100Y-66600D01*
X88000Y-66600D01*
X88000Y-66500D01*
X88000Y-66450D01*
X88000Y-66137D01*
X87938Y-66075D01*
X87826Y-66076D01*
X87734Y-66114D01*
X87664Y-66184D01*
X87652Y-66212D01*
X87621Y-66181D01*
X87560Y-66155D01*
X87560Y-65300D01*
X87551Y-65255D01*
X88003Y-65255D01*
X88048Y-65236D01*
X88124Y-65236D01*
X88124Y-65235D01*
X88191Y-65222D01*
X88204Y-65220D01*
X88205Y-65220D01*
X88245Y-65191D01*
X89190Y-66136D01*
X89190Y-66155D01*
X89190Y-66155D01*
G37*
G54D29*
X89190Y-66155D02*
X89129Y-66181D01*
X89097Y-66212D01*
X89086Y-66184D01*
X89016Y-66114D01*
X88924Y-66076D01*
X88812Y-66075D01*
X88750Y-66137D01*
X88750Y-66450D01*
X88750Y-66500D01*
X88750Y-66600D01*
X88650Y-66600D01*
X88650Y-66500D01*
X88650Y-66137D01*
X88588Y-66075D01*
X88476Y-66076D01*
X88384Y-66114D01*
X88375Y-66123D01*
X88366Y-66114D01*
X88274Y-66076D01*
X88162Y-66075D01*
X88100Y-66137D01*
X88100Y-66500D01*
X88337Y-66500D01*
X88413Y-66500D01*
X88650Y-66500D01*
X88650Y-66600D01*
X88600Y-66600D01*
X88413Y-66600D01*
X88337Y-66600D01*
X88150Y-66600D01*
X88100Y-66600D01*
X88000Y-66600D01*
X88000Y-66500D01*
X88000Y-66450D01*
X88000Y-66137D01*
X87938Y-66075D01*
X87826Y-66076D01*
X87734Y-66114D01*
X87664Y-66184D01*
X87652Y-66212D01*
X87621Y-66181D01*
X87560Y-66155D01*
X87560Y-65300D01*
X87551Y-65255D01*
X88003Y-65255D01*
X88048Y-65236D01*
X88124Y-65236D01*
X88124Y-65235D01*
X88191Y-65222D01*
X88204Y-65220D01*
X88205Y-65220D01*
X88245Y-65191D01*
X89190Y-66136D01*
X89190Y-66155D01*
G54D10*
G36*
X89343Y-63190D02*
X89136Y-63190D01*
X88462Y-62516D01*
X88395Y-62470D01*
X88381Y-62467D01*
X88314Y-62454D01*
X88186Y-62454D01*
X88218Y-62378D01*
X88218Y-62370D01*
X88219Y-62370D01*
X88219Y-62361D01*
X88219Y-62284D01*
X88437Y-62284D01*
X89343Y-63190D01*
X89343Y-63190D01*
G37*
G54D29*
X89343Y-63190D02*
X89136Y-63190D01*
X88462Y-62516D01*
X88395Y-62470D01*
X88381Y-62467D01*
X88314Y-62454D01*
X88186Y-62454D01*
X88218Y-62378D01*
X88218Y-62370D01*
X88219Y-62370D01*
X88219Y-62361D01*
X88219Y-62284D01*
X88437Y-62284D01*
X89343Y-63190D01*
G54D10*
G36*
X90800Y-67900D02*
X90700Y-67900D01*
X90650Y-67900D01*
X90337Y-67900D01*
X90312Y-67925D01*
X90050Y-67925D01*
X90000Y-67925D01*
X89900Y-67925D01*
X89850Y-67925D01*
X89487Y-67925D01*
X89450Y-67962D01*
X89413Y-67925D01*
X89050Y-67925D01*
X89000Y-67925D01*
X88900Y-67925D01*
X88850Y-67925D01*
X88487Y-67925D01*
X88450Y-67962D01*
X88413Y-67925D01*
X88050Y-67925D01*
X88000Y-67925D01*
X87900Y-67925D01*
X87850Y-67925D01*
X87487Y-67925D01*
X87450Y-67962D01*
X87413Y-67925D01*
X87050Y-67925D01*
X87000Y-67925D01*
X86900Y-67925D01*
X86850Y-67925D01*
X86487Y-67925D01*
X86450Y-67962D01*
X86413Y-67925D01*
X86050Y-67925D01*
X86000Y-67925D01*
X85900Y-67925D01*
X85850Y-67925D01*
X85487Y-67925D01*
X85450Y-67962D01*
X85413Y-67925D01*
X85050Y-67925D01*
X85000Y-67925D01*
X84900Y-67925D01*
X84850Y-67925D01*
X84487Y-67925D01*
X84450Y-67962D01*
X84413Y-67925D01*
X84050Y-67925D01*
X84000Y-67925D01*
X83900Y-67925D01*
X83850Y-67925D01*
X83487Y-67925D01*
X83450Y-67962D01*
X83413Y-67925D01*
X83050Y-67925D01*
X83000Y-67925D01*
X82900Y-67925D01*
X82850Y-67925D01*
X82487Y-67925D01*
X82450Y-67962D01*
X82413Y-67925D01*
X82050Y-67925D01*
X82000Y-67925D01*
X81900Y-67925D01*
X81850Y-67925D01*
X81487Y-67925D01*
X81425Y-67987D01*
X81426Y-68099D01*
X81464Y-68191D01*
X81534Y-68261D01*
X81625Y-68299D01*
X81680Y-68299D01*
X81560Y-68419D01*
X81489Y-68589D01*
X81489Y-68692D01*
X81344Y-68547D01*
X81344Y-68492D01*
X81299Y-68384D01*
X81217Y-68301D01*
X81109Y-68256D01*
X80992Y-68256D01*
X80884Y-68301D01*
X80801Y-68383D01*
X80756Y-68491D01*
X80756Y-68608D01*
X80801Y-68716D01*
X80883Y-68799D01*
X80991Y-68844D01*
X81047Y-68844D01*
X81489Y-69285D01*
X81489Y-69805D01*
X80495Y-69805D01*
X80495Y-68400D01*
X80480Y-68325D01*
X80438Y-68262D01*
X80375Y-68220D01*
X80300Y-68205D01*
X80195Y-68205D01*
X80195Y-68195D01*
X80600Y-68195D01*
X80675Y-68180D01*
X80738Y-68138D01*
X80780Y-68075D01*
X80795Y-68000D01*
X80795Y-65800D01*
X80780Y-65725D01*
X80738Y-65662D01*
X80675Y-65620D01*
X80600Y-65605D01*
X80195Y-65605D01*
X80195Y-65475D01*
X80222Y-65487D01*
X80396Y-65487D01*
X80840Y-65487D01*
X81201Y-65848D01*
X81202Y-65848D01*
X81269Y-65894D01*
X81270Y-65894D01*
X81282Y-65896D01*
X81350Y-65910D01*
X82413Y-65910D01*
X82833Y-66330D01*
X82784Y-66351D01*
X82701Y-66433D01*
X82656Y-66541D01*
X82656Y-66658D01*
X82701Y-66766D01*
X82714Y-66780D01*
X82641Y-66780D01*
X82579Y-66806D01*
X82565Y-66819D01*
X82344Y-66597D01*
X82344Y-66542D01*
X82299Y-66434D01*
X82217Y-66351D01*
X82109Y-66306D01*
X81992Y-66306D01*
X81884Y-66351D01*
X81801Y-66433D01*
X81756Y-66541D01*
X81756Y-66658D01*
X81801Y-66766D01*
X81814Y-66780D01*
X81641Y-66780D01*
X81579Y-66806D01*
X81531Y-66854D01*
X81505Y-66916D01*
X81505Y-66984D01*
X81505Y-67334D01*
X81531Y-67396D01*
X81579Y-67444D01*
X81610Y-67457D01*
X81534Y-67489D01*
X81464Y-67559D01*
X81426Y-67651D01*
X81425Y-67763D01*
X81487Y-67825D01*
X81850Y-67825D01*
X81900Y-67825D01*
X82000Y-67825D01*
X82050Y-67825D01*
X82413Y-67825D01*
X82450Y-67788D01*
X82487Y-67825D01*
X82850Y-67825D01*
X82900Y-67825D01*
X83000Y-67825D01*
X83050Y-67825D01*
X83413Y-67825D01*
X83450Y-67788D01*
X83487Y-67825D01*
X83850Y-67825D01*
X83900Y-67825D01*
X84000Y-67825D01*
X84050Y-67825D01*
X84413Y-67825D01*
X84450Y-67788D01*
X84487Y-67825D01*
X84850Y-67825D01*
X84900Y-67825D01*
X85000Y-67825D01*
X85050Y-67825D01*
X85413Y-67825D01*
X85450Y-67788D01*
X85487Y-67825D01*
X85850Y-67825D01*
X85900Y-67825D01*
X86000Y-67825D01*
X86050Y-67825D01*
X86413Y-67825D01*
X86450Y-67788D01*
X86487Y-67825D01*
X86850Y-67825D01*
X86900Y-67825D01*
X87000Y-67825D01*
X87050Y-67825D01*
X87413Y-67825D01*
X87450Y-67788D01*
X87487Y-67825D01*
X87850Y-67825D01*
X87900Y-67825D01*
X88000Y-67825D01*
X88050Y-67825D01*
X88413Y-67825D01*
X88450Y-67788D01*
X88487Y-67825D01*
X88850Y-67825D01*
X88900Y-67825D01*
X89000Y-67825D01*
X89050Y-67825D01*
X89413Y-67825D01*
X89450Y-67788D01*
X89487Y-67825D01*
X89850Y-67825D01*
X89900Y-67825D01*
X90000Y-67825D01*
X90050Y-67825D01*
X90413Y-67825D01*
X90438Y-67800D01*
X90650Y-67800D01*
X90700Y-67800D01*
X90800Y-67800D01*
X90800Y-67900D01*
X90800Y-67900D01*
G37*
G54D29*
X90800Y-67900D02*
X90700Y-67900D01*
X90650Y-67900D01*
X90337Y-67900D01*
X90312Y-67925D01*
X90050Y-67925D01*
X90000Y-67925D01*
X89900Y-67925D01*
X89850Y-67925D01*
X89487Y-67925D01*
X89450Y-67962D01*
X89413Y-67925D01*
X89050Y-67925D01*
X89000Y-67925D01*
X88900Y-67925D01*
X88850Y-67925D01*
X88487Y-67925D01*
X88450Y-67962D01*
X88413Y-67925D01*
X88050Y-67925D01*
X88000Y-67925D01*
X87900Y-67925D01*
X87850Y-67925D01*
X87487Y-67925D01*
X87450Y-67962D01*
X87413Y-67925D01*
X87050Y-67925D01*
X87000Y-67925D01*
X86900Y-67925D01*
X86850Y-67925D01*
X86487Y-67925D01*
X86450Y-67962D01*
X86413Y-67925D01*
X86050Y-67925D01*
X86000Y-67925D01*
X85900Y-67925D01*
X85850Y-67925D01*
X85487Y-67925D01*
X85450Y-67962D01*
X85413Y-67925D01*
X85050Y-67925D01*
X85000Y-67925D01*
X84900Y-67925D01*
X84850Y-67925D01*
X84487Y-67925D01*
X84450Y-67962D01*
X84413Y-67925D01*
X84050Y-67925D01*
X84000Y-67925D01*
X83900Y-67925D01*
X83850Y-67925D01*
X83487Y-67925D01*
X83450Y-67962D01*
X83413Y-67925D01*
X83050Y-67925D01*
X83000Y-67925D01*
X82900Y-67925D01*
X82850Y-67925D01*
X82487Y-67925D01*
X82450Y-67962D01*
X82413Y-67925D01*
X82050Y-67925D01*
X82000Y-67925D01*
X81900Y-67925D01*
X81850Y-67925D01*
X81487Y-67925D01*
X81425Y-67987D01*
X81426Y-68099D01*
X81464Y-68191D01*
X81534Y-68261D01*
X81625Y-68299D01*
X81680Y-68299D01*
X81560Y-68419D01*
X81489Y-68589D01*
X81489Y-68692D01*
X81344Y-68547D01*
X81344Y-68492D01*
X81299Y-68384D01*
X81217Y-68301D01*
X81109Y-68256D01*
X80992Y-68256D01*
X80884Y-68301D01*
X80801Y-68383D01*
X80756Y-68491D01*
X80756Y-68608D01*
X80801Y-68716D01*
X80883Y-68799D01*
X80991Y-68844D01*
X81047Y-68844D01*
X81489Y-69285D01*
X81489Y-69805D01*
X80495Y-69805D01*
X80495Y-68400D01*
X80480Y-68325D01*
X80438Y-68262D01*
X80375Y-68220D01*
X80300Y-68205D01*
X80195Y-68205D01*
X80195Y-68195D01*
X80600Y-68195D01*
X80675Y-68180D01*
X80738Y-68138D01*
X80780Y-68075D01*
X80795Y-68000D01*
X80795Y-65800D01*
X80780Y-65725D01*
X80738Y-65662D01*
X80675Y-65620D01*
X80600Y-65605D01*
X80195Y-65605D01*
X80195Y-65475D01*
X80222Y-65487D01*
X80396Y-65487D01*
X80840Y-65487D01*
X81201Y-65848D01*
X81202Y-65848D01*
X81269Y-65894D01*
X81270Y-65894D01*
X81282Y-65896D01*
X81350Y-65910D01*
X82413Y-65910D01*
X82833Y-66330D01*
X82784Y-66351D01*
X82701Y-66433D01*
X82656Y-66541D01*
X82656Y-66658D01*
X82701Y-66766D01*
X82714Y-66780D01*
X82641Y-66780D01*
X82579Y-66806D01*
X82565Y-66819D01*
X82344Y-66597D01*
X82344Y-66542D01*
X82299Y-66434D01*
X82217Y-66351D01*
X82109Y-66306D01*
X81992Y-66306D01*
X81884Y-66351D01*
X81801Y-66433D01*
X81756Y-66541D01*
X81756Y-66658D01*
X81801Y-66766D01*
X81814Y-66780D01*
X81641Y-66780D01*
X81579Y-66806D01*
X81531Y-66854D01*
X81505Y-66916D01*
X81505Y-66984D01*
X81505Y-67334D01*
X81531Y-67396D01*
X81579Y-67444D01*
X81610Y-67457D01*
X81534Y-67489D01*
X81464Y-67559D01*
X81426Y-67651D01*
X81425Y-67763D01*
X81487Y-67825D01*
X81850Y-67825D01*
X81900Y-67825D01*
X82000Y-67825D01*
X82050Y-67825D01*
X82413Y-67825D01*
X82450Y-67788D01*
X82487Y-67825D01*
X82850Y-67825D01*
X82900Y-67825D01*
X83000Y-67825D01*
X83050Y-67825D01*
X83413Y-67825D01*
X83450Y-67788D01*
X83487Y-67825D01*
X83850Y-67825D01*
X83900Y-67825D01*
X84000Y-67825D01*
X84050Y-67825D01*
X84413Y-67825D01*
X84450Y-67788D01*
X84487Y-67825D01*
X84850Y-67825D01*
X84900Y-67825D01*
X85000Y-67825D01*
X85050Y-67825D01*
X85413Y-67825D01*
X85450Y-67788D01*
X85487Y-67825D01*
X85850Y-67825D01*
X85900Y-67825D01*
X86000Y-67825D01*
X86050Y-67825D01*
X86413Y-67825D01*
X86450Y-67788D01*
X86487Y-67825D01*
X86850Y-67825D01*
X86900Y-67825D01*
X87000Y-67825D01*
X87050Y-67825D01*
X87413Y-67825D01*
X87450Y-67788D01*
X87487Y-67825D01*
X87850Y-67825D01*
X87900Y-67825D01*
X88000Y-67825D01*
X88050Y-67825D01*
X88413Y-67825D01*
X88450Y-67788D01*
X88487Y-67825D01*
X88850Y-67825D01*
X88900Y-67825D01*
X89000Y-67825D01*
X89050Y-67825D01*
X89413Y-67825D01*
X89450Y-67788D01*
X89487Y-67825D01*
X89850Y-67825D01*
X89900Y-67825D01*
X90000Y-67825D01*
X90050Y-67825D01*
X90413Y-67825D01*
X90438Y-67800D01*
X90650Y-67800D01*
X90700Y-67800D01*
X90800Y-67800D01*
X90800Y-67900D01*
G54D10*
G36*
X100605Y-68205D02*
X100500Y-68205D01*
X100425Y-68220D01*
X100362Y-68262D01*
X100320Y-68325D01*
X100305Y-68400D01*
X100305Y-69805D01*
X99850Y-69805D01*
X99850Y-65788D01*
X99850Y-65100D01*
X99362Y-65100D01*
X99300Y-65162D01*
X99301Y-65551D01*
X99301Y-65650D01*
X99339Y-65741D01*
X99409Y-65811D01*
X99501Y-65849D01*
X99788Y-65850D01*
X99850Y-65788D01*
X99850Y-69805D01*
X98649Y-69805D01*
X98649Y-68980D01*
X98638Y-68904D01*
X98611Y-68829D01*
X98571Y-68763D01*
X98518Y-68704D01*
X98517Y-68702D01*
X98472Y-68670D01*
X98457Y-68658D01*
X98456Y-68657D01*
X98455Y-68657D01*
X98384Y-68624D01*
X98382Y-68623D01*
X98346Y-68614D01*
X98310Y-68605D01*
X98230Y-68601D01*
X98154Y-68612D01*
X98079Y-68639D01*
X98013Y-68679D01*
X97954Y-68731D01*
X97952Y-68733D01*
X97920Y-68777D01*
X97908Y-68793D01*
X97907Y-68793D01*
X97907Y-68795D01*
X97873Y-68868D01*
X97864Y-68904D01*
X97855Y-68940D01*
X97851Y-69020D01*
X97862Y-69096D01*
X97862Y-69097D01*
X97889Y-69171D01*
X97928Y-69236D01*
X97982Y-69296D01*
X97983Y-69297D01*
X98003Y-69312D01*
X98043Y-69342D01*
X98045Y-69343D01*
X98116Y-69376D01*
X98117Y-69377D01*
X98172Y-69390D01*
X98190Y-69395D01*
X98191Y-69395D01*
X98270Y-69399D01*
X98345Y-69388D01*
X98346Y-69388D01*
X98347Y-69387D01*
X98421Y-69361D01*
X98486Y-69322D01*
X98546Y-69268D01*
X98546Y-69267D01*
X98547Y-69267D01*
X98562Y-69246D01*
X98592Y-69207D01*
X98592Y-69206D01*
X98593Y-69205D01*
X98626Y-69134D01*
X98627Y-69133D01*
X98640Y-69078D01*
X98645Y-69060D01*
X98645Y-69059D01*
X98649Y-68980D01*
X98649Y-69805D01*
X97694Y-69805D01*
X97694Y-65909D01*
X97694Y-65792D01*
X97649Y-65684D01*
X97567Y-65601D01*
X97459Y-65556D01*
X97344Y-65556D01*
X97344Y-65442D01*
X97299Y-65334D01*
X97217Y-65251D01*
X97109Y-65206D01*
X97052Y-65206D01*
X96948Y-65102D01*
X96881Y-65056D01*
X96867Y-65053D01*
X96800Y-65040D01*
X92944Y-65040D01*
X92944Y-65017D01*
X92899Y-64909D01*
X92817Y-64826D01*
X92709Y-64781D01*
X92592Y-64781D01*
X92484Y-64826D01*
X92401Y-64908D01*
X92356Y-65016D01*
X92356Y-65133D01*
X92401Y-65241D01*
X92471Y-65312D01*
X92401Y-65383D01*
X92356Y-65491D01*
X92356Y-65608D01*
X92401Y-65716D01*
X92483Y-65799D01*
X92591Y-65844D01*
X92708Y-65844D01*
X92816Y-65799D01*
X92899Y-65717D01*
X92901Y-65710D01*
X92943Y-65710D01*
X92647Y-66006D01*
X92592Y-66006D01*
X92484Y-66051D01*
X92401Y-66133D01*
X92356Y-66241D01*
X92356Y-66358D01*
X92401Y-66466D01*
X92483Y-66549D01*
X92591Y-66594D01*
X92708Y-66594D01*
X92816Y-66549D01*
X92899Y-66467D01*
X92944Y-66359D01*
X92944Y-66302D01*
X93286Y-65960D01*
X93443Y-65960D01*
X92647Y-66756D01*
X92592Y-66756D01*
X92484Y-66801D01*
X92401Y-66883D01*
X92356Y-66991D01*
X92356Y-67108D01*
X92401Y-67216D01*
X92483Y-67299D01*
X92591Y-67344D01*
X92708Y-67344D01*
X92816Y-67299D01*
X92899Y-67217D01*
X92944Y-67109D01*
X92944Y-67052D01*
X93786Y-66210D01*
X93993Y-66210D01*
X92647Y-67556D01*
X92592Y-67556D01*
X92484Y-67601D01*
X92401Y-67683D01*
X92356Y-67791D01*
X92356Y-67908D01*
X92401Y-68016D01*
X92483Y-68099D01*
X92591Y-68144D01*
X92708Y-68144D01*
X92796Y-68106D01*
X92647Y-68256D01*
X92592Y-68256D01*
X92484Y-68301D01*
X92401Y-68383D01*
X92356Y-68491D01*
X92356Y-68608D01*
X92401Y-68716D01*
X92483Y-68799D01*
X92591Y-68844D01*
X92708Y-68844D01*
X92816Y-68799D01*
X92899Y-68717D01*
X92944Y-68609D01*
X92944Y-68552D01*
X94728Y-66768D01*
X94791Y-66794D01*
X94908Y-66794D01*
X95016Y-66749D01*
X95099Y-66667D01*
X95144Y-66559D01*
X95144Y-66503D01*
X95241Y-66544D01*
X95358Y-66544D01*
X95466Y-66499D01*
X95549Y-66417D01*
X95594Y-66309D01*
X95594Y-66210D01*
X97250Y-66210D01*
X97250Y-66209D01*
X97317Y-66196D01*
X97330Y-66194D01*
X97331Y-66194D01*
X97398Y-66148D01*
X97402Y-66144D01*
X97458Y-66144D01*
X97566Y-66099D01*
X97649Y-66017D01*
X97694Y-65909D01*
X97694Y-69805D01*
X95499Y-69805D01*
X95499Y-68980D01*
X95488Y-68904D01*
X95461Y-68829D01*
X95421Y-68763D01*
X95368Y-68704D01*
X95367Y-68702D01*
X95322Y-68670D01*
X95307Y-68658D01*
X95306Y-68657D01*
X95305Y-68657D01*
X95234Y-68624D01*
X95232Y-68623D01*
X95196Y-68614D01*
X95160Y-68605D01*
X95080Y-68601D01*
X95004Y-68612D01*
X94929Y-68639D01*
X94863Y-68679D01*
X94804Y-68731D01*
X94802Y-68733D01*
X94770Y-68777D01*
X94758Y-68793D01*
X94757Y-68793D01*
X94757Y-68795D01*
X94723Y-68868D01*
X94714Y-68904D01*
X94705Y-68940D01*
X94701Y-69020D01*
X94712Y-69096D01*
X94712Y-69097D01*
X94739Y-69171D01*
X94778Y-69236D01*
X94832Y-69296D01*
X94833Y-69297D01*
X94853Y-69312D01*
X94893Y-69342D01*
X94895Y-69343D01*
X94966Y-69376D01*
X94967Y-69377D01*
X95022Y-69390D01*
X95040Y-69395D01*
X95041Y-69395D01*
X95120Y-69399D01*
X95195Y-69388D01*
X95196Y-69388D01*
X95197Y-69387D01*
X95271Y-69361D01*
X95336Y-69322D01*
X95396Y-69268D01*
X95396Y-69267D01*
X95397Y-69267D01*
X95412Y-69246D01*
X95442Y-69207D01*
X95442Y-69206D01*
X95443Y-69205D01*
X95476Y-69134D01*
X95477Y-69133D01*
X95490Y-69078D01*
X95495Y-69060D01*
X95495Y-69059D01*
X95499Y-68980D01*
X95499Y-69805D01*
X91411Y-69805D01*
X91411Y-69628D01*
X91411Y-69035D01*
X91663Y-68783D01*
X91691Y-68795D01*
X91759Y-68795D01*
X91798Y-68795D01*
X91784Y-68801D01*
X91779Y-68805D01*
X91691Y-68805D01*
X91629Y-68831D01*
X91581Y-68879D01*
X91555Y-68941D01*
X91555Y-69009D01*
X91555Y-69359D01*
X91581Y-69421D01*
X91629Y-69469D01*
X91691Y-69495D01*
X91759Y-69495D01*
X92209Y-69495D01*
X92271Y-69469D01*
X92319Y-69421D01*
X92345Y-69359D01*
X92345Y-69291D01*
X92345Y-68941D01*
X92319Y-68879D01*
X92271Y-68831D01*
X92209Y-68805D01*
X92141Y-68805D01*
X92120Y-68805D01*
X92117Y-68801D01*
X92102Y-68795D01*
X92209Y-68795D01*
X92271Y-68769D01*
X92319Y-68721D01*
X92345Y-68659D01*
X92345Y-68591D01*
X92345Y-68241D01*
X92319Y-68179D01*
X92271Y-68131D01*
X92209Y-68105D01*
X92160Y-68105D01*
X92160Y-65786D01*
X92191Y-65774D01*
X92274Y-65692D01*
X92319Y-65584D01*
X92319Y-65467D01*
X92274Y-65359D01*
X92253Y-65337D01*
X92274Y-65317D01*
X92319Y-65209D01*
X92319Y-65092D01*
X92274Y-64984D01*
X92192Y-64901D01*
X92084Y-64856D01*
X91967Y-64856D01*
X91859Y-64901D01*
X91776Y-64983D01*
X91731Y-65091D01*
X91731Y-65147D01*
X91241Y-65637D01*
X90183Y-65637D01*
X89694Y-65147D01*
X89694Y-65092D01*
X89649Y-64984D01*
X89567Y-64901D01*
X89459Y-64856D01*
X89342Y-64856D01*
X89234Y-64901D01*
X89151Y-64983D01*
X89144Y-64998D01*
X89060Y-64913D01*
X89060Y-64610D01*
X97100Y-64610D01*
X97100Y-64609D01*
X97167Y-64596D01*
X97180Y-64594D01*
X97181Y-64594D01*
X97248Y-64548D01*
X97690Y-64105D01*
X97727Y-64121D01*
X97910Y-64121D01*
X98079Y-64051D01*
X98209Y-63922D01*
X98255Y-63810D01*
X98363Y-63810D01*
X98405Y-63851D01*
X98405Y-64159D01*
X98431Y-64221D01*
X98479Y-64269D01*
X98541Y-64295D01*
X98609Y-64295D01*
X98873Y-64295D01*
X98838Y-64330D01*
X98816Y-64330D01*
X98116Y-64330D01*
X98054Y-64356D01*
X98006Y-64404D01*
X97980Y-64466D01*
X97980Y-64534D01*
X97980Y-65634D01*
X98006Y-65696D01*
X98054Y-65744D01*
X98116Y-65770D01*
X98184Y-65770D01*
X98884Y-65770D01*
X98946Y-65744D01*
X98994Y-65696D01*
X99020Y-65634D01*
X99020Y-65566D01*
X99020Y-64911D01*
X99300Y-64630D01*
X99300Y-64938D01*
X99362Y-65000D01*
X99850Y-65000D01*
X99850Y-64312D01*
X99788Y-64250D01*
X99520Y-64250D01*
X99520Y-63700D01*
X99499Y-63597D01*
X99499Y-63596D01*
X99441Y-63509D01*
X99231Y-63299D01*
X99913Y-62617D01*
X99915Y-62616D01*
X99916Y-62616D01*
X99973Y-62529D01*
X99974Y-62528D01*
X99990Y-62447D01*
X99995Y-62426D01*
X99994Y-62425D01*
X99995Y-62425D01*
X99995Y-62334D01*
X99995Y-62266D01*
X99995Y-62100D01*
X99995Y-61866D01*
X99969Y-61804D01*
X99921Y-61756D01*
X99859Y-61730D01*
X99791Y-61730D01*
X99594Y-61730D01*
X99566Y-61661D01*
X99436Y-61468D01*
X99382Y-61414D01*
X99188Y-61284D01*
X99118Y-61255D01*
X98888Y-61209D01*
X98812Y-61209D01*
X98811Y-61209D01*
X98582Y-61255D01*
X98511Y-61284D01*
X98318Y-61414D01*
X98264Y-61468D01*
X98134Y-61662D01*
X98105Y-61732D01*
X98059Y-61962D01*
X98059Y-62038D01*
X98105Y-62268D01*
X98134Y-62338D01*
X98264Y-62532D01*
X98318Y-62586D01*
X98511Y-62716D01*
X98582Y-62745D01*
X98811Y-62791D01*
X98812Y-62791D01*
X98888Y-62791D01*
X98999Y-62768D01*
X98863Y-62905D01*
X98541Y-62905D01*
X98479Y-62931D01*
X98431Y-62979D01*
X98430Y-62980D01*
X98362Y-62980D01*
X98241Y-62859D01*
X98153Y-62801D01*
X98050Y-62780D01*
X97716Y-62780D01*
X97659Y-62756D01*
X97542Y-62756D01*
X97434Y-62801D01*
X97351Y-62883D01*
X97306Y-62991D01*
X97306Y-63108D01*
X97351Y-63216D01*
X97424Y-63289D01*
X97358Y-63448D01*
X97358Y-63631D01*
X97358Y-63751D01*
X97385Y-63817D01*
X97284Y-63919D01*
X97217Y-63851D01*
X97109Y-63806D01*
X97052Y-63806D01*
X96600Y-63354D01*
X96600Y-62012D01*
X96538Y-61950D01*
X96050Y-61950D01*
X96050Y-62638D01*
X96112Y-62700D01*
X96399Y-62699D01*
X96491Y-62661D01*
X96561Y-62591D01*
X96599Y-62500D01*
X96599Y-62401D01*
X96600Y-62012D01*
X96600Y-63354D01*
X96148Y-62902D01*
X96081Y-62856D01*
X96067Y-62853D01*
X96000Y-62840D01*
X94856Y-62840D01*
X95101Y-62595D01*
X95409Y-62595D01*
X95435Y-62583D01*
X95439Y-62591D01*
X95509Y-62661D01*
X95601Y-62699D01*
X95888Y-62700D01*
X95950Y-62638D01*
X95950Y-61950D01*
X95490Y-61950D01*
X95471Y-61931D01*
X95409Y-61905D01*
X95341Y-61905D01*
X94891Y-61905D01*
X94829Y-61931D01*
X94781Y-61979D01*
X94775Y-61993D01*
X94769Y-61979D01*
X94721Y-61931D01*
X94659Y-61905D01*
X94591Y-61905D01*
X94141Y-61905D01*
X94079Y-61931D01*
X94031Y-61979D01*
X94025Y-61993D01*
X94019Y-61979D01*
X93971Y-61931D01*
X93909Y-61905D01*
X93841Y-61905D01*
X93391Y-61905D01*
X93329Y-61931D01*
X93281Y-61979D01*
X93255Y-62040D01*
X93036Y-62040D01*
X92848Y-61852D01*
X92781Y-61806D01*
X92767Y-61803D01*
X92700Y-61790D01*
X92125Y-61790D01*
X92199Y-61717D01*
X92244Y-61609D01*
X92244Y-61492D01*
X92199Y-61384D01*
X92164Y-61349D01*
X92288Y-61350D01*
X92350Y-61288D01*
X92350Y-60850D01*
X91912Y-60850D01*
X91850Y-60912D01*
X91851Y-61051D01*
X91851Y-61140D01*
X91807Y-61131D01*
X91807Y-60973D01*
X91781Y-60911D01*
X91733Y-60863D01*
X91671Y-60837D01*
X91603Y-60837D01*
X90583Y-60837D01*
X90241Y-60495D01*
X91851Y-60495D01*
X91851Y-60549D01*
X91850Y-60688D01*
X91912Y-60750D01*
X92300Y-60750D01*
X92350Y-60750D01*
X92450Y-60750D01*
X92450Y-60850D01*
X92450Y-60900D01*
X92450Y-61288D01*
X92512Y-61350D01*
X92749Y-61349D01*
X92841Y-61311D01*
X92911Y-61241D01*
X92949Y-61150D01*
X92949Y-61087D01*
X93022Y-61108D01*
X93294Y-60835D01*
X93329Y-60800D01*
X93400Y-60729D01*
X93471Y-60800D01*
X93506Y-60835D01*
X93778Y-61108D01*
X93872Y-61081D01*
X93934Y-60903D01*
X94001Y-61066D01*
X94133Y-61198D01*
X94149Y-61205D01*
X94141Y-61205D01*
X94079Y-61231D01*
X94031Y-61279D01*
X94025Y-61293D01*
X94019Y-61279D01*
X93971Y-61231D01*
X93909Y-61205D01*
X93841Y-61205D01*
X93700Y-61205D01*
X93708Y-61178D01*
X93400Y-60871D01*
X93092Y-61178D01*
X93119Y-61272D01*
X93262Y-61322D01*
X93255Y-61341D01*
X93255Y-61409D01*
X93255Y-61759D01*
X93281Y-61821D01*
X93329Y-61869D01*
X93391Y-61895D01*
X93459Y-61895D01*
X93909Y-61895D01*
X93971Y-61869D01*
X94019Y-61821D01*
X94025Y-61806D01*
X94031Y-61821D01*
X94079Y-61869D01*
X94141Y-61895D01*
X94209Y-61895D01*
X94659Y-61895D01*
X94721Y-61869D01*
X94769Y-61821D01*
X94775Y-61806D01*
X94781Y-61821D01*
X94829Y-61869D01*
X94891Y-61895D01*
X94959Y-61895D01*
X95409Y-61895D01*
X95471Y-61869D01*
X95490Y-61850D01*
X95950Y-61850D01*
X95950Y-61162D01*
X95888Y-61100D01*
X95764Y-61100D01*
X95798Y-61067D01*
X95870Y-60894D01*
X95870Y-60707D01*
X95799Y-60534D01*
X95760Y-60495D01*
X96040Y-60495D01*
X96002Y-60533D01*
X95930Y-60706D01*
X95930Y-60893D01*
X96001Y-61066D01*
X96073Y-61138D01*
X96050Y-61162D01*
X96050Y-61850D01*
X96538Y-61850D01*
X96600Y-61788D01*
X96599Y-61399D01*
X96599Y-61300D01*
X96572Y-61237D01*
X96666Y-61199D01*
X96795Y-61070D01*
X97030Y-61070D01*
X97030Y-61109D01*
X97056Y-61171D01*
X97065Y-61180D01*
X97016Y-61180D01*
X96954Y-61206D01*
X96906Y-61254D01*
X96880Y-61316D01*
X96880Y-61384D01*
X96880Y-62484D01*
X96906Y-62546D01*
X96954Y-62594D01*
X97016Y-62620D01*
X97084Y-62620D01*
X97784Y-62620D01*
X97846Y-62594D01*
X97894Y-62546D01*
X97920Y-62484D01*
X97920Y-62416D01*
X97920Y-61537D01*
X98212Y-61245D01*
X98534Y-61245D01*
X98596Y-61219D01*
X98644Y-61171D01*
X98670Y-61109D01*
X98670Y-61070D01*
X99413Y-61070D01*
X99455Y-61112D01*
X99455Y-61234D01*
X99481Y-61296D01*
X99529Y-61344D01*
X99591Y-61370D01*
X99659Y-61370D01*
X99818Y-61370D01*
X99859Y-61411D01*
X99951Y-61449D01*
X99988Y-61450D01*
X100050Y-61388D01*
X100050Y-61100D01*
X100050Y-61050D01*
X100050Y-60950D01*
X100150Y-60950D01*
X100150Y-61050D01*
X100150Y-61100D01*
X100150Y-61388D01*
X100212Y-61450D01*
X100249Y-61449D01*
X100341Y-61411D01*
X100382Y-61370D01*
X100409Y-61370D01*
X100605Y-61370D01*
X100605Y-61730D01*
X100541Y-61730D01*
X100341Y-61730D01*
X100279Y-61756D01*
X100231Y-61804D01*
X100205Y-61866D01*
X100205Y-61934D01*
X100205Y-62334D01*
X100231Y-62396D01*
X100279Y-62444D01*
X100341Y-62470D01*
X100409Y-62470D01*
X100605Y-62470D01*
X100605Y-63214D01*
X100504Y-63105D01*
X100316Y-63018D01*
X100231Y-63065D01*
X100231Y-63500D01*
X100231Y-63550D01*
X100231Y-63650D01*
X100231Y-63700D01*
X100231Y-64135D01*
X100316Y-64182D01*
X100504Y-64095D01*
X100605Y-63985D01*
X100605Y-65605D01*
X100499Y-65605D01*
X100499Y-65551D01*
X100500Y-65162D01*
X100500Y-64938D01*
X100499Y-64549D01*
X100499Y-64450D01*
X100461Y-64359D01*
X100391Y-64289D01*
X100299Y-64251D01*
X100131Y-64250D01*
X100131Y-64135D01*
X100131Y-63650D01*
X100131Y-63550D01*
X100131Y-63065D01*
X100046Y-63018D01*
X99858Y-63105D01*
X99712Y-63263D01*
X99638Y-63464D01*
X99693Y-63550D01*
X100131Y-63550D01*
X100131Y-63650D01*
X99693Y-63650D01*
X99638Y-63736D01*
X99712Y-63937D01*
X99858Y-64095D01*
X100046Y-64182D01*
X100131Y-64135D01*
X100131Y-64250D01*
X100012Y-64250D01*
X99950Y-64312D01*
X99950Y-65000D01*
X100438Y-65000D01*
X100500Y-64938D01*
X100500Y-65162D01*
X100438Y-65100D01*
X99950Y-65100D01*
X99950Y-65788D01*
X100005Y-65843D01*
X100005Y-68000D01*
X100020Y-68075D01*
X100062Y-68138D01*
X100125Y-68180D01*
X100200Y-68195D01*
X100605Y-68195D01*
X100605Y-68205D01*
X100605Y-68205D01*
G37*
G54D29*
X100605Y-68205D02*
X100500Y-68205D01*
X100425Y-68220D01*
X100362Y-68262D01*
X100320Y-68325D01*
X100305Y-68400D01*
X100305Y-69805D01*
X99850Y-69805D01*
X99850Y-65788D01*
X99850Y-65100D01*
X99362Y-65100D01*
X99300Y-65162D01*
X99301Y-65551D01*
X99301Y-65650D01*
X99339Y-65741D01*
X99409Y-65811D01*
X99501Y-65849D01*
X99788Y-65850D01*
X99850Y-65788D01*
X99850Y-69805D01*
X98649Y-69805D01*
X98649Y-68980D01*
X98638Y-68904D01*
X98611Y-68829D01*
X98571Y-68763D01*
X98518Y-68704D01*
X98517Y-68702D01*
X98472Y-68670D01*
X98457Y-68658D01*
X98456Y-68657D01*
X98455Y-68657D01*
X98384Y-68624D01*
X98382Y-68623D01*
X98346Y-68614D01*
X98310Y-68605D01*
X98230Y-68601D01*
X98154Y-68612D01*
X98079Y-68639D01*
X98013Y-68679D01*
X97954Y-68731D01*
X97952Y-68733D01*
X97920Y-68777D01*
X97908Y-68793D01*
X97907Y-68793D01*
X97907Y-68795D01*
X97873Y-68868D01*
X97864Y-68904D01*
X97855Y-68940D01*
X97851Y-69020D01*
X97862Y-69096D01*
X97862Y-69097D01*
X97889Y-69171D01*
X97928Y-69236D01*
X97982Y-69296D01*
X97983Y-69297D01*
X98003Y-69312D01*
X98043Y-69342D01*
X98045Y-69343D01*
X98116Y-69376D01*
X98117Y-69377D01*
X98172Y-69390D01*
X98190Y-69395D01*
X98191Y-69395D01*
X98270Y-69399D01*
X98345Y-69388D01*
X98346Y-69388D01*
X98347Y-69387D01*
X98421Y-69361D01*
X98486Y-69322D01*
X98546Y-69268D01*
X98546Y-69267D01*
X98547Y-69267D01*
X98562Y-69246D01*
X98592Y-69207D01*
X98592Y-69206D01*
X98593Y-69205D01*
X98626Y-69134D01*
X98627Y-69133D01*
X98640Y-69078D01*
X98645Y-69060D01*
X98645Y-69059D01*
X98649Y-68980D01*
X98649Y-69805D01*
X97694Y-69805D01*
X97694Y-65909D01*
X97694Y-65792D01*
X97649Y-65684D01*
X97567Y-65601D01*
X97459Y-65556D01*
X97344Y-65556D01*
X97344Y-65442D01*
X97299Y-65334D01*
X97217Y-65251D01*
X97109Y-65206D01*
X97052Y-65206D01*
X96948Y-65102D01*
X96881Y-65056D01*
X96867Y-65053D01*
X96800Y-65040D01*
X92944Y-65040D01*
X92944Y-65017D01*
X92899Y-64909D01*
X92817Y-64826D01*
X92709Y-64781D01*
X92592Y-64781D01*
X92484Y-64826D01*
X92401Y-64908D01*
X92356Y-65016D01*
X92356Y-65133D01*
X92401Y-65241D01*
X92471Y-65312D01*
X92401Y-65383D01*
X92356Y-65491D01*
X92356Y-65608D01*
X92401Y-65716D01*
X92483Y-65799D01*
X92591Y-65844D01*
X92708Y-65844D01*
X92816Y-65799D01*
X92899Y-65717D01*
X92901Y-65710D01*
X92943Y-65710D01*
X92647Y-66006D01*
X92592Y-66006D01*
X92484Y-66051D01*
X92401Y-66133D01*
X92356Y-66241D01*
X92356Y-66358D01*
X92401Y-66466D01*
X92483Y-66549D01*
X92591Y-66594D01*
X92708Y-66594D01*
X92816Y-66549D01*
X92899Y-66467D01*
X92944Y-66359D01*
X92944Y-66302D01*
X93286Y-65960D01*
X93443Y-65960D01*
X92647Y-66756D01*
X92592Y-66756D01*
X92484Y-66801D01*
X92401Y-66883D01*
X92356Y-66991D01*
X92356Y-67108D01*
X92401Y-67216D01*
X92483Y-67299D01*
X92591Y-67344D01*
X92708Y-67344D01*
X92816Y-67299D01*
X92899Y-67217D01*
X92944Y-67109D01*
X92944Y-67052D01*
X93786Y-66210D01*
X93993Y-66210D01*
X92647Y-67556D01*
X92592Y-67556D01*
X92484Y-67601D01*
X92401Y-67683D01*
X92356Y-67791D01*
X92356Y-67908D01*
X92401Y-68016D01*
X92483Y-68099D01*
X92591Y-68144D01*
X92708Y-68144D01*
X92796Y-68106D01*
X92647Y-68256D01*
X92592Y-68256D01*
X92484Y-68301D01*
X92401Y-68383D01*
X92356Y-68491D01*
X92356Y-68608D01*
X92401Y-68716D01*
X92483Y-68799D01*
X92591Y-68844D01*
X92708Y-68844D01*
X92816Y-68799D01*
X92899Y-68717D01*
X92944Y-68609D01*
X92944Y-68552D01*
X94728Y-66768D01*
X94791Y-66794D01*
X94908Y-66794D01*
X95016Y-66749D01*
X95099Y-66667D01*
X95144Y-66559D01*
X95144Y-66503D01*
X95241Y-66544D01*
X95358Y-66544D01*
X95466Y-66499D01*
X95549Y-66417D01*
X95594Y-66309D01*
X95594Y-66210D01*
X97250Y-66210D01*
X97250Y-66209D01*
X97317Y-66196D01*
X97330Y-66194D01*
X97331Y-66194D01*
X97398Y-66148D01*
X97402Y-66144D01*
X97458Y-66144D01*
X97566Y-66099D01*
X97649Y-66017D01*
X97694Y-65909D01*
X97694Y-69805D01*
X95499Y-69805D01*
X95499Y-68980D01*
X95488Y-68904D01*
X95461Y-68829D01*
X95421Y-68763D01*
X95368Y-68704D01*
X95367Y-68702D01*
X95322Y-68670D01*
X95307Y-68658D01*
X95306Y-68657D01*
X95305Y-68657D01*
X95234Y-68624D01*
X95232Y-68623D01*
X95196Y-68614D01*
X95160Y-68605D01*
X95080Y-68601D01*
X95004Y-68612D01*
X94929Y-68639D01*
X94863Y-68679D01*
X94804Y-68731D01*
X94802Y-68733D01*
X94770Y-68777D01*
X94758Y-68793D01*
X94757Y-68793D01*
X94757Y-68795D01*
X94723Y-68868D01*
X94714Y-68904D01*
X94705Y-68940D01*
X94701Y-69020D01*
X94712Y-69096D01*
X94712Y-69097D01*
X94739Y-69171D01*
X94778Y-69236D01*
X94832Y-69296D01*
X94833Y-69297D01*
X94853Y-69312D01*
X94893Y-69342D01*
X94895Y-69343D01*
X94966Y-69376D01*
X94967Y-69377D01*
X95022Y-69390D01*
X95040Y-69395D01*
X95041Y-69395D01*
X95120Y-69399D01*
X95195Y-69388D01*
X95196Y-69388D01*
X95197Y-69387D01*
X95271Y-69361D01*
X95336Y-69322D01*
X95396Y-69268D01*
X95396Y-69267D01*
X95397Y-69267D01*
X95412Y-69246D01*
X95442Y-69207D01*
X95442Y-69206D01*
X95443Y-69205D01*
X95476Y-69134D01*
X95477Y-69133D01*
X95490Y-69078D01*
X95495Y-69060D01*
X95495Y-69059D01*
X95499Y-68980D01*
X95499Y-69805D01*
X91411Y-69805D01*
X91411Y-69628D01*
X91411Y-69035D01*
X91663Y-68783D01*
X91691Y-68795D01*
X91759Y-68795D01*
X91798Y-68795D01*
X91784Y-68801D01*
X91779Y-68805D01*
X91691Y-68805D01*
X91629Y-68831D01*
X91581Y-68879D01*
X91555Y-68941D01*
X91555Y-69009D01*
X91555Y-69359D01*
X91581Y-69421D01*
X91629Y-69469D01*
X91691Y-69495D01*
X91759Y-69495D01*
X92209Y-69495D01*
X92271Y-69469D01*
X92319Y-69421D01*
X92345Y-69359D01*
X92345Y-69291D01*
X92345Y-68941D01*
X92319Y-68879D01*
X92271Y-68831D01*
X92209Y-68805D01*
X92141Y-68805D01*
X92120Y-68805D01*
X92117Y-68801D01*
X92102Y-68795D01*
X92209Y-68795D01*
X92271Y-68769D01*
X92319Y-68721D01*
X92345Y-68659D01*
X92345Y-68591D01*
X92345Y-68241D01*
X92319Y-68179D01*
X92271Y-68131D01*
X92209Y-68105D01*
X92160Y-68105D01*
X92160Y-65786D01*
X92191Y-65774D01*
X92274Y-65692D01*
X92319Y-65584D01*
X92319Y-65467D01*
X92274Y-65359D01*
X92253Y-65337D01*
X92274Y-65317D01*
X92319Y-65209D01*
X92319Y-65092D01*
X92274Y-64984D01*
X92192Y-64901D01*
X92084Y-64856D01*
X91967Y-64856D01*
X91859Y-64901D01*
X91776Y-64983D01*
X91731Y-65091D01*
X91731Y-65147D01*
X91241Y-65637D01*
X90183Y-65637D01*
X89694Y-65147D01*
X89694Y-65092D01*
X89649Y-64984D01*
X89567Y-64901D01*
X89459Y-64856D01*
X89342Y-64856D01*
X89234Y-64901D01*
X89151Y-64983D01*
X89144Y-64998D01*
X89060Y-64913D01*
X89060Y-64610D01*
X97100Y-64610D01*
X97100Y-64609D01*
X97167Y-64596D01*
X97180Y-64594D01*
X97181Y-64594D01*
X97248Y-64548D01*
X97690Y-64105D01*
X97727Y-64121D01*
X97910Y-64121D01*
X98079Y-64051D01*
X98209Y-63922D01*
X98255Y-63810D01*
X98363Y-63810D01*
X98405Y-63851D01*
X98405Y-64159D01*
X98431Y-64221D01*
X98479Y-64269D01*
X98541Y-64295D01*
X98609Y-64295D01*
X98873Y-64295D01*
X98838Y-64330D01*
X98816Y-64330D01*
X98116Y-64330D01*
X98054Y-64356D01*
X98006Y-64404D01*
X97980Y-64466D01*
X97980Y-64534D01*
X97980Y-65634D01*
X98006Y-65696D01*
X98054Y-65744D01*
X98116Y-65770D01*
X98184Y-65770D01*
X98884Y-65770D01*
X98946Y-65744D01*
X98994Y-65696D01*
X99020Y-65634D01*
X99020Y-65566D01*
X99020Y-64911D01*
X99300Y-64630D01*
X99300Y-64938D01*
X99362Y-65000D01*
X99850Y-65000D01*
X99850Y-64312D01*
X99788Y-64250D01*
X99520Y-64250D01*
X99520Y-63700D01*
X99499Y-63597D01*
X99499Y-63596D01*
X99441Y-63509D01*
X99231Y-63299D01*
X99913Y-62617D01*
X99915Y-62616D01*
X99916Y-62616D01*
X99973Y-62529D01*
X99974Y-62528D01*
X99990Y-62447D01*
X99995Y-62426D01*
X99994Y-62425D01*
X99995Y-62425D01*
X99995Y-62334D01*
X99995Y-62266D01*
X99995Y-62100D01*
X99995Y-61866D01*
X99969Y-61804D01*
X99921Y-61756D01*
X99859Y-61730D01*
X99791Y-61730D01*
X99594Y-61730D01*
X99566Y-61661D01*
X99436Y-61468D01*
X99382Y-61414D01*
X99188Y-61284D01*
X99118Y-61255D01*
X98888Y-61209D01*
X98812Y-61209D01*
X98811Y-61209D01*
X98582Y-61255D01*
X98511Y-61284D01*
X98318Y-61414D01*
X98264Y-61468D01*
X98134Y-61662D01*
X98105Y-61732D01*
X98059Y-61962D01*
X98059Y-62038D01*
X98105Y-62268D01*
X98134Y-62338D01*
X98264Y-62532D01*
X98318Y-62586D01*
X98511Y-62716D01*
X98582Y-62745D01*
X98811Y-62791D01*
X98812Y-62791D01*
X98888Y-62791D01*
X98999Y-62768D01*
X98863Y-62905D01*
X98541Y-62905D01*
X98479Y-62931D01*
X98431Y-62979D01*
X98430Y-62980D01*
X98362Y-62980D01*
X98241Y-62859D01*
X98153Y-62801D01*
X98050Y-62780D01*
X97716Y-62780D01*
X97659Y-62756D01*
X97542Y-62756D01*
X97434Y-62801D01*
X97351Y-62883D01*
X97306Y-62991D01*
X97306Y-63108D01*
X97351Y-63216D01*
X97424Y-63289D01*
X97358Y-63448D01*
X97358Y-63631D01*
X97358Y-63751D01*
X97385Y-63817D01*
X97284Y-63919D01*
X97217Y-63851D01*
X97109Y-63806D01*
X97052Y-63806D01*
X96600Y-63354D01*
X96600Y-62012D01*
X96538Y-61950D01*
X96050Y-61950D01*
X96050Y-62638D01*
X96112Y-62700D01*
X96399Y-62699D01*
X96491Y-62661D01*
X96561Y-62591D01*
X96599Y-62500D01*
X96599Y-62401D01*
X96600Y-62012D01*
X96600Y-63354D01*
X96148Y-62902D01*
X96081Y-62856D01*
X96067Y-62853D01*
X96000Y-62840D01*
X94856Y-62840D01*
X95101Y-62595D01*
X95409Y-62595D01*
X95435Y-62583D01*
X95439Y-62591D01*
X95509Y-62661D01*
X95601Y-62699D01*
X95888Y-62700D01*
X95950Y-62638D01*
X95950Y-61950D01*
X95490Y-61950D01*
X95471Y-61931D01*
X95409Y-61905D01*
X95341Y-61905D01*
X94891Y-61905D01*
X94829Y-61931D01*
X94781Y-61979D01*
X94775Y-61993D01*
X94769Y-61979D01*
X94721Y-61931D01*
X94659Y-61905D01*
X94591Y-61905D01*
X94141Y-61905D01*
X94079Y-61931D01*
X94031Y-61979D01*
X94025Y-61993D01*
X94019Y-61979D01*
X93971Y-61931D01*
X93909Y-61905D01*
X93841Y-61905D01*
X93391Y-61905D01*
X93329Y-61931D01*
X93281Y-61979D01*
X93255Y-62040D01*
X93036Y-62040D01*
X92848Y-61852D01*
X92781Y-61806D01*
X92767Y-61803D01*
X92700Y-61790D01*
X92125Y-61790D01*
X92199Y-61717D01*
X92244Y-61609D01*
X92244Y-61492D01*
X92199Y-61384D01*
X92164Y-61349D01*
X92288Y-61350D01*
X92350Y-61288D01*
X92350Y-60850D01*
X91912Y-60850D01*
X91850Y-60912D01*
X91851Y-61051D01*
X91851Y-61140D01*
X91807Y-61131D01*
X91807Y-60973D01*
X91781Y-60911D01*
X91733Y-60863D01*
X91671Y-60837D01*
X91603Y-60837D01*
X90583Y-60837D01*
X90241Y-60495D01*
X91851Y-60495D01*
X91851Y-60549D01*
X91850Y-60688D01*
X91912Y-60750D01*
X92300Y-60750D01*
X92350Y-60750D01*
X92450Y-60750D01*
X92450Y-60850D01*
X92450Y-60900D01*
X92450Y-61288D01*
X92512Y-61350D01*
X92749Y-61349D01*
X92841Y-61311D01*
X92911Y-61241D01*
X92949Y-61150D01*
X92949Y-61087D01*
X93022Y-61108D01*
X93294Y-60835D01*
X93329Y-60800D01*
X93400Y-60729D01*
X93471Y-60800D01*
X93506Y-60835D01*
X93778Y-61108D01*
X93872Y-61081D01*
X93934Y-60903D01*
X94001Y-61066D01*
X94133Y-61198D01*
X94149Y-61205D01*
X94141Y-61205D01*
X94079Y-61231D01*
X94031Y-61279D01*
X94025Y-61293D01*
X94019Y-61279D01*
X93971Y-61231D01*
X93909Y-61205D01*
X93841Y-61205D01*
X93700Y-61205D01*
X93708Y-61178D01*
X93400Y-60871D01*
X93092Y-61178D01*
X93119Y-61272D01*
X93262Y-61322D01*
X93255Y-61341D01*
X93255Y-61409D01*
X93255Y-61759D01*
X93281Y-61821D01*
X93329Y-61869D01*
X93391Y-61895D01*
X93459Y-61895D01*
X93909Y-61895D01*
X93971Y-61869D01*
X94019Y-61821D01*
X94025Y-61806D01*
X94031Y-61821D01*
X94079Y-61869D01*
X94141Y-61895D01*
X94209Y-61895D01*
X94659Y-61895D01*
X94721Y-61869D01*
X94769Y-61821D01*
X94775Y-61806D01*
X94781Y-61821D01*
X94829Y-61869D01*
X94891Y-61895D01*
X94959Y-61895D01*
X95409Y-61895D01*
X95471Y-61869D01*
X95490Y-61850D01*
X95950Y-61850D01*
X95950Y-61162D01*
X95888Y-61100D01*
X95764Y-61100D01*
X95798Y-61067D01*
X95870Y-60894D01*
X95870Y-60707D01*
X95799Y-60534D01*
X95760Y-60495D01*
X96040Y-60495D01*
X96002Y-60533D01*
X95930Y-60706D01*
X95930Y-60893D01*
X96001Y-61066D01*
X96073Y-61138D01*
X96050Y-61162D01*
X96050Y-61850D01*
X96538Y-61850D01*
X96600Y-61788D01*
X96599Y-61399D01*
X96599Y-61300D01*
X96572Y-61237D01*
X96666Y-61199D01*
X96795Y-61070D01*
X97030Y-61070D01*
X97030Y-61109D01*
X97056Y-61171D01*
X97065Y-61180D01*
X97016Y-61180D01*
X96954Y-61206D01*
X96906Y-61254D01*
X96880Y-61316D01*
X96880Y-61384D01*
X96880Y-62484D01*
X96906Y-62546D01*
X96954Y-62594D01*
X97016Y-62620D01*
X97084Y-62620D01*
X97784Y-62620D01*
X97846Y-62594D01*
X97894Y-62546D01*
X97920Y-62484D01*
X97920Y-62416D01*
X97920Y-61537D01*
X98212Y-61245D01*
X98534Y-61245D01*
X98596Y-61219D01*
X98644Y-61171D01*
X98670Y-61109D01*
X98670Y-61070D01*
X99413Y-61070D01*
X99455Y-61112D01*
X99455Y-61234D01*
X99481Y-61296D01*
X99529Y-61344D01*
X99591Y-61370D01*
X99659Y-61370D01*
X99818Y-61370D01*
X99859Y-61411D01*
X99951Y-61449D01*
X99988Y-61450D01*
X100050Y-61388D01*
X100050Y-61100D01*
X100050Y-61050D01*
X100050Y-60950D01*
X100150Y-60950D01*
X100150Y-61050D01*
X100150Y-61100D01*
X100150Y-61388D01*
X100212Y-61450D01*
X100249Y-61449D01*
X100341Y-61411D01*
X100382Y-61370D01*
X100409Y-61370D01*
X100605Y-61370D01*
X100605Y-61730D01*
X100541Y-61730D01*
X100341Y-61730D01*
X100279Y-61756D01*
X100231Y-61804D01*
X100205Y-61866D01*
X100205Y-61934D01*
X100205Y-62334D01*
X100231Y-62396D01*
X100279Y-62444D01*
X100341Y-62470D01*
X100409Y-62470D01*
X100605Y-62470D01*
X100605Y-63214D01*
X100504Y-63105D01*
X100316Y-63018D01*
X100231Y-63065D01*
X100231Y-63500D01*
X100231Y-63550D01*
X100231Y-63650D01*
X100231Y-63700D01*
X100231Y-64135D01*
X100316Y-64182D01*
X100504Y-64095D01*
X100605Y-63985D01*
X100605Y-65605D01*
X100499Y-65605D01*
X100499Y-65551D01*
X100500Y-65162D01*
X100500Y-64938D01*
X100499Y-64549D01*
X100499Y-64450D01*
X100461Y-64359D01*
X100391Y-64289D01*
X100299Y-64251D01*
X100131Y-64250D01*
X100131Y-64135D01*
X100131Y-63650D01*
X100131Y-63550D01*
X100131Y-63065D01*
X100046Y-63018D01*
X99858Y-63105D01*
X99712Y-63263D01*
X99638Y-63464D01*
X99693Y-63550D01*
X100131Y-63550D01*
X100131Y-63650D01*
X99693Y-63650D01*
X99638Y-63736D01*
X99712Y-63937D01*
X99858Y-64095D01*
X100046Y-64182D01*
X100131Y-64135D01*
X100131Y-64250D01*
X100012Y-64250D01*
X99950Y-64312D01*
X99950Y-65000D01*
X100438Y-65000D01*
X100500Y-64938D01*
X100500Y-65162D01*
X100438Y-65100D01*
X99950Y-65100D01*
X99950Y-65788D01*
X100005Y-65843D01*
X100005Y-68000D01*
X100020Y-68075D01*
X100062Y-68138D01*
X100125Y-68180D01*
X100200Y-68195D01*
X100605Y-68195D01*
X100605Y-68205D01*
M02*
