G04 (created by PCBNEW (2013-04-19 BZR 4011)-stable) date 16/09/2014 14:10:46*
%MOIN*%
G04 Gerber Fmt 3.4, Leading zero omitted, Abs format*
%FSLAX34Y34*%
G01*
G70*
G90*
G04 APERTURE LIST*
%ADD10C,2.3622e-006*%
%ADD11C,0.0028*%
%ADD12C,0.005*%
%ADD13C,0.015*%
%ADD14C,0.0031*%
%ADD15C,0.0045*%
G04 APERTURE END LIST*
G54D10*
G54D11*
X88550Y-63350D02*
X88350Y-63350D01*
X88350Y-63350D02*
X88350Y-63050D01*
X88350Y-63050D02*
X88550Y-63050D01*
X88750Y-63350D02*
X88950Y-63350D01*
X88950Y-63350D02*
X88950Y-63050D01*
X88950Y-63050D02*
X88750Y-63050D01*
G54D12*
X89850Y-65500D02*
G75*
G03X89850Y-65500I-100J0D01*
G74*
G01*
X89800Y-65500D02*
G75*
G03X89800Y-65500I-50J0D01*
G74*
G01*
X88850Y-65600D02*
X90050Y-65600D01*
X90050Y-65600D02*
X90050Y-67800D01*
X88850Y-67800D02*
X90050Y-67800D01*
X88850Y-65600D02*
X88850Y-67800D01*
G54D11*
X87800Y-64650D02*
X87600Y-64650D01*
X87600Y-64650D02*
X87600Y-64350D01*
X87600Y-64350D02*
X87800Y-64350D01*
X88000Y-64650D02*
X88200Y-64650D01*
X88200Y-64650D02*
X88200Y-64350D01*
X88200Y-64350D02*
X88000Y-64350D01*
X88550Y-62950D02*
X88350Y-62950D01*
X88350Y-62950D02*
X88350Y-62650D01*
X88350Y-62650D02*
X88550Y-62650D01*
X88750Y-62950D02*
X88950Y-62950D01*
X88950Y-62950D02*
X88950Y-62650D01*
X88950Y-62650D02*
X88750Y-62650D01*
X90850Y-62650D02*
X91050Y-62650D01*
X91050Y-62650D02*
X91050Y-62950D01*
X91050Y-62950D02*
X90850Y-62950D01*
X90650Y-62650D02*
X90450Y-62650D01*
X90450Y-62650D02*
X90450Y-62950D01*
X90450Y-62950D02*
X90650Y-62950D01*
X87800Y-65050D02*
X87600Y-65050D01*
X87600Y-65050D02*
X87600Y-64750D01*
X87600Y-64750D02*
X87800Y-64750D01*
X88000Y-65050D02*
X88200Y-65050D01*
X88200Y-65050D02*
X88200Y-64750D01*
X88200Y-64750D02*
X88000Y-64750D01*
X87950Y-65950D02*
X88150Y-65950D01*
X88150Y-65950D02*
X88150Y-66250D01*
X88150Y-66250D02*
X87950Y-66250D01*
X87750Y-65950D02*
X87550Y-65950D01*
X87550Y-65950D02*
X87550Y-66250D01*
X87550Y-66250D02*
X87750Y-66250D01*
X90900Y-67400D02*
X90900Y-67600D01*
X90900Y-67600D02*
X90600Y-67600D01*
X90600Y-67600D02*
X90600Y-67400D01*
X90900Y-67200D02*
X90900Y-67000D01*
X90900Y-67000D02*
X90600Y-67000D01*
X90600Y-67000D02*
X90600Y-67200D01*
X90450Y-66650D02*
X90450Y-66850D01*
X90450Y-66850D02*
X90150Y-66850D01*
X90150Y-66850D02*
X90150Y-66650D01*
X90450Y-66450D02*
X90450Y-66250D01*
X90450Y-66250D02*
X90150Y-66250D01*
X90150Y-66250D02*
X90150Y-66450D01*
X92500Y-66250D02*
X92700Y-66250D01*
X92700Y-66250D02*
X92700Y-66550D01*
X92700Y-66550D02*
X92500Y-66550D01*
X92300Y-66250D02*
X92100Y-66250D01*
X92100Y-66250D02*
X92100Y-66550D01*
X92100Y-66550D02*
X92300Y-66550D01*
X92500Y-65450D02*
X92700Y-65450D01*
X92700Y-65450D02*
X92700Y-65750D01*
X92700Y-65750D02*
X92500Y-65750D01*
X92300Y-65450D02*
X92100Y-65450D01*
X92100Y-65450D02*
X92100Y-65750D01*
X92100Y-65750D02*
X92300Y-65750D01*
X92500Y-67050D02*
X92700Y-67050D01*
X92700Y-67050D02*
X92700Y-67350D01*
X92700Y-67350D02*
X92500Y-67350D01*
X92300Y-67050D02*
X92100Y-67050D01*
X92100Y-67050D02*
X92100Y-67350D01*
X92100Y-67350D02*
X92300Y-67350D01*
X92500Y-65050D02*
X92700Y-65050D01*
X92700Y-65050D02*
X92700Y-65350D01*
X92700Y-65350D02*
X92500Y-65350D01*
X92300Y-65050D02*
X92100Y-65050D01*
X92100Y-65050D02*
X92100Y-65350D01*
X92100Y-65350D02*
X92300Y-65350D01*
X92500Y-63050D02*
X92700Y-63050D01*
X92700Y-63050D02*
X92700Y-63350D01*
X92700Y-63350D02*
X92500Y-63350D01*
X92300Y-63050D02*
X92100Y-63050D01*
X92100Y-63050D02*
X92100Y-63350D01*
X92100Y-63350D02*
X92300Y-63350D01*
X92500Y-63850D02*
X92700Y-63850D01*
X92700Y-63850D02*
X92700Y-64150D01*
X92700Y-64150D02*
X92500Y-64150D01*
X92300Y-63850D02*
X92100Y-63850D01*
X92100Y-63850D02*
X92100Y-64150D01*
X92100Y-64150D02*
X92300Y-64150D01*
X92500Y-63450D02*
X92700Y-63450D01*
X92700Y-63450D02*
X92700Y-63750D01*
X92700Y-63750D02*
X92500Y-63750D01*
X92300Y-63450D02*
X92100Y-63450D01*
X92100Y-63450D02*
X92100Y-63750D01*
X92100Y-63750D02*
X92300Y-63750D01*
X92500Y-64650D02*
X92700Y-64650D01*
X92700Y-64650D02*
X92700Y-64950D01*
X92700Y-64950D02*
X92500Y-64950D01*
X92300Y-64650D02*
X92100Y-64650D01*
X92100Y-64650D02*
X92100Y-64950D01*
X92100Y-64950D02*
X92300Y-64950D01*
X92500Y-66650D02*
X92700Y-66650D01*
X92700Y-66650D02*
X92700Y-66950D01*
X92700Y-66950D02*
X92500Y-66950D01*
X92300Y-66650D02*
X92100Y-66650D01*
X92100Y-66650D02*
X92100Y-66950D01*
X92100Y-66950D02*
X92300Y-66950D01*
X92500Y-65850D02*
X92700Y-65850D01*
X92700Y-65850D02*
X92700Y-66150D01*
X92700Y-66150D02*
X92500Y-66150D01*
X92300Y-65850D02*
X92100Y-65850D01*
X92100Y-65850D02*
X92100Y-66150D01*
X92100Y-66150D02*
X92300Y-66150D01*
X92300Y-64550D02*
X92100Y-64550D01*
X92100Y-64550D02*
X92100Y-64250D01*
X92100Y-64250D02*
X92300Y-64250D01*
X92500Y-64550D02*
X92700Y-64550D01*
X92700Y-64550D02*
X92700Y-64250D01*
X92700Y-64250D02*
X92500Y-64250D01*
X87800Y-64250D02*
X87600Y-64250D01*
X87600Y-64250D02*
X87600Y-63950D01*
X87600Y-63950D02*
X87800Y-63950D01*
X88000Y-64250D02*
X88200Y-64250D01*
X88200Y-64250D02*
X88200Y-63950D01*
X88200Y-63950D02*
X88000Y-63950D01*
G54D13*
X94900Y-67700D02*
X92900Y-67700D01*
X92900Y-67700D02*
X92900Y-62700D01*
X92900Y-62700D02*
X94900Y-62700D01*
X94900Y-62700D02*
X94900Y-67700D01*
X85400Y-67200D02*
X85400Y-63200D01*
X87400Y-63200D02*
X87400Y-67200D01*
X87400Y-67200D02*
X85400Y-67200D01*
X85400Y-63200D02*
X87400Y-63200D01*
G54D11*
X90150Y-67200D02*
X90150Y-67000D01*
X90150Y-67000D02*
X90450Y-67000D01*
X90450Y-67000D02*
X90450Y-67200D01*
X90150Y-67400D02*
X90150Y-67600D01*
X90150Y-67600D02*
X90450Y-67600D01*
X90450Y-67600D02*
X90450Y-67400D01*
G54D14*
X89299Y-63162D02*
G75*
G03X89299Y-63162I-62J0D01*
G74*
G01*
X90200Y-63500D02*
X90200Y-63100D01*
X89175Y-63500D02*
X89175Y-63100D01*
X90200Y-63100D02*
X89175Y-63100D01*
X89175Y-63500D02*
X90200Y-63500D01*
G54D12*
X92750Y-63100D02*
X93650Y-63100D01*
X93650Y-63100D02*
X93650Y-62600D01*
X93650Y-62600D02*
X92750Y-62600D01*
X92750Y-62600D02*
X92750Y-63100D01*
X88200Y-63350D02*
X87300Y-63350D01*
X87300Y-63350D02*
X87300Y-63850D01*
X87300Y-63850D02*
X88200Y-63850D01*
X88200Y-63850D02*
X88200Y-63350D01*
G54D11*
X87950Y-66750D02*
X88150Y-66750D01*
X88150Y-66750D02*
X88150Y-67050D01*
X88150Y-67050D02*
X87950Y-67050D01*
X87750Y-66750D02*
X87550Y-66750D01*
X87550Y-66750D02*
X87550Y-67050D01*
X87550Y-67050D02*
X87750Y-67050D01*
X87750Y-65850D02*
X87550Y-65850D01*
X87550Y-65850D02*
X87550Y-65550D01*
X87550Y-65550D02*
X87750Y-65550D01*
X87950Y-65850D02*
X88150Y-65850D01*
X88150Y-65850D02*
X88150Y-65550D01*
X88150Y-65550D02*
X87950Y-65550D01*
G54D12*
X88100Y-66675D02*
X88100Y-66625D01*
X88100Y-66325D02*
X88100Y-66375D01*
X87600Y-66325D02*
X87600Y-66375D01*
X87600Y-66675D02*
X87600Y-66625D01*
X88100Y-66675D02*
X88175Y-66600D01*
X87600Y-66675D02*
X88100Y-66675D01*
X88100Y-66325D02*
X88175Y-66400D01*
X87600Y-66325D02*
X88100Y-66325D01*
X87600Y-65125D02*
X87600Y-65175D01*
X87600Y-65475D02*
X87600Y-65425D01*
X88100Y-65475D02*
X88100Y-65425D01*
X88100Y-65125D02*
X88100Y-65175D01*
X87600Y-65125D02*
X87525Y-65200D01*
X88100Y-65125D02*
X87600Y-65125D01*
X87600Y-65475D02*
X87525Y-65400D01*
X88100Y-65475D02*
X87600Y-65475D01*
G54D11*
X88727Y-63242D02*
X88732Y-63249D01*
X88750Y-63255D01*
X88761Y-63255D01*
X88778Y-63249D01*
X88790Y-63236D01*
X88795Y-63223D01*
X88801Y-63196D01*
X88801Y-63177D01*
X88795Y-63150D01*
X88790Y-63137D01*
X88778Y-63124D01*
X88761Y-63117D01*
X88750Y-63117D01*
X88732Y-63124D01*
X88727Y-63131D01*
X88612Y-63255D02*
X88681Y-63255D01*
X88647Y-63255D02*
X88647Y-63117D01*
X88658Y-63137D01*
X88670Y-63150D01*
X88681Y-63157D01*
X88510Y-63163D02*
X88510Y-63255D01*
X88538Y-63111D02*
X88567Y-63209D01*
X88492Y-63209D01*
X87920Y-64555D02*
X87960Y-64490D01*
X87988Y-64555D02*
X87988Y-64417D01*
X87942Y-64417D01*
X87931Y-64424D01*
X87925Y-64431D01*
X87920Y-64444D01*
X87920Y-64463D01*
X87925Y-64477D01*
X87931Y-64483D01*
X87942Y-64490D01*
X87988Y-64490D01*
X87805Y-64555D02*
X87874Y-64555D01*
X87840Y-64555D02*
X87840Y-64417D01*
X87851Y-64437D01*
X87862Y-64450D01*
X87874Y-64457D01*
X88670Y-62842D02*
X88675Y-62849D01*
X88692Y-62855D01*
X88704Y-62855D01*
X88721Y-62849D01*
X88732Y-62836D01*
X88738Y-62823D01*
X88744Y-62796D01*
X88744Y-62777D01*
X88738Y-62750D01*
X88732Y-62737D01*
X88721Y-62724D01*
X88704Y-62717D01*
X88692Y-62717D01*
X88675Y-62724D01*
X88670Y-62731D01*
X88595Y-62717D02*
X88584Y-62717D01*
X88572Y-62724D01*
X88567Y-62731D01*
X88561Y-62744D01*
X88555Y-62770D01*
X88555Y-62803D01*
X88561Y-62829D01*
X88567Y-62842D01*
X88572Y-62849D01*
X88584Y-62855D01*
X88595Y-62855D01*
X88607Y-62849D01*
X88612Y-62842D01*
X88618Y-62829D01*
X88624Y-62803D01*
X88624Y-62770D01*
X88618Y-62744D01*
X88612Y-62731D01*
X88607Y-62724D01*
X88595Y-62717D01*
X90770Y-62842D02*
X90775Y-62849D01*
X90792Y-62855D01*
X90804Y-62855D01*
X90821Y-62849D01*
X90832Y-62836D01*
X90838Y-62823D01*
X90844Y-62796D01*
X90844Y-62777D01*
X90838Y-62750D01*
X90832Y-62737D01*
X90821Y-62724D01*
X90804Y-62717D01*
X90792Y-62717D01*
X90775Y-62724D01*
X90770Y-62731D01*
X90655Y-62855D02*
X90724Y-62855D01*
X90690Y-62855D02*
X90690Y-62717D01*
X90701Y-62737D01*
X90712Y-62750D01*
X90724Y-62757D01*
X87920Y-64955D02*
X87960Y-64890D01*
X87988Y-64955D02*
X87988Y-64817D01*
X87942Y-64817D01*
X87931Y-64824D01*
X87925Y-64831D01*
X87920Y-64844D01*
X87920Y-64863D01*
X87925Y-64877D01*
X87931Y-64883D01*
X87942Y-64890D01*
X87988Y-64890D01*
X87874Y-64831D02*
X87868Y-64824D01*
X87857Y-64817D01*
X87828Y-64817D01*
X87817Y-64824D01*
X87811Y-64831D01*
X87805Y-64844D01*
X87805Y-64857D01*
X87811Y-64877D01*
X87880Y-64955D01*
X87805Y-64955D01*
X87927Y-66142D02*
X87932Y-66149D01*
X87950Y-66155D01*
X87961Y-66155D01*
X87978Y-66149D01*
X87990Y-66136D01*
X87995Y-66123D01*
X88001Y-66096D01*
X88001Y-66077D01*
X87995Y-66050D01*
X87990Y-66037D01*
X87978Y-66024D01*
X87961Y-66017D01*
X87950Y-66017D01*
X87932Y-66024D01*
X87927Y-66031D01*
X87812Y-66155D02*
X87881Y-66155D01*
X87847Y-66155D02*
X87847Y-66017D01*
X87858Y-66037D01*
X87870Y-66050D01*
X87881Y-66057D01*
X87738Y-66017D02*
X87727Y-66017D01*
X87715Y-66024D01*
X87710Y-66031D01*
X87704Y-66044D01*
X87698Y-66070D01*
X87698Y-66103D01*
X87704Y-66129D01*
X87710Y-66142D01*
X87715Y-66149D01*
X87727Y-66155D01*
X87738Y-66155D01*
X87750Y-66149D01*
X87755Y-66142D01*
X87761Y-66129D01*
X87767Y-66103D01*
X87767Y-66070D01*
X87761Y-66044D01*
X87755Y-66031D01*
X87750Y-66024D01*
X87738Y-66017D01*
X90792Y-67222D02*
X90799Y-67217D01*
X90805Y-67200D01*
X90805Y-67188D01*
X90799Y-67171D01*
X90786Y-67160D01*
X90773Y-67154D01*
X90746Y-67148D01*
X90727Y-67148D01*
X90700Y-67154D01*
X90687Y-67160D01*
X90674Y-67171D01*
X90667Y-67188D01*
X90667Y-67200D01*
X90674Y-67217D01*
X90681Y-67222D01*
X90805Y-67337D02*
X90805Y-67268D01*
X90805Y-67302D02*
X90667Y-67302D01*
X90687Y-67291D01*
X90700Y-67280D01*
X90707Y-67268D01*
X90805Y-67451D02*
X90805Y-67382D01*
X90805Y-67417D02*
X90667Y-67417D01*
X90687Y-67405D01*
X90700Y-67394D01*
X90707Y-67382D01*
X90355Y-66472D02*
X90290Y-66432D01*
X90355Y-66404D02*
X90217Y-66404D01*
X90217Y-66450D01*
X90224Y-66461D01*
X90231Y-66467D01*
X90244Y-66472D01*
X90263Y-66472D01*
X90277Y-66467D01*
X90283Y-66461D01*
X90290Y-66450D01*
X90290Y-66404D01*
X90355Y-66587D02*
X90355Y-66518D01*
X90355Y-66552D02*
X90217Y-66552D01*
X90237Y-66541D01*
X90250Y-66530D01*
X90257Y-66518D01*
X90217Y-66661D02*
X90217Y-66672D01*
X90224Y-66684D01*
X90231Y-66690D01*
X90244Y-66695D01*
X90270Y-66701D01*
X90303Y-66701D01*
X90329Y-66695D01*
X90342Y-66690D01*
X90349Y-66684D01*
X90355Y-66672D01*
X90355Y-66661D01*
X90349Y-66650D01*
X90342Y-66644D01*
X90329Y-66638D01*
X90303Y-66632D01*
X90270Y-66632D01*
X90244Y-66638D01*
X90231Y-66644D01*
X90224Y-66650D01*
X90217Y-66661D01*
X92477Y-66455D02*
X92517Y-66390D01*
X92545Y-66455D02*
X92545Y-66317D01*
X92500Y-66317D01*
X92488Y-66324D01*
X92482Y-66331D01*
X92477Y-66344D01*
X92477Y-66363D01*
X92482Y-66377D01*
X92488Y-66383D01*
X92500Y-66390D01*
X92545Y-66390D01*
X92408Y-66377D02*
X92420Y-66370D01*
X92425Y-66363D01*
X92431Y-66350D01*
X92431Y-66344D01*
X92425Y-66331D01*
X92420Y-66324D01*
X92408Y-66317D01*
X92385Y-66317D01*
X92374Y-66324D01*
X92368Y-66331D01*
X92362Y-66344D01*
X92362Y-66350D01*
X92368Y-66363D01*
X92374Y-66370D01*
X92385Y-66377D01*
X92408Y-66377D01*
X92420Y-66383D01*
X92425Y-66390D01*
X92431Y-66403D01*
X92431Y-66429D01*
X92425Y-66442D01*
X92420Y-66449D01*
X92408Y-66455D01*
X92385Y-66455D01*
X92374Y-66449D01*
X92368Y-66442D01*
X92362Y-66429D01*
X92362Y-66403D01*
X92368Y-66390D01*
X92374Y-66383D01*
X92385Y-66377D01*
X92248Y-66455D02*
X92317Y-66455D01*
X92282Y-66455D02*
X92282Y-66317D01*
X92294Y-66337D01*
X92305Y-66350D01*
X92317Y-66357D01*
X92477Y-65655D02*
X92517Y-65590D01*
X92545Y-65655D02*
X92545Y-65517D01*
X92500Y-65517D01*
X92488Y-65524D01*
X92482Y-65531D01*
X92477Y-65544D01*
X92477Y-65563D01*
X92482Y-65577D01*
X92488Y-65583D01*
X92500Y-65590D01*
X92545Y-65590D01*
X92408Y-65577D02*
X92420Y-65570D01*
X92425Y-65563D01*
X92431Y-65550D01*
X92431Y-65544D01*
X92425Y-65531D01*
X92420Y-65524D01*
X92408Y-65517D01*
X92385Y-65517D01*
X92374Y-65524D01*
X92368Y-65531D01*
X92362Y-65544D01*
X92362Y-65550D01*
X92368Y-65563D01*
X92374Y-65570D01*
X92385Y-65577D01*
X92408Y-65577D01*
X92420Y-65583D01*
X92425Y-65590D01*
X92431Y-65603D01*
X92431Y-65629D01*
X92425Y-65642D01*
X92420Y-65649D01*
X92408Y-65655D01*
X92385Y-65655D01*
X92374Y-65649D01*
X92368Y-65642D01*
X92362Y-65629D01*
X92362Y-65603D01*
X92368Y-65590D01*
X92374Y-65583D01*
X92385Y-65577D01*
X92317Y-65531D02*
X92311Y-65524D01*
X92300Y-65517D01*
X92271Y-65517D01*
X92260Y-65524D01*
X92254Y-65531D01*
X92248Y-65544D01*
X92248Y-65557D01*
X92254Y-65577D01*
X92322Y-65655D01*
X92248Y-65655D01*
X92477Y-67255D02*
X92517Y-67190D01*
X92545Y-67255D02*
X92545Y-67117D01*
X92500Y-67117D01*
X92488Y-67124D01*
X92482Y-67131D01*
X92477Y-67144D01*
X92477Y-67163D01*
X92482Y-67177D01*
X92488Y-67183D01*
X92500Y-67190D01*
X92545Y-67190D01*
X92408Y-67177D02*
X92420Y-67170D01*
X92425Y-67163D01*
X92431Y-67150D01*
X92431Y-67144D01*
X92425Y-67131D01*
X92420Y-67124D01*
X92408Y-67117D01*
X92385Y-67117D01*
X92374Y-67124D01*
X92368Y-67131D01*
X92362Y-67144D01*
X92362Y-67150D01*
X92368Y-67163D01*
X92374Y-67170D01*
X92385Y-67177D01*
X92408Y-67177D01*
X92420Y-67183D01*
X92425Y-67190D01*
X92431Y-67203D01*
X92431Y-67229D01*
X92425Y-67242D01*
X92420Y-67249D01*
X92408Y-67255D01*
X92385Y-67255D01*
X92374Y-67249D01*
X92368Y-67242D01*
X92362Y-67229D01*
X92362Y-67203D01*
X92368Y-67190D01*
X92374Y-67183D01*
X92385Y-67177D01*
X92322Y-67117D02*
X92248Y-67117D01*
X92288Y-67170D01*
X92271Y-67170D01*
X92260Y-67177D01*
X92254Y-67183D01*
X92248Y-67196D01*
X92248Y-67229D01*
X92254Y-67242D01*
X92260Y-67249D01*
X92271Y-67255D01*
X92305Y-67255D01*
X92317Y-67249D01*
X92322Y-67242D01*
X92477Y-65255D02*
X92517Y-65190D01*
X92545Y-65255D02*
X92545Y-65117D01*
X92500Y-65117D01*
X92488Y-65124D01*
X92482Y-65131D01*
X92477Y-65144D01*
X92477Y-65163D01*
X92482Y-65177D01*
X92488Y-65183D01*
X92500Y-65190D01*
X92545Y-65190D01*
X92408Y-65177D02*
X92420Y-65170D01*
X92425Y-65163D01*
X92431Y-65150D01*
X92431Y-65144D01*
X92425Y-65131D01*
X92420Y-65124D01*
X92408Y-65117D01*
X92385Y-65117D01*
X92374Y-65124D01*
X92368Y-65131D01*
X92362Y-65144D01*
X92362Y-65150D01*
X92368Y-65163D01*
X92374Y-65170D01*
X92385Y-65177D01*
X92408Y-65177D01*
X92420Y-65183D01*
X92425Y-65190D01*
X92431Y-65203D01*
X92431Y-65229D01*
X92425Y-65242D01*
X92420Y-65249D01*
X92408Y-65255D01*
X92385Y-65255D01*
X92374Y-65249D01*
X92368Y-65242D01*
X92362Y-65229D01*
X92362Y-65203D01*
X92368Y-65190D01*
X92374Y-65183D01*
X92385Y-65177D01*
X92260Y-65163D02*
X92260Y-65255D01*
X92288Y-65111D02*
X92317Y-65209D01*
X92242Y-65209D01*
X92477Y-63255D02*
X92517Y-63190D01*
X92545Y-63255D02*
X92545Y-63117D01*
X92500Y-63117D01*
X92488Y-63124D01*
X92482Y-63131D01*
X92477Y-63144D01*
X92477Y-63163D01*
X92482Y-63177D01*
X92488Y-63183D01*
X92500Y-63190D01*
X92545Y-63190D01*
X92408Y-63177D02*
X92420Y-63170D01*
X92425Y-63163D01*
X92431Y-63150D01*
X92431Y-63144D01*
X92425Y-63131D01*
X92420Y-63124D01*
X92408Y-63117D01*
X92385Y-63117D01*
X92374Y-63124D01*
X92368Y-63131D01*
X92362Y-63144D01*
X92362Y-63150D01*
X92368Y-63163D01*
X92374Y-63170D01*
X92385Y-63177D01*
X92408Y-63177D01*
X92420Y-63183D01*
X92425Y-63190D01*
X92431Y-63203D01*
X92431Y-63229D01*
X92425Y-63242D01*
X92420Y-63249D01*
X92408Y-63255D01*
X92385Y-63255D01*
X92374Y-63249D01*
X92368Y-63242D01*
X92362Y-63229D01*
X92362Y-63203D01*
X92368Y-63190D01*
X92374Y-63183D01*
X92385Y-63177D01*
X92254Y-63117D02*
X92311Y-63117D01*
X92317Y-63183D01*
X92311Y-63177D01*
X92300Y-63170D01*
X92271Y-63170D01*
X92260Y-63177D01*
X92254Y-63183D01*
X92248Y-63196D01*
X92248Y-63229D01*
X92254Y-63242D01*
X92260Y-63249D01*
X92271Y-63255D01*
X92300Y-63255D01*
X92311Y-63249D01*
X92317Y-63242D01*
X92477Y-64055D02*
X92517Y-63990D01*
X92545Y-64055D02*
X92545Y-63917D01*
X92500Y-63917D01*
X92488Y-63924D01*
X92482Y-63931D01*
X92477Y-63944D01*
X92477Y-63963D01*
X92482Y-63977D01*
X92488Y-63983D01*
X92500Y-63990D01*
X92545Y-63990D01*
X92408Y-63977D02*
X92420Y-63970D01*
X92425Y-63963D01*
X92431Y-63950D01*
X92431Y-63944D01*
X92425Y-63931D01*
X92420Y-63924D01*
X92408Y-63917D01*
X92385Y-63917D01*
X92374Y-63924D01*
X92368Y-63931D01*
X92362Y-63944D01*
X92362Y-63950D01*
X92368Y-63963D01*
X92374Y-63970D01*
X92385Y-63977D01*
X92408Y-63977D01*
X92420Y-63983D01*
X92425Y-63990D01*
X92431Y-64003D01*
X92431Y-64029D01*
X92425Y-64042D01*
X92420Y-64049D01*
X92408Y-64055D01*
X92385Y-64055D01*
X92374Y-64049D01*
X92368Y-64042D01*
X92362Y-64029D01*
X92362Y-64003D01*
X92368Y-63990D01*
X92374Y-63983D01*
X92385Y-63977D01*
X92260Y-63917D02*
X92282Y-63917D01*
X92294Y-63924D01*
X92300Y-63931D01*
X92311Y-63950D01*
X92317Y-63977D01*
X92317Y-64029D01*
X92311Y-64042D01*
X92305Y-64049D01*
X92294Y-64055D01*
X92271Y-64055D01*
X92260Y-64049D01*
X92254Y-64042D01*
X92248Y-64029D01*
X92248Y-63996D01*
X92254Y-63983D01*
X92260Y-63977D01*
X92271Y-63970D01*
X92294Y-63970D01*
X92305Y-63977D01*
X92311Y-63983D01*
X92317Y-63996D01*
X92477Y-63655D02*
X92517Y-63590D01*
X92545Y-63655D02*
X92545Y-63517D01*
X92500Y-63517D01*
X92488Y-63524D01*
X92482Y-63531D01*
X92477Y-63544D01*
X92477Y-63563D01*
X92482Y-63577D01*
X92488Y-63583D01*
X92500Y-63590D01*
X92545Y-63590D01*
X92408Y-63577D02*
X92420Y-63570D01*
X92425Y-63563D01*
X92431Y-63550D01*
X92431Y-63544D01*
X92425Y-63531D01*
X92420Y-63524D01*
X92408Y-63517D01*
X92385Y-63517D01*
X92374Y-63524D01*
X92368Y-63531D01*
X92362Y-63544D01*
X92362Y-63550D01*
X92368Y-63563D01*
X92374Y-63570D01*
X92385Y-63577D01*
X92408Y-63577D01*
X92420Y-63583D01*
X92425Y-63590D01*
X92431Y-63603D01*
X92431Y-63629D01*
X92425Y-63642D01*
X92420Y-63649D01*
X92408Y-63655D01*
X92385Y-63655D01*
X92374Y-63649D01*
X92368Y-63642D01*
X92362Y-63629D01*
X92362Y-63603D01*
X92368Y-63590D01*
X92374Y-63583D01*
X92385Y-63577D01*
X92322Y-63517D02*
X92242Y-63517D01*
X92294Y-63655D01*
X92477Y-64855D02*
X92517Y-64790D01*
X92545Y-64855D02*
X92545Y-64717D01*
X92500Y-64717D01*
X92488Y-64724D01*
X92482Y-64731D01*
X92477Y-64744D01*
X92477Y-64763D01*
X92482Y-64777D01*
X92488Y-64783D01*
X92500Y-64790D01*
X92545Y-64790D01*
X92362Y-64855D02*
X92431Y-64855D01*
X92397Y-64855D02*
X92397Y-64717D01*
X92408Y-64737D01*
X92420Y-64750D01*
X92431Y-64757D01*
X92305Y-64855D02*
X92282Y-64855D01*
X92271Y-64849D01*
X92265Y-64842D01*
X92254Y-64823D01*
X92248Y-64796D01*
X92248Y-64744D01*
X92254Y-64731D01*
X92260Y-64724D01*
X92271Y-64717D01*
X92294Y-64717D01*
X92305Y-64724D01*
X92311Y-64731D01*
X92317Y-64744D01*
X92317Y-64777D01*
X92311Y-64790D01*
X92305Y-64796D01*
X92294Y-64803D01*
X92271Y-64803D01*
X92260Y-64796D01*
X92254Y-64790D01*
X92248Y-64777D01*
X92477Y-66855D02*
X92517Y-66790D01*
X92545Y-66855D02*
X92545Y-66717D01*
X92500Y-66717D01*
X92488Y-66724D01*
X92482Y-66731D01*
X92477Y-66744D01*
X92477Y-66763D01*
X92482Y-66777D01*
X92488Y-66783D01*
X92500Y-66790D01*
X92545Y-66790D01*
X92408Y-66777D02*
X92420Y-66770D01*
X92425Y-66763D01*
X92431Y-66750D01*
X92431Y-66744D01*
X92425Y-66731D01*
X92420Y-66724D01*
X92408Y-66717D01*
X92385Y-66717D01*
X92374Y-66724D01*
X92368Y-66731D01*
X92362Y-66744D01*
X92362Y-66750D01*
X92368Y-66763D01*
X92374Y-66770D01*
X92385Y-66777D01*
X92408Y-66777D01*
X92420Y-66783D01*
X92425Y-66790D01*
X92431Y-66803D01*
X92431Y-66829D01*
X92425Y-66842D01*
X92420Y-66849D01*
X92408Y-66855D01*
X92385Y-66855D01*
X92374Y-66849D01*
X92368Y-66842D01*
X92362Y-66829D01*
X92362Y-66803D01*
X92368Y-66790D01*
X92374Y-66783D01*
X92385Y-66777D01*
X92288Y-66717D02*
X92277Y-66717D01*
X92265Y-66724D01*
X92260Y-66731D01*
X92254Y-66744D01*
X92248Y-66770D01*
X92248Y-66803D01*
X92254Y-66829D01*
X92260Y-66842D01*
X92265Y-66849D01*
X92277Y-66855D01*
X92288Y-66855D01*
X92300Y-66849D01*
X92305Y-66842D01*
X92311Y-66829D01*
X92317Y-66803D01*
X92317Y-66770D01*
X92311Y-66744D01*
X92305Y-66731D01*
X92300Y-66724D01*
X92288Y-66717D01*
X92477Y-66055D02*
X92517Y-65990D01*
X92545Y-66055D02*
X92545Y-65917D01*
X92500Y-65917D01*
X92488Y-65924D01*
X92482Y-65931D01*
X92477Y-65944D01*
X92477Y-65963D01*
X92482Y-65977D01*
X92488Y-65983D01*
X92500Y-65990D01*
X92545Y-65990D01*
X92408Y-65977D02*
X92420Y-65970D01*
X92425Y-65963D01*
X92431Y-65950D01*
X92431Y-65944D01*
X92425Y-65931D01*
X92420Y-65924D01*
X92408Y-65917D01*
X92385Y-65917D01*
X92374Y-65924D01*
X92368Y-65931D01*
X92362Y-65944D01*
X92362Y-65950D01*
X92368Y-65963D01*
X92374Y-65970D01*
X92385Y-65977D01*
X92408Y-65977D01*
X92420Y-65983D01*
X92425Y-65990D01*
X92431Y-66003D01*
X92431Y-66029D01*
X92425Y-66042D01*
X92420Y-66049D01*
X92408Y-66055D01*
X92385Y-66055D01*
X92374Y-66049D01*
X92368Y-66042D01*
X92362Y-66029D01*
X92362Y-66003D01*
X92368Y-65990D01*
X92374Y-65983D01*
X92385Y-65977D01*
X92294Y-65977D02*
X92305Y-65970D01*
X92311Y-65963D01*
X92317Y-65950D01*
X92317Y-65944D01*
X92311Y-65931D01*
X92305Y-65924D01*
X92294Y-65917D01*
X92271Y-65917D01*
X92260Y-65924D01*
X92254Y-65931D01*
X92248Y-65944D01*
X92248Y-65950D01*
X92254Y-65963D01*
X92260Y-65970D01*
X92271Y-65977D01*
X92294Y-65977D01*
X92305Y-65983D01*
X92311Y-65990D01*
X92317Y-66003D01*
X92317Y-66029D01*
X92311Y-66042D01*
X92305Y-66049D01*
X92294Y-66055D01*
X92271Y-66055D01*
X92260Y-66049D01*
X92254Y-66042D01*
X92248Y-66029D01*
X92248Y-66003D01*
X92254Y-65990D01*
X92260Y-65983D01*
X92271Y-65977D01*
X92477Y-64455D02*
X92517Y-64390D01*
X92545Y-64455D02*
X92545Y-64317D01*
X92500Y-64317D01*
X92488Y-64324D01*
X92482Y-64331D01*
X92477Y-64344D01*
X92477Y-64363D01*
X92482Y-64377D01*
X92488Y-64383D01*
X92500Y-64390D01*
X92545Y-64390D01*
X92362Y-64455D02*
X92431Y-64455D01*
X92397Y-64455D02*
X92397Y-64317D01*
X92408Y-64337D01*
X92420Y-64350D01*
X92431Y-64357D01*
X92294Y-64377D02*
X92305Y-64370D01*
X92311Y-64363D01*
X92317Y-64350D01*
X92317Y-64344D01*
X92311Y-64331D01*
X92305Y-64324D01*
X92294Y-64317D01*
X92271Y-64317D01*
X92260Y-64324D01*
X92254Y-64331D01*
X92248Y-64344D01*
X92248Y-64350D01*
X92254Y-64363D01*
X92260Y-64370D01*
X92271Y-64377D01*
X92294Y-64377D01*
X92305Y-64383D01*
X92311Y-64390D01*
X92317Y-64403D01*
X92317Y-64429D01*
X92311Y-64442D01*
X92305Y-64449D01*
X92294Y-64455D01*
X92271Y-64455D01*
X92260Y-64449D01*
X92254Y-64442D01*
X92248Y-64429D01*
X92248Y-64403D01*
X92254Y-64390D01*
X92260Y-64383D01*
X92271Y-64377D01*
X87920Y-64155D02*
X87960Y-64090D01*
X87988Y-64155D02*
X87988Y-64017D01*
X87942Y-64017D01*
X87931Y-64024D01*
X87925Y-64031D01*
X87920Y-64044D01*
X87920Y-64063D01*
X87925Y-64077D01*
X87931Y-64083D01*
X87942Y-64090D01*
X87988Y-64090D01*
X87845Y-64017D02*
X87834Y-64017D01*
X87822Y-64024D01*
X87817Y-64031D01*
X87811Y-64044D01*
X87805Y-64070D01*
X87805Y-64103D01*
X87811Y-64129D01*
X87817Y-64142D01*
X87822Y-64149D01*
X87834Y-64155D01*
X87845Y-64155D01*
X87857Y-64149D01*
X87862Y-64142D01*
X87868Y-64129D01*
X87874Y-64103D01*
X87874Y-64070D01*
X87868Y-64044D01*
X87862Y-64031D01*
X87857Y-64024D01*
X87845Y-64017D01*
X90342Y-67222D02*
X90349Y-67217D01*
X90355Y-67200D01*
X90355Y-67188D01*
X90349Y-67171D01*
X90336Y-67160D01*
X90323Y-67154D01*
X90296Y-67148D01*
X90277Y-67148D01*
X90250Y-67154D01*
X90237Y-67160D01*
X90224Y-67171D01*
X90217Y-67188D01*
X90217Y-67200D01*
X90224Y-67217D01*
X90231Y-67222D01*
X90355Y-67337D02*
X90355Y-67268D01*
X90355Y-67302D02*
X90217Y-67302D01*
X90237Y-67291D01*
X90250Y-67280D01*
X90257Y-67268D01*
X90217Y-67440D02*
X90217Y-67417D01*
X90224Y-67405D01*
X90231Y-67400D01*
X90250Y-67388D01*
X90277Y-67382D01*
X90329Y-67382D01*
X90342Y-67388D01*
X90349Y-67394D01*
X90355Y-67405D01*
X90355Y-67428D01*
X90349Y-67440D01*
X90342Y-67445D01*
X90329Y-67451D01*
X90296Y-67451D01*
X90283Y-67445D01*
X90277Y-67440D01*
X90270Y-67428D01*
X90270Y-67405D01*
X90277Y-67394D01*
X90283Y-67388D01*
X90296Y-67382D01*
G54D15*
X93345Y-62826D02*
X93405Y-62826D01*
X93405Y-62930D02*
X93405Y-62730D01*
X93320Y-62730D01*
X93242Y-62930D02*
X93208Y-62930D01*
X93191Y-62921D01*
X93182Y-62911D01*
X93165Y-62883D01*
X93157Y-62845D01*
X93157Y-62769D01*
X93165Y-62750D01*
X93174Y-62740D01*
X93191Y-62730D01*
X93225Y-62730D01*
X93242Y-62740D01*
X93251Y-62750D01*
X93260Y-62769D01*
X93260Y-62816D01*
X93251Y-62835D01*
X93242Y-62845D01*
X93225Y-62854D01*
X93191Y-62854D01*
X93174Y-62845D01*
X93165Y-62835D01*
X93157Y-62816D01*
X93045Y-62730D02*
X93028Y-62730D01*
X93011Y-62740D01*
X93002Y-62750D01*
X92994Y-62769D01*
X92985Y-62807D01*
X92985Y-62854D01*
X92994Y-62892D01*
X93002Y-62911D01*
X93011Y-62921D01*
X93028Y-62930D01*
X93045Y-62930D01*
X93062Y-62921D01*
X93071Y-62911D01*
X93080Y-62892D01*
X93088Y-62854D01*
X93088Y-62807D01*
X93080Y-62769D01*
X93071Y-62750D01*
X93062Y-62740D01*
X93045Y-62730D01*
X87810Y-63576D02*
X87870Y-63576D01*
X87870Y-63680D02*
X87870Y-63480D01*
X87784Y-63480D01*
X87681Y-63480D02*
X87664Y-63480D01*
X87647Y-63490D01*
X87638Y-63500D01*
X87630Y-63519D01*
X87621Y-63557D01*
X87621Y-63604D01*
X87630Y-63642D01*
X87638Y-63661D01*
X87647Y-63671D01*
X87664Y-63680D01*
X87681Y-63680D01*
X87698Y-63671D01*
X87707Y-63661D01*
X87715Y-63642D01*
X87724Y-63604D01*
X87724Y-63557D01*
X87715Y-63519D01*
X87707Y-63500D01*
X87698Y-63490D01*
X87681Y-63480D01*
G54D11*
X87927Y-66955D02*
X87967Y-66890D01*
X87995Y-66955D02*
X87995Y-66817D01*
X87950Y-66817D01*
X87938Y-66824D01*
X87932Y-66831D01*
X87927Y-66844D01*
X87927Y-66863D01*
X87932Y-66877D01*
X87938Y-66883D01*
X87950Y-66890D01*
X87995Y-66890D01*
X87812Y-66955D02*
X87881Y-66955D01*
X87847Y-66955D02*
X87847Y-66817D01*
X87858Y-66837D01*
X87870Y-66850D01*
X87881Y-66857D01*
X87698Y-66955D02*
X87767Y-66955D01*
X87732Y-66955D02*
X87732Y-66817D01*
X87744Y-66837D01*
X87755Y-66850D01*
X87767Y-66857D01*
X87927Y-65755D02*
X87967Y-65690D01*
X87995Y-65755D02*
X87995Y-65617D01*
X87950Y-65617D01*
X87938Y-65624D01*
X87932Y-65631D01*
X87927Y-65644D01*
X87927Y-65663D01*
X87932Y-65677D01*
X87938Y-65683D01*
X87950Y-65690D01*
X87995Y-65690D01*
X87812Y-65755D02*
X87881Y-65755D01*
X87847Y-65755D02*
X87847Y-65617D01*
X87858Y-65637D01*
X87870Y-65650D01*
X87881Y-65657D01*
X87767Y-65631D02*
X87761Y-65624D01*
X87750Y-65617D01*
X87721Y-65617D01*
X87710Y-65624D01*
X87704Y-65631D01*
X87698Y-65644D01*
X87698Y-65657D01*
X87704Y-65677D01*
X87772Y-65755D01*
X87698Y-65755D01*
G54D15*
X87982Y-66613D02*
X87982Y-66333D01*
X87940Y-66333D01*
X87914Y-66346D01*
X87897Y-66373D01*
X87888Y-66400D01*
X87880Y-66453D01*
X87880Y-66493D01*
X87888Y-66546D01*
X87897Y-66573D01*
X87914Y-66600D01*
X87940Y-66613D01*
X87982Y-66613D01*
X87708Y-66613D02*
X87811Y-66613D01*
X87760Y-66613D02*
X87760Y-66333D01*
X87777Y-66373D01*
X87794Y-66400D01*
X87811Y-66413D01*
X87982Y-65413D02*
X87982Y-65133D01*
X87940Y-65133D01*
X87914Y-65146D01*
X87897Y-65173D01*
X87888Y-65200D01*
X87880Y-65253D01*
X87880Y-65293D01*
X87888Y-65346D01*
X87897Y-65373D01*
X87914Y-65400D01*
X87940Y-65413D01*
X87982Y-65413D01*
X87768Y-65133D02*
X87751Y-65133D01*
X87734Y-65146D01*
X87725Y-65160D01*
X87717Y-65186D01*
X87708Y-65240D01*
X87708Y-65306D01*
X87717Y-65360D01*
X87725Y-65386D01*
X87734Y-65400D01*
X87751Y-65413D01*
X87768Y-65413D01*
X87785Y-65400D01*
X87794Y-65386D01*
X87802Y-65360D01*
X87811Y-65306D01*
X87811Y-65240D01*
X87802Y-65186D01*
X87794Y-65160D01*
X87785Y-65146D01*
X87768Y-65133D01*
M02*
