G04 (created by PCBNEW (2013-04-19 BZR 4011)-stable) date 11/08/2014 13:36:20*
%MOIN*%
G04 Gerber Fmt 3.4, Leading zero omitted, Abs format*
%FSLAX34Y34*%
G01*
G70*
G90*
G04 APERTURE LIST*
%ADD10C,2.3622e-006*%
%ADD11C,0.025*%
%ADD12C,0.02*%
%ADD13C,0.008*%
%ADD14C,0.01*%
G04 APERTURE END LIST*
G54D10*
G54D11*
X91400Y-66400D03*
X90300Y-63550D03*
X90250Y-64500D03*
X91550Y-66700D03*
X91900Y-65700D03*
X91700Y-67000D03*
X92223Y-66800D03*
X91900Y-63100D03*
X88400Y-63950D03*
X90050Y-64000D03*
X91900Y-66200D03*
X89800Y-65200D03*
X88500Y-64900D03*
X91200Y-64350D03*
X91900Y-64600D03*
X91300Y-63450D03*
X91200Y-65350D03*
X90750Y-63800D03*
X91900Y-65350D03*
X88750Y-64650D03*
X90050Y-64950D03*
X91900Y-64950D03*
X90950Y-64100D03*
X87400Y-65900D03*
X88900Y-65200D03*
X90200Y-66950D03*
X89300Y-66950D03*
X93250Y-65700D03*
X92850Y-63400D03*
X92850Y-67200D03*
X93100Y-64650D03*
X92950Y-64950D03*
X89800Y-64700D03*
X89450Y-64650D03*
X88650Y-66800D03*
X88000Y-63200D03*
X88800Y-63400D03*
X88400Y-66550D03*
X92050Y-67600D03*
X90700Y-66950D03*
X92750Y-62800D03*
X87200Y-66200D03*
X86850Y-64200D03*
X86900Y-65200D03*
X87350Y-65450D03*
X87450Y-66700D03*
X88800Y-65800D03*
X93100Y-63750D03*
X91800Y-64250D03*
X90700Y-66600D03*
X88300Y-63000D03*
X92750Y-67600D03*
G54D12*
X86550Y-64500D02*
X86550Y-65550D01*
X86550Y-65550D02*
X87200Y-66200D01*
X86850Y-64200D02*
X86550Y-64500D01*
G54D13*
X91800Y-64250D02*
X91650Y-64250D01*
X91650Y-64250D02*
X90400Y-63000D01*
X87450Y-66700D02*
X88350Y-65800D01*
X88350Y-65800D02*
X88800Y-65800D01*
X88800Y-65800D02*
X89900Y-65800D01*
X89900Y-65800D02*
X90700Y-66600D01*
X92200Y-64250D02*
X91800Y-64250D01*
X91800Y-64250D02*
X90700Y-65350D01*
X90700Y-65350D02*
X90700Y-66600D01*
X93100Y-63750D02*
X92300Y-63750D01*
X92300Y-63750D02*
X91800Y-64250D01*
X90400Y-63000D02*
X88300Y-63000D01*
X92750Y-67600D02*
X92550Y-67400D01*
X92550Y-64600D02*
X92200Y-64250D01*
X92550Y-67400D02*
X92550Y-64600D01*
G54D10*
G36*
X94425Y-67675D02*
X93525Y-67675D01*
X93525Y-65645D01*
X93483Y-65544D01*
X93405Y-65467D01*
X93375Y-65454D01*
X93375Y-64595D01*
X93333Y-64494D01*
X93255Y-64417D01*
X93154Y-64375D01*
X93125Y-64375D01*
X93125Y-63345D01*
X93083Y-63244D01*
X93005Y-63167D01*
X92904Y-63125D01*
X92795Y-63124D01*
X92694Y-63166D01*
X92617Y-63244D01*
X92575Y-63345D01*
X92574Y-63454D01*
X92616Y-63555D01*
X92694Y-63632D01*
X92795Y-63674D01*
X92904Y-63675D01*
X93005Y-63633D01*
X93082Y-63555D01*
X93124Y-63454D01*
X93125Y-63345D01*
X93125Y-64375D01*
X93045Y-64374D01*
X92944Y-64416D01*
X92867Y-64494D01*
X92825Y-64595D01*
X92824Y-64704D01*
X92794Y-64716D01*
X92717Y-64794D01*
X92675Y-64895D01*
X92674Y-65004D01*
X92716Y-65105D01*
X92794Y-65182D01*
X92895Y-65224D01*
X93004Y-65225D01*
X93105Y-65183D01*
X93182Y-65105D01*
X93224Y-65004D01*
X93225Y-64895D01*
X93255Y-64883D01*
X93332Y-64805D01*
X93374Y-64704D01*
X93375Y-64595D01*
X93375Y-65454D01*
X93304Y-65425D01*
X93195Y-65424D01*
X93094Y-65466D01*
X93017Y-65544D01*
X92975Y-65645D01*
X92974Y-65754D01*
X93016Y-65855D01*
X93094Y-65932D01*
X93195Y-65974D01*
X93304Y-65975D01*
X93405Y-65933D01*
X93482Y-65855D01*
X93524Y-65754D01*
X93525Y-65645D01*
X93525Y-67675D01*
X93125Y-67675D01*
X93125Y-67145D01*
X93083Y-67044D01*
X93005Y-66967D01*
X92904Y-66925D01*
X92795Y-66924D01*
X92694Y-66966D01*
X92617Y-67044D01*
X92575Y-67145D01*
X92574Y-67254D01*
X92616Y-67355D01*
X92694Y-67432D01*
X92795Y-67474D01*
X92904Y-67475D01*
X93005Y-67433D01*
X93082Y-67355D01*
X93124Y-67254D01*
X93125Y-67145D01*
X93125Y-67675D01*
X92498Y-67675D01*
X92498Y-66745D01*
X92456Y-66644D01*
X92378Y-66567D01*
X92277Y-66525D01*
X92175Y-66524D01*
X92175Y-66145D01*
X92133Y-66044D01*
X92055Y-65967D01*
X92015Y-65950D01*
X92055Y-65933D01*
X92132Y-65855D01*
X92174Y-65754D01*
X92175Y-65645D01*
X92133Y-65544D01*
X92113Y-65525D01*
X92132Y-65505D01*
X92174Y-65404D01*
X92175Y-65295D01*
X92133Y-65194D01*
X92088Y-65149D01*
X92132Y-65105D01*
X92174Y-65004D01*
X92175Y-64895D01*
X92133Y-64794D01*
X92113Y-64775D01*
X92132Y-64755D01*
X92174Y-64654D01*
X92175Y-64545D01*
X92175Y-63045D01*
X92133Y-62944D01*
X92055Y-62867D01*
X91954Y-62825D01*
X91845Y-62824D01*
X91744Y-62866D01*
X91667Y-62944D01*
X91625Y-63045D01*
X91624Y-63154D01*
X91666Y-63255D01*
X91744Y-63332D01*
X91845Y-63374D01*
X91954Y-63375D01*
X92055Y-63333D01*
X92132Y-63255D01*
X92174Y-63154D01*
X92175Y-63045D01*
X92175Y-64545D01*
X92133Y-64444D01*
X92055Y-64367D01*
X91954Y-64325D01*
X91845Y-64324D01*
X91744Y-64366D01*
X91667Y-64444D01*
X91625Y-64545D01*
X91624Y-64654D01*
X91666Y-64755D01*
X91686Y-64774D01*
X91667Y-64794D01*
X91625Y-64895D01*
X91624Y-65004D01*
X91666Y-65105D01*
X91711Y-65150D01*
X91667Y-65194D01*
X91625Y-65295D01*
X91624Y-65404D01*
X91666Y-65505D01*
X91686Y-65524D01*
X91667Y-65544D01*
X91625Y-65645D01*
X91624Y-65754D01*
X91666Y-65855D01*
X91744Y-65932D01*
X91784Y-65949D01*
X91744Y-65966D01*
X91667Y-66044D01*
X91625Y-66145D01*
X91624Y-66236D01*
X91575Y-66186D01*
X91575Y-63395D01*
X91533Y-63294D01*
X91455Y-63217D01*
X91354Y-63175D01*
X91245Y-63174D01*
X91144Y-63216D01*
X91067Y-63294D01*
X91025Y-63395D01*
X91024Y-63504D01*
X91066Y-63605D01*
X91144Y-63682D01*
X91245Y-63724D01*
X91354Y-63725D01*
X91455Y-63683D01*
X91532Y-63605D01*
X91574Y-63504D01*
X91575Y-63395D01*
X91575Y-66186D01*
X91555Y-66167D01*
X91475Y-66133D01*
X91475Y-65295D01*
X91475Y-64295D01*
X91433Y-64194D01*
X91355Y-64117D01*
X91254Y-64075D01*
X91225Y-64075D01*
X91225Y-64045D01*
X91183Y-63944D01*
X91105Y-63867D01*
X91024Y-63833D01*
X91025Y-63745D01*
X90983Y-63644D01*
X90905Y-63567D01*
X90804Y-63525D01*
X90695Y-63524D01*
X90594Y-63566D01*
X90574Y-63586D01*
X90575Y-63495D01*
X90533Y-63394D01*
X90455Y-63317D01*
X90354Y-63275D01*
X90245Y-63274D01*
X90144Y-63316D01*
X90067Y-63394D01*
X90025Y-63495D01*
X90024Y-63604D01*
X90066Y-63705D01*
X90086Y-63725D01*
X89995Y-63724D01*
X89894Y-63766D01*
X89817Y-63844D01*
X89775Y-63945D01*
X89774Y-64054D01*
X89816Y-64155D01*
X89894Y-64232D01*
X89995Y-64274D01*
X90086Y-64275D01*
X90017Y-64344D01*
X89975Y-64445D01*
X89975Y-64486D01*
X89955Y-64467D01*
X89854Y-64425D01*
X89745Y-64424D01*
X89652Y-64463D01*
X89605Y-64417D01*
X89504Y-64375D01*
X89395Y-64374D01*
X89294Y-64416D01*
X89217Y-64494D01*
X89175Y-64595D01*
X89174Y-64704D01*
X89216Y-64805D01*
X89294Y-64882D01*
X89395Y-64924D01*
X89504Y-64925D01*
X89597Y-64886D01*
X89644Y-64932D01*
X89684Y-64949D01*
X89644Y-64966D01*
X89567Y-65044D01*
X89525Y-65145D01*
X89524Y-65254D01*
X89566Y-65355D01*
X89644Y-65432D01*
X89745Y-65474D01*
X89854Y-65475D01*
X89955Y-65433D01*
X90032Y-65355D01*
X90074Y-65254D01*
X90074Y-65225D01*
X90104Y-65225D01*
X90205Y-65183D01*
X90282Y-65105D01*
X90324Y-65004D01*
X90325Y-64895D01*
X90283Y-64794D01*
X90263Y-64775D01*
X90304Y-64775D01*
X90405Y-64733D01*
X90482Y-64655D01*
X90524Y-64554D01*
X90525Y-64445D01*
X90483Y-64344D01*
X90405Y-64267D01*
X90304Y-64225D01*
X90213Y-64224D01*
X90282Y-64155D01*
X90324Y-64054D01*
X90325Y-63945D01*
X90283Y-63844D01*
X90263Y-63824D01*
X90354Y-63825D01*
X90455Y-63783D01*
X90475Y-63763D01*
X90474Y-63854D01*
X90516Y-63955D01*
X90594Y-64032D01*
X90675Y-64066D01*
X90674Y-64154D01*
X90716Y-64255D01*
X90794Y-64332D01*
X90895Y-64374D01*
X90924Y-64374D01*
X90924Y-64404D01*
X90966Y-64505D01*
X91044Y-64582D01*
X91145Y-64624D01*
X91254Y-64625D01*
X91355Y-64583D01*
X91432Y-64505D01*
X91474Y-64404D01*
X91475Y-64295D01*
X91475Y-65295D01*
X91433Y-65194D01*
X91355Y-65117D01*
X91254Y-65075D01*
X91145Y-65074D01*
X91044Y-65116D01*
X90967Y-65194D01*
X90925Y-65295D01*
X90924Y-65404D01*
X90966Y-65505D01*
X91044Y-65582D01*
X91145Y-65624D01*
X91254Y-65625D01*
X91355Y-65583D01*
X91432Y-65505D01*
X91474Y-65404D01*
X91475Y-65295D01*
X91475Y-66133D01*
X91454Y-66125D01*
X91345Y-66124D01*
X91244Y-66166D01*
X91167Y-66244D01*
X91125Y-66345D01*
X91124Y-66454D01*
X91166Y-66555D01*
X91244Y-66632D01*
X91275Y-66645D01*
X91274Y-66754D01*
X91316Y-66855D01*
X91394Y-66932D01*
X91425Y-66945D01*
X91424Y-67054D01*
X91466Y-67155D01*
X91544Y-67232D01*
X91645Y-67274D01*
X91754Y-67275D01*
X91855Y-67233D01*
X91932Y-67155D01*
X91974Y-67054D01*
X91975Y-66945D01*
X91933Y-66844D01*
X91855Y-66767D01*
X91824Y-66754D01*
X91825Y-66645D01*
X91783Y-66544D01*
X91705Y-66467D01*
X91674Y-66454D01*
X91675Y-66363D01*
X91744Y-66432D01*
X91845Y-66474D01*
X91954Y-66475D01*
X92055Y-66433D01*
X92132Y-66355D01*
X92174Y-66254D01*
X92175Y-66145D01*
X92175Y-66524D01*
X92168Y-66524D01*
X92067Y-66566D01*
X91990Y-66644D01*
X91948Y-66745D01*
X91947Y-66854D01*
X91989Y-66955D01*
X92067Y-67032D01*
X92168Y-67074D01*
X92277Y-67075D01*
X92378Y-67033D01*
X92455Y-66955D01*
X92497Y-66854D01*
X92498Y-66745D01*
X92498Y-67675D01*
X92316Y-67675D01*
X92324Y-67654D01*
X92325Y-67545D01*
X92283Y-67444D01*
X92205Y-67367D01*
X92104Y-67325D01*
X91995Y-67324D01*
X91894Y-67366D01*
X91817Y-67444D01*
X91775Y-67545D01*
X91774Y-67654D01*
X91783Y-67675D01*
X90975Y-67675D01*
X90975Y-66895D01*
X90933Y-66794D01*
X90855Y-66717D01*
X90754Y-66675D01*
X90645Y-66674D01*
X90544Y-66716D01*
X90467Y-66794D01*
X90450Y-66834D01*
X90433Y-66794D01*
X90355Y-66717D01*
X90254Y-66675D01*
X90145Y-66674D01*
X90044Y-66716D01*
X89967Y-66794D01*
X89925Y-66895D01*
X89924Y-67004D01*
X89966Y-67105D01*
X90044Y-67182D01*
X90145Y-67224D01*
X90254Y-67225D01*
X90355Y-67183D01*
X90432Y-67105D01*
X90449Y-67065D01*
X90466Y-67105D01*
X90544Y-67182D01*
X90645Y-67224D01*
X90754Y-67225D01*
X90855Y-67183D01*
X90932Y-67105D01*
X90974Y-67004D01*
X90975Y-66895D01*
X90975Y-67675D01*
X89575Y-67675D01*
X89575Y-66895D01*
X89533Y-66794D01*
X89455Y-66717D01*
X89354Y-66675D01*
X89245Y-66674D01*
X89175Y-66704D01*
X89175Y-65145D01*
X89133Y-65044D01*
X89075Y-64986D01*
X89075Y-63345D01*
X89033Y-63244D01*
X88955Y-63167D01*
X88854Y-63125D01*
X88745Y-63124D01*
X88644Y-63166D01*
X88567Y-63244D01*
X88525Y-63345D01*
X88524Y-63454D01*
X88566Y-63555D01*
X88644Y-63632D01*
X88745Y-63674D01*
X88854Y-63675D01*
X88955Y-63633D01*
X89032Y-63555D01*
X89074Y-63454D01*
X89075Y-63345D01*
X89075Y-64986D01*
X89055Y-64967D01*
X88954Y-64925D01*
X88845Y-64924D01*
X88774Y-64954D01*
X88774Y-64925D01*
X88804Y-64925D01*
X88905Y-64883D01*
X88982Y-64805D01*
X89024Y-64704D01*
X89025Y-64595D01*
X88983Y-64494D01*
X88905Y-64417D01*
X88804Y-64375D01*
X88695Y-64374D01*
X88675Y-64383D01*
X88675Y-63895D01*
X88633Y-63794D01*
X88555Y-63717D01*
X88454Y-63675D01*
X88345Y-63674D01*
X88244Y-63716D01*
X88167Y-63794D01*
X88125Y-63895D01*
X88124Y-64004D01*
X88166Y-64105D01*
X88244Y-64182D01*
X88345Y-64224D01*
X88454Y-64225D01*
X88555Y-64183D01*
X88632Y-64105D01*
X88674Y-64004D01*
X88675Y-63895D01*
X88675Y-64383D01*
X88594Y-64416D01*
X88517Y-64494D01*
X88475Y-64595D01*
X88475Y-64624D01*
X88445Y-64624D01*
X88344Y-64666D01*
X88267Y-64744D01*
X88225Y-64845D01*
X88224Y-64954D01*
X88266Y-65055D01*
X88344Y-65132D01*
X88445Y-65174D01*
X88554Y-65175D01*
X88625Y-65145D01*
X88624Y-65254D01*
X88666Y-65355D01*
X88744Y-65432D01*
X88845Y-65474D01*
X88954Y-65475D01*
X89055Y-65433D01*
X89132Y-65355D01*
X89174Y-65254D01*
X89175Y-65145D01*
X89175Y-66704D01*
X89144Y-66716D01*
X89067Y-66794D01*
X89025Y-66895D01*
X89024Y-67004D01*
X89066Y-67105D01*
X89144Y-67182D01*
X89245Y-67224D01*
X89354Y-67225D01*
X89455Y-67183D01*
X89532Y-67105D01*
X89574Y-67004D01*
X89575Y-66895D01*
X89575Y-67675D01*
X88925Y-67675D01*
X88925Y-66745D01*
X88883Y-66644D01*
X88805Y-66567D01*
X88704Y-66525D01*
X88675Y-66525D01*
X88675Y-66495D01*
X88633Y-66394D01*
X88555Y-66317D01*
X88454Y-66275D01*
X88345Y-66274D01*
X88244Y-66316D01*
X88167Y-66394D01*
X88125Y-66495D01*
X88124Y-66604D01*
X88166Y-66705D01*
X88244Y-66782D01*
X88345Y-66824D01*
X88374Y-66824D01*
X88374Y-66854D01*
X88416Y-66955D01*
X88494Y-67032D01*
X88595Y-67074D01*
X88704Y-67075D01*
X88805Y-67033D01*
X88882Y-66955D01*
X88924Y-66854D01*
X88925Y-66745D01*
X88925Y-67675D01*
X88372Y-67675D01*
X87773Y-67076D01*
X87716Y-67038D01*
X87675Y-67029D01*
X87675Y-65845D01*
X87633Y-65744D01*
X87555Y-65667D01*
X87531Y-65656D01*
X87582Y-65605D01*
X87624Y-65504D01*
X87625Y-65395D01*
X87583Y-65294D01*
X87505Y-65217D01*
X87404Y-65175D01*
X87295Y-65174D01*
X87194Y-65216D01*
X87174Y-65236D01*
X87175Y-65145D01*
X87133Y-65044D01*
X87055Y-64967D01*
X86954Y-64925D01*
X86845Y-64924D01*
X86800Y-64943D01*
X86800Y-64603D01*
X86945Y-64458D01*
X87005Y-64433D01*
X87082Y-64355D01*
X87124Y-64254D01*
X87125Y-64145D01*
X87083Y-64044D01*
X87005Y-63967D01*
X86904Y-63925D01*
X86795Y-63924D01*
X86694Y-63966D01*
X86617Y-64044D01*
X86591Y-64104D01*
X86373Y-64323D01*
X86319Y-64404D01*
X86300Y-64500D01*
X86300Y-65550D01*
X86319Y-65645D01*
X86373Y-65726D01*
X86941Y-66295D01*
X86966Y-66355D01*
X87044Y-66432D01*
X87145Y-66474D01*
X87254Y-66475D01*
X87355Y-66433D01*
X87432Y-66355D01*
X87474Y-66254D01*
X87475Y-66166D01*
X87555Y-66133D01*
X87632Y-66055D01*
X87674Y-65954D01*
X87675Y-65845D01*
X87675Y-67029D01*
X87650Y-67025D01*
X85875Y-67025D01*
X85875Y-63375D01*
X87650Y-63375D01*
X87716Y-63361D01*
X87716Y-63361D01*
X87757Y-63334D01*
X87766Y-63355D01*
X87844Y-63432D01*
X87945Y-63474D01*
X88054Y-63475D01*
X88155Y-63433D01*
X88232Y-63355D01*
X88274Y-63254D01*
X88275Y-63145D01*
X88233Y-63044D01*
X88155Y-62967D01*
X88137Y-62959D01*
X88372Y-62725D01*
X92483Y-62725D01*
X92475Y-62745D01*
X92474Y-62854D01*
X92516Y-62955D01*
X92594Y-63032D01*
X92695Y-63074D01*
X92804Y-63075D01*
X92905Y-63033D01*
X92982Y-62955D01*
X93024Y-62854D01*
X93025Y-62745D01*
X93016Y-62725D01*
X94425Y-62725D01*
X94425Y-67675D01*
X94425Y-67675D01*
G37*
G54D14*
X94425Y-67675D02*
X93525Y-67675D01*
X93525Y-65645D01*
X93483Y-65544D01*
X93405Y-65467D01*
X93375Y-65454D01*
X93375Y-64595D01*
X93333Y-64494D01*
X93255Y-64417D01*
X93154Y-64375D01*
X93125Y-64375D01*
X93125Y-63345D01*
X93083Y-63244D01*
X93005Y-63167D01*
X92904Y-63125D01*
X92795Y-63124D01*
X92694Y-63166D01*
X92617Y-63244D01*
X92575Y-63345D01*
X92574Y-63454D01*
X92616Y-63555D01*
X92694Y-63632D01*
X92795Y-63674D01*
X92904Y-63675D01*
X93005Y-63633D01*
X93082Y-63555D01*
X93124Y-63454D01*
X93125Y-63345D01*
X93125Y-64375D01*
X93045Y-64374D01*
X92944Y-64416D01*
X92867Y-64494D01*
X92825Y-64595D01*
X92824Y-64704D01*
X92794Y-64716D01*
X92717Y-64794D01*
X92675Y-64895D01*
X92674Y-65004D01*
X92716Y-65105D01*
X92794Y-65182D01*
X92895Y-65224D01*
X93004Y-65225D01*
X93105Y-65183D01*
X93182Y-65105D01*
X93224Y-65004D01*
X93225Y-64895D01*
X93255Y-64883D01*
X93332Y-64805D01*
X93374Y-64704D01*
X93375Y-64595D01*
X93375Y-65454D01*
X93304Y-65425D01*
X93195Y-65424D01*
X93094Y-65466D01*
X93017Y-65544D01*
X92975Y-65645D01*
X92974Y-65754D01*
X93016Y-65855D01*
X93094Y-65932D01*
X93195Y-65974D01*
X93304Y-65975D01*
X93405Y-65933D01*
X93482Y-65855D01*
X93524Y-65754D01*
X93525Y-65645D01*
X93525Y-67675D01*
X93125Y-67675D01*
X93125Y-67145D01*
X93083Y-67044D01*
X93005Y-66967D01*
X92904Y-66925D01*
X92795Y-66924D01*
X92694Y-66966D01*
X92617Y-67044D01*
X92575Y-67145D01*
X92574Y-67254D01*
X92616Y-67355D01*
X92694Y-67432D01*
X92795Y-67474D01*
X92904Y-67475D01*
X93005Y-67433D01*
X93082Y-67355D01*
X93124Y-67254D01*
X93125Y-67145D01*
X93125Y-67675D01*
X92498Y-67675D01*
X92498Y-66745D01*
X92456Y-66644D01*
X92378Y-66567D01*
X92277Y-66525D01*
X92175Y-66524D01*
X92175Y-66145D01*
X92133Y-66044D01*
X92055Y-65967D01*
X92015Y-65950D01*
X92055Y-65933D01*
X92132Y-65855D01*
X92174Y-65754D01*
X92175Y-65645D01*
X92133Y-65544D01*
X92113Y-65525D01*
X92132Y-65505D01*
X92174Y-65404D01*
X92175Y-65295D01*
X92133Y-65194D01*
X92088Y-65149D01*
X92132Y-65105D01*
X92174Y-65004D01*
X92175Y-64895D01*
X92133Y-64794D01*
X92113Y-64775D01*
X92132Y-64755D01*
X92174Y-64654D01*
X92175Y-64545D01*
X92175Y-63045D01*
X92133Y-62944D01*
X92055Y-62867D01*
X91954Y-62825D01*
X91845Y-62824D01*
X91744Y-62866D01*
X91667Y-62944D01*
X91625Y-63045D01*
X91624Y-63154D01*
X91666Y-63255D01*
X91744Y-63332D01*
X91845Y-63374D01*
X91954Y-63375D01*
X92055Y-63333D01*
X92132Y-63255D01*
X92174Y-63154D01*
X92175Y-63045D01*
X92175Y-64545D01*
X92133Y-64444D01*
X92055Y-64367D01*
X91954Y-64325D01*
X91845Y-64324D01*
X91744Y-64366D01*
X91667Y-64444D01*
X91625Y-64545D01*
X91624Y-64654D01*
X91666Y-64755D01*
X91686Y-64774D01*
X91667Y-64794D01*
X91625Y-64895D01*
X91624Y-65004D01*
X91666Y-65105D01*
X91711Y-65150D01*
X91667Y-65194D01*
X91625Y-65295D01*
X91624Y-65404D01*
X91666Y-65505D01*
X91686Y-65524D01*
X91667Y-65544D01*
X91625Y-65645D01*
X91624Y-65754D01*
X91666Y-65855D01*
X91744Y-65932D01*
X91784Y-65949D01*
X91744Y-65966D01*
X91667Y-66044D01*
X91625Y-66145D01*
X91624Y-66236D01*
X91575Y-66186D01*
X91575Y-63395D01*
X91533Y-63294D01*
X91455Y-63217D01*
X91354Y-63175D01*
X91245Y-63174D01*
X91144Y-63216D01*
X91067Y-63294D01*
X91025Y-63395D01*
X91024Y-63504D01*
X91066Y-63605D01*
X91144Y-63682D01*
X91245Y-63724D01*
X91354Y-63725D01*
X91455Y-63683D01*
X91532Y-63605D01*
X91574Y-63504D01*
X91575Y-63395D01*
X91575Y-66186D01*
X91555Y-66167D01*
X91475Y-66133D01*
X91475Y-65295D01*
X91475Y-64295D01*
X91433Y-64194D01*
X91355Y-64117D01*
X91254Y-64075D01*
X91225Y-64075D01*
X91225Y-64045D01*
X91183Y-63944D01*
X91105Y-63867D01*
X91024Y-63833D01*
X91025Y-63745D01*
X90983Y-63644D01*
X90905Y-63567D01*
X90804Y-63525D01*
X90695Y-63524D01*
X90594Y-63566D01*
X90574Y-63586D01*
X90575Y-63495D01*
X90533Y-63394D01*
X90455Y-63317D01*
X90354Y-63275D01*
X90245Y-63274D01*
X90144Y-63316D01*
X90067Y-63394D01*
X90025Y-63495D01*
X90024Y-63604D01*
X90066Y-63705D01*
X90086Y-63725D01*
X89995Y-63724D01*
X89894Y-63766D01*
X89817Y-63844D01*
X89775Y-63945D01*
X89774Y-64054D01*
X89816Y-64155D01*
X89894Y-64232D01*
X89995Y-64274D01*
X90086Y-64275D01*
X90017Y-64344D01*
X89975Y-64445D01*
X89975Y-64486D01*
X89955Y-64467D01*
X89854Y-64425D01*
X89745Y-64424D01*
X89652Y-64463D01*
X89605Y-64417D01*
X89504Y-64375D01*
X89395Y-64374D01*
X89294Y-64416D01*
X89217Y-64494D01*
X89175Y-64595D01*
X89174Y-64704D01*
X89216Y-64805D01*
X89294Y-64882D01*
X89395Y-64924D01*
X89504Y-64925D01*
X89597Y-64886D01*
X89644Y-64932D01*
X89684Y-64949D01*
X89644Y-64966D01*
X89567Y-65044D01*
X89525Y-65145D01*
X89524Y-65254D01*
X89566Y-65355D01*
X89644Y-65432D01*
X89745Y-65474D01*
X89854Y-65475D01*
X89955Y-65433D01*
X90032Y-65355D01*
X90074Y-65254D01*
X90074Y-65225D01*
X90104Y-65225D01*
X90205Y-65183D01*
X90282Y-65105D01*
X90324Y-65004D01*
X90325Y-64895D01*
X90283Y-64794D01*
X90263Y-64775D01*
X90304Y-64775D01*
X90405Y-64733D01*
X90482Y-64655D01*
X90524Y-64554D01*
X90525Y-64445D01*
X90483Y-64344D01*
X90405Y-64267D01*
X90304Y-64225D01*
X90213Y-64224D01*
X90282Y-64155D01*
X90324Y-64054D01*
X90325Y-63945D01*
X90283Y-63844D01*
X90263Y-63824D01*
X90354Y-63825D01*
X90455Y-63783D01*
X90475Y-63763D01*
X90474Y-63854D01*
X90516Y-63955D01*
X90594Y-64032D01*
X90675Y-64066D01*
X90674Y-64154D01*
X90716Y-64255D01*
X90794Y-64332D01*
X90895Y-64374D01*
X90924Y-64374D01*
X90924Y-64404D01*
X90966Y-64505D01*
X91044Y-64582D01*
X91145Y-64624D01*
X91254Y-64625D01*
X91355Y-64583D01*
X91432Y-64505D01*
X91474Y-64404D01*
X91475Y-64295D01*
X91475Y-65295D01*
X91433Y-65194D01*
X91355Y-65117D01*
X91254Y-65075D01*
X91145Y-65074D01*
X91044Y-65116D01*
X90967Y-65194D01*
X90925Y-65295D01*
X90924Y-65404D01*
X90966Y-65505D01*
X91044Y-65582D01*
X91145Y-65624D01*
X91254Y-65625D01*
X91355Y-65583D01*
X91432Y-65505D01*
X91474Y-65404D01*
X91475Y-65295D01*
X91475Y-66133D01*
X91454Y-66125D01*
X91345Y-66124D01*
X91244Y-66166D01*
X91167Y-66244D01*
X91125Y-66345D01*
X91124Y-66454D01*
X91166Y-66555D01*
X91244Y-66632D01*
X91275Y-66645D01*
X91274Y-66754D01*
X91316Y-66855D01*
X91394Y-66932D01*
X91425Y-66945D01*
X91424Y-67054D01*
X91466Y-67155D01*
X91544Y-67232D01*
X91645Y-67274D01*
X91754Y-67275D01*
X91855Y-67233D01*
X91932Y-67155D01*
X91974Y-67054D01*
X91975Y-66945D01*
X91933Y-66844D01*
X91855Y-66767D01*
X91824Y-66754D01*
X91825Y-66645D01*
X91783Y-66544D01*
X91705Y-66467D01*
X91674Y-66454D01*
X91675Y-66363D01*
X91744Y-66432D01*
X91845Y-66474D01*
X91954Y-66475D01*
X92055Y-66433D01*
X92132Y-66355D01*
X92174Y-66254D01*
X92175Y-66145D01*
X92175Y-66524D01*
X92168Y-66524D01*
X92067Y-66566D01*
X91990Y-66644D01*
X91948Y-66745D01*
X91947Y-66854D01*
X91989Y-66955D01*
X92067Y-67032D01*
X92168Y-67074D01*
X92277Y-67075D01*
X92378Y-67033D01*
X92455Y-66955D01*
X92497Y-66854D01*
X92498Y-66745D01*
X92498Y-67675D01*
X92316Y-67675D01*
X92324Y-67654D01*
X92325Y-67545D01*
X92283Y-67444D01*
X92205Y-67367D01*
X92104Y-67325D01*
X91995Y-67324D01*
X91894Y-67366D01*
X91817Y-67444D01*
X91775Y-67545D01*
X91774Y-67654D01*
X91783Y-67675D01*
X90975Y-67675D01*
X90975Y-66895D01*
X90933Y-66794D01*
X90855Y-66717D01*
X90754Y-66675D01*
X90645Y-66674D01*
X90544Y-66716D01*
X90467Y-66794D01*
X90450Y-66834D01*
X90433Y-66794D01*
X90355Y-66717D01*
X90254Y-66675D01*
X90145Y-66674D01*
X90044Y-66716D01*
X89967Y-66794D01*
X89925Y-66895D01*
X89924Y-67004D01*
X89966Y-67105D01*
X90044Y-67182D01*
X90145Y-67224D01*
X90254Y-67225D01*
X90355Y-67183D01*
X90432Y-67105D01*
X90449Y-67065D01*
X90466Y-67105D01*
X90544Y-67182D01*
X90645Y-67224D01*
X90754Y-67225D01*
X90855Y-67183D01*
X90932Y-67105D01*
X90974Y-67004D01*
X90975Y-66895D01*
X90975Y-67675D01*
X89575Y-67675D01*
X89575Y-66895D01*
X89533Y-66794D01*
X89455Y-66717D01*
X89354Y-66675D01*
X89245Y-66674D01*
X89175Y-66704D01*
X89175Y-65145D01*
X89133Y-65044D01*
X89075Y-64986D01*
X89075Y-63345D01*
X89033Y-63244D01*
X88955Y-63167D01*
X88854Y-63125D01*
X88745Y-63124D01*
X88644Y-63166D01*
X88567Y-63244D01*
X88525Y-63345D01*
X88524Y-63454D01*
X88566Y-63555D01*
X88644Y-63632D01*
X88745Y-63674D01*
X88854Y-63675D01*
X88955Y-63633D01*
X89032Y-63555D01*
X89074Y-63454D01*
X89075Y-63345D01*
X89075Y-64986D01*
X89055Y-64967D01*
X88954Y-64925D01*
X88845Y-64924D01*
X88774Y-64954D01*
X88774Y-64925D01*
X88804Y-64925D01*
X88905Y-64883D01*
X88982Y-64805D01*
X89024Y-64704D01*
X89025Y-64595D01*
X88983Y-64494D01*
X88905Y-64417D01*
X88804Y-64375D01*
X88695Y-64374D01*
X88675Y-64383D01*
X88675Y-63895D01*
X88633Y-63794D01*
X88555Y-63717D01*
X88454Y-63675D01*
X88345Y-63674D01*
X88244Y-63716D01*
X88167Y-63794D01*
X88125Y-63895D01*
X88124Y-64004D01*
X88166Y-64105D01*
X88244Y-64182D01*
X88345Y-64224D01*
X88454Y-64225D01*
X88555Y-64183D01*
X88632Y-64105D01*
X88674Y-64004D01*
X88675Y-63895D01*
X88675Y-64383D01*
X88594Y-64416D01*
X88517Y-64494D01*
X88475Y-64595D01*
X88475Y-64624D01*
X88445Y-64624D01*
X88344Y-64666D01*
X88267Y-64744D01*
X88225Y-64845D01*
X88224Y-64954D01*
X88266Y-65055D01*
X88344Y-65132D01*
X88445Y-65174D01*
X88554Y-65175D01*
X88625Y-65145D01*
X88624Y-65254D01*
X88666Y-65355D01*
X88744Y-65432D01*
X88845Y-65474D01*
X88954Y-65475D01*
X89055Y-65433D01*
X89132Y-65355D01*
X89174Y-65254D01*
X89175Y-65145D01*
X89175Y-66704D01*
X89144Y-66716D01*
X89067Y-66794D01*
X89025Y-66895D01*
X89024Y-67004D01*
X89066Y-67105D01*
X89144Y-67182D01*
X89245Y-67224D01*
X89354Y-67225D01*
X89455Y-67183D01*
X89532Y-67105D01*
X89574Y-67004D01*
X89575Y-66895D01*
X89575Y-67675D01*
X88925Y-67675D01*
X88925Y-66745D01*
X88883Y-66644D01*
X88805Y-66567D01*
X88704Y-66525D01*
X88675Y-66525D01*
X88675Y-66495D01*
X88633Y-66394D01*
X88555Y-66317D01*
X88454Y-66275D01*
X88345Y-66274D01*
X88244Y-66316D01*
X88167Y-66394D01*
X88125Y-66495D01*
X88124Y-66604D01*
X88166Y-66705D01*
X88244Y-66782D01*
X88345Y-66824D01*
X88374Y-66824D01*
X88374Y-66854D01*
X88416Y-66955D01*
X88494Y-67032D01*
X88595Y-67074D01*
X88704Y-67075D01*
X88805Y-67033D01*
X88882Y-66955D01*
X88924Y-66854D01*
X88925Y-66745D01*
X88925Y-67675D01*
X88372Y-67675D01*
X87773Y-67076D01*
X87716Y-67038D01*
X87675Y-67029D01*
X87675Y-65845D01*
X87633Y-65744D01*
X87555Y-65667D01*
X87531Y-65656D01*
X87582Y-65605D01*
X87624Y-65504D01*
X87625Y-65395D01*
X87583Y-65294D01*
X87505Y-65217D01*
X87404Y-65175D01*
X87295Y-65174D01*
X87194Y-65216D01*
X87174Y-65236D01*
X87175Y-65145D01*
X87133Y-65044D01*
X87055Y-64967D01*
X86954Y-64925D01*
X86845Y-64924D01*
X86800Y-64943D01*
X86800Y-64603D01*
X86945Y-64458D01*
X87005Y-64433D01*
X87082Y-64355D01*
X87124Y-64254D01*
X87125Y-64145D01*
X87083Y-64044D01*
X87005Y-63967D01*
X86904Y-63925D01*
X86795Y-63924D01*
X86694Y-63966D01*
X86617Y-64044D01*
X86591Y-64104D01*
X86373Y-64323D01*
X86319Y-64404D01*
X86300Y-64500D01*
X86300Y-65550D01*
X86319Y-65645D01*
X86373Y-65726D01*
X86941Y-66295D01*
X86966Y-66355D01*
X87044Y-66432D01*
X87145Y-66474D01*
X87254Y-66475D01*
X87355Y-66433D01*
X87432Y-66355D01*
X87474Y-66254D01*
X87475Y-66166D01*
X87555Y-66133D01*
X87632Y-66055D01*
X87674Y-65954D01*
X87675Y-65845D01*
X87675Y-67029D01*
X87650Y-67025D01*
X85875Y-67025D01*
X85875Y-63375D01*
X87650Y-63375D01*
X87716Y-63361D01*
X87716Y-63361D01*
X87757Y-63334D01*
X87766Y-63355D01*
X87844Y-63432D01*
X87945Y-63474D01*
X88054Y-63475D01*
X88155Y-63433D01*
X88232Y-63355D01*
X88274Y-63254D01*
X88275Y-63145D01*
X88233Y-63044D01*
X88155Y-62967D01*
X88137Y-62959D01*
X88372Y-62725D01*
X92483Y-62725D01*
X92475Y-62745D01*
X92474Y-62854D01*
X92516Y-62955D01*
X92594Y-63032D01*
X92695Y-63074D01*
X92804Y-63075D01*
X92905Y-63033D01*
X92982Y-62955D01*
X93024Y-62854D01*
X93025Y-62745D01*
X93016Y-62725D01*
X94425Y-62725D01*
X94425Y-67675D01*
M02*
