G04 (created by PCBNEW (2013-04-19 BZR 4011)-stable) date 24/08/2014 15:37:21*
%MOIN*%
G04 Gerber Fmt 3.4, Leading zero omitted, Abs format*
%FSLAX34Y34*%
G01*
G70*
G90*
G04 APERTURE LIST*
%ADD10C,2.3622e-006*%
%ADD11R,0.0157X0.0236*%
%ADD12R,0.16X0.06*%
%ADD13O,0.16X0.06*%
%ADD14R,0.0572X0.0118*%
%ADD15R,0.0118X0.0572*%
%ADD16C,0.025*%
%ADD17C,0.008*%
%ADD18C,0.02*%
G04 APERTURE END LIST*
G54D10*
G54D11*
X92577Y-67600D03*
X92223Y-67600D03*
G54D12*
X93900Y-63200D03*
G54D13*
X93900Y-64200D03*
X93900Y-65200D03*
X93900Y-66200D03*
X93900Y-67200D03*
G54D14*
X87867Y-64117D03*
X87867Y-64314D03*
X87867Y-64511D03*
X87867Y-64708D03*
X87867Y-64905D03*
X87867Y-65102D03*
X87867Y-63920D03*
X87867Y-63724D03*
G54D15*
X89461Y-62917D03*
X89658Y-62917D03*
X89855Y-62917D03*
G54D14*
X92433Y-65889D03*
X92433Y-66086D03*
X92433Y-66283D03*
X92433Y-66480D03*
X92433Y-66676D03*
G54D15*
X90839Y-67483D03*
G54D14*
X92433Y-65692D03*
X92433Y-65495D03*
X92433Y-65298D03*
X92433Y-65102D03*
X92433Y-64905D03*
G54D15*
X89658Y-67483D03*
X91036Y-62917D03*
X89855Y-67483D03*
X91233Y-62917D03*
X91430Y-62917D03*
X90052Y-67483D03*
X90248Y-67483D03*
X91626Y-62917D03*
G54D14*
X92433Y-64511D03*
G54D15*
X90445Y-67483D03*
X90642Y-67483D03*
G54D14*
X92433Y-64708D03*
G54D15*
X90839Y-62917D03*
X89461Y-67483D03*
X89264Y-67483D03*
X90642Y-62917D03*
X90445Y-62917D03*
X89067Y-67483D03*
X88870Y-67483D03*
X90248Y-62917D03*
X90052Y-62917D03*
X88674Y-67483D03*
G54D14*
X87867Y-65298D03*
X87867Y-65495D03*
X87867Y-65692D03*
X87867Y-65889D03*
G54D15*
X91036Y-67483D03*
X91233Y-67483D03*
X91430Y-67483D03*
X91626Y-67483D03*
G54D14*
X92433Y-64314D03*
X92433Y-64117D03*
X92433Y-63920D03*
X92433Y-63724D03*
X87867Y-66086D03*
X87867Y-66283D03*
X87867Y-66480D03*
X87867Y-66676D03*
G54D15*
X89264Y-62917D03*
X89067Y-62917D03*
X88870Y-62917D03*
X88674Y-62917D03*
G54D12*
X86400Y-63700D03*
G54D13*
X86400Y-64700D03*
X86400Y-65700D03*
X86400Y-66700D03*
G54D11*
X92223Y-62800D03*
X92577Y-62800D03*
G54D16*
X91400Y-66400D03*
X90300Y-63550D03*
X90250Y-64500D03*
X91550Y-66700D03*
X91900Y-65700D03*
X91700Y-67000D03*
X92223Y-66800D03*
X91900Y-63100D03*
X88400Y-63950D03*
X90050Y-64000D03*
X91900Y-66200D03*
X89800Y-65200D03*
X88500Y-64900D03*
X91200Y-64350D03*
X91900Y-64600D03*
X91300Y-63450D03*
X91200Y-65350D03*
X90750Y-63800D03*
X91900Y-65350D03*
X88750Y-64650D03*
X90050Y-64950D03*
X91900Y-64950D03*
X90950Y-64100D03*
X87400Y-65900D03*
X88950Y-65150D03*
X88350Y-66950D03*
X90200Y-66950D03*
X89300Y-66950D03*
X93250Y-65700D03*
X92850Y-63400D03*
X92850Y-67200D03*
X93100Y-64650D03*
X92950Y-64950D03*
X89800Y-64700D03*
X89450Y-64650D03*
X88700Y-66950D03*
X87300Y-65300D03*
X88400Y-66550D03*
X87200Y-66200D03*
X88800Y-63400D03*
X92050Y-67600D03*
X90700Y-66950D03*
X92750Y-62800D03*
X88400Y-65850D03*
X88150Y-67300D03*
X89150Y-65700D03*
X93100Y-63750D03*
X91800Y-64250D03*
X90700Y-66600D03*
X88300Y-63000D03*
X92750Y-67600D03*
G54D17*
X89800Y-63900D02*
X89800Y-64100D01*
X90150Y-64250D02*
X90300Y-64100D01*
X89950Y-64250D02*
X90150Y-64250D01*
X89800Y-64100D02*
X89950Y-64250D01*
X87867Y-66283D02*
X91283Y-66283D01*
X91283Y-66283D02*
X91400Y-66400D01*
X91233Y-66567D02*
X91400Y-66400D01*
X91233Y-66567D02*
X91233Y-67483D01*
X90300Y-63550D02*
X90300Y-64100D01*
X89855Y-63845D02*
X89800Y-63900D01*
X89855Y-63845D02*
X89855Y-62917D01*
X90248Y-62917D02*
X90248Y-63498D01*
X90248Y-63498D02*
X90300Y-63550D01*
X87867Y-66086D02*
X91436Y-66086D01*
X91436Y-66086D02*
X91650Y-66300D01*
X91650Y-66300D02*
X91650Y-66600D01*
X91650Y-66600D02*
X91550Y-66700D01*
X91430Y-66820D02*
X91550Y-66700D01*
X91430Y-67483D02*
X91430Y-66820D01*
X89600Y-63850D02*
X89600Y-64150D01*
X90500Y-64250D02*
X90250Y-64500D01*
X90445Y-63345D02*
X90550Y-63450D01*
X90445Y-63345D02*
X90445Y-62917D01*
X90550Y-63650D02*
X90500Y-63700D01*
X90550Y-63450D02*
X90550Y-63650D01*
X90500Y-63700D02*
X90500Y-64250D01*
X89950Y-64500D02*
X90250Y-64500D01*
X89600Y-64150D02*
X89950Y-64500D01*
X89658Y-62917D02*
X89658Y-63792D01*
X89658Y-63792D02*
X89600Y-63850D01*
X92433Y-65692D02*
X91908Y-65692D01*
X91908Y-65692D02*
X91900Y-65700D01*
X91626Y-67483D02*
X91626Y-67074D01*
X91626Y-67074D02*
X91700Y-67000D01*
X92433Y-66676D02*
X92324Y-66676D01*
X92200Y-66800D02*
X92324Y-66676D01*
X92200Y-66800D02*
X92223Y-66800D01*
X91626Y-62917D02*
X91717Y-62917D01*
X91717Y-62917D02*
X91900Y-63100D01*
X88370Y-63920D02*
X88400Y-63950D01*
X87867Y-63920D02*
X88370Y-63920D01*
X90052Y-63998D02*
X90050Y-64000D01*
X90052Y-62917D02*
X90052Y-63998D01*
X91900Y-66200D02*
X91800Y-66200D01*
X91800Y-66200D02*
X91450Y-65850D01*
X92114Y-66086D02*
X92000Y-66200D01*
X92000Y-66200D02*
X91900Y-66200D01*
X92433Y-66086D02*
X92114Y-66086D01*
X91550Y-63550D02*
X91450Y-63650D01*
X91550Y-63450D02*
X91550Y-63550D01*
X91450Y-63650D02*
X91450Y-65850D01*
X91626Y-62917D02*
X91626Y-63374D01*
X91626Y-63374D02*
X91550Y-63450D01*
X87867Y-64117D02*
X87533Y-64117D01*
X87505Y-64905D02*
X87867Y-64905D01*
X87400Y-64800D02*
X87505Y-64905D01*
X87400Y-64250D02*
X87400Y-64800D01*
X87533Y-64117D02*
X87400Y-64250D01*
X89800Y-65200D02*
X90350Y-65200D01*
X90350Y-65200D02*
X91200Y-64350D01*
X88495Y-64905D02*
X88500Y-64900D01*
X87867Y-64905D02*
X88495Y-64905D01*
X91200Y-63550D02*
X91200Y-64350D01*
X91300Y-63450D02*
X91200Y-63550D01*
X92433Y-65889D02*
X92084Y-65889D01*
X92084Y-65889D02*
X92023Y-65950D01*
X92023Y-65950D02*
X91800Y-65950D01*
X91800Y-65950D02*
X91650Y-65800D01*
X91650Y-65800D02*
X91650Y-64850D01*
X91650Y-64850D02*
X91900Y-64600D01*
X92433Y-64708D02*
X92008Y-64708D01*
X92008Y-64708D02*
X91900Y-64600D01*
X91430Y-63320D02*
X91300Y-63450D01*
X91430Y-63320D02*
X91430Y-62917D01*
X87867Y-65692D02*
X88208Y-65692D01*
X88208Y-65692D02*
X88350Y-65550D01*
X90642Y-62917D02*
X90642Y-63242D01*
X90642Y-63242D02*
X90839Y-63439D01*
X90839Y-62917D02*
X90839Y-63439D01*
X90839Y-63439D02*
X90839Y-63711D01*
X91200Y-65350D02*
X91100Y-65450D01*
X89400Y-65450D02*
X89200Y-65250D01*
X91100Y-65450D02*
X89400Y-65450D01*
X90839Y-63711D02*
X90750Y-63800D01*
X88900Y-64200D02*
X88350Y-64200D01*
X88350Y-64200D02*
X88236Y-64314D01*
X88236Y-64314D02*
X87867Y-64314D01*
X89200Y-65250D02*
X89200Y-64500D01*
X89200Y-64500D02*
X88900Y-64200D01*
X88900Y-65550D02*
X89200Y-65250D01*
X88300Y-65550D02*
X88350Y-65550D01*
X88350Y-65550D02*
X88900Y-65550D01*
X88245Y-65495D02*
X88300Y-65550D01*
X87867Y-65495D02*
X88245Y-65495D01*
X92433Y-65495D02*
X92045Y-65495D01*
X92045Y-65495D02*
X91900Y-65350D01*
X90950Y-64150D02*
X90950Y-64100D01*
X90150Y-64950D02*
X90950Y-64150D01*
X90050Y-64950D02*
X90150Y-64950D01*
X92433Y-64905D02*
X91945Y-64905D01*
X91945Y-64905D02*
X91900Y-64950D01*
X91036Y-62917D02*
X91036Y-64014D01*
X91036Y-64014D02*
X90950Y-64100D01*
X88750Y-64650D02*
X88750Y-65000D01*
X88400Y-65150D02*
X88600Y-65150D01*
X88352Y-65102D02*
X87867Y-65102D01*
X88352Y-65102D02*
X88400Y-65150D01*
X88750Y-65000D02*
X88600Y-65150D01*
X87867Y-64708D02*
X88342Y-64708D01*
X88342Y-64708D02*
X88400Y-64650D01*
X88400Y-64650D02*
X88750Y-64650D01*
X87411Y-65889D02*
X87867Y-65889D01*
X86400Y-65700D02*
X87200Y-65700D01*
X87200Y-65700D02*
X87400Y-65900D01*
X87411Y-65889D02*
X87400Y-65900D01*
X88950Y-65150D02*
X89000Y-65100D01*
X88750Y-65350D02*
X88950Y-65150D01*
X88350Y-65350D02*
X88750Y-65350D01*
X89000Y-64550D02*
X88850Y-64400D01*
X89000Y-65100D02*
X89000Y-64550D01*
X87867Y-65298D02*
X88298Y-65298D01*
X88289Y-64511D02*
X88400Y-64400D01*
X88289Y-64511D02*
X87867Y-64511D01*
X88400Y-64400D02*
X88850Y-64400D01*
X88298Y-65298D02*
X88350Y-65350D01*
X90445Y-66845D02*
X90300Y-66700D01*
X90300Y-66700D02*
X88600Y-66700D01*
X88600Y-66700D02*
X88350Y-66950D01*
X90445Y-66845D02*
X90445Y-67483D01*
X89855Y-67045D02*
X89950Y-66950D01*
X89950Y-66950D02*
X90200Y-66950D01*
X89855Y-67045D02*
X89855Y-67483D01*
X89461Y-67483D02*
X89461Y-67111D01*
X89461Y-67111D02*
X89300Y-66950D01*
X93900Y-66200D02*
X93400Y-65700D01*
X93400Y-65700D02*
X93250Y-65700D01*
X93050Y-63200D02*
X93900Y-63200D01*
X92850Y-63400D02*
X93050Y-63200D01*
X92850Y-67200D02*
X93900Y-67200D01*
X93550Y-64200D02*
X93900Y-64200D01*
X93100Y-64650D02*
X93550Y-64200D01*
X93200Y-65200D02*
X93900Y-65200D01*
X92950Y-64950D02*
X93200Y-65200D01*
X87867Y-63724D02*
X87526Y-63724D01*
X87526Y-63724D02*
X87400Y-63850D01*
X86700Y-64700D02*
X86400Y-64700D01*
X87400Y-64000D02*
X86700Y-64700D01*
X87400Y-63850D02*
X87400Y-64000D01*
X89067Y-62917D02*
X89067Y-63483D01*
X89067Y-63483D02*
X88900Y-63650D01*
X86650Y-63450D02*
X86400Y-63700D01*
X88500Y-63450D02*
X86650Y-63450D01*
X88700Y-63650D02*
X88500Y-63450D01*
X88900Y-63650D02*
X88700Y-63650D01*
X89400Y-64200D02*
X89800Y-64600D01*
X89461Y-63739D02*
X89400Y-63800D01*
X89400Y-63800D02*
X89400Y-64200D01*
X89461Y-62917D02*
X89461Y-63739D01*
X89800Y-64600D02*
X89800Y-64700D01*
X89264Y-62917D02*
X89264Y-63686D01*
X89450Y-64500D02*
X89450Y-64650D01*
X89200Y-64250D02*
X89450Y-64500D01*
X89200Y-63750D02*
X89200Y-64250D01*
X89264Y-63686D02*
X89200Y-63750D01*
X88870Y-67120D02*
X88700Y-66950D01*
X88870Y-67120D02*
X88870Y-67483D01*
X87867Y-66480D02*
X88330Y-66480D01*
X88330Y-66480D02*
X88400Y-66550D01*
X87867Y-66480D02*
X87480Y-66480D01*
X87480Y-66480D02*
X87200Y-66200D01*
X88870Y-63330D02*
X88870Y-62917D01*
X88870Y-63330D02*
X88800Y-63400D01*
X92050Y-67600D02*
X92223Y-67600D01*
X92433Y-66480D02*
X92070Y-66480D01*
X92070Y-66480D02*
X91950Y-66600D01*
X91950Y-66600D02*
X91950Y-67327D01*
X91950Y-67327D02*
X92223Y-67600D01*
X92433Y-63920D02*
X92070Y-63920D01*
X92577Y-63023D02*
X92577Y-62800D01*
X91950Y-63650D02*
X92577Y-63023D01*
X91950Y-63800D02*
X91950Y-63650D01*
X92070Y-63920D02*
X91950Y-63800D01*
X90839Y-67089D02*
X90700Y-66950D01*
X90839Y-67089D02*
X90839Y-67483D01*
X92577Y-62800D02*
X92750Y-62800D01*
X92433Y-63920D02*
X92820Y-63920D01*
X92820Y-63920D02*
X92900Y-64000D01*
X92839Y-64511D02*
X92433Y-64511D01*
X92900Y-64000D02*
X92900Y-64450D01*
X92900Y-64450D02*
X92839Y-64511D01*
X92433Y-64117D02*
X92017Y-64117D01*
X92223Y-63127D02*
X92223Y-62800D01*
X91750Y-63600D02*
X92223Y-63127D01*
X91750Y-63850D02*
X91750Y-63600D01*
X92017Y-64117D02*
X91750Y-63850D01*
X88674Y-67483D02*
X88333Y-67483D01*
X88333Y-67483D02*
X88150Y-67300D01*
X87867Y-66676D02*
X87867Y-67017D01*
G54D18*
X86650Y-66950D02*
X87800Y-66950D01*
X87800Y-66950D02*
X88150Y-67300D01*
X86650Y-66950D02*
X86400Y-66700D01*
G54D17*
X87867Y-67017D02*
X88150Y-67300D01*
X86424Y-66676D02*
X86400Y-66700D01*
X88591Y-63000D02*
X88300Y-63000D01*
X88591Y-63000D02*
X88674Y-62917D01*
X92577Y-67600D02*
X92750Y-67600D01*
X92433Y-63724D02*
X93074Y-63724D01*
X93074Y-63724D02*
X93100Y-63750D01*
X92433Y-66283D02*
X92833Y-66283D01*
X92577Y-67123D02*
X92577Y-67600D01*
X92900Y-66800D02*
X92577Y-67123D01*
X92900Y-66350D02*
X92900Y-66800D01*
X92833Y-66283D02*
X92900Y-66350D01*
X91036Y-66936D02*
X90700Y-66600D01*
X91036Y-67483D02*
X91036Y-66936D01*
M02*
