G04 (created by PCBNEW (2013-04-19 BZR 4011)-stable) date 24/08/2014 15:37:21*
%MOIN*%
G04 Gerber Fmt 3.4, Leading zero omitted, Abs format*
%FSLAX34Y34*%
G01*
G70*
G90*
G04 APERTURE LIST*
%ADD10C,2.3622e-006*%
%ADD11R,0.0357X0.0436*%
%ADD12R,0.06X0.1*%
%ADD13R,0.0436X0.0357*%
%ADD14O,0.18X0.08*%
%ADD15R,0.0515X0.0594*%
%ADD16R,0.045X0.065*%
G04 APERTURE END LIST*
G54D10*
G54D11*
X88473Y-63200D03*
X88827Y-63200D03*
G54D12*
X89750Y-66100D03*
X89750Y-67300D03*
X89150Y-67300D03*
X89150Y-66100D03*
G54D11*
X87723Y-64500D03*
X88077Y-64500D03*
X88473Y-62800D03*
X88827Y-62800D03*
X90977Y-62750D03*
X90623Y-62750D03*
X87723Y-64900D03*
X88077Y-64900D03*
X88027Y-66100D03*
X87673Y-66100D03*
G54D13*
X90750Y-67477D03*
X90750Y-67123D03*
X90300Y-66727D03*
X90300Y-66373D03*
G54D11*
X92577Y-66400D03*
X92223Y-66400D03*
X92577Y-65600D03*
X92223Y-65600D03*
X92577Y-67200D03*
X92223Y-67200D03*
X92577Y-65200D03*
X92223Y-65200D03*
X92577Y-63200D03*
X92223Y-63200D03*
X92577Y-64000D03*
X92223Y-64000D03*
X92577Y-63600D03*
X92223Y-63600D03*
X92577Y-64800D03*
X92223Y-64800D03*
X92577Y-66800D03*
X92223Y-66800D03*
X92577Y-66000D03*
X92223Y-66000D03*
X92223Y-64400D03*
X92577Y-64400D03*
X87723Y-64100D03*
X88077Y-64100D03*
G54D14*
X93900Y-63200D03*
X93900Y-64200D03*
X93900Y-65200D03*
X93900Y-66200D03*
X93900Y-67200D03*
X86400Y-63700D03*
X86400Y-64700D03*
X86400Y-65700D03*
X86400Y-66700D03*
G54D13*
X90300Y-67123D03*
X90300Y-67477D03*
G54D15*
X89750Y-63633D03*
X90125Y-62767D03*
X89375Y-62767D03*
G54D16*
X92900Y-62850D03*
X93500Y-62850D03*
X88050Y-63600D03*
X87450Y-63600D03*
G54D11*
X88027Y-66900D03*
X87673Y-66900D03*
X87673Y-65700D03*
X88027Y-65700D03*
G54D13*
X88150Y-66500D03*
X87550Y-66500D03*
X87550Y-65300D03*
X88150Y-65300D03*
M02*
