M48
;DRILL file {Pcbnew (2013-04-19 BZR 4011)-stable} date 02/09/2014 23:44:54
;FORMAT={-:-/ absolute / inch / decimal}
FMAT,2
INCH,TZ
T1C0.015
%
G90
G05
M72
T1
X8.72Y-6.62
X8.73Y-6.53
X8.74Y-6.59
X8.815Y-6.73
X8.83Y-6.3
X8.835Y-6.695
X8.84Y-6.395
X8.84Y-6.585
X8.84Y-6.655
X8.85Y-6.49
X8.87Y-6.695
X8.875Y-6.465
X8.88Y-6.34
X8.895Y-6.515
X8.915Y-6.57
X8.93Y-6.695
X8.945Y-6.465
X8.98Y-6.47
X8.98Y-6.52
X9.005Y-6.4
X9.005Y-6.495
X9.02Y-6.695
X9.025Y-6.45
X9.03Y-6.355
X9.07Y-6.66
X9.07Y-6.695
X9.075Y-6.38
X9.095Y-6.41
X9.12Y-6.435
X9.12Y-6.535
X9.13Y-6.345
X9.14Y-6.64
X9.155Y-6.67
X9.17Y-6.7
X9.18Y-6.425
X9.19Y-6.31
X9.19Y-6.46
X9.19Y-6.495
X9.19Y-6.535
X9.19Y-6.57
X9.19Y-6.62
X9.205Y-6.76
X9.2223Y-6.68
X9.275Y-6.28
X9.275Y-6.76
X9.285Y-6.34
X9.285Y-6.72
X9.295Y-6.495
X9.31Y-6.375
X9.31Y-6.465
X9.325Y-6.57
T0
M30
