G04 (created by PCBNEW (2013-04-19 BZR 4011)-stable) date 16/09/2014 14:10:46*
%MOIN*%
G04 Gerber Fmt 3.4, Leading zero omitted, Abs format*
%FSLAX34Y34*%
G01*
G70*
G90*
G04 APERTURE LIST*
%ADD10C,2.3622e-006*%
%ADD11C,0.025*%
%ADD12C,0.008*%
%ADD13C,0.02*%
%ADD14C,0.01*%
G04 APERTURE END LIST*
G54D10*
G54D11*
X91400Y-66400D03*
X90300Y-63700D03*
X90250Y-64500D03*
X91550Y-66700D03*
X91900Y-65700D03*
X91700Y-67000D03*
X92223Y-66800D03*
X91900Y-63100D03*
X88400Y-63950D03*
X90050Y-64000D03*
X91900Y-66200D03*
X88500Y-64900D03*
X89800Y-65200D03*
X91200Y-64500D03*
X91900Y-64600D03*
X91300Y-63450D03*
X90750Y-63950D03*
X91200Y-65350D03*
X91900Y-65350D03*
X88750Y-64650D03*
X90050Y-64950D03*
X91900Y-64950D03*
X90950Y-64250D03*
X87400Y-65900D03*
X88950Y-65150D03*
X88350Y-66950D03*
X90200Y-66950D03*
X89300Y-66950D03*
X93250Y-65700D03*
X92850Y-63400D03*
X92850Y-67200D03*
X93100Y-64650D03*
X92950Y-64950D03*
X89800Y-64700D03*
X89450Y-64650D03*
X88700Y-66950D03*
X87300Y-65300D03*
X88400Y-66550D03*
X87200Y-66200D03*
X88800Y-63400D03*
X92050Y-67600D03*
X90700Y-66950D03*
X92750Y-62800D03*
X88400Y-65850D03*
X88150Y-67300D03*
X89150Y-65700D03*
X93100Y-63750D03*
X91800Y-64250D03*
X90700Y-66600D03*
X88300Y-63000D03*
X92750Y-67600D03*
G54D12*
X87300Y-65300D02*
X87100Y-65500D01*
X87100Y-66100D02*
X87200Y-66200D01*
X87100Y-65500D02*
X87100Y-66100D01*
X88400Y-66400D02*
X88400Y-66550D01*
X88800Y-63400D02*
X88800Y-64050D01*
X87550Y-65300D02*
X87300Y-65300D01*
X88800Y-64050D02*
X87550Y-65300D01*
G54D13*
X88050Y-66200D02*
X88400Y-66550D01*
G54D12*
X88050Y-66200D02*
X88400Y-66550D01*
G54D13*
X87200Y-66200D02*
X88050Y-66200D01*
G54D12*
X90300Y-66550D02*
X88400Y-66550D01*
X90700Y-66950D02*
X90300Y-66550D01*
X92750Y-62800D02*
X92200Y-63350D01*
X92200Y-63350D02*
X91700Y-63350D01*
X91700Y-63350D02*
X91250Y-62900D01*
X91250Y-62900D02*
X89300Y-62900D01*
X89300Y-62900D02*
X88800Y-63400D01*
X90700Y-66950D02*
X91350Y-67600D01*
X91350Y-67600D02*
X92050Y-67600D01*
G54D10*
G36*
X94425Y-67675D02*
X93525Y-67675D01*
X93525Y-65645D01*
X93483Y-65544D01*
X93405Y-65467D01*
X93375Y-65454D01*
X93375Y-64595D01*
X93375Y-63695D01*
X93333Y-63594D01*
X93255Y-63517D01*
X93154Y-63475D01*
X93116Y-63475D01*
X93124Y-63454D01*
X93125Y-63345D01*
X93083Y-63244D01*
X93005Y-63167D01*
X92904Y-63125D01*
X92795Y-63124D01*
X92694Y-63166D01*
X92617Y-63244D01*
X92575Y-63345D01*
X92574Y-63454D01*
X92616Y-63555D01*
X92694Y-63632D01*
X92795Y-63674D01*
X92833Y-63674D01*
X92825Y-63695D01*
X92824Y-63804D01*
X92866Y-63905D01*
X92944Y-63982D01*
X93045Y-64024D01*
X93154Y-64025D01*
X93255Y-63983D01*
X93332Y-63905D01*
X93374Y-63804D01*
X93375Y-63695D01*
X93375Y-64595D01*
X93333Y-64494D01*
X93255Y-64417D01*
X93154Y-64375D01*
X93045Y-64374D01*
X92944Y-64416D01*
X92867Y-64494D01*
X92825Y-64595D01*
X92824Y-64704D01*
X92794Y-64716D01*
X92717Y-64794D01*
X92675Y-64895D01*
X92674Y-65004D01*
X92716Y-65105D01*
X92794Y-65182D01*
X92895Y-65224D01*
X93004Y-65225D01*
X93105Y-65183D01*
X93182Y-65105D01*
X93224Y-65004D01*
X93225Y-64895D01*
X93255Y-64883D01*
X93332Y-64805D01*
X93374Y-64704D01*
X93375Y-64595D01*
X93375Y-65454D01*
X93304Y-65425D01*
X93195Y-65424D01*
X93094Y-65466D01*
X93017Y-65544D01*
X92975Y-65645D01*
X92974Y-65754D01*
X93016Y-65855D01*
X93094Y-65932D01*
X93195Y-65974D01*
X93304Y-65975D01*
X93405Y-65933D01*
X93482Y-65855D01*
X93524Y-65754D01*
X93525Y-65645D01*
X93525Y-67675D01*
X93016Y-67675D01*
X93024Y-67654D01*
X93025Y-67545D01*
X92983Y-67444D01*
X92981Y-67443D01*
X93005Y-67433D01*
X93082Y-67355D01*
X93124Y-67254D01*
X93125Y-67145D01*
X93083Y-67044D01*
X93005Y-66967D01*
X92904Y-66925D01*
X92795Y-66924D01*
X92694Y-66966D01*
X92617Y-67044D01*
X92575Y-67145D01*
X92574Y-67254D01*
X92616Y-67355D01*
X92618Y-67356D01*
X92594Y-67366D01*
X92517Y-67444D01*
X92498Y-67489D01*
X92498Y-66745D01*
X92456Y-66644D01*
X92378Y-66567D01*
X92277Y-66525D01*
X92175Y-66524D01*
X92175Y-66145D01*
X92133Y-66044D01*
X92055Y-65967D01*
X92015Y-65950D01*
X92055Y-65933D01*
X92132Y-65855D01*
X92174Y-65754D01*
X92175Y-65645D01*
X92133Y-65544D01*
X92113Y-65525D01*
X92132Y-65505D01*
X92174Y-65404D01*
X92175Y-65295D01*
X92133Y-65194D01*
X92088Y-65149D01*
X92132Y-65105D01*
X92174Y-65004D01*
X92175Y-64895D01*
X92133Y-64794D01*
X92113Y-64775D01*
X92132Y-64755D01*
X92174Y-64654D01*
X92175Y-64545D01*
X92175Y-63045D01*
X92133Y-62944D01*
X92055Y-62867D01*
X91954Y-62825D01*
X91845Y-62824D01*
X91744Y-62866D01*
X91667Y-62944D01*
X91625Y-63045D01*
X91624Y-63154D01*
X91666Y-63255D01*
X91744Y-63332D01*
X91845Y-63374D01*
X91954Y-63375D01*
X92055Y-63333D01*
X92132Y-63255D01*
X92174Y-63154D01*
X92175Y-63045D01*
X92175Y-64545D01*
X92133Y-64444D01*
X92055Y-64367D01*
X92050Y-64364D01*
X92074Y-64304D01*
X92075Y-64195D01*
X92033Y-64094D01*
X91955Y-64017D01*
X91854Y-63975D01*
X91745Y-63974D01*
X91644Y-64016D01*
X91575Y-64085D01*
X91575Y-63395D01*
X91533Y-63294D01*
X91455Y-63217D01*
X91354Y-63175D01*
X91245Y-63174D01*
X91144Y-63216D01*
X91067Y-63294D01*
X91025Y-63395D01*
X91024Y-63504D01*
X91066Y-63605D01*
X91144Y-63682D01*
X91245Y-63724D01*
X91354Y-63725D01*
X91455Y-63683D01*
X91532Y-63605D01*
X91574Y-63504D01*
X91575Y-63395D01*
X91575Y-64085D01*
X91567Y-64094D01*
X91525Y-64195D01*
X91524Y-64304D01*
X91566Y-64405D01*
X91644Y-64482D01*
X91649Y-64485D01*
X91625Y-64545D01*
X91624Y-64654D01*
X91666Y-64755D01*
X91686Y-64774D01*
X91667Y-64794D01*
X91625Y-64895D01*
X91624Y-65004D01*
X91666Y-65105D01*
X91711Y-65150D01*
X91667Y-65194D01*
X91625Y-65295D01*
X91624Y-65404D01*
X91666Y-65505D01*
X91686Y-65524D01*
X91667Y-65544D01*
X91625Y-65645D01*
X91624Y-65754D01*
X91666Y-65855D01*
X91744Y-65932D01*
X91784Y-65949D01*
X91744Y-65966D01*
X91667Y-66044D01*
X91625Y-66145D01*
X91624Y-66236D01*
X91555Y-66167D01*
X91475Y-66133D01*
X91475Y-65295D01*
X91475Y-64445D01*
X91433Y-64344D01*
X91355Y-64267D01*
X91254Y-64225D01*
X91225Y-64225D01*
X91225Y-64195D01*
X91183Y-64094D01*
X91105Y-64017D01*
X91024Y-63983D01*
X91025Y-63895D01*
X90983Y-63794D01*
X90905Y-63717D01*
X90804Y-63675D01*
X90695Y-63674D01*
X90594Y-63716D01*
X90574Y-63736D01*
X90575Y-63645D01*
X90533Y-63544D01*
X90455Y-63467D01*
X90354Y-63425D01*
X90245Y-63424D01*
X90144Y-63466D01*
X90067Y-63544D01*
X90025Y-63645D01*
X90024Y-63724D01*
X89995Y-63724D01*
X89894Y-63766D01*
X89817Y-63844D01*
X89775Y-63945D01*
X89774Y-64054D01*
X89816Y-64155D01*
X89894Y-64232D01*
X89995Y-64274D01*
X90086Y-64275D01*
X90017Y-64344D01*
X89975Y-64445D01*
X89975Y-64486D01*
X89955Y-64467D01*
X89854Y-64425D01*
X89745Y-64424D01*
X89652Y-64463D01*
X89605Y-64417D01*
X89504Y-64375D01*
X89395Y-64374D01*
X89294Y-64416D01*
X89217Y-64494D01*
X89175Y-64595D01*
X89174Y-64704D01*
X89216Y-64805D01*
X89294Y-64882D01*
X89395Y-64924D01*
X89504Y-64925D01*
X89597Y-64886D01*
X89644Y-64932D01*
X89684Y-64949D01*
X89644Y-64966D01*
X89567Y-65044D01*
X89525Y-65145D01*
X89524Y-65254D01*
X89566Y-65355D01*
X89644Y-65432D01*
X89745Y-65474D01*
X89854Y-65475D01*
X89955Y-65433D01*
X90032Y-65355D01*
X90074Y-65254D01*
X90074Y-65225D01*
X90104Y-65225D01*
X90205Y-65183D01*
X90282Y-65105D01*
X90324Y-65004D01*
X90325Y-64895D01*
X90283Y-64794D01*
X90263Y-64775D01*
X90304Y-64775D01*
X90405Y-64733D01*
X90482Y-64655D01*
X90524Y-64554D01*
X90525Y-64445D01*
X90483Y-64344D01*
X90405Y-64267D01*
X90304Y-64225D01*
X90213Y-64224D01*
X90282Y-64155D01*
X90324Y-64054D01*
X90325Y-63975D01*
X90354Y-63975D01*
X90455Y-63933D01*
X90475Y-63913D01*
X90474Y-64004D01*
X90516Y-64105D01*
X90594Y-64182D01*
X90675Y-64216D01*
X90674Y-64304D01*
X90716Y-64405D01*
X90794Y-64482D01*
X90895Y-64524D01*
X90924Y-64524D01*
X90924Y-64554D01*
X90966Y-64655D01*
X91044Y-64732D01*
X91145Y-64774D01*
X91254Y-64775D01*
X91355Y-64733D01*
X91432Y-64655D01*
X91474Y-64554D01*
X91475Y-64445D01*
X91475Y-65295D01*
X91433Y-65194D01*
X91355Y-65117D01*
X91254Y-65075D01*
X91145Y-65074D01*
X91044Y-65116D01*
X90967Y-65194D01*
X90925Y-65295D01*
X90924Y-65404D01*
X90966Y-65505D01*
X91044Y-65582D01*
X91145Y-65624D01*
X91254Y-65625D01*
X91355Y-65583D01*
X91432Y-65505D01*
X91474Y-65404D01*
X91475Y-65295D01*
X91475Y-66133D01*
X91454Y-66125D01*
X91345Y-66124D01*
X91244Y-66166D01*
X91167Y-66244D01*
X91125Y-66345D01*
X91124Y-66454D01*
X91166Y-66555D01*
X91244Y-66632D01*
X91275Y-66645D01*
X91274Y-66754D01*
X91316Y-66855D01*
X91394Y-66932D01*
X91425Y-66945D01*
X91424Y-67054D01*
X91466Y-67155D01*
X91544Y-67232D01*
X91645Y-67274D01*
X91754Y-67275D01*
X91855Y-67233D01*
X91932Y-67155D01*
X91974Y-67054D01*
X91975Y-66945D01*
X91933Y-66844D01*
X91855Y-66767D01*
X91824Y-66754D01*
X91825Y-66645D01*
X91783Y-66544D01*
X91705Y-66467D01*
X91674Y-66454D01*
X91675Y-66363D01*
X91744Y-66432D01*
X91845Y-66474D01*
X91954Y-66475D01*
X92055Y-66433D01*
X92132Y-66355D01*
X92174Y-66254D01*
X92175Y-66145D01*
X92175Y-66524D01*
X92168Y-66524D01*
X92067Y-66566D01*
X91990Y-66644D01*
X91948Y-66745D01*
X91947Y-66854D01*
X91989Y-66955D01*
X92067Y-67032D01*
X92168Y-67074D01*
X92277Y-67075D01*
X92378Y-67033D01*
X92455Y-66955D01*
X92497Y-66854D01*
X92498Y-66745D01*
X92498Y-67489D01*
X92475Y-67545D01*
X92474Y-67654D01*
X92483Y-67675D01*
X90975Y-67675D01*
X90975Y-66545D01*
X90933Y-66444D01*
X90855Y-66367D01*
X90754Y-66325D01*
X90645Y-66324D01*
X90544Y-66366D01*
X90467Y-66444D01*
X90425Y-66545D01*
X90424Y-66654D01*
X90466Y-66755D01*
X90544Y-66832D01*
X90645Y-66874D01*
X90754Y-66875D01*
X90855Y-66833D01*
X90932Y-66755D01*
X90974Y-66654D01*
X90975Y-66545D01*
X90975Y-67675D01*
X90475Y-67675D01*
X90475Y-66895D01*
X90433Y-66794D01*
X90355Y-66717D01*
X90254Y-66675D01*
X90145Y-66674D01*
X90044Y-66716D01*
X89967Y-66794D01*
X89925Y-66895D01*
X89924Y-67004D01*
X89966Y-67105D01*
X90044Y-67182D01*
X90145Y-67224D01*
X90254Y-67225D01*
X90355Y-67183D01*
X90432Y-67105D01*
X90474Y-67004D01*
X90475Y-66895D01*
X90475Y-67675D01*
X89575Y-67675D01*
X89575Y-66895D01*
X89533Y-66794D01*
X89455Y-66717D01*
X89425Y-66704D01*
X89425Y-65645D01*
X89383Y-65544D01*
X89305Y-65467D01*
X89225Y-65433D01*
X89225Y-65095D01*
X89183Y-64994D01*
X89105Y-64917D01*
X89004Y-64875D01*
X88913Y-64874D01*
X88982Y-64805D01*
X89024Y-64704D01*
X89025Y-64595D01*
X88983Y-64494D01*
X88905Y-64417D01*
X88804Y-64375D01*
X88695Y-64374D01*
X88675Y-64383D01*
X88675Y-63895D01*
X88633Y-63794D01*
X88555Y-63717D01*
X88454Y-63675D01*
X88345Y-63674D01*
X88244Y-63716D01*
X88167Y-63794D01*
X88125Y-63895D01*
X88124Y-64004D01*
X88166Y-64105D01*
X88244Y-64182D01*
X88345Y-64224D01*
X88454Y-64225D01*
X88555Y-64183D01*
X88632Y-64105D01*
X88674Y-64004D01*
X88675Y-63895D01*
X88675Y-64383D01*
X88594Y-64416D01*
X88517Y-64494D01*
X88475Y-64595D01*
X88475Y-64624D01*
X88445Y-64624D01*
X88344Y-64666D01*
X88267Y-64744D01*
X88225Y-64845D01*
X88224Y-64954D01*
X88266Y-65055D01*
X88344Y-65132D01*
X88445Y-65174D01*
X88554Y-65175D01*
X88655Y-65133D01*
X88675Y-65113D01*
X88674Y-65204D01*
X88716Y-65305D01*
X88794Y-65382D01*
X88895Y-65424D01*
X89004Y-65425D01*
X89105Y-65383D01*
X89182Y-65305D01*
X89224Y-65204D01*
X89225Y-65095D01*
X89225Y-65433D01*
X89204Y-65425D01*
X89095Y-65424D01*
X88994Y-65466D01*
X88917Y-65544D01*
X88875Y-65645D01*
X88874Y-65754D01*
X88916Y-65855D01*
X88994Y-65932D01*
X89095Y-65974D01*
X89204Y-65975D01*
X89305Y-65933D01*
X89382Y-65855D01*
X89424Y-65754D01*
X89425Y-65645D01*
X89425Y-66704D01*
X89354Y-66675D01*
X89245Y-66674D01*
X89144Y-66716D01*
X89067Y-66794D01*
X89025Y-66895D01*
X89024Y-67004D01*
X89066Y-67105D01*
X89144Y-67182D01*
X89245Y-67224D01*
X89354Y-67225D01*
X89455Y-67183D01*
X89532Y-67105D01*
X89574Y-67004D01*
X89575Y-66895D01*
X89575Y-67675D01*
X88372Y-67675D01*
X88252Y-67555D01*
X88305Y-67533D01*
X88382Y-67455D01*
X88424Y-67354D01*
X88425Y-67245D01*
X88414Y-67220D01*
X88505Y-67183D01*
X88524Y-67163D01*
X88544Y-67182D01*
X88645Y-67224D01*
X88754Y-67225D01*
X88855Y-67183D01*
X88932Y-67105D01*
X88974Y-67004D01*
X88975Y-66895D01*
X88933Y-66794D01*
X88855Y-66717D01*
X88754Y-66675D01*
X88675Y-66674D01*
X88675Y-65795D01*
X88633Y-65694D01*
X88555Y-65617D01*
X88454Y-65575D01*
X88345Y-65574D01*
X88244Y-65616D01*
X88167Y-65694D01*
X88125Y-65795D01*
X88124Y-65904D01*
X88166Y-66005D01*
X88244Y-66082D01*
X88345Y-66124D01*
X88454Y-66125D01*
X88555Y-66083D01*
X88632Y-66005D01*
X88674Y-65904D01*
X88675Y-65795D01*
X88675Y-66674D01*
X88645Y-66674D01*
X88544Y-66716D01*
X88525Y-66736D01*
X88505Y-66717D01*
X88404Y-66675D01*
X88295Y-66674D01*
X88194Y-66716D01*
X88117Y-66794D01*
X88075Y-66895D01*
X88074Y-67004D01*
X88085Y-67029D01*
X87994Y-67066D01*
X87917Y-67144D01*
X87894Y-67197D01*
X87773Y-67076D01*
X87716Y-67038D01*
X87675Y-67029D01*
X87675Y-65845D01*
X87633Y-65744D01*
X87555Y-65667D01*
X87454Y-65625D01*
X87345Y-65624D01*
X87244Y-65666D01*
X87167Y-65744D01*
X87125Y-65845D01*
X87124Y-65954D01*
X87166Y-66055D01*
X87244Y-66132D01*
X87345Y-66174D01*
X87454Y-66175D01*
X87555Y-66133D01*
X87632Y-66055D01*
X87674Y-65954D01*
X87675Y-65845D01*
X87675Y-67029D01*
X87650Y-67025D01*
X85875Y-67025D01*
X85875Y-63375D01*
X87650Y-63375D01*
X87716Y-63361D01*
X87716Y-63361D01*
X87773Y-63323D01*
X88030Y-63067D01*
X88066Y-63155D01*
X88144Y-63232D01*
X88245Y-63274D01*
X88354Y-63275D01*
X88455Y-63233D01*
X88532Y-63155D01*
X88574Y-63054D01*
X88575Y-62945D01*
X88533Y-62844D01*
X88455Y-62767D01*
X88367Y-62730D01*
X88372Y-62725D01*
X94425Y-62725D01*
X94425Y-67675D01*
X94425Y-67675D01*
G37*
G54D14*
X94425Y-67675D02*
X93525Y-67675D01*
X93525Y-65645D01*
X93483Y-65544D01*
X93405Y-65467D01*
X93375Y-65454D01*
X93375Y-64595D01*
X93375Y-63695D01*
X93333Y-63594D01*
X93255Y-63517D01*
X93154Y-63475D01*
X93116Y-63475D01*
X93124Y-63454D01*
X93125Y-63345D01*
X93083Y-63244D01*
X93005Y-63167D01*
X92904Y-63125D01*
X92795Y-63124D01*
X92694Y-63166D01*
X92617Y-63244D01*
X92575Y-63345D01*
X92574Y-63454D01*
X92616Y-63555D01*
X92694Y-63632D01*
X92795Y-63674D01*
X92833Y-63674D01*
X92825Y-63695D01*
X92824Y-63804D01*
X92866Y-63905D01*
X92944Y-63982D01*
X93045Y-64024D01*
X93154Y-64025D01*
X93255Y-63983D01*
X93332Y-63905D01*
X93374Y-63804D01*
X93375Y-63695D01*
X93375Y-64595D01*
X93333Y-64494D01*
X93255Y-64417D01*
X93154Y-64375D01*
X93045Y-64374D01*
X92944Y-64416D01*
X92867Y-64494D01*
X92825Y-64595D01*
X92824Y-64704D01*
X92794Y-64716D01*
X92717Y-64794D01*
X92675Y-64895D01*
X92674Y-65004D01*
X92716Y-65105D01*
X92794Y-65182D01*
X92895Y-65224D01*
X93004Y-65225D01*
X93105Y-65183D01*
X93182Y-65105D01*
X93224Y-65004D01*
X93225Y-64895D01*
X93255Y-64883D01*
X93332Y-64805D01*
X93374Y-64704D01*
X93375Y-64595D01*
X93375Y-65454D01*
X93304Y-65425D01*
X93195Y-65424D01*
X93094Y-65466D01*
X93017Y-65544D01*
X92975Y-65645D01*
X92974Y-65754D01*
X93016Y-65855D01*
X93094Y-65932D01*
X93195Y-65974D01*
X93304Y-65975D01*
X93405Y-65933D01*
X93482Y-65855D01*
X93524Y-65754D01*
X93525Y-65645D01*
X93525Y-67675D01*
X93016Y-67675D01*
X93024Y-67654D01*
X93025Y-67545D01*
X92983Y-67444D01*
X92981Y-67443D01*
X93005Y-67433D01*
X93082Y-67355D01*
X93124Y-67254D01*
X93125Y-67145D01*
X93083Y-67044D01*
X93005Y-66967D01*
X92904Y-66925D01*
X92795Y-66924D01*
X92694Y-66966D01*
X92617Y-67044D01*
X92575Y-67145D01*
X92574Y-67254D01*
X92616Y-67355D01*
X92618Y-67356D01*
X92594Y-67366D01*
X92517Y-67444D01*
X92498Y-67489D01*
X92498Y-66745D01*
X92456Y-66644D01*
X92378Y-66567D01*
X92277Y-66525D01*
X92175Y-66524D01*
X92175Y-66145D01*
X92133Y-66044D01*
X92055Y-65967D01*
X92015Y-65950D01*
X92055Y-65933D01*
X92132Y-65855D01*
X92174Y-65754D01*
X92175Y-65645D01*
X92133Y-65544D01*
X92113Y-65525D01*
X92132Y-65505D01*
X92174Y-65404D01*
X92175Y-65295D01*
X92133Y-65194D01*
X92088Y-65149D01*
X92132Y-65105D01*
X92174Y-65004D01*
X92175Y-64895D01*
X92133Y-64794D01*
X92113Y-64775D01*
X92132Y-64755D01*
X92174Y-64654D01*
X92175Y-64545D01*
X92175Y-63045D01*
X92133Y-62944D01*
X92055Y-62867D01*
X91954Y-62825D01*
X91845Y-62824D01*
X91744Y-62866D01*
X91667Y-62944D01*
X91625Y-63045D01*
X91624Y-63154D01*
X91666Y-63255D01*
X91744Y-63332D01*
X91845Y-63374D01*
X91954Y-63375D01*
X92055Y-63333D01*
X92132Y-63255D01*
X92174Y-63154D01*
X92175Y-63045D01*
X92175Y-64545D01*
X92133Y-64444D01*
X92055Y-64367D01*
X92050Y-64364D01*
X92074Y-64304D01*
X92075Y-64195D01*
X92033Y-64094D01*
X91955Y-64017D01*
X91854Y-63975D01*
X91745Y-63974D01*
X91644Y-64016D01*
X91575Y-64085D01*
X91575Y-63395D01*
X91533Y-63294D01*
X91455Y-63217D01*
X91354Y-63175D01*
X91245Y-63174D01*
X91144Y-63216D01*
X91067Y-63294D01*
X91025Y-63395D01*
X91024Y-63504D01*
X91066Y-63605D01*
X91144Y-63682D01*
X91245Y-63724D01*
X91354Y-63725D01*
X91455Y-63683D01*
X91532Y-63605D01*
X91574Y-63504D01*
X91575Y-63395D01*
X91575Y-64085D01*
X91567Y-64094D01*
X91525Y-64195D01*
X91524Y-64304D01*
X91566Y-64405D01*
X91644Y-64482D01*
X91649Y-64485D01*
X91625Y-64545D01*
X91624Y-64654D01*
X91666Y-64755D01*
X91686Y-64774D01*
X91667Y-64794D01*
X91625Y-64895D01*
X91624Y-65004D01*
X91666Y-65105D01*
X91711Y-65150D01*
X91667Y-65194D01*
X91625Y-65295D01*
X91624Y-65404D01*
X91666Y-65505D01*
X91686Y-65524D01*
X91667Y-65544D01*
X91625Y-65645D01*
X91624Y-65754D01*
X91666Y-65855D01*
X91744Y-65932D01*
X91784Y-65949D01*
X91744Y-65966D01*
X91667Y-66044D01*
X91625Y-66145D01*
X91624Y-66236D01*
X91555Y-66167D01*
X91475Y-66133D01*
X91475Y-65295D01*
X91475Y-64445D01*
X91433Y-64344D01*
X91355Y-64267D01*
X91254Y-64225D01*
X91225Y-64225D01*
X91225Y-64195D01*
X91183Y-64094D01*
X91105Y-64017D01*
X91024Y-63983D01*
X91025Y-63895D01*
X90983Y-63794D01*
X90905Y-63717D01*
X90804Y-63675D01*
X90695Y-63674D01*
X90594Y-63716D01*
X90574Y-63736D01*
X90575Y-63645D01*
X90533Y-63544D01*
X90455Y-63467D01*
X90354Y-63425D01*
X90245Y-63424D01*
X90144Y-63466D01*
X90067Y-63544D01*
X90025Y-63645D01*
X90024Y-63724D01*
X89995Y-63724D01*
X89894Y-63766D01*
X89817Y-63844D01*
X89775Y-63945D01*
X89774Y-64054D01*
X89816Y-64155D01*
X89894Y-64232D01*
X89995Y-64274D01*
X90086Y-64275D01*
X90017Y-64344D01*
X89975Y-64445D01*
X89975Y-64486D01*
X89955Y-64467D01*
X89854Y-64425D01*
X89745Y-64424D01*
X89652Y-64463D01*
X89605Y-64417D01*
X89504Y-64375D01*
X89395Y-64374D01*
X89294Y-64416D01*
X89217Y-64494D01*
X89175Y-64595D01*
X89174Y-64704D01*
X89216Y-64805D01*
X89294Y-64882D01*
X89395Y-64924D01*
X89504Y-64925D01*
X89597Y-64886D01*
X89644Y-64932D01*
X89684Y-64949D01*
X89644Y-64966D01*
X89567Y-65044D01*
X89525Y-65145D01*
X89524Y-65254D01*
X89566Y-65355D01*
X89644Y-65432D01*
X89745Y-65474D01*
X89854Y-65475D01*
X89955Y-65433D01*
X90032Y-65355D01*
X90074Y-65254D01*
X90074Y-65225D01*
X90104Y-65225D01*
X90205Y-65183D01*
X90282Y-65105D01*
X90324Y-65004D01*
X90325Y-64895D01*
X90283Y-64794D01*
X90263Y-64775D01*
X90304Y-64775D01*
X90405Y-64733D01*
X90482Y-64655D01*
X90524Y-64554D01*
X90525Y-64445D01*
X90483Y-64344D01*
X90405Y-64267D01*
X90304Y-64225D01*
X90213Y-64224D01*
X90282Y-64155D01*
X90324Y-64054D01*
X90325Y-63975D01*
X90354Y-63975D01*
X90455Y-63933D01*
X90475Y-63913D01*
X90474Y-64004D01*
X90516Y-64105D01*
X90594Y-64182D01*
X90675Y-64216D01*
X90674Y-64304D01*
X90716Y-64405D01*
X90794Y-64482D01*
X90895Y-64524D01*
X90924Y-64524D01*
X90924Y-64554D01*
X90966Y-64655D01*
X91044Y-64732D01*
X91145Y-64774D01*
X91254Y-64775D01*
X91355Y-64733D01*
X91432Y-64655D01*
X91474Y-64554D01*
X91475Y-64445D01*
X91475Y-65295D01*
X91433Y-65194D01*
X91355Y-65117D01*
X91254Y-65075D01*
X91145Y-65074D01*
X91044Y-65116D01*
X90967Y-65194D01*
X90925Y-65295D01*
X90924Y-65404D01*
X90966Y-65505D01*
X91044Y-65582D01*
X91145Y-65624D01*
X91254Y-65625D01*
X91355Y-65583D01*
X91432Y-65505D01*
X91474Y-65404D01*
X91475Y-65295D01*
X91475Y-66133D01*
X91454Y-66125D01*
X91345Y-66124D01*
X91244Y-66166D01*
X91167Y-66244D01*
X91125Y-66345D01*
X91124Y-66454D01*
X91166Y-66555D01*
X91244Y-66632D01*
X91275Y-66645D01*
X91274Y-66754D01*
X91316Y-66855D01*
X91394Y-66932D01*
X91425Y-66945D01*
X91424Y-67054D01*
X91466Y-67155D01*
X91544Y-67232D01*
X91645Y-67274D01*
X91754Y-67275D01*
X91855Y-67233D01*
X91932Y-67155D01*
X91974Y-67054D01*
X91975Y-66945D01*
X91933Y-66844D01*
X91855Y-66767D01*
X91824Y-66754D01*
X91825Y-66645D01*
X91783Y-66544D01*
X91705Y-66467D01*
X91674Y-66454D01*
X91675Y-66363D01*
X91744Y-66432D01*
X91845Y-66474D01*
X91954Y-66475D01*
X92055Y-66433D01*
X92132Y-66355D01*
X92174Y-66254D01*
X92175Y-66145D01*
X92175Y-66524D01*
X92168Y-66524D01*
X92067Y-66566D01*
X91990Y-66644D01*
X91948Y-66745D01*
X91947Y-66854D01*
X91989Y-66955D01*
X92067Y-67032D01*
X92168Y-67074D01*
X92277Y-67075D01*
X92378Y-67033D01*
X92455Y-66955D01*
X92497Y-66854D01*
X92498Y-66745D01*
X92498Y-67489D01*
X92475Y-67545D01*
X92474Y-67654D01*
X92483Y-67675D01*
X90975Y-67675D01*
X90975Y-66545D01*
X90933Y-66444D01*
X90855Y-66367D01*
X90754Y-66325D01*
X90645Y-66324D01*
X90544Y-66366D01*
X90467Y-66444D01*
X90425Y-66545D01*
X90424Y-66654D01*
X90466Y-66755D01*
X90544Y-66832D01*
X90645Y-66874D01*
X90754Y-66875D01*
X90855Y-66833D01*
X90932Y-66755D01*
X90974Y-66654D01*
X90975Y-66545D01*
X90975Y-67675D01*
X90475Y-67675D01*
X90475Y-66895D01*
X90433Y-66794D01*
X90355Y-66717D01*
X90254Y-66675D01*
X90145Y-66674D01*
X90044Y-66716D01*
X89967Y-66794D01*
X89925Y-66895D01*
X89924Y-67004D01*
X89966Y-67105D01*
X90044Y-67182D01*
X90145Y-67224D01*
X90254Y-67225D01*
X90355Y-67183D01*
X90432Y-67105D01*
X90474Y-67004D01*
X90475Y-66895D01*
X90475Y-67675D01*
X89575Y-67675D01*
X89575Y-66895D01*
X89533Y-66794D01*
X89455Y-66717D01*
X89425Y-66704D01*
X89425Y-65645D01*
X89383Y-65544D01*
X89305Y-65467D01*
X89225Y-65433D01*
X89225Y-65095D01*
X89183Y-64994D01*
X89105Y-64917D01*
X89004Y-64875D01*
X88913Y-64874D01*
X88982Y-64805D01*
X89024Y-64704D01*
X89025Y-64595D01*
X88983Y-64494D01*
X88905Y-64417D01*
X88804Y-64375D01*
X88695Y-64374D01*
X88675Y-64383D01*
X88675Y-63895D01*
X88633Y-63794D01*
X88555Y-63717D01*
X88454Y-63675D01*
X88345Y-63674D01*
X88244Y-63716D01*
X88167Y-63794D01*
X88125Y-63895D01*
X88124Y-64004D01*
X88166Y-64105D01*
X88244Y-64182D01*
X88345Y-64224D01*
X88454Y-64225D01*
X88555Y-64183D01*
X88632Y-64105D01*
X88674Y-64004D01*
X88675Y-63895D01*
X88675Y-64383D01*
X88594Y-64416D01*
X88517Y-64494D01*
X88475Y-64595D01*
X88475Y-64624D01*
X88445Y-64624D01*
X88344Y-64666D01*
X88267Y-64744D01*
X88225Y-64845D01*
X88224Y-64954D01*
X88266Y-65055D01*
X88344Y-65132D01*
X88445Y-65174D01*
X88554Y-65175D01*
X88655Y-65133D01*
X88675Y-65113D01*
X88674Y-65204D01*
X88716Y-65305D01*
X88794Y-65382D01*
X88895Y-65424D01*
X89004Y-65425D01*
X89105Y-65383D01*
X89182Y-65305D01*
X89224Y-65204D01*
X89225Y-65095D01*
X89225Y-65433D01*
X89204Y-65425D01*
X89095Y-65424D01*
X88994Y-65466D01*
X88917Y-65544D01*
X88875Y-65645D01*
X88874Y-65754D01*
X88916Y-65855D01*
X88994Y-65932D01*
X89095Y-65974D01*
X89204Y-65975D01*
X89305Y-65933D01*
X89382Y-65855D01*
X89424Y-65754D01*
X89425Y-65645D01*
X89425Y-66704D01*
X89354Y-66675D01*
X89245Y-66674D01*
X89144Y-66716D01*
X89067Y-66794D01*
X89025Y-66895D01*
X89024Y-67004D01*
X89066Y-67105D01*
X89144Y-67182D01*
X89245Y-67224D01*
X89354Y-67225D01*
X89455Y-67183D01*
X89532Y-67105D01*
X89574Y-67004D01*
X89575Y-66895D01*
X89575Y-67675D01*
X88372Y-67675D01*
X88252Y-67555D01*
X88305Y-67533D01*
X88382Y-67455D01*
X88424Y-67354D01*
X88425Y-67245D01*
X88414Y-67220D01*
X88505Y-67183D01*
X88524Y-67163D01*
X88544Y-67182D01*
X88645Y-67224D01*
X88754Y-67225D01*
X88855Y-67183D01*
X88932Y-67105D01*
X88974Y-67004D01*
X88975Y-66895D01*
X88933Y-66794D01*
X88855Y-66717D01*
X88754Y-66675D01*
X88675Y-66674D01*
X88675Y-65795D01*
X88633Y-65694D01*
X88555Y-65617D01*
X88454Y-65575D01*
X88345Y-65574D01*
X88244Y-65616D01*
X88167Y-65694D01*
X88125Y-65795D01*
X88124Y-65904D01*
X88166Y-66005D01*
X88244Y-66082D01*
X88345Y-66124D01*
X88454Y-66125D01*
X88555Y-66083D01*
X88632Y-66005D01*
X88674Y-65904D01*
X88675Y-65795D01*
X88675Y-66674D01*
X88645Y-66674D01*
X88544Y-66716D01*
X88525Y-66736D01*
X88505Y-66717D01*
X88404Y-66675D01*
X88295Y-66674D01*
X88194Y-66716D01*
X88117Y-66794D01*
X88075Y-66895D01*
X88074Y-67004D01*
X88085Y-67029D01*
X87994Y-67066D01*
X87917Y-67144D01*
X87894Y-67197D01*
X87773Y-67076D01*
X87716Y-67038D01*
X87675Y-67029D01*
X87675Y-65845D01*
X87633Y-65744D01*
X87555Y-65667D01*
X87454Y-65625D01*
X87345Y-65624D01*
X87244Y-65666D01*
X87167Y-65744D01*
X87125Y-65845D01*
X87124Y-65954D01*
X87166Y-66055D01*
X87244Y-66132D01*
X87345Y-66174D01*
X87454Y-66175D01*
X87555Y-66133D01*
X87632Y-66055D01*
X87674Y-65954D01*
X87675Y-65845D01*
X87675Y-67029D01*
X87650Y-67025D01*
X85875Y-67025D01*
X85875Y-63375D01*
X87650Y-63375D01*
X87716Y-63361D01*
X87716Y-63361D01*
X87773Y-63323D01*
X88030Y-63067D01*
X88066Y-63155D01*
X88144Y-63232D01*
X88245Y-63274D01*
X88354Y-63275D01*
X88455Y-63233D01*
X88532Y-63155D01*
X88574Y-63054D01*
X88575Y-62945D01*
X88533Y-62844D01*
X88455Y-62767D01*
X88367Y-62730D01*
X88372Y-62725D01*
X94425Y-62725D01*
X94425Y-67675D01*
M02*
